G04 #@! TF.GenerationSoftware,KiCad,Pcbnew,5.1.8+dfsg1-1~bpo10+1*
G04 #@! TF.CreationDate,2021-01-14T22:26:34+01:00*
G04 #@! TF.ProjectId,_autosave-easyhive,5f617574-6f73-4617-9665-2d6561737968,rev?*
G04 #@! TF.SameCoordinates,Original*
G04 #@! TF.FileFunction,Legend,Top*
G04 #@! TF.FilePolarity,Positive*
%FSLAX46Y46*%
G04 Gerber Fmt 4.6, Leading zero omitted, Abs format (unit mm)*
G04 Created by KiCad (PCBNEW 5.1.8+dfsg1-1~bpo10+1) date 2021-01-14 22:26:34*
%MOMM*%
%LPD*%
G01*
G04 APERTURE LIST*
%ADD10C,0.150000*%
%ADD11C,0.152400*%
%ADD12C,0.127000*%
%ADD13C,0.100000*%
%ADD14C,0.203200*%
%ADD15C,0.200000*%
%ADD16C,0.050800*%
%ADD17C,0.120000*%
G04 APERTURE END LIST*
D10*
X164745119Y-134461904D02*
X164478452Y-134080952D01*
X164287976Y-134461904D02*
X164287976Y-133661904D01*
X164592738Y-133661904D01*
X164668928Y-133700000D01*
X164707023Y-133738095D01*
X164745119Y-133814285D01*
X164745119Y-133928571D01*
X164707023Y-134004761D01*
X164668928Y-134042857D01*
X164592738Y-134080952D01*
X164287976Y-134080952D01*
X165011785Y-134461904D02*
X165430833Y-133928571D01*
X165011785Y-133928571D02*
X165430833Y-134461904D01*
X164373690Y-131661904D02*
X164830833Y-131661904D01*
X164602261Y-132461904D02*
X164602261Y-131661904D01*
X165021309Y-132461904D02*
X165440357Y-131928571D01*
X165021309Y-131928571D02*
X165440357Y-132461904D01*
X162300000Y-96300000D02*
X162700000Y-96800000D01*
X159050000Y-85600000D02*
X159250000Y-85750000D01*
X157250000Y-85600000D02*
X159000000Y-85600000D01*
X156700000Y-85250000D02*
X157250000Y-85600000D01*
X161450000Y-87450000D02*
X161850000Y-87850000D01*
X142800000Y-127200000D02*
X143550000Y-126500000D01*
X140309404Y-123350000D02*
X140214166Y-123302380D01*
X140071309Y-123302380D01*
X139928452Y-123350000D01*
X139833214Y-123445238D01*
X139785595Y-123540476D01*
X139737976Y-123730952D01*
X139737976Y-123873809D01*
X139785595Y-124064285D01*
X139833214Y-124159523D01*
X139928452Y-124254761D01*
X140071309Y-124302380D01*
X140166547Y-124302380D01*
X140309404Y-124254761D01*
X140357023Y-124207142D01*
X140357023Y-123873809D01*
X140166547Y-123873809D01*
X140785595Y-124302380D02*
X140785595Y-123302380D01*
X141357023Y-124302380D01*
X141357023Y-123302380D01*
X141833214Y-124302380D02*
X141833214Y-123302380D01*
X142071309Y-123302380D01*
X142214166Y-123350000D01*
X142309404Y-123445238D01*
X142357023Y-123540476D01*
X142404642Y-123730952D01*
X142404642Y-123873809D01*
X142357023Y-124064285D01*
X142309404Y-124159523D01*
X142214166Y-124254761D01*
X142071309Y-124302380D01*
X141833214Y-124302380D01*
X147200000Y-109600000D02*
X146950000Y-112550000D01*
X161900000Y-99000000D02*
X162600000Y-98300000D01*
X140259404Y-115550000D02*
X140164166Y-115502380D01*
X140021309Y-115502380D01*
X139878452Y-115550000D01*
X139783214Y-115645238D01*
X139735595Y-115740476D01*
X139687976Y-115930952D01*
X139687976Y-116073809D01*
X139735595Y-116264285D01*
X139783214Y-116359523D01*
X139878452Y-116454761D01*
X140021309Y-116502380D01*
X140116547Y-116502380D01*
X140259404Y-116454761D01*
X140307023Y-116407142D01*
X140307023Y-116073809D01*
X140116547Y-116073809D01*
X140735595Y-116502380D02*
X140735595Y-115502380D01*
X141307023Y-116502380D01*
X141307023Y-115502380D01*
X141783214Y-116502380D02*
X141783214Y-115502380D01*
X142021309Y-115502380D01*
X142164166Y-115550000D01*
X142259404Y-115645238D01*
X142307023Y-115740476D01*
X142354642Y-115930952D01*
X142354642Y-116073809D01*
X142307023Y-116264285D01*
X142259404Y-116359523D01*
X142164166Y-116454761D01*
X142021309Y-116502380D01*
X141783214Y-116502380D01*
X145500000Y-97700000D02*
X144600000Y-97700000D01*
X141700000Y-91200000D02*
X141650000Y-90650000D01*
X158664404Y-90852380D02*
X158664404Y-89852380D01*
X158902500Y-89852380D01*
X159045357Y-89900000D01*
X159140595Y-89995238D01*
X159188214Y-90090476D01*
X159235833Y-90280952D01*
X159235833Y-90423809D01*
X159188214Y-90614285D01*
X159140595Y-90709523D01*
X159045357Y-90804761D01*
X158902500Y-90852380D01*
X158664404Y-90852380D01*
X159616785Y-90566666D02*
X160092976Y-90566666D01*
X159521547Y-90852380D02*
X159854880Y-89852380D01*
X160188214Y-90852380D01*
X160378690Y-89852380D02*
X160950119Y-89852380D01*
X160664404Y-90852380D02*
X160664404Y-89852380D01*
X161235833Y-90566666D02*
X161712023Y-90566666D01*
X161140595Y-90852380D02*
X161473928Y-89852380D01*
X161807261Y-90852380D01*
X161350000Y-85981540D02*
X162000000Y-85500000D01*
X161316785Y-94000000D02*
X161221547Y-93952380D01*
X161078690Y-93952380D01*
X160935833Y-94000000D01*
X160840595Y-94095238D01*
X160792976Y-94190476D01*
X160745357Y-94380952D01*
X160745357Y-94523809D01*
X160792976Y-94714285D01*
X160840595Y-94809523D01*
X160935833Y-94904761D01*
X161078690Y-94952380D01*
X161173928Y-94952380D01*
X161316785Y-94904761D01*
X161364404Y-94857142D01*
X161364404Y-94523809D01*
X161173928Y-94523809D01*
X161792976Y-94952380D02*
X161792976Y-93952380D01*
X162364404Y-94952380D01*
X162364404Y-93952380D01*
X162840595Y-94952380D02*
X162840595Y-93952380D01*
X163078690Y-93952380D01*
X163221547Y-94000000D01*
X163316785Y-94095238D01*
X163364404Y-94190476D01*
X163412023Y-94380952D01*
X163412023Y-94523809D01*
X163364404Y-94714285D01*
X163316785Y-94809523D01*
X163221547Y-94904761D01*
X163078690Y-94952380D01*
X162840595Y-94952380D01*
X132740400Y-109601000D02*
X132029200Y-110058200D01*
X137769600Y-105511600D02*
X136961600Y-105529000D01*
X135971576Y-77908361D02*
X136114433Y-77955980D01*
X136352528Y-77955980D01*
X136447766Y-77908361D01*
X136495385Y-77860742D01*
X136543004Y-77765504D01*
X136543004Y-77670266D01*
X136495385Y-77575028D01*
X136447766Y-77527409D01*
X136352528Y-77479790D01*
X136162052Y-77432171D01*
X136066814Y-77384552D01*
X136019195Y-77336933D01*
X135971576Y-77241695D01*
X135971576Y-77146457D01*
X136019195Y-77051219D01*
X136066814Y-77003600D01*
X136162052Y-76955980D01*
X136400147Y-76955980D01*
X136543004Y-77003600D01*
X136971576Y-77575028D02*
X137733480Y-77575028D01*
X137352528Y-77955980D02*
X137352528Y-77194076D01*
X135971576Y-79908361D02*
X136114433Y-79955980D01*
X136352528Y-79955980D01*
X136447766Y-79908361D01*
X136495385Y-79860742D01*
X136543004Y-79765504D01*
X136543004Y-79670266D01*
X136495385Y-79575028D01*
X136447766Y-79527409D01*
X136352528Y-79479790D01*
X136162052Y-79432171D01*
X136066814Y-79384552D01*
X136019195Y-79336933D01*
X135971576Y-79241695D01*
X135971576Y-79146457D01*
X136019195Y-79051219D01*
X136066814Y-79003600D01*
X136162052Y-78955980D01*
X136400147Y-78955980D01*
X136543004Y-79003600D01*
X136971576Y-79575028D02*
X137733480Y-79575028D01*
X135368357Y-85050380D02*
X135606452Y-86050380D01*
X135796928Y-85336095D01*
X135987404Y-86050380D01*
X136225500Y-85050380D01*
X136558833Y-86002761D02*
X136701690Y-86050380D01*
X136939785Y-86050380D01*
X137035023Y-86002761D01*
X137082642Y-85955142D01*
X137130261Y-85859904D01*
X137130261Y-85764666D01*
X137082642Y-85669428D01*
X137035023Y-85621809D01*
X136939785Y-85574190D01*
X136749309Y-85526571D01*
X136654071Y-85478952D01*
X136606452Y-85431333D01*
X136558833Y-85336095D01*
X136558833Y-85240857D01*
X136606452Y-85145619D01*
X136654071Y-85098000D01*
X136749309Y-85050380D01*
X136987404Y-85050380D01*
X137130261Y-85098000D01*
X135415976Y-88034761D02*
X135558833Y-88082380D01*
X135796928Y-88082380D01*
X135892166Y-88034761D01*
X135939785Y-87987142D01*
X135987404Y-87891904D01*
X135987404Y-87796666D01*
X135939785Y-87701428D01*
X135892166Y-87653809D01*
X135796928Y-87606190D01*
X135606452Y-87558571D01*
X135511214Y-87510952D01*
X135463595Y-87463333D01*
X135415976Y-87368095D01*
X135415976Y-87272857D01*
X135463595Y-87177619D01*
X135511214Y-87130000D01*
X135606452Y-87082380D01*
X135844547Y-87082380D01*
X135987404Y-87130000D01*
X136415976Y-88082380D02*
X136415976Y-87082380D01*
X136654071Y-87082380D01*
X136796928Y-87130000D01*
X136892166Y-87225238D01*
X136939785Y-87320476D01*
X136987404Y-87510952D01*
X136987404Y-87653809D01*
X136939785Y-87844285D01*
X136892166Y-87939523D01*
X136796928Y-88034761D01*
X136654071Y-88082380D01*
X136415976Y-88082380D01*
X135415976Y-90066761D02*
X135558833Y-90114380D01*
X135796928Y-90114380D01*
X135892166Y-90066761D01*
X135939785Y-90019142D01*
X135987404Y-89923904D01*
X135987404Y-89828666D01*
X135939785Y-89733428D01*
X135892166Y-89685809D01*
X135796928Y-89638190D01*
X135606452Y-89590571D01*
X135511214Y-89542952D01*
X135463595Y-89495333D01*
X135415976Y-89400095D01*
X135415976Y-89304857D01*
X135463595Y-89209619D01*
X135511214Y-89162000D01*
X135606452Y-89114380D01*
X135844547Y-89114380D01*
X135987404Y-89162000D01*
X136987404Y-90019142D02*
X136939785Y-90066761D01*
X136796928Y-90114380D01*
X136701690Y-90114380D01*
X136558833Y-90066761D01*
X136463595Y-89971523D01*
X136415976Y-89876285D01*
X136368357Y-89685809D01*
X136368357Y-89542952D01*
X136415976Y-89352476D01*
X136463595Y-89257238D01*
X136558833Y-89162000D01*
X136701690Y-89114380D01*
X136796928Y-89114380D01*
X136939785Y-89162000D01*
X136987404Y-89209619D01*
X137415976Y-90114380D02*
X137415976Y-89114380D01*
X137987404Y-90114380D02*
X137558833Y-89542952D01*
X137987404Y-89114380D02*
X137415976Y-89685809D01*
X135592738Y-94952380D02*
X136164166Y-94952380D01*
X135878452Y-95952380D02*
X135878452Y-94952380D01*
X136449880Y-95904761D02*
X136592738Y-95952380D01*
X136830833Y-95952380D01*
X136926071Y-95904761D01*
X136973690Y-95857142D01*
X137021309Y-95761904D01*
X137021309Y-95666666D01*
X136973690Y-95571428D01*
X136926071Y-95523809D01*
X136830833Y-95476190D01*
X136640357Y-95428571D01*
X136545119Y-95380952D01*
X136497500Y-95333333D01*
X136449880Y-95238095D01*
X136449880Y-95142857D01*
X136497500Y-95047619D01*
X136545119Y-95000000D01*
X136640357Y-94952380D01*
X136878452Y-94952380D01*
X137021309Y-95000000D01*
X135796928Y-97464571D02*
X135939785Y-97512190D01*
X135987404Y-97559809D01*
X136035023Y-97655047D01*
X136035023Y-97797904D01*
X135987404Y-97893142D01*
X135939785Y-97940761D01*
X135844547Y-97988380D01*
X135463595Y-97988380D01*
X135463595Y-96988380D01*
X135796928Y-96988380D01*
X135892166Y-97036000D01*
X135939785Y-97083619D01*
X135987404Y-97178857D01*
X135987404Y-97274095D01*
X135939785Y-97369333D01*
X135892166Y-97416952D01*
X135796928Y-97464571D01*
X135463595Y-97464571D01*
X136463595Y-97607428D02*
X137225500Y-97607428D01*
X135796928Y-99432171D02*
X135939785Y-99479790D01*
X135987404Y-99527409D01*
X136035023Y-99622647D01*
X136035023Y-99765504D01*
X135987404Y-99860742D01*
X135939785Y-99908361D01*
X135844547Y-99955980D01*
X135463595Y-99955980D01*
X135463595Y-98955980D01*
X135796928Y-98955980D01*
X135892166Y-99003600D01*
X135939785Y-99051219D01*
X135987404Y-99146457D01*
X135987404Y-99241695D01*
X135939785Y-99336933D01*
X135892166Y-99384552D01*
X135796928Y-99432171D01*
X135463595Y-99432171D01*
X136463595Y-99575028D02*
X137225500Y-99575028D01*
X136844547Y-99955980D02*
X136844547Y-99194076D01*
X137981376Y-105840161D02*
X138124233Y-105887780D01*
X138362328Y-105887780D01*
X138457566Y-105840161D01*
X138505185Y-105792542D01*
X138552804Y-105697304D01*
X138552804Y-105602066D01*
X138505185Y-105506828D01*
X138457566Y-105459209D01*
X138362328Y-105411590D01*
X138171852Y-105363971D01*
X138076614Y-105316352D01*
X138028995Y-105268733D01*
X137981376Y-105173495D01*
X137981376Y-105078257D01*
X138028995Y-104983019D01*
X138076614Y-104935400D01*
X138171852Y-104887780D01*
X138409947Y-104887780D01*
X138552804Y-104935400D01*
X139552804Y-105792542D02*
X139505185Y-105840161D01*
X139362328Y-105887780D01*
X139267090Y-105887780D01*
X139124233Y-105840161D01*
X139028995Y-105744923D01*
X138981376Y-105649685D01*
X138933757Y-105459209D01*
X138933757Y-105316352D01*
X138981376Y-105125876D01*
X139028995Y-105030638D01*
X139124233Y-104935400D01*
X139267090Y-104887780D01*
X139362328Y-104887780D01*
X139505185Y-104935400D01*
X139552804Y-104983019D01*
X140457566Y-105887780D02*
X139981376Y-105887780D01*
X139981376Y-104887780D01*
X137955976Y-106957761D02*
X138098833Y-107005380D01*
X138336928Y-107005380D01*
X138432166Y-106957761D01*
X138479785Y-106910142D01*
X138527404Y-106814904D01*
X138527404Y-106719666D01*
X138479785Y-106624428D01*
X138432166Y-106576809D01*
X138336928Y-106529190D01*
X138146452Y-106481571D01*
X138051214Y-106433952D01*
X138003595Y-106386333D01*
X137955976Y-106291095D01*
X137955976Y-106195857D01*
X138003595Y-106100619D01*
X138051214Y-106053000D01*
X138146452Y-106005380D01*
X138384547Y-106005380D01*
X138527404Y-106053000D01*
X138955976Y-107005380D02*
X138955976Y-106005380D01*
X139194071Y-106005380D01*
X139336928Y-106053000D01*
X139432166Y-106148238D01*
X139479785Y-106243476D01*
X139527404Y-106433952D01*
X139527404Y-106576809D01*
X139479785Y-106767285D01*
X139432166Y-106862523D01*
X139336928Y-106957761D01*
X139194071Y-107005380D01*
X138955976Y-107005380D01*
X139908357Y-106719666D02*
X140384547Y-106719666D01*
X139813119Y-107005380D02*
X140146452Y-106005380D01*
X140479785Y-107005380D01*
X139735595Y-120502380D02*
X139735595Y-119502380D01*
X140116547Y-119502380D01*
X140211785Y-119550000D01*
X140259404Y-119597619D01*
X140307023Y-119692857D01*
X140307023Y-119835714D01*
X140259404Y-119930952D01*
X140211785Y-119978571D01*
X140116547Y-120026190D01*
X139735595Y-120026190D01*
X140687976Y-119597619D02*
X140735595Y-119550000D01*
X140830833Y-119502380D01*
X141068928Y-119502380D01*
X141164166Y-119550000D01*
X141211785Y-119597619D01*
X141259404Y-119692857D01*
X141259404Y-119788095D01*
X141211785Y-119930952D01*
X140640357Y-120502380D01*
X141259404Y-120502380D01*
X139785595Y-118502380D02*
X139785595Y-117502380D01*
X140357023Y-118502380D01*
X140357023Y-117502380D01*
X140785595Y-117597619D02*
X140833214Y-117550000D01*
X140928452Y-117502380D01*
X141166547Y-117502380D01*
X141261785Y-117550000D01*
X141309404Y-117597619D01*
X141357023Y-117692857D01*
X141357023Y-117788095D01*
X141309404Y-117930952D01*
X140737976Y-118502380D01*
X141357023Y-118502380D01*
X139785595Y-128502380D02*
X139785595Y-127502380D01*
X140357023Y-128502380D01*
X140357023Y-127502380D01*
X141357023Y-128502380D02*
X140785595Y-128502380D01*
X141071309Y-128502380D02*
X141071309Y-127502380D01*
X140976071Y-127645238D01*
X140880833Y-127740476D01*
X140785595Y-127788095D01*
X139785595Y-129902380D02*
X139785595Y-128902380D01*
X140166547Y-128902380D01*
X140261785Y-128950000D01*
X140309404Y-128997619D01*
X140357023Y-129092857D01*
X140357023Y-129235714D01*
X140309404Y-129330952D01*
X140261785Y-129378571D01*
X140166547Y-129426190D01*
X139785595Y-129426190D01*
X141309404Y-129902380D02*
X140737976Y-129902380D01*
X141023690Y-129902380D02*
X141023690Y-128902380D01*
X140928452Y-129045238D01*
X140833214Y-129140476D01*
X140737976Y-129188095D01*
X159316785Y-76600000D02*
X159221547Y-76552380D01*
X159078690Y-76552380D01*
X158935833Y-76600000D01*
X158840595Y-76695238D01*
X158792976Y-76790476D01*
X158745357Y-76980952D01*
X158745357Y-77123809D01*
X158792976Y-77314285D01*
X158840595Y-77409523D01*
X158935833Y-77504761D01*
X159078690Y-77552380D01*
X159173928Y-77552380D01*
X159316785Y-77504761D01*
X159364404Y-77457142D01*
X159364404Y-77123809D01*
X159173928Y-77123809D01*
X159792976Y-77552380D02*
X159792976Y-76552380D01*
X160364404Y-77552380D01*
X160364404Y-76552380D01*
X160840595Y-77552380D02*
X160840595Y-76552380D01*
X161078690Y-76552380D01*
X161221547Y-76600000D01*
X161316785Y-76695238D01*
X161364404Y-76790476D01*
X161412023Y-76980952D01*
X161412023Y-77123809D01*
X161364404Y-77314285D01*
X161316785Y-77409523D01*
X161221547Y-77504761D01*
X161078690Y-77552380D01*
X160840595Y-77552380D01*
X158478690Y-79802380D02*
X158478690Y-78802380D01*
X159050119Y-79802380D01*
X159050119Y-78802380D01*
X160097738Y-79802380D02*
X159764404Y-79326190D01*
X159526309Y-79802380D02*
X159526309Y-78802380D01*
X159907261Y-78802380D01*
X160002500Y-78850000D01*
X160050119Y-78897619D01*
X160097738Y-78992857D01*
X160097738Y-79135714D01*
X160050119Y-79230952D01*
X160002500Y-79278571D01*
X159907261Y-79326190D01*
X159526309Y-79326190D01*
X160478690Y-79754761D02*
X160621547Y-79802380D01*
X160859642Y-79802380D01*
X160954880Y-79754761D01*
X161002500Y-79707142D01*
X161050119Y-79611904D01*
X161050119Y-79516666D01*
X161002500Y-79421428D01*
X160954880Y-79373809D01*
X160859642Y-79326190D01*
X160669166Y-79278571D01*
X160573928Y-79230952D01*
X160526309Y-79183333D01*
X160478690Y-79088095D01*
X160478690Y-78992857D01*
X160526309Y-78897619D01*
X160573928Y-78850000D01*
X160669166Y-78802380D01*
X160907261Y-78802380D01*
X161050119Y-78850000D01*
X161335833Y-78802380D02*
X161907261Y-78802380D01*
X161621547Y-79802380D02*
X161621547Y-78802380D01*
X157188214Y-81504761D02*
X157331071Y-81552380D01*
X157569166Y-81552380D01*
X157664404Y-81504761D01*
X157712023Y-81457142D01*
X157759642Y-81361904D01*
X157759642Y-81266666D01*
X157712023Y-81171428D01*
X157664404Y-81123809D01*
X157569166Y-81076190D01*
X157378690Y-81028571D01*
X157283452Y-80980952D01*
X157235833Y-80933333D01*
X157188214Y-80838095D01*
X157188214Y-80742857D01*
X157235833Y-80647619D01*
X157283452Y-80600000D01*
X157378690Y-80552380D01*
X157616785Y-80552380D01*
X157759642Y-80600000D01*
X158092976Y-80552380D02*
X158331071Y-81552380D01*
X158521547Y-80838095D01*
X158712023Y-81552380D01*
X158950119Y-80552380D01*
X159902500Y-81457142D02*
X159854880Y-81504761D01*
X159712023Y-81552380D01*
X159616785Y-81552380D01*
X159473928Y-81504761D01*
X159378690Y-81409523D01*
X159331071Y-81314285D01*
X159283452Y-81123809D01*
X159283452Y-80980952D01*
X159331071Y-80790476D01*
X159378690Y-80695238D01*
X159473928Y-80600000D01*
X159616785Y-80552380D01*
X159712023Y-80552380D01*
X159854880Y-80600000D01*
X159902500Y-80647619D01*
X160807261Y-81552380D02*
X160331071Y-81552380D01*
X160331071Y-80552380D01*
X161140595Y-81552380D02*
X161140595Y-80552380D01*
X161712023Y-81552380D02*
X161283452Y-80980952D01*
X161712023Y-80552380D02*
X161140595Y-81123809D01*
X157523928Y-85154761D02*
X157666785Y-85202380D01*
X157904880Y-85202380D01*
X158000119Y-85154761D01*
X158047738Y-85107142D01*
X158095357Y-85011904D01*
X158095357Y-84916666D01*
X158047738Y-84821428D01*
X158000119Y-84773809D01*
X157904880Y-84726190D01*
X157714404Y-84678571D01*
X157619166Y-84630952D01*
X157571547Y-84583333D01*
X157523928Y-84488095D01*
X157523928Y-84392857D01*
X157571547Y-84297619D01*
X157619166Y-84250000D01*
X157714404Y-84202380D01*
X157952500Y-84202380D01*
X158095357Y-84250000D01*
X158428690Y-84202380D02*
X158666785Y-85202380D01*
X158857261Y-84488095D01*
X159047738Y-85202380D01*
X159285833Y-84202380D01*
X159666785Y-85202380D02*
X159666785Y-84202380D01*
X159904880Y-84202380D01*
X160047738Y-84250000D01*
X160142976Y-84345238D01*
X160190595Y-84440476D01*
X160238214Y-84630952D01*
X160238214Y-84773809D01*
X160190595Y-84964285D01*
X160142976Y-85059523D01*
X160047738Y-85154761D01*
X159904880Y-85202380D01*
X159666785Y-85202380D01*
X160666785Y-85202380D02*
X160666785Y-84202380D01*
X161333452Y-84202380D02*
X161523928Y-84202380D01*
X161619166Y-84250000D01*
X161714404Y-84345238D01*
X161762023Y-84535714D01*
X161762023Y-84869047D01*
X161714404Y-85059523D01*
X161619166Y-85154761D01*
X161523928Y-85202380D01*
X161333452Y-85202380D01*
X161238214Y-85154761D01*
X161142976Y-85059523D01*
X161095357Y-84869047D01*
X161095357Y-84535714D01*
X161142976Y-84345238D01*
X161238214Y-84250000D01*
X161333452Y-84202380D01*
X160133452Y-86202380D02*
X160752500Y-86202380D01*
X160419166Y-86583333D01*
X160562023Y-86583333D01*
X160657261Y-86630952D01*
X160704880Y-86678571D01*
X160752500Y-86773809D01*
X160752500Y-87011904D01*
X160704880Y-87107142D01*
X160657261Y-87154761D01*
X160562023Y-87202380D01*
X160276309Y-87202380D01*
X160181071Y-87154761D01*
X160133452Y-87107142D01*
X161038214Y-86202380D02*
X161371547Y-87202380D01*
X161704880Y-86202380D01*
X161942976Y-86202380D02*
X162562023Y-86202380D01*
X162228690Y-86583333D01*
X162371547Y-86583333D01*
X162466785Y-86630952D01*
X162514404Y-86678571D01*
X162562023Y-86773809D01*
X162562023Y-87011904D01*
X162514404Y-87107142D01*
X162466785Y-87154761D01*
X162371547Y-87202380D01*
X162085833Y-87202380D01*
X161990595Y-87154761D01*
X161942976Y-87107142D01*
X137718800Y-106553000D02*
X136917300Y-106553000D01*
X136150000Y-106650000D02*
X135183600Y-107503600D01*
X136093200Y-105511600D02*
X135183600Y-105503600D01*
X161600000Y-83800000D02*
X162001100Y-83503600D01*
X136241404Y-83066000D02*
X136146166Y-83018380D01*
X136003309Y-83018380D01*
X135860452Y-83066000D01*
X135765214Y-83161238D01*
X135717595Y-83256476D01*
X135669976Y-83446952D01*
X135669976Y-83589809D01*
X135717595Y-83780285D01*
X135765214Y-83875523D01*
X135860452Y-83970761D01*
X136003309Y-84018380D01*
X136098547Y-84018380D01*
X136241404Y-83970761D01*
X136289023Y-83923142D01*
X136289023Y-83589809D01*
X136098547Y-83589809D01*
X136717595Y-84018380D02*
X136717595Y-83018380D01*
X137289023Y-84018380D01*
X137289023Y-83018380D01*
X137765214Y-84018380D02*
X137765214Y-83018380D01*
X138003309Y-83018380D01*
X138146166Y-83066000D01*
X138241404Y-83161238D01*
X138289023Y-83256476D01*
X138336642Y-83446952D01*
X138336642Y-83589809D01*
X138289023Y-83780285D01*
X138241404Y-83875523D01*
X138146166Y-83970761D01*
X138003309Y-84018380D01*
X137765214Y-84018380D01*
X136063604Y-104046400D02*
X135968366Y-103998780D01*
X135825509Y-103998780D01*
X135682652Y-104046400D01*
X135587414Y-104141638D01*
X135539795Y-104236876D01*
X135492176Y-104427352D01*
X135492176Y-104570209D01*
X135539795Y-104760685D01*
X135587414Y-104855923D01*
X135682652Y-104951161D01*
X135825509Y-104998780D01*
X135920747Y-104998780D01*
X136063604Y-104951161D01*
X136111223Y-104903542D01*
X136111223Y-104570209D01*
X135920747Y-104570209D01*
X136539795Y-104998780D02*
X136539795Y-103998780D01*
X137111223Y-104998780D01*
X137111223Y-103998780D01*
X137587414Y-104998780D02*
X137587414Y-103998780D01*
X137825509Y-103998780D01*
X137968366Y-104046400D01*
X138063604Y-104141638D01*
X138111223Y-104236876D01*
X138158842Y-104427352D01*
X138158842Y-104570209D01*
X138111223Y-104760685D01*
X138063604Y-104855923D01*
X137968366Y-104951161D01*
X137825509Y-104998780D01*
X137587414Y-104998780D01*
X140309404Y-113650000D02*
X140214166Y-113602380D01*
X140071309Y-113602380D01*
X139928452Y-113650000D01*
X139833214Y-113745238D01*
X139785595Y-113840476D01*
X139737976Y-114030952D01*
X139737976Y-114173809D01*
X139785595Y-114364285D01*
X139833214Y-114459523D01*
X139928452Y-114554761D01*
X140071309Y-114602380D01*
X140166547Y-114602380D01*
X140309404Y-114554761D01*
X140357023Y-114507142D01*
X140357023Y-114173809D01*
X140166547Y-114173809D01*
X140785595Y-114602380D02*
X140785595Y-113602380D01*
X141357023Y-114602380D01*
X141357023Y-113602380D01*
X141833214Y-114602380D02*
X141833214Y-113602380D01*
X142071309Y-113602380D01*
X142214166Y-113650000D01*
X142309404Y-113745238D01*
X142357023Y-113840476D01*
X142404642Y-114030952D01*
X142404642Y-114173809D01*
X142357023Y-114364285D01*
X142309404Y-114459523D01*
X142214166Y-114554761D01*
X142071309Y-114602380D01*
X141833214Y-114602380D01*
X140309404Y-124550000D02*
X140214166Y-124502380D01*
X140071309Y-124502380D01*
X139928452Y-124550000D01*
X139833214Y-124645238D01*
X139785595Y-124740476D01*
X139737976Y-124930952D01*
X139737976Y-125073809D01*
X139785595Y-125264285D01*
X139833214Y-125359523D01*
X139928452Y-125454761D01*
X140071309Y-125502380D01*
X140166547Y-125502380D01*
X140309404Y-125454761D01*
X140357023Y-125407142D01*
X140357023Y-125073809D01*
X140166547Y-125073809D01*
X140785595Y-125502380D02*
X140785595Y-124502380D01*
X141357023Y-125502380D01*
X141357023Y-124502380D01*
X141833214Y-125502380D02*
X141833214Y-124502380D01*
X142071309Y-124502380D01*
X142214166Y-124550000D01*
X142309404Y-124645238D01*
X142357023Y-124740476D01*
X142404642Y-124930952D01*
X142404642Y-125073809D01*
X142357023Y-125264285D01*
X142309404Y-125359523D01*
X142214166Y-125454761D01*
X142071309Y-125502380D01*
X141833214Y-125502380D01*
X139792738Y-121452380D02*
X140126071Y-122452380D01*
X140459404Y-121452380D01*
X140792738Y-122452380D02*
X140792738Y-121452380D01*
X141030833Y-121452380D01*
X141173690Y-121500000D01*
X141268928Y-121595238D01*
X141316547Y-121690476D01*
X141364166Y-121880952D01*
X141364166Y-122023809D01*
X141316547Y-122214285D01*
X141268928Y-122309523D01*
X141173690Y-122404761D01*
X141030833Y-122452380D01*
X140792738Y-122452380D01*
X141792738Y-122452380D02*
X141792738Y-121452380D01*
X142030833Y-121452380D01*
X142173690Y-121500000D01*
X142268928Y-121595238D01*
X142316547Y-121690476D01*
X142364166Y-121880952D01*
X142364166Y-122023809D01*
X142316547Y-122214285D01*
X142268928Y-122309523D01*
X142173690Y-122404761D01*
X142030833Y-122452380D01*
X141792738Y-122452380D01*
X131442738Y-134002380D02*
X131776071Y-135002380D01*
X132109404Y-134002380D01*
X132442738Y-135002380D02*
X132442738Y-134002380D01*
X132680833Y-134002380D01*
X132823690Y-134050000D01*
X132918928Y-134145238D01*
X132966547Y-134240476D01*
X133014166Y-134430952D01*
X133014166Y-134573809D01*
X132966547Y-134764285D01*
X132918928Y-134859523D01*
X132823690Y-134954761D01*
X132680833Y-135002380D01*
X132442738Y-135002380D01*
X133442738Y-135002380D02*
X133442738Y-134002380D01*
X133680833Y-134002380D01*
X133823690Y-134050000D01*
X133918928Y-134145238D01*
X133966547Y-134240476D01*
X134014166Y-134430952D01*
X134014166Y-134573809D01*
X133966547Y-134764285D01*
X133918928Y-134859523D01*
X133823690Y-134954761D01*
X133680833Y-135002380D01*
X133442738Y-135002380D01*
X135368357Y-91146380D02*
X135987404Y-91146380D01*
X135654071Y-91527333D01*
X135796928Y-91527333D01*
X135892166Y-91574952D01*
X135939785Y-91622571D01*
X135987404Y-91717809D01*
X135987404Y-91955904D01*
X135939785Y-92051142D01*
X135892166Y-92098761D01*
X135796928Y-92146380D01*
X135511214Y-92146380D01*
X135415976Y-92098761D01*
X135368357Y-92051142D01*
X136273119Y-91146380D02*
X136606452Y-92146380D01*
X136939785Y-91146380D01*
X137177880Y-91146380D02*
X137796928Y-91146380D01*
X137463595Y-91527333D01*
X137606452Y-91527333D01*
X137701690Y-91574952D01*
X137749309Y-91622571D01*
X137796928Y-91717809D01*
X137796928Y-91955904D01*
X137749309Y-92051142D01*
X137701690Y-92098761D01*
X137606452Y-92146380D01*
X137320738Y-92146380D01*
X137225500Y-92098761D01*
X137177880Y-92051142D01*
X131540357Y-110652380D02*
X132159404Y-110652380D01*
X131826071Y-111033333D01*
X131968928Y-111033333D01*
X132064166Y-111080952D01*
X132111785Y-111128571D01*
X132159404Y-111223809D01*
X132159404Y-111461904D01*
X132111785Y-111557142D01*
X132064166Y-111604761D01*
X131968928Y-111652380D01*
X131683214Y-111652380D01*
X131587976Y-111604761D01*
X131540357Y-111557142D01*
X132445119Y-110652380D02*
X132778452Y-111652380D01*
X133111785Y-110652380D01*
X133349880Y-110652380D02*
X133968928Y-110652380D01*
X133635595Y-111033333D01*
X133778452Y-111033333D01*
X133873690Y-111080952D01*
X133921309Y-111128571D01*
X133968928Y-111223809D01*
X133968928Y-111461904D01*
X133921309Y-111557142D01*
X133873690Y-111604761D01*
X133778452Y-111652380D01*
X133492738Y-111652380D01*
X133397500Y-111604761D01*
X133349880Y-111557142D01*
X133150000Y-133950000D02*
X133635900Y-132956300D01*
X164506285Y-114043785D02*
X164506285Y-113643785D01*
X165134857Y-113472357D02*
X165134857Y-114043785D01*
X163934857Y-114043785D01*
X163934857Y-113472357D01*
X165134857Y-112443785D02*
X164506285Y-112443785D01*
X164392000Y-112500928D01*
X164334857Y-112615214D01*
X164334857Y-112843785D01*
X164392000Y-112958071D01*
X165077714Y-112443785D02*
X165134857Y-112558071D01*
X165134857Y-112843785D01*
X165077714Y-112958071D01*
X164963428Y-113015214D01*
X164849142Y-113015214D01*
X164734857Y-112958071D01*
X164677714Y-112843785D01*
X164677714Y-112558071D01*
X164620571Y-112443785D01*
X165077714Y-111929500D02*
X165134857Y-111815214D01*
X165134857Y-111586642D01*
X165077714Y-111472357D01*
X164963428Y-111415214D01*
X164906285Y-111415214D01*
X164792000Y-111472357D01*
X164734857Y-111586642D01*
X164734857Y-111758071D01*
X164677714Y-111872357D01*
X164563428Y-111929500D01*
X164506285Y-111929500D01*
X164392000Y-111872357D01*
X164334857Y-111758071D01*
X164334857Y-111586642D01*
X164392000Y-111472357D01*
X164334857Y-111015214D02*
X165134857Y-110729500D01*
X164334857Y-110443785D02*
X165134857Y-110729500D01*
X165420571Y-110843785D01*
X165477714Y-110900928D01*
X165534857Y-111015214D01*
X164677714Y-109986642D02*
X164677714Y-109072357D01*
X165134857Y-108500928D02*
X163934857Y-108500928D01*
X164506285Y-108500928D02*
X164506285Y-107815214D01*
X165134857Y-107815214D02*
X163934857Y-107815214D01*
X165134857Y-107243785D02*
X164334857Y-107243785D01*
X163934857Y-107243785D02*
X163992000Y-107300928D01*
X164049142Y-107243785D01*
X163992000Y-107186642D01*
X163934857Y-107243785D01*
X164049142Y-107243785D01*
X164334857Y-106786642D02*
X165134857Y-106500928D01*
X164334857Y-106215214D01*
X165077714Y-105300928D02*
X165134857Y-105415214D01*
X165134857Y-105643785D01*
X165077714Y-105758071D01*
X164963428Y-105815214D01*
X164506285Y-105815214D01*
X164392000Y-105758071D01*
X164334857Y-105643785D01*
X164334857Y-105415214D01*
X164392000Y-105300928D01*
X164506285Y-105243785D01*
X164620571Y-105243785D01*
X164734857Y-105815214D01*
D11*
X142090498Y-109801999D02*
X142090498Y-110055999D01*
X141709498Y-109801999D02*
X142090498Y-109801999D01*
X141709498Y-110055999D02*
X141709498Y-109801999D01*
X142090498Y-110055999D02*
X141709498Y-110055999D01*
X146204699Y-107842998D02*
X146204699Y-103949002D01*
X140845299Y-103949002D02*
X140845299Y-107842998D01*
X146077699Y-105591200D02*
G75*
G03*
X146077699Y-106200800I0J-304800D01*
G01*
D12*
X148971100Y-67637600D02*
X148971100Y-72637600D01*
X148971100Y-72637600D02*
X140971100Y-72637600D01*
X140971100Y-72637600D02*
X140971100Y-67637600D01*
X140971100Y-67637600D02*
X148971100Y-67637600D01*
D13*
X144755499Y-119922002D02*
G75*
G03*
X144755499Y-119922002I-50000J0D01*
G01*
D10*
X145339897Y-120200000D02*
X145752497Y-120200000D01*
X145339897Y-121800002D02*
X145752497Y-121800002D01*
X145752500Y-120422001D02*
X145752500Y-120200000D01*
X145752500Y-121800002D02*
X145752500Y-121578001D01*
D13*
X144750500Y-116621999D02*
G75*
G03*
X144750500Y-116621999I-50000J0D01*
G01*
D10*
X145334898Y-116899997D02*
X145747498Y-116899997D01*
X145334898Y-118499999D02*
X145747498Y-118499999D01*
X145747501Y-117121998D02*
X145747501Y-116899997D01*
X145747501Y-118499999D02*
X145747501Y-118277998D01*
D14*
X164270000Y-88328000D02*
X164270000Y-89598000D01*
X163635000Y-87693000D02*
X162365000Y-87693000D01*
X164270000Y-88328000D02*
X163635000Y-87693000D01*
X162365000Y-87693000D02*
X161730000Y-88328000D01*
X161730000Y-89598000D02*
X161730000Y-88328000D01*
X132731100Y-104138600D02*
X132731100Y-102868600D01*
X133366100Y-102233600D02*
X132731100Y-102868600D01*
X135271100Y-102868600D02*
X134636100Y-102233600D01*
X134636100Y-102233600D02*
X133366100Y-102233600D01*
X135271100Y-102868600D02*
X135271100Y-104138600D01*
X132731100Y-96138600D02*
X132731100Y-94868600D01*
X133366100Y-94233600D02*
X132731100Y-94868600D01*
X135271100Y-94868600D02*
X134636100Y-94233600D01*
X134636100Y-94233600D02*
X133366100Y-94233600D01*
X135271100Y-94868600D02*
X135271100Y-96138600D01*
X132731100Y-84138600D02*
X132731100Y-82868600D01*
X133366100Y-82233600D02*
X132731100Y-82868600D01*
X135271100Y-82868600D02*
X134636100Y-82233600D01*
X134636100Y-82233600D02*
X133366100Y-82233600D01*
X135271100Y-82868600D02*
X135271100Y-84138600D01*
X161731100Y-77538600D02*
X161731100Y-76268600D01*
X162366100Y-75633600D02*
X161731100Y-76268600D01*
X164271100Y-76268600D02*
X163636100Y-75633600D01*
X163636100Y-75633600D02*
X162366100Y-75633600D01*
X164271100Y-76268600D02*
X164271100Y-77538600D01*
D12*
X135251100Y-80753600D02*
X132751100Y-80753600D01*
X135251100Y-76253600D02*
X135251100Y-80753600D01*
X132751100Y-76253600D02*
X135251100Y-76253600D01*
X132751100Y-80753600D02*
X132751100Y-76253600D01*
X139898400Y-109778000D02*
X139298400Y-109778000D01*
X139898400Y-108678000D02*
X139298400Y-108678000D01*
X139298400Y-109778000D02*
X139298400Y-109528000D01*
X139298400Y-109528000D02*
X139298400Y-108928000D01*
X139298400Y-108928000D02*
X139298400Y-108678000D01*
X139898400Y-109778000D02*
X139898400Y-109528000D01*
X139898400Y-109528000D02*
X139898400Y-108928000D01*
X139898400Y-108928000D02*
X139898400Y-108678000D01*
X139898400Y-109528000D02*
X139298400Y-109528000D01*
X139898400Y-108928000D02*
X139298400Y-108928000D01*
X139277000Y-101290400D02*
X139277000Y-100690400D01*
X140377000Y-101290400D02*
X140377000Y-100690400D01*
X139277000Y-100690400D02*
X139527000Y-100690400D01*
X139527000Y-100690400D02*
X140127000Y-100690400D01*
X140127000Y-100690400D02*
X140377000Y-100690400D01*
X139277000Y-101290400D02*
X139527000Y-101290400D01*
X139527000Y-101290400D02*
X140127000Y-101290400D01*
X140127000Y-101290400D02*
X140377000Y-101290400D01*
X139527000Y-101290400D02*
X139527000Y-100690400D01*
X140127000Y-101290400D02*
X140127000Y-100690400D01*
X141584400Y-100016600D02*
X142184400Y-100016600D01*
X141584400Y-101116600D02*
X142184400Y-101116600D01*
X142184400Y-100016600D02*
X142184400Y-100266600D01*
X142184400Y-100266600D02*
X142184400Y-100866600D01*
X142184400Y-100866600D02*
X142184400Y-101116600D01*
X141584400Y-100016600D02*
X141584400Y-100266600D01*
X141584400Y-100266600D02*
X141584400Y-100866600D01*
X141584400Y-100866600D02*
X141584400Y-101116600D01*
X141584400Y-100266600D02*
X142184400Y-100266600D01*
X141584400Y-100866600D02*
X142184400Y-100866600D01*
X136803400Y-102475200D02*
X136803400Y-101875200D01*
X137903400Y-102475200D02*
X137903400Y-101875200D01*
X136803400Y-101875200D02*
X137053400Y-101875200D01*
X137053400Y-101875200D02*
X137653400Y-101875200D01*
X137653400Y-101875200D02*
X137903400Y-101875200D01*
X136803400Y-102475200D02*
X137053400Y-102475200D01*
X137053400Y-102475200D02*
X137653400Y-102475200D01*
X137653400Y-102475200D02*
X137903400Y-102475200D01*
X137053400Y-102475200D02*
X137053400Y-101875200D01*
X137653400Y-102475200D02*
X137653400Y-101875200D01*
X136803400Y-103775200D02*
X136803400Y-103175200D01*
X137903400Y-103775200D02*
X137903400Y-103175200D01*
X136803400Y-103175200D02*
X137053400Y-103175200D01*
X137053400Y-103175200D02*
X137653400Y-103175200D01*
X137653400Y-103175200D02*
X137903400Y-103175200D01*
X136803400Y-103775200D02*
X137053400Y-103775200D01*
X137053400Y-103775200D02*
X137653400Y-103775200D01*
X137653400Y-103775200D02*
X137903400Y-103775200D01*
X137053400Y-103775200D02*
X137053400Y-103175200D01*
X137653400Y-103775200D02*
X137653400Y-103175200D01*
X137241000Y-107654000D02*
X137841000Y-107654000D01*
X137241000Y-108754000D02*
X137841000Y-108754000D01*
X137841000Y-107654000D02*
X137841000Y-107904000D01*
X137841000Y-107904000D02*
X137841000Y-108504000D01*
X137841000Y-108504000D02*
X137841000Y-108754000D01*
X137241000Y-107654000D02*
X137241000Y-107904000D01*
X137241000Y-107904000D02*
X137241000Y-108504000D01*
X137241000Y-108504000D02*
X137241000Y-108754000D01*
X137241000Y-107904000D02*
X137841000Y-107904000D01*
X137241000Y-108504000D02*
X137841000Y-108504000D01*
X135742400Y-107662000D02*
X136342400Y-107662000D01*
X135742400Y-108762000D02*
X136342400Y-108762000D01*
X136342400Y-107662000D02*
X136342400Y-107912000D01*
X136342400Y-107912000D02*
X136342400Y-108512000D01*
X136342400Y-108512000D02*
X136342400Y-108762000D01*
X135742400Y-107662000D02*
X135742400Y-107912000D01*
X135742400Y-107912000D02*
X135742400Y-108512000D01*
X135742400Y-108512000D02*
X135742400Y-108762000D01*
X135742400Y-107912000D02*
X136342400Y-107912000D01*
X135742400Y-108512000D02*
X136342400Y-108512000D01*
X145700000Y-114000000D02*
X145700000Y-114600000D01*
X144600000Y-114000000D02*
X144600000Y-114600000D01*
X145700000Y-114600000D02*
X145450000Y-114600000D01*
X145450000Y-114600000D02*
X144850000Y-114600000D01*
X144850000Y-114600000D02*
X144600000Y-114600000D01*
X145700000Y-114000000D02*
X145450000Y-114000000D01*
X145450000Y-114000000D02*
X144850000Y-114000000D01*
X144850000Y-114000000D02*
X144600000Y-114000000D01*
X145450000Y-114000000D02*
X145450000Y-114600000D01*
X144850000Y-114000000D02*
X144850000Y-114600000D01*
X145725000Y-112875000D02*
X145725000Y-113475000D01*
X144625000Y-112875000D02*
X144625000Y-113475000D01*
X145725000Y-113475000D02*
X145475000Y-113475000D01*
X145475000Y-113475000D02*
X144875000Y-113475000D01*
X144875000Y-113475000D02*
X144625000Y-113475000D01*
X145725000Y-112875000D02*
X145475000Y-112875000D01*
X145475000Y-112875000D02*
X144875000Y-112875000D01*
X144875000Y-112875000D02*
X144625000Y-112875000D01*
X145475000Y-112875000D02*
X145475000Y-113475000D01*
X144875000Y-112875000D02*
X144875000Y-113475000D01*
X157150000Y-87870000D02*
X157150000Y-87270000D01*
X158250000Y-87870000D02*
X158250000Y-87270000D01*
X157150000Y-87270000D02*
X157400000Y-87270000D01*
X157400000Y-87270000D02*
X158000000Y-87270000D01*
X158000000Y-87270000D02*
X158250000Y-87270000D01*
X157150000Y-87870000D02*
X157400000Y-87870000D01*
X157400000Y-87870000D02*
X158000000Y-87870000D01*
X158000000Y-87870000D02*
X158250000Y-87870000D01*
X157400000Y-87870000D02*
X157400000Y-87270000D01*
X158000000Y-87870000D02*
X158000000Y-87270000D01*
X158250000Y-85990000D02*
X158250000Y-86590000D01*
X157150000Y-85990000D02*
X157150000Y-86590000D01*
X158250000Y-86590000D02*
X158000000Y-86590000D01*
X158000000Y-86590000D02*
X157400000Y-86590000D01*
X157400000Y-86590000D02*
X157150000Y-86590000D01*
X158250000Y-85990000D02*
X158000000Y-85990000D01*
X158000000Y-85990000D02*
X157400000Y-85990000D01*
X157400000Y-85990000D02*
X157150000Y-85990000D01*
X158000000Y-85990000D02*
X158000000Y-86590000D01*
X157400000Y-85990000D02*
X157400000Y-86590000D01*
X141911100Y-86658600D02*
X141911100Y-87858600D01*
X140411100Y-86658600D02*
X140411100Y-87858600D01*
D14*
X139650000Y-98200000D02*
X141450000Y-98200000D01*
X141450000Y-97000000D02*
X139650000Y-97000000D01*
D12*
X144766100Y-128958600D02*
X154066100Y-128958600D01*
X154066100Y-128958600D02*
X154066100Y-141668600D01*
X154066100Y-141668600D02*
X144766100Y-141668600D01*
X144766100Y-141668600D02*
X144766100Y-128958600D01*
X155157400Y-98937600D02*
X156457400Y-98937600D01*
X156457400Y-98937600D02*
X156457400Y-96337600D01*
X152457400Y-96337600D02*
X152457400Y-98937600D01*
X152457400Y-98937600D02*
X153757400Y-98937600D01*
X155157400Y-96337600D02*
X156457400Y-96337600D01*
X152457400Y-96337600D02*
X153757400Y-96337600D01*
X155157400Y-99037600D02*
X156457400Y-99037600D01*
X152457400Y-99037600D02*
X153757400Y-99037600D01*
X155157400Y-99137600D02*
X156457400Y-99137600D01*
X152457400Y-99137600D02*
X153757400Y-99137600D01*
X156457400Y-99137600D02*
X156457400Y-98937600D01*
X155157400Y-99137600D02*
X155157400Y-98937600D01*
X153757400Y-99137600D02*
X153757400Y-98937600D01*
X152457400Y-99137600D02*
X152457400Y-98937600D01*
X159575000Y-98950000D02*
X160875000Y-98950000D01*
X160875000Y-98950000D02*
X160875000Y-96350000D01*
X156875000Y-96350000D02*
X156875000Y-98950000D01*
X156875000Y-98950000D02*
X158175000Y-98950000D01*
X159575000Y-96350000D02*
X160875000Y-96350000D01*
X156875000Y-96350000D02*
X158175000Y-96350000D01*
X159575000Y-99050000D02*
X160875000Y-99050000D01*
X156875000Y-99050000D02*
X158175000Y-99050000D01*
X159575000Y-99150000D02*
X160875000Y-99150000D01*
X156875000Y-99150000D02*
X158175000Y-99150000D01*
X160875000Y-99150000D02*
X160875000Y-98950000D01*
X159575000Y-99150000D02*
X159575000Y-98950000D01*
X158175000Y-99150000D02*
X158175000Y-98950000D01*
X156875000Y-99150000D02*
X156875000Y-98950000D01*
D15*
X149050000Y-101050000D02*
G75*
G03*
X149050000Y-101050000I-500000J0D01*
G01*
D12*
X147550000Y-126300000D02*
X147550000Y-100300000D01*
X163550000Y-126300000D02*
X147550000Y-126300000D01*
X163550000Y-100300000D02*
X163550000Y-126300000D01*
X147550000Y-100300000D02*
X163550000Y-100300000D01*
X150896100Y-88168600D02*
X150896100Y-94468600D01*
X150896100Y-94468600D02*
X144596100Y-94468600D01*
X144596100Y-94468600D02*
X144596100Y-88168600D01*
X144596100Y-88168600D02*
X150896100Y-88168600D01*
X145596100Y-88868600D02*
G75*
G03*
X145596100Y-88868600I-300000J0D01*
G01*
D16*
X161001100Y-135582600D02*
X161001100Y-135836600D01*
X161001100Y-141170600D02*
X161001100Y-141424600D01*
D11*
X163922100Y-138503600D02*
G75*
G03*
X163922100Y-138503600I-2921000J0D01*
G01*
D14*
X162501100Y-138503600D02*
G75*
G03*
X162501100Y-138503600I-1500000J0D01*
G01*
D16*
X161001100Y-68582600D02*
X161001100Y-68836600D01*
X161001100Y-74170600D02*
X161001100Y-74424600D01*
D11*
X163922100Y-71503600D02*
G75*
G03*
X163922100Y-71503600I-2921000J0D01*
G01*
D14*
X162501100Y-71503600D02*
G75*
G03*
X162501100Y-71503600I-1500000J0D01*
G01*
D16*
X136001100Y-68582600D02*
X136001100Y-68836600D01*
X136001100Y-74170600D02*
X136001100Y-74424600D01*
D11*
X138922100Y-71503600D02*
G75*
G03*
X138922100Y-71503600I-2921000J0D01*
G01*
D14*
X137501100Y-71503600D02*
G75*
G03*
X137501100Y-71503600I-1500000J0D01*
G01*
D16*
X135991600Y-135585200D02*
X135991600Y-135839200D01*
X135991600Y-141173200D02*
X135991600Y-141427200D01*
D11*
X138912600Y-138506200D02*
G75*
G03*
X138912600Y-138506200I-2921000J0D01*
G01*
D14*
X137491600Y-138506200D02*
G75*
G03*
X137491600Y-138506200I-1500000J0D01*
G01*
D12*
X142848600Y-128198600D02*
X142648600Y-128198600D01*
X142848600Y-127598600D02*
X142648600Y-127598600D01*
X142848600Y-132008600D02*
X142648600Y-132008600D01*
X142848600Y-131408600D02*
X142648600Y-131408600D01*
X155983600Y-132043600D02*
X156183600Y-132043600D01*
X155983600Y-132643600D02*
X156183600Y-132643600D01*
X142848600Y-135818600D02*
X142648600Y-135818600D01*
X142848600Y-135218600D02*
X142648600Y-135218600D01*
X145000000Y-112100000D02*
X144400000Y-112100000D01*
X145000000Y-111000000D02*
X144400000Y-111000000D01*
X144400000Y-112100000D02*
X144400000Y-111850000D01*
X144400000Y-111850000D02*
X144400000Y-111250000D01*
X144400000Y-111250000D02*
X144400000Y-111000000D01*
X145000000Y-112100000D02*
X145000000Y-111850000D01*
X145000000Y-111850000D02*
X145000000Y-111250000D01*
X145000000Y-111250000D02*
X145000000Y-111000000D01*
X145000000Y-111850000D02*
X144400000Y-111850000D01*
X145000000Y-111250000D02*
X144400000Y-111250000D01*
X146300000Y-112050000D02*
X145700000Y-112050000D01*
X146300000Y-110950000D02*
X145700000Y-110950000D01*
X145700000Y-112050000D02*
X145700000Y-111800000D01*
X145700000Y-111800000D02*
X145700000Y-111200000D01*
X145700000Y-111200000D02*
X145700000Y-110950000D01*
X146300000Y-112050000D02*
X146300000Y-111800000D01*
X146300000Y-111800000D02*
X146300000Y-111200000D01*
X146300000Y-111200000D02*
X146300000Y-110950000D01*
X146300000Y-111800000D02*
X145700000Y-111800000D01*
X146300000Y-111200000D02*
X145700000Y-111200000D01*
X163250000Y-97200000D02*
X163250000Y-96600000D01*
X164350000Y-97200000D02*
X164350000Y-96600000D01*
X163250000Y-96600000D02*
X163500000Y-96600000D01*
X163500000Y-96600000D02*
X164100000Y-96600000D01*
X164100000Y-96600000D02*
X164350000Y-96600000D01*
X163250000Y-97200000D02*
X163500000Y-97200000D01*
X163500000Y-97200000D02*
X164100000Y-97200000D01*
X164100000Y-97200000D02*
X164350000Y-97200000D01*
X163500000Y-97200000D02*
X163500000Y-96600000D01*
X164100000Y-97200000D02*
X164100000Y-96600000D01*
X163250000Y-99800000D02*
X163250000Y-99200000D01*
X164350000Y-99800000D02*
X164350000Y-99200000D01*
X163250000Y-99200000D02*
X163500000Y-99200000D01*
X163500000Y-99200000D02*
X164100000Y-99200000D01*
X164100000Y-99200000D02*
X164350000Y-99200000D01*
X163250000Y-99800000D02*
X163500000Y-99800000D01*
X163500000Y-99800000D02*
X164100000Y-99800000D01*
X164100000Y-99800000D02*
X164350000Y-99800000D01*
X163500000Y-99800000D02*
X163500000Y-99200000D01*
X164100000Y-99800000D02*
X164100000Y-99200000D01*
X163250000Y-98500000D02*
X163250000Y-97900000D01*
X164350000Y-98500000D02*
X164350000Y-97900000D01*
X163250000Y-97900000D02*
X163500000Y-97900000D01*
X163500000Y-97900000D02*
X164100000Y-97900000D01*
X164100000Y-97900000D02*
X164350000Y-97900000D01*
X163250000Y-98500000D02*
X163500000Y-98500000D01*
X163500000Y-98500000D02*
X164100000Y-98500000D01*
X164100000Y-98500000D02*
X164350000Y-98500000D01*
X163500000Y-98500000D02*
X163500000Y-97900000D01*
X164100000Y-98500000D02*
X164100000Y-97900000D01*
X163250000Y-95900000D02*
X163250000Y-95300000D01*
X164350000Y-95900000D02*
X164350000Y-95300000D01*
X163250000Y-95300000D02*
X163500000Y-95300000D01*
X163500000Y-95300000D02*
X164100000Y-95300000D01*
X164100000Y-95300000D02*
X164350000Y-95300000D01*
X163250000Y-95900000D02*
X163500000Y-95900000D01*
X163500000Y-95900000D02*
X164100000Y-95900000D01*
X164100000Y-95900000D02*
X164350000Y-95900000D01*
X163500000Y-95900000D02*
X163500000Y-95300000D01*
X164100000Y-95900000D02*
X164100000Y-95300000D01*
X155533600Y-135818600D02*
X155533600Y-135218600D01*
X156633600Y-135818600D02*
X156633600Y-135218600D01*
X155533600Y-135218600D02*
X155783600Y-135218600D01*
X155783600Y-135218600D02*
X156383600Y-135218600D01*
X156383600Y-135218600D02*
X156633600Y-135218600D01*
X155533600Y-135818600D02*
X155783600Y-135818600D01*
X155783600Y-135818600D02*
X156383600Y-135818600D01*
X156383600Y-135818600D02*
X156633600Y-135818600D01*
X155783600Y-135818600D02*
X155783600Y-135218600D01*
X156383600Y-135818600D02*
X156383600Y-135218600D01*
X155533600Y-134231100D02*
X155533600Y-133631100D01*
X156633600Y-134231100D02*
X156633600Y-133631100D01*
X155533600Y-133631100D02*
X155783600Y-133631100D01*
X155783600Y-133631100D02*
X156383600Y-133631100D01*
X156383600Y-133631100D02*
X156633600Y-133631100D01*
X155533600Y-134231100D02*
X155783600Y-134231100D01*
X155783600Y-134231100D02*
X156383600Y-134231100D01*
X156383600Y-134231100D02*
X156633600Y-134231100D01*
X155783600Y-134231100D02*
X155783600Y-133631100D01*
X156383600Y-134231100D02*
X156383600Y-133631100D01*
X143298600Y-136806100D02*
X143298600Y-137406100D01*
X142198600Y-136806100D02*
X142198600Y-137406100D01*
X143298600Y-137406100D02*
X143048600Y-137406100D01*
X143048600Y-137406100D02*
X142448600Y-137406100D01*
X142448600Y-137406100D02*
X142198600Y-137406100D01*
X143298600Y-136806100D02*
X143048600Y-136806100D01*
X143048600Y-136806100D02*
X142448600Y-136806100D01*
X142448600Y-136806100D02*
X142198600Y-136806100D01*
X143048600Y-136806100D02*
X143048600Y-137406100D01*
X142448600Y-136806100D02*
X142448600Y-137406100D01*
X143298600Y-132996100D02*
X143298600Y-133596100D01*
X142198600Y-132996100D02*
X142198600Y-133596100D01*
X143298600Y-133596100D02*
X143048600Y-133596100D01*
X143048600Y-133596100D02*
X142448600Y-133596100D01*
X142448600Y-133596100D02*
X142198600Y-133596100D01*
X143298600Y-132996100D02*
X143048600Y-132996100D01*
X143048600Y-132996100D02*
X142448600Y-132996100D01*
X142448600Y-132996100D02*
X142198600Y-132996100D01*
X143048600Y-132996100D02*
X143048600Y-133596100D01*
X142448600Y-132996100D02*
X142448600Y-133596100D01*
X143298600Y-129186100D02*
X143298600Y-129786100D01*
X142198600Y-129186100D02*
X142198600Y-129786100D01*
X143298600Y-129786100D02*
X143048600Y-129786100D01*
X143048600Y-129786100D02*
X142448600Y-129786100D01*
X142448600Y-129786100D02*
X142198600Y-129786100D01*
X143298600Y-129186100D02*
X143048600Y-129186100D01*
X143048600Y-129186100D02*
X142448600Y-129186100D01*
X142448600Y-129186100D02*
X142198600Y-129186100D01*
X143048600Y-129186100D02*
X143048600Y-129786100D01*
X142448600Y-129186100D02*
X142448600Y-129786100D01*
X158240000Y-88730000D02*
X158240000Y-89330000D01*
X157140000Y-88730000D02*
X157140000Y-89330000D01*
X158240000Y-89330000D02*
X157990000Y-89330000D01*
X157990000Y-89330000D02*
X157390000Y-89330000D01*
X157390000Y-89330000D02*
X157140000Y-89330000D01*
X158240000Y-88730000D02*
X157990000Y-88730000D01*
X157990000Y-88730000D02*
X157390000Y-88730000D01*
X157390000Y-88730000D02*
X157140000Y-88730000D01*
X157990000Y-88730000D02*
X157990000Y-89330000D01*
X157390000Y-88730000D02*
X157390000Y-89330000D01*
X138321100Y-91153600D02*
X138921100Y-91153600D01*
X138321100Y-92253600D02*
X138921100Y-92253600D01*
X138921100Y-91153600D02*
X138921100Y-91403600D01*
X138921100Y-91403600D02*
X138921100Y-92003600D01*
X138921100Y-92003600D02*
X138921100Y-92253600D01*
X138321100Y-91153600D02*
X138321100Y-91403600D01*
X138321100Y-91403600D02*
X138321100Y-92003600D01*
X138321100Y-92003600D02*
X138321100Y-92253600D01*
X138321100Y-91403600D02*
X138921100Y-91403600D01*
X138321100Y-92003600D02*
X138921100Y-92003600D01*
X146791100Y-81878600D02*
X146791100Y-82478600D01*
X145691100Y-81878600D02*
X145691100Y-82478600D01*
X146791100Y-82478600D02*
X146541100Y-82478600D01*
X146541100Y-82478600D02*
X145941100Y-82478600D01*
X145941100Y-82478600D02*
X145691100Y-82478600D01*
X146791100Y-81878600D02*
X146541100Y-81878600D01*
X146541100Y-81878600D02*
X145941100Y-81878600D01*
X145941100Y-81878600D02*
X145691100Y-81878600D01*
X146541100Y-81878600D02*
X146541100Y-82478600D01*
X145941100Y-81878600D02*
X145941100Y-82478600D01*
X140226100Y-91153600D02*
X140826100Y-91153600D01*
X140226100Y-92253600D02*
X140826100Y-92253600D01*
X140826100Y-91153600D02*
X140826100Y-91403600D01*
X140826100Y-91403600D02*
X140826100Y-92003600D01*
X140826100Y-92003600D02*
X140826100Y-92253600D01*
X140226100Y-91153600D02*
X140226100Y-91403600D01*
X140226100Y-91403600D02*
X140226100Y-92003600D01*
X140226100Y-92003600D02*
X140226100Y-92253600D01*
X140226100Y-91403600D02*
X140826100Y-91403600D01*
X140226100Y-92003600D02*
X140826100Y-92003600D01*
X152891100Y-86856100D02*
X152291100Y-86856100D01*
X152891100Y-85756100D02*
X152291100Y-85756100D01*
X152291100Y-86856100D02*
X152291100Y-86606100D01*
X152291100Y-86606100D02*
X152291100Y-86006100D01*
X152291100Y-86006100D02*
X152291100Y-85756100D01*
X152891100Y-86856100D02*
X152891100Y-86606100D01*
X152891100Y-86606100D02*
X152891100Y-86006100D01*
X152891100Y-86006100D02*
X152891100Y-85756100D01*
X152891100Y-86606100D02*
X152291100Y-86606100D01*
X152891100Y-86006100D02*
X152291100Y-86006100D01*
X143625000Y-97475000D02*
X144225000Y-97475000D01*
X143625000Y-98575000D02*
X144225000Y-98575000D01*
X144225000Y-97475000D02*
X144225000Y-97725000D01*
X144225000Y-97725000D02*
X144225000Y-98325000D01*
X144225000Y-98325000D02*
X144225000Y-98575000D01*
X143625000Y-97475000D02*
X143625000Y-97725000D01*
X143625000Y-97725000D02*
X143625000Y-98325000D01*
X143625000Y-98325000D02*
X143625000Y-98575000D01*
X143625000Y-97725000D02*
X144225000Y-97725000D01*
X143625000Y-98325000D02*
X144225000Y-98325000D01*
X139171100Y-88228600D02*
X139171100Y-88828600D01*
X138071100Y-88228600D02*
X138071100Y-88828600D01*
X139171100Y-88828600D02*
X138921100Y-88828600D01*
X138921100Y-88828600D02*
X138321100Y-88828600D01*
X138321100Y-88828600D02*
X138071100Y-88828600D01*
X139171100Y-88228600D02*
X138921100Y-88228600D01*
X138921100Y-88228600D02*
X138321100Y-88228600D01*
X138321100Y-88228600D02*
X138071100Y-88228600D01*
X138921100Y-88228600D02*
X138921100Y-88828600D01*
X138321100Y-88228600D02*
X138321100Y-88828600D01*
X139171100Y-85688600D02*
X139171100Y-86288600D01*
X138071100Y-85688600D02*
X138071100Y-86288600D01*
X139171100Y-86288600D02*
X138921100Y-86288600D01*
X138921100Y-86288600D02*
X138321100Y-86288600D01*
X138321100Y-86288600D02*
X138071100Y-86288600D01*
X139171100Y-85688600D02*
X138921100Y-85688600D01*
X138921100Y-85688600D02*
X138321100Y-85688600D01*
X138321100Y-85688600D02*
X138071100Y-85688600D01*
X138921100Y-85688600D02*
X138921100Y-86288600D01*
X138321100Y-85688600D02*
X138321100Y-86288600D01*
X148866100Y-84383600D02*
X148866100Y-83783600D01*
X149966100Y-84383600D02*
X149966100Y-83783600D01*
X148866100Y-83783600D02*
X149116100Y-83783600D01*
X149116100Y-83783600D02*
X149716100Y-83783600D01*
X149716100Y-83783600D02*
X149966100Y-83783600D01*
X148866100Y-84383600D02*
X149116100Y-84383600D01*
X149116100Y-84383600D02*
X149716100Y-84383600D01*
X149716100Y-84383600D02*
X149966100Y-84383600D01*
X149116100Y-84383600D02*
X149116100Y-83783600D01*
X149716100Y-84383600D02*
X149716100Y-83783600D01*
X146791100Y-83783600D02*
X146791100Y-84383600D01*
X145691100Y-83783600D02*
X145691100Y-84383600D01*
X146791100Y-84383600D02*
X146541100Y-84383600D01*
X146541100Y-84383600D02*
X145941100Y-84383600D01*
X145941100Y-84383600D02*
X145691100Y-84383600D01*
X146791100Y-83783600D02*
X146541100Y-83783600D01*
X146541100Y-83783600D02*
X145941100Y-83783600D01*
X145941100Y-83783600D02*
X145691100Y-83783600D01*
X146541100Y-83783600D02*
X146541100Y-84383600D01*
X145941100Y-83783600D02*
X145941100Y-84383600D01*
D17*
X135160800Y-110958400D02*
X134310800Y-110958400D01*
X134310800Y-110958400D02*
X134310800Y-113283400D01*
X134310800Y-113283400D02*
X131920800Y-113283400D01*
X135160800Y-135128400D02*
X134310800Y-135128400D01*
X134310800Y-135128400D02*
X134310800Y-132803400D01*
X138680800Y-110958400D02*
X139530800Y-110958400D01*
X139530800Y-110958400D02*
X139530800Y-135128400D01*
X139530800Y-135128400D02*
X138680800Y-135128400D01*
D10*
X146361904Y-107809523D02*
X147009523Y-107809523D01*
X147085714Y-107771428D01*
X147123809Y-107733333D01*
X147161904Y-107657142D01*
X147161904Y-107504761D01*
X147123809Y-107428571D01*
X147085714Y-107390476D01*
X147009523Y-107352380D01*
X146361904Y-107352380D01*
X147161904Y-106552380D02*
X147161904Y-107009523D01*
X147161904Y-106780952D02*
X146361904Y-106780952D01*
X146476190Y-106857142D01*
X146552380Y-106933333D01*
X146590476Y-107009523D01*
X149186904Y-69638214D02*
X149986904Y-69104880D01*
X149186904Y-69104880D02*
X149986904Y-69638214D01*
X149986904Y-68381071D02*
X149986904Y-68838214D01*
X149986904Y-68609642D02*
X149186904Y-68609642D01*
X149301190Y-68685833D01*
X149377380Y-68762023D01*
X149415476Y-68838214D01*
X143321309Y-121638095D02*
X143245119Y-121600000D01*
X143168928Y-121523809D01*
X143054642Y-121409523D01*
X142978452Y-121371428D01*
X142902261Y-121371428D01*
X142940357Y-121561904D02*
X142864166Y-121523809D01*
X142787976Y-121447619D01*
X142749880Y-121295238D01*
X142749880Y-121028571D01*
X142787976Y-120876190D01*
X142864166Y-120800000D01*
X142940357Y-120761904D01*
X143092738Y-120761904D01*
X143168928Y-120800000D01*
X143245119Y-120876190D01*
X143283214Y-121028571D01*
X143283214Y-121295238D01*
X143245119Y-121447619D01*
X143168928Y-121523809D01*
X143092738Y-121561904D01*
X142940357Y-121561904D01*
X143549880Y-120761904D02*
X144045119Y-120761904D01*
X143778452Y-121066666D01*
X143892738Y-121066666D01*
X143968928Y-121104761D01*
X144007023Y-121142857D01*
X144045119Y-121219047D01*
X144045119Y-121409523D01*
X144007023Y-121485714D01*
X143968928Y-121523809D01*
X143892738Y-121561904D01*
X143664166Y-121561904D01*
X143587976Y-121523809D01*
X143549880Y-121485714D01*
X143221309Y-118038095D02*
X143145119Y-118000000D01*
X143068928Y-117923809D01*
X142954642Y-117809523D01*
X142878452Y-117771428D01*
X142802261Y-117771428D01*
X142840357Y-117961904D02*
X142764166Y-117923809D01*
X142687976Y-117847619D01*
X142649880Y-117695238D01*
X142649880Y-117428571D01*
X142687976Y-117276190D01*
X142764166Y-117200000D01*
X142840357Y-117161904D01*
X142992738Y-117161904D01*
X143068928Y-117200000D01*
X143145119Y-117276190D01*
X143183214Y-117428571D01*
X143183214Y-117695238D01*
X143145119Y-117847619D01*
X143068928Y-117923809D01*
X142992738Y-117961904D01*
X142840357Y-117961904D01*
X143487976Y-117238095D02*
X143526071Y-117200000D01*
X143602261Y-117161904D01*
X143792738Y-117161904D01*
X143868928Y-117200000D01*
X143907023Y-117238095D01*
X143945119Y-117314285D01*
X143945119Y-117390476D01*
X143907023Y-117504761D01*
X143449880Y-117961904D01*
X143945119Y-117961904D01*
X163650119Y-86661904D02*
X163650119Y-87233333D01*
X163612023Y-87347619D01*
X163535833Y-87423809D01*
X163421547Y-87461904D01*
X163345357Y-87461904D01*
X164031071Y-87461904D02*
X164031071Y-86661904D01*
X164335833Y-86661904D01*
X164412023Y-86700000D01*
X164450119Y-86738095D01*
X164488214Y-86814285D01*
X164488214Y-86928571D01*
X164450119Y-87004761D01*
X164412023Y-87042857D01*
X164335833Y-87080952D01*
X164031071Y-87080952D01*
X164945357Y-87004761D02*
X164869166Y-86966666D01*
X164831071Y-86928571D01*
X164792976Y-86852380D01*
X164792976Y-86814285D01*
X164831071Y-86738095D01*
X164869166Y-86700000D01*
X164945357Y-86661904D01*
X165097738Y-86661904D01*
X165173928Y-86700000D01*
X165212023Y-86738095D01*
X165250119Y-86814285D01*
X165250119Y-86852380D01*
X165212023Y-86928571D01*
X165173928Y-86966666D01*
X165097738Y-87004761D01*
X164945357Y-87004761D01*
X164869166Y-87042857D01*
X164831071Y-87080952D01*
X164792976Y-87157142D01*
X164792976Y-87309523D01*
X164831071Y-87385714D01*
X164869166Y-87423809D01*
X164945357Y-87461904D01*
X165097738Y-87461904D01*
X165173928Y-87423809D01*
X165212023Y-87385714D01*
X165250119Y-87309523D01*
X165250119Y-87157142D01*
X165212023Y-87080952D01*
X165173928Y-87042857D01*
X165097738Y-87004761D01*
X131916547Y-101211904D02*
X131916547Y-101783333D01*
X131878452Y-101897619D01*
X131802261Y-101973809D01*
X131687976Y-102011904D01*
X131611785Y-102011904D01*
X132297500Y-102011904D02*
X132297500Y-101211904D01*
X132602261Y-101211904D01*
X132678452Y-101250000D01*
X132716547Y-101288095D01*
X132754642Y-101364285D01*
X132754642Y-101478571D01*
X132716547Y-101554761D01*
X132678452Y-101592857D01*
X132602261Y-101630952D01*
X132297500Y-101630952D01*
X133440357Y-101211904D02*
X133287976Y-101211904D01*
X133211785Y-101250000D01*
X133173690Y-101288095D01*
X133097500Y-101402380D01*
X133059404Y-101554761D01*
X133059404Y-101859523D01*
X133097500Y-101935714D01*
X133135595Y-101973809D01*
X133211785Y-102011904D01*
X133364166Y-102011904D01*
X133440357Y-101973809D01*
X133478452Y-101935714D01*
X133516547Y-101859523D01*
X133516547Y-101669047D01*
X133478452Y-101592857D01*
X133440357Y-101554761D01*
X133364166Y-101516666D01*
X133211785Y-101516666D01*
X133135595Y-101554761D01*
X133097500Y-101592857D01*
X133059404Y-101669047D01*
X133016547Y-92961904D02*
X133016547Y-93533333D01*
X132978452Y-93647619D01*
X132902261Y-93723809D01*
X132787976Y-93761904D01*
X132711785Y-93761904D01*
X133397500Y-93761904D02*
X133397500Y-92961904D01*
X133702261Y-92961904D01*
X133778452Y-93000000D01*
X133816547Y-93038095D01*
X133854642Y-93114285D01*
X133854642Y-93228571D01*
X133816547Y-93304761D01*
X133778452Y-93342857D01*
X133702261Y-93380952D01*
X133397500Y-93380952D01*
X134159404Y-93038095D02*
X134197500Y-93000000D01*
X134273690Y-92961904D01*
X134464166Y-92961904D01*
X134540357Y-93000000D01*
X134578452Y-93038095D01*
X134616547Y-93114285D01*
X134616547Y-93190476D01*
X134578452Y-93304761D01*
X134121309Y-93761904D01*
X134616547Y-93761904D01*
X133516547Y-81161904D02*
X133516547Y-81733333D01*
X133478452Y-81847619D01*
X133402261Y-81923809D01*
X133287976Y-81961904D01*
X133211785Y-81961904D01*
X133897500Y-81961904D02*
X133897500Y-81161904D01*
X134202261Y-81161904D01*
X134278452Y-81200000D01*
X134316547Y-81238095D01*
X134354642Y-81314285D01*
X134354642Y-81428571D01*
X134316547Y-81504761D01*
X134278452Y-81542857D01*
X134202261Y-81580952D01*
X133897500Y-81580952D01*
X134621309Y-81161904D02*
X135154642Y-81161904D01*
X134811785Y-81961904D01*
X162016547Y-74561904D02*
X162016547Y-75133333D01*
X161978452Y-75247619D01*
X161902261Y-75323809D01*
X161787976Y-75361904D01*
X161711785Y-75361904D01*
X162397500Y-75361904D02*
X162397500Y-74561904D01*
X162702261Y-74561904D01*
X162778452Y-74600000D01*
X162816547Y-74638095D01*
X162854642Y-74714285D01*
X162854642Y-74828571D01*
X162816547Y-74904761D01*
X162778452Y-74942857D01*
X162702261Y-74980952D01*
X162397500Y-74980952D01*
X163578452Y-74561904D02*
X163197500Y-74561904D01*
X163159404Y-74942857D01*
X163197500Y-74904761D01*
X163273690Y-74866666D01*
X163464166Y-74866666D01*
X163540357Y-74904761D01*
X163578452Y-74942857D01*
X163616547Y-75019047D01*
X163616547Y-75209523D01*
X163578452Y-75285714D01*
X163540357Y-75323809D01*
X163464166Y-75361904D01*
X163273690Y-75361904D01*
X163197500Y-75323809D01*
X163159404Y-75285714D01*
X133650119Y-75161904D02*
X133650119Y-75733333D01*
X133612023Y-75847619D01*
X133535833Y-75923809D01*
X133421547Y-75961904D01*
X133345357Y-75961904D01*
X134031071Y-75961904D02*
X134031071Y-75161904D01*
X134335833Y-75161904D01*
X134412023Y-75200000D01*
X134450119Y-75238095D01*
X134488214Y-75314285D01*
X134488214Y-75428571D01*
X134450119Y-75504761D01*
X134412023Y-75542857D01*
X134335833Y-75580952D01*
X134031071Y-75580952D01*
X135250119Y-75961904D02*
X134792976Y-75961904D01*
X135021547Y-75961904D02*
X135021547Y-75161904D01*
X134945357Y-75276190D01*
X134869166Y-75352380D01*
X134792976Y-75390476D01*
X156026309Y-91685714D02*
X155988214Y-91723809D01*
X155873928Y-91761904D01*
X155797738Y-91761904D01*
X155683452Y-91723809D01*
X155607261Y-91647619D01*
X155569166Y-91571428D01*
X155531071Y-91419047D01*
X155531071Y-91304761D01*
X155569166Y-91152380D01*
X155607261Y-91076190D01*
X155683452Y-91000000D01*
X155797738Y-90961904D01*
X155873928Y-90961904D01*
X155988214Y-91000000D01*
X156026309Y-91038095D01*
X156331071Y-91038095D02*
X156369166Y-91000000D01*
X156445357Y-90961904D01*
X156635833Y-90961904D01*
X156712023Y-91000000D01*
X156750119Y-91038095D01*
X156788214Y-91114285D01*
X156788214Y-91190476D01*
X156750119Y-91304761D01*
X156292976Y-91761904D01*
X156788214Y-91761904D01*
X157169166Y-91761904D02*
X157321547Y-91761904D01*
X157397738Y-91723809D01*
X157435833Y-91685714D01*
X157512023Y-91571428D01*
X157550119Y-91419047D01*
X157550119Y-91114285D01*
X157512023Y-91038095D01*
X157473928Y-91000000D01*
X157397738Y-90961904D01*
X157245357Y-90961904D01*
X157169166Y-91000000D01*
X157131071Y-91038095D01*
X157092976Y-91114285D01*
X157092976Y-91304761D01*
X157131071Y-91380952D01*
X157169166Y-91419047D01*
X157245357Y-91457142D01*
X157397738Y-91457142D01*
X157473928Y-91419047D01*
X157512023Y-91380952D01*
X157550119Y-91304761D01*
X146236904Y-115504642D02*
X146236904Y-115047500D01*
X147036904Y-115276071D02*
X146236904Y-115276071D01*
X147036904Y-114780833D02*
X146236904Y-114780833D01*
X146236904Y-114476071D01*
X146275000Y-114399880D01*
X146313095Y-114361785D01*
X146389285Y-114323690D01*
X146503571Y-114323690D01*
X146579761Y-114361785D01*
X146617857Y-114399880D01*
X146655952Y-114476071D01*
X146655952Y-114780833D01*
X147036904Y-113561785D02*
X147036904Y-114018928D01*
X147036904Y-113790357D02*
X146236904Y-113790357D01*
X146351190Y-113866547D01*
X146427380Y-113942738D01*
X146465476Y-114018928D01*
X147036904Y-113180833D02*
X147036904Y-113028452D01*
X146998809Y-112952261D01*
X146960714Y-112914166D01*
X146846428Y-112837976D01*
X146694047Y-112799880D01*
X146389285Y-112799880D01*
X146313095Y-112837976D01*
X146275000Y-112876071D01*
X146236904Y-112952261D01*
X146236904Y-113104642D01*
X146275000Y-113180833D01*
X146313095Y-113218928D01*
X146389285Y-113257023D01*
X146579761Y-113257023D01*
X146655952Y-113218928D01*
X146694047Y-113180833D01*
X146732142Y-113104642D01*
X146732142Y-112952261D01*
X146694047Y-112876071D01*
X146655952Y-112837976D01*
X146579761Y-112799880D01*
X154523690Y-84261904D02*
X154980833Y-84261904D01*
X154752261Y-85061904D02*
X154752261Y-84261904D01*
X155247500Y-85061904D02*
X155247500Y-84261904D01*
X155552261Y-84261904D01*
X155628452Y-84300000D01*
X155666547Y-84338095D01*
X155704642Y-84414285D01*
X155704642Y-84528571D01*
X155666547Y-84604761D01*
X155628452Y-84642857D01*
X155552261Y-84680952D01*
X155247500Y-84680952D01*
X156466547Y-85061904D02*
X156009404Y-85061904D01*
X156237976Y-85061904D02*
X156237976Y-84261904D01*
X156161785Y-84376190D01*
X156085595Y-84452380D01*
X156009404Y-84490476D01*
X157152261Y-84261904D02*
X156999880Y-84261904D01*
X156923690Y-84300000D01*
X156885595Y-84338095D01*
X156809404Y-84452380D01*
X156771309Y-84604761D01*
X156771309Y-84909523D01*
X156809404Y-84985714D01*
X156847500Y-85023809D01*
X156923690Y-85061904D01*
X157076071Y-85061904D01*
X157152261Y-85023809D01*
X157190357Y-84985714D01*
X157228452Y-84909523D01*
X157228452Y-84719047D01*
X157190357Y-84642857D01*
X157152261Y-84604761D01*
X157076071Y-84566666D01*
X156923690Y-84566666D01*
X156847500Y-84604761D01*
X156809404Y-84642857D01*
X156771309Y-84719047D01*
X146914166Y-84716666D02*
X147314166Y-84716666D01*
X147114166Y-85416666D02*
X147114166Y-84716666D01*
X147547500Y-85416666D02*
X147547500Y-84716666D01*
X147814166Y-84716666D01*
X147880833Y-84750000D01*
X147914166Y-84783333D01*
X147947500Y-84850000D01*
X147947500Y-84950000D01*
X147914166Y-85016666D01*
X147880833Y-85050000D01*
X147814166Y-85083333D01*
X147547500Y-85083333D01*
X148614166Y-85416666D02*
X148214166Y-85416666D01*
X148414166Y-85416666D02*
X148414166Y-84716666D01*
X148347500Y-84816666D01*
X148280833Y-84883333D01*
X148214166Y-84916666D01*
X148847500Y-84716666D02*
X149280833Y-84716666D01*
X149047500Y-84983333D01*
X149147500Y-84983333D01*
X149214166Y-85016666D01*
X149247500Y-85050000D01*
X149280833Y-85116666D01*
X149280833Y-85283333D01*
X149247500Y-85350000D01*
X149214166Y-85383333D01*
X149147500Y-85416666D01*
X148947500Y-85416666D01*
X148880833Y-85383333D01*
X148847500Y-85350000D01*
X142173690Y-85161904D02*
X142630833Y-85161904D01*
X142402261Y-85961904D02*
X142402261Y-85161904D01*
X142897500Y-85961904D02*
X142897500Y-85161904D01*
X143202261Y-85161904D01*
X143278452Y-85200000D01*
X143316547Y-85238095D01*
X143354642Y-85314285D01*
X143354642Y-85428571D01*
X143316547Y-85504761D01*
X143278452Y-85542857D01*
X143202261Y-85580952D01*
X142897500Y-85580952D01*
X143735595Y-85961904D02*
X143887976Y-85961904D01*
X143964166Y-85923809D01*
X144002261Y-85885714D01*
X144078452Y-85771428D01*
X144116547Y-85619047D01*
X144116547Y-85314285D01*
X144078452Y-85238095D01*
X144040357Y-85200000D01*
X143964166Y-85161904D01*
X143811785Y-85161904D01*
X143735595Y-85200000D01*
X143697500Y-85238095D01*
X143659404Y-85314285D01*
X143659404Y-85504761D01*
X143697500Y-85580952D01*
X143735595Y-85619047D01*
X143811785Y-85657142D01*
X143964166Y-85657142D01*
X144040357Y-85619047D01*
X144078452Y-85580952D01*
X144116547Y-85504761D01*
X139923690Y-89661904D02*
X140380833Y-89661904D01*
X140152261Y-90461904D02*
X140152261Y-89661904D01*
X140647500Y-90461904D02*
X140647500Y-89661904D01*
X140952261Y-89661904D01*
X141028452Y-89700000D01*
X141066547Y-89738095D01*
X141104642Y-89814285D01*
X141104642Y-89928571D01*
X141066547Y-90004761D01*
X141028452Y-90042857D01*
X140952261Y-90080952D01*
X140647500Y-90080952D01*
X141790357Y-89661904D02*
X141637976Y-89661904D01*
X141561785Y-89700000D01*
X141523690Y-89738095D01*
X141447500Y-89852380D01*
X141409404Y-90004761D01*
X141409404Y-90309523D01*
X141447500Y-90385714D01*
X141485595Y-90423809D01*
X141561785Y-90461904D01*
X141714166Y-90461904D01*
X141790357Y-90423809D01*
X141828452Y-90385714D01*
X141866547Y-90309523D01*
X141866547Y-90119047D01*
X141828452Y-90042857D01*
X141790357Y-90004761D01*
X141714166Y-89966666D01*
X141561785Y-89966666D01*
X141485595Y-90004761D01*
X141447500Y-90042857D01*
X141409404Y-90119047D01*
X152923690Y-126611904D02*
X153380833Y-126611904D01*
X153152261Y-127411904D02*
X153152261Y-126611904D01*
X153647500Y-127411904D02*
X153647500Y-126611904D01*
X153952261Y-126611904D01*
X154028452Y-126650000D01*
X154066547Y-126688095D01*
X154104642Y-126764285D01*
X154104642Y-126878571D01*
X154066547Y-126954761D01*
X154028452Y-126992857D01*
X153952261Y-127030952D01*
X153647500Y-127030952D01*
X154371309Y-126611904D02*
X154866547Y-126611904D01*
X154599880Y-126916666D01*
X154714166Y-126916666D01*
X154790357Y-126954761D01*
X154828452Y-126992857D01*
X154866547Y-127069047D01*
X154866547Y-127259523D01*
X154828452Y-127335714D01*
X154790357Y-127373809D01*
X154714166Y-127411904D01*
X154485595Y-127411904D01*
X154409404Y-127373809D01*
X154371309Y-127335714D01*
X144423690Y-118861904D02*
X144880833Y-118861904D01*
X144652261Y-119661904D02*
X144652261Y-118861904D01*
X145147500Y-119661904D02*
X145147500Y-118861904D01*
X145452261Y-118861904D01*
X145528452Y-118900000D01*
X145566547Y-118938095D01*
X145604642Y-119014285D01*
X145604642Y-119128571D01*
X145566547Y-119204761D01*
X145528452Y-119242857D01*
X145452261Y-119280952D01*
X145147500Y-119280952D01*
X145909404Y-118938095D02*
X145947500Y-118900000D01*
X146023690Y-118861904D01*
X146214166Y-118861904D01*
X146290357Y-118900000D01*
X146328452Y-118938095D01*
X146366547Y-119014285D01*
X146366547Y-119090476D01*
X146328452Y-119204761D01*
X145871309Y-119661904D01*
X146366547Y-119661904D01*
X146461904Y-104926309D02*
X146461904Y-104469166D01*
X147261904Y-104697738D02*
X146461904Y-104697738D01*
X147261904Y-104202500D02*
X146461904Y-104202500D01*
X146461904Y-103897738D01*
X146500000Y-103821547D01*
X146538095Y-103783452D01*
X146614285Y-103745357D01*
X146728571Y-103745357D01*
X146804761Y-103783452D01*
X146842857Y-103821547D01*
X146880952Y-103897738D01*
X146880952Y-104202500D01*
X147261904Y-102983452D02*
X147261904Y-103440595D01*
X147261904Y-103212023D02*
X146461904Y-103212023D01*
X146576190Y-103288214D01*
X146652380Y-103364404D01*
X146690476Y-103440595D01*
X140076309Y-110911904D02*
X139809642Y-110530952D01*
X139619166Y-110911904D02*
X139619166Y-110111904D01*
X139923928Y-110111904D01*
X140000119Y-110150000D01*
X140038214Y-110188095D01*
X140076309Y-110264285D01*
X140076309Y-110378571D01*
X140038214Y-110454761D01*
X140000119Y-110492857D01*
X139923928Y-110530952D01*
X139619166Y-110530952D01*
X140381071Y-110188095D02*
X140419166Y-110150000D01*
X140495357Y-110111904D01*
X140685833Y-110111904D01*
X140762023Y-110150000D01*
X140800119Y-110188095D01*
X140838214Y-110264285D01*
X140838214Y-110340476D01*
X140800119Y-110454761D01*
X140342976Y-110911904D01*
X140838214Y-110911904D01*
X141562023Y-110111904D02*
X141181071Y-110111904D01*
X141142976Y-110492857D01*
X141181071Y-110454761D01*
X141257261Y-110416666D01*
X141447738Y-110416666D01*
X141523928Y-110454761D01*
X141562023Y-110492857D01*
X141600119Y-110569047D01*
X141600119Y-110759523D01*
X141562023Y-110835714D01*
X141523928Y-110873809D01*
X141447738Y-110911904D01*
X141257261Y-110911904D01*
X141181071Y-110873809D01*
X141142976Y-110835714D01*
X139295119Y-100411904D02*
X139028452Y-100030952D01*
X138837976Y-100411904D02*
X138837976Y-99611904D01*
X139142738Y-99611904D01*
X139218928Y-99650000D01*
X139257023Y-99688095D01*
X139295119Y-99764285D01*
X139295119Y-99878571D01*
X139257023Y-99954761D01*
X139218928Y-99992857D01*
X139142738Y-100030952D01*
X138837976Y-100030952D01*
X139599880Y-99688095D02*
X139637976Y-99650000D01*
X139714166Y-99611904D01*
X139904642Y-99611904D01*
X139980833Y-99650000D01*
X140018928Y-99688095D01*
X140057023Y-99764285D01*
X140057023Y-99840476D01*
X140018928Y-99954761D01*
X139561785Y-100411904D01*
X140057023Y-100411904D01*
X140742738Y-99878571D02*
X140742738Y-100411904D01*
X140552261Y-99573809D02*
X140361785Y-100145238D01*
X140857023Y-100145238D01*
X143661904Y-101354880D02*
X143280952Y-101621547D01*
X143661904Y-101812023D02*
X142861904Y-101812023D01*
X142861904Y-101507261D01*
X142900000Y-101431071D01*
X142938095Y-101392976D01*
X143014285Y-101354880D01*
X143128571Y-101354880D01*
X143204761Y-101392976D01*
X143242857Y-101431071D01*
X143280952Y-101507261D01*
X143280952Y-101812023D01*
X142938095Y-101050119D02*
X142900000Y-101012023D01*
X142861904Y-100935833D01*
X142861904Y-100745357D01*
X142900000Y-100669166D01*
X142938095Y-100631071D01*
X143014285Y-100592976D01*
X143090476Y-100592976D01*
X143204761Y-100631071D01*
X143661904Y-101088214D01*
X143661904Y-100592976D01*
X142861904Y-100326309D02*
X142861904Y-99831071D01*
X143166666Y-100097738D01*
X143166666Y-99983452D01*
X143204761Y-99907261D01*
X143242857Y-99869166D01*
X143319047Y-99831071D01*
X143509523Y-99831071D01*
X143585714Y-99869166D01*
X143623809Y-99907261D01*
X143661904Y-99983452D01*
X143661904Y-100212023D01*
X143623809Y-100288214D01*
X143585714Y-100326309D01*
X135495119Y-101311904D02*
X135228452Y-100930952D01*
X135037976Y-101311904D02*
X135037976Y-100511904D01*
X135342738Y-100511904D01*
X135418928Y-100550000D01*
X135457023Y-100588095D01*
X135495119Y-100664285D01*
X135495119Y-100778571D01*
X135457023Y-100854761D01*
X135418928Y-100892857D01*
X135342738Y-100930952D01*
X135037976Y-100930952D01*
X135799880Y-100588095D02*
X135837976Y-100550000D01*
X135914166Y-100511904D01*
X136104642Y-100511904D01*
X136180833Y-100550000D01*
X136218928Y-100588095D01*
X136257023Y-100664285D01*
X136257023Y-100740476D01*
X136218928Y-100854761D01*
X135761785Y-101311904D01*
X136257023Y-101311904D01*
X136561785Y-100588095D02*
X136599880Y-100550000D01*
X136676071Y-100511904D01*
X136866547Y-100511904D01*
X136942738Y-100550000D01*
X136980833Y-100588095D01*
X137018928Y-100664285D01*
X137018928Y-100740476D01*
X136980833Y-100854761D01*
X136523690Y-101311904D01*
X137018928Y-101311904D01*
X138945119Y-104061904D02*
X138678452Y-103680952D01*
X138487976Y-104061904D02*
X138487976Y-103261904D01*
X138792738Y-103261904D01*
X138868928Y-103300000D01*
X138907023Y-103338095D01*
X138945119Y-103414285D01*
X138945119Y-103528571D01*
X138907023Y-103604761D01*
X138868928Y-103642857D01*
X138792738Y-103680952D01*
X138487976Y-103680952D01*
X139249880Y-103338095D02*
X139287976Y-103300000D01*
X139364166Y-103261904D01*
X139554642Y-103261904D01*
X139630833Y-103300000D01*
X139668928Y-103338095D01*
X139707023Y-103414285D01*
X139707023Y-103490476D01*
X139668928Y-103604761D01*
X139211785Y-104061904D01*
X139707023Y-104061904D01*
X140468928Y-104061904D02*
X140011785Y-104061904D01*
X140240357Y-104061904D02*
X140240357Y-103261904D01*
X140164166Y-103376190D01*
X140087976Y-103452380D01*
X140011785Y-103490476D01*
X138861904Y-108854880D02*
X138480952Y-109121547D01*
X138861904Y-109312023D02*
X138061904Y-109312023D01*
X138061904Y-109007261D01*
X138100000Y-108931071D01*
X138138095Y-108892976D01*
X138214285Y-108854880D01*
X138328571Y-108854880D01*
X138404761Y-108892976D01*
X138442857Y-108931071D01*
X138480952Y-109007261D01*
X138480952Y-109312023D01*
X138861904Y-108092976D02*
X138861904Y-108550119D01*
X138861904Y-108321547D02*
X138061904Y-108321547D01*
X138176190Y-108397738D01*
X138252380Y-108473928D01*
X138290476Y-108550119D01*
X138328571Y-107407261D02*
X138861904Y-107407261D01*
X138023809Y-107597738D02*
X138595238Y-107788214D01*
X138595238Y-107292976D01*
X135945119Y-110161904D02*
X135678452Y-109780952D01*
X135487976Y-110161904D02*
X135487976Y-109361904D01*
X135792738Y-109361904D01*
X135868928Y-109400000D01*
X135907023Y-109438095D01*
X135945119Y-109514285D01*
X135945119Y-109628571D01*
X135907023Y-109704761D01*
X135868928Y-109742857D01*
X135792738Y-109780952D01*
X135487976Y-109780952D01*
X136707023Y-110161904D02*
X136249880Y-110161904D01*
X136478452Y-110161904D02*
X136478452Y-109361904D01*
X136402261Y-109476190D01*
X136326071Y-109552380D01*
X136249880Y-109590476D01*
X136973690Y-109361904D02*
X137468928Y-109361904D01*
X137202261Y-109666666D01*
X137316547Y-109666666D01*
X137392738Y-109704761D01*
X137430833Y-109742857D01*
X137468928Y-109819047D01*
X137468928Y-110009523D01*
X137430833Y-110085714D01*
X137392738Y-110123809D01*
X137316547Y-110161904D01*
X137087976Y-110161904D01*
X137011785Y-110123809D01*
X136973690Y-110085714D01*
X144676309Y-115761904D02*
X144409642Y-115380952D01*
X144219166Y-115761904D02*
X144219166Y-114961904D01*
X144523928Y-114961904D01*
X144600119Y-115000000D01*
X144638214Y-115038095D01*
X144676309Y-115114285D01*
X144676309Y-115228571D01*
X144638214Y-115304761D01*
X144600119Y-115342857D01*
X144523928Y-115380952D01*
X144219166Y-115380952D01*
X145438214Y-115761904D02*
X144981071Y-115761904D01*
X145209642Y-115761904D02*
X145209642Y-114961904D01*
X145133452Y-115076190D01*
X145057261Y-115152380D01*
X144981071Y-115190476D01*
X145742976Y-115038095D02*
X145781071Y-115000000D01*
X145857261Y-114961904D01*
X146047738Y-114961904D01*
X146123928Y-115000000D01*
X146162023Y-115038095D01*
X146200119Y-115114285D01*
X146200119Y-115190476D01*
X146162023Y-115304761D01*
X145704880Y-115761904D01*
X146200119Y-115761904D01*
X143911904Y-113823690D02*
X143530952Y-114090357D01*
X143911904Y-114280833D02*
X143111904Y-114280833D01*
X143111904Y-113976071D01*
X143150000Y-113899880D01*
X143188095Y-113861785D01*
X143264285Y-113823690D01*
X143378571Y-113823690D01*
X143454761Y-113861785D01*
X143492857Y-113899880D01*
X143530952Y-113976071D01*
X143530952Y-114280833D01*
X143911904Y-113061785D02*
X143911904Y-113518928D01*
X143911904Y-113290357D02*
X143111904Y-113290357D01*
X143226190Y-113366547D01*
X143302380Y-113442738D01*
X143340476Y-113518928D01*
X143911904Y-112299880D02*
X143911904Y-112757023D01*
X143911904Y-112528452D02*
X143111904Y-112528452D01*
X143226190Y-112604642D01*
X143302380Y-112680833D01*
X143340476Y-112757023D01*
X155675919Y-88017604D02*
X155409252Y-87636652D01*
X155218776Y-88017604D02*
X155218776Y-87217604D01*
X155523538Y-87217604D01*
X155599728Y-87255700D01*
X155637823Y-87293795D01*
X155675919Y-87369985D01*
X155675919Y-87484271D01*
X155637823Y-87560461D01*
X155599728Y-87598557D01*
X155523538Y-87636652D01*
X155218776Y-87636652D01*
X155980680Y-87293795D02*
X156018776Y-87255700D01*
X156094966Y-87217604D01*
X156285442Y-87217604D01*
X156361633Y-87255700D01*
X156399728Y-87293795D01*
X156437823Y-87369985D01*
X156437823Y-87446176D01*
X156399728Y-87560461D01*
X155942585Y-88017604D01*
X156437823Y-88017604D01*
X155785914Y-86813804D02*
X155519247Y-86432852D01*
X155328771Y-86813804D02*
X155328771Y-86013804D01*
X155633533Y-86013804D01*
X155709723Y-86051900D01*
X155747819Y-86089995D01*
X155785914Y-86166185D01*
X155785914Y-86280471D01*
X155747819Y-86356661D01*
X155709723Y-86394757D01*
X155633533Y-86432852D01*
X155328771Y-86432852D01*
X156547819Y-86813804D02*
X156090676Y-86813804D01*
X156319247Y-86813804D02*
X156319247Y-86013804D01*
X156243057Y-86128090D01*
X156166866Y-86204280D01*
X156090676Y-86242376D01*
X140868928Y-96411904D02*
X140487976Y-96411904D01*
X140487976Y-95611904D01*
X141554642Y-96411904D02*
X141097500Y-96411904D01*
X141326071Y-96411904D02*
X141326071Y-95611904D01*
X141249880Y-95726190D01*
X141173690Y-95802380D01*
X141097500Y-95840476D01*
X146087976Y-128061904D02*
X146087976Y-127261904D01*
X146545119Y-128061904D02*
X146202261Y-127604761D01*
X146545119Y-127261904D02*
X146087976Y-127719047D01*
X147307023Y-128061904D02*
X146849880Y-128061904D01*
X147078452Y-128061904D02*
X147078452Y-127261904D01*
X147002261Y-127376190D01*
X146926071Y-127452380D01*
X146849880Y-127490476D01*
X147987976Y-99861904D02*
X147987976Y-99061904D01*
X148826071Y-99785714D02*
X148787976Y-99823809D01*
X148673690Y-99861904D01*
X148597500Y-99861904D01*
X148483214Y-99823809D01*
X148407023Y-99747619D01*
X148368928Y-99671428D01*
X148330833Y-99519047D01*
X148330833Y-99404761D01*
X148368928Y-99252380D01*
X148407023Y-99176190D01*
X148483214Y-99100000D01*
X148597500Y-99061904D01*
X148673690Y-99061904D01*
X148787976Y-99100000D01*
X148826071Y-99138095D01*
X149511785Y-99061904D02*
X149359404Y-99061904D01*
X149283214Y-99100000D01*
X149245119Y-99138095D01*
X149168928Y-99252380D01*
X149130833Y-99404761D01*
X149130833Y-99709523D01*
X149168928Y-99785714D01*
X149207023Y-99823809D01*
X149283214Y-99861904D01*
X149435595Y-99861904D01*
X149511785Y-99823809D01*
X149549880Y-99785714D01*
X149587976Y-99709523D01*
X149587976Y-99519047D01*
X149549880Y-99442857D01*
X149511785Y-99404761D01*
X149435595Y-99366666D01*
X149283214Y-99366666D01*
X149207023Y-99404761D01*
X149168928Y-99442857D01*
X149130833Y-99519047D01*
X142750119Y-87261904D02*
X142750119Y-86461904D01*
X143588214Y-87185714D02*
X143550119Y-87223809D01*
X143435833Y-87261904D01*
X143359642Y-87261904D01*
X143245357Y-87223809D01*
X143169166Y-87147619D01*
X143131071Y-87071428D01*
X143092976Y-86919047D01*
X143092976Y-86804761D01*
X143131071Y-86652380D01*
X143169166Y-86576190D01*
X143245357Y-86500000D01*
X143359642Y-86461904D01*
X143435833Y-86461904D01*
X143550119Y-86500000D01*
X143588214Y-86538095D01*
X144350119Y-87261904D02*
X143892976Y-87261904D01*
X144121547Y-87261904D02*
X144121547Y-86461904D01*
X144045357Y-86576190D01*
X143969166Y-86652380D01*
X143892976Y-86690476D01*
X143081071Y-126361904D02*
X143081071Y-125561904D01*
X143271547Y-125561904D01*
X143385833Y-125600000D01*
X143462023Y-125676190D01*
X143500119Y-125752380D01*
X143538214Y-125904761D01*
X143538214Y-126019047D01*
X143500119Y-126171428D01*
X143462023Y-126247619D01*
X143385833Y-126323809D01*
X143271547Y-126361904D01*
X143081071Y-126361904D01*
X143804880Y-125561904D02*
X144338214Y-125561904D01*
X143995357Y-126361904D01*
X140081071Y-132061904D02*
X140081071Y-131261904D01*
X140271547Y-131261904D01*
X140385833Y-131300000D01*
X140462023Y-131376190D01*
X140500119Y-131452380D01*
X140538214Y-131604761D01*
X140538214Y-131719047D01*
X140500119Y-131871428D01*
X140462023Y-131947619D01*
X140385833Y-132023809D01*
X140271547Y-132061904D01*
X140081071Y-132061904D01*
X141223928Y-131261904D02*
X141071547Y-131261904D01*
X140995357Y-131300000D01*
X140957261Y-131338095D01*
X140881071Y-131452380D01*
X140842976Y-131604761D01*
X140842976Y-131909523D01*
X140881071Y-131985714D01*
X140919166Y-132023809D01*
X140995357Y-132061904D01*
X141147738Y-132061904D01*
X141223928Y-132023809D01*
X141262023Y-131985714D01*
X141300119Y-131909523D01*
X141300119Y-131719047D01*
X141262023Y-131642857D01*
X141223928Y-131604761D01*
X141147738Y-131566666D01*
X140995357Y-131566666D01*
X140919166Y-131604761D01*
X140881071Y-131642857D01*
X140842976Y-131719047D01*
X157787976Y-132711904D02*
X157787976Y-131911904D01*
X157978452Y-131911904D01*
X158092738Y-131950000D01*
X158168928Y-132026190D01*
X158207023Y-132102380D01*
X158245119Y-132254761D01*
X158245119Y-132369047D01*
X158207023Y-132521428D01*
X158168928Y-132597619D01*
X158092738Y-132673809D01*
X157978452Y-132711904D01*
X157787976Y-132711904D01*
X158968928Y-131911904D02*
X158587976Y-131911904D01*
X158549880Y-132292857D01*
X158587976Y-132254761D01*
X158664166Y-132216666D01*
X158854642Y-132216666D01*
X158930833Y-132254761D01*
X158968928Y-132292857D01*
X159007023Y-132369047D01*
X159007023Y-132559523D01*
X158968928Y-132635714D01*
X158930833Y-132673809D01*
X158854642Y-132711904D01*
X158664166Y-132711904D01*
X158587976Y-132673809D01*
X158549880Y-132635714D01*
X139881071Y-135861904D02*
X139881071Y-135061904D01*
X140071547Y-135061904D01*
X140185833Y-135100000D01*
X140262023Y-135176190D01*
X140300119Y-135252380D01*
X140338214Y-135404761D01*
X140338214Y-135519047D01*
X140300119Y-135671428D01*
X140262023Y-135747619D01*
X140185833Y-135823809D01*
X140071547Y-135861904D01*
X139881071Y-135861904D01*
X141023928Y-135328571D02*
X141023928Y-135861904D01*
X140833452Y-135023809D02*
X140642976Y-135595238D01*
X141138214Y-135595238D01*
X143276309Y-110535714D02*
X143238214Y-110573809D01*
X143123928Y-110611904D01*
X143047738Y-110611904D01*
X142933452Y-110573809D01*
X142857261Y-110497619D01*
X142819166Y-110421428D01*
X142781071Y-110269047D01*
X142781071Y-110154761D01*
X142819166Y-110002380D01*
X142857261Y-109926190D01*
X142933452Y-109850000D01*
X143047738Y-109811904D01*
X143123928Y-109811904D01*
X143238214Y-109850000D01*
X143276309Y-109888095D01*
X143542976Y-109811904D02*
X144038214Y-109811904D01*
X143771547Y-110116666D01*
X143885833Y-110116666D01*
X143962023Y-110154761D01*
X144000119Y-110192857D01*
X144038214Y-110269047D01*
X144038214Y-110459523D01*
X144000119Y-110535714D01*
X143962023Y-110573809D01*
X143885833Y-110611904D01*
X143657261Y-110611904D01*
X143581071Y-110573809D01*
X143542976Y-110535714D01*
X144342976Y-109888095D02*
X144381071Y-109850000D01*
X144457261Y-109811904D01*
X144647738Y-109811904D01*
X144723928Y-109850000D01*
X144762023Y-109888095D01*
X144800119Y-109964285D01*
X144800119Y-110040476D01*
X144762023Y-110154761D01*
X144304880Y-110611904D01*
X144800119Y-110611904D01*
X145576309Y-110535714D02*
X145538214Y-110573809D01*
X145423928Y-110611904D01*
X145347738Y-110611904D01*
X145233452Y-110573809D01*
X145157261Y-110497619D01*
X145119166Y-110421428D01*
X145081071Y-110269047D01*
X145081071Y-110154761D01*
X145119166Y-110002380D01*
X145157261Y-109926190D01*
X145233452Y-109850000D01*
X145347738Y-109811904D01*
X145423928Y-109811904D01*
X145538214Y-109850000D01*
X145576309Y-109888095D01*
X145842976Y-109811904D02*
X146338214Y-109811904D01*
X146071547Y-110116666D01*
X146185833Y-110116666D01*
X146262023Y-110154761D01*
X146300119Y-110192857D01*
X146338214Y-110269047D01*
X146338214Y-110459523D01*
X146300119Y-110535714D01*
X146262023Y-110573809D01*
X146185833Y-110611904D01*
X145957261Y-110611904D01*
X145881071Y-110573809D01*
X145842976Y-110535714D01*
X147100119Y-110611904D02*
X146642976Y-110611904D01*
X146871547Y-110611904D02*
X146871547Y-109811904D01*
X146795357Y-109926190D01*
X146719166Y-110002380D01*
X146642976Y-110040476D01*
X161985714Y-96554880D02*
X162023809Y-96592976D01*
X162061904Y-96707261D01*
X162061904Y-96783452D01*
X162023809Y-96897738D01*
X161947619Y-96973928D01*
X161871428Y-97012023D01*
X161719047Y-97050119D01*
X161604761Y-97050119D01*
X161452380Y-97012023D01*
X161376190Y-96973928D01*
X161300000Y-96897738D01*
X161261904Y-96783452D01*
X161261904Y-96707261D01*
X161300000Y-96592976D01*
X161338095Y-96554880D01*
X161338095Y-96250119D02*
X161300000Y-96212023D01*
X161261904Y-96135833D01*
X161261904Y-95945357D01*
X161300000Y-95869166D01*
X161338095Y-95831071D01*
X161414285Y-95792976D01*
X161490476Y-95792976D01*
X161604761Y-95831071D01*
X162061904Y-96288214D01*
X162061904Y-95792976D01*
X161261904Y-95526309D02*
X161261904Y-94992976D01*
X162061904Y-95335833D01*
X165435714Y-101604880D02*
X165473809Y-101642976D01*
X165511904Y-101757261D01*
X165511904Y-101833452D01*
X165473809Y-101947738D01*
X165397619Y-102023928D01*
X165321428Y-102062023D01*
X165169047Y-102100119D01*
X165054761Y-102100119D01*
X164902380Y-102062023D01*
X164826190Y-102023928D01*
X164750000Y-101947738D01*
X164711904Y-101833452D01*
X164711904Y-101757261D01*
X164750000Y-101642976D01*
X164788095Y-101604880D01*
X164788095Y-101300119D02*
X164750000Y-101262023D01*
X164711904Y-101185833D01*
X164711904Y-100995357D01*
X164750000Y-100919166D01*
X164788095Y-100881071D01*
X164864285Y-100842976D01*
X164940476Y-100842976D01*
X165054761Y-100881071D01*
X165511904Y-101338214D01*
X165511904Y-100842976D01*
X164711904Y-100157261D02*
X164711904Y-100309642D01*
X164750000Y-100385833D01*
X164788095Y-100423928D01*
X164902380Y-100500119D01*
X165054761Y-100538214D01*
X165359523Y-100538214D01*
X165435714Y-100500119D01*
X165473809Y-100462023D01*
X165511904Y-100385833D01*
X165511904Y-100233452D01*
X165473809Y-100157261D01*
X165435714Y-100119166D01*
X165359523Y-100081071D01*
X165169047Y-100081071D01*
X165092857Y-100119166D01*
X165054761Y-100157261D01*
X165016666Y-100233452D01*
X165016666Y-100385833D01*
X165054761Y-100462023D01*
X165092857Y-100500119D01*
X165169047Y-100538214D01*
X161145119Y-99985714D02*
X161107023Y-100023809D01*
X160992738Y-100061904D01*
X160916547Y-100061904D01*
X160802261Y-100023809D01*
X160726071Y-99947619D01*
X160687976Y-99871428D01*
X160649880Y-99719047D01*
X160649880Y-99604761D01*
X160687976Y-99452380D01*
X160726071Y-99376190D01*
X160802261Y-99300000D01*
X160916547Y-99261904D01*
X160992738Y-99261904D01*
X161107023Y-99300000D01*
X161145119Y-99338095D01*
X161449880Y-99338095D02*
X161487976Y-99300000D01*
X161564166Y-99261904D01*
X161754642Y-99261904D01*
X161830833Y-99300000D01*
X161868928Y-99338095D01*
X161907023Y-99414285D01*
X161907023Y-99490476D01*
X161868928Y-99604761D01*
X161411785Y-100061904D01*
X161907023Y-100061904D01*
X162630833Y-99261904D02*
X162249880Y-99261904D01*
X162211785Y-99642857D01*
X162249880Y-99604761D01*
X162326071Y-99566666D01*
X162516547Y-99566666D01*
X162592738Y-99604761D01*
X162630833Y-99642857D01*
X162668928Y-99719047D01*
X162668928Y-99909523D01*
X162630833Y-99985714D01*
X162592738Y-100023809D01*
X162516547Y-100061904D01*
X162326071Y-100061904D01*
X162249880Y-100023809D01*
X162211785Y-99985714D01*
X165235714Y-94454880D02*
X165273809Y-94492976D01*
X165311904Y-94607261D01*
X165311904Y-94683452D01*
X165273809Y-94797738D01*
X165197619Y-94873928D01*
X165121428Y-94912023D01*
X164969047Y-94950119D01*
X164854761Y-94950119D01*
X164702380Y-94912023D01*
X164626190Y-94873928D01*
X164550000Y-94797738D01*
X164511904Y-94683452D01*
X164511904Y-94607261D01*
X164550000Y-94492976D01*
X164588095Y-94454880D01*
X164588095Y-94150119D02*
X164550000Y-94112023D01*
X164511904Y-94035833D01*
X164511904Y-93845357D01*
X164550000Y-93769166D01*
X164588095Y-93731071D01*
X164664285Y-93692976D01*
X164740476Y-93692976D01*
X164854761Y-93731071D01*
X165311904Y-94188214D01*
X165311904Y-93692976D01*
X164778571Y-93007261D02*
X165311904Y-93007261D01*
X164473809Y-93197738D02*
X165045238Y-93388214D01*
X165045238Y-92892976D01*
X157995119Y-135835714D02*
X157957023Y-135873809D01*
X157842738Y-135911904D01*
X157766547Y-135911904D01*
X157652261Y-135873809D01*
X157576071Y-135797619D01*
X157537976Y-135721428D01*
X157499880Y-135569047D01*
X157499880Y-135454761D01*
X157537976Y-135302380D01*
X157576071Y-135226190D01*
X157652261Y-135150000D01*
X157766547Y-135111904D01*
X157842738Y-135111904D01*
X157957023Y-135150000D01*
X157995119Y-135188095D01*
X158299880Y-135188095D02*
X158337976Y-135150000D01*
X158414166Y-135111904D01*
X158604642Y-135111904D01*
X158680833Y-135150000D01*
X158718928Y-135188095D01*
X158757023Y-135264285D01*
X158757023Y-135340476D01*
X158718928Y-135454761D01*
X158261785Y-135911904D01*
X158757023Y-135911904D01*
X159061785Y-135188095D02*
X159099880Y-135150000D01*
X159176071Y-135111904D01*
X159366547Y-135111904D01*
X159442738Y-135150000D01*
X159480833Y-135188095D01*
X159518928Y-135264285D01*
X159518928Y-135340476D01*
X159480833Y-135454761D01*
X159023690Y-135911904D01*
X159518928Y-135911904D01*
X157995119Y-134185714D02*
X157957023Y-134223809D01*
X157842738Y-134261904D01*
X157766547Y-134261904D01*
X157652261Y-134223809D01*
X157576071Y-134147619D01*
X157537976Y-134071428D01*
X157499880Y-133919047D01*
X157499880Y-133804761D01*
X157537976Y-133652380D01*
X157576071Y-133576190D01*
X157652261Y-133500000D01*
X157766547Y-133461904D01*
X157842738Y-133461904D01*
X157957023Y-133500000D01*
X157995119Y-133538095D01*
X158299880Y-133538095D02*
X158337976Y-133500000D01*
X158414166Y-133461904D01*
X158604642Y-133461904D01*
X158680833Y-133500000D01*
X158718928Y-133538095D01*
X158757023Y-133614285D01*
X158757023Y-133690476D01*
X158718928Y-133804761D01*
X158261785Y-134261904D01*
X158757023Y-134261904D01*
X159518928Y-134261904D02*
X159061785Y-134261904D01*
X159290357Y-134261904D02*
X159290357Y-133461904D01*
X159214166Y-133576190D01*
X159137976Y-133652380D01*
X159061785Y-133690476D01*
X139726309Y-137385714D02*
X139688214Y-137423809D01*
X139573928Y-137461904D01*
X139497738Y-137461904D01*
X139383452Y-137423809D01*
X139307261Y-137347619D01*
X139269166Y-137271428D01*
X139231071Y-137119047D01*
X139231071Y-137004761D01*
X139269166Y-136852380D01*
X139307261Y-136776190D01*
X139383452Y-136700000D01*
X139497738Y-136661904D01*
X139573928Y-136661904D01*
X139688214Y-136700000D01*
X139726309Y-136738095D01*
X140031071Y-136738095D02*
X140069166Y-136700000D01*
X140145357Y-136661904D01*
X140335833Y-136661904D01*
X140412023Y-136700000D01*
X140450119Y-136738095D01*
X140488214Y-136814285D01*
X140488214Y-136890476D01*
X140450119Y-137004761D01*
X139992976Y-137461904D01*
X140488214Y-137461904D01*
X140983452Y-136661904D02*
X141059642Y-136661904D01*
X141135833Y-136700000D01*
X141173928Y-136738095D01*
X141212023Y-136814285D01*
X141250119Y-136966666D01*
X141250119Y-137157142D01*
X141212023Y-137309523D01*
X141173928Y-137385714D01*
X141135833Y-137423809D01*
X141059642Y-137461904D01*
X140983452Y-137461904D01*
X140907261Y-137423809D01*
X140869166Y-137385714D01*
X140831071Y-137309523D01*
X140792976Y-137157142D01*
X140792976Y-136966666D01*
X140831071Y-136814285D01*
X140869166Y-136738095D01*
X140907261Y-136700000D01*
X140983452Y-136661904D01*
X142176309Y-134685714D02*
X142138214Y-134723809D01*
X142023928Y-134761904D01*
X141947738Y-134761904D01*
X141833452Y-134723809D01*
X141757261Y-134647619D01*
X141719166Y-134571428D01*
X141681071Y-134419047D01*
X141681071Y-134304761D01*
X141719166Y-134152380D01*
X141757261Y-134076190D01*
X141833452Y-134000000D01*
X141947738Y-133961904D01*
X142023928Y-133961904D01*
X142138214Y-134000000D01*
X142176309Y-134038095D01*
X142938214Y-134761904D02*
X142481071Y-134761904D01*
X142709642Y-134761904D02*
X142709642Y-133961904D01*
X142633452Y-134076190D01*
X142557261Y-134152380D01*
X142481071Y-134190476D01*
X143319166Y-134761904D02*
X143471547Y-134761904D01*
X143547738Y-134723809D01*
X143585833Y-134685714D01*
X143662023Y-134571428D01*
X143700119Y-134419047D01*
X143700119Y-134114285D01*
X143662023Y-134038095D01*
X143623928Y-134000000D01*
X143547738Y-133961904D01*
X143395357Y-133961904D01*
X143319166Y-134000000D01*
X143281071Y-134038095D01*
X143242976Y-134114285D01*
X143242976Y-134304761D01*
X143281071Y-134380952D01*
X143319166Y-134419047D01*
X143395357Y-134457142D01*
X143547738Y-134457142D01*
X143623928Y-134419047D01*
X143662023Y-134380952D01*
X143700119Y-134304761D01*
X141076309Y-130885714D02*
X141038214Y-130923809D01*
X140923928Y-130961904D01*
X140847738Y-130961904D01*
X140733452Y-130923809D01*
X140657261Y-130847619D01*
X140619166Y-130771428D01*
X140581071Y-130619047D01*
X140581071Y-130504761D01*
X140619166Y-130352380D01*
X140657261Y-130276190D01*
X140733452Y-130200000D01*
X140847738Y-130161904D01*
X140923928Y-130161904D01*
X141038214Y-130200000D01*
X141076309Y-130238095D01*
X141838214Y-130961904D02*
X141381071Y-130961904D01*
X141609642Y-130961904D02*
X141609642Y-130161904D01*
X141533452Y-130276190D01*
X141457261Y-130352380D01*
X141381071Y-130390476D01*
X142295357Y-130504761D02*
X142219166Y-130466666D01*
X142181071Y-130428571D01*
X142142976Y-130352380D01*
X142142976Y-130314285D01*
X142181071Y-130238095D01*
X142219166Y-130200000D01*
X142295357Y-130161904D01*
X142447738Y-130161904D01*
X142523928Y-130200000D01*
X142562023Y-130238095D01*
X142600119Y-130314285D01*
X142600119Y-130352380D01*
X142562023Y-130428571D01*
X142523928Y-130466666D01*
X142447738Y-130504761D01*
X142295357Y-130504761D01*
X142219166Y-130542857D01*
X142181071Y-130580952D01*
X142142976Y-130657142D01*
X142142976Y-130809523D01*
X142181071Y-130885714D01*
X142219166Y-130923809D01*
X142295357Y-130961904D01*
X142447738Y-130961904D01*
X142523928Y-130923809D01*
X142562023Y-130885714D01*
X142600119Y-130809523D01*
X142600119Y-130657142D01*
X142562023Y-130580952D01*
X142523928Y-130542857D01*
X142447738Y-130504761D01*
X154976309Y-89385714D02*
X154938214Y-89423809D01*
X154823928Y-89461904D01*
X154747738Y-89461904D01*
X154633452Y-89423809D01*
X154557261Y-89347619D01*
X154519166Y-89271428D01*
X154481071Y-89119047D01*
X154481071Y-89004761D01*
X154519166Y-88852380D01*
X154557261Y-88776190D01*
X154633452Y-88700000D01*
X154747738Y-88661904D01*
X154823928Y-88661904D01*
X154938214Y-88700000D01*
X154976309Y-88738095D01*
X155738214Y-89461904D02*
X155281071Y-89461904D01*
X155509642Y-89461904D02*
X155509642Y-88661904D01*
X155433452Y-88776190D01*
X155357261Y-88852380D01*
X155281071Y-88890476D01*
X156233452Y-88661904D02*
X156309642Y-88661904D01*
X156385833Y-88700000D01*
X156423928Y-88738095D01*
X156462023Y-88814285D01*
X156500119Y-88966666D01*
X156500119Y-89157142D01*
X156462023Y-89309523D01*
X156423928Y-89385714D01*
X156385833Y-89423809D01*
X156309642Y-89461904D01*
X156233452Y-89461904D01*
X156157261Y-89423809D01*
X156119166Y-89385714D01*
X156081071Y-89309523D01*
X156042976Y-89157142D01*
X156042976Y-88966666D01*
X156081071Y-88814285D01*
X156119166Y-88738095D01*
X156157261Y-88700000D01*
X156233452Y-88661904D01*
X138245119Y-93685714D02*
X138207023Y-93723809D01*
X138092738Y-93761904D01*
X138016547Y-93761904D01*
X137902261Y-93723809D01*
X137826071Y-93647619D01*
X137787976Y-93571428D01*
X137749880Y-93419047D01*
X137749880Y-93304761D01*
X137787976Y-93152380D01*
X137826071Y-93076190D01*
X137902261Y-93000000D01*
X138016547Y-92961904D01*
X138092738Y-92961904D01*
X138207023Y-93000000D01*
X138245119Y-93038095D01*
X138626071Y-93761904D02*
X138778452Y-93761904D01*
X138854642Y-93723809D01*
X138892738Y-93685714D01*
X138968928Y-93571428D01*
X139007023Y-93419047D01*
X139007023Y-93114285D01*
X138968928Y-93038095D01*
X138930833Y-93000000D01*
X138854642Y-92961904D01*
X138702261Y-92961904D01*
X138626071Y-93000000D01*
X138587976Y-93038095D01*
X138549880Y-93114285D01*
X138549880Y-93304761D01*
X138587976Y-93380952D01*
X138626071Y-93419047D01*
X138702261Y-93457142D01*
X138854642Y-93457142D01*
X138930833Y-93419047D01*
X138968928Y-93380952D01*
X139007023Y-93304761D01*
X146438214Y-81285714D02*
X146400119Y-81323809D01*
X146285833Y-81361904D01*
X146209642Y-81361904D01*
X146095357Y-81323809D01*
X146019166Y-81247619D01*
X145981071Y-81171428D01*
X145942976Y-81019047D01*
X145942976Y-80904761D01*
X145981071Y-80752380D01*
X146019166Y-80676190D01*
X146095357Y-80600000D01*
X146209642Y-80561904D01*
X146285833Y-80561904D01*
X146400119Y-80600000D01*
X146438214Y-80638095D01*
X146895357Y-80904761D02*
X146819166Y-80866666D01*
X146781071Y-80828571D01*
X146742976Y-80752380D01*
X146742976Y-80714285D01*
X146781071Y-80638095D01*
X146819166Y-80600000D01*
X146895357Y-80561904D01*
X147047738Y-80561904D01*
X147123928Y-80600000D01*
X147162023Y-80638095D01*
X147200119Y-80714285D01*
X147200119Y-80752380D01*
X147162023Y-80828571D01*
X147123928Y-80866666D01*
X147047738Y-80904761D01*
X146895357Y-80904761D01*
X146819166Y-80942857D01*
X146781071Y-80980952D01*
X146742976Y-81057142D01*
X146742976Y-81209523D01*
X146781071Y-81285714D01*
X146819166Y-81323809D01*
X146895357Y-81361904D01*
X147047738Y-81361904D01*
X147123928Y-81323809D01*
X147162023Y-81285714D01*
X147200119Y-81209523D01*
X147200119Y-81057142D01*
X147162023Y-80980952D01*
X147123928Y-80942857D01*
X147047738Y-80904761D01*
X141045119Y-93635714D02*
X141007023Y-93673809D01*
X140892738Y-93711904D01*
X140816547Y-93711904D01*
X140702261Y-93673809D01*
X140626071Y-93597619D01*
X140587976Y-93521428D01*
X140549880Y-93369047D01*
X140549880Y-93254761D01*
X140587976Y-93102380D01*
X140626071Y-93026190D01*
X140702261Y-92950000D01*
X140816547Y-92911904D01*
X140892738Y-92911904D01*
X141007023Y-92950000D01*
X141045119Y-92988095D01*
X141311785Y-92911904D02*
X141845119Y-92911904D01*
X141502261Y-93711904D01*
X153985714Y-86611785D02*
X154023809Y-86649880D01*
X154061904Y-86764166D01*
X154061904Y-86840357D01*
X154023809Y-86954642D01*
X153947619Y-87030833D01*
X153871428Y-87068928D01*
X153719047Y-87107023D01*
X153604761Y-87107023D01*
X153452380Y-87068928D01*
X153376190Y-87030833D01*
X153300000Y-86954642D01*
X153261904Y-86840357D01*
X153261904Y-86764166D01*
X153300000Y-86649880D01*
X153338095Y-86611785D01*
X153261904Y-85926071D02*
X153261904Y-86078452D01*
X153300000Y-86154642D01*
X153338095Y-86192738D01*
X153452380Y-86268928D01*
X153604761Y-86307023D01*
X153909523Y-86307023D01*
X153985714Y-86268928D01*
X154023809Y-86230833D01*
X154061904Y-86154642D01*
X154061904Y-86002261D01*
X154023809Y-85926071D01*
X153985714Y-85887976D01*
X153909523Y-85849880D01*
X153719047Y-85849880D01*
X153642857Y-85887976D01*
X153604761Y-85926071D01*
X153566666Y-86002261D01*
X153566666Y-86154642D01*
X153604761Y-86230833D01*
X153642857Y-86268928D01*
X153719047Y-86307023D01*
X146485714Y-98254880D02*
X146523809Y-98292976D01*
X146561904Y-98407261D01*
X146561904Y-98483452D01*
X146523809Y-98597738D01*
X146447619Y-98673928D01*
X146371428Y-98712023D01*
X146219047Y-98750119D01*
X146104761Y-98750119D01*
X145952380Y-98712023D01*
X145876190Y-98673928D01*
X145800000Y-98597738D01*
X145761904Y-98483452D01*
X145761904Y-98407261D01*
X145800000Y-98292976D01*
X145838095Y-98254880D01*
X145761904Y-97531071D02*
X145761904Y-97912023D01*
X146142857Y-97950119D01*
X146104761Y-97912023D01*
X146066666Y-97835833D01*
X146066666Y-97645357D01*
X146104761Y-97569166D01*
X146142857Y-97531071D01*
X146219047Y-97492976D01*
X146409523Y-97492976D01*
X146485714Y-97531071D01*
X146523809Y-97569166D01*
X146561904Y-97645357D01*
X146561904Y-97835833D01*
X146523809Y-97912023D01*
X146485714Y-97950119D01*
X138588214Y-87685714D02*
X138550119Y-87723809D01*
X138435833Y-87761904D01*
X138359642Y-87761904D01*
X138245357Y-87723809D01*
X138169166Y-87647619D01*
X138131071Y-87571428D01*
X138092976Y-87419047D01*
X138092976Y-87304761D01*
X138131071Y-87152380D01*
X138169166Y-87076190D01*
X138245357Y-87000000D01*
X138359642Y-86961904D01*
X138435833Y-86961904D01*
X138550119Y-87000000D01*
X138588214Y-87038095D01*
X139273928Y-87228571D02*
X139273928Y-87761904D01*
X139083452Y-86923809D02*
X138892976Y-87495238D01*
X139388214Y-87495238D01*
X138688214Y-84985714D02*
X138650119Y-85023809D01*
X138535833Y-85061904D01*
X138459642Y-85061904D01*
X138345357Y-85023809D01*
X138269166Y-84947619D01*
X138231071Y-84871428D01*
X138192976Y-84719047D01*
X138192976Y-84604761D01*
X138231071Y-84452380D01*
X138269166Y-84376190D01*
X138345357Y-84300000D01*
X138459642Y-84261904D01*
X138535833Y-84261904D01*
X138650119Y-84300000D01*
X138688214Y-84338095D01*
X138954880Y-84261904D02*
X139450119Y-84261904D01*
X139183452Y-84566666D01*
X139297738Y-84566666D01*
X139373928Y-84604761D01*
X139412023Y-84642857D01*
X139450119Y-84719047D01*
X139450119Y-84909523D01*
X139412023Y-84985714D01*
X139373928Y-85023809D01*
X139297738Y-85061904D01*
X139069166Y-85061904D01*
X138992976Y-85023809D01*
X138954880Y-84985714D01*
X149245119Y-82385714D02*
X149207023Y-82423809D01*
X149092738Y-82461904D01*
X149016547Y-82461904D01*
X148902261Y-82423809D01*
X148826071Y-82347619D01*
X148787976Y-82271428D01*
X148749880Y-82119047D01*
X148749880Y-82004761D01*
X148787976Y-81852380D01*
X148826071Y-81776190D01*
X148902261Y-81700000D01*
X149016547Y-81661904D01*
X149092738Y-81661904D01*
X149207023Y-81700000D01*
X149245119Y-81738095D01*
X149549880Y-81738095D02*
X149587976Y-81700000D01*
X149664166Y-81661904D01*
X149854642Y-81661904D01*
X149930833Y-81700000D01*
X149968928Y-81738095D01*
X150007023Y-81814285D01*
X150007023Y-81890476D01*
X149968928Y-82004761D01*
X149511785Y-82461904D01*
X150007023Y-82461904D01*
X144288214Y-84085714D02*
X144250119Y-84123809D01*
X144135833Y-84161904D01*
X144059642Y-84161904D01*
X143945357Y-84123809D01*
X143869166Y-84047619D01*
X143831071Y-83971428D01*
X143792976Y-83819047D01*
X143792976Y-83704761D01*
X143831071Y-83552380D01*
X143869166Y-83476190D01*
X143945357Y-83400000D01*
X144059642Y-83361904D01*
X144135833Y-83361904D01*
X144250119Y-83400000D01*
X144288214Y-83438095D01*
X145050119Y-84161904D02*
X144592976Y-84161904D01*
X144821547Y-84161904D02*
X144821547Y-83361904D01*
X144745357Y-83476190D01*
X144669166Y-83552380D01*
X144592976Y-83590476D01*
X131733333Y-112361904D02*
X131733333Y-112933333D01*
X131695238Y-113047619D01*
X131619047Y-113123809D01*
X131504761Y-113161904D01*
X131428571Y-113161904D01*
X132114285Y-113161904D02*
X132114285Y-112361904D01*
X132419047Y-112361904D01*
X132495238Y-112400000D01*
X132533333Y-112438095D01*
X132571428Y-112514285D01*
X132571428Y-112628571D01*
X132533333Y-112704761D01*
X132495238Y-112742857D01*
X132419047Y-112780952D01*
X132114285Y-112780952D01*
X132838095Y-112361904D02*
X133333333Y-112361904D01*
X133066666Y-112666666D01*
X133180952Y-112666666D01*
X133257142Y-112704761D01*
X133295238Y-112742857D01*
X133333333Y-112819047D01*
X133333333Y-113009523D01*
X133295238Y-113085714D01*
X133257142Y-113123809D01*
X133180952Y-113161904D01*
X132952380Y-113161904D01*
X132876190Y-113123809D01*
X132838095Y-113085714D01*
M02*
