G04 #@! TF.GenerationSoftware,KiCad,Pcbnew,5.1.8+dfsg1-1~bpo10+1*
G04 #@! TF.CreationDate,2021-01-14T22:26:34+01:00*
G04 #@! TF.ProjectId,_autosave-easyhive,5f617574-6f73-4617-9665-2d6561737968,rev?*
G04 #@! TF.SameCoordinates,Original*
G04 #@! TF.FileFunction,Legend,Bot*
G04 #@! TF.FilePolarity,Positive*
%FSLAX46Y46*%
G04 Gerber Fmt 4.6, Leading zero omitted, Abs format (unit mm)*
G04 Created by KiCad (PCBNEW 5.1.8+dfsg1-1~bpo10+1) date 2021-01-14 22:26:34*
%MOMM*%
%LPD*%
G01*
G04 APERTURE LIST*
%ADD10C,0.120000*%
%ADD11C,0.150000*%
%ADD12C,0.127000*%
%ADD13C,0.203200*%
%ADD14C,0.100000*%
%ADD15C,0.152400*%
G04 APERTURE END LIST*
D10*
X136351100Y-75625400D02*
X138351100Y-75625400D01*
X138351100Y-75625400D02*
X138351100Y-80908600D01*
X136351100Y-75625400D02*
X136351100Y-80908600D01*
X151686100Y-76666800D02*
X149686100Y-76666800D01*
X149686100Y-76666800D02*
X149686100Y-71383600D01*
X151686100Y-76666800D02*
X151686100Y-71383600D01*
D11*
X141673774Y-131929008D02*
G75*
G03*
X141673774Y-131929008I-125000J0D01*
G01*
X141740000Y-131603000D02*
X140440000Y-131603000D01*
X140440000Y-133603000D02*
X141740000Y-133603000D01*
X155078300Y-82280200D02*
G75*
G03*
X155078300Y-82280200I-125000J0D01*
G01*
D12*
X153696100Y-84948600D02*
X155296100Y-84948600D01*
X155296100Y-81948600D02*
X153696100Y-81948600D01*
D11*
X145310800Y-104814200D02*
G75*
G03*
X145310800Y-104814200I-250000J0D01*
G01*
D12*
X136700000Y-104175000D02*
X136700000Y-113175000D01*
X136700000Y-113175000D02*
X145700000Y-113175000D01*
X145700000Y-113175000D02*
X145700000Y-104175000D01*
X145700000Y-104175000D02*
X136700000Y-104175000D01*
X157930000Y-89370000D02*
X157330000Y-89370000D01*
X157930000Y-90470000D02*
X157330000Y-90470000D01*
X157330000Y-89370000D02*
X157330000Y-89620000D01*
X157330000Y-89620000D02*
X157330000Y-90220000D01*
X157330000Y-90220000D02*
X157330000Y-90470000D01*
X157930000Y-89370000D02*
X157930000Y-89620000D01*
X157930000Y-89620000D02*
X157930000Y-90220000D01*
X157930000Y-90220000D02*
X157930000Y-90470000D01*
X157930000Y-89620000D02*
X157330000Y-89620000D01*
X157930000Y-90220000D02*
X157330000Y-90220000D01*
X136801100Y-92038600D02*
X136801100Y-92638600D01*
X137901100Y-92038600D02*
X137901100Y-92638600D01*
X136801100Y-92638600D02*
X137051100Y-92638600D01*
X137051100Y-92638600D02*
X137651100Y-92638600D01*
X137651100Y-92638600D02*
X137901100Y-92638600D01*
X136801100Y-92038600D02*
X137051100Y-92038600D01*
X137051100Y-92038600D02*
X137651100Y-92038600D01*
X137651100Y-92038600D02*
X137901100Y-92038600D01*
X137051100Y-92038600D02*
X137051100Y-92638600D01*
X137651100Y-92038600D02*
X137651100Y-92638600D01*
X137901100Y-94543600D02*
X137901100Y-93943600D01*
X136801100Y-94543600D02*
X136801100Y-93943600D01*
X137901100Y-93943600D02*
X137651100Y-93943600D01*
X137651100Y-93943600D02*
X137051100Y-93943600D01*
X137051100Y-93943600D02*
X136801100Y-93943600D01*
X137901100Y-94543600D02*
X137651100Y-94543600D01*
X137651100Y-94543600D02*
X137051100Y-94543600D01*
X137051100Y-94543600D02*
X136801100Y-94543600D01*
X137651100Y-94543600D02*
X137651100Y-93943600D01*
X137051100Y-94543600D02*
X137051100Y-93943600D01*
X148061100Y-81526100D02*
X148061100Y-80926100D01*
X146961100Y-81526100D02*
X146961100Y-80926100D01*
X148061100Y-80926100D02*
X147811100Y-80926100D01*
X147811100Y-80926100D02*
X147211100Y-80926100D01*
X147211100Y-80926100D02*
X146961100Y-80926100D01*
X148061100Y-81526100D02*
X147811100Y-81526100D01*
X147811100Y-81526100D02*
X147211100Y-81526100D01*
X147211100Y-81526100D02*
X146961100Y-81526100D01*
X147811100Y-81526100D02*
X147811100Y-80926100D01*
X147211100Y-81526100D02*
X147211100Y-80926100D01*
X145906100Y-77818600D02*
X145306100Y-77818600D01*
X145906100Y-78918600D02*
X145306100Y-78918600D01*
X145306100Y-77818600D02*
X145306100Y-78068600D01*
X145306100Y-78068600D02*
X145306100Y-78668600D01*
X145306100Y-78668600D02*
X145306100Y-78918600D01*
X145906100Y-77818600D02*
X145906100Y-78068600D01*
X145906100Y-78068600D02*
X145906100Y-78668600D01*
X145906100Y-78668600D02*
X145906100Y-78918600D01*
X145906100Y-78068600D02*
X145306100Y-78068600D01*
X145906100Y-78668600D02*
X145306100Y-78668600D01*
X140191100Y-77818600D02*
X139591100Y-77818600D01*
X140191100Y-78918600D02*
X139591100Y-78918600D01*
X139591100Y-77818600D02*
X139591100Y-78068600D01*
X139591100Y-78068600D02*
X139591100Y-78668600D01*
X139591100Y-78668600D02*
X139591100Y-78918600D01*
X140191100Y-77818600D02*
X140191100Y-78068600D01*
X140191100Y-78068600D02*
X140191100Y-78668600D01*
X140191100Y-78668600D02*
X140191100Y-78918600D01*
X140191100Y-78068600D02*
X139591100Y-78068600D01*
X140191100Y-78668600D02*
X139591100Y-78668600D01*
X144001100Y-77818600D02*
X143401100Y-77818600D01*
X144001100Y-78918600D02*
X143401100Y-78918600D01*
X143401100Y-77818600D02*
X143401100Y-78068600D01*
X143401100Y-78068600D02*
X143401100Y-78668600D01*
X143401100Y-78668600D02*
X143401100Y-78918600D01*
X144001100Y-77818600D02*
X144001100Y-78068600D01*
X144001100Y-78068600D02*
X144001100Y-78668600D01*
X144001100Y-78668600D02*
X144001100Y-78918600D01*
X144001100Y-78068600D02*
X143401100Y-78068600D01*
X144001100Y-78668600D02*
X143401100Y-78668600D01*
D13*
X148746100Y-73023600D02*
X148746100Y-74823600D01*
X147546100Y-74823600D02*
X147546100Y-73023600D01*
X161800000Y-90450000D02*
X161800000Y-93250000D01*
X158950000Y-93250000D02*
X158950000Y-90450000D01*
D14*
X159650000Y-90950000D02*
G75*
G03*
X159650000Y-90950000I-200000J0D01*
G01*
D12*
X147205000Y-122866000D02*
X139255000Y-122866000D01*
X139255000Y-122866000D02*
X139255000Y-127366000D01*
X139255000Y-127366000D02*
X147205000Y-127366000D01*
X147205000Y-127366000D02*
X147205000Y-122866000D01*
X146805000Y-126616000D02*
G75*
G03*
X146805000Y-126616000I-250000J0D01*
G01*
D15*
X143931100Y-81313600D02*
X140931100Y-81313600D01*
X140931100Y-81313600D02*
X140931100Y-84313600D01*
X140931100Y-84313600D02*
X143931100Y-84313600D01*
X143931100Y-84313600D02*
X143931100Y-81313600D01*
X143681100Y-81688600D02*
G75*
G03*
X143681100Y-81688600I-125000J0D01*
G01*
D12*
X161781100Y-87358600D02*
X161781100Y-87158600D01*
X161181100Y-87358600D02*
X161181100Y-87158600D01*
X160511100Y-87358600D02*
X160511100Y-87158600D01*
X159911100Y-87358600D02*
X159911100Y-87158600D01*
X159911100Y-80108600D02*
X159911100Y-80308600D01*
X160511100Y-80108600D02*
X160511100Y-80308600D01*
X158641100Y-80108600D02*
X158641100Y-80308600D01*
X159241100Y-80108600D02*
X159241100Y-80308600D01*
X142966100Y-72318600D02*
X143166100Y-72318600D01*
X142966100Y-71718600D02*
X143166100Y-71718600D01*
X142966100Y-73588600D02*
X143166100Y-73588600D01*
X142966100Y-72988600D02*
X143166100Y-72988600D01*
X142966100Y-74858600D02*
X143166100Y-74858600D01*
X142966100Y-74258600D02*
X143166100Y-74258600D01*
X145068000Y-130856000D02*
X145068000Y-130256000D01*
X143968000Y-130856000D02*
X143968000Y-130256000D01*
X145068000Y-130256000D02*
X144818000Y-130256000D01*
X144818000Y-130256000D02*
X144218000Y-130256000D01*
X144218000Y-130256000D02*
X143968000Y-130256000D01*
X145068000Y-130856000D02*
X144818000Y-130856000D01*
X144818000Y-130856000D02*
X144218000Y-130856000D01*
X144218000Y-130856000D02*
X143968000Y-130856000D01*
X144818000Y-130856000D02*
X144818000Y-130256000D01*
X144218000Y-130856000D02*
X144218000Y-130256000D01*
X137901100Y-90733600D02*
X137901100Y-90133600D01*
X136801100Y-90733600D02*
X136801100Y-90133600D01*
X137901100Y-90133600D02*
X137651100Y-90133600D01*
X137651100Y-90133600D02*
X137051100Y-90133600D01*
X137051100Y-90133600D02*
X136801100Y-90133600D01*
X137901100Y-90733600D02*
X137651100Y-90733600D01*
X137651100Y-90733600D02*
X137051100Y-90733600D01*
X137051100Y-90733600D02*
X136801100Y-90733600D01*
X137651100Y-90733600D02*
X137651100Y-90133600D01*
X137051100Y-90733600D02*
X137051100Y-90133600D01*
X147596100Y-76798600D02*
X147596100Y-77398600D01*
X148696100Y-76798600D02*
X148696100Y-77398600D01*
X147596100Y-77398600D02*
X147846100Y-77398600D01*
X147846100Y-77398600D02*
X148446100Y-77398600D01*
X148446100Y-77398600D02*
X148696100Y-77398600D01*
X147596100Y-76798600D02*
X147846100Y-76798600D01*
X147846100Y-76798600D02*
X148446100Y-76798600D01*
X148446100Y-76798600D02*
X148696100Y-76798600D01*
X147846100Y-76798600D02*
X147846100Y-77398600D01*
X148446100Y-76798600D02*
X148446100Y-77398600D01*
X152926100Y-80823600D02*
X153526100Y-80823600D01*
X152926100Y-79723600D02*
X153526100Y-79723600D01*
X153526100Y-80823600D02*
X153526100Y-80573600D01*
X153526100Y-80573600D02*
X153526100Y-79973600D01*
X153526100Y-79973600D02*
X153526100Y-79723600D01*
X152926100Y-80823600D02*
X152926100Y-80573600D01*
X152926100Y-80573600D02*
X152926100Y-79973600D01*
X152926100Y-79973600D02*
X152926100Y-79723600D01*
X152926100Y-80573600D02*
X153526100Y-80573600D01*
X152926100Y-79973600D02*
X153526100Y-79973600D01*
X155466100Y-80823600D02*
X156066100Y-80823600D01*
X155466100Y-79723600D02*
X156066100Y-79723600D01*
X156066100Y-80823600D02*
X156066100Y-80573600D01*
X156066100Y-80573600D02*
X156066100Y-79973600D01*
X156066100Y-79973600D02*
X156066100Y-79723600D01*
X155466100Y-80823600D02*
X155466100Y-80573600D01*
X155466100Y-80573600D02*
X155466100Y-79973600D01*
X155466100Y-79973600D02*
X155466100Y-79723600D01*
X155466100Y-80573600D02*
X156066100Y-80573600D01*
X155466100Y-79973600D02*
X156066100Y-79973600D01*
X141305000Y-120446000D02*
X141905000Y-120446000D01*
X141305000Y-119346000D02*
X141905000Y-119346000D01*
X141905000Y-120446000D02*
X141905000Y-120196000D01*
X141905000Y-120196000D02*
X141905000Y-119596000D01*
X141905000Y-119596000D02*
X141905000Y-119346000D01*
X141305000Y-120446000D02*
X141305000Y-120196000D01*
X141305000Y-120196000D02*
X141305000Y-119596000D01*
X141305000Y-119596000D02*
X141305000Y-119346000D01*
X141305000Y-120196000D02*
X141905000Y-120196000D01*
X141305000Y-119596000D02*
X141905000Y-119596000D01*
X142045400Y-130043200D02*
X142045400Y-129443200D01*
X140945400Y-130043200D02*
X140945400Y-129443200D01*
X142045400Y-129443200D02*
X141795400Y-129443200D01*
X141795400Y-129443200D02*
X141195400Y-129443200D01*
X141195400Y-129443200D02*
X140945400Y-129443200D01*
X142045400Y-130043200D02*
X141795400Y-130043200D01*
X141795400Y-130043200D02*
X141195400Y-130043200D01*
X141195400Y-130043200D02*
X140945400Y-130043200D01*
X141795400Y-130043200D02*
X141795400Y-129443200D01*
X141195400Y-130043200D02*
X141195400Y-129443200D01*
X145056100Y-85053600D02*
X145056100Y-85653600D01*
X146156100Y-85053600D02*
X146156100Y-85653600D01*
X145056100Y-85653600D02*
X145306100Y-85653600D01*
X145306100Y-85653600D02*
X145906100Y-85653600D01*
X145906100Y-85653600D02*
X146156100Y-85653600D01*
X145056100Y-85053600D02*
X145306100Y-85053600D01*
X145306100Y-85053600D02*
X145906100Y-85053600D01*
X145906100Y-85053600D02*
X146156100Y-85053600D01*
X145306100Y-85053600D02*
X145306100Y-85653600D01*
X145906100Y-85053600D02*
X145906100Y-85653600D01*
X145056100Y-83783600D02*
X145056100Y-84383600D01*
X146156100Y-83783600D02*
X146156100Y-84383600D01*
X145056100Y-84383600D02*
X145306100Y-84383600D01*
X145306100Y-84383600D02*
X145906100Y-84383600D01*
X145906100Y-84383600D02*
X146156100Y-84383600D01*
X145056100Y-83783600D02*
X145306100Y-83783600D01*
X145306100Y-83783600D02*
X145906100Y-83783600D01*
X145906100Y-83783600D02*
X146156100Y-83783600D01*
X145306100Y-83783600D02*
X145306100Y-84383600D01*
X145906100Y-83783600D02*
X145906100Y-84383600D01*
X141450000Y-78900000D02*
X142050000Y-78900000D01*
X141450000Y-77800000D02*
X142050000Y-77800000D01*
X142050000Y-78900000D02*
X142050000Y-78650000D01*
X142050000Y-78650000D02*
X142050000Y-78050000D01*
X142050000Y-78050000D02*
X142050000Y-77800000D01*
X141450000Y-78900000D02*
X141450000Y-78650000D01*
X141450000Y-78650000D02*
X141450000Y-78050000D01*
X141450000Y-78050000D02*
X141450000Y-77800000D01*
X141450000Y-78650000D02*
X142050000Y-78650000D01*
X141450000Y-78050000D02*
X142050000Y-78050000D01*
D11*
X135968928Y-76361904D02*
X135968928Y-75561904D01*
X135778452Y-75561904D01*
X135664166Y-75600000D01*
X135587976Y-75676190D01*
X135549880Y-75752380D01*
X135511785Y-75904761D01*
X135511785Y-76019047D01*
X135549880Y-76171428D01*
X135587976Y-76247619D01*
X135664166Y-76323809D01*
X135778452Y-76361904D01*
X135968928Y-76361904D01*
X134749880Y-76361904D02*
X135207023Y-76361904D01*
X134978452Y-76361904D02*
X134978452Y-75561904D01*
X135054642Y-75676190D01*
X135130833Y-75752380D01*
X135207023Y-75790476D01*
X153412023Y-74361904D02*
X153412023Y-73561904D01*
X153221547Y-73561904D01*
X153107261Y-73600000D01*
X153031071Y-73676190D01*
X152992976Y-73752380D01*
X152954880Y-73904761D01*
X152954880Y-74019047D01*
X152992976Y-74171428D01*
X153031071Y-74247619D01*
X153107261Y-74323809D01*
X153221547Y-74361904D01*
X153412023Y-74361904D01*
X152650119Y-73638095D02*
X152612023Y-73600000D01*
X152535833Y-73561904D01*
X152345357Y-73561904D01*
X152269166Y-73600000D01*
X152231071Y-73638095D01*
X152192976Y-73714285D01*
X152192976Y-73790476D01*
X152231071Y-73904761D01*
X152688214Y-74361904D01*
X152192976Y-74361904D01*
X141980952Y-134961904D02*
X141980952Y-134161904D01*
X141142857Y-134885714D02*
X141180952Y-134923809D01*
X141295238Y-134961904D01*
X141371428Y-134961904D01*
X141485714Y-134923809D01*
X141561904Y-134847619D01*
X141600000Y-134771428D01*
X141638095Y-134619047D01*
X141638095Y-134504761D01*
X141600000Y-134352380D01*
X141561904Y-134276190D01*
X141485714Y-134200000D01*
X141371428Y-134161904D01*
X141295238Y-134161904D01*
X141180952Y-134200000D01*
X141142857Y-134238095D01*
X140876190Y-134161904D02*
X140342857Y-134161904D01*
X140685714Y-134961904D01*
X155249880Y-86061904D02*
X155249880Y-85261904D01*
X154411785Y-85985714D02*
X154449880Y-86023809D01*
X154564166Y-86061904D01*
X154640357Y-86061904D01*
X154754642Y-86023809D01*
X154830833Y-85947619D01*
X154868928Y-85871428D01*
X154907023Y-85719047D01*
X154907023Y-85604761D01*
X154868928Y-85452380D01*
X154830833Y-85376190D01*
X154754642Y-85300000D01*
X154640357Y-85261904D01*
X154564166Y-85261904D01*
X154449880Y-85300000D01*
X154411785Y-85338095D01*
X153687976Y-85261904D02*
X154068928Y-85261904D01*
X154107023Y-85642857D01*
X154068928Y-85604761D01*
X153992738Y-85566666D01*
X153802261Y-85566666D01*
X153726071Y-85604761D01*
X153687976Y-85642857D01*
X153649880Y-85719047D01*
X153649880Y-85909523D01*
X153687976Y-85985714D01*
X153726071Y-86023809D01*
X153802261Y-86061904D01*
X153992738Y-86061904D01*
X154068928Y-86023809D01*
X154107023Y-85985714D01*
X138268928Y-103861904D02*
X138268928Y-103061904D01*
X137964166Y-103061904D01*
X137887976Y-103100000D01*
X137849880Y-103138095D01*
X137811785Y-103214285D01*
X137811785Y-103328571D01*
X137849880Y-103404761D01*
X137887976Y-103442857D01*
X137964166Y-103480952D01*
X138268928Y-103480952D01*
X137049880Y-103861904D02*
X137507023Y-103861904D01*
X137278452Y-103861904D02*
X137278452Y-103061904D01*
X137354642Y-103176190D01*
X137430833Y-103252380D01*
X137507023Y-103290476D01*
X150576309Y-90161904D02*
X150119166Y-90161904D01*
X150347738Y-90961904D02*
X150347738Y-90161904D01*
X149852500Y-90961904D02*
X149852500Y-90161904D01*
X149547738Y-90161904D01*
X149471547Y-90200000D01*
X149433452Y-90238095D01*
X149395357Y-90314285D01*
X149395357Y-90428571D01*
X149433452Y-90504761D01*
X149471547Y-90542857D01*
X149547738Y-90580952D01*
X149852500Y-90580952D01*
X148633452Y-90961904D02*
X149090595Y-90961904D01*
X148862023Y-90961904D02*
X148862023Y-90161904D01*
X148938214Y-90276190D01*
X149014404Y-90352380D01*
X149090595Y-90390476D01*
X147871547Y-90961904D02*
X148328690Y-90961904D01*
X148100119Y-90961904D02*
X148100119Y-90161904D01*
X148176309Y-90276190D01*
X148252500Y-90352380D01*
X148328690Y-90390476D01*
X155576509Y-90261804D02*
X155119366Y-90261804D01*
X155347938Y-91061804D02*
X155347938Y-90261804D01*
X154852700Y-91061804D02*
X154852700Y-90261804D01*
X154547938Y-90261804D01*
X154471747Y-90299900D01*
X154433652Y-90337995D01*
X154395557Y-90414185D01*
X154395557Y-90528471D01*
X154433652Y-90604661D01*
X154471747Y-90642757D01*
X154547938Y-90680852D01*
X154852700Y-90680852D01*
X153633652Y-91061804D02*
X154090795Y-91061804D01*
X153862223Y-91061804D02*
X153862223Y-90261804D01*
X153938414Y-90376090D01*
X154014604Y-90452280D01*
X154090795Y-90490376D01*
X153138414Y-90261804D02*
X153062223Y-90261804D01*
X152986033Y-90299900D01*
X152947938Y-90337995D01*
X152909842Y-90414185D01*
X152871747Y-90566566D01*
X152871747Y-90757042D01*
X152909842Y-90909423D01*
X152947938Y-90985614D01*
X152986033Y-91023709D01*
X153062223Y-91061804D01*
X153138414Y-91061804D01*
X153214604Y-91023709D01*
X153252700Y-90985614D01*
X153290795Y-90909423D01*
X153328890Y-90757042D01*
X153328890Y-90566566D01*
X153290795Y-90414185D01*
X153252700Y-90337995D01*
X153214604Y-90299900D01*
X153138414Y-90261804D01*
X157434880Y-88631904D02*
X157701547Y-88250952D01*
X157892023Y-88631904D02*
X157892023Y-87831904D01*
X157587261Y-87831904D01*
X157511071Y-87870000D01*
X157472976Y-87908095D01*
X157434880Y-87984285D01*
X157434880Y-88098571D01*
X157472976Y-88174761D01*
X157511071Y-88212857D01*
X157587261Y-88250952D01*
X157892023Y-88250952D01*
X156672976Y-88631904D02*
X157130119Y-88631904D01*
X156901547Y-88631904D02*
X156901547Y-87831904D01*
X156977738Y-87946190D01*
X157053928Y-88022380D01*
X157130119Y-88060476D01*
X156215833Y-88174761D02*
X156292023Y-88136666D01*
X156330119Y-88098571D01*
X156368214Y-88022380D01*
X156368214Y-87984285D01*
X156330119Y-87908095D01*
X156292023Y-87870000D01*
X156215833Y-87831904D01*
X156063452Y-87831904D01*
X155987261Y-87870000D01*
X155949166Y-87908095D01*
X155911071Y-87984285D01*
X155911071Y-88022380D01*
X155949166Y-88098571D01*
X155987261Y-88136666D01*
X156063452Y-88174761D01*
X156215833Y-88174761D01*
X156292023Y-88212857D01*
X156330119Y-88250952D01*
X156368214Y-88327142D01*
X156368214Y-88479523D01*
X156330119Y-88555714D01*
X156292023Y-88593809D01*
X156215833Y-88631904D01*
X156063452Y-88631904D01*
X155987261Y-88593809D01*
X155949166Y-88555714D01*
X155911071Y-88479523D01*
X155911071Y-88327142D01*
X155949166Y-88250952D01*
X155987261Y-88212857D01*
X156063452Y-88174761D01*
X140454880Y-92761904D02*
X140721547Y-92380952D01*
X140912023Y-92761904D02*
X140912023Y-91961904D01*
X140607261Y-91961904D01*
X140531071Y-92000000D01*
X140492976Y-92038095D01*
X140454880Y-92114285D01*
X140454880Y-92228571D01*
X140492976Y-92304761D01*
X140531071Y-92342857D01*
X140607261Y-92380952D01*
X140912023Y-92380952D01*
X139692976Y-92761904D02*
X140150119Y-92761904D01*
X139921547Y-92761904D02*
X139921547Y-91961904D01*
X139997738Y-92076190D01*
X140073928Y-92152380D01*
X140150119Y-92190476D01*
X139426309Y-91961904D02*
X138892976Y-91961904D01*
X139235833Y-92761904D01*
X137473690Y-95961904D02*
X137740357Y-95580952D01*
X137930833Y-95961904D02*
X137930833Y-95161904D01*
X137626071Y-95161904D01*
X137549880Y-95200000D01*
X137511785Y-95238095D01*
X137473690Y-95314285D01*
X137473690Y-95428571D01*
X137511785Y-95504761D01*
X137549880Y-95542857D01*
X137626071Y-95580952D01*
X137930833Y-95580952D01*
X136711785Y-95961904D02*
X137168928Y-95961904D01*
X136940357Y-95961904D02*
X136940357Y-95161904D01*
X137016547Y-95276190D01*
X137092738Y-95352380D01*
X137168928Y-95390476D01*
X136026071Y-95161904D02*
X136178452Y-95161904D01*
X136254642Y-95200000D01*
X136292738Y-95238095D01*
X136368928Y-95352380D01*
X136407023Y-95504761D01*
X136407023Y-95809523D01*
X136368928Y-95885714D01*
X136330833Y-95923809D01*
X136254642Y-95961904D01*
X136102261Y-95961904D01*
X136026071Y-95923809D01*
X135987976Y-95885714D01*
X135949880Y-95809523D01*
X135949880Y-95619047D01*
X135987976Y-95542857D01*
X136026071Y-95504761D01*
X136102261Y-95466666D01*
X136254642Y-95466666D01*
X136330833Y-95504761D01*
X136368928Y-95542857D01*
X136407023Y-95619047D01*
X150373690Y-81661904D02*
X150640357Y-81280952D01*
X150830833Y-81661904D02*
X150830833Y-80861904D01*
X150526071Y-80861904D01*
X150449880Y-80900000D01*
X150411785Y-80938095D01*
X150373690Y-81014285D01*
X150373690Y-81128571D01*
X150411785Y-81204761D01*
X150449880Y-81242857D01*
X150526071Y-81280952D01*
X150830833Y-81280952D01*
X149611785Y-81661904D02*
X150068928Y-81661904D01*
X149840357Y-81661904D02*
X149840357Y-80861904D01*
X149916547Y-80976190D01*
X149992738Y-81052380D01*
X150068928Y-81090476D01*
X148887976Y-80861904D02*
X149268928Y-80861904D01*
X149307023Y-81242857D01*
X149268928Y-81204761D01*
X149192738Y-81166666D01*
X149002261Y-81166666D01*
X148926071Y-81204761D01*
X148887976Y-81242857D01*
X148849880Y-81319047D01*
X148849880Y-81509523D01*
X148887976Y-81585714D01*
X148926071Y-81623809D01*
X149002261Y-81661904D01*
X149192738Y-81661904D01*
X149268928Y-81623809D01*
X149307023Y-81585714D01*
X146054880Y-76961904D02*
X146321547Y-76580952D01*
X146512023Y-76961904D02*
X146512023Y-76161904D01*
X146207261Y-76161904D01*
X146131071Y-76200000D01*
X146092976Y-76238095D01*
X146054880Y-76314285D01*
X146054880Y-76428571D01*
X146092976Y-76504761D01*
X146131071Y-76542857D01*
X146207261Y-76580952D01*
X146512023Y-76580952D01*
X145331071Y-76161904D02*
X145712023Y-76161904D01*
X145750119Y-76542857D01*
X145712023Y-76504761D01*
X145635833Y-76466666D01*
X145445357Y-76466666D01*
X145369166Y-76504761D01*
X145331071Y-76542857D01*
X145292976Y-76619047D01*
X145292976Y-76809523D01*
X145331071Y-76885714D01*
X145369166Y-76923809D01*
X145445357Y-76961904D01*
X145635833Y-76961904D01*
X145712023Y-76923809D01*
X145750119Y-76885714D01*
X139954880Y-76961904D02*
X140221547Y-76580952D01*
X140412023Y-76961904D02*
X140412023Y-76161904D01*
X140107261Y-76161904D01*
X140031071Y-76200000D01*
X139992976Y-76238095D01*
X139954880Y-76314285D01*
X139954880Y-76428571D01*
X139992976Y-76504761D01*
X140031071Y-76542857D01*
X140107261Y-76580952D01*
X140412023Y-76580952D01*
X139269166Y-76428571D02*
X139269166Y-76961904D01*
X139459642Y-76123809D02*
X139650119Y-76695238D01*
X139154880Y-76695238D01*
X144354880Y-76961904D02*
X144621547Y-76580952D01*
X144812023Y-76961904D02*
X144812023Y-76161904D01*
X144507261Y-76161904D01*
X144431071Y-76200000D01*
X144392976Y-76238095D01*
X144354880Y-76314285D01*
X144354880Y-76428571D01*
X144392976Y-76504761D01*
X144431071Y-76542857D01*
X144507261Y-76580952D01*
X144812023Y-76580952D01*
X144088214Y-76161904D02*
X143592976Y-76161904D01*
X143859642Y-76466666D01*
X143745357Y-76466666D01*
X143669166Y-76504761D01*
X143631071Y-76542857D01*
X143592976Y-76619047D01*
X143592976Y-76809523D01*
X143631071Y-76885714D01*
X143669166Y-76923809D01*
X143745357Y-76961904D01*
X143973928Y-76961904D01*
X144050119Y-76923809D01*
X144088214Y-76885714D01*
X148535595Y-71161904D02*
X148916547Y-71161904D01*
X148916547Y-70361904D01*
X148307023Y-70438095D02*
X148268928Y-70400000D01*
X148192738Y-70361904D01*
X148002261Y-70361904D01*
X147926071Y-70400000D01*
X147887976Y-70438095D01*
X147849880Y-70514285D01*
X147849880Y-70590476D01*
X147887976Y-70704761D01*
X148345119Y-71161904D01*
X147849880Y-71161904D01*
X157638095Y-93949880D02*
X158438095Y-93949880D01*
X157714285Y-93111785D02*
X157676190Y-93149880D01*
X157638095Y-93264166D01*
X157638095Y-93340357D01*
X157676190Y-93454642D01*
X157752380Y-93530833D01*
X157828571Y-93568928D01*
X157980952Y-93607023D01*
X158095238Y-93607023D01*
X158247619Y-93568928D01*
X158323809Y-93530833D01*
X158400000Y-93454642D01*
X158438095Y-93340357D01*
X158438095Y-93264166D01*
X158400000Y-93149880D01*
X158361904Y-93111785D01*
X158171428Y-92426071D02*
X157638095Y-92426071D01*
X158476190Y-92616547D02*
X157904761Y-92807023D01*
X157904761Y-92311785D01*
X148211904Y-123500119D02*
X147411904Y-123500119D01*
X148135714Y-124338214D02*
X148173809Y-124300119D01*
X148211904Y-124185833D01*
X148211904Y-124109642D01*
X148173809Y-123995357D01*
X148097619Y-123919166D01*
X148021428Y-123881071D01*
X147869047Y-123842976D01*
X147754761Y-123842976D01*
X147602380Y-123881071D01*
X147526190Y-123919166D01*
X147450000Y-123995357D01*
X147411904Y-124109642D01*
X147411904Y-124185833D01*
X147450000Y-124300119D01*
X147488095Y-124338214D01*
X147411904Y-124604880D02*
X147411904Y-125100119D01*
X147716666Y-124833452D01*
X147716666Y-124947738D01*
X147754761Y-125023928D01*
X147792857Y-125062023D01*
X147869047Y-125100119D01*
X148059523Y-125100119D01*
X148135714Y-125062023D01*
X148173809Y-125023928D01*
X148211904Y-124947738D01*
X148211904Y-124719166D01*
X148173809Y-124642976D01*
X148135714Y-124604880D01*
X143512023Y-80761904D02*
X143512023Y-79961904D01*
X142673928Y-80685714D02*
X142712023Y-80723809D01*
X142826309Y-80761904D01*
X142902500Y-80761904D01*
X143016785Y-80723809D01*
X143092976Y-80647619D01*
X143131071Y-80571428D01*
X143169166Y-80419047D01*
X143169166Y-80304761D01*
X143131071Y-80152380D01*
X143092976Y-80076190D01*
X143016785Y-80000000D01*
X142902500Y-79961904D01*
X142826309Y-79961904D01*
X142712023Y-80000000D01*
X142673928Y-80038095D01*
X142369166Y-80038095D02*
X142331071Y-80000000D01*
X142254880Y-79961904D01*
X142064404Y-79961904D01*
X141988214Y-80000000D01*
X141950119Y-80038095D01*
X141912023Y-80114285D01*
X141912023Y-80190476D01*
X141950119Y-80304761D01*
X142407261Y-80761904D01*
X141912023Y-80761904D01*
X135692857Y-83604642D02*
X135692857Y-83337976D01*
X136111904Y-83337976D02*
X135311904Y-83337976D01*
X135311904Y-83718928D01*
X136111904Y-84442738D02*
X136111904Y-83985595D01*
X136111904Y-84214166D02*
X135311904Y-84214166D01*
X135426190Y-84137976D01*
X135502380Y-84061785D01*
X135540476Y-83985595D01*
X161761904Y-83769166D02*
X160961904Y-83769166D01*
X160961904Y-83959642D01*
X161000000Y-84073928D01*
X161076190Y-84150119D01*
X161152380Y-84188214D01*
X161304761Y-84226309D01*
X161419047Y-84226309D01*
X161571428Y-84188214D01*
X161647619Y-84150119D01*
X161723809Y-84073928D01*
X161761904Y-83959642D01*
X161761904Y-83769166D01*
X161761904Y-84988214D02*
X161761904Y-84531071D01*
X161761904Y-84759642D02*
X160961904Y-84759642D01*
X161076190Y-84683452D01*
X161152380Y-84607261D01*
X161190476Y-84531071D01*
X161228571Y-85673928D02*
X161761904Y-85673928D01*
X160923809Y-85483452D02*
X161495238Y-85292976D01*
X161495238Y-85788214D01*
X159461904Y-84969166D02*
X158661904Y-84969166D01*
X158661904Y-85159642D01*
X158700000Y-85273928D01*
X158776190Y-85350119D01*
X158852380Y-85388214D01*
X159004761Y-85426309D01*
X159119047Y-85426309D01*
X159271428Y-85388214D01*
X159347619Y-85350119D01*
X159423809Y-85273928D01*
X159461904Y-85159642D01*
X159461904Y-84969166D01*
X159461904Y-86188214D02*
X159461904Y-85731071D01*
X159461904Y-85959642D02*
X158661904Y-85959642D01*
X158776190Y-85883452D01*
X158852380Y-85807261D01*
X158890476Y-85731071D01*
X158661904Y-86454880D02*
X158661904Y-86950119D01*
X158966666Y-86683452D01*
X158966666Y-86797738D01*
X159004761Y-86873928D01*
X159042857Y-86912023D01*
X159119047Y-86950119D01*
X159309523Y-86950119D01*
X159385714Y-86912023D01*
X159423809Y-86873928D01*
X159461904Y-86797738D01*
X159461904Y-86569166D01*
X159423809Y-86492976D01*
X159385714Y-86454880D01*
X160961904Y-76187976D02*
X160161904Y-76187976D01*
X160161904Y-76378452D01*
X160200000Y-76492738D01*
X160276190Y-76568928D01*
X160352380Y-76607023D01*
X160504761Y-76645119D01*
X160619047Y-76645119D01*
X160771428Y-76607023D01*
X160847619Y-76568928D01*
X160923809Y-76492738D01*
X160961904Y-76378452D01*
X160961904Y-76187976D01*
X160961904Y-77407023D02*
X160961904Y-76949880D01*
X160961904Y-77178452D02*
X160161904Y-77178452D01*
X160276190Y-77102261D01*
X160352380Y-77026071D01*
X160390476Y-76949880D01*
X160238095Y-77711785D02*
X160200000Y-77749880D01*
X160161904Y-77826071D01*
X160161904Y-78016547D01*
X160200000Y-78092738D01*
X160238095Y-78130833D01*
X160314285Y-78168928D01*
X160390476Y-78168928D01*
X160504761Y-78130833D01*
X160961904Y-77673690D01*
X160961904Y-78168928D01*
X159161904Y-76387976D02*
X158361904Y-76387976D01*
X158361904Y-76578452D01*
X158400000Y-76692738D01*
X158476190Y-76768928D01*
X158552380Y-76807023D01*
X158704761Y-76845119D01*
X158819047Y-76845119D01*
X158971428Y-76807023D01*
X159047619Y-76768928D01*
X159123809Y-76692738D01*
X159161904Y-76578452D01*
X159161904Y-76387976D01*
X159161904Y-77607023D02*
X159161904Y-77149880D01*
X159161904Y-77378452D02*
X158361904Y-77378452D01*
X158476190Y-77302261D01*
X158552380Y-77226071D01*
X158590476Y-77149880D01*
X159161904Y-78368928D02*
X159161904Y-77911785D01*
X159161904Y-78140357D02*
X158361904Y-78140357D01*
X158476190Y-78064166D01*
X158552380Y-77987976D01*
X158590476Y-77911785D01*
X141030833Y-72361904D02*
X141030833Y-71561904D01*
X140840357Y-71561904D01*
X140726071Y-71600000D01*
X140649880Y-71676190D01*
X140611785Y-71752380D01*
X140573690Y-71904761D01*
X140573690Y-72019047D01*
X140611785Y-72171428D01*
X140649880Y-72247619D01*
X140726071Y-72323809D01*
X140840357Y-72361904D01*
X141030833Y-72361904D01*
X139811785Y-72361904D02*
X140268928Y-72361904D01*
X140040357Y-72361904D02*
X140040357Y-71561904D01*
X140116547Y-71676190D01*
X140192738Y-71752380D01*
X140268928Y-71790476D01*
X139316547Y-71561904D02*
X139240357Y-71561904D01*
X139164166Y-71600000D01*
X139126071Y-71638095D01*
X139087976Y-71714285D01*
X139049880Y-71866666D01*
X139049880Y-72057142D01*
X139087976Y-72209523D01*
X139126071Y-72285714D01*
X139164166Y-72323809D01*
X139240357Y-72361904D01*
X139316547Y-72361904D01*
X139392738Y-72323809D01*
X139430833Y-72285714D01*
X139468928Y-72209523D01*
X139507023Y-72057142D01*
X139507023Y-71866666D01*
X139468928Y-71714285D01*
X139430833Y-71638095D01*
X139392738Y-71600000D01*
X139316547Y-71561904D01*
X141168928Y-73761904D02*
X141168928Y-72961904D01*
X140978452Y-72961904D01*
X140864166Y-73000000D01*
X140787976Y-73076190D01*
X140749880Y-73152380D01*
X140711785Y-73304761D01*
X140711785Y-73419047D01*
X140749880Y-73571428D01*
X140787976Y-73647619D01*
X140864166Y-73723809D01*
X140978452Y-73761904D01*
X141168928Y-73761904D01*
X140330833Y-73761904D02*
X140178452Y-73761904D01*
X140102261Y-73723809D01*
X140064166Y-73685714D01*
X139987976Y-73571428D01*
X139949880Y-73419047D01*
X139949880Y-73114285D01*
X139987976Y-73038095D01*
X140026071Y-73000000D01*
X140102261Y-72961904D01*
X140254642Y-72961904D01*
X140330833Y-73000000D01*
X140368928Y-73038095D01*
X140407023Y-73114285D01*
X140407023Y-73304761D01*
X140368928Y-73380952D01*
X140330833Y-73419047D01*
X140254642Y-73457142D01*
X140102261Y-73457142D01*
X140026071Y-73419047D01*
X139987976Y-73380952D01*
X139949880Y-73304761D01*
X141168928Y-75120504D02*
X141168928Y-74320504D01*
X140978452Y-74320504D01*
X140864166Y-74358600D01*
X140787976Y-74434790D01*
X140749880Y-74510980D01*
X140711785Y-74663361D01*
X140711785Y-74777647D01*
X140749880Y-74930028D01*
X140787976Y-75006219D01*
X140864166Y-75082409D01*
X140978452Y-75120504D01*
X141168928Y-75120504D01*
X140254642Y-74663361D02*
X140330833Y-74625266D01*
X140368928Y-74587171D01*
X140407023Y-74510980D01*
X140407023Y-74472885D01*
X140368928Y-74396695D01*
X140330833Y-74358600D01*
X140254642Y-74320504D01*
X140102261Y-74320504D01*
X140026071Y-74358600D01*
X139987976Y-74396695D01*
X139949880Y-74472885D01*
X139949880Y-74510980D01*
X139987976Y-74587171D01*
X140026071Y-74625266D01*
X140102261Y-74663361D01*
X140254642Y-74663361D01*
X140330833Y-74701457D01*
X140368928Y-74739552D01*
X140407023Y-74815742D01*
X140407023Y-74968123D01*
X140368928Y-75044314D01*
X140330833Y-75082409D01*
X140254642Y-75120504D01*
X140102261Y-75120504D01*
X140026071Y-75082409D01*
X139987976Y-75044314D01*
X139949880Y-74968123D01*
X139949880Y-74815742D01*
X139987976Y-74739552D01*
X140026071Y-74701457D01*
X140102261Y-74663361D01*
X144873690Y-132235714D02*
X144911785Y-132273809D01*
X145026071Y-132311904D01*
X145102261Y-132311904D01*
X145216547Y-132273809D01*
X145292738Y-132197619D01*
X145330833Y-132121428D01*
X145368928Y-131969047D01*
X145368928Y-131854761D01*
X145330833Y-131702380D01*
X145292738Y-131626190D01*
X145216547Y-131550000D01*
X145102261Y-131511904D01*
X145026071Y-131511904D01*
X144911785Y-131550000D01*
X144873690Y-131588095D01*
X144607023Y-131511904D02*
X144111785Y-131511904D01*
X144378452Y-131816666D01*
X144264166Y-131816666D01*
X144187976Y-131854761D01*
X144149880Y-131892857D01*
X144111785Y-131969047D01*
X144111785Y-132159523D01*
X144149880Y-132235714D01*
X144187976Y-132273809D01*
X144264166Y-132311904D01*
X144492738Y-132311904D01*
X144568928Y-132273809D01*
X144607023Y-132235714D01*
X143616547Y-131511904D02*
X143540357Y-131511904D01*
X143464166Y-131550000D01*
X143426071Y-131588095D01*
X143387976Y-131664285D01*
X143349880Y-131816666D01*
X143349880Y-132007142D01*
X143387976Y-132159523D01*
X143426071Y-132235714D01*
X143464166Y-132273809D01*
X143540357Y-132311904D01*
X143616547Y-132311904D01*
X143692738Y-132273809D01*
X143730833Y-132235714D01*
X143768928Y-132159523D01*
X143807023Y-132007142D01*
X143807023Y-131816666D01*
X143768928Y-131664285D01*
X143730833Y-131588095D01*
X143692738Y-131550000D01*
X143616547Y-131511904D01*
X140923690Y-90835714D02*
X140961785Y-90873809D01*
X141076071Y-90911904D01*
X141152261Y-90911904D01*
X141266547Y-90873809D01*
X141342738Y-90797619D01*
X141380833Y-90721428D01*
X141418928Y-90569047D01*
X141418928Y-90454761D01*
X141380833Y-90302380D01*
X141342738Y-90226190D01*
X141266547Y-90150000D01*
X141152261Y-90111904D01*
X141076071Y-90111904D01*
X140961785Y-90150000D01*
X140923690Y-90188095D01*
X140618928Y-90188095D02*
X140580833Y-90150000D01*
X140504642Y-90111904D01*
X140314166Y-90111904D01*
X140237976Y-90150000D01*
X140199880Y-90188095D01*
X140161785Y-90264285D01*
X140161785Y-90340476D01*
X140199880Y-90454761D01*
X140657023Y-90911904D01*
X140161785Y-90911904D01*
X139704642Y-90454761D02*
X139780833Y-90416666D01*
X139818928Y-90378571D01*
X139857023Y-90302380D01*
X139857023Y-90264285D01*
X139818928Y-90188095D01*
X139780833Y-90150000D01*
X139704642Y-90111904D01*
X139552261Y-90111904D01*
X139476071Y-90150000D01*
X139437976Y-90188095D01*
X139399880Y-90264285D01*
X139399880Y-90302380D01*
X139437976Y-90378571D01*
X139476071Y-90416666D01*
X139552261Y-90454761D01*
X139704642Y-90454761D01*
X139780833Y-90492857D01*
X139818928Y-90530952D01*
X139857023Y-90607142D01*
X139857023Y-90759523D01*
X139818928Y-90835714D01*
X139780833Y-90873809D01*
X139704642Y-90911904D01*
X139552261Y-90911904D01*
X139476071Y-90873809D01*
X139437976Y-90835714D01*
X139399880Y-90759523D01*
X139399880Y-90607142D01*
X139437976Y-90530952D01*
X139476071Y-90492857D01*
X139552261Y-90454761D01*
X148954880Y-78785714D02*
X148992976Y-78823809D01*
X149107261Y-78861904D01*
X149183452Y-78861904D01*
X149297738Y-78823809D01*
X149373928Y-78747619D01*
X149412023Y-78671428D01*
X149450119Y-78519047D01*
X149450119Y-78404761D01*
X149412023Y-78252380D01*
X149373928Y-78176190D01*
X149297738Y-78100000D01*
X149183452Y-78061904D01*
X149107261Y-78061904D01*
X148992976Y-78100000D01*
X148954880Y-78138095D01*
X148650119Y-78138095D02*
X148612023Y-78100000D01*
X148535833Y-78061904D01*
X148345357Y-78061904D01*
X148269166Y-78100000D01*
X148231071Y-78138095D01*
X148192976Y-78214285D01*
X148192976Y-78290476D01*
X148231071Y-78404761D01*
X148688214Y-78861904D01*
X148192976Y-78861904D01*
X147926309Y-78061904D02*
X147431071Y-78061904D01*
X147697738Y-78366666D01*
X147583452Y-78366666D01*
X147507261Y-78404761D01*
X147469166Y-78442857D01*
X147431071Y-78519047D01*
X147431071Y-78709523D01*
X147469166Y-78785714D01*
X147507261Y-78823809D01*
X147583452Y-78861904D01*
X147812023Y-78861904D01*
X147888214Y-78823809D01*
X147926309Y-78785714D01*
X153673690Y-78885714D02*
X153711785Y-78923809D01*
X153826071Y-78961904D01*
X153902261Y-78961904D01*
X154016547Y-78923809D01*
X154092738Y-78847619D01*
X154130833Y-78771428D01*
X154168928Y-78619047D01*
X154168928Y-78504761D01*
X154130833Y-78352380D01*
X154092738Y-78276190D01*
X154016547Y-78200000D01*
X153902261Y-78161904D01*
X153826071Y-78161904D01*
X153711785Y-78200000D01*
X153673690Y-78238095D01*
X152911785Y-78961904D02*
X153368928Y-78961904D01*
X153140357Y-78961904D02*
X153140357Y-78161904D01*
X153216547Y-78276190D01*
X153292738Y-78352380D01*
X153368928Y-78390476D01*
X152645119Y-78161904D02*
X152111785Y-78161904D01*
X152454642Y-78961904D01*
X156373690Y-78885714D02*
X156411785Y-78923809D01*
X156526071Y-78961904D01*
X156602261Y-78961904D01*
X156716547Y-78923809D01*
X156792738Y-78847619D01*
X156830833Y-78771428D01*
X156868928Y-78619047D01*
X156868928Y-78504761D01*
X156830833Y-78352380D01*
X156792738Y-78276190D01*
X156716547Y-78200000D01*
X156602261Y-78161904D01*
X156526071Y-78161904D01*
X156411785Y-78200000D01*
X156373690Y-78238095D01*
X155611785Y-78961904D02*
X156068928Y-78961904D01*
X155840357Y-78961904D02*
X155840357Y-78161904D01*
X155916547Y-78276190D01*
X155992738Y-78352380D01*
X156068928Y-78390476D01*
X154926071Y-78161904D02*
X155078452Y-78161904D01*
X155154642Y-78200000D01*
X155192738Y-78238095D01*
X155268928Y-78352380D01*
X155307023Y-78504761D01*
X155307023Y-78809523D01*
X155268928Y-78885714D01*
X155230833Y-78923809D01*
X155154642Y-78961904D01*
X155002261Y-78961904D01*
X154926071Y-78923809D01*
X154887976Y-78885714D01*
X154849880Y-78809523D01*
X154849880Y-78619047D01*
X154887976Y-78542857D01*
X154926071Y-78504761D01*
X155002261Y-78466666D01*
X155154642Y-78466666D01*
X155230833Y-78504761D01*
X155268928Y-78542857D01*
X155307023Y-78619047D01*
X142173690Y-118385714D02*
X142211785Y-118423809D01*
X142326071Y-118461904D01*
X142402261Y-118461904D01*
X142516547Y-118423809D01*
X142592738Y-118347619D01*
X142630833Y-118271428D01*
X142668928Y-118119047D01*
X142668928Y-118004761D01*
X142630833Y-117852380D01*
X142592738Y-117776190D01*
X142516547Y-117700000D01*
X142402261Y-117661904D01*
X142326071Y-117661904D01*
X142211785Y-117700000D01*
X142173690Y-117738095D01*
X141411785Y-118461904D02*
X141868928Y-118461904D01*
X141640357Y-118461904D02*
X141640357Y-117661904D01*
X141716547Y-117776190D01*
X141792738Y-117852380D01*
X141868928Y-117890476D01*
X140687976Y-117661904D02*
X141068928Y-117661904D01*
X141107023Y-118042857D01*
X141068928Y-118004761D01*
X140992738Y-117966666D01*
X140802261Y-117966666D01*
X140726071Y-118004761D01*
X140687976Y-118042857D01*
X140649880Y-118119047D01*
X140649880Y-118309523D01*
X140687976Y-118385714D01*
X140726071Y-118423809D01*
X140802261Y-118461904D01*
X140992738Y-118461904D01*
X141068928Y-118423809D01*
X141107023Y-118385714D01*
X141673690Y-131335714D02*
X141711785Y-131373809D01*
X141826071Y-131411904D01*
X141902261Y-131411904D01*
X142016547Y-131373809D01*
X142092738Y-131297619D01*
X142130833Y-131221428D01*
X142168928Y-131069047D01*
X142168928Y-130954761D01*
X142130833Y-130802380D01*
X142092738Y-130726190D01*
X142016547Y-130650000D01*
X141902261Y-130611904D01*
X141826071Y-130611904D01*
X141711785Y-130650000D01*
X141673690Y-130688095D01*
X140911785Y-131411904D02*
X141368928Y-131411904D01*
X141140357Y-131411904D02*
X141140357Y-130611904D01*
X141216547Y-130726190D01*
X141292738Y-130802380D01*
X141368928Y-130840476D01*
X140226071Y-130878571D02*
X140226071Y-131411904D01*
X140416547Y-130573809D02*
X140607023Y-131145238D01*
X140111785Y-131145238D01*
X146454880Y-86935714D02*
X146492976Y-86973809D01*
X146607261Y-87011904D01*
X146683452Y-87011904D01*
X146797738Y-86973809D01*
X146873928Y-86897619D01*
X146912023Y-86821428D01*
X146950119Y-86669047D01*
X146950119Y-86554761D01*
X146912023Y-86402380D01*
X146873928Y-86326190D01*
X146797738Y-86250000D01*
X146683452Y-86211904D01*
X146607261Y-86211904D01*
X146492976Y-86250000D01*
X146454880Y-86288095D01*
X145692976Y-87011904D02*
X146150119Y-87011904D01*
X145921547Y-87011904D02*
X145921547Y-86211904D01*
X145997738Y-86326190D01*
X146073928Y-86402380D01*
X146150119Y-86440476D01*
X145426309Y-86211904D02*
X144931071Y-86211904D01*
X145197738Y-86516666D01*
X145083452Y-86516666D01*
X145007261Y-86554761D01*
X144969166Y-86592857D01*
X144931071Y-86669047D01*
X144931071Y-86859523D01*
X144969166Y-86935714D01*
X145007261Y-86973809D01*
X145083452Y-87011904D01*
X145312023Y-87011904D01*
X145388214Y-86973809D01*
X145426309Y-86935714D01*
X148854880Y-84335714D02*
X148892976Y-84373809D01*
X149007261Y-84411904D01*
X149083452Y-84411904D01*
X149197738Y-84373809D01*
X149273928Y-84297619D01*
X149312023Y-84221428D01*
X149350119Y-84069047D01*
X149350119Y-83954761D01*
X149312023Y-83802380D01*
X149273928Y-83726190D01*
X149197738Y-83650000D01*
X149083452Y-83611904D01*
X149007261Y-83611904D01*
X148892976Y-83650000D01*
X148854880Y-83688095D01*
X148092976Y-84411904D02*
X148550119Y-84411904D01*
X148321547Y-84411904D02*
X148321547Y-83611904D01*
X148397738Y-83726190D01*
X148473928Y-83802380D01*
X148550119Y-83840476D01*
X147788214Y-83688095D02*
X147750119Y-83650000D01*
X147673928Y-83611904D01*
X147483452Y-83611904D01*
X147407261Y-83650000D01*
X147369166Y-83688095D01*
X147331071Y-83764285D01*
X147331071Y-83840476D01*
X147369166Y-83954761D01*
X147826309Y-84411904D01*
X147331071Y-84411904D01*
X142253690Y-76885714D02*
X142291785Y-76923809D01*
X142406071Y-76961904D01*
X142482261Y-76961904D01*
X142596547Y-76923809D01*
X142672738Y-76847619D01*
X142710833Y-76771428D01*
X142748928Y-76619047D01*
X142748928Y-76504761D01*
X142710833Y-76352380D01*
X142672738Y-76276190D01*
X142596547Y-76200000D01*
X142482261Y-76161904D01*
X142406071Y-76161904D01*
X142291785Y-76200000D01*
X142253690Y-76238095D01*
X141491785Y-76961904D02*
X141948928Y-76961904D01*
X141720357Y-76961904D02*
X141720357Y-76161904D01*
X141796547Y-76276190D01*
X141872738Y-76352380D01*
X141948928Y-76390476D01*
X140729880Y-76961904D02*
X141187023Y-76961904D01*
X140958452Y-76961904D02*
X140958452Y-76161904D01*
X141034642Y-76276190D01*
X141110833Y-76352380D01*
X141187023Y-76390476D01*
M02*
