M48
; DRILL file {KiCad 5.1.8+dfsg1-1~bpo10+1} date Thu Jan 21 20:32:32 2021
; FORMAT={-:-/ absolute / metric / decimal}
; #@! TF.CreationDate,2021-01-21T20:32:32+01:00
; #@! TF.GenerationSoftware,Kicad,Pcbnew,5.1.8+dfsg1-1~bpo10+1
; #@! TF.FileFunction,Plated,1,2,PTH
FMAT,2
METRIC
T1C0.305
T2C0.350
T3C0.500
T4C0.800
T5C2.800
%
G90
G05
T1
X133.95Y-101.525
X135.509Y-90.678
X136.144Y-78.486
X136.2Y-105.1
X137.0Y-103.1
X137.351Y-87.259
X138.43Y-126.4
X138.55Y-116.9
X138.75Y-95.037
X138.939Y-81.544
X138.939Y-90.116
X139.574Y-93.291
X139.891Y-84.401
X140.1Y-111.25
X140.209Y-93.926
X140.3Y-96.65
X140.844Y-94.561
X140.85Y-98.3
X142.749Y-78.369
X143.0Y-94.85
X143.154Y-130.835
X143.701Y-87.894
X144.019Y-84.56
X144.336Y-81.226
X144.586Y-83.064
X144.654Y-74.559
X144.975Y-117.5
X145.025Y-112.725
X145.075Y-98.525
X145.25Y-132.35
X145.606Y-80.591
X145.8Y-91.35
X145.8Y-92.3
X145.924Y-74.241
X145.924Y-88.846
X146.241Y-73.289
X146.55Y-91.95
X146.876Y-88.846
X147.375Y-105.75
X147.45Y-92.15
X147.6Y-101.6
X147.95Y-97.0
X148.0Y-121.5
X148.464Y-88.529
X148.875Y-94.05
X149.099Y-85.671
X149.416Y-83.131
X149.734Y-77.099
X149.734Y-88.846
X150.051Y-92.974
X150.051Y-93.926
X151.1Y-107.425
X151.321Y-84.401
X151.5Y-98.9
X151.639Y-82.814
X152.05Y-79.95
X152.591Y-87.815
X152.975Y-130.775
X154.1Y-92.1
X154.95Y-92.0
X155.125Y-88.6
X155.9Y-87.6
X156.719Y-82.496
X157.036Y-83.766
X157.5Y-96.7
X157.7Y-126.925
X157.9Y-92.4
X157.989Y-83.766
X158.7Y-107.3
X159.258Y-88.265
X160.211Y-83.449
X160.5Y-116.225
X160.55Y-108.575
X160.8Y-111.8
X161.15Y-102.55
X161.15Y-106.0
X163.95Y-106.0
X164.025Y-102.525
X165.2Y-108.35
X141.881Y-82.264
X142.431Y-82.814
X142.931Y-83.314
X142.981Y-82.264
T2
X136.716Y-97.101
X138.379Y-128.0
X138.4Y-130.05
X138.405Y-132.018
X138.43Y-124.587
X139.649Y-118.95
X140.335Y-120.879
X140.65Y-105.7
X140.65Y-107.8
X142.265Y-126.55
X142.3Y-115.3
X146.3Y-130.6
X146.8Y-124.45
X147.05Y-133.1
X147.7Y-125.35
X147.7Y-127.8
X149.2Y-124.0
X149.6Y-125.5
X149.7Y-131.95
X150.65Y-124.6
X150.686Y-92.339
X151.7Y-119.5
X151.95Y-131.65
X153.75Y-128.15
X155.0Y-119.5
X155.051Y-126.55
X156.8Y-119.5
X158.3Y-120.45
X159.6Y-82.5
X160.65Y-114.95
T3
X141.671Y-68.963
X148.271Y-68.963
T4
X134.001Y-77.504
X134.001Y-79.504
X163.0Y-88.9
X163.0Y-90.9
X163.0Y-92.9
X162.0Y-125.0
X164.0Y-125.0
X161.0Y-134.5
X163.0Y-134.5
X134.001Y-103.504
X134.001Y-105.504
X134.001Y-107.504
X134.001Y-109.504
X134.001Y-83.504
X134.001Y-85.504
X134.001Y-87.504
X134.001Y-89.504
X134.001Y-91.504
X134.001Y-95.504
X134.001Y-97.504
X134.001Y-99.504
X156.45Y-98.25
X158.45Y-98.25
X163.001Y-76.904
X163.001Y-78.904
X163.001Y-80.904
X163.001Y-82.904
X163.001Y-84.904
X163.0Y-128.5
X163.0Y-130.5
X163.0Y-132.5
T5
X161.001Y-71.504
X136.001Y-71.504
X161.001Y-138.504
X135.992Y-138.506
T0
M30
