G04 #@! TF.GenerationSoftware,KiCad,Pcbnew,5.1.8+dfsg1-1~bpo10+1*
G04 #@! TF.CreationDate,2021-01-21T20:32:40+01:00*
G04 #@! TF.ProjectId,easyhive,65617379-6869-4766-952e-6b696361645f,rev?*
G04 #@! TF.SameCoordinates,Original*
G04 #@! TF.FileFunction,Soldermask,Top*
G04 #@! TF.FilePolarity,Negative*
%FSLAX46Y46*%
G04 Gerber Fmt 4.6, Leading zero omitted, Abs format (unit mm)*
G04 Created by KiCad (PCBNEW 5.1.8+dfsg1-1~bpo10+1) date 2021-01-21 20:32:40*
%MOMM*%
%LPD*%
G01*
G04 APERTURE LIST*
%ADD10C,1.602000*%
%ADD11O,1.002000X1.902000*%
%ADD12C,0.610000*%
%ADD13C,5.436000*%
%ADD14C,0.100000*%
G04 APERTURE END LIST*
G36*
G01*
X135635737Y-133592400D02*
X138205863Y-133592400D01*
G75*
G02*
X138471800Y-133858337I0J-265937D01*
G01*
X138471800Y-135028463D01*
G75*
G02*
X138205863Y-135294400I-265937J0D01*
G01*
X135635737Y-135294400D01*
G75*
G02*
X135369800Y-135028463I0J265937D01*
G01*
X135369800Y-133858337D01*
G75*
G02*
X135635737Y-133592400I265937J0D01*
G01*
G37*
G36*
G01*
X135635737Y-110792400D02*
X138205863Y-110792400D01*
G75*
G02*
X138471800Y-111058337I0J-265937D01*
G01*
X138471800Y-112228463D01*
G75*
G02*
X138205863Y-112494400I-265937J0D01*
G01*
X135635737Y-112494400D01*
G75*
G02*
X135369800Y-112228463I0J265937D01*
G01*
X135369800Y-111058337D01*
G75*
G02*
X135635737Y-110792400I265937J0D01*
G01*
G37*
G36*
G01*
X132145300Y-131492400D02*
X137196300Y-131492400D01*
G75*
G02*
X137471800Y-131767900I0J-275500D01*
G01*
X137471800Y-132318900D01*
G75*
G02*
X137196300Y-132594400I-275500J0D01*
G01*
X132145300Y-132594400D01*
G75*
G02*
X131869800Y-132318900I0J275500D01*
G01*
X131869800Y-131767900D01*
G75*
G02*
X132145300Y-131492400I275500J0D01*
G01*
G37*
G36*
G01*
X132145300Y-129492400D02*
X137196300Y-129492400D01*
G75*
G02*
X137471800Y-129767900I0J-275500D01*
G01*
X137471800Y-130318900D01*
G75*
G02*
X137196300Y-130594400I-275500J0D01*
G01*
X132145300Y-130594400D01*
G75*
G02*
X131869800Y-130318900I0J275500D01*
G01*
X131869800Y-129767900D01*
G75*
G02*
X132145300Y-129492400I275500J0D01*
G01*
G37*
G36*
G01*
X132145300Y-127492400D02*
X137196300Y-127492400D01*
G75*
G02*
X137471800Y-127767900I0J-275500D01*
G01*
X137471800Y-128318900D01*
G75*
G02*
X137196300Y-128594400I-275500J0D01*
G01*
X132145300Y-128594400D01*
G75*
G02*
X131869800Y-128318900I0J275500D01*
G01*
X131869800Y-127767900D01*
G75*
G02*
X132145300Y-127492400I275500J0D01*
G01*
G37*
G36*
G01*
X132145300Y-125492400D02*
X137196300Y-125492400D01*
G75*
G02*
X137471800Y-125767900I0J-275500D01*
G01*
X137471800Y-126318900D01*
G75*
G02*
X137196300Y-126594400I-275500J0D01*
G01*
X132145300Y-126594400D01*
G75*
G02*
X131869800Y-126318900I0J275500D01*
G01*
X131869800Y-125767900D01*
G75*
G02*
X132145300Y-125492400I275500J0D01*
G01*
G37*
G36*
G01*
X132145300Y-123492400D02*
X137196300Y-123492400D01*
G75*
G02*
X137471800Y-123767900I0J-275500D01*
G01*
X137471800Y-124318900D01*
G75*
G02*
X137196300Y-124594400I-275500J0D01*
G01*
X132145300Y-124594400D01*
G75*
G02*
X131869800Y-124318900I0J275500D01*
G01*
X131869800Y-123767900D01*
G75*
G02*
X132145300Y-123492400I275500J0D01*
G01*
G37*
G36*
G01*
X132145300Y-121492400D02*
X137196300Y-121492400D01*
G75*
G02*
X137471800Y-121767900I0J-275500D01*
G01*
X137471800Y-122318900D01*
G75*
G02*
X137196300Y-122594400I-275500J0D01*
G01*
X132145300Y-122594400D01*
G75*
G02*
X131869800Y-122318900I0J275500D01*
G01*
X131869800Y-121767900D01*
G75*
G02*
X132145300Y-121492400I275500J0D01*
G01*
G37*
G36*
G01*
X132145300Y-119492400D02*
X137196300Y-119492400D01*
G75*
G02*
X137471800Y-119767900I0J-275500D01*
G01*
X137471800Y-120318900D01*
G75*
G02*
X137196300Y-120594400I-275500J0D01*
G01*
X132145300Y-120594400D01*
G75*
G02*
X131869800Y-120318900I0J275500D01*
G01*
X131869800Y-119767900D01*
G75*
G02*
X132145300Y-119492400I275500J0D01*
G01*
G37*
G36*
G01*
X132145300Y-117492400D02*
X137196300Y-117492400D01*
G75*
G02*
X137471800Y-117767900I0J-275500D01*
G01*
X137471800Y-118318900D01*
G75*
G02*
X137196300Y-118594400I-275500J0D01*
G01*
X132145300Y-118594400D01*
G75*
G02*
X131869800Y-118318900I0J275500D01*
G01*
X131869800Y-117767900D01*
G75*
G02*
X132145300Y-117492400I275500J0D01*
G01*
G37*
G36*
G01*
X132145300Y-115492400D02*
X137196300Y-115492400D01*
G75*
G02*
X137471800Y-115767900I0J-275500D01*
G01*
X137471800Y-116318900D01*
G75*
G02*
X137196300Y-116594400I-275500J0D01*
G01*
X132145300Y-116594400D01*
G75*
G02*
X131869800Y-116318900I0J275500D01*
G01*
X131869800Y-115767900D01*
G75*
G02*
X132145300Y-115492400I275500J0D01*
G01*
G37*
G36*
G01*
X132145300Y-113492400D02*
X137196300Y-113492400D01*
G75*
G02*
X137471800Y-113767900I0J-275500D01*
G01*
X137471800Y-114318900D01*
G75*
G02*
X137196300Y-114594400I-275500J0D01*
G01*
X132145300Y-114594400D01*
G75*
G02*
X131869800Y-114318900I0J275500D01*
G01*
X131869800Y-113767900D01*
G75*
G02*
X132145300Y-113492400I275500J0D01*
G01*
G37*
D10*
X163000000Y-134500000D03*
X161000000Y-134500000D03*
X163000000Y-132500000D03*
X163000000Y-130500000D03*
X163000000Y-128500000D03*
X158450000Y-98250000D03*
X156450000Y-98250000D03*
G36*
G01*
X143272599Y-108439001D02*
X143627399Y-108439001D01*
G75*
G02*
X143678399Y-108490001I0J-51000D01*
G01*
X143678399Y-109951999D01*
G75*
G02*
X143627399Y-110002999I-51000J0D01*
G01*
X143272599Y-110002999D01*
G75*
G02*
X143221599Y-109951999I0J51000D01*
G01*
X143221599Y-108490001D01*
G75*
G02*
X143272599Y-108439001I51000J0D01*
G01*
G37*
G36*
G01*
X142622598Y-108439001D02*
X142977398Y-108439001D01*
G75*
G02*
X143028398Y-108490001I0J-51000D01*
G01*
X143028398Y-109951999D01*
G75*
G02*
X142977398Y-110002999I-51000J0D01*
G01*
X142622598Y-110002999D01*
G75*
G02*
X142571598Y-109951999I0J51000D01*
G01*
X142571598Y-108490001D01*
G75*
G02*
X142622598Y-108439001I51000J0D01*
G01*
G37*
G36*
G01*
X141972599Y-108439001D02*
X142327399Y-108439001D01*
G75*
G02*
X142378399Y-108490001I0J-51000D01*
G01*
X142378399Y-109951999D01*
G75*
G02*
X142327399Y-110002999I-51000J0D01*
G01*
X141972599Y-110002999D01*
G75*
G02*
X141921599Y-109951999I0J51000D01*
G01*
X141921599Y-108490001D01*
G75*
G02*
X141972599Y-108439001I51000J0D01*
G01*
G37*
G36*
G01*
X141322598Y-108439001D02*
X141677398Y-108439001D01*
G75*
G02*
X141728398Y-108490001I0J-51000D01*
G01*
X141728398Y-109951999D01*
G75*
G02*
X141677398Y-110002999I-51000J0D01*
G01*
X141322598Y-110002999D01*
G75*
G02*
X141271598Y-109951999I0J51000D01*
G01*
X141271598Y-108490001D01*
G75*
G02*
X141322598Y-108439001I51000J0D01*
G01*
G37*
G36*
G01*
X140672599Y-108439001D02*
X141027399Y-108439001D01*
G75*
G02*
X141078399Y-108490001I0J-51000D01*
G01*
X141078399Y-109951999D01*
G75*
G02*
X141027399Y-110002999I-51000J0D01*
G01*
X140672599Y-110002999D01*
G75*
G02*
X140621599Y-109951999I0J51000D01*
G01*
X140621599Y-108490001D01*
G75*
G02*
X140672599Y-108439001I51000J0D01*
G01*
G37*
G36*
G01*
X140022601Y-108439001D02*
X140377401Y-108439001D01*
G75*
G02*
X140428401Y-108490001I0J-51000D01*
G01*
X140428401Y-109951999D01*
G75*
G02*
X140377401Y-110002999I-51000J0D01*
G01*
X140022601Y-110002999D01*
G75*
G02*
X139971601Y-109951999I0J51000D01*
G01*
X139971601Y-108490001D01*
G75*
G02*
X140022601Y-108439001I51000J0D01*
G01*
G37*
G36*
G01*
X139372599Y-108439001D02*
X139727399Y-108439001D01*
G75*
G02*
X139778399Y-108490001I0J-51000D01*
G01*
X139778399Y-109951999D01*
G75*
G02*
X139727399Y-110002999I-51000J0D01*
G01*
X139372599Y-110002999D01*
G75*
G02*
X139321599Y-109951999I0J51000D01*
G01*
X139321599Y-108490001D01*
G75*
G02*
X139372599Y-108439001I51000J0D01*
G01*
G37*
G36*
G01*
X138722601Y-108439001D02*
X139077401Y-108439001D01*
G75*
G02*
X139128401Y-108490001I0J-51000D01*
G01*
X139128401Y-109951999D01*
G75*
G02*
X139077401Y-110002999I-51000J0D01*
G01*
X138722601Y-110002999D01*
G75*
G02*
X138671601Y-109951999I0J51000D01*
G01*
X138671601Y-108490001D01*
G75*
G02*
X138722601Y-108439001I51000J0D01*
G01*
G37*
G36*
G01*
X138722601Y-102597001D02*
X139077401Y-102597001D01*
G75*
G02*
X139128401Y-102648001I0J-51000D01*
G01*
X139128401Y-104109999D01*
G75*
G02*
X139077401Y-104160999I-51000J0D01*
G01*
X138722601Y-104160999D01*
G75*
G02*
X138671601Y-104109999I0J51000D01*
G01*
X138671601Y-102648001D01*
G75*
G02*
X138722601Y-102597001I51000J0D01*
G01*
G37*
G36*
G01*
X139372602Y-102597001D02*
X139727402Y-102597001D01*
G75*
G02*
X139778402Y-102648001I0J-51000D01*
G01*
X139778402Y-104109999D01*
G75*
G02*
X139727402Y-104160999I-51000J0D01*
G01*
X139372602Y-104160999D01*
G75*
G02*
X139321602Y-104109999I0J51000D01*
G01*
X139321602Y-102648001D01*
G75*
G02*
X139372602Y-102597001I51000J0D01*
G01*
G37*
G36*
G01*
X140022601Y-102597001D02*
X140377401Y-102597001D01*
G75*
G02*
X140428401Y-102648001I0J-51000D01*
G01*
X140428401Y-104109999D01*
G75*
G02*
X140377401Y-104160999I-51000J0D01*
G01*
X140022601Y-104160999D01*
G75*
G02*
X139971601Y-104109999I0J51000D01*
G01*
X139971601Y-102648001D01*
G75*
G02*
X140022601Y-102597001I51000J0D01*
G01*
G37*
G36*
G01*
X140672602Y-102597001D02*
X141027402Y-102597001D01*
G75*
G02*
X141078402Y-102648001I0J-51000D01*
G01*
X141078402Y-104109999D01*
G75*
G02*
X141027402Y-104160999I-51000J0D01*
G01*
X140672602Y-104160999D01*
G75*
G02*
X140621602Y-104109999I0J51000D01*
G01*
X140621602Y-102648001D01*
G75*
G02*
X140672602Y-102597001I51000J0D01*
G01*
G37*
G36*
G01*
X141322601Y-102597001D02*
X141677401Y-102597001D01*
G75*
G02*
X141728401Y-102648001I0J-51000D01*
G01*
X141728401Y-104109999D01*
G75*
G02*
X141677401Y-104160999I-51000J0D01*
G01*
X141322601Y-104160999D01*
G75*
G02*
X141271601Y-104109999I0J51000D01*
G01*
X141271601Y-102648001D01*
G75*
G02*
X141322601Y-102597001I51000J0D01*
G01*
G37*
G36*
G01*
X141972599Y-102597001D02*
X142327399Y-102597001D01*
G75*
G02*
X142378399Y-102648001I0J-51000D01*
G01*
X142378399Y-104109999D01*
G75*
G02*
X142327399Y-104160999I-51000J0D01*
G01*
X141972599Y-104160999D01*
G75*
G02*
X141921599Y-104109999I0J51000D01*
G01*
X141921599Y-102648001D01*
G75*
G02*
X141972599Y-102597001I51000J0D01*
G01*
G37*
G36*
G01*
X142622601Y-102597001D02*
X142977401Y-102597001D01*
G75*
G02*
X143028401Y-102648001I0J-51000D01*
G01*
X143028401Y-104109999D01*
G75*
G02*
X142977401Y-104160999I-51000J0D01*
G01*
X142622601Y-104160999D01*
G75*
G02*
X142571601Y-104109999I0J51000D01*
G01*
X142571601Y-102648001D01*
G75*
G02*
X142622601Y-102597001I51000J0D01*
G01*
G37*
G36*
G01*
X143272599Y-102597001D02*
X143627399Y-102597001D01*
G75*
G02*
X143678399Y-102648001I0J-51000D01*
G01*
X143678399Y-104109999D01*
G75*
G02*
X143627399Y-104160999I-51000J0D01*
G01*
X143272599Y-104160999D01*
G75*
G02*
X143221599Y-104109999I0J51000D01*
G01*
X143221599Y-102648001D01*
G75*
G02*
X143272599Y-102597001I51000J0D01*
G01*
G37*
G36*
G01*
X152649000Y-109850000D02*
X152649000Y-108850000D01*
G75*
G02*
X152700000Y-108799000I51000J0D01*
G01*
X153700000Y-108799000D01*
G75*
G02*
X153751000Y-108850000I0J-51000D01*
G01*
X153751000Y-109850000D01*
G75*
G02*
X153700000Y-109901000I-51000J0D01*
G01*
X152700000Y-109901000D01*
G75*
G02*
X152649000Y-109850000I0J51000D01*
G01*
G37*
G36*
G01*
X154449000Y-109850000D02*
X154449000Y-108850000D01*
G75*
G02*
X154500000Y-108799000I51000J0D01*
G01*
X155500000Y-108799000D01*
G75*
G02*
X155551000Y-108850000I0J-51000D01*
G01*
X155551000Y-109850000D01*
G75*
G02*
X155500000Y-109901000I-51000J0D01*
G01*
X154500000Y-109901000D01*
G75*
G02*
X154449000Y-109850000I0J51000D01*
G01*
G37*
G36*
G01*
X156249000Y-109850000D02*
X156249000Y-108850000D01*
G75*
G02*
X156300000Y-108799000I51000J0D01*
G01*
X157300000Y-108799000D01*
G75*
G02*
X157351000Y-108850000I0J-51000D01*
G01*
X157351000Y-109850000D01*
G75*
G02*
X157300000Y-109901000I-51000J0D01*
G01*
X156300000Y-109901000D01*
G75*
G02*
X156249000Y-109850000I0J51000D01*
G01*
G37*
G36*
G01*
X158049000Y-111650000D02*
X158049000Y-110650000D01*
G75*
G02*
X158100000Y-110599000I51000J0D01*
G01*
X159100000Y-110599000D01*
G75*
G02*
X159151000Y-110650000I0J-51000D01*
G01*
X159151000Y-111650000D01*
G75*
G02*
X159100000Y-111701000I-51000J0D01*
G01*
X158100000Y-111701000D01*
G75*
G02*
X158049000Y-111650000I0J51000D01*
G01*
G37*
G36*
G01*
X158049000Y-113450000D02*
X158049000Y-112450000D01*
G75*
G02*
X158100000Y-112399000I51000J0D01*
G01*
X159100000Y-112399000D01*
G75*
G02*
X159151000Y-112450000I0J-51000D01*
G01*
X159151000Y-113450000D01*
G75*
G02*
X159100000Y-113501000I-51000J0D01*
G01*
X158100000Y-113501000D01*
G75*
G02*
X158049000Y-113450000I0J51000D01*
G01*
G37*
G36*
G01*
X158049000Y-115250000D02*
X158049000Y-114250000D01*
G75*
G02*
X158100000Y-114199000I51000J0D01*
G01*
X159100000Y-114199000D01*
G75*
G02*
X159151000Y-114250000I0J-51000D01*
G01*
X159151000Y-115250000D01*
G75*
G02*
X159100000Y-115301000I-51000J0D01*
G01*
X158100000Y-115301000D01*
G75*
G02*
X158049000Y-115250000I0J51000D01*
G01*
G37*
G36*
G01*
X158049000Y-117050000D02*
X158049000Y-116050000D01*
G75*
G02*
X158100000Y-115999000I51000J0D01*
G01*
X159100000Y-115999000D01*
G75*
G02*
X159151000Y-116050000I0J-51000D01*
G01*
X159151000Y-117050000D01*
G75*
G02*
X159100000Y-117101000I-51000J0D01*
G01*
X158100000Y-117101000D01*
G75*
G02*
X158049000Y-117050000I0J51000D01*
G01*
G37*
G36*
G01*
X156249000Y-118850000D02*
X156249000Y-117850000D01*
G75*
G02*
X156300000Y-117799000I51000J0D01*
G01*
X157300000Y-117799000D01*
G75*
G02*
X157351000Y-117850000I0J-51000D01*
G01*
X157351000Y-118850000D01*
G75*
G02*
X157300000Y-118901000I-51000J0D01*
G01*
X156300000Y-118901000D01*
G75*
G02*
X156249000Y-118850000I0J51000D01*
G01*
G37*
G36*
G01*
X154449000Y-118850000D02*
X154449000Y-117850000D01*
G75*
G02*
X154500000Y-117799000I51000J0D01*
G01*
X155500000Y-117799000D01*
G75*
G02*
X155551000Y-117850000I0J-51000D01*
G01*
X155551000Y-118850000D01*
G75*
G02*
X155500000Y-118901000I-51000J0D01*
G01*
X154500000Y-118901000D01*
G75*
G02*
X154449000Y-118850000I0J51000D01*
G01*
G37*
G36*
G01*
X152649000Y-118850000D02*
X152649000Y-117850000D01*
G75*
G02*
X152700000Y-117799000I51000J0D01*
G01*
X153700000Y-117799000D01*
G75*
G02*
X153751000Y-117850000I0J-51000D01*
G01*
X153751000Y-118850000D01*
G75*
G02*
X153700000Y-118901000I-51000J0D01*
G01*
X152700000Y-118901000D01*
G75*
G02*
X152649000Y-118850000I0J51000D01*
G01*
G37*
G36*
G01*
X150849000Y-117050000D02*
X150849000Y-116050000D01*
G75*
G02*
X150900000Y-115999000I51000J0D01*
G01*
X151900000Y-115999000D01*
G75*
G02*
X151951000Y-116050000I0J-51000D01*
G01*
X151951000Y-117050000D01*
G75*
G02*
X151900000Y-117101000I-51000J0D01*
G01*
X150900000Y-117101000D01*
G75*
G02*
X150849000Y-117050000I0J51000D01*
G01*
G37*
G36*
G01*
X150849000Y-115250000D02*
X150849000Y-114250000D01*
G75*
G02*
X150900000Y-114199000I51000J0D01*
G01*
X151900000Y-114199000D01*
G75*
G02*
X151951000Y-114250000I0J-51000D01*
G01*
X151951000Y-115250000D01*
G75*
G02*
X151900000Y-115301000I-51000J0D01*
G01*
X150900000Y-115301000D01*
G75*
G02*
X150849000Y-115250000I0J51000D01*
G01*
G37*
G36*
G01*
X150849000Y-113450000D02*
X150849000Y-112450000D01*
G75*
G02*
X150900000Y-112399000I51000J0D01*
G01*
X151900000Y-112399000D01*
G75*
G02*
X151951000Y-112450000I0J-51000D01*
G01*
X151951000Y-113450000D01*
G75*
G02*
X151900000Y-113501000I-51000J0D01*
G01*
X150900000Y-113501000D01*
G75*
G02*
X150849000Y-113450000I0J51000D01*
G01*
G37*
G36*
G01*
X150849000Y-111650000D02*
X150849000Y-110650000D01*
G75*
G02*
X150900000Y-110599000I51000J0D01*
G01*
X151900000Y-110599000D01*
G75*
G02*
X151951000Y-110650000I0J-51000D01*
G01*
X151951000Y-111650000D01*
G75*
G02*
X151900000Y-111701000I-51000J0D01*
G01*
X150900000Y-111701000D01*
G75*
G02*
X150849000Y-111650000I0J51000D01*
G01*
G37*
G36*
G01*
X150399500Y-103949000D02*
X150800500Y-103949000D01*
G75*
G02*
X151001000Y-104149500I0J-200500D01*
G01*
X151001000Y-106350500D01*
G75*
G02*
X150800500Y-106551000I-200500J0D01*
G01*
X150399500Y-106551000D01*
G75*
G02*
X150199000Y-106350500I0J200500D01*
G01*
X150199000Y-104149500D01*
G75*
G02*
X150399500Y-103949000I200500J0D01*
G01*
G37*
G36*
G01*
X151499500Y-103949000D02*
X151900500Y-103949000D01*
G75*
G02*
X152101000Y-104149500I0J-200500D01*
G01*
X152101000Y-106350500D01*
G75*
G02*
X151900500Y-106551000I-200500J0D01*
G01*
X151499500Y-106551000D01*
G75*
G02*
X151299000Y-106350500I0J200500D01*
G01*
X151299000Y-104149500D01*
G75*
G02*
X151499500Y-103949000I200500J0D01*
G01*
G37*
G36*
G01*
X152599500Y-103949000D02*
X153000500Y-103949000D01*
G75*
G02*
X153201000Y-104149500I0J-200500D01*
G01*
X153201000Y-106350500D01*
G75*
G02*
X153000500Y-106551000I-200500J0D01*
G01*
X152599500Y-106551000D01*
G75*
G02*
X152399000Y-106350500I0J200500D01*
G01*
X152399000Y-104149500D01*
G75*
G02*
X152599500Y-103949000I200500J0D01*
G01*
G37*
G36*
G01*
X153699500Y-103949000D02*
X154100500Y-103949000D01*
G75*
G02*
X154301000Y-104149500I0J-200500D01*
G01*
X154301000Y-106350500D01*
G75*
G02*
X154100500Y-106551000I-200500J0D01*
G01*
X153699500Y-106551000D01*
G75*
G02*
X153499000Y-106350500I0J200500D01*
G01*
X153499000Y-104149500D01*
G75*
G02*
X153699500Y-103949000I200500J0D01*
G01*
G37*
G36*
G01*
X154799500Y-103949000D02*
X155200500Y-103949000D01*
G75*
G02*
X155401000Y-104149500I0J-200500D01*
G01*
X155401000Y-106350500D01*
G75*
G02*
X155200500Y-106551000I-200500J0D01*
G01*
X154799500Y-106551000D01*
G75*
G02*
X154599000Y-106350500I0J200500D01*
G01*
X154599000Y-104149500D01*
G75*
G02*
X154799500Y-103949000I200500J0D01*
G01*
G37*
G36*
G01*
X155899500Y-103949000D02*
X156300500Y-103949000D01*
G75*
G02*
X156501000Y-104149500I0J-200500D01*
G01*
X156501000Y-106350500D01*
G75*
G02*
X156300500Y-106551000I-200500J0D01*
G01*
X155899500Y-106551000D01*
G75*
G02*
X155699000Y-106350500I0J200500D01*
G01*
X155699000Y-104149500D01*
G75*
G02*
X155899500Y-103949000I200500J0D01*
G01*
G37*
G36*
G01*
X156999500Y-103949000D02*
X157400500Y-103949000D01*
G75*
G02*
X157601000Y-104149500I0J-200500D01*
G01*
X157601000Y-106350500D01*
G75*
G02*
X157400500Y-106551000I-200500J0D01*
G01*
X156999500Y-106551000D01*
G75*
G02*
X156799000Y-106350500I0J200500D01*
G01*
X156799000Y-104149500D01*
G75*
G02*
X156999500Y-103949000I200500J0D01*
G01*
G37*
G36*
G01*
X158099500Y-103949000D02*
X158500500Y-103949000D01*
G75*
G02*
X158701000Y-104149500I0J-200500D01*
G01*
X158701000Y-106350500D01*
G75*
G02*
X158500500Y-106551000I-200500J0D01*
G01*
X158099500Y-106551000D01*
G75*
G02*
X157899000Y-106350500I0J200500D01*
G01*
X157899000Y-104149500D01*
G75*
G02*
X158099500Y-103949000I200500J0D01*
G01*
G37*
G36*
G01*
X159199500Y-103949000D02*
X159600500Y-103949000D01*
G75*
G02*
X159801000Y-104149500I0J-200500D01*
G01*
X159801000Y-106350500D01*
G75*
G02*
X159600500Y-106551000I-200500J0D01*
G01*
X159199500Y-106551000D01*
G75*
G02*
X158999000Y-106350500I0J200500D01*
G01*
X158999000Y-104149500D01*
G75*
G02*
X159199500Y-103949000I200500J0D01*
G01*
G37*
G36*
G01*
X161349000Y-107450500D02*
X161349000Y-107049500D01*
G75*
G02*
X161549500Y-106849000I200500J0D01*
G01*
X163750500Y-106849000D01*
G75*
G02*
X163951000Y-107049500I0J-200500D01*
G01*
X163951000Y-107450500D01*
G75*
G02*
X163750500Y-107651000I-200500J0D01*
G01*
X161549500Y-107651000D01*
G75*
G02*
X161349000Y-107450500I0J200500D01*
G01*
G37*
G36*
G01*
X161349000Y-108550500D02*
X161349000Y-108149500D01*
G75*
G02*
X161549500Y-107949000I200500J0D01*
G01*
X163750500Y-107949000D01*
G75*
G02*
X163951000Y-108149500I0J-200500D01*
G01*
X163951000Y-108550500D01*
G75*
G02*
X163750500Y-108751000I-200500J0D01*
G01*
X161549500Y-108751000D01*
G75*
G02*
X161349000Y-108550500I0J200500D01*
G01*
G37*
G36*
G01*
X161349000Y-109650500D02*
X161349000Y-109249500D01*
G75*
G02*
X161549500Y-109049000I200500J0D01*
G01*
X163750500Y-109049000D01*
G75*
G02*
X163951000Y-109249500I0J-200500D01*
G01*
X163951000Y-109650500D01*
G75*
G02*
X163750500Y-109851000I-200500J0D01*
G01*
X161549500Y-109851000D01*
G75*
G02*
X161349000Y-109650500I0J200500D01*
G01*
G37*
G36*
G01*
X161349000Y-110750500D02*
X161349000Y-110349500D01*
G75*
G02*
X161549500Y-110149000I200500J0D01*
G01*
X163750500Y-110149000D01*
G75*
G02*
X163951000Y-110349500I0J-200500D01*
G01*
X163951000Y-110750500D01*
G75*
G02*
X163750500Y-110951000I-200500J0D01*
G01*
X161549500Y-110951000D01*
G75*
G02*
X161349000Y-110750500I0J200500D01*
G01*
G37*
G36*
G01*
X161349000Y-111850500D02*
X161349000Y-111449500D01*
G75*
G02*
X161549500Y-111249000I200500J0D01*
G01*
X163750500Y-111249000D01*
G75*
G02*
X163951000Y-111449500I0J-200500D01*
G01*
X163951000Y-111850500D01*
G75*
G02*
X163750500Y-112051000I-200500J0D01*
G01*
X161549500Y-112051000D01*
G75*
G02*
X161349000Y-111850500I0J200500D01*
G01*
G37*
G36*
G01*
X161349000Y-112950500D02*
X161349000Y-112549500D01*
G75*
G02*
X161549500Y-112349000I200500J0D01*
G01*
X163750500Y-112349000D01*
G75*
G02*
X163951000Y-112549500I0J-200500D01*
G01*
X163951000Y-112950500D01*
G75*
G02*
X163750500Y-113151000I-200500J0D01*
G01*
X161549500Y-113151000D01*
G75*
G02*
X161349000Y-112950500I0J200500D01*
G01*
G37*
G36*
G01*
X161349000Y-114050500D02*
X161349000Y-113649500D01*
G75*
G02*
X161549500Y-113449000I200500J0D01*
G01*
X163750500Y-113449000D01*
G75*
G02*
X163951000Y-113649500I0J-200500D01*
G01*
X163951000Y-114050500D01*
G75*
G02*
X163750500Y-114251000I-200500J0D01*
G01*
X161549500Y-114251000D01*
G75*
G02*
X161349000Y-114050500I0J200500D01*
G01*
G37*
G36*
G01*
X161349000Y-115150500D02*
X161349000Y-114749500D01*
G75*
G02*
X161549500Y-114549000I200500J0D01*
G01*
X163750500Y-114549000D01*
G75*
G02*
X163951000Y-114749500I0J-200500D01*
G01*
X163951000Y-115150500D01*
G75*
G02*
X163750500Y-115351000I-200500J0D01*
G01*
X161549500Y-115351000D01*
G75*
G02*
X161349000Y-115150500I0J200500D01*
G01*
G37*
G36*
G01*
X161349000Y-116250500D02*
X161349000Y-115849500D01*
G75*
G02*
X161549500Y-115649000I200500J0D01*
G01*
X163750500Y-115649000D01*
G75*
G02*
X163951000Y-115849500I0J-200500D01*
G01*
X163951000Y-116250500D01*
G75*
G02*
X163750500Y-116451000I-200500J0D01*
G01*
X161549500Y-116451000D01*
G75*
G02*
X161349000Y-116250500I0J200500D01*
G01*
G37*
G36*
G01*
X161349000Y-117350500D02*
X161349000Y-116949500D01*
G75*
G02*
X161549500Y-116749000I200500J0D01*
G01*
X163750500Y-116749000D01*
G75*
G02*
X163951000Y-116949500I0J-200500D01*
G01*
X163951000Y-117350500D01*
G75*
G02*
X163750500Y-117551000I-200500J0D01*
G01*
X161549500Y-117551000D01*
G75*
G02*
X161349000Y-117350500I0J200500D01*
G01*
G37*
G36*
G01*
X161349000Y-118450500D02*
X161349000Y-118049500D01*
G75*
G02*
X161549500Y-117849000I200500J0D01*
G01*
X163750500Y-117849000D01*
G75*
G02*
X163951000Y-118049500I0J-200500D01*
G01*
X163951000Y-118450500D01*
G75*
G02*
X163750500Y-118651000I-200500J0D01*
G01*
X161549500Y-118651000D01*
G75*
G02*
X161349000Y-118450500I0J200500D01*
G01*
G37*
G36*
G01*
X161349000Y-119550500D02*
X161349000Y-119149500D01*
G75*
G02*
X161549500Y-118949000I200500J0D01*
G01*
X163750500Y-118949000D01*
G75*
G02*
X163951000Y-119149500I0J-200500D01*
G01*
X163951000Y-119550500D01*
G75*
G02*
X163750500Y-119751000I-200500J0D01*
G01*
X161549500Y-119751000D01*
G75*
G02*
X161349000Y-119550500I0J200500D01*
G01*
G37*
G36*
G01*
X161349000Y-120650500D02*
X161349000Y-120249500D01*
G75*
G02*
X161549500Y-120049000I200500J0D01*
G01*
X163750500Y-120049000D01*
G75*
G02*
X163951000Y-120249500I0J-200500D01*
G01*
X163951000Y-120650500D01*
G75*
G02*
X163750500Y-120851000I-200500J0D01*
G01*
X161549500Y-120851000D01*
G75*
G02*
X161349000Y-120650500I0J200500D01*
G01*
G37*
G36*
G01*
X159600500Y-123751000D02*
X159199500Y-123751000D01*
G75*
G02*
X158999000Y-123550500I0J200500D01*
G01*
X158999000Y-121349500D01*
G75*
G02*
X159199500Y-121149000I200500J0D01*
G01*
X159600500Y-121149000D01*
G75*
G02*
X159801000Y-121349500I0J-200500D01*
G01*
X159801000Y-123550500D01*
G75*
G02*
X159600500Y-123751000I-200500J0D01*
G01*
G37*
G36*
G01*
X158500500Y-123751000D02*
X158099500Y-123751000D01*
G75*
G02*
X157899000Y-123550500I0J200500D01*
G01*
X157899000Y-121349500D01*
G75*
G02*
X158099500Y-121149000I200500J0D01*
G01*
X158500500Y-121149000D01*
G75*
G02*
X158701000Y-121349500I0J-200500D01*
G01*
X158701000Y-123550500D01*
G75*
G02*
X158500500Y-123751000I-200500J0D01*
G01*
G37*
G36*
G01*
X157400500Y-123751000D02*
X156999500Y-123751000D01*
G75*
G02*
X156799000Y-123550500I0J200500D01*
G01*
X156799000Y-121349500D01*
G75*
G02*
X156999500Y-121149000I200500J0D01*
G01*
X157400500Y-121149000D01*
G75*
G02*
X157601000Y-121349500I0J-200500D01*
G01*
X157601000Y-123550500D01*
G75*
G02*
X157400500Y-123751000I-200500J0D01*
G01*
G37*
G36*
G01*
X156300500Y-123751000D02*
X155899500Y-123751000D01*
G75*
G02*
X155699000Y-123550500I0J200500D01*
G01*
X155699000Y-121349500D01*
G75*
G02*
X155899500Y-121149000I200500J0D01*
G01*
X156300500Y-121149000D01*
G75*
G02*
X156501000Y-121349500I0J-200500D01*
G01*
X156501000Y-123550500D01*
G75*
G02*
X156300500Y-123751000I-200500J0D01*
G01*
G37*
G36*
G01*
X155200500Y-123751000D02*
X154799500Y-123751000D01*
G75*
G02*
X154599000Y-123550500I0J200500D01*
G01*
X154599000Y-121349500D01*
G75*
G02*
X154799500Y-121149000I200500J0D01*
G01*
X155200500Y-121149000D01*
G75*
G02*
X155401000Y-121349500I0J-200500D01*
G01*
X155401000Y-123550500D01*
G75*
G02*
X155200500Y-123751000I-200500J0D01*
G01*
G37*
G36*
G01*
X154100500Y-123751000D02*
X153699500Y-123751000D01*
G75*
G02*
X153499000Y-123550500I0J200500D01*
G01*
X153499000Y-121349500D01*
G75*
G02*
X153699500Y-121149000I200500J0D01*
G01*
X154100500Y-121149000D01*
G75*
G02*
X154301000Y-121349500I0J-200500D01*
G01*
X154301000Y-123550500D01*
G75*
G02*
X154100500Y-123751000I-200500J0D01*
G01*
G37*
G36*
G01*
X153000500Y-123751000D02*
X152599500Y-123751000D01*
G75*
G02*
X152399000Y-123550500I0J200500D01*
G01*
X152399000Y-121349500D01*
G75*
G02*
X152599500Y-121149000I200500J0D01*
G01*
X153000500Y-121149000D01*
G75*
G02*
X153201000Y-121349500I0J-200500D01*
G01*
X153201000Y-123550500D01*
G75*
G02*
X153000500Y-123751000I-200500J0D01*
G01*
G37*
G36*
G01*
X151900500Y-123751000D02*
X151499500Y-123751000D01*
G75*
G02*
X151299000Y-123550500I0J200500D01*
G01*
X151299000Y-121349500D01*
G75*
G02*
X151499500Y-121149000I200500J0D01*
G01*
X151900500Y-121149000D01*
G75*
G02*
X152101000Y-121349500I0J-200500D01*
G01*
X152101000Y-123550500D01*
G75*
G02*
X151900500Y-123751000I-200500J0D01*
G01*
G37*
G36*
G01*
X150800500Y-123751000D02*
X150399500Y-123751000D01*
G75*
G02*
X150199000Y-123550500I0J200500D01*
G01*
X150199000Y-121349500D01*
G75*
G02*
X150399500Y-121149000I200500J0D01*
G01*
X150800500Y-121149000D01*
G75*
G02*
X151001000Y-121349500I0J-200500D01*
G01*
X151001000Y-123550500D01*
G75*
G02*
X150800500Y-123751000I-200500J0D01*
G01*
G37*
G36*
G01*
X146049000Y-120650500D02*
X146049000Y-120249500D01*
G75*
G02*
X146249500Y-120049000I200500J0D01*
G01*
X148450500Y-120049000D01*
G75*
G02*
X148651000Y-120249500I0J-200500D01*
G01*
X148651000Y-120650500D01*
G75*
G02*
X148450500Y-120851000I-200500J0D01*
G01*
X146249500Y-120851000D01*
G75*
G02*
X146049000Y-120650500I0J200500D01*
G01*
G37*
G36*
G01*
X146049000Y-119550500D02*
X146049000Y-119149500D01*
G75*
G02*
X146249500Y-118949000I200500J0D01*
G01*
X148450500Y-118949000D01*
G75*
G02*
X148651000Y-119149500I0J-200500D01*
G01*
X148651000Y-119550500D01*
G75*
G02*
X148450500Y-119751000I-200500J0D01*
G01*
X146249500Y-119751000D01*
G75*
G02*
X146049000Y-119550500I0J200500D01*
G01*
G37*
G36*
G01*
X146049000Y-118450500D02*
X146049000Y-118049500D01*
G75*
G02*
X146249500Y-117849000I200500J0D01*
G01*
X148450500Y-117849000D01*
G75*
G02*
X148651000Y-118049500I0J-200500D01*
G01*
X148651000Y-118450500D01*
G75*
G02*
X148450500Y-118651000I-200500J0D01*
G01*
X146249500Y-118651000D01*
G75*
G02*
X146049000Y-118450500I0J200500D01*
G01*
G37*
G36*
G01*
X146049000Y-117350500D02*
X146049000Y-116949500D01*
G75*
G02*
X146249500Y-116749000I200500J0D01*
G01*
X148450500Y-116749000D01*
G75*
G02*
X148651000Y-116949500I0J-200500D01*
G01*
X148651000Y-117350500D01*
G75*
G02*
X148450500Y-117551000I-200500J0D01*
G01*
X146249500Y-117551000D01*
G75*
G02*
X146049000Y-117350500I0J200500D01*
G01*
G37*
G36*
G01*
X146049000Y-116250500D02*
X146049000Y-115849500D01*
G75*
G02*
X146249500Y-115649000I200500J0D01*
G01*
X148450500Y-115649000D01*
G75*
G02*
X148651000Y-115849500I0J-200500D01*
G01*
X148651000Y-116250500D01*
G75*
G02*
X148450500Y-116451000I-200500J0D01*
G01*
X146249500Y-116451000D01*
G75*
G02*
X146049000Y-116250500I0J200500D01*
G01*
G37*
G36*
G01*
X146049000Y-115150500D02*
X146049000Y-114749500D01*
G75*
G02*
X146249500Y-114549000I200500J0D01*
G01*
X148450500Y-114549000D01*
G75*
G02*
X148651000Y-114749500I0J-200500D01*
G01*
X148651000Y-115150500D01*
G75*
G02*
X148450500Y-115351000I-200500J0D01*
G01*
X146249500Y-115351000D01*
G75*
G02*
X146049000Y-115150500I0J200500D01*
G01*
G37*
G36*
G01*
X146049000Y-114050500D02*
X146049000Y-113649500D01*
G75*
G02*
X146249500Y-113449000I200500J0D01*
G01*
X148450500Y-113449000D01*
G75*
G02*
X148651000Y-113649500I0J-200500D01*
G01*
X148651000Y-114050500D01*
G75*
G02*
X148450500Y-114251000I-200500J0D01*
G01*
X146249500Y-114251000D01*
G75*
G02*
X146049000Y-114050500I0J200500D01*
G01*
G37*
G36*
G01*
X146049000Y-112950500D02*
X146049000Y-112549500D01*
G75*
G02*
X146249500Y-112349000I200500J0D01*
G01*
X148450500Y-112349000D01*
G75*
G02*
X148651000Y-112549500I0J-200500D01*
G01*
X148651000Y-112950500D01*
G75*
G02*
X148450500Y-113151000I-200500J0D01*
G01*
X146249500Y-113151000D01*
G75*
G02*
X146049000Y-112950500I0J200500D01*
G01*
G37*
G36*
G01*
X146049000Y-111850500D02*
X146049000Y-111449500D01*
G75*
G02*
X146249500Y-111249000I200500J0D01*
G01*
X148450500Y-111249000D01*
G75*
G02*
X148651000Y-111449500I0J-200500D01*
G01*
X148651000Y-111850500D01*
G75*
G02*
X148450500Y-112051000I-200500J0D01*
G01*
X146249500Y-112051000D01*
G75*
G02*
X146049000Y-111850500I0J200500D01*
G01*
G37*
G36*
G01*
X146049000Y-110750500D02*
X146049000Y-110349500D01*
G75*
G02*
X146249500Y-110149000I200500J0D01*
G01*
X148450500Y-110149000D01*
G75*
G02*
X148651000Y-110349500I0J-200500D01*
G01*
X148651000Y-110750500D01*
G75*
G02*
X148450500Y-110951000I-200500J0D01*
G01*
X146249500Y-110951000D01*
G75*
G02*
X146049000Y-110750500I0J200500D01*
G01*
G37*
G36*
G01*
X146049000Y-109650500D02*
X146049000Y-109249500D01*
G75*
G02*
X146249500Y-109049000I200500J0D01*
G01*
X148450500Y-109049000D01*
G75*
G02*
X148651000Y-109249500I0J-200500D01*
G01*
X148651000Y-109650500D01*
G75*
G02*
X148450500Y-109851000I-200500J0D01*
G01*
X146249500Y-109851000D01*
G75*
G02*
X146049000Y-109650500I0J200500D01*
G01*
G37*
G36*
G01*
X146049000Y-108550500D02*
X146049000Y-108149500D01*
G75*
G02*
X146249500Y-107949000I200500J0D01*
G01*
X148450500Y-107949000D01*
G75*
G02*
X148651000Y-108149500I0J-200500D01*
G01*
X148651000Y-108550500D01*
G75*
G02*
X148450500Y-108751000I-200500J0D01*
G01*
X146249500Y-108751000D01*
G75*
G02*
X146049000Y-108550500I0J200500D01*
G01*
G37*
G36*
G01*
X146049000Y-107450500D02*
X146049000Y-107049500D01*
G75*
G02*
X146249500Y-106849000I200500J0D01*
G01*
X148450500Y-106849000D01*
G75*
G02*
X148651000Y-107049500I0J-200500D01*
G01*
X148651000Y-107450500D01*
G75*
G02*
X148450500Y-107651000I-200500J0D01*
G01*
X146249500Y-107651000D01*
G75*
G02*
X146049000Y-107450500I0J200500D01*
G01*
G37*
X162000000Y-125000000D03*
X164000000Y-125000000D03*
G36*
G01*
X153001000Y-101939100D02*
X153001000Y-102660900D01*
G75*
G02*
X152960900Y-102701000I-40100J0D01*
G01*
X152039100Y-102701000D01*
G75*
G02*
X151999000Y-102660900I0J40100D01*
G01*
X151999000Y-101939100D01*
G75*
G02*
X152039100Y-101899000I40100J0D01*
G01*
X152960900Y-101899000D01*
G75*
G02*
X153001000Y-101939100I0J-40100D01*
G01*
G37*
G36*
G01*
X154301000Y-101939100D02*
X154301000Y-102660900D01*
G75*
G02*
X154260900Y-102701000I-40100J0D01*
G01*
X153339100Y-102701000D01*
G75*
G02*
X153299000Y-102660900I0J40100D01*
G01*
X153299000Y-101939100D01*
G75*
G02*
X153339100Y-101899000I40100J0D01*
G01*
X154260900Y-101899000D01*
G75*
G02*
X154301000Y-101939100I0J-40100D01*
G01*
G37*
G36*
G01*
X155179200Y-130574000D02*
X155820800Y-130574000D01*
G75*
G02*
X155901000Y-130654200I0J-80200D01*
G01*
X155901000Y-131345800D01*
G75*
G02*
X155820800Y-131426000I-80200J0D01*
G01*
X155179200Y-131426000D01*
G75*
G02*
X155099000Y-131345800I0J80200D01*
G01*
X155099000Y-130654200D01*
G75*
G02*
X155179200Y-130574000I80200J0D01*
G01*
G37*
G36*
G01*
X156179200Y-130574000D02*
X156820800Y-130574000D01*
G75*
G02*
X156901000Y-130654200I0J-80200D01*
G01*
X156901000Y-131345800D01*
G75*
G02*
X156820800Y-131426000I-80200J0D01*
G01*
X156179200Y-131426000D01*
G75*
G02*
X156099000Y-131345800I0J80200D01*
G01*
X156099000Y-130654200D01*
G75*
G02*
X156179200Y-130574000I80200J0D01*
G01*
G37*
G36*
G01*
X156079000Y-127143499D02*
X156079000Y-127651499D01*
G75*
G02*
X156028000Y-127702499I-51000J0D01*
G01*
X155672002Y-127702499D01*
G75*
G02*
X155621002Y-127651499I0J51000D01*
G01*
X155621002Y-127143499D01*
G75*
G02*
X155672002Y-127092499I51000J0D01*
G01*
X156028000Y-127092499D01*
G75*
G02*
X156079000Y-127143499I0J-51000D01*
G01*
G37*
G36*
G01*
X157079001Y-127143499D02*
X157079001Y-127651499D01*
G75*
G02*
X157028001Y-127702499I-51000J0D01*
G01*
X156672003Y-127702499D01*
G75*
G02*
X156621003Y-127651499I0J51000D01*
G01*
X156621003Y-127143499D01*
G75*
G02*
X156672003Y-127092499I51000J0D01*
G01*
X157028001Y-127092499D01*
G75*
G02*
X157079001Y-127143499I0J-51000D01*
G01*
G37*
G36*
G01*
X156578998Y-125848498D02*
X156578998Y-126356498D01*
G75*
G02*
X156527998Y-126407498I-51000J0D01*
G01*
X156172000Y-126407498D01*
G75*
G02*
X156121000Y-126356498I0J51000D01*
G01*
X156121000Y-125848498D01*
G75*
G02*
X156172000Y-125797498I51000J0D01*
G01*
X156527998Y-125797498D01*
G75*
G02*
X156578998Y-125848498I0J-51000D01*
G01*
G37*
D11*
X141671100Y-68962600D03*
X148271100Y-68962600D03*
G36*
G01*
X144772100Y-68012600D02*
X144772100Y-69912600D01*
G75*
G02*
X144721100Y-69963600I-51000J0D01*
G01*
X142821100Y-69963600D01*
G75*
G02*
X142770100Y-69912600I0J51000D01*
G01*
X142770100Y-68012600D01*
G75*
G02*
X142821100Y-67961600I51000J0D01*
G01*
X144721100Y-67961600D01*
G75*
G02*
X144772100Y-68012600I0J-51000D01*
G01*
G37*
G36*
G01*
X147172100Y-68012600D02*
X147172100Y-69912600D01*
G75*
G02*
X147121100Y-69963600I-51000J0D01*
G01*
X145221100Y-69963600D01*
G75*
G02*
X145170100Y-69912600I0J51000D01*
G01*
X145170100Y-68012600D01*
G75*
G02*
X145221100Y-67961600I51000J0D01*
G01*
X147121100Y-67961600D01*
G75*
G02*
X147172100Y-68012600I0J-51000D01*
G01*
G37*
G36*
G01*
X142572100Y-70812600D02*
X142572100Y-72212600D01*
G75*
G02*
X142521100Y-72263600I-51000J0D01*
G01*
X140921100Y-72263600D01*
G75*
G02*
X140870100Y-72212600I0J51000D01*
G01*
X140870100Y-70812600D01*
G75*
G02*
X140921100Y-70761600I51000J0D01*
G01*
X142521100Y-70761600D01*
G75*
G02*
X142572100Y-70812600I0J-51000D01*
G01*
G37*
G36*
G01*
X149072100Y-70812600D02*
X149072100Y-72212600D01*
G75*
G02*
X149021100Y-72263600I-51000J0D01*
G01*
X147421100Y-72263600D01*
G75*
G02*
X147370100Y-72212600I0J51000D01*
G01*
X147370100Y-70812600D01*
G75*
G02*
X147421100Y-70761600I51000J0D01*
G01*
X149021100Y-70761600D01*
G75*
G02*
X149072100Y-70812600I0J-51000D01*
G01*
G37*
G36*
G01*
X146522100Y-70962600D02*
X146522100Y-72312600D01*
G75*
G02*
X146471100Y-72363600I-51000J0D01*
G01*
X146071100Y-72363600D01*
G75*
G02*
X146020100Y-72312600I0J51000D01*
G01*
X146020100Y-70962600D01*
G75*
G02*
X146071100Y-70911600I51000J0D01*
G01*
X146471100Y-70911600D01*
G75*
G02*
X146522100Y-70962600I0J-51000D01*
G01*
G37*
G36*
G01*
X145872100Y-70962600D02*
X145872100Y-72312600D01*
G75*
G02*
X145821100Y-72363600I-51000J0D01*
G01*
X145421100Y-72363600D01*
G75*
G02*
X145370100Y-72312600I0J51000D01*
G01*
X145370100Y-70962600D01*
G75*
G02*
X145421100Y-70911600I51000J0D01*
G01*
X145821100Y-70911600D01*
G75*
G02*
X145872100Y-70962600I0J-51000D01*
G01*
G37*
G36*
G01*
X143922100Y-70962600D02*
X143922100Y-72312600D01*
G75*
G02*
X143871100Y-72363600I-51000J0D01*
G01*
X143471100Y-72363600D01*
G75*
G02*
X143420100Y-72312600I0J51000D01*
G01*
X143420100Y-70962600D01*
G75*
G02*
X143471100Y-70911600I51000J0D01*
G01*
X143871100Y-70911600D01*
G75*
G02*
X143922100Y-70962600I0J-51000D01*
G01*
G37*
G36*
G01*
X144572100Y-70962600D02*
X144572100Y-72312600D01*
G75*
G02*
X144521100Y-72363600I-51000J0D01*
G01*
X144121100Y-72363600D01*
G75*
G02*
X144070100Y-72312600I0J51000D01*
G01*
X144070100Y-70962600D01*
G75*
G02*
X144121100Y-70911600I51000J0D01*
G01*
X144521100Y-70911600D01*
G75*
G02*
X144572100Y-70962600I0J-51000D01*
G01*
G37*
G36*
G01*
X145222100Y-70962600D02*
X145222100Y-72312600D01*
G75*
G02*
X145171100Y-72363600I-51000J0D01*
G01*
X144771100Y-72363600D01*
G75*
G02*
X144720100Y-72312600I0J51000D01*
G01*
X144720100Y-70962600D01*
G75*
G02*
X144771100Y-70911600I51000J0D01*
G01*
X145171100Y-70911600D01*
G75*
G02*
X145222100Y-70962600I0J-51000D01*
G01*
G37*
G36*
G01*
X150501502Y-101228998D02*
X149993502Y-101228998D01*
G75*
G02*
X149942502Y-101177998I0J51000D01*
G01*
X149942502Y-100822000D01*
G75*
G02*
X149993502Y-100771000I51000J0D01*
G01*
X150501502Y-100771000D01*
G75*
G02*
X150552502Y-100822000I0J-51000D01*
G01*
X150552502Y-101177998D01*
G75*
G02*
X150501502Y-101228998I-51000J0D01*
G01*
G37*
G36*
G01*
X149206501Y-101729001D02*
X148698501Y-101729001D01*
G75*
G02*
X148647501Y-101678001I0J51000D01*
G01*
X148647501Y-101322003D01*
G75*
G02*
X148698501Y-101271003I51000J0D01*
G01*
X149206501Y-101271003D01*
G75*
G02*
X149257501Y-101322003I0J-51000D01*
G01*
X149257501Y-101678001D01*
G75*
G02*
X149206501Y-101729001I-51000J0D01*
G01*
G37*
G36*
G01*
X149206501Y-100729000D02*
X148698501Y-100729000D01*
G75*
G02*
X148647501Y-100678000I0J51000D01*
G01*
X148647501Y-100322002D01*
G75*
G02*
X148698501Y-100271002I51000J0D01*
G01*
X149206501Y-100271002D01*
G75*
G02*
X149257501Y-100322002I0J-51000D01*
G01*
X149257501Y-100678000D01*
G75*
G02*
X149206501Y-100729000I-51000J0D01*
G01*
G37*
G36*
G01*
X143328998Y-115898498D02*
X143328998Y-116406498D01*
G75*
G02*
X143277998Y-116457498I-51000J0D01*
G01*
X142922000Y-116457498D01*
G75*
G02*
X142871000Y-116406498I0J51000D01*
G01*
X142871000Y-115898498D01*
G75*
G02*
X142922000Y-115847498I51000J0D01*
G01*
X143277998Y-115847498D01*
G75*
G02*
X143328998Y-115898498I0J-51000D01*
G01*
G37*
G36*
G01*
X143829001Y-117193499D02*
X143829001Y-117701499D01*
G75*
G02*
X143778001Y-117752499I-51000J0D01*
G01*
X143422003Y-117752499D01*
G75*
G02*
X143371003Y-117701499I0J51000D01*
G01*
X143371003Y-117193499D01*
G75*
G02*
X143422003Y-117142499I51000J0D01*
G01*
X143778001Y-117142499D01*
G75*
G02*
X143829001Y-117193499I0J-51000D01*
G01*
G37*
G36*
G01*
X142829000Y-117193499D02*
X142829000Y-117701499D01*
G75*
G02*
X142778000Y-117752499I-51000J0D01*
G01*
X142422002Y-117752499D01*
G75*
G02*
X142371002Y-117701499I0J51000D01*
G01*
X142371002Y-117193499D01*
G75*
G02*
X142422002Y-117142499I51000J0D01*
G01*
X142778000Y-117142499D01*
G75*
G02*
X142829000Y-117193499I0J-51000D01*
G01*
G37*
D10*
X163000000Y-88900000D03*
X163000000Y-90900000D03*
X163000000Y-92900000D03*
X134001100Y-109503600D03*
X134001100Y-107503600D03*
X134001100Y-105503600D03*
X134001100Y-103503600D03*
X134001100Y-99503600D03*
X134001100Y-97503600D03*
X134001100Y-95503600D03*
X134001100Y-91503600D03*
X134001100Y-89503600D03*
X134001100Y-87503600D03*
X134001100Y-85503600D03*
X134001100Y-83503600D03*
X163001100Y-84903600D03*
X163001100Y-82903600D03*
X163001100Y-80903600D03*
X163001100Y-78903600D03*
X163001100Y-76903600D03*
X134001100Y-77503600D03*
X134001100Y-79503600D03*
G36*
G01*
X157849000Y-95300000D02*
X157849000Y-93500000D01*
G75*
G02*
X157900000Y-93449000I51000J0D01*
G01*
X159500000Y-93449000D01*
G75*
G02*
X159551000Y-93500000I0J-51000D01*
G01*
X159551000Y-95300000D01*
G75*
G02*
X159500000Y-95351000I-51000J0D01*
G01*
X157900000Y-95351000D01*
G75*
G02*
X157849000Y-95300000I0J51000D01*
G01*
G37*
G36*
G01*
X155049000Y-95300000D02*
X155049000Y-93500000D01*
G75*
G02*
X155100000Y-93449000I51000J0D01*
G01*
X156700000Y-93449000D01*
G75*
G02*
X156751000Y-93500000I0J-51000D01*
G01*
X156751000Y-95300000D01*
G75*
G02*
X156700000Y-95351000I-51000J0D01*
G01*
X155100000Y-95351000D01*
G75*
G02*
X155049000Y-95300000I0J51000D01*
G01*
G37*
G36*
G01*
X159149000Y-86300000D02*
X159149000Y-86300000D01*
G75*
G02*
X159600000Y-85849000I451000J0D01*
G01*
X159600000Y-85849000D01*
G75*
G02*
X160051000Y-86300000I0J-451000D01*
G01*
X160051000Y-86300000D01*
G75*
G02*
X159600000Y-86751000I-451000J0D01*
G01*
X159600000Y-86751000D01*
G75*
G02*
X159149000Y-86300000I0J451000D01*
G01*
G37*
G36*
G01*
X145799000Y-85450000D02*
X145799000Y-85450000D01*
G75*
G02*
X146250000Y-84999000I451000J0D01*
G01*
X146250000Y-84999000D01*
G75*
G02*
X146701000Y-85450000I0J-451000D01*
G01*
X146701000Y-85450000D01*
G75*
G02*
X146250000Y-85901000I-451000J0D01*
G01*
X146250000Y-85901000D01*
G75*
G02*
X145799000Y-85450000I0J451000D01*
G01*
G37*
G36*
G01*
X144678850Y-85512350D02*
X144678850Y-85512350D01*
G75*
G02*
X145129850Y-85061350I451000J0D01*
G01*
X145129850Y-85061350D01*
G75*
G02*
X145580850Y-85512350I0J-451000D01*
G01*
X145580850Y-85512350D01*
G75*
G02*
X145129850Y-85963350I-451000J0D01*
G01*
X145129850Y-85963350D01*
G75*
G02*
X144678850Y-85512350I0J451000D01*
G01*
G37*
G36*
G01*
X141186350Y-91862350D02*
X141186350Y-91862350D01*
G75*
G02*
X141637350Y-91411350I451000J0D01*
G01*
X141637350Y-91411350D01*
G75*
G02*
X142088350Y-91862350I0J-451000D01*
G01*
X142088350Y-91862350D01*
G75*
G02*
X141637350Y-92313350I-451000J0D01*
G01*
X141637350Y-92313350D01*
G75*
G02*
X141186350Y-91862350I0J451000D01*
G01*
G37*
G36*
G01*
X135974000Y-109770800D02*
X135974000Y-109129200D01*
G75*
G02*
X136054200Y-109049000I80200J0D01*
G01*
X136745800Y-109049000D01*
G75*
G02*
X136826000Y-109129200I0J-80200D01*
G01*
X136826000Y-109770800D01*
G75*
G02*
X136745800Y-109851000I-80200J0D01*
G01*
X136054200Y-109851000D01*
G75*
G02*
X135974000Y-109770800I0J80200D01*
G01*
G37*
G36*
G01*
X135974000Y-108770800D02*
X135974000Y-108129200D01*
G75*
G02*
X136054200Y-108049000I80200J0D01*
G01*
X136745800Y-108049000D01*
G75*
G02*
X136826000Y-108129200I0J-80200D01*
G01*
X136826000Y-108770800D01*
G75*
G02*
X136745800Y-108851000I-80200J0D01*
G01*
X136054200Y-108851000D01*
G75*
G02*
X135974000Y-108770800I0J80200D01*
G01*
G37*
G36*
G01*
X138174000Y-101820800D02*
X138174000Y-101179200D01*
G75*
G02*
X138254200Y-101099000I80200J0D01*
G01*
X138945800Y-101099000D01*
G75*
G02*
X139026000Y-101179200I0J-80200D01*
G01*
X139026000Y-101820800D01*
G75*
G02*
X138945800Y-101901000I-80200J0D01*
G01*
X138254200Y-101901000D01*
G75*
G02*
X138174000Y-101820800I0J80200D01*
G01*
G37*
G36*
G01*
X138174000Y-100820800D02*
X138174000Y-100179200D01*
G75*
G02*
X138254200Y-100099000I80200J0D01*
G01*
X138945800Y-100099000D01*
G75*
G02*
X139026000Y-100179200I0J-80200D01*
G01*
X139026000Y-100820800D01*
G75*
G02*
X138945800Y-100901000I-80200J0D01*
G01*
X138254200Y-100901000D01*
G75*
G02*
X138174000Y-100820800I0J80200D01*
G01*
G37*
G36*
G01*
X139574000Y-101820800D02*
X139574000Y-101179200D01*
G75*
G02*
X139654200Y-101099000I80200J0D01*
G01*
X140345800Y-101099000D01*
G75*
G02*
X140426000Y-101179200I0J-80200D01*
G01*
X140426000Y-101820800D01*
G75*
G02*
X140345800Y-101901000I-80200J0D01*
G01*
X139654200Y-101901000D01*
G75*
G02*
X139574000Y-101820800I0J80200D01*
G01*
G37*
G36*
G01*
X139574000Y-100820800D02*
X139574000Y-100179200D01*
G75*
G02*
X139654200Y-100099000I80200J0D01*
G01*
X140345800Y-100099000D01*
G75*
G02*
X140426000Y-100179200I0J-80200D01*
G01*
X140426000Y-100820800D01*
G75*
G02*
X140345800Y-100901000I-80200J0D01*
G01*
X139654200Y-100901000D01*
G75*
G02*
X139574000Y-100820800I0J80200D01*
G01*
G37*
G36*
G01*
X136774000Y-101820800D02*
X136774000Y-101179200D01*
G75*
G02*
X136854200Y-101099000I80200J0D01*
G01*
X137545800Y-101099000D01*
G75*
G02*
X137626000Y-101179200I0J-80200D01*
G01*
X137626000Y-101820800D01*
G75*
G02*
X137545800Y-101901000I-80200J0D01*
G01*
X136854200Y-101901000D01*
G75*
G02*
X136774000Y-101820800I0J80200D01*
G01*
G37*
G36*
G01*
X136774000Y-100820800D02*
X136774000Y-100179200D01*
G75*
G02*
X136854200Y-100099000I80200J0D01*
G01*
X137545800Y-100099000D01*
G75*
G02*
X137626000Y-100179200I0J-80200D01*
G01*
X137626000Y-100820800D01*
G75*
G02*
X137545800Y-100901000I-80200J0D01*
G01*
X136854200Y-100901000D01*
G75*
G02*
X136774000Y-100820800I0J80200D01*
G01*
G37*
G36*
G01*
X137520800Y-104476000D02*
X136879200Y-104476000D01*
G75*
G02*
X136799000Y-104395800I0J80200D01*
G01*
X136799000Y-103704200D01*
G75*
G02*
X136879200Y-103624000I80200J0D01*
G01*
X137520800Y-103624000D01*
G75*
G02*
X137601000Y-103704200I0J-80200D01*
G01*
X137601000Y-104395800D01*
G75*
G02*
X137520800Y-104476000I-80200J0D01*
G01*
G37*
G36*
G01*
X136520800Y-104476000D02*
X135879200Y-104476000D01*
G75*
G02*
X135799000Y-104395800I0J80200D01*
G01*
X135799000Y-103704200D01*
G75*
G02*
X135879200Y-103624000I80200J0D01*
G01*
X136520800Y-103624000D01*
G75*
G02*
X136601000Y-103704200I0J-80200D01*
G01*
X136601000Y-104395800D01*
G75*
G02*
X136520800Y-104476000I-80200J0D01*
G01*
G37*
G36*
G01*
X137570800Y-106526000D02*
X136929200Y-106526000D01*
G75*
G02*
X136849000Y-106445800I0J80200D01*
G01*
X136849000Y-105754200D01*
G75*
G02*
X136929200Y-105674000I80200J0D01*
G01*
X137570800Y-105674000D01*
G75*
G02*
X137651000Y-105754200I0J-80200D01*
G01*
X137651000Y-106445800D01*
G75*
G02*
X137570800Y-106526000I-80200J0D01*
G01*
G37*
G36*
G01*
X136570800Y-106526000D02*
X135929200Y-106526000D01*
G75*
G02*
X135849000Y-106445800I0J80200D01*
G01*
X135849000Y-105754200D01*
G75*
G02*
X135929200Y-105674000I80200J0D01*
G01*
X136570800Y-105674000D01*
G75*
G02*
X136651000Y-105754200I0J-80200D01*
G01*
X136651000Y-106445800D01*
G75*
G02*
X136570800Y-106526000I-80200J0D01*
G01*
G37*
G36*
G01*
X158520800Y-87996000D02*
X157879200Y-87996000D01*
G75*
G02*
X157799000Y-87915800I0J80200D01*
G01*
X157799000Y-87224200D01*
G75*
G02*
X157879200Y-87144000I80200J0D01*
G01*
X158520800Y-87144000D01*
G75*
G02*
X158601000Y-87224200I0J-80200D01*
G01*
X158601000Y-87915800D01*
G75*
G02*
X158520800Y-87996000I-80200J0D01*
G01*
G37*
G36*
G01*
X157520800Y-87996000D02*
X156879200Y-87996000D01*
G75*
G02*
X156799000Y-87915800I0J80200D01*
G01*
X156799000Y-87224200D01*
G75*
G02*
X156879200Y-87144000I80200J0D01*
G01*
X157520800Y-87144000D01*
G75*
G02*
X157601000Y-87224200I0J-80200D01*
G01*
X157601000Y-87915800D01*
G75*
G02*
X157520800Y-87996000I-80200J0D01*
G01*
G37*
G36*
G01*
X156879200Y-85864000D02*
X157520800Y-85864000D01*
G75*
G02*
X157601000Y-85944200I0J-80200D01*
G01*
X157601000Y-86635800D01*
G75*
G02*
X157520800Y-86716000I-80200J0D01*
G01*
X156879200Y-86716000D01*
G75*
G02*
X156799000Y-86635800I0J80200D01*
G01*
X156799000Y-85944200D01*
G75*
G02*
X156879200Y-85864000I80200J0D01*
G01*
G37*
G36*
G01*
X157879200Y-85864000D02*
X158520800Y-85864000D01*
G75*
G02*
X158601000Y-85944200I0J-80200D01*
G01*
X158601000Y-86635800D01*
G75*
G02*
X158520800Y-86716000I-80200J0D01*
G01*
X157879200Y-86716000D01*
G75*
G02*
X157799000Y-86635800I0J80200D01*
G01*
X157799000Y-85944200D01*
G75*
G02*
X157879200Y-85864000I80200J0D01*
G01*
G37*
G36*
G01*
X140347850Y-87957600D02*
X141974350Y-87957600D01*
G75*
G02*
X142112100Y-88095350I0J-137750D01*
G01*
X142112100Y-88921850D01*
G75*
G02*
X141974350Y-89059600I-137750J0D01*
G01*
X140347850Y-89059600D01*
G75*
G02*
X140210100Y-88921850I0J137750D01*
G01*
X140210100Y-88095350D01*
G75*
G02*
X140347850Y-87957600I137750J0D01*
G01*
G37*
G36*
G01*
X140347850Y-85457600D02*
X141974350Y-85457600D01*
G75*
G02*
X142112100Y-85595350I0J-137750D01*
G01*
X142112100Y-86421850D01*
G75*
G02*
X141974350Y-86559600I-137750J0D01*
G01*
X140347850Y-86559600D01*
G75*
G02*
X140210100Y-86421850I0J137750D01*
G01*
X140210100Y-85595350D01*
G75*
G02*
X140347850Y-85457600I137750J0D01*
G01*
G37*
G36*
G01*
X141549000Y-98500001D02*
X141549000Y-96699999D01*
G75*
G02*
X141599999Y-96649000I50999J0D01*
G01*
X142800001Y-96649000D01*
G75*
G02*
X142851000Y-96699999I0J-50999D01*
G01*
X142851000Y-98500001D01*
G75*
G02*
X142800001Y-98551000I-50999J0D01*
G01*
X141599999Y-98551000D01*
G75*
G02*
X141549000Y-98500001I0J50999D01*
G01*
G37*
G36*
G01*
X138249000Y-98500001D02*
X138249000Y-96699999D01*
G75*
G02*
X138299999Y-96649000I50999J0D01*
G01*
X139500001Y-96649000D01*
G75*
G02*
X139551000Y-96699999I0J-50999D01*
G01*
X139551000Y-98500001D01*
G75*
G02*
X139500001Y-98551000I-50999J0D01*
G01*
X138299999Y-98551000D01*
G75*
G02*
X138249000Y-98500001I0J50999D01*
G01*
G37*
G36*
G01*
X153785100Y-136488600D02*
X153785100Y-134688600D01*
G75*
G02*
X153836100Y-134637600I51000J0D01*
G01*
X154186100Y-134637600D01*
G75*
G02*
X154237100Y-134688600I0J-51000D01*
G01*
X154237100Y-136488600D01*
G75*
G02*
X154186100Y-136539600I-51000J0D01*
G01*
X153836100Y-136539600D01*
G75*
G02*
X153785100Y-136488600I0J51000D01*
G01*
G37*
G36*
G01*
X144594100Y-136488600D02*
X144594100Y-134688600D01*
G75*
G02*
X144645100Y-134637600I51000J0D01*
G01*
X144995100Y-134637600D01*
G75*
G02*
X145046100Y-134688600I0J-51000D01*
G01*
X145046100Y-136488600D01*
G75*
G02*
X144995100Y-136539600I-51000J0D01*
G01*
X144645100Y-136539600D01*
G75*
G02*
X144594100Y-136488600I0J51000D01*
G01*
G37*
G36*
G01*
X153785100Y-130738600D02*
X153785100Y-128938600D01*
G75*
G02*
X153836100Y-128887600I51000J0D01*
G01*
X154186100Y-128887600D01*
G75*
G02*
X154237100Y-128938600I0J-51000D01*
G01*
X154237100Y-130738600D01*
G75*
G02*
X154186100Y-130789600I-51000J0D01*
G01*
X153836100Y-130789600D01*
G75*
G02*
X153785100Y-130738600I0J51000D01*
G01*
G37*
G36*
G01*
X144594100Y-130738600D02*
X144594100Y-128938600D01*
G75*
G02*
X144645100Y-128887600I51000J0D01*
G01*
X144995100Y-128887600D01*
G75*
G02*
X145046100Y-128938600I0J-51000D01*
G01*
X145046100Y-130738600D01*
G75*
G02*
X144995100Y-130789600I-51000J0D01*
G01*
X144645100Y-130789600D01*
G75*
G02*
X144594100Y-130738600I0J51000D01*
G01*
G37*
G36*
G01*
X145870100Y-129818601D02*
X145870100Y-128518599D01*
G75*
G02*
X145921099Y-128467600I50999J0D01*
G01*
X146571101Y-128467600D01*
G75*
G02*
X146622100Y-128518599I0J-50999D01*
G01*
X146622100Y-129818601D01*
G75*
G02*
X146571101Y-129869600I-50999J0D01*
G01*
X145921099Y-129869600D01*
G75*
G02*
X145870100Y-129818601I0J50999D01*
G01*
G37*
G36*
G01*
X147140100Y-129818601D02*
X147140100Y-128518599D01*
G75*
G02*
X147191099Y-128467600I50999J0D01*
G01*
X147841101Y-128467600D01*
G75*
G02*
X147892100Y-128518599I0J-50999D01*
G01*
X147892100Y-129818601D01*
G75*
G02*
X147841101Y-129869600I-50999J0D01*
G01*
X147191099Y-129869600D01*
G75*
G02*
X147140100Y-129818601I0J50999D01*
G01*
G37*
G36*
G01*
X148410100Y-129818601D02*
X148410100Y-128518599D01*
G75*
G02*
X148461099Y-128467600I50999J0D01*
G01*
X149111101Y-128467600D01*
G75*
G02*
X149162100Y-128518599I0J-50999D01*
G01*
X149162100Y-129818601D01*
G75*
G02*
X149111101Y-129869600I-50999J0D01*
G01*
X148461099Y-129869600D01*
G75*
G02*
X148410100Y-129818601I0J50999D01*
G01*
G37*
G36*
G01*
X149680100Y-129818601D02*
X149680100Y-128518599D01*
G75*
G02*
X149731099Y-128467600I50999J0D01*
G01*
X150381101Y-128467600D01*
G75*
G02*
X150432100Y-128518599I0J-50999D01*
G01*
X150432100Y-129818601D01*
G75*
G02*
X150381101Y-129869600I-50999J0D01*
G01*
X149731099Y-129869600D01*
G75*
G02*
X149680100Y-129818601I0J50999D01*
G01*
G37*
G36*
G01*
X150950100Y-129818601D02*
X150950100Y-128518599D01*
G75*
G02*
X151001099Y-128467600I50999J0D01*
G01*
X151651101Y-128467600D01*
G75*
G02*
X151702100Y-128518599I0J-50999D01*
G01*
X151702100Y-129818601D01*
G75*
G02*
X151651101Y-129869600I-50999J0D01*
G01*
X151001099Y-129869600D01*
G75*
G02*
X150950100Y-129818601I0J50999D01*
G01*
G37*
G36*
G01*
X152220100Y-129818601D02*
X152220100Y-128518599D01*
G75*
G02*
X152271099Y-128467600I50999J0D01*
G01*
X152921101Y-128467600D01*
G75*
G02*
X152972100Y-128518599I0J-50999D01*
G01*
X152972100Y-129818601D01*
G75*
G02*
X152921101Y-129869600I-50999J0D01*
G01*
X152271099Y-129869600D01*
G75*
G02*
X152220100Y-129818601I0J50999D01*
G01*
G37*
G36*
G01*
X154266100Y-141859600D02*
X153366100Y-141859600D01*
G75*
G02*
X153315100Y-141808600I0J51000D01*
G01*
X153315100Y-140808600D01*
G75*
G02*
X153366100Y-140757600I51000J0D01*
G01*
X154266100Y-140757600D01*
G75*
G02*
X154317100Y-140808600I0J-51000D01*
G01*
X154317100Y-141808600D01*
G75*
G02*
X154266100Y-141859600I-51000J0D01*
G01*
G37*
G36*
G01*
X145466100Y-141859600D02*
X144566100Y-141859600D01*
G75*
G02*
X144515100Y-141808600I0J51000D01*
G01*
X144515100Y-140808600D01*
G75*
G02*
X144566100Y-140757600I51000J0D01*
G01*
X145466100Y-140757600D01*
G75*
G02*
X145517100Y-140808600I0J-51000D01*
G01*
X145517100Y-141808600D01*
G75*
G02*
X145466100Y-141859600I-51000J0D01*
G01*
G37*
G36*
G01*
X162150000Y-97424000D02*
X163150000Y-97424000D01*
G75*
G02*
X163201000Y-97475000I0J-51000D01*
G01*
X163201000Y-98525000D01*
G75*
G02*
X163150000Y-98576000I-51000J0D01*
G01*
X162150000Y-98576000D01*
G75*
G02*
X162099000Y-98525000I0J51000D01*
G01*
X162099000Y-97475000D01*
G75*
G02*
X162150000Y-97424000I51000J0D01*
G01*
G37*
G36*
G01*
X162150000Y-100474000D02*
X163150000Y-100474000D01*
G75*
G02*
X163201000Y-100525000I0J-51000D01*
G01*
X163201000Y-101575000D01*
G75*
G02*
X163150000Y-101626000I-51000J0D01*
G01*
X162150000Y-101626000D01*
G75*
G02*
X162099000Y-101575000I0J51000D01*
G01*
X162099000Y-100525000D01*
G75*
G02*
X162150000Y-100474000I51000J0D01*
G01*
G37*
G36*
G01*
X160850000Y-98374000D02*
X161700000Y-98374000D01*
G75*
G02*
X161751000Y-98425000I0J-51000D01*
G01*
X161751000Y-100625000D01*
G75*
G02*
X161700000Y-100676000I-51000J0D01*
G01*
X160850000Y-100676000D01*
G75*
G02*
X160799000Y-100625000I0J51000D01*
G01*
X160799000Y-98425000D01*
G75*
G02*
X160850000Y-98374000I51000J0D01*
G01*
G37*
G36*
G01*
X163600000Y-98374000D02*
X164450000Y-98374000D01*
G75*
G02*
X164501000Y-98425000I0J-51000D01*
G01*
X164501000Y-100625000D01*
G75*
G02*
X164450000Y-100676000I-51000J0D01*
G01*
X163600000Y-100676000D01*
G75*
G02*
X163549000Y-100625000I0J51000D01*
G01*
X163549000Y-98425000D01*
G75*
G02*
X163600000Y-98374000I51000J0D01*
G01*
G37*
D12*
X142981100Y-82263600D03*
X142931100Y-83313600D03*
X142431100Y-82813600D03*
X141881100Y-82263600D03*
G36*
G01*
X143282100Y-82047700D02*
X143282100Y-83579500D01*
G75*
G02*
X143197000Y-83664600I-85100J0D01*
G01*
X141665200Y-83664600D01*
G75*
G02*
X141580100Y-83579500I0J85100D01*
G01*
X141580100Y-82047700D01*
G75*
G02*
X141665200Y-81962600I85100J0D01*
G01*
X143197000Y-81962600D01*
G75*
G02*
X143282100Y-82047700I0J-85100D01*
G01*
G37*
G36*
G01*
X145197100Y-86268600D02*
X145197100Y-87868600D01*
G75*
G02*
X145146100Y-87919600I-51000J0D01*
G01*
X144846100Y-87919600D01*
G75*
G02*
X144795100Y-87868600I0J51000D01*
G01*
X144795100Y-86268600D01*
G75*
G02*
X144846100Y-86217600I51000J0D01*
G01*
X145146100Y-86217600D01*
G75*
G02*
X145197100Y-86268600I0J-51000D01*
G01*
G37*
G36*
G01*
X145697100Y-86268600D02*
X145697100Y-87868600D01*
G75*
G02*
X145646100Y-87919600I-51000J0D01*
G01*
X145346100Y-87919600D01*
G75*
G02*
X145295100Y-87868600I0J51000D01*
G01*
X145295100Y-86268600D01*
G75*
G02*
X145346100Y-86217600I51000J0D01*
G01*
X145646100Y-86217600D01*
G75*
G02*
X145697100Y-86268600I0J-51000D01*
G01*
G37*
G36*
G01*
X146197100Y-86268600D02*
X146197100Y-87868600D01*
G75*
G02*
X146146100Y-87919600I-51000J0D01*
G01*
X145846100Y-87919600D01*
G75*
G02*
X145795100Y-87868600I0J51000D01*
G01*
X145795100Y-86268600D01*
G75*
G02*
X145846100Y-86217600I51000J0D01*
G01*
X146146100Y-86217600D01*
G75*
G02*
X146197100Y-86268600I0J-51000D01*
G01*
G37*
G36*
G01*
X146697100Y-86268600D02*
X146697100Y-87868600D01*
G75*
G02*
X146646100Y-87919600I-51000J0D01*
G01*
X146346100Y-87919600D01*
G75*
G02*
X146295100Y-87868600I0J51000D01*
G01*
X146295100Y-86268600D01*
G75*
G02*
X146346100Y-86217600I51000J0D01*
G01*
X146646100Y-86217600D01*
G75*
G02*
X146697100Y-86268600I0J-51000D01*
G01*
G37*
G36*
G01*
X147197100Y-86268600D02*
X147197100Y-87868600D01*
G75*
G02*
X147146100Y-87919600I-51000J0D01*
G01*
X146846100Y-87919600D01*
G75*
G02*
X146795100Y-87868600I0J51000D01*
G01*
X146795100Y-86268600D01*
G75*
G02*
X146846100Y-86217600I51000J0D01*
G01*
X147146100Y-86217600D01*
G75*
G02*
X147197100Y-86268600I0J-51000D01*
G01*
G37*
G36*
G01*
X147697100Y-86268600D02*
X147697100Y-87868600D01*
G75*
G02*
X147646100Y-87919600I-51000J0D01*
G01*
X147346100Y-87919600D01*
G75*
G02*
X147295100Y-87868600I0J51000D01*
G01*
X147295100Y-86268600D01*
G75*
G02*
X147346100Y-86217600I51000J0D01*
G01*
X147646100Y-86217600D01*
G75*
G02*
X147697100Y-86268600I0J-51000D01*
G01*
G37*
G36*
G01*
X148197100Y-86268600D02*
X148197100Y-87868600D01*
G75*
G02*
X148146100Y-87919600I-51000J0D01*
G01*
X147846100Y-87919600D01*
G75*
G02*
X147795100Y-87868600I0J51000D01*
G01*
X147795100Y-86268600D01*
G75*
G02*
X147846100Y-86217600I51000J0D01*
G01*
X148146100Y-86217600D01*
G75*
G02*
X148197100Y-86268600I0J-51000D01*
G01*
G37*
G36*
G01*
X148697100Y-86268600D02*
X148697100Y-87868600D01*
G75*
G02*
X148646100Y-87919600I-51000J0D01*
G01*
X148346100Y-87919600D01*
G75*
G02*
X148295100Y-87868600I0J51000D01*
G01*
X148295100Y-86268600D01*
G75*
G02*
X148346100Y-86217600I51000J0D01*
G01*
X148646100Y-86217600D01*
G75*
G02*
X148697100Y-86268600I0J-51000D01*
G01*
G37*
G36*
G01*
X149197100Y-86268600D02*
X149197100Y-87868600D01*
G75*
G02*
X149146100Y-87919600I-51000J0D01*
G01*
X148846100Y-87919600D01*
G75*
G02*
X148795100Y-87868600I0J51000D01*
G01*
X148795100Y-86268600D01*
G75*
G02*
X148846100Y-86217600I51000J0D01*
G01*
X149146100Y-86217600D01*
G75*
G02*
X149197100Y-86268600I0J-51000D01*
G01*
G37*
G36*
G01*
X149697100Y-86268600D02*
X149697100Y-87868600D01*
G75*
G02*
X149646100Y-87919600I-51000J0D01*
G01*
X149346100Y-87919600D01*
G75*
G02*
X149295100Y-87868600I0J51000D01*
G01*
X149295100Y-86268600D01*
G75*
G02*
X149346100Y-86217600I51000J0D01*
G01*
X149646100Y-86217600D01*
G75*
G02*
X149697100Y-86268600I0J-51000D01*
G01*
G37*
G36*
G01*
X150197100Y-86268600D02*
X150197100Y-87868600D01*
G75*
G02*
X150146100Y-87919600I-51000J0D01*
G01*
X149846100Y-87919600D01*
G75*
G02*
X149795100Y-87868600I0J51000D01*
G01*
X149795100Y-86268600D01*
G75*
G02*
X149846100Y-86217600I51000J0D01*
G01*
X150146100Y-86217600D01*
G75*
G02*
X150197100Y-86268600I0J-51000D01*
G01*
G37*
G36*
G01*
X150697100Y-86268600D02*
X150697100Y-87868600D01*
G75*
G02*
X150646100Y-87919600I-51000J0D01*
G01*
X150346100Y-87919600D01*
G75*
G02*
X150295100Y-87868600I0J51000D01*
G01*
X150295100Y-86268600D01*
G75*
G02*
X150346100Y-86217600I51000J0D01*
G01*
X150646100Y-86217600D01*
G75*
G02*
X150697100Y-86268600I0J-51000D01*
G01*
G37*
G36*
G01*
X152796100Y-88769600D02*
X151196100Y-88769600D01*
G75*
G02*
X151145100Y-88718600I0J51000D01*
G01*
X151145100Y-88418600D01*
G75*
G02*
X151196100Y-88367600I51000J0D01*
G01*
X152796100Y-88367600D01*
G75*
G02*
X152847100Y-88418600I0J-51000D01*
G01*
X152847100Y-88718600D01*
G75*
G02*
X152796100Y-88769600I-51000J0D01*
G01*
G37*
G36*
G01*
X152796100Y-89269600D02*
X151196100Y-89269600D01*
G75*
G02*
X151145100Y-89218600I0J51000D01*
G01*
X151145100Y-88918600D01*
G75*
G02*
X151196100Y-88867600I51000J0D01*
G01*
X152796100Y-88867600D01*
G75*
G02*
X152847100Y-88918600I0J-51000D01*
G01*
X152847100Y-89218600D01*
G75*
G02*
X152796100Y-89269600I-51000J0D01*
G01*
G37*
G36*
G01*
X152796100Y-89769600D02*
X151196100Y-89769600D01*
G75*
G02*
X151145100Y-89718600I0J51000D01*
G01*
X151145100Y-89418600D01*
G75*
G02*
X151196100Y-89367600I51000J0D01*
G01*
X152796100Y-89367600D01*
G75*
G02*
X152847100Y-89418600I0J-51000D01*
G01*
X152847100Y-89718600D01*
G75*
G02*
X152796100Y-89769600I-51000J0D01*
G01*
G37*
G36*
G01*
X152796100Y-90269600D02*
X151196100Y-90269600D01*
G75*
G02*
X151145100Y-90218600I0J51000D01*
G01*
X151145100Y-89918600D01*
G75*
G02*
X151196100Y-89867600I51000J0D01*
G01*
X152796100Y-89867600D01*
G75*
G02*
X152847100Y-89918600I0J-51000D01*
G01*
X152847100Y-90218600D01*
G75*
G02*
X152796100Y-90269600I-51000J0D01*
G01*
G37*
G36*
G01*
X152796100Y-90769600D02*
X151196100Y-90769600D01*
G75*
G02*
X151145100Y-90718600I0J51000D01*
G01*
X151145100Y-90418600D01*
G75*
G02*
X151196100Y-90367600I51000J0D01*
G01*
X152796100Y-90367600D01*
G75*
G02*
X152847100Y-90418600I0J-51000D01*
G01*
X152847100Y-90718600D01*
G75*
G02*
X152796100Y-90769600I-51000J0D01*
G01*
G37*
G36*
G01*
X152796100Y-91269600D02*
X151196100Y-91269600D01*
G75*
G02*
X151145100Y-91218600I0J51000D01*
G01*
X151145100Y-90918600D01*
G75*
G02*
X151196100Y-90867600I51000J0D01*
G01*
X152796100Y-90867600D01*
G75*
G02*
X152847100Y-90918600I0J-51000D01*
G01*
X152847100Y-91218600D01*
G75*
G02*
X152796100Y-91269600I-51000J0D01*
G01*
G37*
G36*
G01*
X152796100Y-92269600D02*
X151196100Y-92269600D01*
G75*
G02*
X151145100Y-92218600I0J51000D01*
G01*
X151145100Y-91918600D01*
G75*
G02*
X151196100Y-91867600I51000J0D01*
G01*
X152796100Y-91867600D01*
G75*
G02*
X152847100Y-91918600I0J-51000D01*
G01*
X152847100Y-92218600D01*
G75*
G02*
X152796100Y-92269600I-51000J0D01*
G01*
G37*
G36*
G01*
X152796100Y-91769600D02*
X151196100Y-91769600D01*
G75*
G02*
X151145100Y-91718600I0J51000D01*
G01*
X151145100Y-91418600D01*
G75*
G02*
X151196100Y-91367600I51000J0D01*
G01*
X152796100Y-91367600D01*
G75*
G02*
X152847100Y-91418600I0J-51000D01*
G01*
X152847100Y-91718600D01*
G75*
G02*
X152796100Y-91769600I-51000J0D01*
G01*
G37*
G36*
G01*
X152796100Y-92769600D02*
X151196100Y-92769600D01*
G75*
G02*
X151145100Y-92718600I0J51000D01*
G01*
X151145100Y-92418600D01*
G75*
G02*
X151196100Y-92367600I51000J0D01*
G01*
X152796100Y-92367600D01*
G75*
G02*
X152847100Y-92418600I0J-51000D01*
G01*
X152847100Y-92718600D01*
G75*
G02*
X152796100Y-92769600I-51000J0D01*
G01*
G37*
G36*
G01*
X152796100Y-93269600D02*
X151196100Y-93269600D01*
G75*
G02*
X151145100Y-93218600I0J51000D01*
G01*
X151145100Y-92918600D01*
G75*
G02*
X151196100Y-92867600I51000J0D01*
G01*
X152796100Y-92867600D01*
G75*
G02*
X152847100Y-92918600I0J-51000D01*
G01*
X152847100Y-93218600D01*
G75*
G02*
X152796100Y-93269600I-51000J0D01*
G01*
G37*
G36*
G01*
X152796100Y-93769600D02*
X151196100Y-93769600D01*
G75*
G02*
X151145100Y-93718600I0J51000D01*
G01*
X151145100Y-93418600D01*
G75*
G02*
X151196100Y-93367600I51000J0D01*
G01*
X152796100Y-93367600D01*
G75*
G02*
X152847100Y-93418600I0J-51000D01*
G01*
X152847100Y-93718600D01*
G75*
G02*
X152796100Y-93769600I-51000J0D01*
G01*
G37*
G36*
G01*
X152796100Y-94269600D02*
X151196100Y-94269600D01*
G75*
G02*
X151145100Y-94218600I0J51000D01*
G01*
X151145100Y-93918600D01*
G75*
G02*
X151196100Y-93867600I51000J0D01*
G01*
X152796100Y-93867600D01*
G75*
G02*
X152847100Y-93918600I0J-51000D01*
G01*
X152847100Y-94218600D01*
G75*
G02*
X152796100Y-94269600I-51000J0D01*
G01*
G37*
G36*
G01*
X150295100Y-96368600D02*
X150295100Y-94768600D01*
G75*
G02*
X150346100Y-94717600I51000J0D01*
G01*
X150646100Y-94717600D01*
G75*
G02*
X150697100Y-94768600I0J-51000D01*
G01*
X150697100Y-96368600D01*
G75*
G02*
X150646100Y-96419600I-51000J0D01*
G01*
X150346100Y-96419600D01*
G75*
G02*
X150295100Y-96368600I0J51000D01*
G01*
G37*
G36*
G01*
X149795100Y-96368600D02*
X149795100Y-94768600D01*
G75*
G02*
X149846100Y-94717600I51000J0D01*
G01*
X150146100Y-94717600D01*
G75*
G02*
X150197100Y-94768600I0J-51000D01*
G01*
X150197100Y-96368600D01*
G75*
G02*
X150146100Y-96419600I-51000J0D01*
G01*
X149846100Y-96419600D01*
G75*
G02*
X149795100Y-96368600I0J51000D01*
G01*
G37*
G36*
G01*
X149295100Y-96368600D02*
X149295100Y-94768600D01*
G75*
G02*
X149346100Y-94717600I51000J0D01*
G01*
X149646100Y-94717600D01*
G75*
G02*
X149697100Y-94768600I0J-51000D01*
G01*
X149697100Y-96368600D01*
G75*
G02*
X149646100Y-96419600I-51000J0D01*
G01*
X149346100Y-96419600D01*
G75*
G02*
X149295100Y-96368600I0J51000D01*
G01*
G37*
G36*
G01*
X148795100Y-96368600D02*
X148795100Y-94768600D01*
G75*
G02*
X148846100Y-94717600I51000J0D01*
G01*
X149146100Y-94717600D01*
G75*
G02*
X149197100Y-94768600I0J-51000D01*
G01*
X149197100Y-96368600D01*
G75*
G02*
X149146100Y-96419600I-51000J0D01*
G01*
X148846100Y-96419600D01*
G75*
G02*
X148795100Y-96368600I0J51000D01*
G01*
G37*
G36*
G01*
X148295100Y-96368600D02*
X148295100Y-94768600D01*
G75*
G02*
X148346100Y-94717600I51000J0D01*
G01*
X148646100Y-94717600D01*
G75*
G02*
X148697100Y-94768600I0J-51000D01*
G01*
X148697100Y-96368600D01*
G75*
G02*
X148646100Y-96419600I-51000J0D01*
G01*
X148346100Y-96419600D01*
G75*
G02*
X148295100Y-96368600I0J51000D01*
G01*
G37*
G36*
G01*
X147795100Y-96368600D02*
X147795100Y-94768600D01*
G75*
G02*
X147846100Y-94717600I51000J0D01*
G01*
X148146100Y-94717600D01*
G75*
G02*
X148197100Y-94768600I0J-51000D01*
G01*
X148197100Y-96368600D01*
G75*
G02*
X148146100Y-96419600I-51000J0D01*
G01*
X147846100Y-96419600D01*
G75*
G02*
X147795100Y-96368600I0J51000D01*
G01*
G37*
G36*
G01*
X147295100Y-96368600D02*
X147295100Y-94768600D01*
G75*
G02*
X147346100Y-94717600I51000J0D01*
G01*
X147646100Y-94717600D01*
G75*
G02*
X147697100Y-94768600I0J-51000D01*
G01*
X147697100Y-96368600D01*
G75*
G02*
X147646100Y-96419600I-51000J0D01*
G01*
X147346100Y-96419600D01*
G75*
G02*
X147295100Y-96368600I0J51000D01*
G01*
G37*
G36*
G01*
X146795100Y-96368600D02*
X146795100Y-94768600D01*
G75*
G02*
X146846100Y-94717600I51000J0D01*
G01*
X147146100Y-94717600D01*
G75*
G02*
X147197100Y-94768600I0J-51000D01*
G01*
X147197100Y-96368600D01*
G75*
G02*
X147146100Y-96419600I-51000J0D01*
G01*
X146846100Y-96419600D01*
G75*
G02*
X146795100Y-96368600I0J51000D01*
G01*
G37*
G36*
G01*
X146295100Y-96368600D02*
X146295100Y-94768600D01*
G75*
G02*
X146346100Y-94717600I51000J0D01*
G01*
X146646100Y-94717600D01*
G75*
G02*
X146697100Y-94768600I0J-51000D01*
G01*
X146697100Y-96368600D01*
G75*
G02*
X146646100Y-96419600I-51000J0D01*
G01*
X146346100Y-96419600D01*
G75*
G02*
X146295100Y-96368600I0J51000D01*
G01*
G37*
G36*
G01*
X145795100Y-96368600D02*
X145795100Y-94768600D01*
G75*
G02*
X145846100Y-94717600I51000J0D01*
G01*
X146146100Y-94717600D01*
G75*
G02*
X146197100Y-94768600I0J-51000D01*
G01*
X146197100Y-96368600D01*
G75*
G02*
X146146100Y-96419600I-51000J0D01*
G01*
X145846100Y-96419600D01*
G75*
G02*
X145795100Y-96368600I0J51000D01*
G01*
G37*
G36*
G01*
X145295100Y-96368600D02*
X145295100Y-94768600D01*
G75*
G02*
X145346100Y-94717600I51000J0D01*
G01*
X145646100Y-94717600D01*
G75*
G02*
X145697100Y-94768600I0J-51000D01*
G01*
X145697100Y-96368600D01*
G75*
G02*
X145646100Y-96419600I-51000J0D01*
G01*
X145346100Y-96419600D01*
G75*
G02*
X145295100Y-96368600I0J51000D01*
G01*
G37*
G36*
G01*
X144795100Y-96368600D02*
X144795100Y-94768600D01*
G75*
G02*
X144846100Y-94717600I51000J0D01*
G01*
X145146100Y-94717600D01*
G75*
G02*
X145197100Y-94768600I0J-51000D01*
G01*
X145197100Y-96368600D01*
G75*
G02*
X145146100Y-96419600I-51000J0D01*
G01*
X144846100Y-96419600D01*
G75*
G02*
X144795100Y-96368600I0J51000D01*
G01*
G37*
G36*
G01*
X142696100Y-93867600D02*
X144296100Y-93867600D01*
G75*
G02*
X144347100Y-93918600I0J-51000D01*
G01*
X144347100Y-94218600D01*
G75*
G02*
X144296100Y-94269600I-51000J0D01*
G01*
X142696100Y-94269600D01*
G75*
G02*
X142645100Y-94218600I0J51000D01*
G01*
X142645100Y-93918600D01*
G75*
G02*
X142696100Y-93867600I51000J0D01*
G01*
G37*
G36*
G01*
X142696100Y-93367600D02*
X144296100Y-93367600D01*
G75*
G02*
X144347100Y-93418600I0J-51000D01*
G01*
X144347100Y-93718600D01*
G75*
G02*
X144296100Y-93769600I-51000J0D01*
G01*
X142696100Y-93769600D01*
G75*
G02*
X142645100Y-93718600I0J51000D01*
G01*
X142645100Y-93418600D01*
G75*
G02*
X142696100Y-93367600I51000J0D01*
G01*
G37*
G36*
G01*
X142696100Y-92867600D02*
X144296100Y-92867600D01*
G75*
G02*
X144347100Y-92918600I0J-51000D01*
G01*
X144347100Y-93218600D01*
G75*
G02*
X144296100Y-93269600I-51000J0D01*
G01*
X142696100Y-93269600D01*
G75*
G02*
X142645100Y-93218600I0J51000D01*
G01*
X142645100Y-92918600D01*
G75*
G02*
X142696100Y-92867600I51000J0D01*
G01*
G37*
G36*
G01*
X142696100Y-92367600D02*
X144296100Y-92367600D01*
G75*
G02*
X144347100Y-92418600I0J-51000D01*
G01*
X144347100Y-92718600D01*
G75*
G02*
X144296100Y-92769600I-51000J0D01*
G01*
X142696100Y-92769600D01*
G75*
G02*
X142645100Y-92718600I0J51000D01*
G01*
X142645100Y-92418600D01*
G75*
G02*
X142696100Y-92367600I51000J0D01*
G01*
G37*
G36*
G01*
X142696100Y-91867600D02*
X144296100Y-91867600D01*
G75*
G02*
X144347100Y-91918600I0J-51000D01*
G01*
X144347100Y-92218600D01*
G75*
G02*
X144296100Y-92269600I-51000J0D01*
G01*
X142696100Y-92269600D01*
G75*
G02*
X142645100Y-92218600I0J51000D01*
G01*
X142645100Y-91918600D01*
G75*
G02*
X142696100Y-91867600I51000J0D01*
G01*
G37*
G36*
G01*
X142696100Y-91367600D02*
X144296100Y-91367600D01*
G75*
G02*
X144347100Y-91418600I0J-51000D01*
G01*
X144347100Y-91718600D01*
G75*
G02*
X144296100Y-91769600I-51000J0D01*
G01*
X142696100Y-91769600D01*
G75*
G02*
X142645100Y-91718600I0J51000D01*
G01*
X142645100Y-91418600D01*
G75*
G02*
X142696100Y-91367600I51000J0D01*
G01*
G37*
G36*
G01*
X142696100Y-90867600D02*
X144296100Y-90867600D01*
G75*
G02*
X144347100Y-90918600I0J-51000D01*
G01*
X144347100Y-91218600D01*
G75*
G02*
X144296100Y-91269600I-51000J0D01*
G01*
X142696100Y-91269600D01*
G75*
G02*
X142645100Y-91218600I0J51000D01*
G01*
X142645100Y-90918600D01*
G75*
G02*
X142696100Y-90867600I51000J0D01*
G01*
G37*
G36*
G01*
X142696100Y-90367600D02*
X144296100Y-90367600D01*
G75*
G02*
X144347100Y-90418600I0J-51000D01*
G01*
X144347100Y-90718600D01*
G75*
G02*
X144296100Y-90769600I-51000J0D01*
G01*
X142696100Y-90769600D01*
G75*
G02*
X142645100Y-90718600I0J51000D01*
G01*
X142645100Y-90418600D01*
G75*
G02*
X142696100Y-90367600I51000J0D01*
G01*
G37*
G36*
G01*
X142696100Y-89867600D02*
X144296100Y-89867600D01*
G75*
G02*
X144347100Y-89918600I0J-51000D01*
G01*
X144347100Y-90218600D01*
G75*
G02*
X144296100Y-90269600I-51000J0D01*
G01*
X142696100Y-90269600D01*
G75*
G02*
X142645100Y-90218600I0J51000D01*
G01*
X142645100Y-89918600D01*
G75*
G02*
X142696100Y-89867600I51000J0D01*
G01*
G37*
G36*
G01*
X142696100Y-89367600D02*
X144296100Y-89367600D01*
G75*
G02*
X144347100Y-89418600I0J-51000D01*
G01*
X144347100Y-89718600D01*
G75*
G02*
X144296100Y-89769600I-51000J0D01*
G01*
X142696100Y-89769600D01*
G75*
G02*
X142645100Y-89718600I0J51000D01*
G01*
X142645100Y-89418600D01*
G75*
G02*
X142696100Y-89367600I51000J0D01*
G01*
G37*
G36*
G01*
X142696100Y-88867600D02*
X144296100Y-88867600D01*
G75*
G02*
X144347100Y-88918600I0J-51000D01*
G01*
X144347100Y-89218600D01*
G75*
G02*
X144296100Y-89269600I-51000J0D01*
G01*
X142696100Y-89269600D01*
G75*
G02*
X142645100Y-89218600I0J51000D01*
G01*
X142645100Y-88918600D01*
G75*
G02*
X142696100Y-88867600I51000J0D01*
G01*
G37*
G36*
G01*
X142696100Y-88367600D02*
X144296100Y-88367600D01*
G75*
G02*
X144347100Y-88418600I0J-51000D01*
G01*
X144347100Y-88718600D01*
G75*
G02*
X144296100Y-88769600I-51000J0D01*
G01*
X142696100Y-88769600D01*
G75*
G02*
X142645100Y-88718600I0J51000D01*
G01*
X142645100Y-88418600D01*
G75*
G02*
X142696100Y-88367600I51000J0D01*
G01*
G37*
D13*
X161001100Y-138503600D03*
X161001100Y-71503600D03*
X136001100Y-71503600D03*
X135991600Y-138506200D03*
G36*
G01*
X142599600Y-127537700D02*
X142599600Y-128259500D01*
G75*
G02*
X142559500Y-128299600I-40100J0D01*
G01*
X141637700Y-128299600D01*
G75*
G02*
X141597600Y-128259500I0J40100D01*
G01*
X141597600Y-127537700D01*
G75*
G02*
X141637700Y-127497600I40100J0D01*
G01*
X142559500Y-127497600D01*
G75*
G02*
X142599600Y-127537700I0J-40100D01*
G01*
G37*
G36*
G01*
X143899600Y-127537700D02*
X143899600Y-128259500D01*
G75*
G02*
X143859500Y-128299600I-40100J0D01*
G01*
X142937700Y-128299600D01*
G75*
G02*
X142897600Y-128259500I0J40100D01*
G01*
X142897600Y-127537700D01*
G75*
G02*
X142937700Y-127497600I40100J0D01*
G01*
X143859500Y-127497600D01*
G75*
G02*
X143899600Y-127537700I0J-40100D01*
G01*
G37*
G36*
G01*
X142599600Y-131347700D02*
X142599600Y-132069500D01*
G75*
G02*
X142559500Y-132109600I-40100J0D01*
G01*
X141637700Y-132109600D01*
G75*
G02*
X141597600Y-132069500I0J40100D01*
G01*
X141597600Y-131347700D01*
G75*
G02*
X141637700Y-131307600I40100J0D01*
G01*
X142559500Y-131307600D01*
G75*
G02*
X142599600Y-131347700I0J-40100D01*
G01*
G37*
G36*
G01*
X143899600Y-131347700D02*
X143899600Y-132069500D01*
G75*
G02*
X143859500Y-132109600I-40100J0D01*
G01*
X142937700Y-132109600D01*
G75*
G02*
X142897600Y-132069500I0J40100D01*
G01*
X142897600Y-131347700D01*
G75*
G02*
X142937700Y-131307600I40100J0D01*
G01*
X143859500Y-131307600D01*
G75*
G02*
X143899600Y-131347700I0J-40100D01*
G01*
G37*
G36*
G01*
X156232600Y-132704500D02*
X156232600Y-131982700D01*
G75*
G02*
X156272700Y-131942600I40100J0D01*
G01*
X157194500Y-131942600D01*
G75*
G02*
X157234600Y-131982700I0J-40100D01*
G01*
X157234600Y-132704500D01*
G75*
G02*
X157194500Y-132744600I-40100J0D01*
G01*
X156272700Y-132744600D01*
G75*
G02*
X156232600Y-132704500I0J40100D01*
G01*
G37*
G36*
G01*
X154932600Y-132704500D02*
X154932600Y-131982700D01*
G75*
G02*
X154972700Y-131942600I40100J0D01*
G01*
X155894500Y-131942600D01*
G75*
G02*
X155934600Y-131982700I0J-40100D01*
G01*
X155934600Y-132704500D01*
G75*
G02*
X155894500Y-132744600I-40100J0D01*
G01*
X154972700Y-132744600D01*
G75*
G02*
X154932600Y-132704500I0J40100D01*
G01*
G37*
G36*
G01*
X142599600Y-135157700D02*
X142599600Y-135879500D01*
G75*
G02*
X142559500Y-135919600I-40100J0D01*
G01*
X141637700Y-135919600D01*
G75*
G02*
X141597600Y-135879500I0J40100D01*
G01*
X141597600Y-135157700D01*
G75*
G02*
X141637700Y-135117600I40100J0D01*
G01*
X142559500Y-135117600D01*
G75*
G02*
X142599600Y-135157700I0J-40100D01*
G01*
G37*
G36*
G01*
X143899600Y-135157700D02*
X143899600Y-135879500D01*
G75*
G02*
X143859500Y-135919600I-40100J0D01*
G01*
X142937700Y-135919600D01*
G75*
G02*
X142897600Y-135879500I0J40100D01*
G01*
X142897600Y-135157700D01*
G75*
G02*
X142937700Y-135117600I40100J0D01*
G01*
X143859500Y-135117600D01*
G75*
G02*
X143899600Y-135157700I0J-40100D01*
G01*
G37*
G36*
G01*
X142079200Y-113474000D02*
X142720800Y-113474000D01*
G75*
G02*
X142801000Y-113554200I0J-80200D01*
G01*
X142801000Y-114245800D01*
G75*
G02*
X142720800Y-114326000I-80200J0D01*
G01*
X142079200Y-114326000D01*
G75*
G02*
X141999000Y-114245800I0J80200D01*
G01*
X141999000Y-113554200D01*
G75*
G02*
X142079200Y-113474000I80200J0D01*
G01*
G37*
G36*
G01*
X143079200Y-113474000D02*
X143720800Y-113474000D01*
G75*
G02*
X143801000Y-113554200I0J-80200D01*
G01*
X143801000Y-114245800D01*
G75*
G02*
X143720800Y-114326000I-80200J0D01*
G01*
X143079200Y-114326000D01*
G75*
G02*
X142999000Y-114245800I0J80200D01*
G01*
X142999000Y-113554200D01*
G75*
G02*
X143079200Y-113474000I80200J0D01*
G01*
G37*
G36*
G01*
X143826000Y-110979200D02*
X143826000Y-111620800D01*
G75*
G02*
X143745800Y-111701000I-80200J0D01*
G01*
X143054200Y-111701000D01*
G75*
G02*
X142974000Y-111620800I0J80200D01*
G01*
X142974000Y-110979200D01*
G75*
G02*
X143054200Y-110899000I80200J0D01*
G01*
X143745800Y-110899000D01*
G75*
G02*
X143826000Y-110979200I0J-80200D01*
G01*
G37*
G36*
G01*
X143826000Y-111979200D02*
X143826000Y-112620800D01*
G75*
G02*
X143745800Y-112701000I-80200J0D01*
G01*
X143054200Y-112701000D01*
G75*
G02*
X142974000Y-112620800I0J80200D01*
G01*
X142974000Y-111979200D01*
G75*
G02*
X143054200Y-111899000I80200J0D01*
G01*
X143745800Y-111899000D01*
G75*
G02*
X143826000Y-111979200I0J-80200D01*
G01*
G37*
G36*
G01*
X153870800Y-98726000D02*
X153229200Y-98726000D01*
G75*
G02*
X153149000Y-98645800I0J80200D01*
G01*
X153149000Y-97954200D01*
G75*
G02*
X153229200Y-97874000I80200J0D01*
G01*
X153870800Y-97874000D01*
G75*
G02*
X153951000Y-97954200I0J-80200D01*
G01*
X153951000Y-98645800D01*
G75*
G02*
X153870800Y-98726000I-80200J0D01*
G01*
G37*
G36*
G01*
X152870800Y-98726000D02*
X152229200Y-98726000D01*
G75*
G02*
X152149000Y-98645800I0J80200D01*
G01*
X152149000Y-97954200D01*
G75*
G02*
X152229200Y-97874000I80200J0D01*
G01*
X152870800Y-97874000D01*
G75*
G02*
X152951000Y-97954200I0J-80200D01*
G01*
X152951000Y-98645800D01*
G75*
G02*
X152870800Y-98726000I-80200J0D01*
G01*
G37*
G36*
G01*
X153870800Y-101326000D02*
X153229200Y-101326000D01*
G75*
G02*
X153149000Y-101245800I0J80200D01*
G01*
X153149000Y-100554200D01*
G75*
G02*
X153229200Y-100474000I80200J0D01*
G01*
X153870800Y-100474000D01*
G75*
G02*
X153951000Y-100554200I0J-80200D01*
G01*
X153951000Y-101245800D01*
G75*
G02*
X153870800Y-101326000I-80200J0D01*
G01*
G37*
G36*
G01*
X152870800Y-101326000D02*
X152229200Y-101326000D01*
G75*
G02*
X152149000Y-101245800I0J80200D01*
G01*
X152149000Y-100554200D01*
G75*
G02*
X152229200Y-100474000I80200J0D01*
G01*
X152870800Y-100474000D01*
G75*
G02*
X152951000Y-100554200I0J-80200D01*
G01*
X152951000Y-101245800D01*
G75*
G02*
X152870800Y-101326000I-80200J0D01*
G01*
G37*
G36*
G01*
X153870800Y-100026000D02*
X153229200Y-100026000D01*
G75*
G02*
X153149000Y-99945800I0J80200D01*
G01*
X153149000Y-99254200D01*
G75*
G02*
X153229200Y-99174000I80200J0D01*
G01*
X153870800Y-99174000D01*
G75*
G02*
X153951000Y-99254200I0J-80200D01*
G01*
X153951000Y-99945800D01*
G75*
G02*
X153870800Y-100026000I-80200J0D01*
G01*
G37*
G36*
G01*
X152870800Y-100026000D02*
X152229200Y-100026000D01*
G75*
G02*
X152149000Y-99945800I0J80200D01*
G01*
X152149000Y-99254200D01*
G75*
G02*
X152229200Y-99174000I80200J0D01*
G01*
X152870800Y-99174000D01*
G75*
G02*
X152951000Y-99254200I0J-80200D01*
G01*
X152951000Y-99945800D01*
G75*
G02*
X152870800Y-100026000I-80200J0D01*
G01*
G37*
G36*
G01*
X153870800Y-97426000D02*
X153229200Y-97426000D01*
G75*
G02*
X153149000Y-97345800I0J80200D01*
G01*
X153149000Y-96654200D01*
G75*
G02*
X153229200Y-96574000I80200J0D01*
G01*
X153870800Y-96574000D01*
G75*
G02*
X153951000Y-96654200I0J-80200D01*
G01*
X153951000Y-97345800D01*
G75*
G02*
X153870800Y-97426000I-80200J0D01*
G01*
G37*
G36*
G01*
X152870800Y-97426000D02*
X152229200Y-97426000D01*
G75*
G02*
X152149000Y-97345800I0J80200D01*
G01*
X152149000Y-96654200D01*
G75*
G02*
X152229200Y-96574000I80200J0D01*
G01*
X152870800Y-96574000D01*
G75*
G02*
X152951000Y-96654200I0J-80200D01*
G01*
X152951000Y-97345800D01*
G75*
G02*
X152870800Y-97426000I-80200J0D01*
G01*
G37*
G36*
G01*
X156904400Y-134357100D02*
X156262800Y-134357100D01*
G75*
G02*
X156182600Y-134276900I0J80200D01*
G01*
X156182600Y-133585300D01*
G75*
G02*
X156262800Y-133505100I80200J0D01*
G01*
X156904400Y-133505100D01*
G75*
G02*
X156984600Y-133585300I0J-80200D01*
G01*
X156984600Y-134276900D01*
G75*
G02*
X156904400Y-134357100I-80200J0D01*
G01*
G37*
G36*
G01*
X155904400Y-134357100D02*
X155262800Y-134357100D01*
G75*
G02*
X155182600Y-134276900I0J80200D01*
G01*
X155182600Y-133585300D01*
G75*
G02*
X155262800Y-133505100I80200J0D01*
G01*
X155904400Y-133505100D01*
G75*
G02*
X155984600Y-133585300I0J-80200D01*
G01*
X155984600Y-134276900D01*
G75*
G02*
X155904400Y-134357100I-80200J0D01*
G01*
G37*
G36*
G01*
X141927800Y-136680100D02*
X142569400Y-136680100D01*
G75*
G02*
X142649600Y-136760300I0J-80200D01*
G01*
X142649600Y-137451900D01*
G75*
G02*
X142569400Y-137532100I-80200J0D01*
G01*
X141927800Y-137532100D01*
G75*
G02*
X141847600Y-137451900I0J80200D01*
G01*
X141847600Y-136760300D01*
G75*
G02*
X141927800Y-136680100I80200J0D01*
G01*
G37*
G36*
G01*
X142927800Y-136680100D02*
X143569400Y-136680100D01*
G75*
G02*
X143649600Y-136760300I0J-80200D01*
G01*
X143649600Y-137451900D01*
G75*
G02*
X143569400Y-137532100I-80200J0D01*
G01*
X142927800Y-137532100D01*
G75*
G02*
X142847600Y-137451900I0J80200D01*
G01*
X142847600Y-136760300D01*
G75*
G02*
X142927800Y-136680100I80200J0D01*
G01*
G37*
G36*
G01*
X141927800Y-132870100D02*
X142569400Y-132870100D01*
G75*
G02*
X142649600Y-132950300I0J-80200D01*
G01*
X142649600Y-133641900D01*
G75*
G02*
X142569400Y-133722100I-80200J0D01*
G01*
X141927800Y-133722100D01*
G75*
G02*
X141847600Y-133641900I0J80200D01*
G01*
X141847600Y-132950300D01*
G75*
G02*
X141927800Y-132870100I80200J0D01*
G01*
G37*
G36*
G01*
X142927800Y-132870100D02*
X143569400Y-132870100D01*
G75*
G02*
X143649600Y-132950300I0J-80200D01*
G01*
X143649600Y-133641900D01*
G75*
G02*
X143569400Y-133722100I-80200J0D01*
G01*
X142927800Y-133722100D01*
G75*
G02*
X142847600Y-133641900I0J80200D01*
G01*
X142847600Y-132950300D01*
G75*
G02*
X142927800Y-132870100I80200J0D01*
G01*
G37*
G36*
G01*
X141927800Y-129060100D02*
X142569400Y-129060100D01*
G75*
G02*
X142649600Y-129140300I0J-80200D01*
G01*
X142649600Y-129831900D01*
G75*
G02*
X142569400Y-129912100I-80200J0D01*
G01*
X141927800Y-129912100D01*
G75*
G02*
X141847600Y-129831900I0J80200D01*
G01*
X141847600Y-129140300D01*
G75*
G02*
X141927800Y-129060100I80200J0D01*
G01*
G37*
G36*
G01*
X142927800Y-129060100D02*
X143569400Y-129060100D01*
G75*
G02*
X143649600Y-129140300I0J-80200D01*
G01*
X143649600Y-129831900D01*
G75*
G02*
X143569400Y-129912100I-80200J0D01*
G01*
X142927800Y-129912100D01*
G75*
G02*
X142847600Y-129831900I0J80200D01*
G01*
X142847600Y-129140300D01*
G75*
G02*
X142927800Y-129060100I80200J0D01*
G01*
G37*
G36*
G01*
X156869200Y-88604000D02*
X157510800Y-88604000D01*
G75*
G02*
X157591000Y-88684200I0J-80200D01*
G01*
X157591000Y-89375800D01*
G75*
G02*
X157510800Y-89456000I-80200J0D01*
G01*
X156869200Y-89456000D01*
G75*
G02*
X156789000Y-89375800I0J80200D01*
G01*
X156789000Y-88684200D01*
G75*
G02*
X156869200Y-88604000I80200J0D01*
G01*
G37*
G36*
G01*
X157869200Y-88604000D02*
X158510800Y-88604000D01*
G75*
G02*
X158591000Y-88684200I0J-80200D01*
G01*
X158591000Y-89375800D01*
G75*
G02*
X158510800Y-89456000I-80200J0D01*
G01*
X157869200Y-89456000D01*
G75*
G02*
X157789000Y-89375800I0J80200D01*
G01*
X157789000Y-88684200D01*
G75*
G02*
X157869200Y-88604000I80200J0D01*
G01*
G37*
G36*
G01*
X138195100Y-92524400D02*
X138195100Y-91882800D01*
G75*
G02*
X138275300Y-91802600I80200J0D01*
G01*
X138966900Y-91802600D01*
G75*
G02*
X139047100Y-91882800I0J-80200D01*
G01*
X139047100Y-92524400D01*
G75*
G02*
X138966900Y-92604600I-80200J0D01*
G01*
X138275300Y-92604600D01*
G75*
G02*
X138195100Y-92524400I0J80200D01*
G01*
G37*
G36*
G01*
X138195100Y-91524400D02*
X138195100Y-90882800D01*
G75*
G02*
X138275300Y-90802600I80200J0D01*
G01*
X138966900Y-90802600D01*
G75*
G02*
X139047100Y-90882800I0J-80200D01*
G01*
X139047100Y-91524400D01*
G75*
G02*
X138966900Y-91604600I-80200J0D01*
G01*
X138275300Y-91604600D01*
G75*
G02*
X138195100Y-91524400I0J80200D01*
G01*
G37*
G36*
G01*
X145420300Y-81752600D02*
X146061900Y-81752600D01*
G75*
G02*
X146142100Y-81832800I0J-80200D01*
G01*
X146142100Y-82524400D01*
G75*
G02*
X146061900Y-82604600I-80200J0D01*
G01*
X145420300Y-82604600D01*
G75*
G02*
X145340100Y-82524400I0J80200D01*
G01*
X145340100Y-81832800D01*
G75*
G02*
X145420300Y-81752600I80200J0D01*
G01*
G37*
G36*
G01*
X146420300Y-81752600D02*
X147061900Y-81752600D01*
G75*
G02*
X147142100Y-81832800I0J-80200D01*
G01*
X147142100Y-82524400D01*
G75*
G02*
X147061900Y-82604600I-80200J0D01*
G01*
X146420300Y-82604600D01*
G75*
G02*
X146340100Y-82524400I0J80200D01*
G01*
X146340100Y-81832800D01*
G75*
G02*
X146420300Y-81752600I80200J0D01*
G01*
G37*
G36*
G01*
X140100100Y-92524400D02*
X140100100Y-91882800D01*
G75*
G02*
X140180300Y-91802600I80200J0D01*
G01*
X140871900Y-91802600D01*
G75*
G02*
X140952100Y-91882800I0J-80200D01*
G01*
X140952100Y-92524400D01*
G75*
G02*
X140871900Y-92604600I-80200J0D01*
G01*
X140180300Y-92604600D01*
G75*
G02*
X140100100Y-92524400I0J80200D01*
G01*
G37*
G36*
G01*
X140100100Y-91524400D02*
X140100100Y-90882800D01*
G75*
G02*
X140180300Y-90802600I80200J0D01*
G01*
X140871900Y-90802600D01*
G75*
G02*
X140952100Y-90882800I0J-80200D01*
G01*
X140952100Y-91524400D01*
G75*
G02*
X140871900Y-91604600I-80200J0D01*
G01*
X140180300Y-91604600D01*
G75*
G02*
X140100100Y-91524400I0J80200D01*
G01*
G37*
G36*
G01*
X153017100Y-85485300D02*
X153017100Y-86126900D01*
G75*
G02*
X152936900Y-86207100I-80200J0D01*
G01*
X152245300Y-86207100D01*
G75*
G02*
X152165100Y-86126900I0J80200D01*
G01*
X152165100Y-85485300D01*
G75*
G02*
X152245300Y-85405100I80200J0D01*
G01*
X152936900Y-85405100D01*
G75*
G02*
X153017100Y-85485300I0J-80200D01*
G01*
G37*
G36*
G01*
X153017100Y-86485300D02*
X153017100Y-87126900D01*
G75*
G02*
X152936900Y-87207100I-80200J0D01*
G01*
X152245300Y-87207100D01*
G75*
G02*
X152165100Y-87126900I0J80200D01*
G01*
X152165100Y-86485300D01*
G75*
G02*
X152245300Y-86405100I80200J0D01*
G01*
X152936900Y-86405100D01*
G75*
G02*
X153017100Y-86485300I0J-80200D01*
G01*
G37*
G36*
G01*
X143499000Y-98845800D02*
X143499000Y-98204200D01*
G75*
G02*
X143579200Y-98124000I80200J0D01*
G01*
X144270800Y-98124000D01*
G75*
G02*
X144351000Y-98204200I0J-80200D01*
G01*
X144351000Y-98845800D01*
G75*
G02*
X144270800Y-98926000I-80200J0D01*
G01*
X143579200Y-98926000D01*
G75*
G02*
X143499000Y-98845800I0J80200D01*
G01*
G37*
G36*
G01*
X143499000Y-97845800D02*
X143499000Y-97204200D01*
G75*
G02*
X143579200Y-97124000I80200J0D01*
G01*
X144270800Y-97124000D01*
G75*
G02*
X144351000Y-97204200I0J-80200D01*
G01*
X144351000Y-97845800D01*
G75*
G02*
X144270800Y-97926000I-80200J0D01*
G01*
X143579200Y-97926000D01*
G75*
G02*
X143499000Y-97845800I0J80200D01*
G01*
G37*
G36*
G01*
X137800300Y-88102600D02*
X138441900Y-88102600D01*
G75*
G02*
X138522100Y-88182800I0J-80200D01*
G01*
X138522100Y-88874400D01*
G75*
G02*
X138441900Y-88954600I-80200J0D01*
G01*
X137800300Y-88954600D01*
G75*
G02*
X137720100Y-88874400I0J80200D01*
G01*
X137720100Y-88182800D01*
G75*
G02*
X137800300Y-88102600I80200J0D01*
G01*
G37*
G36*
G01*
X138800300Y-88102600D02*
X139441900Y-88102600D01*
G75*
G02*
X139522100Y-88182800I0J-80200D01*
G01*
X139522100Y-88874400D01*
G75*
G02*
X139441900Y-88954600I-80200J0D01*
G01*
X138800300Y-88954600D01*
G75*
G02*
X138720100Y-88874400I0J80200D01*
G01*
X138720100Y-88182800D01*
G75*
G02*
X138800300Y-88102600I80200J0D01*
G01*
G37*
G36*
G01*
X137800300Y-85562600D02*
X138441900Y-85562600D01*
G75*
G02*
X138522100Y-85642800I0J-80200D01*
G01*
X138522100Y-86334400D01*
G75*
G02*
X138441900Y-86414600I-80200J0D01*
G01*
X137800300Y-86414600D01*
G75*
G02*
X137720100Y-86334400I0J80200D01*
G01*
X137720100Y-85642800D01*
G75*
G02*
X137800300Y-85562600I80200J0D01*
G01*
G37*
G36*
G01*
X138800300Y-85562600D02*
X139441900Y-85562600D01*
G75*
G02*
X139522100Y-85642800I0J-80200D01*
G01*
X139522100Y-86334400D01*
G75*
G02*
X139441900Y-86414600I-80200J0D01*
G01*
X138800300Y-86414600D01*
G75*
G02*
X138720100Y-86334400I0J80200D01*
G01*
X138720100Y-85642800D01*
G75*
G02*
X138800300Y-85562600I80200J0D01*
G01*
G37*
G36*
G01*
X150236900Y-84509600D02*
X149595300Y-84509600D01*
G75*
G02*
X149515100Y-84429400I0J80200D01*
G01*
X149515100Y-83737800D01*
G75*
G02*
X149595300Y-83657600I80200J0D01*
G01*
X150236900Y-83657600D01*
G75*
G02*
X150317100Y-83737800I0J-80200D01*
G01*
X150317100Y-84429400D01*
G75*
G02*
X150236900Y-84509600I-80200J0D01*
G01*
G37*
G36*
G01*
X149236900Y-84509600D02*
X148595300Y-84509600D01*
G75*
G02*
X148515100Y-84429400I0J80200D01*
G01*
X148515100Y-83737800D01*
G75*
G02*
X148595300Y-83657600I80200J0D01*
G01*
X149236900Y-83657600D01*
G75*
G02*
X149317100Y-83737800I0J-80200D01*
G01*
X149317100Y-84429400D01*
G75*
G02*
X149236900Y-84509600I-80200J0D01*
G01*
G37*
G36*
G01*
X145420300Y-83657600D02*
X146061900Y-83657600D01*
G75*
G02*
X146142100Y-83737800I0J-80200D01*
G01*
X146142100Y-84429400D01*
G75*
G02*
X146061900Y-84509600I-80200J0D01*
G01*
X145420300Y-84509600D01*
G75*
G02*
X145340100Y-84429400I0J80200D01*
G01*
X145340100Y-83737800D01*
G75*
G02*
X145420300Y-83657600I80200J0D01*
G01*
G37*
G36*
G01*
X146420300Y-83657600D02*
X147061900Y-83657600D01*
G75*
G02*
X147142100Y-83737800I0J-80200D01*
G01*
X147142100Y-84429400D01*
G75*
G02*
X147061900Y-84509600I-80200J0D01*
G01*
X146420300Y-84509600D01*
G75*
G02*
X146340100Y-84429400I0J80200D01*
G01*
X146340100Y-83737800D01*
G75*
G02*
X146420300Y-83657600I80200J0D01*
G01*
G37*
D14*
G36*
X142662412Y-136678686D02*
G01*
X142670573Y-136686847D01*
X142690620Y-136700243D01*
X142712893Y-136709470D01*
X142736543Y-136714175D01*
X142760649Y-136714175D01*
X142784300Y-136709472D01*
X142806574Y-136700246D01*
X142826622Y-136686852D01*
X142834788Y-136678686D01*
X142836202Y-136678100D01*
X142927800Y-136678100D01*
X142929532Y-136679100D01*
X142929532Y-136681100D01*
X142927996Y-136682090D01*
X142912549Y-136683611D01*
X142897878Y-136688062D01*
X142884359Y-136695287D01*
X142872511Y-136705011D01*
X142862787Y-136716859D01*
X142855562Y-136730378D01*
X142851111Y-136745049D01*
X142849600Y-136760394D01*
X142849600Y-137451806D01*
X142851111Y-137467151D01*
X142855562Y-137481822D01*
X142862787Y-137495341D01*
X142872511Y-137507189D01*
X142884359Y-137516913D01*
X142897878Y-137524138D01*
X142912549Y-137528589D01*
X142927996Y-137530110D01*
X142929622Y-137531275D01*
X142929426Y-137533265D01*
X142927800Y-137534100D01*
X142836202Y-137534100D01*
X142834788Y-137533514D01*
X142826627Y-137525353D01*
X142806580Y-137511957D01*
X142784307Y-137502730D01*
X142760657Y-137498025D01*
X142736551Y-137498025D01*
X142712900Y-137502728D01*
X142690626Y-137511954D01*
X142670578Y-137525348D01*
X142662412Y-137533514D01*
X142660998Y-137534100D01*
X142569400Y-137534100D01*
X142567668Y-137533100D01*
X142567668Y-137531100D01*
X142569204Y-137530110D01*
X142584651Y-137528589D01*
X142599322Y-137524138D01*
X142612841Y-137516913D01*
X142624689Y-137507189D01*
X142634413Y-137495341D01*
X142641638Y-137481822D01*
X142646089Y-137467151D01*
X142647600Y-137451806D01*
X142647600Y-136760394D01*
X142646089Y-136745049D01*
X142641638Y-136730378D01*
X142634413Y-136716859D01*
X142624689Y-136705011D01*
X142612841Y-136695287D01*
X142599322Y-136688062D01*
X142584651Y-136683611D01*
X142569204Y-136682090D01*
X142567578Y-136680925D01*
X142567774Y-136678935D01*
X142569400Y-136678100D01*
X142660998Y-136678100D01*
X142662412Y-136678686D01*
G37*
G36*
X155997412Y-133503686D02*
G01*
X156005573Y-133511847D01*
X156025620Y-133525243D01*
X156047893Y-133534470D01*
X156071543Y-133539175D01*
X156095649Y-133539175D01*
X156119300Y-133534472D01*
X156141574Y-133525246D01*
X156161622Y-133511852D01*
X156169788Y-133503686D01*
X156171202Y-133503100D01*
X156262800Y-133503100D01*
X156264532Y-133504100D01*
X156264532Y-133506100D01*
X156262996Y-133507090D01*
X156247549Y-133508611D01*
X156232878Y-133513062D01*
X156219359Y-133520287D01*
X156207511Y-133530011D01*
X156197787Y-133541859D01*
X156190562Y-133555378D01*
X156186111Y-133570049D01*
X156184600Y-133585394D01*
X156184600Y-134276806D01*
X156186111Y-134292151D01*
X156190562Y-134306822D01*
X156197787Y-134320341D01*
X156207511Y-134332189D01*
X156219359Y-134341913D01*
X156232878Y-134349138D01*
X156247549Y-134353589D01*
X156262996Y-134355110D01*
X156264622Y-134356275D01*
X156264426Y-134358265D01*
X156262800Y-134359100D01*
X156171202Y-134359100D01*
X156169788Y-134358514D01*
X156161627Y-134350353D01*
X156141580Y-134336957D01*
X156119307Y-134327730D01*
X156095657Y-134323025D01*
X156071551Y-134323025D01*
X156047900Y-134327728D01*
X156025626Y-134336954D01*
X156005578Y-134350348D01*
X155997412Y-134358514D01*
X155995998Y-134359100D01*
X155904400Y-134359100D01*
X155902668Y-134358100D01*
X155902668Y-134356100D01*
X155904204Y-134355110D01*
X155919651Y-134353589D01*
X155934322Y-134349138D01*
X155947841Y-134341913D01*
X155959689Y-134332189D01*
X155969413Y-134320341D01*
X155976638Y-134306822D01*
X155981089Y-134292151D01*
X155982600Y-134276806D01*
X155982600Y-133585394D01*
X155981089Y-133570049D01*
X155976638Y-133555378D01*
X155969413Y-133541859D01*
X155959689Y-133530011D01*
X155947841Y-133520287D01*
X155934322Y-133513062D01*
X155919651Y-133508611D01*
X155904204Y-133507090D01*
X155902578Y-133505925D01*
X155902774Y-133503935D01*
X155904400Y-133503100D01*
X155995998Y-133503100D01*
X155997412Y-133503686D01*
G37*
G36*
X142662412Y-132868686D02*
G01*
X142670573Y-132876847D01*
X142690620Y-132890243D01*
X142712893Y-132899470D01*
X142736543Y-132904175D01*
X142760649Y-132904175D01*
X142784300Y-132899472D01*
X142806574Y-132890246D01*
X142826622Y-132876852D01*
X142834788Y-132868686D01*
X142836202Y-132868100D01*
X142927800Y-132868100D01*
X142929532Y-132869100D01*
X142929532Y-132871100D01*
X142927996Y-132872090D01*
X142912549Y-132873611D01*
X142897878Y-132878062D01*
X142884359Y-132885287D01*
X142872511Y-132895011D01*
X142862787Y-132906859D01*
X142855562Y-132920378D01*
X142851111Y-132935049D01*
X142849600Y-132950394D01*
X142849600Y-133641806D01*
X142851111Y-133657151D01*
X142855562Y-133671822D01*
X142862787Y-133685341D01*
X142872511Y-133697189D01*
X142884359Y-133706913D01*
X142897878Y-133714138D01*
X142912549Y-133718589D01*
X142927996Y-133720110D01*
X142929622Y-133721275D01*
X142929426Y-133723265D01*
X142927800Y-133724100D01*
X142836202Y-133724100D01*
X142834788Y-133723514D01*
X142826627Y-133715353D01*
X142806580Y-133701957D01*
X142784307Y-133692730D01*
X142760657Y-133688025D01*
X142736551Y-133688025D01*
X142712900Y-133692728D01*
X142690626Y-133701954D01*
X142670578Y-133715348D01*
X142662412Y-133723514D01*
X142660998Y-133724100D01*
X142569400Y-133724100D01*
X142567668Y-133723100D01*
X142567668Y-133721100D01*
X142569204Y-133720110D01*
X142584651Y-133718589D01*
X142599322Y-133714138D01*
X142612841Y-133706913D01*
X142624689Y-133697189D01*
X142634413Y-133685341D01*
X142641638Y-133671822D01*
X142646089Y-133657151D01*
X142647600Y-133641806D01*
X142647600Y-132950394D01*
X142646089Y-132935049D01*
X142641638Y-132920378D01*
X142634413Y-132906859D01*
X142624689Y-132895011D01*
X142612841Y-132885287D01*
X142599322Y-132878062D01*
X142584651Y-132873611D01*
X142569204Y-132872090D01*
X142567578Y-132870925D01*
X142567774Y-132868935D01*
X142569400Y-132868100D01*
X142660998Y-132868100D01*
X142662412Y-132868686D01*
G37*
G36*
X155913812Y-130572586D02*
G01*
X155921973Y-130580747D01*
X155942020Y-130594143D01*
X155964293Y-130603370D01*
X155987943Y-130608075D01*
X156012049Y-130608075D01*
X156035700Y-130603372D01*
X156057974Y-130594146D01*
X156078022Y-130580752D01*
X156086188Y-130572586D01*
X156087602Y-130572000D01*
X156179200Y-130572000D01*
X156180932Y-130573000D01*
X156180932Y-130575000D01*
X156179396Y-130575990D01*
X156163949Y-130577511D01*
X156149278Y-130581962D01*
X156135759Y-130589187D01*
X156123911Y-130598911D01*
X156114187Y-130610759D01*
X156106962Y-130624278D01*
X156102511Y-130638949D01*
X156101000Y-130654294D01*
X156101000Y-131345706D01*
X156102511Y-131361051D01*
X156106962Y-131375722D01*
X156114187Y-131389241D01*
X156123911Y-131401089D01*
X156135759Y-131410813D01*
X156149278Y-131418038D01*
X156163949Y-131422489D01*
X156179396Y-131424010D01*
X156181022Y-131425175D01*
X156180826Y-131427165D01*
X156179200Y-131428000D01*
X156087602Y-131428000D01*
X156086188Y-131427414D01*
X156078027Y-131419253D01*
X156057980Y-131405857D01*
X156035707Y-131396630D01*
X156012057Y-131391925D01*
X155987951Y-131391925D01*
X155964300Y-131396628D01*
X155942026Y-131405854D01*
X155921978Y-131419248D01*
X155913812Y-131427414D01*
X155912398Y-131428000D01*
X155820800Y-131428000D01*
X155819068Y-131427000D01*
X155819068Y-131425000D01*
X155820604Y-131424010D01*
X155836051Y-131422489D01*
X155850722Y-131418038D01*
X155864241Y-131410813D01*
X155876089Y-131401089D01*
X155885813Y-131389241D01*
X155893038Y-131375722D01*
X155897489Y-131361051D01*
X155899000Y-131345706D01*
X155899000Y-130654294D01*
X155897489Y-130638949D01*
X155893038Y-130624278D01*
X155885813Y-130610759D01*
X155876089Y-130598911D01*
X155864241Y-130589187D01*
X155850722Y-130581962D01*
X155836051Y-130577511D01*
X155820604Y-130575990D01*
X155818978Y-130574825D01*
X155819174Y-130572835D01*
X155820800Y-130572000D01*
X155912398Y-130572000D01*
X155913812Y-130572586D01*
G37*
G36*
X142662412Y-129058686D02*
G01*
X142670573Y-129066847D01*
X142690620Y-129080243D01*
X142712893Y-129089470D01*
X142736543Y-129094175D01*
X142760649Y-129094175D01*
X142784300Y-129089472D01*
X142806574Y-129080246D01*
X142826622Y-129066852D01*
X142834788Y-129058686D01*
X142836202Y-129058100D01*
X142927800Y-129058100D01*
X142929532Y-129059100D01*
X142929532Y-129061100D01*
X142927996Y-129062090D01*
X142912549Y-129063611D01*
X142897878Y-129068062D01*
X142884359Y-129075287D01*
X142872511Y-129085011D01*
X142862787Y-129096859D01*
X142855562Y-129110378D01*
X142851111Y-129125049D01*
X142849600Y-129140394D01*
X142849600Y-129831806D01*
X142851111Y-129847151D01*
X142855562Y-129861822D01*
X142862787Y-129875341D01*
X142872511Y-129887189D01*
X142884359Y-129896913D01*
X142897878Y-129904138D01*
X142912549Y-129908589D01*
X142927996Y-129910110D01*
X142929622Y-129911275D01*
X142929426Y-129913265D01*
X142927800Y-129914100D01*
X142836202Y-129914100D01*
X142834788Y-129913514D01*
X142826627Y-129905353D01*
X142806580Y-129891957D01*
X142784307Y-129882730D01*
X142760657Y-129878025D01*
X142736551Y-129878025D01*
X142712900Y-129882728D01*
X142690626Y-129891954D01*
X142670578Y-129905348D01*
X142662412Y-129913514D01*
X142660998Y-129914100D01*
X142569400Y-129914100D01*
X142567668Y-129913100D01*
X142567668Y-129911100D01*
X142569204Y-129910110D01*
X142584651Y-129908589D01*
X142599322Y-129904138D01*
X142612841Y-129896913D01*
X142624689Y-129887189D01*
X142634413Y-129875341D01*
X142641638Y-129861822D01*
X142646089Y-129847151D01*
X142647600Y-129831806D01*
X142647600Y-129140394D01*
X142646089Y-129125049D01*
X142641638Y-129110378D01*
X142634413Y-129096859D01*
X142624689Y-129085011D01*
X142612841Y-129075287D01*
X142599322Y-129068062D01*
X142584651Y-129063611D01*
X142569204Y-129062090D01*
X142567578Y-129060925D01*
X142567774Y-129058935D01*
X142569400Y-129058100D01*
X142660998Y-129058100D01*
X142662412Y-129058686D01*
G37*
G36*
X142813812Y-113472586D02*
G01*
X142821973Y-113480747D01*
X142842020Y-113494143D01*
X142864293Y-113503370D01*
X142887943Y-113508075D01*
X142912049Y-113508075D01*
X142935700Y-113503372D01*
X142957974Y-113494146D01*
X142978022Y-113480752D01*
X142986188Y-113472586D01*
X142987602Y-113472000D01*
X143079200Y-113472000D01*
X143080932Y-113473000D01*
X143080932Y-113475000D01*
X143079396Y-113475990D01*
X143063949Y-113477511D01*
X143049278Y-113481962D01*
X143035759Y-113489187D01*
X143023911Y-113498911D01*
X143014187Y-113510759D01*
X143006962Y-113524278D01*
X143002511Y-113538949D01*
X143001000Y-113554294D01*
X143001000Y-114245706D01*
X143002511Y-114261051D01*
X143006962Y-114275722D01*
X143014187Y-114289241D01*
X143023911Y-114301089D01*
X143035759Y-114310813D01*
X143049278Y-114318038D01*
X143063949Y-114322489D01*
X143079396Y-114324010D01*
X143081022Y-114325175D01*
X143080826Y-114327165D01*
X143079200Y-114328000D01*
X142987602Y-114328000D01*
X142986188Y-114327414D01*
X142978027Y-114319253D01*
X142957980Y-114305857D01*
X142935707Y-114296630D01*
X142912057Y-114291925D01*
X142887951Y-114291925D01*
X142864300Y-114296628D01*
X142842026Y-114305854D01*
X142821978Y-114319248D01*
X142813812Y-114327414D01*
X142812398Y-114328000D01*
X142720800Y-114328000D01*
X142719068Y-114327000D01*
X142719068Y-114325000D01*
X142720604Y-114324010D01*
X142736051Y-114322489D01*
X142750722Y-114318038D01*
X142764241Y-114310813D01*
X142776089Y-114301089D01*
X142785813Y-114289241D01*
X142793038Y-114275722D01*
X142797489Y-114261051D01*
X142799000Y-114245706D01*
X142799000Y-113554294D01*
X142797489Y-113538949D01*
X142793038Y-113524278D01*
X142785813Y-113510759D01*
X142776089Y-113498911D01*
X142764241Y-113489187D01*
X142750722Y-113481962D01*
X142736051Y-113477511D01*
X142720604Y-113475990D01*
X142718978Y-113474825D01*
X142719174Y-113472835D01*
X142720800Y-113472000D01*
X142812398Y-113472000D01*
X142813812Y-113472586D01*
G37*
G36*
X143827165Y-111619174D02*
G01*
X143828000Y-111620800D01*
X143828000Y-111712398D01*
X143827414Y-111713812D01*
X143819253Y-111721973D01*
X143805857Y-111742020D01*
X143796630Y-111764293D01*
X143791925Y-111787943D01*
X143791925Y-111812049D01*
X143796628Y-111835700D01*
X143805854Y-111857974D01*
X143819248Y-111878022D01*
X143827414Y-111886188D01*
X143828000Y-111887602D01*
X143828000Y-111979200D01*
X143827000Y-111980932D01*
X143825000Y-111980932D01*
X143824010Y-111979396D01*
X143822489Y-111963949D01*
X143818038Y-111949278D01*
X143810813Y-111935759D01*
X143801089Y-111923911D01*
X143789241Y-111914187D01*
X143775722Y-111906962D01*
X143761051Y-111902511D01*
X143745706Y-111901000D01*
X143054294Y-111901000D01*
X143038949Y-111902511D01*
X143024278Y-111906962D01*
X143010759Y-111914187D01*
X142998911Y-111923911D01*
X142989187Y-111935759D01*
X142981962Y-111949278D01*
X142977511Y-111963949D01*
X142975990Y-111979396D01*
X142974825Y-111981022D01*
X142972835Y-111980826D01*
X142972000Y-111979200D01*
X142972000Y-111887602D01*
X142972586Y-111886188D01*
X142980747Y-111878027D01*
X142994143Y-111857980D01*
X143003370Y-111835707D01*
X143008075Y-111812057D01*
X143008075Y-111787951D01*
X143003372Y-111764300D01*
X142994146Y-111742026D01*
X142980752Y-111721978D01*
X142972586Y-111713812D01*
X142972000Y-111712398D01*
X142972000Y-111620800D01*
X142973000Y-111619068D01*
X142975000Y-111619068D01*
X142975990Y-111620604D01*
X142977511Y-111636051D01*
X142981962Y-111650722D01*
X142989187Y-111664241D01*
X142998911Y-111676089D01*
X143010759Y-111685813D01*
X143024278Y-111693038D01*
X143038949Y-111697489D01*
X143054294Y-111699000D01*
X143745706Y-111699000D01*
X143761051Y-111697489D01*
X143775722Y-111693038D01*
X143789241Y-111685813D01*
X143801089Y-111676089D01*
X143810813Y-111664241D01*
X143818038Y-111650722D01*
X143822489Y-111636051D01*
X143824010Y-111620604D01*
X143825175Y-111618978D01*
X143827165Y-111619174D01*
G37*
G36*
X143223331Y-108438001D02*
G01*
X143223599Y-108439001D01*
X143223599Y-110002999D01*
X143222599Y-110004731D01*
X143221599Y-110004999D01*
X143028398Y-110004999D01*
X143026666Y-110003999D01*
X143026398Y-110002999D01*
X143026398Y-108441001D01*
X142573598Y-108441001D01*
X142573598Y-110002999D01*
X142572598Y-110004731D01*
X142571598Y-110004999D01*
X142378399Y-110004999D01*
X142376667Y-110003999D01*
X142376399Y-110002999D01*
X142376399Y-108441001D01*
X141923599Y-108441001D01*
X141923599Y-110002999D01*
X141922599Y-110004731D01*
X141921599Y-110004999D01*
X141728398Y-110004999D01*
X141726666Y-110003999D01*
X141726398Y-110002999D01*
X141726398Y-108441001D01*
X141273598Y-108441001D01*
X141273598Y-110002999D01*
X141272598Y-110004731D01*
X141271598Y-110004999D01*
X141078399Y-110004999D01*
X141076667Y-110003999D01*
X141076399Y-110002999D01*
X141076399Y-108441001D01*
X140623599Y-108441001D01*
X140623599Y-110002999D01*
X140622599Y-110004731D01*
X140621599Y-110004999D01*
X140428401Y-110004999D01*
X140426669Y-110003999D01*
X140426401Y-110002999D01*
X140426401Y-108441001D01*
X139973601Y-108441001D01*
X139973601Y-110002999D01*
X139972601Y-110004731D01*
X139971601Y-110004999D01*
X139778399Y-110004999D01*
X139776667Y-110003999D01*
X139776399Y-110002999D01*
X139776399Y-108441001D01*
X139323599Y-108441001D01*
X139323599Y-110002999D01*
X139322599Y-110004731D01*
X139321599Y-110004999D01*
X139128401Y-110004999D01*
X139126669Y-110003999D01*
X139126401Y-110002999D01*
X139126401Y-108439001D01*
X139127401Y-108437269D01*
X139128401Y-108437001D01*
X143221599Y-108437001D01*
X143223331Y-108438001D01*
G37*
G36*
X136827165Y-108769174D02*
G01*
X136828000Y-108770800D01*
X136828000Y-108862398D01*
X136827414Y-108863812D01*
X136819253Y-108871973D01*
X136805857Y-108892020D01*
X136796630Y-108914293D01*
X136791925Y-108937943D01*
X136791925Y-108962049D01*
X136796628Y-108985700D01*
X136805854Y-109007974D01*
X136819248Y-109028022D01*
X136827414Y-109036188D01*
X136828000Y-109037602D01*
X136828000Y-109129200D01*
X136827000Y-109130932D01*
X136825000Y-109130932D01*
X136824010Y-109129396D01*
X136822489Y-109113949D01*
X136818038Y-109099278D01*
X136810813Y-109085759D01*
X136801089Y-109073911D01*
X136789241Y-109064187D01*
X136775722Y-109056962D01*
X136761051Y-109052511D01*
X136745706Y-109051000D01*
X136054294Y-109051000D01*
X136038949Y-109052511D01*
X136024278Y-109056962D01*
X136010759Y-109064187D01*
X135998911Y-109073911D01*
X135989187Y-109085759D01*
X135981962Y-109099278D01*
X135977511Y-109113949D01*
X135975990Y-109129396D01*
X135974825Y-109131022D01*
X135972835Y-109130826D01*
X135972000Y-109129200D01*
X135972000Y-109037602D01*
X135972586Y-109036188D01*
X135980747Y-109028027D01*
X135994143Y-109007980D01*
X136003370Y-108985707D01*
X136008075Y-108962057D01*
X136008075Y-108937951D01*
X136003372Y-108914300D01*
X135994146Y-108892026D01*
X135980752Y-108871978D01*
X135972586Y-108863812D01*
X135972000Y-108862398D01*
X135972000Y-108770800D01*
X135973000Y-108769068D01*
X135975000Y-108769068D01*
X135975990Y-108770604D01*
X135977511Y-108786051D01*
X135981962Y-108800722D01*
X135989187Y-108814241D01*
X135998911Y-108826089D01*
X136010759Y-108835813D01*
X136024278Y-108843038D01*
X136038949Y-108847489D01*
X136054294Y-108849000D01*
X136745706Y-108849000D01*
X136761051Y-108847489D01*
X136775722Y-108843038D01*
X136789241Y-108835813D01*
X136801089Y-108826089D01*
X136810813Y-108814241D01*
X136818038Y-108800722D01*
X136822489Y-108786051D01*
X136824010Y-108770604D01*
X136825175Y-108768978D01*
X136827165Y-108769174D01*
G37*
G36*
X136663812Y-105672586D02*
G01*
X136671973Y-105680747D01*
X136692020Y-105694143D01*
X136714293Y-105703370D01*
X136737943Y-105708075D01*
X136762049Y-105708075D01*
X136785700Y-105703372D01*
X136807974Y-105694146D01*
X136828022Y-105680752D01*
X136836188Y-105672586D01*
X136837602Y-105672000D01*
X136929200Y-105672000D01*
X136930932Y-105673000D01*
X136930932Y-105675000D01*
X136929396Y-105675990D01*
X136913949Y-105677511D01*
X136899278Y-105681962D01*
X136885759Y-105689187D01*
X136873911Y-105698911D01*
X136864187Y-105710759D01*
X136856962Y-105724278D01*
X136852511Y-105738949D01*
X136851000Y-105754294D01*
X136851000Y-106445706D01*
X136852511Y-106461051D01*
X136856962Y-106475722D01*
X136864187Y-106489241D01*
X136873911Y-106501089D01*
X136885759Y-106510813D01*
X136899278Y-106518038D01*
X136913949Y-106522489D01*
X136929396Y-106524010D01*
X136931022Y-106525175D01*
X136930826Y-106527165D01*
X136929200Y-106528000D01*
X136837602Y-106528000D01*
X136836188Y-106527414D01*
X136828027Y-106519253D01*
X136807980Y-106505857D01*
X136785707Y-106496630D01*
X136762057Y-106491925D01*
X136737951Y-106491925D01*
X136714300Y-106496628D01*
X136692026Y-106505854D01*
X136671978Y-106519248D01*
X136663812Y-106527414D01*
X136662398Y-106528000D01*
X136570800Y-106528000D01*
X136569068Y-106527000D01*
X136569068Y-106525000D01*
X136570604Y-106524010D01*
X136586051Y-106522489D01*
X136600722Y-106518038D01*
X136614241Y-106510813D01*
X136626089Y-106501089D01*
X136635813Y-106489241D01*
X136643038Y-106475722D01*
X136647489Y-106461051D01*
X136649000Y-106445706D01*
X136649000Y-105754294D01*
X136647489Y-105738949D01*
X136643038Y-105724278D01*
X136635813Y-105710759D01*
X136626089Y-105698911D01*
X136614241Y-105689187D01*
X136600722Y-105681962D01*
X136586051Y-105677511D01*
X136570604Y-105675990D01*
X136568978Y-105674825D01*
X136569174Y-105672835D01*
X136570800Y-105672000D01*
X136662398Y-105672000D01*
X136663812Y-105672586D01*
G37*
G36*
X136613812Y-103622586D02*
G01*
X136621973Y-103630747D01*
X136642020Y-103644143D01*
X136664293Y-103653370D01*
X136687943Y-103658075D01*
X136712049Y-103658075D01*
X136735700Y-103653372D01*
X136757974Y-103644146D01*
X136778022Y-103630752D01*
X136786188Y-103622586D01*
X136787602Y-103622000D01*
X136879200Y-103622000D01*
X136880932Y-103623000D01*
X136880932Y-103625000D01*
X136879396Y-103625990D01*
X136863949Y-103627511D01*
X136849278Y-103631962D01*
X136835759Y-103639187D01*
X136823911Y-103648911D01*
X136814187Y-103660759D01*
X136806962Y-103674278D01*
X136802511Y-103688949D01*
X136801000Y-103704294D01*
X136801000Y-104395706D01*
X136802511Y-104411051D01*
X136806962Y-104425722D01*
X136814187Y-104439241D01*
X136823911Y-104451089D01*
X136835759Y-104460813D01*
X136849278Y-104468038D01*
X136863949Y-104472489D01*
X136879396Y-104474010D01*
X136881022Y-104475175D01*
X136880826Y-104477165D01*
X136879200Y-104478000D01*
X136787602Y-104478000D01*
X136786188Y-104477414D01*
X136778027Y-104469253D01*
X136757980Y-104455857D01*
X136735707Y-104446630D01*
X136712057Y-104441925D01*
X136687951Y-104441925D01*
X136664300Y-104446628D01*
X136642026Y-104455854D01*
X136621978Y-104469248D01*
X136613812Y-104477414D01*
X136612398Y-104478000D01*
X136520800Y-104478000D01*
X136519068Y-104477000D01*
X136519068Y-104475000D01*
X136520604Y-104474010D01*
X136536051Y-104472489D01*
X136550722Y-104468038D01*
X136564241Y-104460813D01*
X136576089Y-104451089D01*
X136585813Y-104439241D01*
X136593038Y-104425722D01*
X136597489Y-104411051D01*
X136599000Y-104395706D01*
X136599000Y-103704294D01*
X136597489Y-103688949D01*
X136593038Y-103674278D01*
X136585813Y-103660759D01*
X136576089Y-103648911D01*
X136564241Y-103639187D01*
X136550722Y-103631962D01*
X136536051Y-103627511D01*
X136520604Y-103625990D01*
X136518978Y-103624825D01*
X136519174Y-103622835D01*
X136520800Y-103622000D01*
X136612398Y-103622000D01*
X136613812Y-103622586D01*
G37*
G36*
X143223331Y-102596001D02*
G01*
X143223599Y-102597001D01*
X143223599Y-104160999D01*
X143222599Y-104162731D01*
X143221599Y-104162999D01*
X143028401Y-104162999D01*
X143026669Y-104161999D01*
X143026401Y-104160999D01*
X143026401Y-102599001D01*
X142573601Y-102599001D01*
X142573601Y-104160999D01*
X142572601Y-104162731D01*
X142571601Y-104162999D01*
X142378399Y-104162999D01*
X142376667Y-104161999D01*
X142376399Y-104160999D01*
X142376399Y-102599001D01*
X141923599Y-102599001D01*
X141923599Y-104160999D01*
X141922599Y-104162731D01*
X141921599Y-104162999D01*
X141728401Y-104162999D01*
X141726669Y-104161999D01*
X141726401Y-104160999D01*
X141726401Y-102599001D01*
X141273601Y-102599001D01*
X141273601Y-104160999D01*
X141272601Y-104162731D01*
X141271601Y-104162999D01*
X141078402Y-104162999D01*
X141076670Y-104161999D01*
X141076402Y-104160999D01*
X141076402Y-102599001D01*
X140623602Y-102599001D01*
X140623602Y-104160999D01*
X140622602Y-104162731D01*
X140621602Y-104162999D01*
X140428401Y-104162999D01*
X140426669Y-104161999D01*
X140426401Y-104160999D01*
X140426401Y-102599001D01*
X139973601Y-102599001D01*
X139973601Y-104160999D01*
X139972601Y-104162731D01*
X139971601Y-104162999D01*
X139778402Y-104162999D01*
X139776670Y-104161999D01*
X139776402Y-104160999D01*
X139776402Y-102599001D01*
X139323602Y-102599001D01*
X139323602Y-104160999D01*
X139322602Y-104162731D01*
X139321602Y-104162999D01*
X139128401Y-104162999D01*
X139126669Y-104161999D01*
X139126401Y-104160999D01*
X139126401Y-102597001D01*
X139127401Y-102595269D01*
X139128401Y-102595001D01*
X143221599Y-102595001D01*
X143223331Y-102596001D01*
G37*
G36*
X152963812Y-100472586D02*
G01*
X152971973Y-100480747D01*
X152992020Y-100494143D01*
X153014293Y-100503370D01*
X153037943Y-100508075D01*
X153062049Y-100508075D01*
X153085700Y-100503372D01*
X153107974Y-100494146D01*
X153128022Y-100480752D01*
X153136188Y-100472586D01*
X153137602Y-100472000D01*
X153229200Y-100472000D01*
X153230932Y-100473000D01*
X153230932Y-100475000D01*
X153229396Y-100475990D01*
X153213949Y-100477511D01*
X153199278Y-100481962D01*
X153185759Y-100489187D01*
X153173911Y-100498911D01*
X153164187Y-100510759D01*
X153156962Y-100524278D01*
X153152511Y-100538949D01*
X153151000Y-100554294D01*
X153151000Y-101245706D01*
X153152511Y-101261051D01*
X153156962Y-101275722D01*
X153164187Y-101289241D01*
X153173911Y-101301089D01*
X153185759Y-101310813D01*
X153199278Y-101318038D01*
X153213949Y-101322489D01*
X153229396Y-101324010D01*
X153231022Y-101325175D01*
X153230826Y-101327165D01*
X153229200Y-101328000D01*
X153137602Y-101328000D01*
X153136188Y-101327414D01*
X153128027Y-101319253D01*
X153107980Y-101305857D01*
X153085707Y-101296630D01*
X153062057Y-101291925D01*
X153037951Y-101291925D01*
X153014300Y-101296628D01*
X152992026Y-101305854D01*
X152971978Y-101319248D01*
X152963812Y-101327414D01*
X152962398Y-101328000D01*
X152870800Y-101328000D01*
X152869068Y-101327000D01*
X152869068Y-101325000D01*
X152870604Y-101324010D01*
X152886051Y-101322489D01*
X152900722Y-101318038D01*
X152914241Y-101310813D01*
X152926089Y-101301089D01*
X152935813Y-101289241D01*
X152943038Y-101275722D01*
X152947489Y-101261051D01*
X152949000Y-101245706D01*
X152949000Y-100554294D01*
X152947489Y-100538949D01*
X152943038Y-100524278D01*
X152935813Y-100510759D01*
X152926089Y-100498911D01*
X152914241Y-100489187D01*
X152900722Y-100481962D01*
X152886051Y-100477511D01*
X152870604Y-100475990D01*
X152868978Y-100474825D01*
X152869174Y-100472835D01*
X152870800Y-100472000D01*
X152962398Y-100472000D01*
X152963812Y-100472586D01*
G37*
G36*
X137627165Y-100819174D02*
G01*
X137628000Y-100820800D01*
X137628000Y-100912398D01*
X137627414Y-100913812D01*
X137619253Y-100921973D01*
X137605857Y-100942020D01*
X137596630Y-100964293D01*
X137591925Y-100987943D01*
X137591925Y-101012049D01*
X137596628Y-101035700D01*
X137605854Y-101057974D01*
X137619248Y-101078022D01*
X137627414Y-101086188D01*
X137628000Y-101087602D01*
X137628000Y-101179200D01*
X137627000Y-101180932D01*
X137625000Y-101180932D01*
X137624010Y-101179396D01*
X137622489Y-101163949D01*
X137618038Y-101149278D01*
X137610813Y-101135759D01*
X137601089Y-101123911D01*
X137589241Y-101114187D01*
X137575722Y-101106962D01*
X137561051Y-101102511D01*
X137545706Y-101101000D01*
X136854294Y-101101000D01*
X136838949Y-101102511D01*
X136824278Y-101106962D01*
X136810759Y-101114187D01*
X136798911Y-101123911D01*
X136789187Y-101135759D01*
X136781962Y-101149278D01*
X136777511Y-101163949D01*
X136775990Y-101179396D01*
X136774825Y-101181022D01*
X136772835Y-101180826D01*
X136772000Y-101179200D01*
X136772000Y-101087602D01*
X136772586Y-101086188D01*
X136780747Y-101078027D01*
X136794143Y-101057980D01*
X136803370Y-101035707D01*
X136808075Y-101012057D01*
X136808075Y-100987951D01*
X136803372Y-100964300D01*
X136794146Y-100942026D01*
X136780752Y-100921978D01*
X136772586Y-100913812D01*
X136772000Y-100912398D01*
X136772000Y-100820800D01*
X136773000Y-100819068D01*
X136775000Y-100819068D01*
X136775990Y-100820604D01*
X136777511Y-100836051D01*
X136781962Y-100850722D01*
X136789187Y-100864241D01*
X136798911Y-100876089D01*
X136810759Y-100885813D01*
X136824278Y-100893038D01*
X136838949Y-100897489D01*
X136854294Y-100899000D01*
X137545706Y-100899000D01*
X137561051Y-100897489D01*
X137575722Y-100893038D01*
X137589241Y-100885813D01*
X137601089Y-100876089D01*
X137610813Y-100864241D01*
X137618038Y-100850722D01*
X137622489Y-100836051D01*
X137624010Y-100820604D01*
X137625175Y-100818978D01*
X137627165Y-100819174D01*
G37*
G36*
X140427165Y-100819174D02*
G01*
X140428000Y-100820800D01*
X140428000Y-100912398D01*
X140427414Y-100913812D01*
X140419253Y-100921973D01*
X140405857Y-100942020D01*
X140396630Y-100964293D01*
X140391925Y-100987943D01*
X140391925Y-101012049D01*
X140396628Y-101035700D01*
X140405854Y-101057974D01*
X140419248Y-101078022D01*
X140427414Y-101086188D01*
X140428000Y-101087602D01*
X140428000Y-101179200D01*
X140427000Y-101180932D01*
X140425000Y-101180932D01*
X140424010Y-101179396D01*
X140422489Y-101163949D01*
X140418038Y-101149278D01*
X140410813Y-101135759D01*
X140401089Y-101123911D01*
X140389241Y-101114187D01*
X140375722Y-101106962D01*
X140361051Y-101102511D01*
X140345706Y-101101000D01*
X139654294Y-101101000D01*
X139638949Y-101102511D01*
X139624278Y-101106962D01*
X139610759Y-101114187D01*
X139598911Y-101123911D01*
X139589187Y-101135759D01*
X139581962Y-101149278D01*
X139577511Y-101163949D01*
X139575990Y-101179396D01*
X139574825Y-101181022D01*
X139572835Y-101180826D01*
X139572000Y-101179200D01*
X139572000Y-101087602D01*
X139572586Y-101086188D01*
X139580747Y-101078027D01*
X139594143Y-101057980D01*
X139603370Y-101035707D01*
X139608075Y-101012057D01*
X139608075Y-100987951D01*
X139603372Y-100964300D01*
X139594146Y-100942026D01*
X139580752Y-100921978D01*
X139572586Y-100913812D01*
X139572000Y-100912398D01*
X139572000Y-100820800D01*
X139573000Y-100819068D01*
X139575000Y-100819068D01*
X139575990Y-100820604D01*
X139577511Y-100836051D01*
X139581962Y-100850722D01*
X139589187Y-100864241D01*
X139598911Y-100876089D01*
X139610759Y-100885813D01*
X139624278Y-100893038D01*
X139638949Y-100897489D01*
X139654294Y-100899000D01*
X140345706Y-100899000D01*
X140361051Y-100897489D01*
X140375722Y-100893038D01*
X140389241Y-100885813D01*
X140401089Y-100876089D01*
X140410813Y-100864241D01*
X140418038Y-100850722D01*
X140422489Y-100836051D01*
X140424010Y-100820604D01*
X140425175Y-100818978D01*
X140427165Y-100819174D01*
G37*
G36*
X139027165Y-100819174D02*
G01*
X139028000Y-100820800D01*
X139028000Y-100912398D01*
X139027414Y-100913812D01*
X139019253Y-100921973D01*
X139005857Y-100942020D01*
X138996630Y-100964293D01*
X138991925Y-100987943D01*
X138991925Y-101012049D01*
X138996628Y-101035700D01*
X139005854Y-101057974D01*
X139019248Y-101078022D01*
X139027414Y-101086188D01*
X139028000Y-101087602D01*
X139028000Y-101179200D01*
X139027000Y-101180932D01*
X139025000Y-101180932D01*
X139024010Y-101179396D01*
X139022489Y-101163949D01*
X139018038Y-101149278D01*
X139010813Y-101135759D01*
X139001089Y-101123911D01*
X138989241Y-101114187D01*
X138975722Y-101106962D01*
X138961051Y-101102511D01*
X138945706Y-101101000D01*
X138254294Y-101101000D01*
X138238949Y-101102511D01*
X138224278Y-101106962D01*
X138210759Y-101114187D01*
X138198911Y-101123911D01*
X138189187Y-101135759D01*
X138181962Y-101149278D01*
X138177511Y-101163949D01*
X138175990Y-101179396D01*
X138174825Y-101181022D01*
X138172835Y-101180826D01*
X138172000Y-101179200D01*
X138172000Y-101087602D01*
X138172586Y-101086188D01*
X138180747Y-101078027D01*
X138194143Y-101057980D01*
X138203370Y-101035707D01*
X138208075Y-101012057D01*
X138208075Y-100987951D01*
X138203372Y-100964300D01*
X138194146Y-100942026D01*
X138180752Y-100921978D01*
X138172586Y-100913812D01*
X138172000Y-100912398D01*
X138172000Y-100820800D01*
X138173000Y-100819068D01*
X138175000Y-100819068D01*
X138175990Y-100820604D01*
X138177511Y-100836051D01*
X138181962Y-100850722D01*
X138189187Y-100864241D01*
X138198911Y-100876089D01*
X138210759Y-100885813D01*
X138224278Y-100893038D01*
X138238949Y-100897489D01*
X138254294Y-100899000D01*
X138945706Y-100899000D01*
X138961051Y-100897489D01*
X138975722Y-100893038D01*
X138989241Y-100885813D01*
X139001089Y-100876089D01*
X139010813Y-100864241D01*
X139018038Y-100850722D01*
X139022489Y-100836051D01*
X139024010Y-100820604D01*
X139025175Y-100818978D01*
X139027165Y-100819174D01*
G37*
G36*
X152963812Y-99172586D02*
G01*
X152971973Y-99180747D01*
X152992020Y-99194143D01*
X153014293Y-99203370D01*
X153037943Y-99208075D01*
X153062049Y-99208075D01*
X153085700Y-99203372D01*
X153107974Y-99194146D01*
X153128022Y-99180752D01*
X153136188Y-99172586D01*
X153137602Y-99172000D01*
X153229200Y-99172000D01*
X153230932Y-99173000D01*
X153230932Y-99175000D01*
X153229396Y-99175990D01*
X153213949Y-99177511D01*
X153199278Y-99181962D01*
X153185759Y-99189187D01*
X153173911Y-99198911D01*
X153164187Y-99210759D01*
X153156962Y-99224278D01*
X153152511Y-99238949D01*
X153151000Y-99254294D01*
X153151000Y-99945706D01*
X153152511Y-99961051D01*
X153156962Y-99975722D01*
X153164187Y-99989241D01*
X153173911Y-100001089D01*
X153185759Y-100010813D01*
X153199278Y-100018038D01*
X153213949Y-100022489D01*
X153229396Y-100024010D01*
X153231022Y-100025175D01*
X153230826Y-100027165D01*
X153229200Y-100028000D01*
X153137602Y-100028000D01*
X153136188Y-100027414D01*
X153128027Y-100019253D01*
X153107980Y-100005857D01*
X153085707Y-99996630D01*
X153062057Y-99991925D01*
X153037951Y-99991925D01*
X153014300Y-99996628D01*
X152992026Y-100005854D01*
X152971978Y-100019248D01*
X152963812Y-100027414D01*
X152962398Y-100028000D01*
X152870800Y-100028000D01*
X152869068Y-100027000D01*
X152869068Y-100025000D01*
X152870604Y-100024010D01*
X152886051Y-100022489D01*
X152900722Y-100018038D01*
X152914241Y-100010813D01*
X152926089Y-100001089D01*
X152935813Y-99989241D01*
X152943038Y-99975722D01*
X152947489Y-99961051D01*
X152949000Y-99945706D01*
X152949000Y-99254294D01*
X152947489Y-99238949D01*
X152943038Y-99224278D01*
X152935813Y-99210759D01*
X152926089Y-99198911D01*
X152914241Y-99189187D01*
X152900722Y-99181962D01*
X152886051Y-99177511D01*
X152870604Y-99175990D01*
X152868978Y-99174825D01*
X152869174Y-99172835D01*
X152870800Y-99172000D01*
X152962398Y-99172000D01*
X152963812Y-99172586D01*
G37*
G36*
X152963812Y-97872586D02*
G01*
X152971973Y-97880747D01*
X152992020Y-97894143D01*
X153014293Y-97903370D01*
X153037943Y-97908075D01*
X153062049Y-97908075D01*
X153085700Y-97903372D01*
X153107974Y-97894146D01*
X153128022Y-97880752D01*
X153136188Y-97872586D01*
X153137602Y-97872000D01*
X153229200Y-97872000D01*
X153230932Y-97873000D01*
X153230932Y-97875000D01*
X153229396Y-97875990D01*
X153213949Y-97877511D01*
X153199278Y-97881962D01*
X153185759Y-97889187D01*
X153173911Y-97898911D01*
X153164187Y-97910759D01*
X153156962Y-97924278D01*
X153152511Y-97938949D01*
X153151000Y-97954294D01*
X153151000Y-98645706D01*
X153152511Y-98661051D01*
X153156962Y-98675722D01*
X153164187Y-98689241D01*
X153173911Y-98701089D01*
X153185759Y-98710813D01*
X153199278Y-98718038D01*
X153213949Y-98722489D01*
X153229396Y-98724010D01*
X153231022Y-98725175D01*
X153230826Y-98727165D01*
X153229200Y-98728000D01*
X153137602Y-98728000D01*
X153136188Y-98727414D01*
X153128027Y-98719253D01*
X153107980Y-98705857D01*
X153085707Y-98696630D01*
X153062057Y-98691925D01*
X153037951Y-98691925D01*
X153014300Y-98696628D01*
X152992026Y-98705854D01*
X152971978Y-98719248D01*
X152963812Y-98727414D01*
X152962398Y-98728000D01*
X152870800Y-98728000D01*
X152869068Y-98727000D01*
X152869068Y-98725000D01*
X152870604Y-98724010D01*
X152886051Y-98722489D01*
X152900722Y-98718038D01*
X152914241Y-98710813D01*
X152926089Y-98701089D01*
X152935813Y-98689241D01*
X152943038Y-98675722D01*
X152947489Y-98661051D01*
X152949000Y-98645706D01*
X152949000Y-97954294D01*
X152947489Y-97938949D01*
X152943038Y-97924278D01*
X152935813Y-97910759D01*
X152926089Y-97898911D01*
X152914241Y-97889187D01*
X152900722Y-97881962D01*
X152886051Y-97877511D01*
X152870604Y-97875990D01*
X152868978Y-97874825D01*
X152869174Y-97872835D01*
X152870800Y-97872000D01*
X152962398Y-97872000D01*
X152963812Y-97872586D01*
G37*
G36*
X144352165Y-97844174D02*
G01*
X144353000Y-97845800D01*
X144353000Y-97937398D01*
X144352414Y-97938812D01*
X144344253Y-97946973D01*
X144330857Y-97967020D01*
X144321630Y-97989293D01*
X144316925Y-98012943D01*
X144316925Y-98037049D01*
X144321628Y-98060700D01*
X144330854Y-98082974D01*
X144344248Y-98103022D01*
X144352414Y-98111188D01*
X144353000Y-98112602D01*
X144353000Y-98204200D01*
X144352000Y-98205932D01*
X144350000Y-98205932D01*
X144349010Y-98204396D01*
X144347489Y-98188949D01*
X144343038Y-98174278D01*
X144335813Y-98160759D01*
X144326089Y-98148911D01*
X144314241Y-98139187D01*
X144300722Y-98131962D01*
X144286051Y-98127511D01*
X144270706Y-98126000D01*
X143579294Y-98126000D01*
X143563949Y-98127511D01*
X143549278Y-98131962D01*
X143535759Y-98139187D01*
X143523911Y-98148911D01*
X143514187Y-98160759D01*
X143506962Y-98174278D01*
X143502511Y-98188949D01*
X143500990Y-98204396D01*
X143499825Y-98206022D01*
X143497835Y-98205826D01*
X143497000Y-98204200D01*
X143497000Y-98112602D01*
X143497586Y-98111188D01*
X143505747Y-98103027D01*
X143519143Y-98082980D01*
X143528370Y-98060707D01*
X143533075Y-98037057D01*
X143533075Y-98012951D01*
X143528372Y-97989300D01*
X143519146Y-97967026D01*
X143505752Y-97946978D01*
X143497586Y-97938812D01*
X143497000Y-97937398D01*
X143497000Y-97845800D01*
X143498000Y-97844068D01*
X143500000Y-97844068D01*
X143500990Y-97845604D01*
X143502511Y-97861051D01*
X143506962Y-97875722D01*
X143514187Y-97889241D01*
X143523911Y-97901089D01*
X143535759Y-97910813D01*
X143549278Y-97918038D01*
X143563949Y-97922489D01*
X143579294Y-97924000D01*
X144270706Y-97924000D01*
X144286051Y-97922489D01*
X144300722Y-97918038D01*
X144314241Y-97910813D01*
X144326089Y-97901089D01*
X144335813Y-97889241D01*
X144343038Y-97875722D01*
X144347489Y-97861051D01*
X144349010Y-97845604D01*
X144350175Y-97843978D01*
X144352165Y-97844174D01*
G37*
G36*
X152963812Y-96572586D02*
G01*
X152971973Y-96580747D01*
X152992020Y-96594143D01*
X153014293Y-96603370D01*
X153037943Y-96608075D01*
X153062049Y-96608075D01*
X153085700Y-96603372D01*
X153107974Y-96594146D01*
X153128022Y-96580752D01*
X153136188Y-96572586D01*
X153137602Y-96572000D01*
X153229200Y-96572000D01*
X153230932Y-96573000D01*
X153230932Y-96575000D01*
X153229396Y-96575990D01*
X153213949Y-96577511D01*
X153199278Y-96581962D01*
X153185759Y-96589187D01*
X153173911Y-96598911D01*
X153164187Y-96610759D01*
X153156962Y-96624278D01*
X153152511Y-96638949D01*
X153151000Y-96654294D01*
X153151000Y-97345706D01*
X153152511Y-97361051D01*
X153156962Y-97375722D01*
X153164187Y-97389241D01*
X153173911Y-97401089D01*
X153185759Y-97410813D01*
X153199278Y-97418038D01*
X153213949Y-97422489D01*
X153229396Y-97424010D01*
X153231022Y-97425175D01*
X153230826Y-97427165D01*
X153229200Y-97428000D01*
X153137602Y-97428000D01*
X153136188Y-97427414D01*
X153128027Y-97419253D01*
X153107980Y-97405857D01*
X153085707Y-97396630D01*
X153062057Y-97391925D01*
X153037951Y-97391925D01*
X153014300Y-97396628D01*
X152992026Y-97405854D01*
X152971978Y-97419248D01*
X152963812Y-97427414D01*
X152962398Y-97428000D01*
X152870800Y-97428000D01*
X152869068Y-97427000D01*
X152869068Y-97425000D01*
X152870604Y-97424010D01*
X152886051Y-97422489D01*
X152900722Y-97418038D01*
X152914241Y-97410813D01*
X152926089Y-97401089D01*
X152935813Y-97389241D01*
X152943038Y-97375722D01*
X152947489Y-97361051D01*
X152949000Y-97345706D01*
X152949000Y-96654294D01*
X152947489Y-96638949D01*
X152943038Y-96624278D01*
X152935813Y-96610759D01*
X152926089Y-96598911D01*
X152914241Y-96589187D01*
X152900722Y-96581962D01*
X152886051Y-96577511D01*
X152870604Y-96575990D01*
X152868978Y-96574825D01*
X152869174Y-96572835D01*
X152870800Y-96572000D01*
X152962398Y-96572000D01*
X152963812Y-96572586D01*
G37*
G36*
X150296832Y-94716600D02*
G01*
X150297100Y-94717600D01*
X150297100Y-96419600D01*
X150296100Y-96421332D01*
X150295100Y-96421600D01*
X150197100Y-96421600D01*
X150195368Y-96420600D01*
X150195100Y-96419600D01*
X150195100Y-94719600D01*
X149797100Y-94719600D01*
X149797100Y-96419600D01*
X149796100Y-96421332D01*
X149795100Y-96421600D01*
X149697100Y-96421600D01*
X149695368Y-96420600D01*
X149695100Y-96419600D01*
X149695100Y-94719600D01*
X149297100Y-94719600D01*
X149297100Y-96419600D01*
X149296100Y-96421332D01*
X149295100Y-96421600D01*
X149197100Y-96421600D01*
X149195368Y-96420600D01*
X149195100Y-96419600D01*
X149195100Y-94719600D01*
X148797100Y-94719600D01*
X148797100Y-96419600D01*
X148796100Y-96421332D01*
X148795100Y-96421600D01*
X148697100Y-96421600D01*
X148695368Y-96420600D01*
X148695100Y-96419600D01*
X148695100Y-94719600D01*
X148297100Y-94719600D01*
X148297100Y-96419600D01*
X148296100Y-96421332D01*
X148295100Y-96421600D01*
X148197100Y-96421600D01*
X148195368Y-96420600D01*
X148195100Y-96419600D01*
X148195100Y-94719600D01*
X147797100Y-94719600D01*
X147797100Y-96419600D01*
X147796100Y-96421332D01*
X147795100Y-96421600D01*
X147697100Y-96421600D01*
X147695368Y-96420600D01*
X147695100Y-96419600D01*
X147695100Y-94719600D01*
X147297100Y-94719600D01*
X147297100Y-96419600D01*
X147296100Y-96421332D01*
X147295100Y-96421600D01*
X147197100Y-96421600D01*
X147195368Y-96420600D01*
X147195100Y-96419600D01*
X147195100Y-94719600D01*
X146797100Y-94719600D01*
X146797100Y-96419600D01*
X146796100Y-96421332D01*
X146795100Y-96421600D01*
X146697100Y-96421600D01*
X146695368Y-96420600D01*
X146695100Y-96419600D01*
X146695100Y-94719600D01*
X146297100Y-94719600D01*
X146297100Y-96419600D01*
X146296100Y-96421332D01*
X146295100Y-96421600D01*
X146197100Y-96421600D01*
X146195368Y-96420600D01*
X146195100Y-96419600D01*
X146195100Y-94719600D01*
X145797100Y-94719600D01*
X145797100Y-96419600D01*
X145796100Y-96421332D01*
X145795100Y-96421600D01*
X145697100Y-96421600D01*
X145695368Y-96420600D01*
X145695100Y-96419600D01*
X145695100Y-94719600D01*
X145297100Y-94719600D01*
X145297100Y-96419600D01*
X145296100Y-96421332D01*
X145295100Y-96421600D01*
X145197100Y-96421600D01*
X145195368Y-96420600D01*
X145195100Y-96419600D01*
X145195100Y-94717600D01*
X145196100Y-94715868D01*
X145197100Y-94715600D01*
X150295100Y-94715600D01*
X150296832Y-94716600D01*
G37*
G36*
X144348832Y-93768600D02*
G01*
X144349100Y-93769600D01*
X144349100Y-93867600D01*
X144348100Y-93869332D01*
X144347100Y-93869600D01*
X142645100Y-93869600D01*
X142643368Y-93868600D01*
X142643100Y-93867600D01*
X142643100Y-93769600D01*
X142644100Y-93767868D01*
X142645100Y-93767600D01*
X144347100Y-93767600D01*
X144348832Y-93768600D01*
G37*
G36*
X152848832Y-93768600D02*
G01*
X152849100Y-93769600D01*
X152849100Y-93867600D01*
X152848100Y-93869332D01*
X152847100Y-93869600D01*
X151145100Y-93869600D01*
X151143368Y-93868600D01*
X151143100Y-93867600D01*
X151143100Y-93769600D01*
X151144100Y-93767868D01*
X151145100Y-93767600D01*
X152847100Y-93767600D01*
X152848832Y-93768600D01*
G37*
G36*
X152848832Y-93268600D02*
G01*
X152849100Y-93269600D01*
X152849100Y-93367600D01*
X152848100Y-93369332D01*
X152847100Y-93369600D01*
X151145100Y-93369600D01*
X151143368Y-93368600D01*
X151143100Y-93367600D01*
X151143100Y-93269600D01*
X151144100Y-93267868D01*
X151145100Y-93267600D01*
X152847100Y-93267600D01*
X152848832Y-93268600D01*
G37*
G36*
X144348832Y-93268600D02*
G01*
X144349100Y-93269600D01*
X144349100Y-93367600D01*
X144348100Y-93369332D01*
X144347100Y-93369600D01*
X142645100Y-93369600D01*
X142643368Y-93368600D01*
X142643100Y-93367600D01*
X142643100Y-93269600D01*
X142644100Y-93267868D01*
X142645100Y-93267600D01*
X144347100Y-93267600D01*
X144348832Y-93268600D01*
G37*
G36*
X144348832Y-92768600D02*
G01*
X144349100Y-92769600D01*
X144349100Y-92867600D01*
X144348100Y-92869332D01*
X144347100Y-92869600D01*
X142645100Y-92869600D01*
X142643368Y-92868600D01*
X142643100Y-92867600D01*
X142643100Y-92769600D01*
X142644100Y-92767868D01*
X142645100Y-92767600D01*
X144347100Y-92767600D01*
X144348832Y-92768600D01*
G37*
G36*
X152848832Y-92768600D02*
G01*
X152849100Y-92769600D01*
X152849100Y-92867600D01*
X152848100Y-92869332D01*
X152847100Y-92869600D01*
X151145100Y-92869600D01*
X151143368Y-92868600D01*
X151143100Y-92867600D01*
X151143100Y-92769600D01*
X151144100Y-92767868D01*
X151145100Y-92767600D01*
X152847100Y-92767600D01*
X152848832Y-92768600D01*
G37*
G36*
X144348832Y-92268600D02*
G01*
X144349100Y-92269600D01*
X144349100Y-92367600D01*
X144348100Y-92369332D01*
X144347100Y-92369600D01*
X142645100Y-92369600D01*
X142643368Y-92368600D01*
X142643100Y-92367600D01*
X142643100Y-92269600D01*
X142644100Y-92267868D01*
X142645100Y-92267600D01*
X144347100Y-92267600D01*
X144348832Y-92268600D01*
G37*
G36*
X152848832Y-92268600D02*
G01*
X152849100Y-92269600D01*
X152849100Y-92367600D01*
X152848100Y-92369332D01*
X152847100Y-92369600D01*
X151145100Y-92369600D01*
X151143368Y-92368600D01*
X151143100Y-92367600D01*
X151143100Y-92269600D01*
X151144100Y-92267868D01*
X151145100Y-92267600D01*
X152847100Y-92267600D01*
X152848832Y-92268600D01*
G37*
G36*
X140953265Y-91522774D02*
G01*
X140954100Y-91524400D01*
X140954100Y-91615998D01*
X140953514Y-91617412D01*
X140945353Y-91625573D01*
X140931957Y-91645620D01*
X140922730Y-91667893D01*
X140918025Y-91691543D01*
X140918025Y-91715649D01*
X140922728Y-91739300D01*
X140931954Y-91761574D01*
X140945348Y-91781622D01*
X140955870Y-91792144D01*
X140956304Y-91792793D01*
X140963688Y-91810619D01*
X140977083Y-91830667D01*
X140994130Y-91847714D01*
X141014177Y-91861109D01*
X141036455Y-91870337D01*
X141036792Y-91870404D01*
X141038295Y-91871723D01*
X141037166Y-91874213D01*
X141019123Y-91881687D01*
X140999075Y-91895082D01*
X140982028Y-91912129D01*
X140968633Y-91932176D01*
X140959407Y-91954450D01*
X140954693Y-91978146D01*
X140954098Y-91990252D01*
X140953014Y-91991933D01*
X140951016Y-91991835D01*
X140950100Y-91990154D01*
X140950100Y-91882894D01*
X140948589Y-91867549D01*
X140944138Y-91852878D01*
X140936913Y-91839359D01*
X140927189Y-91827511D01*
X140915341Y-91817787D01*
X140901822Y-91810562D01*
X140887151Y-91806111D01*
X140871806Y-91804600D01*
X140180394Y-91804600D01*
X140165049Y-91806111D01*
X140150378Y-91810562D01*
X140136859Y-91817787D01*
X140125011Y-91827511D01*
X140115287Y-91839359D01*
X140108062Y-91852878D01*
X140103611Y-91867549D01*
X140102090Y-91882996D01*
X140100925Y-91884622D01*
X140098935Y-91884426D01*
X140098100Y-91882800D01*
X140098100Y-91791202D01*
X140098686Y-91789788D01*
X140106847Y-91781627D01*
X140120243Y-91761580D01*
X140129470Y-91739307D01*
X140134175Y-91715657D01*
X140134175Y-91691551D01*
X140129472Y-91667900D01*
X140120246Y-91645626D01*
X140106852Y-91625578D01*
X140098686Y-91617412D01*
X140098100Y-91615998D01*
X140098100Y-91524400D01*
X140099100Y-91522668D01*
X140101100Y-91522668D01*
X140102090Y-91524204D01*
X140103611Y-91539651D01*
X140108062Y-91554322D01*
X140115287Y-91567841D01*
X140125011Y-91579689D01*
X140136859Y-91589413D01*
X140150378Y-91596638D01*
X140165049Y-91601089D01*
X140180394Y-91602600D01*
X140871806Y-91602600D01*
X140887151Y-91601089D01*
X140901822Y-91596638D01*
X140915341Y-91589413D01*
X140927189Y-91579689D01*
X140936913Y-91567841D01*
X140944138Y-91554322D01*
X140948589Y-91539651D01*
X140950110Y-91524204D01*
X140951275Y-91522578D01*
X140953265Y-91522774D01*
G37*
G36*
X139048265Y-91522774D02*
G01*
X139049100Y-91524400D01*
X139049100Y-91615998D01*
X139048514Y-91617412D01*
X139040353Y-91625573D01*
X139026957Y-91645620D01*
X139017730Y-91667893D01*
X139013025Y-91691543D01*
X139013025Y-91715649D01*
X139017728Y-91739300D01*
X139026954Y-91761574D01*
X139040348Y-91781622D01*
X139048514Y-91789788D01*
X139049100Y-91791202D01*
X139049100Y-91882800D01*
X139048100Y-91884532D01*
X139046100Y-91884532D01*
X139045110Y-91882996D01*
X139043589Y-91867549D01*
X139039138Y-91852878D01*
X139031913Y-91839359D01*
X139022189Y-91827511D01*
X139010341Y-91817787D01*
X138996822Y-91810562D01*
X138982151Y-91806111D01*
X138966806Y-91804600D01*
X138275394Y-91804600D01*
X138260049Y-91806111D01*
X138245378Y-91810562D01*
X138231859Y-91817787D01*
X138220011Y-91827511D01*
X138210287Y-91839359D01*
X138203062Y-91852878D01*
X138198611Y-91867549D01*
X138197090Y-91882996D01*
X138195925Y-91884622D01*
X138193935Y-91884426D01*
X138193100Y-91882800D01*
X138193100Y-91791202D01*
X138193686Y-91789788D01*
X138201847Y-91781627D01*
X138215243Y-91761580D01*
X138224470Y-91739307D01*
X138229175Y-91715657D01*
X138229175Y-91691551D01*
X138224472Y-91667900D01*
X138215246Y-91645626D01*
X138201852Y-91625578D01*
X138193686Y-91617412D01*
X138193100Y-91615998D01*
X138193100Y-91524400D01*
X138194100Y-91522668D01*
X138196100Y-91522668D01*
X138197090Y-91524204D01*
X138198611Y-91539651D01*
X138203062Y-91554322D01*
X138210287Y-91567841D01*
X138220011Y-91579689D01*
X138231859Y-91589413D01*
X138245378Y-91596638D01*
X138260049Y-91601089D01*
X138275394Y-91602600D01*
X138966806Y-91602600D01*
X138982151Y-91601089D01*
X138996822Y-91596638D01*
X139010341Y-91589413D01*
X139022189Y-91579689D01*
X139031913Y-91567841D01*
X139039138Y-91554322D01*
X139043589Y-91539651D01*
X139045110Y-91524204D01*
X139046275Y-91522578D01*
X139048265Y-91522774D01*
G37*
G36*
X152848832Y-91768600D02*
G01*
X152849100Y-91769600D01*
X152849100Y-91867600D01*
X152848100Y-91869332D01*
X152847100Y-91869600D01*
X151145100Y-91869600D01*
X151143368Y-91868600D01*
X151143100Y-91867600D01*
X151143100Y-91769600D01*
X151144100Y-91767868D01*
X151145100Y-91767600D01*
X152847100Y-91767600D01*
X152848832Y-91768600D01*
G37*
G36*
X144348832Y-91768600D02*
G01*
X144349100Y-91769600D01*
X144349100Y-91867600D01*
X144348100Y-91869332D01*
X144347100Y-91869600D01*
X142645100Y-91869600D01*
X142643368Y-91868600D01*
X142643100Y-91867600D01*
X142643100Y-91769600D01*
X142644100Y-91767868D01*
X142645100Y-91767600D01*
X144347100Y-91767600D01*
X144348832Y-91768600D01*
G37*
G36*
X144348832Y-91268600D02*
G01*
X144349100Y-91269600D01*
X144349100Y-91367600D01*
X144348100Y-91369332D01*
X144347100Y-91369600D01*
X142645100Y-91369600D01*
X142643368Y-91368600D01*
X142643100Y-91367600D01*
X142643100Y-91269600D01*
X142644100Y-91267868D01*
X142645100Y-91267600D01*
X144347100Y-91267600D01*
X144348832Y-91268600D01*
G37*
G36*
X152848832Y-91268600D02*
G01*
X152849100Y-91269600D01*
X152849100Y-91367600D01*
X152848100Y-91369332D01*
X152847100Y-91369600D01*
X151145100Y-91369600D01*
X151143368Y-91368600D01*
X151143100Y-91367600D01*
X151143100Y-91269600D01*
X151144100Y-91267868D01*
X151145100Y-91267600D01*
X152847100Y-91267600D01*
X152848832Y-91268600D01*
G37*
G36*
X152848832Y-90768600D02*
G01*
X152849100Y-90769600D01*
X152849100Y-90867600D01*
X152848100Y-90869332D01*
X152847100Y-90869600D01*
X151145100Y-90869600D01*
X151143368Y-90868600D01*
X151143100Y-90867600D01*
X151143100Y-90769600D01*
X151144100Y-90767868D01*
X151145100Y-90767600D01*
X152847100Y-90767600D01*
X152848832Y-90768600D01*
G37*
G36*
X144348832Y-90768600D02*
G01*
X144349100Y-90769600D01*
X144349100Y-90867600D01*
X144348100Y-90869332D01*
X144347100Y-90869600D01*
X142645100Y-90869600D01*
X142643368Y-90868600D01*
X142643100Y-90867600D01*
X142643100Y-90769600D01*
X142644100Y-90767868D01*
X142645100Y-90767600D01*
X144347100Y-90767600D01*
X144348832Y-90768600D01*
G37*
G36*
X144348832Y-90268600D02*
G01*
X144349100Y-90269600D01*
X144349100Y-90367600D01*
X144348100Y-90369332D01*
X144347100Y-90369600D01*
X142645100Y-90369600D01*
X142643368Y-90368600D01*
X142643100Y-90367600D01*
X142643100Y-90269600D01*
X142644100Y-90267868D01*
X142645100Y-90267600D01*
X144347100Y-90267600D01*
X144348832Y-90268600D01*
G37*
G36*
X152848832Y-90268600D02*
G01*
X152849100Y-90269600D01*
X152849100Y-90367600D01*
X152848100Y-90369332D01*
X152847100Y-90369600D01*
X151145100Y-90369600D01*
X151143368Y-90368600D01*
X151143100Y-90367600D01*
X151143100Y-90269600D01*
X151144100Y-90267868D01*
X151145100Y-90267600D01*
X152847100Y-90267600D01*
X152848832Y-90268600D01*
G37*
G36*
X144348832Y-89768600D02*
G01*
X144349100Y-89769600D01*
X144349100Y-89867600D01*
X144348100Y-89869332D01*
X144347100Y-89869600D01*
X142645100Y-89869600D01*
X142643368Y-89868600D01*
X142643100Y-89867600D01*
X142643100Y-89769600D01*
X142644100Y-89767868D01*
X142645100Y-89767600D01*
X144347100Y-89767600D01*
X144348832Y-89768600D01*
G37*
G36*
X152848832Y-89768600D02*
G01*
X152849100Y-89769600D01*
X152849100Y-89867600D01*
X152848100Y-89869332D01*
X152847100Y-89869600D01*
X151145100Y-89869600D01*
X151143368Y-89868600D01*
X151143100Y-89867600D01*
X151143100Y-89769600D01*
X151144100Y-89767868D01*
X151145100Y-89767600D01*
X152847100Y-89767600D01*
X152848832Y-89768600D01*
G37*
G36*
X157603812Y-88602586D02*
G01*
X157611973Y-88610747D01*
X157632020Y-88624143D01*
X157654293Y-88633370D01*
X157677943Y-88638075D01*
X157702049Y-88638075D01*
X157725700Y-88633372D01*
X157747974Y-88624146D01*
X157768022Y-88610752D01*
X157776188Y-88602586D01*
X157777602Y-88602000D01*
X157869200Y-88602000D01*
X157870932Y-88603000D01*
X157870932Y-88605000D01*
X157869396Y-88605990D01*
X157853949Y-88607511D01*
X157839278Y-88611962D01*
X157825759Y-88619187D01*
X157813911Y-88628911D01*
X157804187Y-88640759D01*
X157796962Y-88654278D01*
X157792511Y-88668949D01*
X157791000Y-88684294D01*
X157791000Y-89375706D01*
X157792511Y-89391051D01*
X157796962Y-89405722D01*
X157804187Y-89419241D01*
X157813911Y-89431089D01*
X157825759Y-89440813D01*
X157839278Y-89448038D01*
X157853949Y-89452489D01*
X157869396Y-89454010D01*
X157871022Y-89455175D01*
X157870826Y-89457165D01*
X157869200Y-89458000D01*
X157777602Y-89458000D01*
X157776188Y-89457414D01*
X157768027Y-89449253D01*
X157747980Y-89435857D01*
X157725707Y-89426630D01*
X157702057Y-89421925D01*
X157677951Y-89421925D01*
X157654300Y-89426628D01*
X157632026Y-89435854D01*
X157611978Y-89449248D01*
X157603812Y-89457414D01*
X157602398Y-89458000D01*
X157510800Y-89458000D01*
X157509068Y-89457000D01*
X157509068Y-89455000D01*
X157510604Y-89454010D01*
X157526051Y-89452489D01*
X157540722Y-89448038D01*
X157554241Y-89440813D01*
X157566089Y-89431089D01*
X157575813Y-89419241D01*
X157583038Y-89405722D01*
X157587489Y-89391051D01*
X157589000Y-89375706D01*
X157589000Y-88684294D01*
X157587489Y-88668949D01*
X157583038Y-88654278D01*
X157575813Y-88640759D01*
X157566089Y-88628911D01*
X157554241Y-88619187D01*
X157540722Y-88611962D01*
X157526051Y-88607511D01*
X157510604Y-88605990D01*
X157508978Y-88604825D01*
X157509174Y-88602835D01*
X157510800Y-88602000D01*
X157602398Y-88602000D01*
X157603812Y-88602586D01*
G37*
G36*
X144348832Y-89268600D02*
G01*
X144349100Y-89269600D01*
X144349100Y-89367600D01*
X144348100Y-89369332D01*
X144347100Y-89369600D01*
X142645100Y-89369600D01*
X142643368Y-89368600D01*
X142643100Y-89367600D01*
X142643100Y-89269600D01*
X142644100Y-89267868D01*
X142645100Y-89267600D01*
X144347100Y-89267600D01*
X144348832Y-89268600D01*
G37*
G36*
X152848832Y-89268600D02*
G01*
X152849100Y-89269600D01*
X152849100Y-89367600D01*
X152848100Y-89369332D01*
X152847100Y-89369600D01*
X151145100Y-89369600D01*
X151143368Y-89368600D01*
X151143100Y-89367600D01*
X151143100Y-89269600D01*
X151144100Y-89267868D01*
X151145100Y-89267600D01*
X152847100Y-89267600D01*
X152848832Y-89268600D01*
G37*
G36*
X138534912Y-88101186D02*
G01*
X138543073Y-88109347D01*
X138563120Y-88122743D01*
X138585393Y-88131970D01*
X138609043Y-88136675D01*
X138633149Y-88136675D01*
X138656800Y-88131972D01*
X138679074Y-88122746D01*
X138699122Y-88109352D01*
X138707288Y-88101186D01*
X138708702Y-88100600D01*
X138800300Y-88100600D01*
X138802032Y-88101600D01*
X138802032Y-88103600D01*
X138800496Y-88104590D01*
X138785049Y-88106111D01*
X138770378Y-88110562D01*
X138756859Y-88117787D01*
X138745011Y-88127511D01*
X138735287Y-88139359D01*
X138728062Y-88152878D01*
X138723611Y-88167549D01*
X138722100Y-88182894D01*
X138722100Y-88874306D01*
X138723611Y-88889651D01*
X138728062Y-88904322D01*
X138735287Y-88917841D01*
X138745011Y-88929689D01*
X138756859Y-88939413D01*
X138770378Y-88946638D01*
X138785049Y-88951089D01*
X138800496Y-88952610D01*
X138802122Y-88953775D01*
X138801926Y-88955765D01*
X138800300Y-88956600D01*
X138708702Y-88956600D01*
X138707288Y-88956014D01*
X138699127Y-88947853D01*
X138679080Y-88934457D01*
X138656807Y-88925230D01*
X138633157Y-88920525D01*
X138609051Y-88920525D01*
X138585400Y-88925228D01*
X138563126Y-88934454D01*
X138543078Y-88947848D01*
X138534912Y-88956014D01*
X138533498Y-88956600D01*
X138441900Y-88956600D01*
X138440168Y-88955600D01*
X138440168Y-88953600D01*
X138441704Y-88952610D01*
X138457151Y-88951089D01*
X138471822Y-88946638D01*
X138485341Y-88939413D01*
X138497189Y-88929689D01*
X138506913Y-88917841D01*
X138514138Y-88904322D01*
X138518589Y-88889651D01*
X138520100Y-88874306D01*
X138520100Y-88182894D01*
X138518589Y-88167549D01*
X138514138Y-88152878D01*
X138506913Y-88139359D01*
X138497189Y-88127511D01*
X138485341Y-88117787D01*
X138471822Y-88110562D01*
X138457151Y-88106111D01*
X138441704Y-88104590D01*
X138440078Y-88103425D01*
X138440274Y-88101435D01*
X138441900Y-88100600D01*
X138533498Y-88100600D01*
X138534912Y-88101186D01*
G37*
G36*
X152848832Y-88768600D02*
G01*
X152849100Y-88769600D01*
X152849100Y-88867600D01*
X152848100Y-88869332D01*
X152847100Y-88869600D01*
X151145100Y-88869600D01*
X151143368Y-88868600D01*
X151143100Y-88867600D01*
X151143100Y-88769600D01*
X151144100Y-88767868D01*
X151145100Y-88767600D01*
X152847100Y-88767600D01*
X152848832Y-88768600D01*
G37*
G36*
X144348832Y-88768600D02*
G01*
X144349100Y-88769600D01*
X144349100Y-88867600D01*
X144348100Y-88869332D01*
X144347100Y-88869600D01*
X142645100Y-88869600D01*
X142643368Y-88868600D01*
X142643100Y-88867600D01*
X142643100Y-88769600D01*
X142644100Y-88767868D01*
X142645100Y-88767600D01*
X144347100Y-88767600D01*
X144348832Y-88768600D01*
G37*
G36*
X157613812Y-87142586D02*
G01*
X157621973Y-87150747D01*
X157642020Y-87164143D01*
X157664293Y-87173370D01*
X157687943Y-87178075D01*
X157712049Y-87178075D01*
X157735700Y-87173372D01*
X157757974Y-87164146D01*
X157778022Y-87150752D01*
X157786188Y-87142586D01*
X157787602Y-87142000D01*
X157879200Y-87142000D01*
X157880932Y-87143000D01*
X157880932Y-87145000D01*
X157879396Y-87145990D01*
X157863949Y-87147511D01*
X157849278Y-87151962D01*
X157835759Y-87159187D01*
X157823911Y-87168911D01*
X157814187Y-87180759D01*
X157806962Y-87194278D01*
X157802511Y-87208949D01*
X157801000Y-87224294D01*
X157801000Y-87915706D01*
X157802511Y-87931051D01*
X157806962Y-87945722D01*
X157814187Y-87959241D01*
X157823911Y-87971089D01*
X157835759Y-87980813D01*
X157849278Y-87988038D01*
X157863949Y-87992489D01*
X157879396Y-87994010D01*
X157881022Y-87995175D01*
X157880826Y-87997165D01*
X157879200Y-87998000D01*
X157787602Y-87998000D01*
X157786188Y-87997414D01*
X157778027Y-87989253D01*
X157757980Y-87975857D01*
X157735707Y-87966630D01*
X157712057Y-87961925D01*
X157687951Y-87961925D01*
X157664300Y-87966628D01*
X157642026Y-87975854D01*
X157621978Y-87989248D01*
X157613812Y-87997414D01*
X157612398Y-87998000D01*
X157520800Y-87998000D01*
X157519068Y-87997000D01*
X157519068Y-87995000D01*
X157520604Y-87994010D01*
X157536051Y-87992489D01*
X157550722Y-87988038D01*
X157564241Y-87980813D01*
X157576089Y-87971089D01*
X157585813Y-87959241D01*
X157593038Y-87945722D01*
X157597489Y-87931051D01*
X157599000Y-87915706D01*
X157599000Y-87224294D01*
X157597489Y-87208949D01*
X157593038Y-87194278D01*
X157585813Y-87180759D01*
X157576089Y-87168911D01*
X157564241Y-87159187D01*
X157550722Y-87151962D01*
X157536051Y-87147511D01*
X157520604Y-87145990D01*
X157518978Y-87144825D01*
X157519174Y-87142835D01*
X157520800Y-87142000D01*
X157612398Y-87142000D01*
X157613812Y-87142586D01*
G37*
G36*
X150296832Y-86216600D02*
G01*
X150297100Y-86217600D01*
X150297100Y-87919600D01*
X150296100Y-87921332D01*
X150295100Y-87921600D01*
X150197100Y-87921600D01*
X150195368Y-87920600D01*
X150195100Y-87919600D01*
X150195100Y-86219600D01*
X149797100Y-86219600D01*
X149797100Y-87919600D01*
X149796100Y-87921332D01*
X149795100Y-87921600D01*
X149697100Y-87921600D01*
X149695368Y-87920600D01*
X149695100Y-87919600D01*
X149695100Y-86219600D01*
X149297100Y-86219600D01*
X149297100Y-87919600D01*
X149296100Y-87921332D01*
X149295100Y-87921600D01*
X149197100Y-87921600D01*
X149195368Y-87920600D01*
X149195100Y-87919600D01*
X149195100Y-86219600D01*
X148797100Y-86219600D01*
X148797100Y-87919600D01*
X148796100Y-87921332D01*
X148795100Y-87921600D01*
X148697100Y-87921600D01*
X148695368Y-87920600D01*
X148695100Y-87919600D01*
X148695100Y-86219600D01*
X148297100Y-86219600D01*
X148297100Y-87919600D01*
X148296100Y-87921332D01*
X148295100Y-87921600D01*
X148197100Y-87921600D01*
X148195368Y-87920600D01*
X148195100Y-87919600D01*
X148195100Y-86219600D01*
X147797100Y-86219600D01*
X147797100Y-87919600D01*
X147796100Y-87921332D01*
X147795100Y-87921600D01*
X147697100Y-87921600D01*
X147695368Y-87920600D01*
X147695100Y-87919600D01*
X147695100Y-86219600D01*
X147297100Y-86219600D01*
X147297100Y-87919600D01*
X147296100Y-87921332D01*
X147295100Y-87921600D01*
X147197100Y-87921600D01*
X147195368Y-87920600D01*
X147195100Y-87919600D01*
X147195100Y-86219600D01*
X146797100Y-86219600D01*
X146797100Y-87919600D01*
X146796100Y-87921332D01*
X146795100Y-87921600D01*
X146697100Y-87921600D01*
X146695368Y-87920600D01*
X146695100Y-87919600D01*
X146695100Y-86219600D01*
X146297100Y-86219600D01*
X146297100Y-87919600D01*
X146296100Y-87921332D01*
X146295100Y-87921600D01*
X146197100Y-87921600D01*
X146195368Y-87920600D01*
X146195100Y-87919600D01*
X146195100Y-86219600D01*
X145797100Y-86219600D01*
X145797100Y-87919600D01*
X145796100Y-87921332D01*
X145795100Y-87921600D01*
X145697100Y-87921600D01*
X145695368Y-87920600D01*
X145695100Y-87919600D01*
X145695100Y-86219600D01*
X145297100Y-86219600D01*
X145297100Y-87919600D01*
X145296100Y-87921332D01*
X145295100Y-87921600D01*
X145197100Y-87921600D01*
X145195368Y-87920600D01*
X145195100Y-87919600D01*
X145195100Y-86217600D01*
X145196100Y-86215868D01*
X145197100Y-86215600D01*
X150295100Y-86215600D01*
X150296832Y-86216600D01*
G37*
G36*
X157613812Y-85862586D02*
G01*
X157621973Y-85870747D01*
X157642020Y-85884143D01*
X157664293Y-85893370D01*
X157687943Y-85898075D01*
X157712049Y-85898075D01*
X157735700Y-85893372D01*
X157757974Y-85884146D01*
X157778022Y-85870752D01*
X157786188Y-85862586D01*
X157787602Y-85862000D01*
X157879200Y-85862000D01*
X157880932Y-85863000D01*
X157880932Y-85865000D01*
X157879396Y-85865990D01*
X157863949Y-85867511D01*
X157849278Y-85871962D01*
X157835759Y-85879187D01*
X157823911Y-85888911D01*
X157814187Y-85900759D01*
X157806962Y-85914278D01*
X157802511Y-85928949D01*
X157801000Y-85944294D01*
X157801000Y-86635706D01*
X157802511Y-86651051D01*
X157806962Y-86665722D01*
X157814187Y-86679241D01*
X157823911Y-86691089D01*
X157835759Y-86700813D01*
X157849278Y-86708038D01*
X157863949Y-86712489D01*
X157879396Y-86714010D01*
X157881022Y-86715175D01*
X157880826Y-86717165D01*
X157879200Y-86718000D01*
X157787602Y-86718000D01*
X157786188Y-86717414D01*
X157778027Y-86709253D01*
X157757980Y-86695857D01*
X157735707Y-86686630D01*
X157712057Y-86681925D01*
X157687951Y-86681925D01*
X157664300Y-86686628D01*
X157642026Y-86695854D01*
X157621978Y-86709248D01*
X157613812Y-86717414D01*
X157612398Y-86718000D01*
X157520800Y-86718000D01*
X157519068Y-86717000D01*
X157519068Y-86715000D01*
X157520604Y-86714010D01*
X157536051Y-86712489D01*
X157550722Y-86708038D01*
X157564241Y-86700813D01*
X157576089Y-86691089D01*
X157585813Y-86679241D01*
X157593038Y-86665722D01*
X157597489Y-86651051D01*
X157599000Y-86635706D01*
X157599000Y-85944294D01*
X157597489Y-85928949D01*
X157593038Y-85914278D01*
X157585813Y-85900759D01*
X157576089Y-85888911D01*
X157564241Y-85879187D01*
X157550722Y-85871962D01*
X157536051Y-85867511D01*
X157520604Y-85865990D01*
X157518978Y-85864825D01*
X157519174Y-85862835D01*
X157520800Y-85862000D01*
X157612398Y-85862000D01*
X157613812Y-85862586D01*
G37*
G36*
X153018265Y-86125274D02*
G01*
X153019100Y-86126900D01*
X153019100Y-86218498D01*
X153018514Y-86219912D01*
X153010353Y-86228073D01*
X152996957Y-86248120D01*
X152987730Y-86270393D01*
X152983025Y-86294043D01*
X152983025Y-86318149D01*
X152987728Y-86341800D01*
X152996954Y-86364074D01*
X153010348Y-86384122D01*
X153018514Y-86392288D01*
X153019100Y-86393702D01*
X153019100Y-86485300D01*
X153018100Y-86487032D01*
X153016100Y-86487032D01*
X153015110Y-86485496D01*
X153013589Y-86470049D01*
X153009138Y-86455378D01*
X153001913Y-86441859D01*
X152992189Y-86430011D01*
X152980341Y-86420287D01*
X152966822Y-86413062D01*
X152952151Y-86408611D01*
X152936806Y-86407100D01*
X152245394Y-86407100D01*
X152230049Y-86408611D01*
X152215378Y-86413062D01*
X152201859Y-86420287D01*
X152190011Y-86430011D01*
X152180287Y-86441859D01*
X152173062Y-86455378D01*
X152168611Y-86470049D01*
X152167090Y-86485496D01*
X152165925Y-86487122D01*
X152163935Y-86486926D01*
X152163100Y-86485300D01*
X152163100Y-86393702D01*
X152163686Y-86392288D01*
X152171847Y-86384127D01*
X152185243Y-86364080D01*
X152194470Y-86341807D01*
X152199175Y-86318157D01*
X152199175Y-86294051D01*
X152194472Y-86270400D01*
X152185246Y-86248126D01*
X152171852Y-86228078D01*
X152163686Y-86219912D01*
X152163100Y-86218498D01*
X152163100Y-86126900D01*
X152164100Y-86125168D01*
X152166100Y-86125168D01*
X152167090Y-86126704D01*
X152168611Y-86142151D01*
X152173062Y-86156822D01*
X152180287Y-86170341D01*
X152190011Y-86182189D01*
X152201859Y-86191913D01*
X152215378Y-86199138D01*
X152230049Y-86203589D01*
X152245394Y-86205100D01*
X152936806Y-86205100D01*
X152952151Y-86203589D01*
X152966822Y-86199138D01*
X152980341Y-86191913D01*
X152992189Y-86182189D01*
X153001913Y-86170341D01*
X153009138Y-86156822D01*
X153013589Y-86142151D01*
X153015110Y-86126704D01*
X153016275Y-86125078D01*
X153018265Y-86125274D01*
G37*
G36*
X138534912Y-85561186D02*
G01*
X138543073Y-85569347D01*
X138563120Y-85582743D01*
X138585393Y-85591970D01*
X138609043Y-85596675D01*
X138633149Y-85596675D01*
X138656800Y-85591972D01*
X138679074Y-85582746D01*
X138699122Y-85569352D01*
X138707288Y-85561186D01*
X138708702Y-85560600D01*
X138800300Y-85560600D01*
X138802032Y-85561600D01*
X138802032Y-85563600D01*
X138800496Y-85564590D01*
X138785049Y-85566111D01*
X138770378Y-85570562D01*
X138756859Y-85577787D01*
X138745011Y-85587511D01*
X138735287Y-85599359D01*
X138728062Y-85612878D01*
X138723611Y-85627549D01*
X138722100Y-85642894D01*
X138722100Y-86334306D01*
X138723611Y-86349651D01*
X138728062Y-86364322D01*
X138735287Y-86377841D01*
X138745011Y-86389689D01*
X138756859Y-86399413D01*
X138770378Y-86406638D01*
X138785049Y-86411089D01*
X138800496Y-86412610D01*
X138802122Y-86413775D01*
X138801926Y-86415765D01*
X138800300Y-86416600D01*
X138708702Y-86416600D01*
X138707288Y-86416014D01*
X138699127Y-86407853D01*
X138679080Y-86394457D01*
X138656807Y-86385230D01*
X138633157Y-86380525D01*
X138609051Y-86380525D01*
X138585400Y-86385228D01*
X138563126Y-86394454D01*
X138543078Y-86407848D01*
X138534912Y-86416014D01*
X138533498Y-86416600D01*
X138441900Y-86416600D01*
X138440168Y-86415600D01*
X138440168Y-86413600D01*
X138441704Y-86412610D01*
X138457151Y-86411089D01*
X138471822Y-86406638D01*
X138485341Y-86399413D01*
X138497189Y-86389689D01*
X138506913Y-86377841D01*
X138514138Y-86364322D01*
X138518589Y-86349651D01*
X138520100Y-86334306D01*
X138520100Y-85642894D01*
X138518589Y-85627549D01*
X138514138Y-85612878D01*
X138506913Y-85599359D01*
X138497189Y-85587511D01*
X138485341Y-85577787D01*
X138471822Y-85570562D01*
X138457151Y-85566111D01*
X138441704Y-85564590D01*
X138440078Y-85563425D01*
X138440274Y-85561435D01*
X138441900Y-85560600D01*
X138533498Y-85560600D01*
X138534912Y-85561186D01*
G37*
G36*
X149329912Y-83656186D02*
G01*
X149338073Y-83664347D01*
X149358120Y-83677743D01*
X149380393Y-83686970D01*
X149404043Y-83691675D01*
X149428149Y-83691675D01*
X149451800Y-83686972D01*
X149474074Y-83677746D01*
X149494122Y-83664352D01*
X149502288Y-83656186D01*
X149503702Y-83655600D01*
X149595300Y-83655600D01*
X149597032Y-83656600D01*
X149597032Y-83658600D01*
X149595496Y-83659590D01*
X149580049Y-83661111D01*
X149565378Y-83665562D01*
X149551859Y-83672787D01*
X149540011Y-83682511D01*
X149530287Y-83694359D01*
X149523062Y-83707878D01*
X149518611Y-83722549D01*
X149517100Y-83737894D01*
X149517100Y-84429306D01*
X149518611Y-84444651D01*
X149523062Y-84459322D01*
X149530287Y-84472841D01*
X149540011Y-84484689D01*
X149551859Y-84494413D01*
X149565378Y-84501638D01*
X149580049Y-84506089D01*
X149595496Y-84507610D01*
X149597122Y-84508775D01*
X149596926Y-84510765D01*
X149595300Y-84511600D01*
X149503702Y-84511600D01*
X149502288Y-84511014D01*
X149494127Y-84502853D01*
X149474080Y-84489457D01*
X149451807Y-84480230D01*
X149428157Y-84475525D01*
X149404051Y-84475525D01*
X149380400Y-84480228D01*
X149358126Y-84489454D01*
X149338078Y-84502848D01*
X149329912Y-84511014D01*
X149328498Y-84511600D01*
X149236900Y-84511600D01*
X149235168Y-84510600D01*
X149235168Y-84508600D01*
X149236704Y-84507610D01*
X149252151Y-84506089D01*
X149266822Y-84501638D01*
X149280341Y-84494413D01*
X149292189Y-84484689D01*
X149301913Y-84472841D01*
X149309138Y-84459322D01*
X149313589Y-84444651D01*
X149315100Y-84429306D01*
X149315100Y-83737894D01*
X149313589Y-83722549D01*
X149309138Y-83707878D01*
X149301913Y-83694359D01*
X149292189Y-83682511D01*
X149280341Y-83672787D01*
X149266822Y-83665562D01*
X149252151Y-83661111D01*
X149236704Y-83659590D01*
X149235078Y-83658425D01*
X149235274Y-83656435D01*
X149236900Y-83655600D01*
X149328498Y-83655600D01*
X149329912Y-83656186D01*
G37*
G36*
X146154912Y-83656186D02*
G01*
X146163073Y-83664347D01*
X146183120Y-83677743D01*
X146205393Y-83686970D01*
X146229043Y-83691675D01*
X146253149Y-83691675D01*
X146276800Y-83686972D01*
X146299074Y-83677746D01*
X146319122Y-83664352D01*
X146327288Y-83656186D01*
X146328702Y-83655600D01*
X146420300Y-83655600D01*
X146422032Y-83656600D01*
X146422032Y-83658600D01*
X146420496Y-83659590D01*
X146405049Y-83661111D01*
X146390378Y-83665562D01*
X146376859Y-83672787D01*
X146365011Y-83682511D01*
X146355287Y-83694359D01*
X146348062Y-83707878D01*
X146343611Y-83722549D01*
X146342100Y-83737894D01*
X146342100Y-84429306D01*
X146343611Y-84444651D01*
X146348062Y-84459322D01*
X146355287Y-84472841D01*
X146365011Y-84484689D01*
X146376859Y-84494413D01*
X146390378Y-84501638D01*
X146405049Y-84506089D01*
X146420496Y-84507610D01*
X146422122Y-84508775D01*
X146421926Y-84510765D01*
X146420300Y-84511600D01*
X146328702Y-84511600D01*
X146327288Y-84511014D01*
X146319127Y-84502853D01*
X146299080Y-84489457D01*
X146276807Y-84480230D01*
X146253157Y-84475525D01*
X146229051Y-84475525D01*
X146205400Y-84480228D01*
X146183126Y-84489454D01*
X146163078Y-84502848D01*
X146154912Y-84511014D01*
X146153498Y-84511600D01*
X146061900Y-84511600D01*
X146060168Y-84510600D01*
X146060168Y-84508600D01*
X146061704Y-84507610D01*
X146077151Y-84506089D01*
X146091822Y-84501638D01*
X146105341Y-84494413D01*
X146117189Y-84484689D01*
X146126913Y-84472841D01*
X146134138Y-84459322D01*
X146138589Y-84444651D01*
X146140100Y-84429306D01*
X146140100Y-83737894D01*
X146138589Y-83722549D01*
X146134138Y-83707878D01*
X146126913Y-83694359D01*
X146117189Y-83682511D01*
X146105341Y-83672787D01*
X146091822Y-83665562D01*
X146077151Y-83661111D01*
X146061704Y-83659590D01*
X146060078Y-83658425D01*
X146060274Y-83656435D01*
X146061900Y-83655600D01*
X146153498Y-83655600D01*
X146154912Y-83656186D01*
G37*
G36*
X146154912Y-81751186D02*
G01*
X146163073Y-81759347D01*
X146183120Y-81772743D01*
X146205393Y-81781970D01*
X146229043Y-81786675D01*
X146253149Y-81786675D01*
X146276800Y-81781972D01*
X146299074Y-81772746D01*
X146319122Y-81759352D01*
X146327288Y-81751186D01*
X146328702Y-81750600D01*
X146420300Y-81750600D01*
X146422032Y-81751600D01*
X146422032Y-81753600D01*
X146420496Y-81754590D01*
X146405049Y-81756111D01*
X146390378Y-81760562D01*
X146376859Y-81767787D01*
X146365011Y-81777511D01*
X146355287Y-81789359D01*
X146348062Y-81802878D01*
X146343611Y-81817549D01*
X146342100Y-81832894D01*
X146342100Y-82524306D01*
X146343611Y-82539651D01*
X146348062Y-82554322D01*
X146355287Y-82567841D01*
X146365011Y-82579689D01*
X146376859Y-82589413D01*
X146390378Y-82596638D01*
X146405049Y-82601089D01*
X146420496Y-82602610D01*
X146422122Y-82603775D01*
X146421926Y-82605765D01*
X146420300Y-82606600D01*
X146328702Y-82606600D01*
X146327288Y-82606014D01*
X146319127Y-82597853D01*
X146299080Y-82584457D01*
X146276807Y-82575230D01*
X146253157Y-82570525D01*
X146229051Y-82570525D01*
X146205400Y-82575228D01*
X146183126Y-82584454D01*
X146163078Y-82597848D01*
X146154912Y-82606014D01*
X146153498Y-82606600D01*
X146061900Y-82606600D01*
X146060168Y-82605600D01*
X146060168Y-82603600D01*
X146061704Y-82602610D01*
X146077151Y-82601089D01*
X146091822Y-82596638D01*
X146105341Y-82589413D01*
X146117189Y-82579689D01*
X146126913Y-82567841D01*
X146134138Y-82554322D01*
X146138589Y-82539651D01*
X146140100Y-82524306D01*
X146140100Y-81832894D01*
X146138589Y-81817549D01*
X146134138Y-81802878D01*
X146126913Y-81789359D01*
X146117189Y-81777511D01*
X146105341Y-81767787D01*
X146091822Y-81760562D01*
X146077151Y-81756111D01*
X146061704Y-81754590D01*
X146060078Y-81753425D01*
X146060274Y-81751435D01*
X146061900Y-81750600D01*
X146153498Y-81750600D01*
X146154912Y-81751186D01*
G37*
G36*
X146021832Y-70910600D02*
G01*
X146022100Y-70911600D01*
X146022100Y-72363600D01*
X146021100Y-72365332D01*
X146020100Y-72365600D01*
X145872100Y-72365600D01*
X145870368Y-72364600D01*
X145870100Y-72363600D01*
X145870100Y-70913600D01*
X145372100Y-70913600D01*
X145372100Y-72363600D01*
X145371100Y-72365332D01*
X145370100Y-72365600D01*
X145222100Y-72365600D01*
X145220368Y-72364600D01*
X145220100Y-72363600D01*
X145220100Y-70913600D01*
X144722100Y-70913600D01*
X144722100Y-72363600D01*
X144721100Y-72365332D01*
X144720100Y-72365600D01*
X144572100Y-72365600D01*
X144570368Y-72364600D01*
X144570100Y-72363600D01*
X144570100Y-70913600D01*
X144072100Y-70913600D01*
X144072100Y-72363600D01*
X144071100Y-72365332D01*
X144070100Y-72365600D01*
X143922100Y-72365600D01*
X143920368Y-72364600D01*
X143920100Y-72363600D01*
X143920100Y-70911600D01*
X143921100Y-70909868D01*
X143922100Y-70909600D01*
X146020100Y-70909600D01*
X146021832Y-70910600D01*
G37*
M02*
