G04 #@! TF.GenerationSoftware,KiCad,Pcbnew,5.1.8+dfsg1-1~bpo10+1*
G04 #@! TF.CreationDate,2021-01-21T20:32:40+01:00*
G04 #@! TF.ProjectId,easyhive,65617379-6869-4766-952e-6b696361645f,rev?*
G04 #@! TF.SameCoordinates,Original*
G04 #@! TF.FileFunction,Legend,Top*
G04 #@! TF.FilePolarity,Positive*
%FSLAX46Y46*%
G04 Gerber Fmt 4.6, Leading zero omitted, Abs format (unit mm)*
G04 Created by KiCad (PCBNEW 5.1.8+dfsg1-1~bpo10+1) date 2021-01-21 20:32:40*
%MOMM*%
%LPD*%
G01*
G04 APERTURE LIST*
%ADD10C,0.150000*%
%ADD11C,0.400000*%
%ADD12C,0.120000*%
%ADD13C,0.203200*%
%ADD14C,0.127000*%
%ADD15C,0.152400*%
%ADD16C,0.100000*%
%ADD17C,0.050800*%
G04 APERTURE END LIST*
D10*
X159200000Y-135300000D02*
X160000000Y-134800000D01*
X140700000Y-115200000D02*
X139529200Y-114158200D01*
X159907023Y-125352380D02*
X159573690Y-124876190D01*
X159335595Y-125352380D02*
X159335595Y-124352380D01*
X159716547Y-124352380D01*
X159811785Y-124400000D01*
X159859404Y-124447619D01*
X159907023Y-124542857D01*
X159907023Y-124685714D01*
X159859404Y-124780952D01*
X159811785Y-124828571D01*
X159716547Y-124876190D01*
X159335595Y-124876190D01*
X160240357Y-125352380D02*
X160764166Y-124685714D01*
X160240357Y-124685714D02*
X160764166Y-125352380D01*
X163792738Y-122752380D02*
X164364166Y-122752380D01*
X164078452Y-123752380D02*
X164078452Y-122752380D01*
X164602261Y-123752380D02*
X165126071Y-123085714D01*
X164602261Y-123085714D02*
X165126071Y-123752380D01*
X159352380Y-100592976D02*
X158876190Y-100926309D01*
X159352380Y-101164404D02*
X158352380Y-101164404D01*
X158352380Y-100783452D01*
X158400000Y-100688214D01*
X158447619Y-100640595D01*
X158542857Y-100592976D01*
X158685714Y-100592976D01*
X158780952Y-100640595D01*
X158828571Y-100688214D01*
X158876190Y-100783452D01*
X158876190Y-101164404D01*
X159352380Y-100259642D02*
X158685714Y-99735833D01*
X158685714Y-100259642D02*
X159352380Y-99735833D01*
X156852380Y-101307261D02*
X156852380Y-100735833D01*
X157852380Y-101021547D02*
X156852380Y-101021547D01*
X157852380Y-100497738D02*
X157185714Y-99973928D01*
X157185714Y-100497738D02*
X157852380Y-99973928D01*
X133100000Y-102600000D02*
X132700000Y-102300000D01*
X139700000Y-99500000D02*
X139200000Y-100100000D01*
X157892738Y-127952380D02*
X158226071Y-128952380D01*
X158559404Y-127952380D01*
X158892738Y-127952380D02*
X158892738Y-128761904D01*
X158940357Y-128857142D01*
X158987976Y-128904761D01*
X159083214Y-128952380D01*
X159273690Y-128952380D01*
X159368928Y-128904761D01*
X159416547Y-128857142D01*
X159464166Y-128761904D01*
X159464166Y-127952380D01*
X159892738Y-128904761D02*
X160035595Y-128952380D01*
X160273690Y-128952380D01*
X160368928Y-128904761D01*
X160416547Y-128857142D01*
X160464166Y-128761904D01*
X160464166Y-128666666D01*
X160416547Y-128571428D01*
X160368928Y-128523809D01*
X160273690Y-128476190D01*
X160083214Y-128428571D01*
X159987976Y-128380952D01*
X159940357Y-128333333D01*
X159892738Y-128238095D01*
X159892738Y-128142857D01*
X159940357Y-128047619D01*
X159987976Y-128000000D01*
X160083214Y-127952380D01*
X160321309Y-127952380D01*
X160464166Y-128000000D01*
X161226071Y-128428571D02*
X161368928Y-128476190D01*
X161416547Y-128523809D01*
X161464166Y-128619047D01*
X161464166Y-128761904D01*
X161416547Y-128857142D01*
X161368928Y-128904761D01*
X161273690Y-128952380D01*
X160892738Y-128952380D01*
X160892738Y-127952380D01*
X161226071Y-127952380D01*
X161321309Y-128000000D01*
X161368928Y-128047619D01*
X161416547Y-128142857D01*
X161416547Y-128238095D01*
X161368928Y-128333333D01*
X161321309Y-128380952D01*
X161226071Y-128428571D01*
X160892738Y-128428571D01*
X160235595Y-131052380D02*
X160235595Y-130052380D01*
X160473690Y-130052380D01*
X160616547Y-130100000D01*
X160711785Y-130195238D01*
X160759404Y-130290476D01*
X160807023Y-130480952D01*
X160807023Y-130623809D01*
X160759404Y-130814285D01*
X160711785Y-130909523D01*
X160616547Y-131004761D01*
X160473690Y-131052380D01*
X160235595Y-131052380D01*
X161235595Y-131052380D02*
X161235595Y-130052380D01*
X161568928Y-130766666D01*
X161902261Y-130052380D01*
X161902261Y-131052380D01*
X156535595Y-135852380D02*
X156535595Y-134852380D01*
X156868928Y-135566666D01*
X157202261Y-134852380D01*
X157202261Y-135852380D01*
X157821309Y-135852380D02*
X157726071Y-135804761D01*
X157678452Y-135757142D01*
X157630833Y-135661904D01*
X157630833Y-135376190D01*
X157678452Y-135280952D01*
X157726071Y-135233333D01*
X157821309Y-135185714D01*
X157964166Y-135185714D01*
X158059404Y-135233333D01*
X158107023Y-135280952D01*
X158154642Y-135376190D01*
X158154642Y-135661904D01*
X158107023Y-135757142D01*
X158059404Y-135804761D01*
X157964166Y-135852380D01*
X157821309Y-135852380D01*
X159011785Y-135852380D02*
X159011785Y-134852380D01*
X159011785Y-135804761D02*
X158916547Y-135852380D01*
X158726071Y-135852380D01*
X158630833Y-135804761D01*
X158583214Y-135757142D01*
X158535595Y-135661904D01*
X158535595Y-135376190D01*
X158583214Y-135280952D01*
X158630833Y-135233333D01*
X158726071Y-135185714D01*
X158916547Y-135185714D01*
X159011785Y-135233333D01*
X160335595Y-133052380D02*
X160335595Y-132052380D01*
X160573690Y-132052380D01*
X160716547Y-132100000D01*
X160811785Y-132195238D01*
X160859404Y-132290476D01*
X160907023Y-132480952D01*
X160907023Y-132623809D01*
X160859404Y-132814285D01*
X160811785Y-132909523D01*
X160716547Y-133004761D01*
X160573690Y-133052380D01*
X160335595Y-133052380D01*
X161335595Y-133052380D02*
X161335595Y-132052380D01*
X161716547Y-132052380D01*
X161811785Y-132100000D01*
X161859404Y-132147619D01*
X161907023Y-132242857D01*
X161907023Y-132385714D01*
X161859404Y-132480952D01*
X161811785Y-132528571D01*
X161716547Y-132576190D01*
X161335595Y-132576190D01*
X159050000Y-85600000D02*
X159250000Y-85750000D01*
X157250000Y-85600000D02*
X159000000Y-85600000D01*
X156700000Y-85250000D02*
X157250000Y-85600000D01*
X161450000Y-87450000D02*
X161850000Y-87850000D01*
X140309404Y-123350000D02*
X140214166Y-123302380D01*
X140071309Y-123302380D01*
X139928452Y-123350000D01*
X139833214Y-123445238D01*
X139785595Y-123540476D01*
X139737976Y-123730952D01*
X139737976Y-123873809D01*
X139785595Y-124064285D01*
X139833214Y-124159523D01*
X139928452Y-124254761D01*
X140071309Y-124302380D01*
X140166547Y-124302380D01*
X140309404Y-124254761D01*
X140357023Y-124207142D01*
X140357023Y-123873809D01*
X140166547Y-123873809D01*
X140785595Y-124302380D02*
X140785595Y-123302380D01*
X141357023Y-124302380D01*
X141357023Y-123302380D01*
X141833214Y-124302380D02*
X141833214Y-123302380D01*
X142071309Y-123302380D01*
X142214166Y-123350000D01*
X142309404Y-123445238D01*
X142357023Y-123540476D01*
X142404642Y-123730952D01*
X142404642Y-123873809D01*
X142357023Y-124064285D01*
X142309404Y-124159523D01*
X142214166Y-124254761D01*
X142071309Y-124302380D01*
X141833214Y-124302380D01*
X140259404Y-115550000D02*
X140164166Y-115502380D01*
X140021309Y-115502380D01*
X139878452Y-115550000D01*
X139783214Y-115645238D01*
X139735595Y-115740476D01*
X139687976Y-115930952D01*
X139687976Y-116073809D01*
X139735595Y-116264285D01*
X139783214Y-116359523D01*
X139878452Y-116454761D01*
X140021309Y-116502380D01*
X140116547Y-116502380D01*
X140259404Y-116454761D01*
X140307023Y-116407142D01*
X140307023Y-116073809D01*
X140116547Y-116073809D01*
X140735595Y-116502380D02*
X140735595Y-115502380D01*
X141307023Y-116502380D01*
X141307023Y-115502380D01*
X141783214Y-116502380D02*
X141783214Y-115502380D01*
X142021309Y-115502380D01*
X142164166Y-115550000D01*
X142259404Y-115645238D01*
X142307023Y-115740476D01*
X142354642Y-115930952D01*
X142354642Y-116073809D01*
X142307023Y-116264285D01*
X142259404Y-116359523D01*
X142164166Y-116454761D01*
X142021309Y-116502380D01*
X141783214Y-116502380D01*
X141700000Y-91200000D02*
X141650000Y-90650000D01*
X158664404Y-91452380D02*
X158664404Y-90452380D01*
X158902500Y-90452380D01*
X159045357Y-90500000D01*
X159140595Y-90595238D01*
X159188214Y-90690476D01*
X159235833Y-90880952D01*
X159235833Y-91023809D01*
X159188214Y-91214285D01*
X159140595Y-91309523D01*
X159045357Y-91404761D01*
X158902500Y-91452380D01*
X158664404Y-91452380D01*
X159616785Y-91166666D02*
X160092976Y-91166666D01*
X159521547Y-91452380D02*
X159854880Y-90452380D01*
X160188214Y-91452380D01*
X160378690Y-90452380D02*
X160950119Y-90452380D01*
X160664404Y-91452380D02*
X160664404Y-90452380D01*
X161235833Y-91166666D02*
X161712023Y-91166666D01*
X161140595Y-91452380D02*
X161473928Y-90452380D01*
X161807261Y-91452380D01*
X161350000Y-85981540D02*
X162000000Y-85500000D01*
X159816785Y-92300000D02*
X159721547Y-92252380D01*
X159578690Y-92252380D01*
X159435833Y-92300000D01*
X159340595Y-92395238D01*
X159292976Y-92490476D01*
X159245357Y-92680952D01*
X159245357Y-92823809D01*
X159292976Y-93014285D01*
X159340595Y-93109523D01*
X159435833Y-93204761D01*
X159578690Y-93252380D01*
X159673928Y-93252380D01*
X159816785Y-93204761D01*
X159864404Y-93157142D01*
X159864404Y-92823809D01*
X159673928Y-92823809D01*
X160292976Y-93252380D02*
X160292976Y-92252380D01*
X160864404Y-93252380D01*
X160864404Y-92252380D01*
X161340595Y-93252380D02*
X161340595Y-92252380D01*
X161578690Y-92252380D01*
X161721547Y-92300000D01*
X161816785Y-92395238D01*
X161864404Y-92490476D01*
X161912023Y-92680952D01*
X161912023Y-92823809D01*
X161864404Y-93014285D01*
X161816785Y-93109523D01*
X161721547Y-93204761D01*
X161578690Y-93252380D01*
X161340595Y-93252380D01*
X133000000Y-109601000D02*
X132029200Y-110058200D01*
X137769600Y-105511600D02*
X136961600Y-105529000D01*
X135971576Y-77908361D02*
X136114433Y-77955980D01*
X136352528Y-77955980D01*
X136447766Y-77908361D01*
X136495385Y-77860742D01*
X136543004Y-77765504D01*
X136543004Y-77670266D01*
X136495385Y-77575028D01*
X136447766Y-77527409D01*
X136352528Y-77479790D01*
X136162052Y-77432171D01*
X136066814Y-77384552D01*
X136019195Y-77336933D01*
X135971576Y-77241695D01*
X135971576Y-77146457D01*
X136019195Y-77051219D01*
X136066814Y-77003600D01*
X136162052Y-76955980D01*
X136400147Y-76955980D01*
X136543004Y-77003600D01*
X136971576Y-77575028D02*
X137733480Y-77575028D01*
X137352528Y-77955980D02*
X137352528Y-77194076D01*
X135971576Y-79908361D02*
X136114433Y-79955980D01*
X136352528Y-79955980D01*
X136447766Y-79908361D01*
X136495385Y-79860742D01*
X136543004Y-79765504D01*
X136543004Y-79670266D01*
X136495385Y-79575028D01*
X136447766Y-79527409D01*
X136352528Y-79479790D01*
X136162052Y-79432171D01*
X136066814Y-79384552D01*
X136019195Y-79336933D01*
X135971576Y-79241695D01*
X135971576Y-79146457D01*
X136019195Y-79051219D01*
X136066814Y-79003600D01*
X136162052Y-78955980D01*
X136400147Y-78955980D01*
X136543004Y-79003600D01*
X136971576Y-79575028D02*
X137733480Y-79575028D01*
X135368357Y-85050380D02*
X135606452Y-86050380D01*
X135796928Y-85336095D01*
X135987404Y-86050380D01*
X136225500Y-85050380D01*
X136558833Y-86002761D02*
X136701690Y-86050380D01*
X136939785Y-86050380D01*
X137035023Y-86002761D01*
X137082642Y-85955142D01*
X137130261Y-85859904D01*
X137130261Y-85764666D01*
X137082642Y-85669428D01*
X137035023Y-85621809D01*
X136939785Y-85574190D01*
X136749309Y-85526571D01*
X136654071Y-85478952D01*
X136606452Y-85431333D01*
X136558833Y-85336095D01*
X136558833Y-85240857D01*
X136606452Y-85145619D01*
X136654071Y-85098000D01*
X136749309Y-85050380D01*
X136987404Y-85050380D01*
X137130261Y-85098000D01*
X135415976Y-88034761D02*
X135558833Y-88082380D01*
X135796928Y-88082380D01*
X135892166Y-88034761D01*
X135939785Y-87987142D01*
X135987404Y-87891904D01*
X135987404Y-87796666D01*
X135939785Y-87701428D01*
X135892166Y-87653809D01*
X135796928Y-87606190D01*
X135606452Y-87558571D01*
X135511214Y-87510952D01*
X135463595Y-87463333D01*
X135415976Y-87368095D01*
X135415976Y-87272857D01*
X135463595Y-87177619D01*
X135511214Y-87130000D01*
X135606452Y-87082380D01*
X135844547Y-87082380D01*
X135987404Y-87130000D01*
X136415976Y-88082380D02*
X136415976Y-87082380D01*
X136654071Y-87082380D01*
X136796928Y-87130000D01*
X136892166Y-87225238D01*
X136939785Y-87320476D01*
X136987404Y-87510952D01*
X136987404Y-87653809D01*
X136939785Y-87844285D01*
X136892166Y-87939523D01*
X136796928Y-88034761D01*
X136654071Y-88082380D01*
X136415976Y-88082380D01*
X135415976Y-90066761D02*
X135558833Y-90114380D01*
X135796928Y-90114380D01*
X135892166Y-90066761D01*
X135939785Y-90019142D01*
X135987404Y-89923904D01*
X135987404Y-89828666D01*
X135939785Y-89733428D01*
X135892166Y-89685809D01*
X135796928Y-89638190D01*
X135606452Y-89590571D01*
X135511214Y-89542952D01*
X135463595Y-89495333D01*
X135415976Y-89400095D01*
X135415976Y-89304857D01*
X135463595Y-89209619D01*
X135511214Y-89162000D01*
X135606452Y-89114380D01*
X135844547Y-89114380D01*
X135987404Y-89162000D01*
X136987404Y-90019142D02*
X136939785Y-90066761D01*
X136796928Y-90114380D01*
X136701690Y-90114380D01*
X136558833Y-90066761D01*
X136463595Y-89971523D01*
X136415976Y-89876285D01*
X136368357Y-89685809D01*
X136368357Y-89542952D01*
X136415976Y-89352476D01*
X136463595Y-89257238D01*
X136558833Y-89162000D01*
X136701690Y-89114380D01*
X136796928Y-89114380D01*
X136939785Y-89162000D01*
X136987404Y-89209619D01*
X137415976Y-90114380D02*
X137415976Y-89114380D01*
X137987404Y-90114380D02*
X137558833Y-89542952D01*
X137987404Y-89114380D02*
X137415976Y-89685809D01*
X135592738Y-94952380D02*
X136164166Y-94952380D01*
X135878452Y-95952380D02*
X135878452Y-94952380D01*
X136449880Y-95904761D02*
X136592738Y-95952380D01*
X136830833Y-95952380D01*
X136926071Y-95904761D01*
X136973690Y-95857142D01*
X137021309Y-95761904D01*
X137021309Y-95666666D01*
X136973690Y-95571428D01*
X136926071Y-95523809D01*
X136830833Y-95476190D01*
X136640357Y-95428571D01*
X136545119Y-95380952D01*
X136497500Y-95333333D01*
X136449880Y-95238095D01*
X136449880Y-95142857D01*
X136497500Y-95047619D01*
X136545119Y-95000000D01*
X136640357Y-94952380D01*
X136878452Y-94952380D01*
X137021309Y-95000000D01*
X135796928Y-97464571D02*
X135939785Y-97512190D01*
X135987404Y-97559809D01*
X136035023Y-97655047D01*
X136035023Y-97797904D01*
X135987404Y-97893142D01*
X135939785Y-97940761D01*
X135844547Y-97988380D01*
X135463595Y-97988380D01*
X135463595Y-96988380D01*
X135796928Y-96988380D01*
X135892166Y-97036000D01*
X135939785Y-97083619D01*
X135987404Y-97178857D01*
X135987404Y-97274095D01*
X135939785Y-97369333D01*
X135892166Y-97416952D01*
X135796928Y-97464571D01*
X135463595Y-97464571D01*
X136463595Y-97607428D02*
X137225500Y-97607428D01*
X135796928Y-99432171D02*
X135939785Y-99479790D01*
X135987404Y-99527409D01*
X136035023Y-99622647D01*
X136035023Y-99765504D01*
X135987404Y-99860742D01*
X135939785Y-99908361D01*
X135844547Y-99955980D01*
X135463595Y-99955980D01*
X135463595Y-98955980D01*
X135796928Y-98955980D01*
X135892166Y-99003600D01*
X135939785Y-99051219D01*
X135987404Y-99146457D01*
X135987404Y-99241695D01*
X135939785Y-99336933D01*
X135892166Y-99384552D01*
X135796928Y-99432171D01*
X135463595Y-99432171D01*
X136463595Y-99575028D02*
X137225500Y-99575028D01*
X136844547Y-99955980D02*
X136844547Y-99194076D01*
X132204761Y-106612023D02*
X132252380Y-106469166D01*
X132252380Y-106231071D01*
X132204761Y-106135833D01*
X132157142Y-106088214D01*
X132061904Y-106040595D01*
X131966666Y-106040595D01*
X131871428Y-106088214D01*
X131823809Y-106135833D01*
X131776190Y-106231071D01*
X131728571Y-106421547D01*
X131680952Y-106516785D01*
X131633333Y-106564404D01*
X131538095Y-106612023D01*
X131442857Y-106612023D01*
X131347619Y-106564404D01*
X131300000Y-106516785D01*
X131252380Y-106421547D01*
X131252380Y-106183452D01*
X131300000Y-106040595D01*
X132157142Y-105040595D02*
X132204761Y-105088214D01*
X132252380Y-105231071D01*
X132252380Y-105326309D01*
X132204761Y-105469166D01*
X132109523Y-105564404D01*
X132014285Y-105612023D01*
X131823809Y-105659642D01*
X131680952Y-105659642D01*
X131490476Y-105612023D01*
X131395238Y-105564404D01*
X131300000Y-105469166D01*
X131252380Y-105326309D01*
X131252380Y-105231071D01*
X131300000Y-105088214D01*
X131347619Y-105040595D01*
X132252380Y-104135833D02*
X132252380Y-104612023D01*
X131252380Y-104612023D01*
X135187976Y-107804761D02*
X135330833Y-107852380D01*
X135568928Y-107852380D01*
X135664166Y-107804761D01*
X135711785Y-107757142D01*
X135759404Y-107661904D01*
X135759404Y-107566666D01*
X135711785Y-107471428D01*
X135664166Y-107423809D01*
X135568928Y-107376190D01*
X135378452Y-107328571D01*
X135283214Y-107280952D01*
X135235595Y-107233333D01*
X135187976Y-107138095D01*
X135187976Y-107042857D01*
X135235595Y-106947619D01*
X135283214Y-106900000D01*
X135378452Y-106852380D01*
X135616547Y-106852380D01*
X135759404Y-106900000D01*
X136187976Y-107852380D02*
X136187976Y-106852380D01*
X136426071Y-106852380D01*
X136568928Y-106900000D01*
X136664166Y-106995238D01*
X136711785Y-107090476D01*
X136759404Y-107280952D01*
X136759404Y-107423809D01*
X136711785Y-107614285D01*
X136664166Y-107709523D01*
X136568928Y-107804761D01*
X136426071Y-107852380D01*
X136187976Y-107852380D01*
X137140357Y-107566666D02*
X137616547Y-107566666D01*
X137045119Y-107852380D02*
X137378452Y-106852380D01*
X137711785Y-107852380D01*
X139735595Y-120502380D02*
X139735595Y-119502380D01*
X140116547Y-119502380D01*
X140211785Y-119550000D01*
X140259404Y-119597619D01*
X140307023Y-119692857D01*
X140307023Y-119835714D01*
X140259404Y-119930952D01*
X140211785Y-119978571D01*
X140116547Y-120026190D01*
X139735595Y-120026190D01*
X140687976Y-119597619D02*
X140735595Y-119550000D01*
X140830833Y-119502380D01*
X141068928Y-119502380D01*
X141164166Y-119550000D01*
X141211785Y-119597619D01*
X141259404Y-119692857D01*
X141259404Y-119788095D01*
X141211785Y-119930952D01*
X140640357Y-120502380D01*
X141259404Y-120502380D01*
X139785595Y-118502380D02*
X139785595Y-117502380D01*
X140357023Y-118502380D01*
X140357023Y-117502380D01*
X140785595Y-117597619D02*
X140833214Y-117550000D01*
X140928452Y-117502380D01*
X141166547Y-117502380D01*
X141261785Y-117550000D01*
X141309404Y-117597619D01*
X141357023Y-117692857D01*
X141357023Y-117788095D01*
X141309404Y-117930952D01*
X140737976Y-118502380D01*
X141357023Y-118502380D01*
X139785595Y-128502380D02*
X139785595Y-127502380D01*
X140357023Y-128502380D01*
X140357023Y-127502380D01*
X141357023Y-128502380D02*
X140785595Y-128502380D01*
X141071309Y-128502380D02*
X141071309Y-127502380D01*
X140976071Y-127645238D01*
X140880833Y-127740476D01*
X140785595Y-127788095D01*
X139785595Y-129902380D02*
X139785595Y-128902380D01*
X140166547Y-128902380D01*
X140261785Y-128950000D01*
X140309404Y-128997619D01*
X140357023Y-129092857D01*
X140357023Y-129235714D01*
X140309404Y-129330952D01*
X140261785Y-129378571D01*
X140166547Y-129426190D01*
X139785595Y-129426190D01*
X141309404Y-129902380D02*
X140737976Y-129902380D01*
X141023690Y-129902380D02*
X141023690Y-128902380D01*
X140928452Y-129045238D01*
X140833214Y-129140476D01*
X140737976Y-129188095D01*
X159316785Y-76600000D02*
X159221547Y-76552380D01*
X159078690Y-76552380D01*
X158935833Y-76600000D01*
X158840595Y-76695238D01*
X158792976Y-76790476D01*
X158745357Y-76980952D01*
X158745357Y-77123809D01*
X158792976Y-77314285D01*
X158840595Y-77409523D01*
X158935833Y-77504761D01*
X159078690Y-77552380D01*
X159173928Y-77552380D01*
X159316785Y-77504761D01*
X159364404Y-77457142D01*
X159364404Y-77123809D01*
X159173928Y-77123809D01*
X159792976Y-77552380D02*
X159792976Y-76552380D01*
X160364404Y-77552380D01*
X160364404Y-76552380D01*
X160840595Y-77552380D02*
X160840595Y-76552380D01*
X161078690Y-76552380D01*
X161221547Y-76600000D01*
X161316785Y-76695238D01*
X161364404Y-76790476D01*
X161412023Y-76980952D01*
X161412023Y-77123809D01*
X161364404Y-77314285D01*
X161316785Y-77409523D01*
X161221547Y-77504761D01*
X161078690Y-77552380D01*
X160840595Y-77552380D01*
X158378690Y-79352380D02*
X158378690Y-78352380D01*
X158950119Y-79352380D01*
X158950119Y-78352380D01*
X159997738Y-79352380D02*
X159664404Y-78876190D01*
X159426309Y-79352380D02*
X159426309Y-78352380D01*
X159807261Y-78352380D01*
X159902500Y-78400000D01*
X159950119Y-78447619D01*
X159997738Y-78542857D01*
X159997738Y-78685714D01*
X159950119Y-78780952D01*
X159902500Y-78828571D01*
X159807261Y-78876190D01*
X159426309Y-78876190D01*
X160378690Y-79304761D02*
X160521547Y-79352380D01*
X160759642Y-79352380D01*
X160854880Y-79304761D01*
X160902500Y-79257142D01*
X160950119Y-79161904D01*
X160950119Y-79066666D01*
X160902500Y-78971428D01*
X160854880Y-78923809D01*
X160759642Y-78876190D01*
X160569166Y-78828571D01*
X160473928Y-78780952D01*
X160426309Y-78733333D01*
X160378690Y-78638095D01*
X160378690Y-78542857D01*
X160426309Y-78447619D01*
X160473928Y-78400000D01*
X160569166Y-78352380D01*
X160807261Y-78352380D01*
X160950119Y-78400000D01*
X161235833Y-78352380D02*
X161807261Y-78352380D01*
X161521547Y-79352380D02*
X161521547Y-78352380D01*
X157188214Y-81504761D02*
X157331071Y-81552380D01*
X157569166Y-81552380D01*
X157664404Y-81504761D01*
X157712023Y-81457142D01*
X157759642Y-81361904D01*
X157759642Y-81266666D01*
X157712023Y-81171428D01*
X157664404Y-81123809D01*
X157569166Y-81076190D01*
X157378690Y-81028571D01*
X157283452Y-80980952D01*
X157235833Y-80933333D01*
X157188214Y-80838095D01*
X157188214Y-80742857D01*
X157235833Y-80647619D01*
X157283452Y-80600000D01*
X157378690Y-80552380D01*
X157616785Y-80552380D01*
X157759642Y-80600000D01*
X158092976Y-80552380D02*
X158331071Y-81552380D01*
X158521547Y-80838095D01*
X158712023Y-81552380D01*
X158950119Y-80552380D01*
X159902500Y-81457142D02*
X159854880Y-81504761D01*
X159712023Y-81552380D01*
X159616785Y-81552380D01*
X159473928Y-81504761D01*
X159378690Y-81409523D01*
X159331071Y-81314285D01*
X159283452Y-81123809D01*
X159283452Y-80980952D01*
X159331071Y-80790476D01*
X159378690Y-80695238D01*
X159473928Y-80600000D01*
X159616785Y-80552380D01*
X159712023Y-80552380D01*
X159854880Y-80600000D01*
X159902500Y-80647619D01*
X160807261Y-81552380D02*
X160331071Y-81552380D01*
X160331071Y-80552380D01*
X161140595Y-81552380D02*
X161140595Y-80552380D01*
X161712023Y-81552380D02*
X161283452Y-80980952D01*
X161712023Y-80552380D02*
X161140595Y-81123809D01*
X157523928Y-85154761D02*
X157666785Y-85202380D01*
X157904880Y-85202380D01*
X158000119Y-85154761D01*
X158047738Y-85107142D01*
X158095357Y-85011904D01*
X158095357Y-84916666D01*
X158047738Y-84821428D01*
X158000119Y-84773809D01*
X157904880Y-84726190D01*
X157714404Y-84678571D01*
X157619166Y-84630952D01*
X157571547Y-84583333D01*
X157523928Y-84488095D01*
X157523928Y-84392857D01*
X157571547Y-84297619D01*
X157619166Y-84250000D01*
X157714404Y-84202380D01*
X157952500Y-84202380D01*
X158095357Y-84250000D01*
X158428690Y-84202380D02*
X158666785Y-85202380D01*
X158857261Y-84488095D01*
X159047738Y-85202380D01*
X159285833Y-84202380D01*
X159666785Y-85202380D02*
X159666785Y-84202380D01*
X159904880Y-84202380D01*
X160047738Y-84250000D01*
X160142976Y-84345238D01*
X160190595Y-84440476D01*
X160238214Y-84630952D01*
X160238214Y-84773809D01*
X160190595Y-84964285D01*
X160142976Y-85059523D01*
X160047738Y-85154761D01*
X159904880Y-85202380D01*
X159666785Y-85202380D01*
X160666785Y-85202380D02*
X160666785Y-84202380D01*
X161333452Y-84202380D02*
X161523928Y-84202380D01*
X161619166Y-84250000D01*
X161714404Y-84345238D01*
X161762023Y-84535714D01*
X161762023Y-84869047D01*
X161714404Y-85059523D01*
X161619166Y-85154761D01*
X161523928Y-85202380D01*
X161333452Y-85202380D01*
X161238214Y-85154761D01*
X161142976Y-85059523D01*
X161095357Y-84869047D01*
X161095357Y-84535714D01*
X161142976Y-84345238D01*
X161238214Y-84250000D01*
X161333452Y-84202380D01*
X160133452Y-86202380D02*
X160752500Y-86202380D01*
X160419166Y-86583333D01*
X160562023Y-86583333D01*
X160657261Y-86630952D01*
X160704880Y-86678571D01*
X160752500Y-86773809D01*
X160752500Y-87011904D01*
X160704880Y-87107142D01*
X160657261Y-87154761D01*
X160562023Y-87202380D01*
X160276309Y-87202380D01*
X160181071Y-87154761D01*
X160133452Y-87107142D01*
X161038214Y-86202380D02*
X161371547Y-87202380D01*
X161704880Y-86202380D01*
X161942976Y-86202380D02*
X162562023Y-86202380D01*
X162228690Y-86583333D01*
X162371547Y-86583333D01*
X162466785Y-86630952D01*
X162514404Y-86678571D01*
X162562023Y-86773809D01*
X162562023Y-87011904D01*
X162514404Y-87107142D01*
X162466785Y-87154761D01*
X162371547Y-87202380D01*
X162085833Y-87202380D01*
X161990595Y-87154761D01*
X161942976Y-87107142D01*
X137718800Y-106553000D02*
X136917300Y-106553000D01*
X133000000Y-105500000D02*
X132600000Y-105500000D01*
X161600000Y-83800000D02*
X162001100Y-83503600D01*
X136241404Y-83066000D02*
X136146166Y-83018380D01*
X136003309Y-83018380D01*
X135860452Y-83066000D01*
X135765214Y-83161238D01*
X135717595Y-83256476D01*
X135669976Y-83446952D01*
X135669976Y-83589809D01*
X135717595Y-83780285D01*
X135765214Y-83875523D01*
X135860452Y-83970761D01*
X136003309Y-84018380D01*
X136098547Y-84018380D01*
X136241404Y-83970761D01*
X136289023Y-83923142D01*
X136289023Y-83589809D01*
X136098547Y-83589809D01*
X136717595Y-84018380D02*
X136717595Y-83018380D01*
X137289023Y-84018380D01*
X137289023Y-83018380D01*
X137765214Y-84018380D02*
X137765214Y-83018380D01*
X138003309Y-83018380D01*
X138146166Y-83066000D01*
X138241404Y-83161238D01*
X138289023Y-83256476D01*
X138336642Y-83446952D01*
X138336642Y-83589809D01*
X138289023Y-83780285D01*
X138241404Y-83875523D01*
X138146166Y-83970761D01*
X138003309Y-84018380D01*
X137765214Y-84018380D01*
X131300000Y-102940595D02*
X131252380Y-103035833D01*
X131252380Y-103178690D01*
X131300000Y-103321547D01*
X131395238Y-103416785D01*
X131490476Y-103464404D01*
X131680952Y-103512023D01*
X131823809Y-103512023D01*
X132014285Y-103464404D01*
X132109523Y-103416785D01*
X132204761Y-103321547D01*
X132252380Y-103178690D01*
X132252380Y-103083452D01*
X132204761Y-102940595D01*
X132157142Y-102892976D01*
X131823809Y-102892976D01*
X131823809Y-103083452D01*
X132252380Y-102464404D02*
X131252380Y-102464404D01*
X132252380Y-101892976D01*
X131252380Y-101892976D01*
X132252380Y-101416785D02*
X131252380Y-101416785D01*
X131252380Y-101178690D01*
X131300000Y-101035833D01*
X131395238Y-100940595D01*
X131490476Y-100892976D01*
X131680952Y-100845357D01*
X131823809Y-100845357D01*
X132014285Y-100892976D01*
X132109523Y-100940595D01*
X132204761Y-101035833D01*
X132252380Y-101178690D01*
X132252380Y-101416785D01*
X140309404Y-125200000D02*
X140214166Y-125152380D01*
X140071309Y-125152380D01*
X139928452Y-125200000D01*
X139833214Y-125295238D01*
X139785595Y-125390476D01*
X139737976Y-125580952D01*
X139737976Y-125723809D01*
X139785595Y-125914285D01*
X139833214Y-126009523D01*
X139928452Y-126104761D01*
X140071309Y-126152380D01*
X140166547Y-126152380D01*
X140309404Y-126104761D01*
X140357023Y-126057142D01*
X140357023Y-125723809D01*
X140166547Y-125723809D01*
X140785595Y-126152380D02*
X140785595Y-125152380D01*
X141357023Y-126152380D01*
X141357023Y-125152380D01*
X141833214Y-126152380D02*
X141833214Y-125152380D01*
X142071309Y-125152380D01*
X142214166Y-125200000D01*
X142309404Y-125295238D01*
X142357023Y-125390476D01*
X142404642Y-125580952D01*
X142404642Y-125723809D01*
X142357023Y-125914285D01*
X142309404Y-126009523D01*
X142214166Y-126104761D01*
X142071309Y-126152380D01*
X141833214Y-126152380D01*
X139792738Y-121452380D02*
X140126071Y-122452380D01*
X140459404Y-121452380D01*
X140792738Y-122452380D02*
X140792738Y-121452380D01*
X141030833Y-121452380D01*
X141173690Y-121500000D01*
X141268928Y-121595238D01*
X141316547Y-121690476D01*
X141364166Y-121880952D01*
X141364166Y-122023809D01*
X141316547Y-122214285D01*
X141268928Y-122309523D01*
X141173690Y-122404761D01*
X141030833Y-122452380D01*
X140792738Y-122452380D01*
X141792738Y-122452380D02*
X141792738Y-121452380D01*
X142030833Y-121452380D01*
X142173690Y-121500000D01*
X142268928Y-121595238D01*
X142316547Y-121690476D01*
X142364166Y-121880952D01*
X142364166Y-122023809D01*
X142316547Y-122214285D01*
X142268928Y-122309523D01*
X142173690Y-122404761D01*
X142030833Y-122452380D01*
X141792738Y-122452380D01*
X131442738Y-134002380D02*
X131776071Y-135002380D01*
X132109404Y-134002380D01*
X132442738Y-135002380D02*
X132442738Y-134002380D01*
X132680833Y-134002380D01*
X132823690Y-134050000D01*
X132918928Y-134145238D01*
X132966547Y-134240476D01*
X133014166Y-134430952D01*
X133014166Y-134573809D01*
X132966547Y-134764285D01*
X132918928Y-134859523D01*
X132823690Y-134954761D01*
X132680833Y-135002380D01*
X132442738Y-135002380D01*
X133442738Y-135002380D02*
X133442738Y-134002380D01*
X133680833Y-134002380D01*
X133823690Y-134050000D01*
X133918928Y-134145238D01*
X133966547Y-134240476D01*
X134014166Y-134430952D01*
X134014166Y-134573809D01*
X133966547Y-134764285D01*
X133918928Y-134859523D01*
X133823690Y-134954761D01*
X133680833Y-135002380D01*
X133442738Y-135002380D01*
X135368357Y-91146380D02*
X135987404Y-91146380D01*
X135654071Y-91527333D01*
X135796928Y-91527333D01*
X135892166Y-91574952D01*
X135939785Y-91622571D01*
X135987404Y-91717809D01*
X135987404Y-91955904D01*
X135939785Y-92051142D01*
X135892166Y-92098761D01*
X135796928Y-92146380D01*
X135511214Y-92146380D01*
X135415976Y-92098761D01*
X135368357Y-92051142D01*
X136273119Y-91146380D02*
X136606452Y-92146380D01*
X136939785Y-91146380D01*
X137177880Y-91146380D02*
X137796928Y-91146380D01*
X137463595Y-91527333D01*
X137606452Y-91527333D01*
X137701690Y-91574952D01*
X137749309Y-91622571D01*
X137796928Y-91717809D01*
X137796928Y-91955904D01*
X137749309Y-92051142D01*
X137701690Y-92098761D01*
X137606452Y-92146380D01*
X137320738Y-92146380D01*
X137225500Y-92098761D01*
X137177880Y-92051142D01*
X131540357Y-110652380D02*
X132159404Y-110652380D01*
X131826071Y-111033333D01*
X131968928Y-111033333D01*
X132064166Y-111080952D01*
X132111785Y-111128571D01*
X132159404Y-111223809D01*
X132159404Y-111461904D01*
X132111785Y-111557142D01*
X132064166Y-111604761D01*
X131968928Y-111652380D01*
X131683214Y-111652380D01*
X131587976Y-111604761D01*
X131540357Y-111557142D01*
X132445119Y-110652380D02*
X132778452Y-111652380D01*
X133111785Y-110652380D01*
X133349880Y-110652380D02*
X133968928Y-110652380D01*
X133635595Y-111033333D01*
X133778452Y-111033333D01*
X133873690Y-111080952D01*
X133921309Y-111128571D01*
X133968928Y-111223809D01*
X133968928Y-111461904D01*
X133921309Y-111557142D01*
X133873690Y-111604761D01*
X133778452Y-111652380D01*
X133492738Y-111652380D01*
X133397500Y-111604761D01*
X133349880Y-111557142D01*
X133150000Y-133950000D02*
X133635900Y-132956300D01*
D11*
X142336190Y-76057142D02*
X143002857Y-76057142D01*
X143288571Y-77104761D02*
X142336190Y-77104761D01*
X142336190Y-75104761D01*
X143288571Y-75104761D01*
X145002857Y-77104761D02*
X145002857Y-76057142D01*
X144907619Y-75866666D01*
X144717142Y-75771428D01*
X144336190Y-75771428D01*
X144145714Y-75866666D01*
X145002857Y-77009523D02*
X144812380Y-77104761D01*
X144336190Y-77104761D01*
X144145714Y-77009523D01*
X144050476Y-76819047D01*
X144050476Y-76628571D01*
X144145714Y-76438095D01*
X144336190Y-76342857D01*
X144812380Y-76342857D01*
X145002857Y-76247619D01*
X145860000Y-77009523D02*
X146050476Y-77104761D01*
X146431428Y-77104761D01*
X146621904Y-77009523D01*
X146717142Y-76819047D01*
X146717142Y-76723809D01*
X146621904Y-76533333D01*
X146431428Y-76438095D01*
X146145714Y-76438095D01*
X145955238Y-76342857D01*
X145860000Y-76152380D01*
X145860000Y-76057142D01*
X145955238Y-75866666D01*
X146145714Y-75771428D01*
X146431428Y-75771428D01*
X146621904Y-75866666D01*
X147383809Y-75771428D02*
X147860000Y-77104761D01*
X148336190Y-75771428D02*
X147860000Y-77104761D01*
X147669523Y-77580952D01*
X147574285Y-77676190D01*
X147383809Y-77771428D01*
X149098095Y-76342857D02*
X150621904Y-76342857D01*
X151574285Y-77104761D02*
X151574285Y-75104761D01*
X151574285Y-76057142D02*
X152717142Y-76057142D01*
X152717142Y-77104761D02*
X152717142Y-75104761D01*
X153669523Y-77104761D02*
X153669523Y-75771428D01*
X153669523Y-75104761D02*
X153574285Y-75200000D01*
X153669523Y-75295238D01*
X153764761Y-75200000D01*
X153669523Y-75104761D01*
X153669523Y-75295238D01*
X154431428Y-75771428D02*
X154907619Y-77104761D01*
X155383809Y-75771428D01*
X156907619Y-77009523D02*
X156717142Y-77104761D01*
X156336190Y-77104761D01*
X156145714Y-77009523D01*
X156050476Y-76819047D01*
X156050476Y-76057142D01*
X156145714Y-75866666D01*
X156336190Y-75771428D01*
X156717142Y-75771428D01*
X156907619Y-75866666D01*
X157002857Y-76057142D01*
X157002857Y-76247619D01*
X156050476Y-76438095D01*
D12*
X139530800Y-135128400D02*
X138680800Y-135128400D01*
X139530800Y-110958400D02*
X139530800Y-135128400D01*
X138680800Y-110958400D02*
X139530800Y-110958400D01*
X134310800Y-135128400D02*
X134310800Y-132803400D01*
X135160800Y-135128400D02*
X134310800Y-135128400D01*
X134310800Y-113283400D02*
X131920800Y-113283400D01*
X134310800Y-110958400D02*
X134310800Y-113283400D01*
X135160800Y-110958400D02*
X134310800Y-110958400D01*
D13*
X164270000Y-127865000D02*
X164270000Y-129135000D01*
X163635000Y-127230000D02*
X162365000Y-127230000D01*
X164270000Y-127865000D02*
X163635000Y-127230000D01*
X162365000Y-127230000D02*
X161730000Y-127865000D01*
X161730000Y-129135000D02*
X161730000Y-127865000D01*
D14*
X155200000Y-99500000D02*
X155200000Y-97000000D01*
X159700000Y-99500000D02*
X155200000Y-99500000D01*
X159700000Y-97000000D02*
X159700000Y-99500000D01*
X155200000Y-97000000D02*
X159700000Y-97000000D01*
D15*
X138495300Y-104353002D02*
X138495300Y-108246998D01*
X143854700Y-108246998D02*
X143854700Y-104353002D01*
X139740499Y-110459999D02*
X139359499Y-110459999D01*
X139359499Y-110459999D02*
X139359499Y-110205999D01*
X139359499Y-110205999D02*
X139740499Y-110205999D01*
X139740499Y-110205999D02*
X139740499Y-110459999D01*
X143727700Y-105995200D02*
G75*
G03*
X143727700Y-106604800I0J-304800D01*
G01*
D12*
X146990000Y-104890000D02*
X149990000Y-104890000D01*
X146990000Y-121060000D02*
X146990000Y-122810000D01*
X146990000Y-122810000D02*
X149990000Y-122810000D01*
X160010000Y-122810000D02*
X163010000Y-122810000D01*
X163010000Y-121060000D02*
X163010000Y-122810000D01*
X160010000Y-104890000D02*
X163010000Y-104890000D01*
X163010000Y-104890000D02*
X163010000Y-106640000D01*
X146990000Y-104890000D02*
X146990000Y-106640000D01*
X146160000Y-106640000D02*
X146990000Y-106640000D01*
D14*
X165250000Y-126250000D02*
X160750000Y-126250000D01*
X160750000Y-126250000D02*
X160750000Y-123750000D01*
X160750000Y-123750000D02*
X165250000Y-123750000D01*
X165250000Y-123750000D02*
X165250000Y-126250000D01*
X153250000Y-102600000D02*
X153050000Y-102600000D01*
X153250000Y-102000000D02*
X153050000Y-102000000D01*
X156550000Y-130700000D02*
X156550000Y-131300000D01*
X155450000Y-130700000D02*
X155450000Y-131300000D01*
X156550000Y-131300000D02*
X156300000Y-131300000D01*
X156300000Y-131300000D02*
X155700000Y-131300000D01*
X155700000Y-131300000D02*
X155450000Y-131300000D01*
X156550000Y-130700000D02*
X156300000Y-130700000D01*
X156300000Y-130700000D02*
X155700000Y-130700000D01*
X155700000Y-130700000D02*
X155450000Y-130700000D01*
X156300000Y-130700000D02*
X156300000Y-131300000D01*
X155700000Y-130700000D02*
X155700000Y-131300000D01*
D10*
X157150001Y-126349998D02*
X156928000Y-126349998D01*
X155772000Y-126349998D02*
X155549999Y-126349998D01*
X157150001Y-126762601D02*
X157150001Y-126350001D01*
X155549999Y-126762601D02*
X155549999Y-126350001D01*
D16*
X155322001Y-127396999D02*
G75*
G03*
X155322001Y-127396999I-50000J0D01*
G01*
D14*
X140971100Y-67637600D02*
X148971100Y-67637600D01*
X140971100Y-72637600D02*
X140971100Y-67637600D01*
X148971100Y-72637600D02*
X140971100Y-72637600D01*
X148971100Y-67637600D02*
X148971100Y-72637600D01*
D10*
X150000002Y-101800001D02*
X150000002Y-101578000D01*
X150000002Y-100422000D02*
X150000002Y-100199999D01*
X149587399Y-101800001D02*
X149999999Y-101800001D01*
X149587399Y-100199999D02*
X149999999Y-100199999D01*
D16*
X149003001Y-99922001D02*
G75*
G03*
X149003001Y-99922001I-50000J0D01*
G01*
D10*
X143900001Y-116399998D02*
X143678000Y-116399998D01*
X142522000Y-116399998D02*
X142299999Y-116399998D01*
X143900001Y-116812601D02*
X143900001Y-116400001D01*
X142299999Y-116812601D02*
X142299999Y-116400001D01*
D16*
X142072001Y-117446999D02*
G75*
G03*
X142072001Y-117446999I-50000J0D01*
G01*
D13*
X161730000Y-89598000D02*
X161730000Y-88328000D01*
X162365000Y-87693000D02*
X161730000Y-88328000D01*
X164270000Y-88328000D02*
X163635000Y-87693000D01*
X163635000Y-87693000D02*
X162365000Y-87693000D01*
X164270000Y-88328000D02*
X164270000Y-89598000D01*
X135271100Y-102868600D02*
X135271100Y-104138600D01*
X134636100Y-102233600D02*
X133366100Y-102233600D01*
X135271100Y-102868600D02*
X134636100Y-102233600D01*
X133366100Y-102233600D02*
X132731100Y-102868600D01*
X132731100Y-104138600D02*
X132731100Y-102868600D01*
X135271100Y-94868600D02*
X135271100Y-96138600D01*
X134636100Y-94233600D02*
X133366100Y-94233600D01*
X135271100Y-94868600D02*
X134636100Y-94233600D01*
X133366100Y-94233600D02*
X132731100Y-94868600D01*
X132731100Y-96138600D02*
X132731100Y-94868600D01*
X135271100Y-82868600D02*
X135271100Y-84138600D01*
X134636100Y-82233600D02*
X133366100Y-82233600D01*
X135271100Y-82868600D02*
X134636100Y-82233600D01*
X133366100Y-82233600D02*
X132731100Y-82868600D01*
X132731100Y-84138600D02*
X132731100Y-82868600D01*
X164271100Y-76268600D02*
X164271100Y-77538600D01*
X163636100Y-75633600D02*
X162366100Y-75633600D01*
X164271100Y-76268600D02*
X163636100Y-75633600D01*
X162366100Y-75633600D02*
X161731100Y-76268600D01*
X161731100Y-77538600D02*
X161731100Y-76268600D01*
D14*
X132751100Y-80753600D02*
X132751100Y-76253600D01*
X132751100Y-76253600D02*
X135251100Y-76253600D01*
X135251100Y-76253600D02*
X135251100Y-80753600D01*
X135251100Y-80753600D02*
X132751100Y-80753600D01*
X136100000Y-109250000D02*
X136700000Y-109250000D01*
X136100000Y-108650000D02*
X136700000Y-108650000D01*
X136100000Y-109250000D02*
X136100000Y-109500000D01*
X136100000Y-108650000D02*
X136100000Y-109250000D01*
X136100000Y-108400000D02*
X136100000Y-108650000D01*
X136700000Y-109250000D02*
X136700000Y-109500000D01*
X136700000Y-108650000D02*
X136700000Y-109250000D01*
X136700000Y-108400000D02*
X136700000Y-108650000D01*
X136100000Y-109500000D02*
X136700000Y-109500000D01*
X136100000Y-108400000D02*
X136700000Y-108400000D01*
X138300000Y-101300000D02*
X138900000Y-101300000D01*
X138300000Y-100700000D02*
X138900000Y-100700000D01*
X138300000Y-101300000D02*
X138300000Y-101550000D01*
X138300000Y-100700000D02*
X138300000Y-101300000D01*
X138300000Y-100450000D02*
X138300000Y-100700000D01*
X138900000Y-101300000D02*
X138900000Y-101550000D01*
X138900000Y-100700000D02*
X138900000Y-101300000D01*
X138900000Y-100450000D02*
X138900000Y-100700000D01*
X138300000Y-101550000D02*
X138900000Y-101550000D01*
X138300000Y-100450000D02*
X138900000Y-100450000D01*
X139700000Y-101300000D02*
X140300000Y-101300000D01*
X139700000Y-100700000D02*
X140300000Y-100700000D01*
X139700000Y-101300000D02*
X139700000Y-101550000D01*
X139700000Y-100700000D02*
X139700000Y-101300000D01*
X139700000Y-100450000D02*
X139700000Y-100700000D01*
X140300000Y-101300000D02*
X140300000Y-101550000D01*
X140300000Y-100700000D02*
X140300000Y-101300000D01*
X140300000Y-100450000D02*
X140300000Y-100700000D01*
X139700000Y-101550000D02*
X140300000Y-101550000D01*
X139700000Y-100450000D02*
X140300000Y-100450000D01*
X136900000Y-101300000D02*
X137500000Y-101300000D01*
X136900000Y-100700000D02*
X137500000Y-100700000D01*
X136900000Y-101300000D02*
X136900000Y-101550000D01*
X136900000Y-100700000D02*
X136900000Y-101300000D01*
X136900000Y-100450000D02*
X136900000Y-100700000D01*
X137500000Y-101300000D02*
X137500000Y-101550000D01*
X137500000Y-100700000D02*
X137500000Y-101300000D01*
X137500000Y-100450000D02*
X137500000Y-100700000D01*
X136900000Y-101550000D02*
X137500000Y-101550000D01*
X136900000Y-100450000D02*
X137500000Y-100450000D01*
X137000000Y-104350000D02*
X137000000Y-103750000D01*
X136400000Y-104350000D02*
X136400000Y-103750000D01*
X137000000Y-104350000D02*
X137250000Y-104350000D01*
X136400000Y-104350000D02*
X137000000Y-104350000D01*
X136150000Y-104350000D02*
X136400000Y-104350000D01*
X137000000Y-103750000D02*
X137250000Y-103750000D01*
X136400000Y-103750000D02*
X137000000Y-103750000D01*
X136150000Y-103750000D02*
X136400000Y-103750000D01*
X137250000Y-104350000D02*
X137250000Y-103750000D01*
X136150000Y-104350000D02*
X136150000Y-103750000D01*
X137050000Y-106400000D02*
X137050000Y-105800000D01*
X136450000Y-106400000D02*
X136450000Y-105800000D01*
X137050000Y-106400000D02*
X137300000Y-106400000D01*
X136450000Y-106400000D02*
X137050000Y-106400000D01*
X136200000Y-106400000D02*
X136450000Y-106400000D01*
X137050000Y-105800000D02*
X137300000Y-105800000D01*
X136450000Y-105800000D02*
X137050000Y-105800000D01*
X136200000Y-105800000D02*
X136450000Y-105800000D01*
X137300000Y-106400000D02*
X137300000Y-105800000D01*
X136200000Y-106400000D02*
X136200000Y-105800000D01*
X158000000Y-87870000D02*
X158000000Y-87270000D01*
X157400000Y-87870000D02*
X157400000Y-87270000D01*
X158000000Y-87870000D02*
X158250000Y-87870000D01*
X157400000Y-87870000D02*
X158000000Y-87870000D01*
X157150000Y-87870000D02*
X157400000Y-87870000D01*
X158000000Y-87270000D02*
X158250000Y-87270000D01*
X157400000Y-87270000D02*
X158000000Y-87270000D01*
X157150000Y-87270000D02*
X157400000Y-87270000D01*
X158250000Y-87870000D02*
X158250000Y-87270000D01*
X157150000Y-87870000D02*
X157150000Y-87270000D01*
X157400000Y-85990000D02*
X157400000Y-86590000D01*
X158000000Y-85990000D02*
X158000000Y-86590000D01*
X157400000Y-85990000D02*
X157150000Y-85990000D01*
X158000000Y-85990000D02*
X157400000Y-85990000D01*
X158250000Y-85990000D02*
X158000000Y-85990000D01*
X157400000Y-86590000D02*
X157150000Y-86590000D01*
X158000000Y-86590000D02*
X157400000Y-86590000D01*
X158250000Y-86590000D02*
X158000000Y-86590000D01*
X157150000Y-85990000D02*
X157150000Y-86590000D01*
X158250000Y-85990000D02*
X158250000Y-86590000D01*
X140411100Y-86658600D02*
X140411100Y-87858600D01*
X141911100Y-86658600D02*
X141911100Y-87858600D01*
D13*
X141450000Y-97000000D02*
X139650000Y-97000000D01*
X139650000Y-98200000D02*
X141450000Y-98200000D01*
D14*
X144766100Y-141668600D02*
X144766100Y-128958600D01*
X154066100Y-141668600D02*
X144766100Y-141668600D01*
X154066100Y-128958600D02*
X154066100Y-141668600D01*
X144766100Y-128958600D02*
X154066100Y-128958600D01*
X160650000Y-101025000D02*
X160650000Y-100825000D01*
X161950000Y-101025000D02*
X161950000Y-100825000D01*
X163350000Y-101025000D02*
X163350000Y-100825000D01*
X164650000Y-101025000D02*
X164650000Y-100825000D01*
X160650000Y-101025000D02*
X161950000Y-101025000D01*
X163350000Y-101025000D02*
X164650000Y-101025000D01*
X160650000Y-100925000D02*
X161950000Y-100925000D01*
X163350000Y-100925000D02*
X164650000Y-100925000D01*
X160650000Y-98225000D02*
X161950000Y-98225000D01*
X163350000Y-98225000D02*
X164650000Y-98225000D01*
X160650000Y-100825000D02*
X161950000Y-100825000D01*
X160650000Y-98225000D02*
X160650000Y-100825000D01*
X164650000Y-100825000D02*
X164650000Y-98225000D01*
X163350000Y-100825000D02*
X164650000Y-100825000D01*
X145596100Y-88868600D02*
G75*
G03*
X145596100Y-88868600I-300000J0D01*
G01*
X144596100Y-88168600D02*
X150896100Y-88168600D01*
X144596100Y-94468600D02*
X144596100Y-88168600D01*
X150896100Y-94468600D02*
X144596100Y-94468600D01*
X150896100Y-88168600D02*
X150896100Y-94468600D01*
D13*
X162501100Y-138503600D02*
G75*
G03*
X162501100Y-138503600I-1500000J0D01*
G01*
D15*
X163922100Y-138503600D02*
G75*
G03*
X163922100Y-138503600I-2921000J0D01*
G01*
D17*
X161001100Y-141170600D02*
X161001100Y-141424600D01*
X161001100Y-135582600D02*
X161001100Y-135836600D01*
D13*
X162501100Y-71503600D02*
G75*
G03*
X162501100Y-71503600I-1500000J0D01*
G01*
D15*
X163922100Y-71503600D02*
G75*
G03*
X163922100Y-71503600I-2921000J0D01*
G01*
D17*
X161001100Y-74170600D02*
X161001100Y-74424600D01*
X161001100Y-68582600D02*
X161001100Y-68836600D01*
D13*
X137501100Y-71503600D02*
G75*
G03*
X137501100Y-71503600I-1500000J0D01*
G01*
D15*
X138922100Y-71503600D02*
G75*
G03*
X138922100Y-71503600I-2921000J0D01*
G01*
D17*
X136001100Y-74170600D02*
X136001100Y-74424600D01*
X136001100Y-68582600D02*
X136001100Y-68836600D01*
D13*
X137491600Y-138506200D02*
G75*
G03*
X137491600Y-138506200I-1500000J0D01*
G01*
D15*
X138912600Y-138506200D02*
G75*
G03*
X138912600Y-138506200I-2921000J0D01*
G01*
D17*
X135991600Y-141173200D02*
X135991600Y-141427200D01*
X135991600Y-135585200D02*
X135991600Y-135839200D01*
D14*
X142848600Y-127598600D02*
X142648600Y-127598600D01*
X142848600Y-128198600D02*
X142648600Y-128198600D01*
X142848600Y-131408600D02*
X142648600Y-131408600D01*
X142848600Y-132008600D02*
X142648600Y-132008600D01*
X155983600Y-132643600D02*
X156183600Y-132643600D01*
X155983600Y-132043600D02*
X156183600Y-132043600D01*
X142848600Y-135218600D02*
X142648600Y-135218600D01*
X142848600Y-135818600D02*
X142648600Y-135818600D01*
X142600000Y-113600000D02*
X142600000Y-114200000D01*
X143200000Y-113600000D02*
X143200000Y-114200000D01*
X142600000Y-113600000D02*
X142350000Y-113600000D01*
X143200000Y-113600000D02*
X142600000Y-113600000D01*
X143450000Y-113600000D02*
X143200000Y-113600000D01*
X142600000Y-114200000D02*
X142350000Y-114200000D01*
X143200000Y-114200000D02*
X142600000Y-114200000D01*
X143450000Y-114200000D02*
X143200000Y-114200000D01*
X142350000Y-113600000D02*
X142350000Y-114200000D01*
X143450000Y-113600000D02*
X143450000Y-114200000D01*
X143700000Y-111500000D02*
X143100000Y-111500000D01*
X143700000Y-112100000D02*
X143100000Y-112100000D01*
X143700000Y-111500000D02*
X143700000Y-111250000D01*
X143700000Y-112100000D02*
X143700000Y-111500000D01*
X143700000Y-112350000D02*
X143700000Y-112100000D01*
X143100000Y-111500000D02*
X143100000Y-111250000D01*
X143100000Y-112100000D02*
X143100000Y-111500000D01*
X143100000Y-112350000D02*
X143100000Y-112100000D01*
X143700000Y-111250000D02*
X143100000Y-111250000D01*
X143700000Y-112350000D02*
X143100000Y-112350000D01*
X153350000Y-98600000D02*
X153350000Y-98000000D01*
X152750000Y-98600000D02*
X152750000Y-98000000D01*
X153350000Y-98600000D02*
X153600000Y-98600000D01*
X152750000Y-98600000D02*
X153350000Y-98600000D01*
X152500000Y-98600000D02*
X152750000Y-98600000D01*
X153350000Y-98000000D02*
X153600000Y-98000000D01*
X152750000Y-98000000D02*
X153350000Y-98000000D01*
X152500000Y-98000000D02*
X152750000Y-98000000D01*
X153600000Y-98600000D02*
X153600000Y-98000000D01*
X152500000Y-98600000D02*
X152500000Y-98000000D01*
X153350000Y-101200000D02*
X153350000Y-100600000D01*
X152750000Y-101200000D02*
X152750000Y-100600000D01*
X153350000Y-101200000D02*
X153600000Y-101200000D01*
X152750000Y-101200000D02*
X153350000Y-101200000D01*
X152500000Y-101200000D02*
X152750000Y-101200000D01*
X153350000Y-100600000D02*
X153600000Y-100600000D01*
X152750000Y-100600000D02*
X153350000Y-100600000D01*
X152500000Y-100600000D02*
X152750000Y-100600000D01*
X153600000Y-101200000D02*
X153600000Y-100600000D01*
X152500000Y-101200000D02*
X152500000Y-100600000D01*
X153350000Y-99900000D02*
X153350000Y-99300000D01*
X152750000Y-99900000D02*
X152750000Y-99300000D01*
X153350000Y-99900000D02*
X153600000Y-99900000D01*
X152750000Y-99900000D02*
X153350000Y-99900000D01*
X152500000Y-99900000D02*
X152750000Y-99900000D01*
X153350000Y-99300000D02*
X153600000Y-99300000D01*
X152750000Y-99300000D02*
X153350000Y-99300000D01*
X152500000Y-99300000D02*
X152750000Y-99300000D01*
X153600000Y-99900000D02*
X153600000Y-99300000D01*
X152500000Y-99900000D02*
X152500000Y-99300000D01*
X153350000Y-97300000D02*
X153350000Y-96700000D01*
X152750000Y-97300000D02*
X152750000Y-96700000D01*
X153350000Y-97300000D02*
X153600000Y-97300000D01*
X152750000Y-97300000D02*
X153350000Y-97300000D01*
X152500000Y-97300000D02*
X152750000Y-97300000D01*
X153350000Y-96700000D02*
X153600000Y-96700000D01*
X152750000Y-96700000D02*
X153350000Y-96700000D01*
X152500000Y-96700000D02*
X152750000Y-96700000D01*
X153600000Y-97300000D02*
X153600000Y-96700000D01*
X152500000Y-97300000D02*
X152500000Y-96700000D01*
X156383600Y-134231100D02*
X156383600Y-133631100D01*
X155783600Y-134231100D02*
X155783600Y-133631100D01*
X156383600Y-134231100D02*
X156633600Y-134231100D01*
X155783600Y-134231100D02*
X156383600Y-134231100D01*
X155533600Y-134231100D02*
X155783600Y-134231100D01*
X156383600Y-133631100D02*
X156633600Y-133631100D01*
X155783600Y-133631100D02*
X156383600Y-133631100D01*
X155533600Y-133631100D02*
X155783600Y-133631100D01*
X156633600Y-134231100D02*
X156633600Y-133631100D01*
X155533600Y-134231100D02*
X155533600Y-133631100D01*
X142448600Y-136806100D02*
X142448600Y-137406100D01*
X143048600Y-136806100D02*
X143048600Y-137406100D01*
X142448600Y-136806100D02*
X142198600Y-136806100D01*
X143048600Y-136806100D02*
X142448600Y-136806100D01*
X143298600Y-136806100D02*
X143048600Y-136806100D01*
X142448600Y-137406100D02*
X142198600Y-137406100D01*
X143048600Y-137406100D02*
X142448600Y-137406100D01*
X143298600Y-137406100D02*
X143048600Y-137406100D01*
X142198600Y-136806100D02*
X142198600Y-137406100D01*
X143298600Y-136806100D02*
X143298600Y-137406100D01*
X142448600Y-132996100D02*
X142448600Y-133596100D01*
X143048600Y-132996100D02*
X143048600Y-133596100D01*
X142448600Y-132996100D02*
X142198600Y-132996100D01*
X143048600Y-132996100D02*
X142448600Y-132996100D01*
X143298600Y-132996100D02*
X143048600Y-132996100D01*
X142448600Y-133596100D02*
X142198600Y-133596100D01*
X143048600Y-133596100D02*
X142448600Y-133596100D01*
X143298600Y-133596100D02*
X143048600Y-133596100D01*
X142198600Y-132996100D02*
X142198600Y-133596100D01*
X143298600Y-132996100D02*
X143298600Y-133596100D01*
X142448600Y-129186100D02*
X142448600Y-129786100D01*
X143048600Y-129186100D02*
X143048600Y-129786100D01*
X142448600Y-129186100D02*
X142198600Y-129186100D01*
X143048600Y-129186100D02*
X142448600Y-129186100D01*
X143298600Y-129186100D02*
X143048600Y-129186100D01*
X142448600Y-129786100D02*
X142198600Y-129786100D01*
X143048600Y-129786100D02*
X142448600Y-129786100D01*
X143298600Y-129786100D02*
X143048600Y-129786100D01*
X142198600Y-129186100D02*
X142198600Y-129786100D01*
X143298600Y-129186100D02*
X143298600Y-129786100D01*
X157390000Y-88730000D02*
X157390000Y-89330000D01*
X157990000Y-88730000D02*
X157990000Y-89330000D01*
X157390000Y-88730000D02*
X157140000Y-88730000D01*
X157990000Y-88730000D02*
X157390000Y-88730000D01*
X158240000Y-88730000D02*
X157990000Y-88730000D01*
X157390000Y-89330000D02*
X157140000Y-89330000D01*
X157990000Y-89330000D02*
X157390000Y-89330000D01*
X158240000Y-89330000D02*
X157990000Y-89330000D01*
X157140000Y-88730000D02*
X157140000Y-89330000D01*
X158240000Y-88730000D02*
X158240000Y-89330000D01*
X138321100Y-92003600D02*
X138921100Y-92003600D01*
X138321100Y-91403600D02*
X138921100Y-91403600D01*
X138321100Y-92003600D02*
X138321100Y-92253600D01*
X138321100Y-91403600D02*
X138321100Y-92003600D01*
X138321100Y-91153600D02*
X138321100Y-91403600D01*
X138921100Y-92003600D02*
X138921100Y-92253600D01*
X138921100Y-91403600D02*
X138921100Y-92003600D01*
X138921100Y-91153600D02*
X138921100Y-91403600D01*
X138321100Y-92253600D02*
X138921100Y-92253600D01*
X138321100Y-91153600D02*
X138921100Y-91153600D01*
X145941100Y-81878600D02*
X145941100Y-82478600D01*
X146541100Y-81878600D02*
X146541100Y-82478600D01*
X145941100Y-81878600D02*
X145691100Y-81878600D01*
X146541100Y-81878600D02*
X145941100Y-81878600D01*
X146791100Y-81878600D02*
X146541100Y-81878600D01*
X145941100Y-82478600D02*
X145691100Y-82478600D01*
X146541100Y-82478600D02*
X145941100Y-82478600D01*
X146791100Y-82478600D02*
X146541100Y-82478600D01*
X145691100Y-81878600D02*
X145691100Y-82478600D01*
X146791100Y-81878600D02*
X146791100Y-82478600D01*
X140226100Y-92003600D02*
X140826100Y-92003600D01*
X140226100Y-91403600D02*
X140826100Y-91403600D01*
X140226100Y-92003600D02*
X140226100Y-92253600D01*
X140226100Y-91403600D02*
X140226100Y-92003600D01*
X140226100Y-91153600D02*
X140226100Y-91403600D01*
X140826100Y-92003600D02*
X140826100Y-92253600D01*
X140826100Y-91403600D02*
X140826100Y-92003600D01*
X140826100Y-91153600D02*
X140826100Y-91403600D01*
X140226100Y-92253600D02*
X140826100Y-92253600D01*
X140226100Y-91153600D02*
X140826100Y-91153600D01*
X152891100Y-86006100D02*
X152291100Y-86006100D01*
X152891100Y-86606100D02*
X152291100Y-86606100D01*
X152891100Y-86006100D02*
X152891100Y-85756100D01*
X152891100Y-86606100D02*
X152891100Y-86006100D01*
X152891100Y-86856100D02*
X152891100Y-86606100D01*
X152291100Y-86006100D02*
X152291100Y-85756100D01*
X152291100Y-86606100D02*
X152291100Y-86006100D01*
X152291100Y-86856100D02*
X152291100Y-86606100D01*
X152891100Y-85756100D02*
X152291100Y-85756100D01*
X152891100Y-86856100D02*
X152291100Y-86856100D01*
X143625000Y-98325000D02*
X144225000Y-98325000D01*
X143625000Y-97725000D02*
X144225000Y-97725000D01*
X143625000Y-98325000D02*
X143625000Y-98575000D01*
X143625000Y-97725000D02*
X143625000Y-98325000D01*
X143625000Y-97475000D02*
X143625000Y-97725000D01*
X144225000Y-98325000D02*
X144225000Y-98575000D01*
X144225000Y-97725000D02*
X144225000Y-98325000D01*
X144225000Y-97475000D02*
X144225000Y-97725000D01*
X143625000Y-98575000D02*
X144225000Y-98575000D01*
X143625000Y-97475000D02*
X144225000Y-97475000D01*
X138321100Y-88228600D02*
X138321100Y-88828600D01*
X138921100Y-88228600D02*
X138921100Y-88828600D01*
X138321100Y-88228600D02*
X138071100Y-88228600D01*
X138921100Y-88228600D02*
X138321100Y-88228600D01*
X139171100Y-88228600D02*
X138921100Y-88228600D01*
X138321100Y-88828600D02*
X138071100Y-88828600D01*
X138921100Y-88828600D02*
X138321100Y-88828600D01*
X139171100Y-88828600D02*
X138921100Y-88828600D01*
X138071100Y-88228600D02*
X138071100Y-88828600D01*
X139171100Y-88228600D02*
X139171100Y-88828600D01*
X138321100Y-85688600D02*
X138321100Y-86288600D01*
X138921100Y-85688600D02*
X138921100Y-86288600D01*
X138321100Y-85688600D02*
X138071100Y-85688600D01*
X138921100Y-85688600D02*
X138321100Y-85688600D01*
X139171100Y-85688600D02*
X138921100Y-85688600D01*
X138321100Y-86288600D02*
X138071100Y-86288600D01*
X138921100Y-86288600D02*
X138321100Y-86288600D01*
X139171100Y-86288600D02*
X138921100Y-86288600D01*
X138071100Y-85688600D02*
X138071100Y-86288600D01*
X139171100Y-85688600D02*
X139171100Y-86288600D01*
X149716100Y-84383600D02*
X149716100Y-83783600D01*
X149116100Y-84383600D02*
X149116100Y-83783600D01*
X149716100Y-84383600D02*
X149966100Y-84383600D01*
X149116100Y-84383600D02*
X149716100Y-84383600D01*
X148866100Y-84383600D02*
X149116100Y-84383600D01*
X149716100Y-83783600D02*
X149966100Y-83783600D01*
X149116100Y-83783600D02*
X149716100Y-83783600D01*
X148866100Y-83783600D02*
X149116100Y-83783600D01*
X149966100Y-84383600D02*
X149966100Y-83783600D01*
X148866100Y-84383600D02*
X148866100Y-83783600D01*
X145941100Y-83783600D02*
X145941100Y-84383600D01*
X146541100Y-83783600D02*
X146541100Y-84383600D01*
X145941100Y-83783600D02*
X145691100Y-83783600D01*
X146541100Y-83783600D02*
X145941100Y-83783600D01*
X146791100Y-83783600D02*
X146541100Y-83783600D01*
X145941100Y-84383600D02*
X145691100Y-84383600D01*
X146541100Y-84383600D02*
X145941100Y-84383600D01*
X146791100Y-84383600D02*
X146541100Y-84383600D01*
X145691100Y-83783600D02*
X145691100Y-84383600D01*
X146791100Y-83783600D02*
X146791100Y-84383600D01*
D10*
X131733333Y-112361904D02*
X131733333Y-112933333D01*
X131695238Y-113047619D01*
X131619047Y-113123809D01*
X131504761Y-113161904D01*
X131428571Y-113161904D01*
X132114285Y-113161904D02*
X132114285Y-112361904D01*
X132419047Y-112361904D01*
X132495238Y-112400000D01*
X132533333Y-112438095D01*
X132571428Y-112514285D01*
X132571428Y-112628571D01*
X132533333Y-112704761D01*
X132495238Y-112742857D01*
X132419047Y-112780952D01*
X132114285Y-112780952D01*
X132838095Y-112361904D02*
X133333333Y-112361904D01*
X133066666Y-112666666D01*
X133180952Y-112666666D01*
X133257142Y-112704761D01*
X133295238Y-112742857D01*
X133333333Y-112819047D01*
X133333333Y-113009523D01*
X133295238Y-113085714D01*
X133257142Y-113123809D01*
X133180952Y-113161904D01*
X132952380Y-113161904D01*
X132876190Y-113123809D01*
X132838095Y-113085714D01*
X164561904Y-135483452D02*
X165133333Y-135483452D01*
X165247619Y-135521547D01*
X165323809Y-135597738D01*
X165361904Y-135712023D01*
X165361904Y-135788214D01*
X165361904Y-135102500D02*
X164561904Y-135102500D01*
X164561904Y-134797738D01*
X164600000Y-134721547D01*
X164638095Y-134683452D01*
X164714285Y-134645357D01*
X164828571Y-134645357D01*
X164904761Y-134683452D01*
X164942857Y-134721547D01*
X164980952Y-134797738D01*
X164980952Y-135102500D01*
X165361904Y-133883452D02*
X165361904Y-134340595D01*
X165361904Y-134112023D02*
X164561904Y-134112023D01*
X164676190Y-134188214D01*
X164752380Y-134264404D01*
X164790476Y-134340595D01*
X165361904Y-133121547D02*
X165361904Y-133578690D01*
X165361904Y-133350119D02*
X164561904Y-133350119D01*
X164676190Y-133426309D01*
X164752380Y-133502500D01*
X164790476Y-133578690D01*
X162216547Y-126361904D02*
X162216547Y-126933333D01*
X162178452Y-127047619D01*
X162102261Y-127123809D01*
X161987976Y-127161904D01*
X161911785Y-127161904D01*
X162597500Y-127161904D02*
X162597500Y-126361904D01*
X162902261Y-126361904D01*
X162978452Y-126400000D01*
X163016547Y-126438095D01*
X163054642Y-126514285D01*
X163054642Y-126628571D01*
X163016547Y-126704761D01*
X162978452Y-126742857D01*
X162902261Y-126780952D01*
X162597500Y-126780952D01*
X163816547Y-127161904D02*
X163359404Y-127161904D01*
X163587976Y-127161904D02*
X163587976Y-126361904D01*
X163511785Y-126476190D01*
X163435595Y-126552380D01*
X163359404Y-126590476D01*
X164311785Y-126361904D02*
X164387976Y-126361904D01*
X164464166Y-126400000D01*
X164502261Y-126438095D01*
X164540357Y-126514285D01*
X164578452Y-126666666D01*
X164578452Y-126857142D01*
X164540357Y-127009523D01*
X164502261Y-127085714D01*
X164464166Y-127123809D01*
X164387976Y-127161904D01*
X164311785Y-127161904D01*
X164235595Y-127123809D01*
X164197500Y-127085714D01*
X164159404Y-127009523D01*
X164121309Y-126857142D01*
X164121309Y-126666666D01*
X164159404Y-126514285D01*
X164197500Y-126438095D01*
X164235595Y-126400000D01*
X164311785Y-126361904D01*
X155216547Y-95961904D02*
X155216547Y-96533333D01*
X155178452Y-96647619D01*
X155102261Y-96723809D01*
X154987976Y-96761904D01*
X154911785Y-96761904D01*
X155597500Y-96761904D02*
X155597500Y-95961904D01*
X155902261Y-95961904D01*
X155978452Y-96000000D01*
X156016547Y-96038095D01*
X156054642Y-96114285D01*
X156054642Y-96228571D01*
X156016547Y-96304761D01*
X155978452Y-96342857D01*
X155902261Y-96380952D01*
X155597500Y-96380952D01*
X156435595Y-96761904D02*
X156587976Y-96761904D01*
X156664166Y-96723809D01*
X156702261Y-96685714D01*
X156778452Y-96571428D01*
X156816547Y-96419047D01*
X156816547Y-96114285D01*
X156778452Y-96038095D01*
X156740357Y-96000000D01*
X156664166Y-95961904D01*
X156511785Y-95961904D01*
X156435595Y-96000000D01*
X156397500Y-96038095D01*
X156359404Y-96114285D01*
X156359404Y-96304761D01*
X156397500Y-96380952D01*
X156435595Y-96419047D01*
X156511785Y-96457142D01*
X156664166Y-96457142D01*
X156740357Y-96419047D01*
X156778452Y-96380952D01*
X156816547Y-96304761D01*
X144011905Y-108213523D02*
X144659524Y-108213523D01*
X144735715Y-108175428D01*
X144773810Y-108137333D01*
X144811905Y-108061142D01*
X144811905Y-107908761D01*
X144773810Y-107832571D01*
X144735715Y-107794476D01*
X144659524Y-107756380D01*
X144011905Y-107756380D01*
X144811905Y-106956380D02*
X144811905Y-107413523D01*
X144811905Y-107184952D02*
X144011905Y-107184952D01*
X144126191Y-107261142D01*
X144202381Y-107337333D01*
X144240477Y-107413523D01*
X146990476Y-103861904D02*
X146990476Y-104509523D01*
X147028571Y-104585714D01*
X147066666Y-104623809D01*
X147142857Y-104661904D01*
X147295238Y-104661904D01*
X147371428Y-104623809D01*
X147409523Y-104585714D01*
X147447619Y-104509523D01*
X147447619Y-103861904D01*
X147790476Y-103938095D02*
X147828571Y-103900000D01*
X147904761Y-103861904D01*
X148095238Y-103861904D01*
X148171428Y-103900000D01*
X148209523Y-103938095D01*
X148247619Y-104014285D01*
X148247619Y-104090476D01*
X148209523Y-104204761D01*
X147752380Y-104661904D01*
X148247619Y-104661904D01*
X161050119Y-123161904D02*
X161050119Y-123733333D01*
X161012023Y-123847619D01*
X160935833Y-123923809D01*
X160821547Y-123961904D01*
X160745357Y-123961904D01*
X161431071Y-123961904D02*
X161431071Y-123161904D01*
X161735833Y-123161904D01*
X161812023Y-123200000D01*
X161850119Y-123238095D01*
X161888214Y-123314285D01*
X161888214Y-123428571D01*
X161850119Y-123504761D01*
X161812023Y-123542857D01*
X161735833Y-123580952D01*
X161431071Y-123580952D01*
X162573928Y-123428571D02*
X162573928Y-123961904D01*
X162383452Y-123123809D02*
X162192976Y-123695238D01*
X162688214Y-123695238D01*
X149669166Y-102761904D02*
X149669166Y-101961904D01*
X149859642Y-101961904D01*
X149973928Y-102000000D01*
X150050119Y-102076190D01*
X150088214Y-102152380D01*
X150126309Y-102304761D01*
X150126309Y-102419047D01*
X150088214Y-102571428D01*
X150050119Y-102647619D01*
X149973928Y-102723809D01*
X149859642Y-102761904D01*
X149669166Y-102761904D01*
X150888214Y-102761904D02*
X150431071Y-102761904D01*
X150659642Y-102761904D02*
X150659642Y-101961904D01*
X150583452Y-102076190D01*
X150507261Y-102152380D01*
X150431071Y-102190476D01*
X151612023Y-101961904D02*
X151231071Y-101961904D01*
X151192976Y-102342857D01*
X151231071Y-102304761D01*
X151307261Y-102266666D01*
X151497738Y-102266666D01*
X151573928Y-102304761D01*
X151612023Y-102342857D01*
X151650119Y-102419047D01*
X151650119Y-102609523D01*
X151612023Y-102685714D01*
X151573928Y-102723809D01*
X151497738Y-102761904D01*
X151307261Y-102761904D01*
X151231071Y-102723809D01*
X151192976Y-102685714D01*
X157626309Y-131285714D02*
X157588214Y-131323809D01*
X157473928Y-131361904D01*
X157397738Y-131361904D01*
X157283452Y-131323809D01*
X157207261Y-131247619D01*
X157169166Y-131171428D01*
X157131071Y-131019047D01*
X157131071Y-130904761D01*
X157169166Y-130752380D01*
X157207261Y-130676190D01*
X157283452Y-130600000D01*
X157397738Y-130561904D01*
X157473928Y-130561904D01*
X157588214Y-130600000D01*
X157626309Y-130638095D01*
X157931071Y-130638095D02*
X157969166Y-130600000D01*
X158045357Y-130561904D01*
X158235833Y-130561904D01*
X158312023Y-130600000D01*
X158350119Y-130638095D01*
X158388214Y-130714285D01*
X158388214Y-130790476D01*
X158350119Y-130904761D01*
X157892976Y-131361904D01*
X158388214Y-131361904D01*
X158692976Y-130638095D02*
X158731071Y-130600000D01*
X158807261Y-130561904D01*
X158997738Y-130561904D01*
X159073928Y-130600000D01*
X159112023Y-130638095D01*
X159150119Y-130714285D01*
X159150119Y-130790476D01*
X159112023Y-130904761D01*
X158654880Y-131361904D01*
X159150119Y-131361904D01*
X154638095Y-126778690D02*
X154600000Y-126854880D01*
X154523809Y-126931071D01*
X154409523Y-127045357D01*
X154371428Y-127121547D01*
X154371428Y-127197738D01*
X154561904Y-127159642D02*
X154523809Y-127235833D01*
X154447619Y-127312023D01*
X154295238Y-127350119D01*
X154028571Y-127350119D01*
X153876190Y-127312023D01*
X153800000Y-127235833D01*
X153761904Y-127159642D01*
X153761904Y-127007261D01*
X153800000Y-126931071D01*
X153876190Y-126854880D01*
X154028571Y-126816785D01*
X154295238Y-126816785D01*
X154447619Y-126854880D01*
X154523809Y-126931071D01*
X154561904Y-127007261D01*
X154561904Y-127159642D01*
X154028571Y-126131071D02*
X154561904Y-126131071D01*
X153723809Y-126321547D02*
X154295238Y-126512023D01*
X154295238Y-126016785D01*
X149186904Y-69638214D02*
X149986904Y-69104880D01*
X149186904Y-69104880D02*
X149986904Y-69638214D01*
X149986904Y-68381071D02*
X149986904Y-68838214D01*
X149986904Y-68609642D02*
X149186904Y-68609642D01*
X149301190Y-68685833D01*
X149377380Y-68762023D01*
X149415476Y-68838214D01*
X147521309Y-101138095D02*
X147445119Y-101100000D01*
X147368928Y-101023809D01*
X147254642Y-100909523D01*
X147178452Y-100871428D01*
X147102261Y-100871428D01*
X147140357Y-101061904D02*
X147064166Y-101023809D01*
X146987976Y-100947619D01*
X146949880Y-100795238D01*
X146949880Y-100528571D01*
X146987976Y-100376190D01*
X147064166Y-100300000D01*
X147140357Y-100261904D01*
X147292738Y-100261904D01*
X147368928Y-100300000D01*
X147445119Y-100376190D01*
X147483214Y-100528571D01*
X147483214Y-100795238D01*
X147445119Y-100947619D01*
X147368928Y-101023809D01*
X147292738Y-101061904D01*
X147140357Y-101061904D01*
X147749880Y-100261904D02*
X148245119Y-100261904D01*
X147978452Y-100566666D01*
X148092738Y-100566666D01*
X148168928Y-100604761D01*
X148207023Y-100642857D01*
X148245119Y-100719047D01*
X148245119Y-100909523D01*
X148207023Y-100985714D01*
X148168928Y-101023809D01*
X148092738Y-101061904D01*
X147864166Y-101061904D01*
X147787976Y-101023809D01*
X147749880Y-100985714D01*
X143121309Y-118938095D02*
X143045119Y-118900000D01*
X142968928Y-118823809D01*
X142854642Y-118709523D01*
X142778452Y-118671428D01*
X142702261Y-118671428D01*
X142740357Y-118861904D02*
X142664166Y-118823809D01*
X142587976Y-118747619D01*
X142549880Y-118595238D01*
X142549880Y-118328571D01*
X142587976Y-118176190D01*
X142664166Y-118100000D01*
X142740357Y-118061904D01*
X142892738Y-118061904D01*
X142968928Y-118100000D01*
X143045119Y-118176190D01*
X143083214Y-118328571D01*
X143083214Y-118595238D01*
X143045119Y-118747619D01*
X142968928Y-118823809D01*
X142892738Y-118861904D01*
X142740357Y-118861904D01*
X143387976Y-118138095D02*
X143426071Y-118100000D01*
X143502261Y-118061904D01*
X143692738Y-118061904D01*
X143768928Y-118100000D01*
X143807023Y-118138095D01*
X143845119Y-118214285D01*
X143845119Y-118290476D01*
X143807023Y-118404761D01*
X143349880Y-118861904D01*
X143845119Y-118861904D01*
X163650119Y-86661904D02*
X163650119Y-87233333D01*
X163612023Y-87347619D01*
X163535833Y-87423809D01*
X163421547Y-87461904D01*
X163345357Y-87461904D01*
X164031071Y-87461904D02*
X164031071Y-86661904D01*
X164335833Y-86661904D01*
X164412023Y-86700000D01*
X164450119Y-86738095D01*
X164488214Y-86814285D01*
X164488214Y-86928571D01*
X164450119Y-87004761D01*
X164412023Y-87042857D01*
X164335833Y-87080952D01*
X164031071Y-87080952D01*
X164945357Y-87004761D02*
X164869166Y-86966666D01*
X164831071Y-86928571D01*
X164792976Y-86852380D01*
X164792976Y-86814285D01*
X164831071Y-86738095D01*
X164869166Y-86700000D01*
X164945357Y-86661904D01*
X165097738Y-86661904D01*
X165173928Y-86700000D01*
X165212023Y-86738095D01*
X165250119Y-86814285D01*
X165250119Y-86852380D01*
X165212023Y-86928571D01*
X165173928Y-86966666D01*
X165097738Y-87004761D01*
X164945357Y-87004761D01*
X164869166Y-87042857D01*
X164831071Y-87080952D01*
X164792976Y-87157142D01*
X164792976Y-87309523D01*
X164831071Y-87385714D01*
X164869166Y-87423809D01*
X164945357Y-87461904D01*
X165097738Y-87461904D01*
X165173928Y-87423809D01*
X165212023Y-87385714D01*
X165250119Y-87309523D01*
X165250119Y-87157142D01*
X165212023Y-87080952D01*
X165173928Y-87042857D01*
X165097738Y-87004761D01*
X134416547Y-101161904D02*
X134416547Y-101733333D01*
X134378452Y-101847619D01*
X134302261Y-101923809D01*
X134187976Y-101961904D01*
X134111785Y-101961904D01*
X134797500Y-101961904D02*
X134797500Y-101161904D01*
X135102261Y-101161904D01*
X135178452Y-101200000D01*
X135216547Y-101238095D01*
X135254642Y-101314285D01*
X135254642Y-101428571D01*
X135216547Y-101504761D01*
X135178452Y-101542857D01*
X135102261Y-101580952D01*
X134797500Y-101580952D01*
X135940357Y-101161904D02*
X135787976Y-101161904D01*
X135711785Y-101200000D01*
X135673690Y-101238095D01*
X135597500Y-101352380D01*
X135559404Y-101504761D01*
X135559404Y-101809523D01*
X135597500Y-101885714D01*
X135635595Y-101923809D01*
X135711785Y-101961904D01*
X135864166Y-101961904D01*
X135940357Y-101923809D01*
X135978452Y-101885714D01*
X136016547Y-101809523D01*
X136016547Y-101619047D01*
X135978452Y-101542857D01*
X135940357Y-101504761D01*
X135864166Y-101466666D01*
X135711785Y-101466666D01*
X135635595Y-101504761D01*
X135597500Y-101542857D01*
X135559404Y-101619047D01*
X133016547Y-92961904D02*
X133016547Y-93533333D01*
X132978452Y-93647619D01*
X132902261Y-93723809D01*
X132787976Y-93761904D01*
X132711785Y-93761904D01*
X133397500Y-93761904D02*
X133397500Y-92961904D01*
X133702261Y-92961904D01*
X133778452Y-93000000D01*
X133816547Y-93038095D01*
X133854642Y-93114285D01*
X133854642Y-93228571D01*
X133816547Y-93304761D01*
X133778452Y-93342857D01*
X133702261Y-93380952D01*
X133397500Y-93380952D01*
X134159404Y-93038095D02*
X134197500Y-93000000D01*
X134273690Y-92961904D01*
X134464166Y-92961904D01*
X134540357Y-93000000D01*
X134578452Y-93038095D01*
X134616547Y-93114285D01*
X134616547Y-93190476D01*
X134578452Y-93304761D01*
X134121309Y-93761904D01*
X134616547Y-93761904D01*
X133516547Y-81161904D02*
X133516547Y-81733333D01*
X133478452Y-81847619D01*
X133402261Y-81923809D01*
X133287976Y-81961904D01*
X133211785Y-81961904D01*
X133897500Y-81961904D02*
X133897500Y-81161904D01*
X134202261Y-81161904D01*
X134278452Y-81200000D01*
X134316547Y-81238095D01*
X134354642Y-81314285D01*
X134354642Y-81428571D01*
X134316547Y-81504761D01*
X134278452Y-81542857D01*
X134202261Y-81580952D01*
X133897500Y-81580952D01*
X134621309Y-81161904D02*
X135154642Y-81161904D01*
X134811785Y-81961904D01*
X162016547Y-74561904D02*
X162016547Y-75133333D01*
X161978452Y-75247619D01*
X161902261Y-75323809D01*
X161787976Y-75361904D01*
X161711785Y-75361904D01*
X162397500Y-75361904D02*
X162397500Y-74561904D01*
X162702261Y-74561904D01*
X162778452Y-74600000D01*
X162816547Y-74638095D01*
X162854642Y-74714285D01*
X162854642Y-74828571D01*
X162816547Y-74904761D01*
X162778452Y-74942857D01*
X162702261Y-74980952D01*
X162397500Y-74980952D01*
X163578452Y-74561904D02*
X163197500Y-74561904D01*
X163159404Y-74942857D01*
X163197500Y-74904761D01*
X163273690Y-74866666D01*
X163464166Y-74866666D01*
X163540357Y-74904761D01*
X163578452Y-74942857D01*
X163616547Y-75019047D01*
X163616547Y-75209523D01*
X163578452Y-75285714D01*
X163540357Y-75323809D01*
X163464166Y-75361904D01*
X163273690Y-75361904D01*
X163197500Y-75323809D01*
X163159404Y-75285714D01*
X133650119Y-75161904D02*
X133650119Y-75733333D01*
X133612023Y-75847619D01*
X133535833Y-75923809D01*
X133421547Y-75961904D01*
X133345357Y-75961904D01*
X134031071Y-75961904D02*
X134031071Y-75161904D01*
X134335833Y-75161904D01*
X134412023Y-75200000D01*
X134450119Y-75238095D01*
X134488214Y-75314285D01*
X134488214Y-75428571D01*
X134450119Y-75504761D01*
X134412023Y-75542857D01*
X134335833Y-75580952D01*
X134031071Y-75580952D01*
X135250119Y-75961904D02*
X134792976Y-75961904D01*
X135021547Y-75961904D02*
X135021547Y-75161904D01*
X134945357Y-75276190D01*
X134869166Y-75352380D01*
X134792976Y-75390476D01*
X160545119Y-94785714D02*
X160507023Y-94823809D01*
X160392738Y-94861904D01*
X160316547Y-94861904D01*
X160202261Y-94823809D01*
X160126071Y-94747619D01*
X160087976Y-94671428D01*
X160049880Y-94519047D01*
X160049880Y-94404761D01*
X160087976Y-94252380D01*
X160126071Y-94176190D01*
X160202261Y-94100000D01*
X160316547Y-94061904D01*
X160392738Y-94061904D01*
X160507023Y-94100000D01*
X160545119Y-94138095D01*
X160849880Y-94138095D02*
X160887976Y-94100000D01*
X160964166Y-94061904D01*
X161154642Y-94061904D01*
X161230833Y-94100000D01*
X161268928Y-94138095D01*
X161307023Y-94214285D01*
X161307023Y-94290476D01*
X161268928Y-94404761D01*
X160811785Y-94861904D01*
X161307023Y-94861904D01*
X161687976Y-94861904D02*
X161840357Y-94861904D01*
X161916547Y-94823809D01*
X161954642Y-94785714D01*
X162030833Y-94671428D01*
X162068928Y-94519047D01*
X162068928Y-94214285D01*
X162030833Y-94138095D01*
X161992738Y-94100000D01*
X161916547Y-94061904D01*
X161764166Y-94061904D01*
X161687976Y-94100000D01*
X161649880Y-94138095D01*
X161611785Y-94214285D01*
X161611785Y-94404761D01*
X161649880Y-94480952D01*
X161687976Y-94519047D01*
X161764166Y-94557142D01*
X161916547Y-94557142D01*
X161992738Y-94519047D01*
X162030833Y-94480952D01*
X162068928Y-94404761D01*
X153973690Y-84261904D02*
X154430833Y-84261904D01*
X154202261Y-85061904D02*
X154202261Y-84261904D01*
X154697500Y-85061904D02*
X154697500Y-84261904D01*
X155002261Y-84261904D01*
X155078452Y-84300000D01*
X155116547Y-84338095D01*
X155154642Y-84414285D01*
X155154642Y-84528571D01*
X155116547Y-84604761D01*
X155078452Y-84642857D01*
X155002261Y-84680952D01*
X154697500Y-84680952D01*
X155916547Y-85061904D02*
X155459404Y-85061904D01*
X155687976Y-85061904D02*
X155687976Y-84261904D01*
X155611785Y-84376190D01*
X155535595Y-84452380D01*
X155459404Y-84490476D01*
X156602261Y-84261904D02*
X156449880Y-84261904D01*
X156373690Y-84300000D01*
X156335595Y-84338095D01*
X156259404Y-84452380D01*
X156221309Y-84604761D01*
X156221309Y-84909523D01*
X156259404Y-84985714D01*
X156297500Y-85023809D01*
X156373690Y-85061904D01*
X156526071Y-85061904D01*
X156602261Y-85023809D01*
X156640357Y-84985714D01*
X156678452Y-84909523D01*
X156678452Y-84719047D01*
X156640357Y-84642857D01*
X156602261Y-84604761D01*
X156526071Y-84566666D01*
X156373690Y-84566666D01*
X156297500Y-84604761D01*
X156259404Y-84642857D01*
X156221309Y-84719047D01*
X146923690Y-84611904D02*
X147380833Y-84611904D01*
X147152261Y-85411904D02*
X147152261Y-84611904D01*
X147647500Y-85411904D02*
X147647500Y-84611904D01*
X147952261Y-84611904D01*
X148028452Y-84650000D01*
X148066547Y-84688095D01*
X148104642Y-84764285D01*
X148104642Y-84878571D01*
X148066547Y-84954761D01*
X148028452Y-84992857D01*
X147952261Y-85030952D01*
X147647500Y-85030952D01*
X148866547Y-85411904D02*
X148409404Y-85411904D01*
X148637976Y-85411904D02*
X148637976Y-84611904D01*
X148561785Y-84726190D01*
X148485595Y-84802380D01*
X148409404Y-84840476D01*
X149133214Y-84611904D02*
X149628452Y-84611904D01*
X149361785Y-84916666D01*
X149476071Y-84916666D01*
X149552261Y-84954761D01*
X149590357Y-84992857D01*
X149628452Y-85069047D01*
X149628452Y-85259523D01*
X149590357Y-85335714D01*
X149552261Y-85373809D01*
X149476071Y-85411904D01*
X149247500Y-85411904D01*
X149171309Y-85373809D01*
X149133214Y-85335714D01*
X142173690Y-85161904D02*
X142630833Y-85161904D01*
X142402261Y-85961904D02*
X142402261Y-85161904D01*
X142897500Y-85961904D02*
X142897500Y-85161904D01*
X143202261Y-85161904D01*
X143278452Y-85200000D01*
X143316547Y-85238095D01*
X143354642Y-85314285D01*
X143354642Y-85428571D01*
X143316547Y-85504761D01*
X143278452Y-85542857D01*
X143202261Y-85580952D01*
X142897500Y-85580952D01*
X143735595Y-85961904D02*
X143887976Y-85961904D01*
X143964166Y-85923809D01*
X144002261Y-85885714D01*
X144078452Y-85771428D01*
X144116547Y-85619047D01*
X144116547Y-85314285D01*
X144078452Y-85238095D01*
X144040357Y-85200000D01*
X143964166Y-85161904D01*
X143811785Y-85161904D01*
X143735595Y-85200000D01*
X143697500Y-85238095D01*
X143659404Y-85314285D01*
X143659404Y-85504761D01*
X143697500Y-85580952D01*
X143735595Y-85619047D01*
X143811785Y-85657142D01*
X143964166Y-85657142D01*
X144040357Y-85619047D01*
X144078452Y-85580952D01*
X144116547Y-85504761D01*
X139923690Y-89661904D02*
X140380833Y-89661904D01*
X140152261Y-90461904D02*
X140152261Y-89661904D01*
X140647500Y-90461904D02*
X140647500Y-89661904D01*
X140952261Y-89661904D01*
X141028452Y-89700000D01*
X141066547Y-89738095D01*
X141104642Y-89814285D01*
X141104642Y-89928571D01*
X141066547Y-90004761D01*
X141028452Y-90042857D01*
X140952261Y-90080952D01*
X140647500Y-90080952D01*
X141790357Y-89661904D02*
X141637976Y-89661904D01*
X141561785Y-89700000D01*
X141523690Y-89738095D01*
X141447500Y-89852380D01*
X141409404Y-90004761D01*
X141409404Y-90309523D01*
X141447500Y-90385714D01*
X141485595Y-90423809D01*
X141561785Y-90461904D01*
X141714166Y-90461904D01*
X141790357Y-90423809D01*
X141828452Y-90385714D01*
X141866547Y-90309523D01*
X141866547Y-90119047D01*
X141828452Y-90042857D01*
X141790357Y-90004761D01*
X141714166Y-89966666D01*
X141561785Y-89966666D01*
X141485595Y-90004761D01*
X141447500Y-90042857D01*
X141409404Y-90119047D01*
X137961904Y-109454880D02*
X137580952Y-109721547D01*
X137961904Y-109912023D02*
X137161904Y-109912023D01*
X137161904Y-109607261D01*
X137200000Y-109531071D01*
X137238095Y-109492976D01*
X137314285Y-109454880D01*
X137428571Y-109454880D01*
X137504761Y-109492976D01*
X137542857Y-109531071D01*
X137580952Y-109607261D01*
X137580952Y-109912023D01*
X137238095Y-109150119D02*
X137200000Y-109112023D01*
X137161904Y-109035833D01*
X137161904Y-108845357D01*
X137200000Y-108769166D01*
X137238095Y-108731071D01*
X137314285Y-108692976D01*
X137390476Y-108692976D01*
X137504761Y-108731071D01*
X137961904Y-109188214D01*
X137961904Y-108692976D01*
X137161904Y-107969166D02*
X137161904Y-108350119D01*
X137542857Y-108388214D01*
X137504761Y-108350119D01*
X137466666Y-108273928D01*
X137466666Y-108083452D01*
X137504761Y-108007261D01*
X137542857Y-107969166D01*
X137619047Y-107931071D01*
X137809523Y-107931071D01*
X137885714Y-107969166D01*
X137923809Y-108007261D01*
X137961904Y-108083452D01*
X137961904Y-108273928D01*
X137923809Y-108350119D01*
X137885714Y-108388214D01*
X140226309Y-99661904D02*
X139959642Y-99280952D01*
X139769166Y-99661904D02*
X139769166Y-98861904D01*
X140073928Y-98861904D01*
X140150119Y-98900000D01*
X140188214Y-98938095D01*
X140226309Y-99014285D01*
X140226309Y-99128571D01*
X140188214Y-99204761D01*
X140150119Y-99242857D01*
X140073928Y-99280952D01*
X139769166Y-99280952D01*
X140531071Y-98938095D02*
X140569166Y-98900000D01*
X140645357Y-98861904D01*
X140835833Y-98861904D01*
X140912023Y-98900000D01*
X140950119Y-98938095D01*
X140988214Y-99014285D01*
X140988214Y-99090476D01*
X140950119Y-99204761D01*
X140492976Y-99661904D01*
X140988214Y-99661904D01*
X141673928Y-99128571D02*
X141673928Y-99661904D01*
X141483452Y-98823809D02*
X141292976Y-99395238D01*
X141788214Y-99395238D01*
X141561904Y-101554880D02*
X141180952Y-101821547D01*
X141561904Y-102012023D02*
X140761904Y-102012023D01*
X140761904Y-101707261D01*
X140800000Y-101631071D01*
X140838095Y-101592976D01*
X140914285Y-101554880D01*
X141028571Y-101554880D01*
X141104761Y-101592976D01*
X141142857Y-101631071D01*
X141180952Y-101707261D01*
X141180952Y-102012023D01*
X140838095Y-101250119D02*
X140800000Y-101212023D01*
X140761904Y-101135833D01*
X140761904Y-100945357D01*
X140800000Y-100869166D01*
X140838095Y-100831071D01*
X140914285Y-100792976D01*
X140990476Y-100792976D01*
X141104761Y-100831071D01*
X141561904Y-101288214D01*
X141561904Y-100792976D01*
X140761904Y-100526309D02*
X140761904Y-100031071D01*
X141066666Y-100297738D01*
X141066666Y-100183452D01*
X141104761Y-100107261D01*
X141142857Y-100069166D01*
X141219047Y-100031071D01*
X141409523Y-100031071D01*
X141485714Y-100069166D01*
X141523809Y-100107261D01*
X141561904Y-100183452D01*
X141561904Y-100412023D01*
X141523809Y-100488214D01*
X141485714Y-100526309D01*
X137826309Y-99861904D02*
X137559642Y-99480952D01*
X137369166Y-99861904D02*
X137369166Y-99061904D01*
X137673928Y-99061904D01*
X137750119Y-99100000D01*
X137788214Y-99138095D01*
X137826309Y-99214285D01*
X137826309Y-99328571D01*
X137788214Y-99404761D01*
X137750119Y-99442857D01*
X137673928Y-99480952D01*
X137369166Y-99480952D01*
X138131071Y-99138095D02*
X138169166Y-99100000D01*
X138245357Y-99061904D01*
X138435833Y-99061904D01*
X138512023Y-99100000D01*
X138550119Y-99138095D01*
X138588214Y-99214285D01*
X138588214Y-99290476D01*
X138550119Y-99404761D01*
X138092976Y-99861904D01*
X138588214Y-99861904D01*
X138892976Y-99138095D02*
X138931071Y-99100000D01*
X139007261Y-99061904D01*
X139197738Y-99061904D01*
X139273928Y-99100000D01*
X139312023Y-99138095D01*
X139350119Y-99214285D01*
X139350119Y-99290476D01*
X139312023Y-99404761D01*
X138854880Y-99861904D01*
X139350119Y-99861904D01*
X136322309Y-102652904D02*
X136055642Y-102271952D01*
X135865166Y-102652904D02*
X135865166Y-101852904D01*
X136169928Y-101852904D01*
X136246119Y-101891000D01*
X136284214Y-101929095D01*
X136322309Y-102005285D01*
X136322309Y-102119571D01*
X136284214Y-102195761D01*
X136246119Y-102233857D01*
X136169928Y-102271952D01*
X135865166Y-102271952D01*
X137084214Y-102652904D02*
X136627071Y-102652904D01*
X136855642Y-102652904D02*
X136855642Y-101852904D01*
X136779452Y-101967190D01*
X136703261Y-102043380D01*
X136627071Y-102081476D01*
X137769928Y-102119571D02*
X137769928Y-102652904D01*
X137579452Y-101814809D02*
X137388976Y-102386238D01*
X137884214Y-102386238D01*
X137045119Y-105461904D02*
X136778452Y-105080952D01*
X136587976Y-105461904D02*
X136587976Y-104661904D01*
X136892738Y-104661904D01*
X136968928Y-104700000D01*
X137007023Y-104738095D01*
X137045119Y-104814285D01*
X137045119Y-104928571D01*
X137007023Y-105004761D01*
X136968928Y-105042857D01*
X136892738Y-105080952D01*
X136587976Y-105080952D01*
X137807023Y-105461904D02*
X137349880Y-105461904D01*
X137578452Y-105461904D02*
X137578452Y-104661904D01*
X137502261Y-104776190D01*
X137426071Y-104852380D01*
X137349880Y-104890476D01*
X138073690Y-104661904D02*
X138568928Y-104661904D01*
X138302261Y-104966666D01*
X138416547Y-104966666D01*
X138492738Y-105004761D01*
X138530833Y-105042857D01*
X138568928Y-105119047D01*
X138568928Y-105309523D01*
X138530833Y-105385714D01*
X138492738Y-105423809D01*
X138416547Y-105461904D01*
X138187976Y-105461904D01*
X138111785Y-105423809D01*
X138073690Y-105385714D01*
X154645119Y-87961904D02*
X154378452Y-87580952D01*
X154187976Y-87961904D02*
X154187976Y-87161904D01*
X154492738Y-87161904D01*
X154568928Y-87200000D01*
X154607023Y-87238095D01*
X154645119Y-87314285D01*
X154645119Y-87428571D01*
X154607023Y-87504761D01*
X154568928Y-87542857D01*
X154492738Y-87580952D01*
X154187976Y-87580952D01*
X154949880Y-87238095D02*
X154987976Y-87200000D01*
X155064166Y-87161904D01*
X155254642Y-87161904D01*
X155330833Y-87200000D01*
X155368928Y-87238095D01*
X155407023Y-87314285D01*
X155407023Y-87390476D01*
X155368928Y-87504761D01*
X154911785Y-87961904D01*
X155407023Y-87961904D01*
X155785914Y-86813804D02*
X155519247Y-86432852D01*
X155328771Y-86813804D02*
X155328771Y-86013804D01*
X155633533Y-86013804D01*
X155709723Y-86051900D01*
X155747819Y-86089995D01*
X155785914Y-86166185D01*
X155785914Y-86280471D01*
X155747819Y-86356661D01*
X155709723Y-86394757D01*
X155633533Y-86432852D01*
X155328771Y-86432852D01*
X156547819Y-86813804D02*
X156090676Y-86813804D01*
X156319247Y-86813804D02*
X156319247Y-86013804D01*
X156243057Y-86128090D01*
X156166866Y-86204280D01*
X156090676Y-86242376D01*
X139068928Y-96411904D02*
X138687976Y-96411904D01*
X138687976Y-95611904D01*
X139754642Y-96411904D02*
X139297500Y-96411904D01*
X139526071Y-96411904D02*
X139526071Y-95611904D01*
X139449880Y-95726190D01*
X139373690Y-95802380D01*
X139297500Y-95840476D01*
X144387976Y-128561904D02*
X144387976Y-127761904D01*
X144845119Y-128561904D02*
X144502261Y-128104761D01*
X144845119Y-127761904D02*
X144387976Y-128219047D01*
X145607023Y-128561904D02*
X145149880Y-128561904D01*
X145378452Y-128561904D02*
X145378452Y-127761904D01*
X145302261Y-127876190D01*
X145226071Y-127952380D01*
X145149880Y-127990476D01*
X142750119Y-87261904D02*
X142750119Y-86461904D01*
X143588214Y-87185714D02*
X143550119Y-87223809D01*
X143435833Y-87261904D01*
X143359642Y-87261904D01*
X143245357Y-87223809D01*
X143169166Y-87147619D01*
X143131071Y-87071428D01*
X143092976Y-86919047D01*
X143092976Y-86804761D01*
X143131071Y-86652380D01*
X143169166Y-86576190D01*
X143245357Y-86500000D01*
X143359642Y-86461904D01*
X143435833Y-86461904D01*
X143550119Y-86500000D01*
X143588214Y-86538095D01*
X144350119Y-87261904D02*
X143892976Y-87261904D01*
X144121547Y-87261904D02*
X144121547Y-86461904D01*
X144045357Y-86576190D01*
X143969166Y-86652380D01*
X143892976Y-86690476D01*
X142931071Y-127261904D02*
X142931071Y-126461904D01*
X143121547Y-126461904D01*
X143235833Y-126500000D01*
X143312023Y-126576190D01*
X143350119Y-126652380D01*
X143388214Y-126804761D01*
X143388214Y-126919047D01*
X143350119Y-127071428D01*
X143312023Y-127147619D01*
X143235833Y-127223809D01*
X143121547Y-127261904D01*
X142931071Y-127261904D01*
X143654880Y-126461904D02*
X144188214Y-126461904D01*
X143845357Y-127261904D01*
X140081071Y-132061904D02*
X140081071Y-131261904D01*
X140271547Y-131261904D01*
X140385833Y-131300000D01*
X140462023Y-131376190D01*
X140500119Y-131452380D01*
X140538214Y-131604761D01*
X140538214Y-131719047D01*
X140500119Y-131871428D01*
X140462023Y-131947619D01*
X140385833Y-132023809D01*
X140271547Y-132061904D01*
X140081071Y-132061904D01*
X141223928Y-131261904D02*
X141071547Y-131261904D01*
X140995357Y-131300000D01*
X140957261Y-131338095D01*
X140881071Y-131452380D01*
X140842976Y-131604761D01*
X140842976Y-131909523D01*
X140881071Y-131985714D01*
X140919166Y-132023809D01*
X140995357Y-132061904D01*
X141147738Y-132061904D01*
X141223928Y-132023809D01*
X141262023Y-131985714D01*
X141300119Y-131909523D01*
X141300119Y-131719047D01*
X141262023Y-131642857D01*
X141223928Y-131604761D01*
X141147738Y-131566666D01*
X140995357Y-131566666D01*
X140919166Y-131604761D01*
X140881071Y-131642857D01*
X140842976Y-131719047D01*
X157587976Y-132711904D02*
X157587976Y-131911904D01*
X157778452Y-131911904D01*
X157892738Y-131950000D01*
X157968928Y-132026190D01*
X158007023Y-132102380D01*
X158045119Y-132254761D01*
X158045119Y-132369047D01*
X158007023Y-132521428D01*
X157968928Y-132597619D01*
X157892738Y-132673809D01*
X157778452Y-132711904D01*
X157587976Y-132711904D01*
X158768928Y-131911904D02*
X158387976Y-131911904D01*
X158349880Y-132292857D01*
X158387976Y-132254761D01*
X158464166Y-132216666D01*
X158654642Y-132216666D01*
X158730833Y-132254761D01*
X158768928Y-132292857D01*
X158807023Y-132369047D01*
X158807023Y-132559523D01*
X158768928Y-132635714D01*
X158730833Y-132673809D01*
X158654642Y-132711904D01*
X158464166Y-132711904D01*
X158387976Y-132673809D01*
X158349880Y-132635714D01*
X139881071Y-135861904D02*
X139881071Y-135061904D01*
X140071547Y-135061904D01*
X140185833Y-135100000D01*
X140262023Y-135176190D01*
X140300119Y-135252380D01*
X140338214Y-135404761D01*
X140338214Y-135519047D01*
X140300119Y-135671428D01*
X140262023Y-135747619D01*
X140185833Y-135823809D01*
X140071547Y-135861904D01*
X139881071Y-135861904D01*
X141023928Y-135328571D02*
X141023928Y-135861904D01*
X140833452Y-135023809D02*
X140642976Y-135595238D01*
X141138214Y-135595238D01*
X141126309Y-113085714D02*
X141088214Y-113123809D01*
X140973928Y-113161904D01*
X140897738Y-113161904D01*
X140783452Y-113123809D01*
X140707261Y-113047619D01*
X140669166Y-112971428D01*
X140631071Y-112819047D01*
X140631071Y-112704761D01*
X140669166Y-112552380D01*
X140707261Y-112476190D01*
X140783452Y-112400000D01*
X140897738Y-112361904D01*
X140973928Y-112361904D01*
X141088214Y-112400000D01*
X141126309Y-112438095D01*
X141392976Y-112361904D02*
X141888214Y-112361904D01*
X141621547Y-112666666D01*
X141735833Y-112666666D01*
X141812023Y-112704761D01*
X141850119Y-112742857D01*
X141888214Y-112819047D01*
X141888214Y-113009523D01*
X141850119Y-113085714D01*
X141812023Y-113123809D01*
X141735833Y-113161904D01*
X141507261Y-113161904D01*
X141431071Y-113123809D01*
X141392976Y-113085714D01*
X142192976Y-112438095D02*
X142231071Y-112400000D01*
X142307261Y-112361904D01*
X142497738Y-112361904D01*
X142573928Y-112400000D01*
X142612023Y-112438095D01*
X142650119Y-112514285D01*
X142650119Y-112590476D01*
X142612023Y-112704761D01*
X142154880Y-113161904D01*
X142650119Y-113161904D01*
X144785714Y-111873690D02*
X144823809Y-111911785D01*
X144861904Y-112026071D01*
X144861904Y-112102261D01*
X144823809Y-112216547D01*
X144747619Y-112292738D01*
X144671428Y-112330833D01*
X144519047Y-112368928D01*
X144404761Y-112368928D01*
X144252380Y-112330833D01*
X144176190Y-112292738D01*
X144100000Y-112216547D01*
X144061904Y-112102261D01*
X144061904Y-112026071D01*
X144100000Y-111911785D01*
X144138095Y-111873690D01*
X144061904Y-111607023D02*
X144061904Y-111111785D01*
X144366666Y-111378452D01*
X144366666Y-111264166D01*
X144404761Y-111187976D01*
X144442857Y-111149880D01*
X144519047Y-111111785D01*
X144709523Y-111111785D01*
X144785714Y-111149880D01*
X144823809Y-111187976D01*
X144861904Y-111264166D01*
X144861904Y-111492738D01*
X144823809Y-111568928D01*
X144785714Y-111607023D01*
X144861904Y-110349880D02*
X144861904Y-110807023D01*
X144861904Y-110578452D02*
X144061904Y-110578452D01*
X144176190Y-110654642D01*
X144252380Y-110730833D01*
X144290476Y-110807023D01*
X150445119Y-98485714D02*
X150407023Y-98523809D01*
X150292738Y-98561904D01*
X150216547Y-98561904D01*
X150102261Y-98523809D01*
X150026071Y-98447619D01*
X149987976Y-98371428D01*
X149949880Y-98219047D01*
X149949880Y-98104761D01*
X149987976Y-97952380D01*
X150026071Y-97876190D01*
X150102261Y-97800000D01*
X150216547Y-97761904D01*
X150292738Y-97761904D01*
X150407023Y-97800000D01*
X150445119Y-97838095D01*
X150749880Y-97838095D02*
X150787976Y-97800000D01*
X150864166Y-97761904D01*
X151054642Y-97761904D01*
X151130833Y-97800000D01*
X151168928Y-97838095D01*
X151207023Y-97914285D01*
X151207023Y-97990476D01*
X151168928Y-98104761D01*
X150711785Y-98561904D01*
X151207023Y-98561904D01*
X151473690Y-97761904D02*
X152007023Y-97761904D01*
X151664166Y-98561904D01*
X154745119Y-101185714D02*
X154707023Y-101223809D01*
X154592738Y-101261904D01*
X154516547Y-101261904D01*
X154402261Y-101223809D01*
X154326071Y-101147619D01*
X154287976Y-101071428D01*
X154249880Y-100919047D01*
X154249880Y-100804761D01*
X154287976Y-100652380D01*
X154326071Y-100576190D01*
X154402261Y-100500000D01*
X154516547Y-100461904D01*
X154592738Y-100461904D01*
X154707023Y-100500000D01*
X154745119Y-100538095D01*
X155049880Y-100538095D02*
X155087976Y-100500000D01*
X155164166Y-100461904D01*
X155354642Y-100461904D01*
X155430833Y-100500000D01*
X155468928Y-100538095D01*
X155507023Y-100614285D01*
X155507023Y-100690476D01*
X155468928Y-100804761D01*
X155011785Y-101261904D01*
X155507023Y-101261904D01*
X156192738Y-100461904D02*
X156040357Y-100461904D01*
X155964166Y-100500000D01*
X155926071Y-100538095D01*
X155849880Y-100652380D01*
X155811785Y-100804761D01*
X155811785Y-101109523D01*
X155849880Y-101185714D01*
X155887976Y-101223809D01*
X155964166Y-101261904D01*
X156116547Y-101261904D01*
X156192738Y-101223809D01*
X156230833Y-101185714D01*
X156268928Y-101109523D01*
X156268928Y-100919047D01*
X156230833Y-100842857D01*
X156192738Y-100804761D01*
X156116547Y-100766666D01*
X155964166Y-100766666D01*
X155887976Y-100804761D01*
X155849880Y-100842857D01*
X155811785Y-100919047D01*
X150395119Y-99985714D02*
X150357023Y-100023809D01*
X150242738Y-100061904D01*
X150166547Y-100061904D01*
X150052261Y-100023809D01*
X149976071Y-99947619D01*
X149937976Y-99871428D01*
X149899880Y-99719047D01*
X149899880Y-99604761D01*
X149937976Y-99452380D01*
X149976071Y-99376190D01*
X150052261Y-99300000D01*
X150166547Y-99261904D01*
X150242738Y-99261904D01*
X150357023Y-99300000D01*
X150395119Y-99338095D01*
X150699880Y-99338095D02*
X150737976Y-99300000D01*
X150814166Y-99261904D01*
X151004642Y-99261904D01*
X151080833Y-99300000D01*
X151118928Y-99338095D01*
X151157023Y-99414285D01*
X151157023Y-99490476D01*
X151118928Y-99604761D01*
X150661785Y-100061904D01*
X151157023Y-100061904D01*
X151880833Y-99261904D02*
X151499880Y-99261904D01*
X151461785Y-99642857D01*
X151499880Y-99604761D01*
X151576071Y-99566666D01*
X151766547Y-99566666D01*
X151842738Y-99604761D01*
X151880833Y-99642857D01*
X151918928Y-99719047D01*
X151918928Y-99909523D01*
X151880833Y-99985714D01*
X151842738Y-100023809D01*
X151766547Y-100061904D01*
X151576071Y-100061904D01*
X151499880Y-100023809D01*
X151461785Y-99985714D01*
X152545119Y-96285714D02*
X152507023Y-96323809D01*
X152392738Y-96361904D01*
X152316547Y-96361904D01*
X152202261Y-96323809D01*
X152126071Y-96247619D01*
X152087976Y-96171428D01*
X152049880Y-96019047D01*
X152049880Y-95904761D01*
X152087976Y-95752380D01*
X152126071Y-95676190D01*
X152202261Y-95600000D01*
X152316547Y-95561904D01*
X152392738Y-95561904D01*
X152507023Y-95600000D01*
X152545119Y-95638095D01*
X152849880Y-95638095D02*
X152887976Y-95600000D01*
X152964166Y-95561904D01*
X153154642Y-95561904D01*
X153230833Y-95600000D01*
X153268928Y-95638095D01*
X153307023Y-95714285D01*
X153307023Y-95790476D01*
X153268928Y-95904761D01*
X152811785Y-96361904D01*
X153307023Y-96361904D01*
X153992738Y-95828571D02*
X153992738Y-96361904D01*
X153802261Y-95523809D02*
X153611785Y-96095238D01*
X154107023Y-96095238D01*
X157745119Y-134185714D02*
X157707023Y-134223809D01*
X157592738Y-134261904D01*
X157516547Y-134261904D01*
X157402261Y-134223809D01*
X157326071Y-134147619D01*
X157287976Y-134071428D01*
X157249880Y-133919047D01*
X157249880Y-133804761D01*
X157287976Y-133652380D01*
X157326071Y-133576190D01*
X157402261Y-133500000D01*
X157516547Y-133461904D01*
X157592738Y-133461904D01*
X157707023Y-133500000D01*
X157745119Y-133538095D01*
X158049880Y-133538095D02*
X158087976Y-133500000D01*
X158164166Y-133461904D01*
X158354642Y-133461904D01*
X158430833Y-133500000D01*
X158468928Y-133538095D01*
X158507023Y-133614285D01*
X158507023Y-133690476D01*
X158468928Y-133804761D01*
X158011785Y-134261904D01*
X158507023Y-134261904D01*
X159268928Y-134261904D02*
X158811785Y-134261904D01*
X159040357Y-134261904D02*
X159040357Y-133461904D01*
X158964166Y-133576190D01*
X158887976Y-133652380D01*
X158811785Y-133690476D01*
X139926309Y-137385714D02*
X139888214Y-137423809D01*
X139773928Y-137461904D01*
X139697738Y-137461904D01*
X139583452Y-137423809D01*
X139507261Y-137347619D01*
X139469166Y-137271428D01*
X139431071Y-137119047D01*
X139431071Y-137004761D01*
X139469166Y-136852380D01*
X139507261Y-136776190D01*
X139583452Y-136700000D01*
X139697738Y-136661904D01*
X139773928Y-136661904D01*
X139888214Y-136700000D01*
X139926309Y-136738095D01*
X140231071Y-136738095D02*
X140269166Y-136700000D01*
X140345357Y-136661904D01*
X140535833Y-136661904D01*
X140612023Y-136700000D01*
X140650119Y-136738095D01*
X140688214Y-136814285D01*
X140688214Y-136890476D01*
X140650119Y-137004761D01*
X140192976Y-137461904D01*
X140688214Y-137461904D01*
X141183452Y-136661904D02*
X141259642Y-136661904D01*
X141335833Y-136700000D01*
X141373928Y-136738095D01*
X141412023Y-136814285D01*
X141450119Y-136966666D01*
X141450119Y-137157142D01*
X141412023Y-137309523D01*
X141373928Y-137385714D01*
X141335833Y-137423809D01*
X141259642Y-137461904D01*
X141183452Y-137461904D01*
X141107261Y-137423809D01*
X141069166Y-137385714D01*
X141031071Y-137309523D01*
X140992976Y-137157142D01*
X140992976Y-136966666D01*
X141031071Y-136814285D01*
X141069166Y-136738095D01*
X141107261Y-136700000D01*
X141183452Y-136661904D01*
X142176309Y-134685714D02*
X142138214Y-134723809D01*
X142023928Y-134761904D01*
X141947738Y-134761904D01*
X141833452Y-134723809D01*
X141757261Y-134647619D01*
X141719166Y-134571428D01*
X141681071Y-134419047D01*
X141681071Y-134304761D01*
X141719166Y-134152380D01*
X141757261Y-134076190D01*
X141833452Y-134000000D01*
X141947738Y-133961904D01*
X142023928Y-133961904D01*
X142138214Y-134000000D01*
X142176309Y-134038095D01*
X142938214Y-134761904D02*
X142481071Y-134761904D01*
X142709642Y-134761904D02*
X142709642Y-133961904D01*
X142633452Y-134076190D01*
X142557261Y-134152380D01*
X142481071Y-134190476D01*
X143319166Y-134761904D02*
X143471547Y-134761904D01*
X143547738Y-134723809D01*
X143585833Y-134685714D01*
X143662023Y-134571428D01*
X143700119Y-134419047D01*
X143700119Y-134114285D01*
X143662023Y-134038095D01*
X143623928Y-134000000D01*
X143547738Y-133961904D01*
X143395357Y-133961904D01*
X143319166Y-134000000D01*
X143281071Y-134038095D01*
X143242976Y-134114285D01*
X143242976Y-134304761D01*
X143281071Y-134380952D01*
X143319166Y-134419047D01*
X143395357Y-134457142D01*
X143547738Y-134457142D01*
X143623928Y-134419047D01*
X143662023Y-134380952D01*
X143700119Y-134304761D01*
X141076309Y-130885714D02*
X141038214Y-130923809D01*
X140923928Y-130961904D01*
X140847738Y-130961904D01*
X140733452Y-130923809D01*
X140657261Y-130847619D01*
X140619166Y-130771428D01*
X140581071Y-130619047D01*
X140581071Y-130504761D01*
X140619166Y-130352380D01*
X140657261Y-130276190D01*
X140733452Y-130200000D01*
X140847738Y-130161904D01*
X140923928Y-130161904D01*
X141038214Y-130200000D01*
X141076309Y-130238095D01*
X141838214Y-130961904D02*
X141381071Y-130961904D01*
X141609642Y-130961904D02*
X141609642Y-130161904D01*
X141533452Y-130276190D01*
X141457261Y-130352380D01*
X141381071Y-130390476D01*
X142295357Y-130504761D02*
X142219166Y-130466666D01*
X142181071Y-130428571D01*
X142142976Y-130352380D01*
X142142976Y-130314285D01*
X142181071Y-130238095D01*
X142219166Y-130200000D01*
X142295357Y-130161904D01*
X142447738Y-130161904D01*
X142523928Y-130200000D01*
X142562023Y-130238095D01*
X142600119Y-130314285D01*
X142600119Y-130352380D01*
X142562023Y-130428571D01*
X142523928Y-130466666D01*
X142447738Y-130504761D01*
X142295357Y-130504761D01*
X142219166Y-130542857D01*
X142181071Y-130580952D01*
X142142976Y-130657142D01*
X142142976Y-130809523D01*
X142181071Y-130885714D01*
X142219166Y-130923809D01*
X142295357Y-130961904D01*
X142447738Y-130961904D01*
X142523928Y-130923809D01*
X142562023Y-130885714D01*
X142600119Y-130809523D01*
X142600119Y-130657142D01*
X142562023Y-130580952D01*
X142523928Y-130542857D01*
X142447738Y-130504761D01*
X155026309Y-89685714D02*
X154988214Y-89723809D01*
X154873928Y-89761904D01*
X154797738Y-89761904D01*
X154683452Y-89723809D01*
X154607261Y-89647619D01*
X154569166Y-89571428D01*
X154531071Y-89419047D01*
X154531071Y-89304761D01*
X154569166Y-89152380D01*
X154607261Y-89076190D01*
X154683452Y-89000000D01*
X154797738Y-88961904D01*
X154873928Y-88961904D01*
X154988214Y-89000000D01*
X155026309Y-89038095D01*
X155788214Y-89761904D02*
X155331071Y-89761904D01*
X155559642Y-89761904D02*
X155559642Y-88961904D01*
X155483452Y-89076190D01*
X155407261Y-89152380D01*
X155331071Y-89190476D01*
X156283452Y-88961904D02*
X156359642Y-88961904D01*
X156435833Y-89000000D01*
X156473928Y-89038095D01*
X156512023Y-89114285D01*
X156550119Y-89266666D01*
X156550119Y-89457142D01*
X156512023Y-89609523D01*
X156473928Y-89685714D01*
X156435833Y-89723809D01*
X156359642Y-89761904D01*
X156283452Y-89761904D01*
X156207261Y-89723809D01*
X156169166Y-89685714D01*
X156131071Y-89609523D01*
X156092976Y-89457142D01*
X156092976Y-89266666D01*
X156131071Y-89114285D01*
X156169166Y-89038095D01*
X156207261Y-89000000D01*
X156283452Y-88961904D01*
X138245119Y-93685714D02*
X138207023Y-93723809D01*
X138092738Y-93761904D01*
X138016547Y-93761904D01*
X137902261Y-93723809D01*
X137826071Y-93647619D01*
X137787976Y-93571428D01*
X137749880Y-93419047D01*
X137749880Y-93304761D01*
X137787976Y-93152380D01*
X137826071Y-93076190D01*
X137902261Y-93000000D01*
X138016547Y-92961904D01*
X138092738Y-92961904D01*
X138207023Y-93000000D01*
X138245119Y-93038095D01*
X138626071Y-93761904D02*
X138778452Y-93761904D01*
X138854642Y-93723809D01*
X138892738Y-93685714D01*
X138968928Y-93571428D01*
X139007023Y-93419047D01*
X139007023Y-93114285D01*
X138968928Y-93038095D01*
X138930833Y-93000000D01*
X138854642Y-92961904D01*
X138702261Y-92961904D01*
X138626071Y-93000000D01*
X138587976Y-93038095D01*
X138549880Y-93114285D01*
X138549880Y-93304761D01*
X138587976Y-93380952D01*
X138626071Y-93419047D01*
X138702261Y-93457142D01*
X138854642Y-93457142D01*
X138930833Y-93419047D01*
X138968928Y-93380952D01*
X139007023Y-93304761D01*
X146438214Y-81285714D02*
X146400119Y-81323809D01*
X146285833Y-81361904D01*
X146209642Y-81361904D01*
X146095357Y-81323809D01*
X146019166Y-81247619D01*
X145981071Y-81171428D01*
X145942976Y-81019047D01*
X145942976Y-80904761D01*
X145981071Y-80752380D01*
X146019166Y-80676190D01*
X146095357Y-80600000D01*
X146209642Y-80561904D01*
X146285833Y-80561904D01*
X146400119Y-80600000D01*
X146438214Y-80638095D01*
X146895357Y-80904761D02*
X146819166Y-80866666D01*
X146781071Y-80828571D01*
X146742976Y-80752380D01*
X146742976Y-80714285D01*
X146781071Y-80638095D01*
X146819166Y-80600000D01*
X146895357Y-80561904D01*
X147047738Y-80561904D01*
X147123928Y-80600000D01*
X147162023Y-80638095D01*
X147200119Y-80714285D01*
X147200119Y-80752380D01*
X147162023Y-80828571D01*
X147123928Y-80866666D01*
X147047738Y-80904761D01*
X146895357Y-80904761D01*
X146819166Y-80942857D01*
X146781071Y-80980952D01*
X146742976Y-81057142D01*
X146742976Y-81209523D01*
X146781071Y-81285714D01*
X146819166Y-81323809D01*
X146895357Y-81361904D01*
X147047738Y-81361904D01*
X147123928Y-81323809D01*
X147162023Y-81285714D01*
X147200119Y-81209523D01*
X147200119Y-81057142D01*
X147162023Y-80980952D01*
X147123928Y-80942857D01*
X147047738Y-80904761D01*
X141045119Y-93635714D02*
X141007023Y-93673809D01*
X140892738Y-93711904D01*
X140816547Y-93711904D01*
X140702261Y-93673809D01*
X140626071Y-93597619D01*
X140587976Y-93521428D01*
X140549880Y-93369047D01*
X140549880Y-93254761D01*
X140587976Y-93102380D01*
X140626071Y-93026190D01*
X140702261Y-92950000D01*
X140816547Y-92911904D01*
X140892738Y-92911904D01*
X141007023Y-92950000D01*
X141045119Y-92988095D01*
X141311785Y-92911904D02*
X141845119Y-92911904D01*
X141502261Y-93711904D01*
X153985714Y-86611785D02*
X154023809Y-86649880D01*
X154061904Y-86764166D01*
X154061904Y-86840357D01*
X154023809Y-86954642D01*
X153947619Y-87030833D01*
X153871428Y-87068928D01*
X153719047Y-87107023D01*
X153604761Y-87107023D01*
X153452380Y-87068928D01*
X153376190Y-87030833D01*
X153300000Y-86954642D01*
X153261904Y-86840357D01*
X153261904Y-86764166D01*
X153300000Y-86649880D01*
X153338095Y-86611785D01*
X153261904Y-85926071D02*
X153261904Y-86078452D01*
X153300000Y-86154642D01*
X153338095Y-86192738D01*
X153452380Y-86268928D01*
X153604761Y-86307023D01*
X153909523Y-86307023D01*
X153985714Y-86268928D01*
X154023809Y-86230833D01*
X154061904Y-86154642D01*
X154061904Y-86002261D01*
X154023809Y-85926071D01*
X153985714Y-85887976D01*
X153909523Y-85849880D01*
X153719047Y-85849880D01*
X153642857Y-85887976D01*
X153604761Y-85926071D01*
X153566666Y-86002261D01*
X153566666Y-86154642D01*
X153604761Y-86230833D01*
X153642857Y-86268928D01*
X153719047Y-86307023D01*
X144285714Y-99954880D02*
X144323809Y-99992976D01*
X144361904Y-100107261D01*
X144361904Y-100183452D01*
X144323809Y-100297738D01*
X144247619Y-100373928D01*
X144171428Y-100412023D01*
X144019047Y-100450119D01*
X143904761Y-100450119D01*
X143752380Y-100412023D01*
X143676190Y-100373928D01*
X143600000Y-100297738D01*
X143561904Y-100183452D01*
X143561904Y-100107261D01*
X143600000Y-99992976D01*
X143638095Y-99954880D01*
X143561904Y-99231071D02*
X143561904Y-99612023D01*
X143942857Y-99650119D01*
X143904761Y-99612023D01*
X143866666Y-99535833D01*
X143866666Y-99345357D01*
X143904761Y-99269166D01*
X143942857Y-99231071D01*
X144019047Y-99192976D01*
X144209523Y-99192976D01*
X144285714Y-99231071D01*
X144323809Y-99269166D01*
X144361904Y-99345357D01*
X144361904Y-99535833D01*
X144323809Y-99612023D01*
X144285714Y-99650119D01*
X138588214Y-87685714D02*
X138550119Y-87723809D01*
X138435833Y-87761904D01*
X138359642Y-87761904D01*
X138245357Y-87723809D01*
X138169166Y-87647619D01*
X138131071Y-87571428D01*
X138092976Y-87419047D01*
X138092976Y-87304761D01*
X138131071Y-87152380D01*
X138169166Y-87076190D01*
X138245357Y-87000000D01*
X138359642Y-86961904D01*
X138435833Y-86961904D01*
X138550119Y-87000000D01*
X138588214Y-87038095D01*
X139273928Y-87228571D02*
X139273928Y-87761904D01*
X139083452Y-86923809D02*
X138892976Y-87495238D01*
X139388214Y-87495238D01*
X138688214Y-84985714D02*
X138650119Y-85023809D01*
X138535833Y-85061904D01*
X138459642Y-85061904D01*
X138345357Y-85023809D01*
X138269166Y-84947619D01*
X138231071Y-84871428D01*
X138192976Y-84719047D01*
X138192976Y-84604761D01*
X138231071Y-84452380D01*
X138269166Y-84376190D01*
X138345357Y-84300000D01*
X138459642Y-84261904D01*
X138535833Y-84261904D01*
X138650119Y-84300000D01*
X138688214Y-84338095D01*
X138954880Y-84261904D02*
X139450119Y-84261904D01*
X139183452Y-84566666D01*
X139297738Y-84566666D01*
X139373928Y-84604761D01*
X139412023Y-84642857D01*
X139450119Y-84719047D01*
X139450119Y-84909523D01*
X139412023Y-84985714D01*
X139373928Y-85023809D01*
X139297738Y-85061904D01*
X139069166Y-85061904D01*
X138992976Y-85023809D01*
X138954880Y-84985714D01*
X149245119Y-82385714D02*
X149207023Y-82423809D01*
X149092738Y-82461904D01*
X149016547Y-82461904D01*
X148902261Y-82423809D01*
X148826071Y-82347619D01*
X148787976Y-82271428D01*
X148749880Y-82119047D01*
X148749880Y-82004761D01*
X148787976Y-81852380D01*
X148826071Y-81776190D01*
X148902261Y-81700000D01*
X149016547Y-81661904D01*
X149092738Y-81661904D01*
X149207023Y-81700000D01*
X149245119Y-81738095D01*
X149549880Y-81738095D02*
X149587976Y-81700000D01*
X149664166Y-81661904D01*
X149854642Y-81661904D01*
X149930833Y-81700000D01*
X149968928Y-81738095D01*
X150007023Y-81814285D01*
X150007023Y-81890476D01*
X149968928Y-82004761D01*
X149511785Y-82461904D01*
X150007023Y-82461904D01*
X144288214Y-84085714D02*
X144250119Y-84123809D01*
X144135833Y-84161904D01*
X144059642Y-84161904D01*
X143945357Y-84123809D01*
X143869166Y-84047619D01*
X143831071Y-83971428D01*
X143792976Y-83819047D01*
X143792976Y-83704761D01*
X143831071Y-83552380D01*
X143869166Y-83476190D01*
X143945357Y-83400000D01*
X144059642Y-83361904D01*
X144135833Y-83361904D01*
X144250119Y-83400000D01*
X144288214Y-83438095D01*
X145050119Y-84161904D02*
X144592976Y-84161904D01*
X144821547Y-84161904D02*
X144821547Y-83361904D01*
X144745357Y-83476190D01*
X144669166Y-83552380D01*
X144592976Y-83590476D01*
M02*
