G04 #@! TF.GenerationSoftware,KiCad,Pcbnew,5.1.8+dfsg1-1~bpo10+1*
G04 #@! TF.CreationDate,2021-01-19T23:44:55+01:00*
G04 #@! TF.ProjectId,easyhive,65617379-6869-4766-952e-6b696361645f,rev?*
G04 #@! TF.SameCoordinates,Original*
G04 #@! TF.FileFunction,Other,Fab,Bot*
%FSLAX46Y46*%
G04 Gerber Fmt 4.6, Leading zero omitted, Abs format (unit mm)*
G04 Created by KiCad (PCBNEW 5.1.8+dfsg1-1~bpo10+1) date 2021-01-19 23:44:55*
%MOMM*%
%LPD*%
G01*
G04 APERTURE LIST*
%ADD10C,0.150000*%
%ADD11C,0.254000*%
%ADD12C,0.100000*%
%ADD13C,0.127000*%
%ADD14C,0.203200*%
%ADD15C,0.101600*%
%ADD16C,0.096520*%
%ADD17C,0.077216*%
%ADD18C,0.001930*%
G04 APERTURE END LIST*
D10*
X149175742Y-70383480D02*
X148556695Y-70383480D01*
X148890028Y-70764433D01*
X148747171Y-70764433D01*
X148651933Y-70812052D01*
X148604314Y-70859671D01*
X148556695Y-70954909D01*
X148556695Y-71193004D01*
X148604314Y-71288242D01*
X148651933Y-71335861D01*
X148747171Y-71383480D01*
X149032885Y-71383480D01*
X149128123Y-71335861D01*
X149175742Y-71288242D01*
X148223361Y-71383480D02*
X147699552Y-70716814D01*
X148223361Y-70716814D02*
X147699552Y-71383480D01*
X158258480Y-81890623D02*
X158306100Y-81843004D01*
X158353719Y-81747766D01*
X158353719Y-81509671D01*
X158306100Y-81414433D01*
X158258480Y-81366814D01*
X158163242Y-81319195D01*
X158068004Y-81319195D01*
X157925147Y-81366814D01*
X157353719Y-81938242D01*
X157353719Y-81319195D01*
X157353719Y-80985861D02*
X158020385Y-80462052D01*
X158020385Y-80985861D02*
X157353719Y-80462052D01*
X159288123Y-87623719D02*
X159240504Y-87576100D01*
X159145266Y-87528480D01*
X158907171Y-87528480D01*
X158811933Y-87576100D01*
X158764314Y-87623719D01*
X158716695Y-87718957D01*
X158716695Y-87814195D01*
X158764314Y-87957052D01*
X159335742Y-88528480D01*
X158716695Y-88528480D01*
X158383361Y-88528480D02*
X157859552Y-87861814D01*
X158383361Y-87861814D02*
X157859552Y-88528480D01*
D11*
X136651100Y-77268600D02*
X136651100Y-79468600D01*
X136651100Y-79468600D02*
X138051100Y-79468600D01*
X138051100Y-79468600D02*
X138051100Y-77268600D01*
X138051100Y-77268600D02*
X136651100Y-77268600D01*
D12*
G36*
X137801100Y-76418600D02*
G01*
X137801100Y-77168600D01*
X136951100Y-77168600D01*
X136951100Y-76418600D01*
X137801100Y-76418600D01*
G37*
G36*
X137801100Y-79568600D02*
G01*
X137801100Y-80318600D01*
X136951100Y-80318600D01*
X136951100Y-79568600D01*
X137801100Y-79568600D01*
G37*
G36*
X138001100Y-77318600D02*
G01*
X138001100Y-78218600D01*
X136651100Y-78218600D01*
X136651100Y-77318600D01*
X138001100Y-77318600D01*
G37*
G36*
X150036100Y-74973600D02*
G01*
X150036100Y-74073600D01*
X151386100Y-74073600D01*
X151386100Y-74973600D01*
X150036100Y-74973600D01*
G37*
G36*
X150236100Y-72723600D02*
G01*
X150236100Y-71973600D01*
X151086100Y-71973600D01*
X151086100Y-72723600D01*
X150236100Y-72723600D01*
G37*
G36*
X150236100Y-75873600D02*
G01*
X150236100Y-75123600D01*
X151086100Y-75123600D01*
X151086100Y-75873600D01*
X150236100Y-75873600D01*
G37*
D11*
X149986100Y-75023600D02*
X151386100Y-75023600D01*
X149986100Y-72823600D02*
X149986100Y-75023600D01*
X151386100Y-72823600D02*
X149986100Y-72823600D01*
X151386100Y-75023600D02*
X151386100Y-72823600D01*
D13*
X153696100Y-81948600D02*
X153696100Y-84948600D01*
X155296100Y-84948600D02*
X155296100Y-81948600D01*
X138200000Y-107675000D02*
X138200000Y-109675000D01*
X138200000Y-109675000D02*
X136700000Y-109675000D01*
X136700000Y-109675000D02*
X136700000Y-107675000D01*
X136700000Y-107675000D02*
X138200000Y-107675000D01*
X144200000Y-107675000D02*
X145700000Y-107675000D01*
X145700000Y-107675000D02*
X145700000Y-109675000D01*
X145700000Y-109675000D02*
X144200000Y-109675000D01*
X144200000Y-109675000D02*
X144200000Y-107675000D01*
D14*
X147446100Y-75223600D02*
X147546100Y-75223600D01*
X147546100Y-75223600D02*
X148746100Y-75223600D01*
X148746100Y-75223600D02*
X148846100Y-75223600D01*
X148846100Y-75223600D02*
X148846100Y-76023600D01*
X148846100Y-76023600D02*
X147446100Y-76023600D01*
X147446100Y-76023600D02*
X147446100Y-75223600D01*
X147446100Y-71823600D02*
X148846100Y-71823600D01*
X148846100Y-71823600D02*
X148846100Y-72623600D01*
X148846100Y-72623600D02*
X148746100Y-72623600D01*
X148746100Y-72623600D02*
X147546100Y-72623600D01*
X147546100Y-72623600D02*
X147446100Y-72623600D01*
X147446100Y-72623600D02*
X147446100Y-71823600D01*
X148746100Y-72623600D02*
X148746100Y-73023600D01*
X148746100Y-74823600D02*
X148746100Y-75223600D01*
X147546100Y-75223600D02*
X147546100Y-74823600D01*
X147546100Y-73023600D02*
X147546100Y-72623600D01*
D15*
X136564100Y-83118600D02*
X136564100Y-85048600D01*
X138138100Y-83118600D02*
X138138100Y-85048600D01*
D12*
G36*
X138202000Y-82381800D02*
G01*
X138202000Y-83131900D01*
X136502000Y-83131900D01*
X136502000Y-82381800D01*
X138202000Y-82381800D01*
G37*
G36*
X138200200Y-85035300D02*
G01*
X138200200Y-85785400D01*
X136500200Y-85785400D01*
X136500200Y-85035300D01*
X138200200Y-85035300D01*
G37*
D16*
X157848023Y-132142547D02*
X158537452Y-132142547D01*
X158192738Y-132142547D02*
X158192738Y-130936047D01*
X158307642Y-131108404D01*
X158422547Y-131223309D01*
X158537452Y-131280761D01*
X157101142Y-130936047D02*
X156986238Y-130936047D01*
X156871333Y-130993500D01*
X156813881Y-131050952D01*
X156756428Y-131165857D01*
X156698976Y-131395666D01*
X156698976Y-131682928D01*
X156756428Y-131912738D01*
X156813881Y-132027642D01*
X156871333Y-132085095D01*
X156986238Y-132142547D01*
X157101142Y-132142547D01*
X157216047Y-132085095D01*
X157273500Y-132027642D01*
X157330952Y-131912738D01*
X157388404Y-131682928D01*
X157388404Y-131395666D01*
X157330952Y-131165857D01*
X157273500Y-131050952D01*
X157216047Y-130993500D01*
X157101142Y-130936047D01*
X156181904Y-132142547D02*
X156181904Y-130936047D01*
X155492476Y-132142547D02*
X156009547Y-131453119D01*
X155492476Y-130936047D02*
X156181904Y-131625476D01*
D17*
X139614330Y-70820512D02*
X138842170Y-70820512D01*
X139393713Y-71077899D01*
X138842170Y-71335285D01*
X139614330Y-71335285D01*
X139209865Y-71960367D02*
X139246635Y-72070676D01*
X139283404Y-72107445D01*
X139356943Y-72144215D01*
X139467252Y-72144215D01*
X139540791Y-72107445D01*
X139577560Y-72070676D01*
X139614330Y-71997137D01*
X139614330Y-71702981D01*
X138842170Y-71702981D01*
X138842170Y-71960367D01*
X138878940Y-72033906D01*
X138915709Y-72070676D01*
X138989248Y-72107445D01*
X139062787Y-72107445D01*
X139136326Y-72070676D01*
X139173096Y-72033906D01*
X139209865Y-71960367D01*
X139209865Y-71702981D01*
X139614330Y-72916375D02*
X139246635Y-72658988D01*
X139614330Y-72475141D02*
X138842170Y-72475141D01*
X138842170Y-72769297D01*
X138878940Y-72842836D01*
X138915709Y-72879605D01*
X138989248Y-72916375D01*
X139099557Y-72916375D01*
X139173096Y-72879605D01*
X139209865Y-72842836D01*
X139246635Y-72769297D01*
X139246635Y-72475141D01*
X138842170Y-73394379D02*
X138842170Y-73467918D01*
X138878940Y-73541457D01*
X138915709Y-73578226D01*
X138989248Y-73614996D01*
X139136326Y-73651765D01*
X139320174Y-73651765D01*
X139467252Y-73614996D01*
X139540791Y-73578226D01*
X139577560Y-73541457D01*
X139614330Y-73467918D01*
X139614330Y-73394379D01*
X139577560Y-73320840D01*
X139540791Y-73284070D01*
X139467252Y-73247301D01*
X139320174Y-73210531D01*
X139136326Y-73210531D01*
X138989248Y-73247301D01*
X138915709Y-73284070D01*
X138878940Y-73320840D01*
X138842170Y-73394379D01*
X138842170Y-74350386D02*
X138842170Y-73982691D01*
X139209865Y-73945921D01*
X139173096Y-73982691D01*
X139136326Y-74056230D01*
X139136326Y-74240078D01*
X139173096Y-74313617D01*
X139209865Y-74350386D01*
X139283404Y-74387156D01*
X139467252Y-74387156D01*
X139540791Y-74350386D01*
X139577560Y-74313617D01*
X139614330Y-74240078D01*
X139614330Y-74056230D01*
X139577560Y-73982691D01*
X139540791Y-73945921D01*
X138915709Y-74681312D02*
X138878940Y-74718081D01*
X138842170Y-74791621D01*
X138842170Y-74975468D01*
X138878940Y-75049007D01*
X138915709Y-75085777D01*
X138989248Y-75122546D01*
X139062787Y-75122546D01*
X139173096Y-75085777D01*
X139614330Y-74644542D01*
X139614330Y-75122546D01*
X138842170Y-75600550D02*
X138842170Y-75674089D01*
X138878940Y-75747628D01*
X138915709Y-75784398D01*
X138989248Y-75821167D01*
X139136326Y-75857937D01*
X139320174Y-75857937D01*
X139467252Y-75821167D01*
X139540791Y-75784398D01*
X139577560Y-75747628D01*
X139614330Y-75674089D01*
X139614330Y-75600550D01*
X139577560Y-75527011D01*
X139540791Y-75490241D01*
X139467252Y-75453472D01*
X139320174Y-75416702D01*
X139136326Y-75416702D01*
X138989248Y-75453472D01*
X138915709Y-75490241D01*
X138878940Y-75527011D01*
X138842170Y-75600550D01*
X139614330Y-76556558D02*
X139614330Y-76188862D01*
X138842170Y-76188862D01*
X138842170Y-76703636D02*
X138842170Y-77144870D01*
X139614330Y-76924253D02*
X138842170Y-76924253D01*
X148349330Y-68575512D02*
X147577170Y-68575512D01*
X148128713Y-68832899D01*
X147577170Y-69090285D01*
X148349330Y-69090285D01*
X147944865Y-69715367D02*
X147981635Y-69825676D01*
X148018404Y-69862445D01*
X148091943Y-69899215D01*
X148202252Y-69899215D01*
X148275791Y-69862445D01*
X148312560Y-69825676D01*
X148349330Y-69752137D01*
X148349330Y-69457981D01*
X147577170Y-69457981D01*
X147577170Y-69715367D01*
X147613940Y-69788906D01*
X147650709Y-69825676D01*
X147724248Y-69862445D01*
X147797787Y-69862445D01*
X147871326Y-69825676D01*
X147908096Y-69788906D01*
X147944865Y-69715367D01*
X147944865Y-69457981D01*
X148349330Y-70671375D02*
X147981635Y-70413988D01*
X148349330Y-70230141D02*
X147577170Y-70230141D01*
X147577170Y-70524297D01*
X147613940Y-70597836D01*
X147650709Y-70634605D01*
X147724248Y-70671375D01*
X147834557Y-70671375D01*
X147908096Y-70634605D01*
X147944865Y-70597836D01*
X147981635Y-70524297D01*
X147981635Y-70230141D01*
X147577170Y-71149379D02*
X147577170Y-71222918D01*
X147613940Y-71296457D01*
X147650709Y-71333226D01*
X147724248Y-71369996D01*
X147871326Y-71406765D01*
X148055174Y-71406765D01*
X148202252Y-71369996D01*
X148275791Y-71333226D01*
X148312560Y-71296457D01*
X148349330Y-71222918D01*
X148349330Y-71149379D01*
X148312560Y-71075840D01*
X148275791Y-71039070D01*
X148202252Y-71002301D01*
X148055174Y-70965531D01*
X147871326Y-70965531D01*
X147724248Y-71002301D01*
X147650709Y-71039070D01*
X147613940Y-71075840D01*
X147577170Y-71149379D01*
X147577170Y-72105386D02*
X147577170Y-71737691D01*
X147944865Y-71700921D01*
X147908096Y-71737691D01*
X147871326Y-71811230D01*
X147871326Y-71995078D01*
X147908096Y-72068617D01*
X147944865Y-72105386D01*
X148018404Y-72142156D01*
X148202252Y-72142156D01*
X148275791Y-72105386D01*
X148312560Y-72068617D01*
X148349330Y-71995078D01*
X148349330Y-71811230D01*
X148312560Y-71737691D01*
X148275791Y-71700921D01*
X147650709Y-72436312D02*
X147613940Y-72473081D01*
X147577170Y-72546621D01*
X147577170Y-72730468D01*
X147613940Y-72804007D01*
X147650709Y-72840777D01*
X147724248Y-72877546D01*
X147797787Y-72877546D01*
X147908096Y-72840777D01*
X148349330Y-72399542D01*
X148349330Y-72877546D01*
X147577170Y-73355550D02*
X147577170Y-73429089D01*
X147613940Y-73502628D01*
X147650709Y-73539398D01*
X147724248Y-73576167D01*
X147871326Y-73612937D01*
X148055174Y-73612937D01*
X148202252Y-73576167D01*
X148275791Y-73539398D01*
X148312560Y-73502628D01*
X148349330Y-73429089D01*
X148349330Y-73355550D01*
X148312560Y-73282011D01*
X148275791Y-73245241D01*
X148202252Y-73208472D01*
X148055174Y-73171702D01*
X147871326Y-73171702D01*
X147724248Y-73208472D01*
X147650709Y-73245241D01*
X147613940Y-73282011D01*
X147577170Y-73355550D01*
X148349330Y-74311558D02*
X148349330Y-73943862D01*
X147577170Y-73943862D01*
X147577170Y-74458636D02*
X147577170Y-74899870D01*
X148349330Y-74679253D02*
X147577170Y-74679253D01*
D16*
X150042547Y-130881904D02*
X150042547Y-130192476D01*
X150042547Y-130537190D02*
X148836047Y-130537190D01*
X149008404Y-130422285D01*
X149123309Y-130307381D01*
X149180761Y-130192476D01*
X148836047Y-131628785D02*
X148836047Y-131743690D01*
X148893500Y-131858595D01*
X148950952Y-131916047D01*
X149065857Y-131973500D01*
X149295666Y-132030952D01*
X149582928Y-132030952D01*
X149812738Y-131973500D01*
X149927642Y-131916047D01*
X149985095Y-131858595D01*
X150042547Y-131743690D01*
X150042547Y-131628785D01*
X149985095Y-131513881D01*
X149927642Y-131456428D01*
X149812738Y-131398976D01*
X149582928Y-131341523D01*
X149295666Y-131341523D01*
X149065857Y-131398976D01*
X148950952Y-131456428D01*
X148893500Y-131513881D01*
X148836047Y-131628785D01*
X150042547Y-132548023D02*
X148836047Y-132548023D01*
X150042547Y-133237452D02*
X149353119Y-132720381D01*
X148836047Y-133237452D02*
X149525476Y-132548023D01*
X150100952Y-128492476D02*
X150043500Y-128549928D01*
X149986047Y-128664833D01*
X149986047Y-128952095D01*
X150043500Y-129067000D01*
X150100952Y-129124452D01*
X150215857Y-129181904D01*
X150330761Y-129181904D01*
X150503119Y-129124452D01*
X151192547Y-128435023D01*
X151192547Y-129181904D01*
X150100952Y-129641523D02*
X150043500Y-129698976D01*
X149986047Y-129813881D01*
X149986047Y-130101142D01*
X150043500Y-130216047D01*
X150100952Y-130273500D01*
X150215857Y-130330952D01*
X150330761Y-130330952D01*
X150503119Y-130273500D01*
X151192547Y-129584071D01*
X151192547Y-130330952D01*
X151192547Y-131537452D02*
X150618023Y-131135285D01*
X151192547Y-130848023D02*
X149986047Y-130848023D01*
X149986047Y-131307642D01*
X150043500Y-131422547D01*
X150100952Y-131480000D01*
X150215857Y-131537452D01*
X150388214Y-131537452D01*
X150503119Y-131480000D01*
X150560571Y-131422547D01*
X150618023Y-131307642D01*
X150618023Y-130848023D01*
X145650952Y-127042476D02*
X145593500Y-127099928D01*
X145536047Y-127214833D01*
X145536047Y-127502095D01*
X145593500Y-127617000D01*
X145650952Y-127674452D01*
X145765857Y-127731904D01*
X145880761Y-127731904D01*
X146053119Y-127674452D01*
X146742547Y-126985023D01*
X146742547Y-127731904D01*
X145650952Y-128191523D02*
X145593500Y-128248976D01*
X145536047Y-128363881D01*
X145536047Y-128651142D01*
X145593500Y-128766047D01*
X145650952Y-128823500D01*
X145765857Y-128880952D01*
X145880761Y-128880952D01*
X146053119Y-128823500D01*
X146742547Y-128134071D01*
X146742547Y-128880952D01*
X146742547Y-130087452D02*
X146168023Y-129685285D01*
X146742547Y-129398023D02*
X145536047Y-129398023D01*
X145536047Y-129857642D01*
X145593500Y-129972547D01*
X145650952Y-130030000D01*
X145765857Y-130087452D01*
X145938214Y-130087452D01*
X146053119Y-130030000D01*
X146110571Y-129972547D01*
X146168023Y-129857642D01*
X146168023Y-129398023D01*
X147550952Y-128492476D02*
X147493500Y-128549928D01*
X147436047Y-128664833D01*
X147436047Y-128952095D01*
X147493500Y-129067000D01*
X147550952Y-129124452D01*
X147665857Y-129181904D01*
X147780761Y-129181904D01*
X147953119Y-129124452D01*
X148642547Y-128435023D01*
X148642547Y-129181904D01*
X147550952Y-129641523D02*
X147493500Y-129698976D01*
X147436047Y-129813881D01*
X147436047Y-130101142D01*
X147493500Y-130216047D01*
X147550952Y-130273500D01*
X147665857Y-130330952D01*
X147780761Y-130330952D01*
X147953119Y-130273500D01*
X148642547Y-129584071D01*
X148642547Y-130330952D01*
X148642547Y-131537452D02*
X148068023Y-131135285D01*
X148642547Y-130848023D02*
X147436047Y-130848023D01*
X147436047Y-131307642D01*
X147493500Y-131422547D01*
X147550952Y-131480000D01*
X147665857Y-131537452D01*
X147838214Y-131537452D01*
X147953119Y-131480000D01*
X148010571Y-131422547D01*
X148068023Y-131307642D01*
X148068023Y-130848023D01*
D10*
X141633631Y-129584588D02*
X141062202Y-129584588D01*
X141347916Y-130584588D02*
X141347916Y-129584588D01*
X140728869Y-130584588D02*
X140728869Y-129584588D01*
X140347916Y-129584588D01*
X140252678Y-129632208D01*
X140205059Y-129679827D01*
X140157440Y-129775065D01*
X140157440Y-129917922D01*
X140205059Y-130013160D01*
X140252678Y-130060779D01*
X140347916Y-130108398D01*
X140728869Y-130108398D01*
X139776488Y-130536969D02*
X139633631Y-130584588D01*
X139395535Y-130584588D01*
X139300297Y-130536969D01*
X139252678Y-130489350D01*
X139205059Y-130394112D01*
X139205059Y-130298874D01*
X139252678Y-130203636D01*
X139300297Y-130156017D01*
X139395535Y-130108398D01*
X139586012Y-130060779D01*
X139681250Y-130013160D01*
X139728869Y-129965541D01*
X139776488Y-129870303D01*
X139776488Y-129775065D01*
X139728869Y-129679827D01*
X139681250Y-129632208D01*
X139586012Y-129584588D01*
X139347916Y-129584588D01*
X139205059Y-129632208D01*
X138824107Y-129679827D02*
X138776488Y-129632208D01*
X138681250Y-129584588D01*
X138443154Y-129584588D01*
X138347916Y-129632208D01*
X138300297Y-129679827D01*
X138252678Y-129775065D01*
X138252678Y-129870303D01*
X138300297Y-130013160D01*
X138871726Y-130584588D01*
X138252678Y-130584588D01*
X137871726Y-129679827D02*
X137824107Y-129632208D01*
X137728869Y-129584588D01*
X137490774Y-129584588D01*
X137395535Y-129632208D01*
X137347916Y-129679827D01*
X137300297Y-129775065D01*
X137300297Y-129870303D01*
X137347916Y-130013160D01*
X137919345Y-130584588D01*
X137300297Y-130584588D01*
X136824107Y-130584588D02*
X136633631Y-130584588D01*
X136538393Y-130536969D01*
X136490774Y-130489350D01*
X136395535Y-130346493D01*
X136347916Y-130156017D01*
X136347916Y-129775065D01*
X136395535Y-129679827D01*
X136443154Y-129632208D01*
X136538393Y-129584588D01*
X136728869Y-129584588D01*
X136824107Y-129632208D01*
X136871726Y-129679827D01*
X136919345Y-129775065D01*
X136919345Y-130013160D01*
X136871726Y-130108398D01*
X136824107Y-130156017D01*
X136728869Y-130203636D01*
X136538393Y-130203636D01*
X136443154Y-130156017D01*
X136395535Y-130108398D01*
X136347916Y-130013160D01*
X135395535Y-130584588D02*
X135966964Y-130584588D01*
X135681250Y-130584588D02*
X135681250Y-129584588D01*
X135776488Y-129727446D01*
X135871726Y-129822684D01*
X135966964Y-129870303D01*
X134919345Y-130584588D02*
X134728869Y-130584588D01*
X134633631Y-130536969D01*
X134586012Y-130489350D01*
X134490774Y-130346493D01*
X134443154Y-130156017D01*
X134443154Y-129775065D01*
X134490774Y-129679827D01*
X134538393Y-129632208D01*
X134633631Y-129584588D01*
X134824107Y-129584588D01*
X134919345Y-129632208D01*
X134966964Y-129679827D01*
X135014583Y-129775065D01*
X135014583Y-130013160D01*
X134966964Y-130108398D01*
X134919345Y-130156017D01*
X134824107Y-130203636D01*
X134633631Y-130203636D01*
X134538393Y-130156017D01*
X134490774Y-130108398D01*
X134443154Y-130013160D01*
D17*
X163613425Y-85639670D02*
X163098652Y-86411830D01*
X163098652Y-85639670D02*
X163613425Y-86411830D01*
X162363261Y-86338291D02*
X162400031Y-86375060D01*
X162510339Y-86411830D01*
X162583878Y-86411830D01*
X162694187Y-86375060D01*
X162767726Y-86301521D01*
X162804496Y-86227982D01*
X162841265Y-86080904D01*
X162841265Y-85970596D01*
X162804496Y-85823518D01*
X162767726Y-85749979D01*
X162694187Y-85676440D01*
X162583878Y-85639670D01*
X162510339Y-85639670D01*
X162400031Y-85676440D01*
X162363261Y-85713209D01*
X161701410Y-85639670D02*
X161848488Y-85639670D01*
X161922027Y-85676440D01*
X161958797Y-85713209D01*
X162032336Y-85823518D01*
X162069105Y-85970596D01*
X162069105Y-86264752D01*
X162032336Y-86338291D01*
X161995566Y-86375060D01*
X161922027Y-86411830D01*
X161774949Y-86411830D01*
X161701410Y-86375060D01*
X161664640Y-86338291D01*
X161627871Y-86264752D01*
X161627871Y-86080904D01*
X161664640Y-86007365D01*
X161701410Y-85970596D01*
X161774949Y-85933826D01*
X161922027Y-85933826D01*
X161995566Y-85970596D01*
X162032336Y-86007365D01*
X162069105Y-86080904D01*
X161333715Y-85713209D02*
X161296945Y-85676440D01*
X161223406Y-85639670D01*
X161039558Y-85639670D01*
X160966019Y-85676440D01*
X160929250Y-85713209D01*
X160892480Y-85786748D01*
X160892480Y-85860287D01*
X160929250Y-85970596D01*
X161370484Y-86411830D01*
X160892480Y-86411830D01*
X160598324Y-85713209D02*
X160561555Y-85676440D01*
X160488016Y-85639670D01*
X160304168Y-85639670D01*
X160230629Y-85676440D01*
X160193859Y-85713209D01*
X160157090Y-85786748D01*
X160157090Y-85860287D01*
X160193859Y-85970596D01*
X160635094Y-86411830D01*
X160157090Y-86411830D01*
X159679086Y-85639670D02*
X159605547Y-85639670D01*
X159532008Y-85676440D01*
X159495238Y-85713209D01*
X159458469Y-85786748D01*
X159421699Y-85933826D01*
X159421699Y-86117674D01*
X159458469Y-86264752D01*
X159495238Y-86338291D01*
X159532008Y-86375060D01*
X159605547Y-86411830D01*
X159679086Y-86411830D01*
X159752625Y-86375060D01*
X159789395Y-86338291D01*
X159826164Y-86264752D01*
X159862934Y-86117674D01*
X159862934Y-85933826D01*
X159826164Y-85786748D01*
X159789395Y-85713209D01*
X159752625Y-85676440D01*
X159679086Y-85639670D01*
X158833387Y-86007365D02*
X158723078Y-86044135D01*
X158686309Y-86080904D01*
X158649539Y-86154443D01*
X158649539Y-86264752D01*
X158686309Y-86338291D01*
X158723078Y-86375060D01*
X158796618Y-86411830D01*
X159090774Y-86411830D01*
X159090774Y-85639670D01*
X158833387Y-85639670D01*
X158759848Y-85676440D01*
X158723078Y-85713209D01*
X158686309Y-85786748D01*
X158686309Y-85860287D01*
X158723078Y-85933826D01*
X158759848Y-85970596D01*
X158833387Y-86007365D01*
X159090774Y-86007365D01*
X158392153Y-85639670D02*
X157914149Y-85639670D01*
X158171536Y-85933826D01*
X158061227Y-85933826D01*
X157987688Y-85970596D01*
X157950918Y-86007365D01*
X157914149Y-86080904D01*
X157914149Y-86264752D01*
X157950918Y-86338291D01*
X157987688Y-86375060D01*
X158061227Y-86411830D01*
X158281844Y-86411830D01*
X158355383Y-86375060D01*
X158392153Y-86338291D01*
X157656762Y-85639670D02*
X157178758Y-85639670D01*
X157436145Y-85933826D01*
X157325837Y-85933826D01*
X157252298Y-85970596D01*
X157215528Y-86007365D01*
X157178758Y-86080904D01*
X157178758Y-86264752D01*
X157215528Y-86338291D01*
X157252298Y-86375060D01*
X157325837Y-86411830D01*
X157546454Y-86411830D01*
X157619993Y-86375060D01*
X157656762Y-86338291D01*
X156443368Y-86411830D02*
X156884602Y-86411830D01*
X156663985Y-86411830D02*
X156663985Y-85639670D01*
X156737524Y-85749979D01*
X156811063Y-85823518D01*
X156884602Y-85860287D01*
X149000681Y-111638230D02*
X149000681Y-110866070D01*
X148706525Y-110866070D01*
X148632986Y-110902840D01*
X148596217Y-110939609D01*
X148559447Y-111013148D01*
X148559447Y-111123457D01*
X148596217Y-111196996D01*
X148632986Y-111233765D01*
X148706525Y-111270535D01*
X149000681Y-111270535D01*
X148228521Y-111638230D02*
X148228521Y-110866070D01*
X147787287Y-111638230D02*
X148118213Y-111196996D01*
X147787287Y-110866070D02*
X148228521Y-111307304D01*
X147456361Y-111638230D02*
X147456361Y-110866070D01*
X147198975Y-111417613D01*
X146941588Y-110866070D01*
X146941588Y-111638230D01*
X146132658Y-111564691D02*
X146169428Y-111601460D01*
X146279737Y-111638230D01*
X146353276Y-111638230D01*
X146463584Y-111601460D01*
X146537123Y-111527921D01*
X146573893Y-111454382D01*
X146610662Y-111307304D01*
X146610662Y-111196996D01*
X146573893Y-111049918D01*
X146537123Y-110976379D01*
X146463584Y-110902840D01*
X146353276Y-110866070D01*
X146279737Y-110866070D01*
X146169428Y-110902840D01*
X146132658Y-110939609D01*
X145838502Y-111601460D02*
X145728194Y-111638230D01*
X145544346Y-111638230D01*
X145470807Y-111601460D01*
X145434038Y-111564691D01*
X145397268Y-111491152D01*
X145397268Y-111417613D01*
X145434038Y-111344074D01*
X145470807Y-111307304D01*
X145544346Y-111270535D01*
X145691424Y-111233765D01*
X145764963Y-111196996D01*
X145801733Y-111160226D01*
X145838502Y-111086687D01*
X145838502Y-111013148D01*
X145801733Y-110939609D01*
X145764963Y-110902840D01*
X145691424Y-110866070D01*
X145507577Y-110866070D01*
X145397268Y-110902840D01*
D18*
X149476047Y-92059320D02*
X149462258Y-92059320D01*
X149469153Y-92083450D02*
X149469153Y-92059320D01*
X149454215Y-92083450D02*
X149454215Y-92059320D01*
X149445023Y-92059320D01*
X149442725Y-92060470D01*
X149441575Y-92061619D01*
X149440426Y-92063917D01*
X149440426Y-92067364D01*
X149441575Y-92069662D01*
X149442725Y-92070811D01*
X149445023Y-92071960D01*
X149454215Y-92071960D01*
X149433532Y-92059320D02*
X149419744Y-92059320D01*
X149426638Y-92083450D02*
X149426638Y-92059320D01*
X149411700Y-92083450D02*
X149411700Y-92059320D01*
X149402508Y-92059320D01*
X149400210Y-92060470D01*
X149399061Y-92061619D01*
X149397912Y-92063917D01*
X149397912Y-92067364D01*
X149399061Y-92069662D01*
X149400210Y-92070811D01*
X149402508Y-92071960D01*
X149411700Y-92071960D01*
X149382974Y-92059320D02*
X149380676Y-92059320D01*
X149378378Y-92060470D01*
X149377229Y-92061619D01*
X149376080Y-92063917D01*
X149374931Y-92068513D01*
X149374931Y-92074258D01*
X149376080Y-92078854D01*
X149377229Y-92081152D01*
X149378378Y-92082301D01*
X149380676Y-92083450D01*
X149382974Y-92083450D01*
X149385272Y-92082301D01*
X149386421Y-92081152D01*
X149387570Y-92078854D01*
X149388719Y-92074258D01*
X149388719Y-92068513D01*
X149387570Y-92063917D01*
X149386421Y-92061619D01*
X149385272Y-92060470D01*
X149382974Y-92059320D01*
X149361142Y-92069662D02*
X149363440Y-92068513D01*
X149364589Y-92067364D01*
X149365738Y-92065066D01*
X149365738Y-92063917D01*
X149364589Y-92061619D01*
X149363440Y-92060470D01*
X149361142Y-92059320D01*
X149356546Y-92059320D01*
X149354248Y-92060470D01*
X149353099Y-92061619D01*
X149351950Y-92063917D01*
X149351950Y-92065066D01*
X149353099Y-92067364D01*
X149354248Y-92068513D01*
X149356546Y-92069662D01*
X149361142Y-92069662D01*
X149363440Y-92070811D01*
X149364589Y-92071960D01*
X149365738Y-92074258D01*
X149365738Y-92078854D01*
X149364589Y-92081152D01*
X149363440Y-92082301D01*
X149361142Y-92083450D01*
X149356546Y-92083450D01*
X149354248Y-92082301D01*
X149353099Y-92081152D01*
X149351950Y-92078854D01*
X149351950Y-92074258D01*
X149353099Y-92071960D01*
X149354248Y-92070811D01*
X149356546Y-92069662D01*
X149327820Y-92083450D02*
X149335863Y-92071960D01*
X149341608Y-92083450D02*
X149341608Y-92059320D01*
X149332416Y-92059320D01*
X149330118Y-92060470D01*
X149328969Y-92061619D01*
X149327820Y-92063917D01*
X149327820Y-92067364D01*
X149328969Y-92069662D01*
X149330118Y-92070811D01*
X149332416Y-92071960D01*
X149341608Y-92071960D01*
X156577447Y-91855720D02*
X156563658Y-91855720D01*
X156570553Y-91879850D02*
X156570553Y-91855720D01*
X156555615Y-91879850D02*
X156555615Y-91855720D01*
X156546423Y-91855720D01*
X156544125Y-91856870D01*
X156542975Y-91858019D01*
X156541826Y-91860317D01*
X156541826Y-91863764D01*
X156542975Y-91866062D01*
X156544125Y-91867211D01*
X156546423Y-91868360D01*
X156555615Y-91868360D01*
X156534932Y-91855720D02*
X156521144Y-91855720D01*
X156528038Y-91879850D02*
X156528038Y-91855720D01*
X156513100Y-91879850D02*
X156513100Y-91855720D01*
X156503908Y-91855720D01*
X156501610Y-91856870D01*
X156500461Y-91858019D01*
X156499312Y-91860317D01*
X156499312Y-91863764D01*
X156500461Y-91866062D01*
X156501610Y-91867211D01*
X156503908Y-91868360D01*
X156513100Y-91868360D01*
X156484374Y-91855720D02*
X156482076Y-91855720D01*
X156479778Y-91856870D01*
X156478629Y-91858019D01*
X156477480Y-91860317D01*
X156476331Y-91864913D01*
X156476331Y-91870658D01*
X156477480Y-91875254D01*
X156478629Y-91877552D01*
X156479778Y-91878701D01*
X156482076Y-91879850D01*
X156484374Y-91879850D01*
X156486672Y-91878701D01*
X156487821Y-91877552D01*
X156488970Y-91875254D01*
X156490119Y-91870658D01*
X156490119Y-91864913D01*
X156488970Y-91860317D01*
X156487821Y-91858019D01*
X156486672Y-91856870D01*
X156484374Y-91855720D01*
X156462542Y-91866062D02*
X156464840Y-91864913D01*
X156465989Y-91863764D01*
X156467138Y-91861466D01*
X156467138Y-91860317D01*
X156465989Y-91858019D01*
X156464840Y-91856870D01*
X156462542Y-91855720D01*
X156457946Y-91855720D01*
X156455648Y-91856870D01*
X156454499Y-91858019D01*
X156453350Y-91860317D01*
X156453350Y-91861466D01*
X156454499Y-91863764D01*
X156455648Y-91864913D01*
X156457946Y-91866062D01*
X156462542Y-91866062D01*
X156464840Y-91867211D01*
X156465989Y-91868360D01*
X156467138Y-91870658D01*
X156467138Y-91875254D01*
X156465989Y-91877552D01*
X156464840Y-91878701D01*
X156462542Y-91879850D01*
X156457946Y-91879850D01*
X156455648Y-91878701D01*
X156454499Y-91877552D01*
X156453350Y-91875254D01*
X156453350Y-91870658D01*
X156454499Y-91868360D01*
X156455648Y-91867211D01*
X156457946Y-91866062D01*
X156429220Y-91879850D02*
X156437263Y-91868360D01*
X156443008Y-91879850D02*
X156443008Y-91855720D01*
X156433816Y-91855720D01*
X156431518Y-91856870D01*
X156430369Y-91858019D01*
X156429220Y-91860317D01*
X156429220Y-91863764D01*
X156430369Y-91866062D01*
X156431518Y-91867211D01*
X156433816Y-91868360D01*
X156443008Y-91868360D01*
D16*
X155492928Y-89058214D02*
X155492928Y-89862547D01*
X155780190Y-88598595D02*
X156067452Y-89460380D01*
X155320571Y-89460380D01*
X154860952Y-89862547D02*
X154860952Y-88656047D01*
X154746047Y-89402928D02*
X154401333Y-89862547D01*
X154401333Y-89058214D02*
X154860952Y-89517833D01*
X153999166Y-88656047D02*
X153194833Y-88656047D01*
X153711904Y-89862547D01*
X137293647Y-94590576D02*
X137293647Y-93901147D01*
X137293647Y-94245861D02*
X136087147Y-94245861D01*
X136259504Y-94130957D01*
X136374409Y-94016052D01*
X136431861Y-93901147D01*
X136087147Y-95337457D02*
X136087147Y-95452361D01*
X136144600Y-95567266D01*
X136202052Y-95624718D01*
X136316957Y-95682171D01*
X136546766Y-95739623D01*
X136834028Y-95739623D01*
X137063838Y-95682171D01*
X137178742Y-95624718D01*
X137236195Y-95567266D01*
X137293647Y-95452361D01*
X137293647Y-95337457D01*
X137236195Y-95222552D01*
X137178742Y-95165099D01*
X137063838Y-95107647D01*
X136834028Y-95050195D01*
X136546766Y-95050195D01*
X136316957Y-95107647D01*
X136202052Y-95165099D01*
X136144600Y-95222552D01*
X136087147Y-95337457D01*
X137293647Y-96256695D02*
X136087147Y-96256695D01*
X136948933Y-96658861D01*
X136087147Y-97061028D01*
X137293647Y-97061028D01*
X136489314Y-90038242D02*
X137293647Y-90038242D01*
X136029695Y-89750981D02*
X136891480Y-89463719D01*
X136891480Y-90210600D01*
X137293647Y-90670219D02*
X136087147Y-90670219D01*
X136948933Y-91072385D01*
X136087147Y-91474552D01*
X137293647Y-91474552D01*
X136087147Y-91934171D02*
X136087147Y-92738504D01*
X137293647Y-92221433D01*
X147453647Y-70471171D02*
X146247147Y-70471171D01*
X147453647Y-71160600D01*
X146247147Y-71160600D01*
X146247147Y-71562766D02*
X146247147Y-72252195D01*
X147453647Y-71907481D02*
X146247147Y-71907481D01*
X147338742Y-73343790D02*
X147396195Y-73286338D01*
X147453647Y-73113981D01*
X147453647Y-72999076D01*
X147396195Y-72826719D01*
X147281290Y-72711814D01*
X147166385Y-72654362D01*
X146936576Y-72596909D01*
X146764219Y-72596909D01*
X146534409Y-72654362D01*
X146419504Y-72711814D01*
X146304600Y-72826719D01*
X146247147Y-72999076D01*
X146247147Y-73113981D01*
X146304600Y-73286338D01*
X146362052Y-73343790D01*
X147453647Y-75412076D02*
X147453647Y-74722647D01*
X147453647Y-75067362D02*
X146247147Y-75067362D01*
X146419504Y-74952457D01*
X146534409Y-74837552D01*
X146591861Y-74722647D01*
X146247147Y-76158957D02*
X146247147Y-76273862D01*
X146304600Y-76388766D01*
X146362052Y-76446219D01*
X146476957Y-76503671D01*
X146706766Y-76561123D01*
X146994028Y-76561123D01*
X147223838Y-76503671D01*
X147338742Y-76446219D01*
X147396195Y-76388766D01*
X147453647Y-76273862D01*
X147453647Y-76158957D01*
X147396195Y-76044052D01*
X147338742Y-75986600D01*
X147223838Y-75929147D01*
X146994028Y-75871695D01*
X146706766Y-75871695D01*
X146476957Y-75929147D01*
X146362052Y-75986600D01*
X146304600Y-76044052D01*
X146247147Y-76158957D01*
X146247147Y-76963290D02*
X146247147Y-77710171D01*
X146706766Y-77308004D01*
X146706766Y-77480362D01*
X146764219Y-77595266D01*
X146821671Y-77652719D01*
X146936576Y-77710171D01*
X147223838Y-77710171D01*
X147338742Y-77652719D01*
X147396195Y-77595266D01*
X147453647Y-77480362D01*
X147453647Y-77135647D01*
X147396195Y-77020742D01*
X147338742Y-76963290D01*
X147108933Y-78169790D02*
X147108933Y-78744314D01*
X147453647Y-78054885D02*
X146247147Y-78457052D01*
X147453647Y-78859219D01*
X146247147Y-79089028D02*
X146247147Y-79778457D01*
X147453647Y-79433742D02*
X146247147Y-79433742D01*
X143469028Y-77104647D02*
X143698838Y-77104647D01*
X143813742Y-77162100D01*
X143871195Y-77219552D01*
X143986100Y-77391909D01*
X144043552Y-77621719D01*
X144043552Y-78081338D01*
X143986100Y-78196242D01*
X143928647Y-78253695D01*
X143813742Y-78311147D01*
X143583933Y-78311147D01*
X143469028Y-78253695D01*
X143411576Y-78196242D01*
X143354123Y-78081338D01*
X143354123Y-77794076D01*
X143411576Y-77679171D01*
X143469028Y-77621719D01*
X143583933Y-77564266D01*
X143813742Y-77564266D01*
X143928647Y-77621719D01*
X143986100Y-77679171D01*
X144043552Y-77794076D01*
X142664695Y-77621719D02*
X142779600Y-77564266D01*
X142837052Y-77506814D01*
X142894504Y-77391909D01*
X142894504Y-77334457D01*
X142837052Y-77219552D01*
X142779600Y-77162100D01*
X142664695Y-77104647D01*
X142434885Y-77104647D01*
X142319981Y-77162100D01*
X142262528Y-77219552D01*
X142205076Y-77334457D01*
X142205076Y-77391909D01*
X142262528Y-77506814D01*
X142319981Y-77564266D01*
X142434885Y-77621719D01*
X142664695Y-77621719D01*
X142779600Y-77679171D01*
X142837052Y-77736623D01*
X142894504Y-77851528D01*
X142894504Y-78081338D01*
X142837052Y-78196242D01*
X142779600Y-78253695D01*
X142664695Y-78311147D01*
X142434885Y-78311147D01*
X142319981Y-78253695D01*
X142262528Y-78196242D01*
X142205076Y-78081338D01*
X142205076Y-77851528D01*
X142262528Y-77736623D01*
X142319981Y-77679171D01*
X142434885Y-77621719D01*
X141458195Y-77104647D02*
X141343290Y-77104647D01*
X141228385Y-77162100D01*
X141170933Y-77219552D01*
X141113481Y-77334457D01*
X141056028Y-77564266D01*
X141056028Y-77851528D01*
X141113481Y-78081338D01*
X141170933Y-78196242D01*
X141228385Y-78253695D01*
X141343290Y-78311147D01*
X141458195Y-78311147D01*
X141573100Y-78253695D01*
X141630552Y-78196242D01*
X141688004Y-78081338D01*
X141745457Y-77851528D01*
X141745457Y-77564266D01*
X141688004Y-77334457D01*
X141630552Y-77219552D01*
X141573100Y-77162100D01*
X141458195Y-77104647D01*
X139849528Y-78311147D02*
X140251695Y-77736623D01*
X140538957Y-78311147D02*
X140538957Y-77104647D01*
X140079338Y-77104647D01*
X139964433Y-77162100D01*
X139906981Y-77219552D01*
X139849528Y-77334457D01*
X139849528Y-77506814D01*
X139906981Y-77621719D01*
X139964433Y-77679171D01*
X140079338Y-77736623D01*
X140538957Y-77736623D01*
X137639123Y-78311147D02*
X138328552Y-78311147D01*
X137983838Y-78311147D02*
X137983838Y-77104647D01*
X138098742Y-77277004D01*
X138213647Y-77391909D01*
X138328552Y-77449361D01*
X137122052Y-78311147D02*
X137122052Y-77104647D01*
X137007147Y-77851528D02*
X136662433Y-78311147D01*
X136662433Y-77506814D02*
X137122052Y-77966433D01*
X135513385Y-78311147D02*
X136202814Y-78311147D01*
X135858100Y-78311147D02*
X135858100Y-77104647D01*
X135973004Y-77277004D01*
X136087909Y-77391909D01*
X136202814Y-77449361D01*
X134823957Y-77621719D02*
X134938862Y-77564266D01*
X134996314Y-77506814D01*
X135053766Y-77391909D01*
X135053766Y-77334457D01*
X134996314Y-77219552D01*
X134938862Y-77162100D01*
X134823957Y-77104647D01*
X134594147Y-77104647D01*
X134479242Y-77162100D01*
X134421790Y-77219552D01*
X134364338Y-77334457D01*
X134364338Y-77391909D01*
X134421790Y-77506814D01*
X134479242Y-77564266D01*
X134594147Y-77621719D01*
X134823957Y-77621719D01*
X134938862Y-77679171D01*
X134996314Y-77736623D01*
X135053766Y-77851528D01*
X135053766Y-78081338D01*
X134996314Y-78196242D01*
X134938862Y-78253695D01*
X134823957Y-78311147D01*
X134594147Y-78311147D01*
X134479242Y-78253695D01*
X134421790Y-78196242D01*
X134364338Y-78081338D01*
X134364338Y-77851528D01*
X134421790Y-77736623D01*
X134479242Y-77679171D01*
X134594147Y-77621719D01*
X141851290Y-77104647D02*
X141736385Y-77104647D01*
X141621481Y-77162100D01*
X141564028Y-77219552D01*
X141506576Y-77334457D01*
X141449123Y-77564266D01*
X141449123Y-77851528D01*
X141506576Y-78081338D01*
X141564028Y-78196242D01*
X141621481Y-78253695D01*
X141736385Y-78311147D01*
X141851290Y-78311147D01*
X141966195Y-78253695D01*
X142023647Y-78196242D01*
X142081100Y-78081338D01*
X142138552Y-77851528D01*
X142138552Y-77564266D01*
X142081100Y-77334457D01*
X142023647Y-77219552D01*
X141966195Y-77162100D01*
X141851290Y-77104647D01*
X140242623Y-78311147D02*
X140644790Y-77736623D01*
X140932052Y-78311147D02*
X140932052Y-77104647D01*
X140472433Y-77104647D01*
X140357528Y-77162100D01*
X140300076Y-77219552D01*
X140242623Y-77334457D01*
X140242623Y-77506814D01*
X140300076Y-77621719D01*
X140357528Y-77679171D01*
X140472433Y-77736623D01*
X140932052Y-77736623D01*
X151545695Y-63264814D02*
X151603147Y-63437171D01*
X151603147Y-63724433D01*
X151545695Y-63839338D01*
X151488242Y-63896790D01*
X151373338Y-63954242D01*
X151258433Y-63954242D01*
X151143528Y-63896790D01*
X151086076Y-63839338D01*
X151028623Y-63724433D01*
X150971171Y-63494623D01*
X150913719Y-63379719D01*
X150856266Y-63322266D01*
X150741361Y-63264814D01*
X150626457Y-63264814D01*
X150511552Y-63322266D01*
X150454100Y-63379719D01*
X150396647Y-63494623D01*
X150396647Y-63781885D01*
X150454100Y-63954242D01*
X151603147Y-64471314D02*
X150396647Y-64471314D01*
X151258433Y-64873481D01*
X150396647Y-65275647D01*
X151603147Y-65275647D01*
X151143528Y-65850171D02*
X151143528Y-66769409D01*
X151603147Y-67975909D02*
X151603147Y-67286481D01*
X151603147Y-67631195D02*
X150396647Y-67631195D01*
X150569004Y-67516290D01*
X150683909Y-67401385D01*
X150741361Y-67286481D01*
X150511552Y-68435528D02*
X150454100Y-68492981D01*
X150396647Y-68607885D01*
X150396647Y-68895147D01*
X150454100Y-69010052D01*
X150511552Y-69067504D01*
X150626457Y-69124957D01*
X150741361Y-69124957D01*
X150913719Y-69067504D01*
X151603147Y-68378076D01*
X151603147Y-69124957D01*
X150396647Y-69871838D02*
X150396647Y-69986742D01*
X150454100Y-70101647D01*
X150511552Y-70159100D01*
X150626457Y-70216552D01*
X150856266Y-70274004D01*
X151143528Y-70274004D01*
X151373338Y-70216552D01*
X151488242Y-70159100D01*
X151545695Y-70101647D01*
X151603147Y-69986742D01*
X151603147Y-69871838D01*
X151545695Y-69756933D01*
X151488242Y-69699481D01*
X151373338Y-69642028D01*
X151143528Y-69584576D01*
X150856266Y-69584576D01*
X150626457Y-69642028D01*
X150511552Y-69699481D01*
X150454100Y-69756933D01*
X150396647Y-69871838D01*
X150396647Y-71308147D02*
X150396647Y-71078338D01*
X150454100Y-70963433D01*
X150511552Y-70905981D01*
X150683909Y-70791076D01*
X150913719Y-70733623D01*
X151373338Y-70733623D01*
X151488242Y-70791076D01*
X151545695Y-70848528D01*
X151603147Y-70963433D01*
X151603147Y-71193242D01*
X151545695Y-71308147D01*
X151488242Y-71365600D01*
X151373338Y-71423052D01*
X151086076Y-71423052D01*
X150971171Y-71365600D01*
X150913719Y-71308147D01*
X150856266Y-71193242D01*
X150856266Y-70963433D01*
X150913719Y-70848528D01*
X150971171Y-70791076D01*
X151086076Y-70733623D01*
D17*
X162582609Y-90003961D02*
X163354769Y-90003961D01*
X163354769Y-89820114D01*
X163318000Y-89709805D01*
X163244460Y-89636266D01*
X163170921Y-89599497D01*
X163023843Y-89562727D01*
X162913535Y-89562727D01*
X162766457Y-89599497D01*
X162692918Y-89636266D01*
X162619379Y-89709805D01*
X162582609Y-89820114D01*
X162582609Y-90003961D01*
X162619379Y-89268571D02*
X162582609Y-89158262D01*
X162582609Y-88974415D01*
X162619379Y-88900876D01*
X162656148Y-88864106D01*
X162729687Y-88827337D01*
X162803226Y-88827337D01*
X162876765Y-88864106D01*
X162913535Y-88900876D01*
X162950304Y-88974415D01*
X162987074Y-89121493D01*
X163023843Y-89195032D01*
X163060613Y-89231801D01*
X163134152Y-89268571D01*
X163207691Y-89268571D01*
X163281230Y-89231801D01*
X163318000Y-89195032D01*
X163354769Y-89121493D01*
X163354769Y-88937645D01*
X163318000Y-88827337D01*
X162582609Y-88091946D02*
X162582609Y-88533181D01*
X162582609Y-88312563D02*
X163354769Y-88312563D01*
X163244460Y-88386102D01*
X163170921Y-88459641D01*
X163134152Y-88533181D01*
X163023843Y-87650712D02*
X163060613Y-87724251D01*
X163097382Y-87761021D01*
X163170921Y-87797790D01*
X163207691Y-87797790D01*
X163281230Y-87761021D01*
X163318000Y-87724251D01*
X163354769Y-87650712D01*
X163354769Y-87503634D01*
X163318000Y-87430095D01*
X163281230Y-87393325D01*
X163207691Y-87356556D01*
X163170921Y-87356556D01*
X163097382Y-87393325D01*
X163060613Y-87430095D01*
X163023843Y-87503634D01*
X163023843Y-87650712D01*
X162987074Y-87724251D01*
X162950304Y-87761021D01*
X162876765Y-87797790D01*
X162729687Y-87797790D01*
X162656148Y-87761021D01*
X162619379Y-87724251D01*
X162582609Y-87650712D01*
X162582609Y-87503634D01*
X162619379Y-87430095D01*
X162656148Y-87393325D01*
X162729687Y-87356556D01*
X162876765Y-87356556D01*
X162950304Y-87393325D01*
X162987074Y-87430095D01*
X163023843Y-87503634D01*
X162987074Y-86768243D02*
X162950304Y-86657935D01*
X162913535Y-86621165D01*
X162839996Y-86584396D01*
X162729687Y-86584396D01*
X162656148Y-86621165D01*
X162619379Y-86657935D01*
X162582609Y-86731474D01*
X162582609Y-87025630D01*
X163354769Y-87025630D01*
X163354769Y-86768243D01*
X163318000Y-86694704D01*
X163281230Y-86657935D01*
X163207691Y-86621165D01*
X163134152Y-86621165D01*
X163060613Y-86657935D01*
X163023843Y-86694704D01*
X162987074Y-86768243D01*
X162987074Y-87025630D01*
X163281230Y-86290240D02*
X163318000Y-86253470D01*
X163354769Y-86179931D01*
X163354769Y-85996083D01*
X163318000Y-85922544D01*
X163281230Y-85885775D01*
X163207691Y-85849005D01*
X163134152Y-85849005D01*
X163023843Y-85885775D01*
X162582609Y-86327009D01*
X162582609Y-85849005D01*
X163354769Y-85371001D02*
X163354769Y-85297462D01*
X163318000Y-85223923D01*
X163281230Y-85187154D01*
X163207691Y-85150384D01*
X163060613Y-85113615D01*
X162876765Y-85113615D01*
X162729687Y-85150384D01*
X162656148Y-85187154D01*
X162619379Y-85223923D01*
X162582609Y-85297462D01*
X162582609Y-85371001D01*
X162619379Y-85444541D01*
X162656148Y-85481310D01*
X162729687Y-85518080D01*
X162876765Y-85554849D01*
X163060613Y-85554849D01*
X163207691Y-85518080D01*
X163281230Y-85481310D01*
X163318000Y-85444541D01*
X163354769Y-85371001D01*
X163354769Y-84782689D02*
X162729687Y-84782689D01*
X162656148Y-84745920D01*
X162619379Y-84709150D01*
X162582609Y-84635611D01*
X162582609Y-84488533D01*
X162619379Y-84414994D01*
X162656148Y-84378224D01*
X162729687Y-84341455D01*
X163354769Y-84341455D01*
X146607731Y-124358613D02*
X146240036Y-124358613D01*
X146681270Y-124579230D02*
X146423883Y-123807070D01*
X146166497Y-124579230D01*
X145909110Y-124579230D02*
X145909110Y-123807070D01*
X145725262Y-123807070D01*
X145614954Y-123843840D01*
X145541415Y-123917379D01*
X145504645Y-123990918D01*
X145467876Y-124137996D01*
X145467876Y-124248304D01*
X145504645Y-124395382D01*
X145541415Y-124468921D01*
X145614954Y-124542460D01*
X145725262Y-124579230D01*
X145909110Y-124579230D01*
X145173720Y-124542460D02*
X145063411Y-124579230D01*
X144879563Y-124579230D01*
X144806024Y-124542460D01*
X144769255Y-124505691D01*
X144732485Y-124432152D01*
X144732485Y-124358613D01*
X144769255Y-124285074D01*
X144806024Y-124248304D01*
X144879563Y-124211535D01*
X145026641Y-124174765D01*
X145100181Y-124137996D01*
X145136950Y-124101226D01*
X145173720Y-124027687D01*
X145173720Y-123954148D01*
X145136950Y-123880609D01*
X145100181Y-123843840D01*
X145026641Y-123807070D01*
X144842794Y-123807070D01*
X144732485Y-123843840D01*
X143997095Y-124579230D02*
X144438329Y-124579230D01*
X144217712Y-124579230D02*
X144217712Y-123807070D01*
X144291251Y-123917379D01*
X144364790Y-123990918D01*
X144438329Y-124027687D01*
X143702939Y-123880609D02*
X143666169Y-123843840D01*
X143592630Y-123807070D01*
X143408782Y-123807070D01*
X143335243Y-123843840D01*
X143298474Y-123880609D01*
X143261704Y-123954148D01*
X143261704Y-124027687D01*
X143298474Y-124137996D01*
X143739708Y-124579230D01*
X143261704Y-124579230D01*
X143004318Y-123807070D02*
X142526314Y-123807070D01*
X142783701Y-124101226D01*
X142673392Y-124101226D01*
X142599853Y-124137996D01*
X142563083Y-124174765D01*
X142526314Y-124248304D01*
X142526314Y-124432152D01*
X142563083Y-124505691D01*
X142599853Y-124542460D01*
X142673392Y-124579230D01*
X142894009Y-124579230D01*
X142967548Y-124542460D01*
X143004318Y-124505691D01*
X142232158Y-123880609D02*
X142195388Y-123843840D01*
X142121849Y-123807070D01*
X141938001Y-123807070D01*
X141864462Y-123843840D01*
X141827693Y-123880609D01*
X141790923Y-123954148D01*
X141790923Y-124027687D01*
X141827693Y-124137996D01*
X142268927Y-124579230D01*
X141790923Y-124579230D01*
X143527175Y-80467365D02*
X143416866Y-80504135D01*
X143380097Y-80540904D01*
X143343327Y-80614443D01*
X143343327Y-80724752D01*
X143380097Y-80798291D01*
X143416866Y-80835060D01*
X143490405Y-80871830D01*
X143784561Y-80871830D01*
X143784561Y-80099670D01*
X143527175Y-80099670D01*
X143453636Y-80136440D01*
X143416866Y-80173209D01*
X143380097Y-80246748D01*
X143380097Y-80320287D01*
X143416866Y-80393826D01*
X143453636Y-80430596D01*
X143527175Y-80467365D01*
X143784561Y-80467365D01*
X142497628Y-80945369D02*
X142571167Y-80908600D01*
X142644706Y-80835060D01*
X142755015Y-80724752D01*
X142828554Y-80687982D01*
X142902093Y-80687982D01*
X142865323Y-80871830D02*
X142938862Y-80835060D01*
X143012401Y-80761521D01*
X143049171Y-80614443D01*
X143049171Y-80357057D01*
X143012401Y-80209979D01*
X142938862Y-80136440D01*
X142865323Y-80099670D01*
X142718245Y-80099670D01*
X142644706Y-80136440D01*
X142571167Y-80209979D01*
X142534398Y-80357057D01*
X142534398Y-80614443D01*
X142571167Y-80761521D01*
X142644706Y-80835060D01*
X142718245Y-80871830D01*
X142865323Y-80871830D01*
X142240241Y-80173209D02*
X142203472Y-80136440D01*
X142129933Y-80099670D01*
X141946085Y-80099670D01*
X141872546Y-80136440D01*
X141835777Y-80173209D01*
X141799007Y-80246748D01*
X141799007Y-80320287D01*
X141835777Y-80430596D01*
X142277011Y-80871830D01*
X141799007Y-80871830D01*
X141137156Y-80357057D02*
X141137156Y-80871830D01*
X141321003Y-80062900D02*
X141504851Y-80614443D01*
X141026847Y-80614443D01*
X140585613Y-80099670D02*
X140512074Y-80099670D01*
X140438535Y-80136440D01*
X140401765Y-80173209D01*
X140364996Y-80246748D01*
X140328226Y-80393826D01*
X140328226Y-80577674D01*
X140364996Y-80724752D01*
X140401765Y-80798291D01*
X140438535Y-80835060D01*
X140512074Y-80871830D01*
X140585613Y-80871830D01*
X140659152Y-80835060D01*
X140695921Y-80798291D01*
X140732691Y-80724752D01*
X140769461Y-80577674D01*
X140769461Y-80393826D01*
X140732691Y-80246748D01*
X140695921Y-80173209D01*
X140659152Y-80136440D01*
X140585613Y-80099670D01*
X140070840Y-80099670D02*
X139556066Y-80099670D01*
X139886992Y-80871830D01*
X139335449Y-80099670D02*
X138820676Y-80871830D01*
X138820676Y-80099670D02*
X139335449Y-80871830D01*
X138457330Y-79841683D02*
X138457330Y-79694605D01*
X138494100Y-79621066D01*
X138530869Y-79584297D01*
X138641178Y-79510758D01*
X138788256Y-79473988D01*
X139082412Y-79473988D01*
X139155951Y-79510758D01*
X139192720Y-79547527D01*
X139229490Y-79621066D01*
X139229490Y-79768144D01*
X139192720Y-79841683D01*
X139155951Y-79878453D01*
X139082412Y-79915222D01*
X138898564Y-79915222D01*
X138825025Y-79878453D01*
X138788256Y-79841683D01*
X138751486Y-79768144D01*
X138751486Y-79621066D01*
X138788256Y-79547527D01*
X138825025Y-79510758D01*
X138898564Y-79473988D01*
X138457330Y-80135840D02*
X139229490Y-80393226D01*
X138457330Y-80650613D01*
X138420560Y-81459542D02*
X139413338Y-80797691D01*
X138457330Y-81864007D02*
X138457330Y-81937546D01*
X138494100Y-82011085D01*
X138530869Y-82047855D01*
X138604408Y-82084624D01*
X138751486Y-82121394D01*
X138935334Y-82121394D01*
X139082412Y-82084624D01*
X139155951Y-82047855D01*
X139192720Y-82011085D01*
X139229490Y-81937546D01*
X139229490Y-81864007D01*
X139192720Y-81790468D01*
X139155951Y-81753699D01*
X139082412Y-81716929D01*
X138935334Y-81680160D01*
X138751486Y-81680160D01*
X138604408Y-81716929D01*
X138530869Y-81753699D01*
X138494100Y-81790468D01*
X138457330Y-81864007D01*
X139155951Y-82452320D02*
X139192720Y-82489089D01*
X139229490Y-82452320D01*
X139192720Y-82415550D01*
X139155951Y-82452320D01*
X139229490Y-82452320D01*
X138457330Y-83187710D02*
X138457330Y-82820015D01*
X138825025Y-82783245D01*
X138788256Y-82820015D01*
X138751486Y-82893554D01*
X138751486Y-83077401D01*
X138788256Y-83150941D01*
X138825025Y-83187710D01*
X138898564Y-83224480D01*
X139082412Y-83224480D01*
X139155951Y-83187710D01*
X139192720Y-83150941D01*
X139229490Y-83077401D01*
X139229490Y-82893554D01*
X139192720Y-82820015D01*
X139155951Y-82783245D01*
X139008873Y-83518636D02*
X139008873Y-83886331D01*
X139229490Y-83445097D02*
X138457330Y-83702483D01*
X139229490Y-83959870D01*
X159447061Y-88321830D02*
X159447061Y-87549670D01*
X159152905Y-87549670D01*
X159079366Y-87586440D01*
X159042597Y-87623209D01*
X159005827Y-87696748D01*
X159005827Y-87807057D01*
X159042597Y-87880596D01*
X159079366Y-87917365D01*
X159152905Y-87954135D01*
X159447061Y-87954135D01*
X158674901Y-87917365D02*
X158417515Y-87917365D01*
X158307206Y-88321830D02*
X158674901Y-88321830D01*
X158674901Y-87549670D01*
X158307206Y-87549670D01*
X158013050Y-88285060D02*
X157902741Y-88321830D01*
X157718894Y-88321830D01*
X157645355Y-88285060D01*
X157608585Y-88248291D01*
X157571816Y-88174752D01*
X157571816Y-88101213D01*
X157608585Y-88027674D01*
X157645355Y-87990904D01*
X157718894Y-87954135D01*
X157865972Y-87917365D01*
X157939511Y-87880596D01*
X157976281Y-87843826D01*
X158013050Y-87770287D01*
X158013050Y-87696748D01*
X157976281Y-87623209D01*
X157939511Y-87586440D01*
X157865972Y-87549670D01*
X157682124Y-87549670D01*
X157571816Y-87586440D01*
X157240890Y-88321830D02*
X157240890Y-87549670D01*
X157057042Y-87549670D01*
X156946734Y-87586440D01*
X156873195Y-87659979D01*
X156836425Y-87733518D01*
X156799656Y-87880596D01*
X156799656Y-87990904D01*
X156836425Y-88137982D01*
X156873195Y-88211521D01*
X156946734Y-88285060D01*
X157057042Y-88321830D01*
X157240890Y-88321830D01*
X156321652Y-87549670D02*
X156248113Y-87549670D01*
X156174574Y-87586440D01*
X156137804Y-87623209D01*
X156101035Y-87696748D01*
X156064265Y-87843826D01*
X156064265Y-88027674D01*
X156101035Y-88174752D01*
X156137804Y-88248291D01*
X156174574Y-88285060D01*
X156248113Y-88321830D01*
X156321652Y-88321830D01*
X156395191Y-88285060D01*
X156431961Y-88248291D01*
X156468730Y-88174752D01*
X156505500Y-88027674D01*
X156505500Y-87843826D01*
X156468730Y-87696748D01*
X156431961Y-87623209D01*
X156395191Y-87586440D01*
X156321652Y-87549670D01*
X155402414Y-87807057D02*
X155402414Y-88321830D01*
X155586261Y-87512900D02*
X155770109Y-88064443D01*
X155292105Y-88064443D01*
X154850871Y-87549670D02*
X154777332Y-87549670D01*
X154703793Y-87586440D01*
X154667023Y-87623209D01*
X154630254Y-87696748D01*
X154593484Y-87843826D01*
X154593484Y-88027674D01*
X154630254Y-88174752D01*
X154667023Y-88248291D01*
X154703793Y-88285060D01*
X154777332Y-88321830D01*
X154850871Y-88321830D01*
X154924410Y-88285060D01*
X154961180Y-88248291D01*
X154997949Y-88174752D01*
X155034719Y-88027674D01*
X155034719Y-87843826D01*
X154997949Y-87696748D01*
X154961180Y-87623209D01*
X154924410Y-87586440D01*
X154850871Y-87549670D01*
X154299328Y-87623209D02*
X154262559Y-87586440D01*
X154189020Y-87549670D01*
X154005172Y-87549670D01*
X153931633Y-87586440D01*
X153894863Y-87623209D01*
X153858094Y-87696748D01*
X153858094Y-87770287D01*
X153894863Y-87880596D01*
X154336098Y-88321830D01*
X153858094Y-88321830D01*
X153527168Y-88027674D02*
X152938856Y-88027674D01*
X152166696Y-88321830D02*
X152607930Y-88321830D01*
X152387313Y-88321830D02*
X152387313Y-87549670D01*
X152460852Y-87659979D01*
X152534391Y-87733518D01*
X152607930Y-87770287D01*
X151504844Y-87807057D02*
X151504844Y-88321830D01*
X151688692Y-87512900D02*
X151872540Y-88064443D01*
X151394536Y-88064443D01*
X150953301Y-87549670D02*
X150879762Y-87549670D01*
X150806223Y-87586440D01*
X150769454Y-87623209D01*
X150732684Y-87696748D01*
X150695915Y-87843826D01*
X150695915Y-88027674D01*
X150732684Y-88174752D01*
X150769454Y-88248291D01*
X150806223Y-88285060D01*
X150879762Y-88321830D01*
X150953301Y-88321830D01*
X151026841Y-88285060D01*
X151063610Y-88248291D01*
X151100380Y-88174752D01*
X151137149Y-88027674D01*
X151137149Y-87843826D01*
X151100380Y-87696748D01*
X151063610Y-87623209D01*
X151026841Y-87586440D01*
X150953301Y-87549670D01*
X158177061Y-88321830D02*
X158177061Y-87549670D01*
X157882905Y-87549670D01*
X157809366Y-87586440D01*
X157772597Y-87623209D01*
X157735827Y-87696748D01*
X157735827Y-87807057D01*
X157772597Y-87880596D01*
X157809366Y-87917365D01*
X157882905Y-87954135D01*
X158177061Y-87954135D01*
X157404901Y-87917365D02*
X157147515Y-87917365D01*
X157037206Y-88321830D02*
X157404901Y-88321830D01*
X157404901Y-87549670D01*
X157037206Y-87549670D01*
X156743050Y-88285060D02*
X156632741Y-88321830D01*
X156448894Y-88321830D01*
X156375355Y-88285060D01*
X156338585Y-88248291D01*
X156301816Y-88174752D01*
X156301816Y-88101213D01*
X156338585Y-88027674D01*
X156375355Y-87990904D01*
X156448894Y-87954135D01*
X156595972Y-87917365D01*
X156669511Y-87880596D01*
X156706281Y-87843826D01*
X156743050Y-87770287D01*
X156743050Y-87696748D01*
X156706281Y-87623209D01*
X156669511Y-87586440D01*
X156595972Y-87549670D01*
X156412124Y-87549670D01*
X156301816Y-87586440D01*
X155970890Y-88321830D02*
X155970890Y-87549670D01*
X155787042Y-87549670D01*
X155676734Y-87586440D01*
X155603195Y-87659979D01*
X155566425Y-87733518D01*
X155529656Y-87880596D01*
X155529656Y-87990904D01*
X155566425Y-88137982D01*
X155603195Y-88211521D01*
X155676734Y-88285060D01*
X155787042Y-88321830D01*
X155970890Y-88321830D01*
X155051652Y-87549670D02*
X154978113Y-87549670D01*
X154904574Y-87586440D01*
X154867804Y-87623209D01*
X154831035Y-87696748D01*
X154794265Y-87843826D01*
X154794265Y-88027674D01*
X154831035Y-88174752D01*
X154867804Y-88248291D01*
X154904574Y-88285060D01*
X154978113Y-88321830D01*
X155051652Y-88321830D01*
X155125191Y-88285060D01*
X155161961Y-88248291D01*
X155198730Y-88174752D01*
X155235500Y-88027674D01*
X155235500Y-87843826D01*
X155198730Y-87696748D01*
X155161961Y-87623209D01*
X155125191Y-87586440D01*
X155051652Y-87549670D01*
X154132414Y-87807057D02*
X154132414Y-88321830D01*
X154316261Y-87512900D02*
X154500109Y-88064443D01*
X154022105Y-88064443D01*
X153580871Y-87549670D02*
X153507332Y-87549670D01*
X153433793Y-87586440D01*
X153397023Y-87623209D01*
X153360254Y-87696748D01*
X153323484Y-87843826D01*
X153323484Y-88027674D01*
X153360254Y-88174752D01*
X153397023Y-88248291D01*
X153433793Y-88285060D01*
X153507332Y-88321830D01*
X153580871Y-88321830D01*
X153654410Y-88285060D01*
X153691180Y-88248291D01*
X153727949Y-88174752D01*
X153764719Y-88027674D01*
X153764719Y-87843826D01*
X153727949Y-87696748D01*
X153691180Y-87623209D01*
X153654410Y-87586440D01*
X153580871Y-87549670D01*
X153029328Y-87623209D02*
X152992559Y-87586440D01*
X152919020Y-87549670D01*
X152735172Y-87549670D01*
X152661633Y-87586440D01*
X152624863Y-87623209D01*
X152588094Y-87696748D01*
X152588094Y-87770287D01*
X152624863Y-87880596D01*
X153066098Y-88321830D01*
X152588094Y-88321830D01*
X152257168Y-88027674D02*
X151668856Y-88027674D01*
X150896696Y-88321830D02*
X151337930Y-88321830D01*
X151117313Y-88321830D02*
X151117313Y-87549670D01*
X151190852Y-87659979D01*
X151264391Y-87733518D01*
X151337930Y-87770287D01*
X150234844Y-87807057D02*
X150234844Y-88321830D01*
X150418692Y-87512900D02*
X150602540Y-88064443D01*
X150124536Y-88064443D01*
X149683301Y-87549670D02*
X149609762Y-87549670D01*
X149536223Y-87586440D01*
X149499454Y-87623209D01*
X149462684Y-87696748D01*
X149425915Y-87843826D01*
X149425915Y-88027674D01*
X149462684Y-88174752D01*
X149499454Y-88248291D01*
X149536223Y-88285060D01*
X149609762Y-88321830D01*
X149683301Y-88321830D01*
X149756841Y-88285060D01*
X149793610Y-88248291D01*
X149830380Y-88174752D01*
X149867149Y-88027674D01*
X149867149Y-87843826D01*
X149830380Y-87696748D01*
X149793610Y-87623209D01*
X149756841Y-87586440D01*
X149683301Y-87549670D01*
X170959515Y-79071830D02*
X170959515Y-78299670D01*
X170665358Y-78299670D01*
X170591819Y-78336440D01*
X170555050Y-78373209D01*
X170518280Y-78446748D01*
X170518280Y-78557057D01*
X170555050Y-78630596D01*
X170591819Y-78667365D01*
X170665358Y-78704135D01*
X170959515Y-78704135D01*
X170187355Y-78667365D02*
X169929968Y-78667365D01*
X169819659Y-79071830D02*
X170187355Y-79071830D01*
X170187355Y-78299670D01*
X169819659Y-78299670D01*
X169525503Y-79035060D02*
X169415195Y-79071830D01*
X169231347Y-79071830D01*
X169157808Y-79035060D01*
X169121038Y-78998291D01*
X169084269Y-78924752D01*
X169084269Y-78851213D01*
X169121038Y-78777674D01*
X169157808Y-78740904D01*
X169231347Y-78704135D01*
X169378425Y-78667365D01*
X169451964Y-78630596D01*
X169488734Y-78593826D01*
X169525503Y-78520287D01*
X169525503Y-78446748D01*
X169488734Y-78373209D01*
X169451964Y-78336440D01*
X169378425Y-78299670D01*
X169194578Y-78299670D01*
X169084269Y-78336440D01*
X168753343Y-79071830D02*
X168753343Y-78299670D01*
X168569496Y-78299670D01*
X168459187Y-78336440D01*
X168385648Y-78409979D01*
X168348878Y-78483518D01*
X168312109Y-78630596D01*
X168312109Y-78740904D01*
X168348878Y-78887982D01*
X168385648Y-78961521D01*
X168459187Y-79035060D01*
X168569496Y-79071830D01*
X168753343Y-79071830D01*
X167834105Y-78299670D02*
X167760566Y-78299670D01*
X167687027Y-78336440D01*
X167650258Y-78373209D01*
X167613488Y-78446748D01*
X167576718Y-78593826D01*
X167576718Y-78777674D01*
X167613488Y-78924752D01*
X167650258Y-78998291D01*
X167687027Y-79035060D01*
X167760566Y-79071830D01*
X167834105Y-79071830D01*
X167907644Y-79035060D01*
X167944414Y-78998291D01*
X167981183Y-78924752D01*
X168017953Y-78777674D01*
X168017953Y-78593826D01*
X167981183Y-78446748D01*
X167944414Y-78373209D01*
X167907644Y-78336440D01*
X167834105Y-78299670D01*
X166914867Y-78557057D02*
X166914867Y-79071830D01*
X167098715Y-78262900D02*
X167282562Y-78814443D01*
X166804558Y-78814443D01*
X166363324Y-78299670D02*
X166289785Y-78299670D01*
X166216246Y-78336440D01*
X166179477Y-78373209D01*
X166142707Y-78446748D01*
X166105938Y-78593826D01*
X166105938Y-78777674D01*
X166142707Y-78924752D01*
X166179477Y-78998291D01*
X166216246Y-79035060D01*
X166289785Y-79071830D01*
X166363324Y-79071830D01*
X166436863Y-79035060D01*
X166473633Y-78998291D01*
X166510402Y-78924752D01*
X166547172Y-78777674D01*
X166547172Y-78593826D01*
X166510402Y-78446748D01*
X166473633Y-78373209D01*
X166436863Y-78336440D01*
X166363324Y-78299670D01*
X165811781Y-78373209D02*
X165775012Y-78336440D01*
X165701473Y-78299670D01*
X165517625Y-78299670D01*
X165444086Y-78336440D01*
X165407317Y-78373209D01*
X165370547Y-78446748D01*
X165370547Y-78520287D01*
X165407317Y-78630596D01*
X165848551Y-79071830D01*
X165370547Y-79071830D01*
X165039621Y-78777674D02*
X164451309Y-78777674D01*
X163679149Y-79071830D02*
X164120383Y-79071830D01*
X163899766Y-79071830D02*
X163899766Y-78299670D01*
X163973305Y-78409979D01*
X164046844Y-78483518D01*
X164120383Y-78520287D01*
X163017298Y-78557057D02*
X163017298Y-79071830D01*
X163201145Y-78262900D02*
X163384993Y-78814443D01*
X162906989Y-78814443D01*
X162465755Y-78299670D02*
X162392216Y-78299670D01*
X162318677Y-78336440D01*
X162281907Y-78373209D01*
X162245138Y-78446748D01*
X162208368Y-78593826D01*
X162208368Y-78777674D01*
X162245138Y-78924752D01*
X162281907Y-78998291D01*
X162318677Y-79035060D01*
X162392216Y-79071830D01*
X162465755Y-79071830D01*
X162539294Y-79035060D01*
X162576063Y-78998291D01*
X162612833Y-78924752D01*
X162649602Y-78777674D01*
X162649602Y-78593826D01*
X162612833Y-78446748D01*
X162576063Y-78373209D01*
X162539294Y-78336440D01*
X162465755Y-78299670D01*
X169689515Y-79071830D02*
X169689515Y-78299670D01*
X169395358Y-78299670D01*
X169321819Y-78336440D01*
X169285050Y-78373209D01*
X169248280Y-78446748D01*
X169248280Y-78557057D01*
X169285050Y-78630596D01*
X169321819Y-78667365D01*
X169395358Y-78704135D01*
X169689515Y-78704135D01*
X168917355Y-78667365D02*
X168659968Y-78667365D01*
X168549659Y-79071830D02*
X168917355Y-79071830D01*
X168917355Y-78299670D01*
X168549659Y-78299670D01*
X168255503Y-79035060D02*
X168145195Y-79071830D01*
X167961347Y-79071830D01*
X167887808Y-79035060D01*
X167851038Y-78998291D01*
X167814269Y-78924752D01*
X167814269Y-78851213D01*
X167851038Y-78777674D01*
X167887808Y-78740904D01*
X167961347Y-78704135D01*
X168108425Y-78667365D01*
X168181964Y-78630596D01*
X168218734Y-78593826D01*
X168255503Y-78520287D01*
X168255503Y-78446748D01*
X168218734Y-78373209D01*
X168181964Y-78336440D01*
X168108425Y-78299670D01*
X167924578Y-78299670D01*
X167814269Y-78336440D01*
X167483343Y-79071830D02*
X167483343Y-78299670D01*
X167299496Y-78299670D01*
X167189187Y-78336440D01*
X167115648Y-78409979D01*
X167078878Y-78483518D01*
X167042109Y-78630596D01*
X167042109Y-78740904D01*
X167078878Y-78887982D01*
X167115648Y-78961521D01*
X167189187Y-79035060D01*
X167299496Y-79071830D01*
X167483343Y-79071830D01*
X166564105Y-78299670D02*
X166490566Y-78299670D01*
X166417027Y-78336440D01*
X166380258Y-78373209D01*
X166343488Y-78446748D01*
X166306718Y-78593826D01*
X166306718Y-78777674D01*
X166343488Y-78924752D01*
X166380258Y-78998291D01*
X166417027Y-79035060D01*
X166490566Y-79071830D01*
X166564105Y-79071830D01*
X166637644Y-79035060D01*
X166674414Y-78998291D01*
X166711183Y-78924752D01*
X166747953Y-78777674D01*
X166747953Y-78593826D01*
X166711183Y-78446748D01*
X166674414Y-78373209D01*
X166637644Y-78336440D01*
X166564105Y-78299670D01*
X165644867Y-78557057D02*
X165644867Y-79071830D01*
X165828715Y-78262900D02*
X166012562Y-78814443D01*
X165534558Y-78814443D01*
X165093324Y-78299670D02*
X165019785Y-78299670D01*
X164946246Y-78336440D01*
X164909477Y-78373209D01*
X164872707Y-78446748D01*
X164835938Y-78593826D01*
X164835938Y-78777674D01*
X164872707Y-78924752D01*
X164909477Y-78998291D01*
X164946246Y-79035060D01*
X165019785Y-79071830D01*
X165093324Y-79071830D01*
X165166863Y-79035060D01*
X165203633Y-78998291D01*
X165240402Y-78924752D01*
X165277172Y-78777674D01*
X165277172Y-78593826D01*
X165240402Y-78446748D01*
X165203633Y-78373209D01*
X165166863Y-78336440D01*
X165093324Y-78299670D01*
X164541781Y-78373209D02*
X164505012Y-78336440D01*
X164431473Y-78299670D01*
X164247625Y-78299670D01*
X164174086Y-78336440D01*
X164137317Y-78373209D01*
X164100547Y-78446748D01*
X164100547Y-78520287D01*
X164137317Y-78630596D01*
X164578551Y-79071830D01*
X164100547Y-79071830D01*
X163769621Y-78777674D02*
X163181309Y-78777674D01*
X162409149Y-79071830D02*
X162850383Y-79071830D01*
X162629766Y-79071830D02*
X162629766Y-78299670D01*
X162703305Y-78409979D01*
X162776844Y-78483518D01*
X162850383Y-78520287D01*
X161747298Y-78557057D02*
X161747298Y-79071830D01*
X161931145Y-78262900D02*
X162114993Y-78814443D01*
X161636989Y-78814443D01*
X161195755Y-78299670D02*
X161122216Y-78299670D01*
X161048677Y-78336440D01*
X161011907Y-78373209D01*
X160975138Y-78446748D01*
X160938368Y-78593826D01*
X160938368Y-78777674D01*
X160975138Y-78924752D01*
X161011907Y-78998291D01*
X161048677Y-79035060D01*
X161122216Y-79071830D01*
X161195755Y-79071830D01*
X161269294Y-79035060D01*
X161306063Y-78998291D01*
X161342833Y-78924752D01*
X161379602Y-78777674D01*
X161379602Y-78593826D01*
X161342833Y-78446748D01*
X161306063Y-78373209D01*
X161269294Y-78336440D01*
X161195755Y-78299670D01*
X141929330Y-61270184D02*
X141157170Y-61270184D01*
X141157170Y-61564341D01*
X141193940Y-61637880D01*
X141230709Y-61674649D01*
X141304248Y-61711419D01*
X141414557Y-61711419D01*
X141488096Y-61674649D01*
X141524865Y-61637880D01*
X141561635Y-61564341D01*
X141561635Y-61270184D01*
X141524865Y-62042344D02*
X141524865Y-62299731D01*
X141929330Y-62410040D02*
X141929330Y-62042344D01*
X141157170Y-62042344D01*
X141157170Y-62410040D01*
X141892560Y-62704196D02*
X141929330Y-62814504D01*
X141929330Y-62998352D01*
X141892560Y-63071891D01*
X141855791Y-63108661D01*
X141782252Y-63145430D01*
X141708713Y-63145430D01*
X141635174Y-63108661D01*
X141598404Y-63071891D01*
X141561635Y-62998352D01*
X141524865Y-62851274D01*
X141488096Y-62777735D01*
X141451326Y-62740965D01*
X141377787Y-62704196D01*
X141304248Y-62704196D01*
X141230709Y-62740965D01*
X141193940Y-62777735D01*
X141157170Y-62851274D01*
X141157170Y-63035121D01*
X141193940Y-63145430D01*
X141929330Y-63476356D02*
X141157170Y-63476356D01*
X141157170Y-63660203D01*
X141193940Y-63770512D01*
X141267479Y-63844051D01*
X141341018Y-63880821D01*
X141488096Y-63917590D01*
X141598404Y-63917590D01*
X141745482Y-63880821D01*
X141819021Y-63844051D01*
X141892560Y-63770512D01*
X141929330Y-63660203D01*
X141929330Y-63476356D01*
X141157170Y-64395594D02*
X141157170Y-64469133D01*
X141193940Y-64542672D01*
X141230709Y-64579441D01*
X141304248Y-64616211D01*
X141451326Y-64652981D01*
X141635174Y-64652981D01*
X141782252Y-64616211D01*
X141855791Y-64579441D01*
X141892560Y-64542672D01*
X141929330Y-64469133D01*
X141929330Y-64395594D01*
X141892560Y-64322055D01*
X141855791Y-64285285D01*
X141782252Y-64248516D01*
X141635174Y-64211746D01*
X141451326Y-64211746D01*
X141304248Y-64248516D01*
X141230709Y-64285285D01*
X141193940Y-64322055D01*
X141157170Y-64395594D01*
X141414557Y-65314832D02*
X141929330Y-65314832D01*
X141120400Y-65130984D02*
X141671943Y-64947137D01*
X141671943Y-65425141D01*
X141157170Y-65866375D02*
X141157170Y-65939914D01*
X141193940Y-66013453D01*
X141230709Y-66050222D01*
X141304248Y-66086992D01*
X141451326Y-66123761D01*
X141635174Y-66123761D01*
X141782252Y-66086992D01*
X141855791Y-66050222D01*
X141892560Y-66013453D01*
X141929330Y-65939914D01*
X141929330Y-65866375D01*
X141892560Y-65792836D01*
X141855791Y-65756066D01*
X141782252Y-65719297D01*
X141635174Y-65682527D01*
X141451326Y-65682527D01*
X141304248Y-65719297D01*
X141230709Y-65756066D01*
X141193940Y-65792836D01*
X141157170Y-65866375D01*
X141230709Y-66417918D02*
X141193940Y-66454687D01*
X141157170Y-66528226D01*
X141157170Y-66712074D01*
X141193940Y-66785613D01*
X141230709Y-66822382D01*
X141304248Y-66859152D01*
X141377787Y-66859152D01*
X141488096Y-66822382D01*
X141929330Y-66381148D01*
X141929330Y-66859152D01*
X141635174Y-67190078D02*
X141635174Y-67778390D01*
X141929330Y-68550550D02*
X141929330Y-68109316D01*
X141929330Y-68329933D02*
X141157170Y-68329933D01*
X141267479Y-68256394D01*
X141341018Y-68182855D01*
X141377787Y-68109316D01*
X141414557Y-69212401D02*
X141929330Y-69212401D01*
X141120400Y-69028554D02*
X141671943Y-68844706D01*
X141671943Y-69322710D01*
X141157170Y-69763944D02*
X141157170Y-69837483D01*
X141193940Y-69911022D01*
X141230709Y-69947792D01*
X141304248Y-69984561D01*
X141451326Y-70021331D01*
X141635174Y-70021331D01*
X141782252Y-69984561D01*
X141855791Y-69947792D01*
X141892560Y-69911022D01*
X141929330Y-69837483D01*
X141929330Y-69763944D01*
X141892560Y-69690405D01*
X141855791Y-69653636D01*
X141782252Y-69616866D01*
X141635174Y-69580097D01*
X141451326Y-69580097D01*
X141304248Y-69616866D01*
X141230709Y-69653636D01*
X141193940Y-69690405D01*
X141157170Y-69763944D01*
X141929330Y-62540184D02*
X141157170Y-62540184D01*
X141157170Y-62834341D01*
X141193940Y-62907880D01*
X141230709Y-62944649D01*
X141304248Y-62981419D01*
X141414557Y-62981419D01*
X141488096Y-62944649D01*
X141524865Y-62907880D01*
X141561635Y-62834341D01*
X141561635Y-62540184D01*
X141524865Y-63312344D02*
X141524865Y-63569731D01*
X141929330Y-63680040D02*
X141929330Y-63312344D01*
X141157170Y-63312344D01*
X141157170Y-63680040D01*
X141892560Y-63974196D02*
X141929330Y-64084504D01*
X141929330Y-64268352D01*
X141892560Y-64341891D01*
X141855791Y-64378661D01*
X141782252Y-64415430D01*
X141708713Y-64415430D01*
X141635174Y-64378661D01*
X141598404Y-64341891D01*
X141561635Y-64268352D01*
X141524865Y-64121274D01*
X141488096Y-64047735D01*
X141451326Y-64010965D01*
X141377787Y-63974196D01*
X141304248Y-63974196D01*
X141230709Y-64010965D01*
X141193940Y-64047735D01*
X141157170Y-64121274D01*
X141157170Y-64305121D01*
X141193940Y-64415430D01*
X141929330Y-64746356D02*
X141157170Y-64746356D01*
X141157170Y-64930203D01*
X141193940Y-65040512D01*
X141267479Y-65114051D01*
X141341018Y-65150821D01*
X141488096Y-65187590D01*
X141598404Y-65187590D01*
X141745482Y-65150821D01*
X141819021Y-65114051D01*
X141892560Y-65040512D01*
X141929330Y-64930203D01*
X141929330Y-64746356D01*
X141157170Y-65665594D02*
X141157170Y-65739133D01*
X141193940Y-65812672D01*
X141230709Y-65849441D01*
X141304248Y-65886211D01*
X141451326Y-65922981D01*
X141635174Y-65922981D01*
X141782252Y-65886211D01*
X141855791Y-65849441D01*
X141892560Y-65812672D01*
X141929330Y-65739133D01*
X141929330Y-65665594D01*
X141892560Y-65592055D01*
X141855791Y-65555285D01*
X141782252Y-65518516D01*
X141635174Y-65481746D01*
X141451326Y-65481746D01*
X141304248Y-65518516D01*
X141230709Y-65555285D01*
X141193940Y-65592055D01*
X141157170Y-65665594D01*
X141414557Y-66584832D02*
X141929330Y-66584832D01*
X141120400Y-66400984D02*
X141671943Y-66217137D01*
X141671943Y-66695141D01*
X141157170Y-67136375D02*
X141157170Y-67209914D01*
X141193940Y-67283453D01*
X141230709Y-67320222D01*
X141304248Y-67356992D01*
X141451326Y-67393761D01*
X141635174Y-67393761D01*
X141782252Y-67356992D01*
X141855791Y-67320222D01*
X141892560Y-67283453D01*
X141929330Y-67209914D01*
X141929330Y-67136375D01*
X141892560Y-67062836D01*
X141855791Y-67026066D01*
X141782252Y-66989297D01*
X141635174Y-66952527D01*
X141451326Y-66952527D01*
X141304248Y-66989297D01*
X141230709Y-67026066D01*
X141193940Y-67062836D01*
X141157170Y-67136375D01*
X141230709Y-67687918D02*
X141193940Y-67724687D01*
X141157170Y-67798226D01*
X141157170Y-67982074D01*
X141193940Y-68055613D01*
X141230709Y-68092382D01*
X141304248Y-68129152D01*
X141377787Y-68129152D01*
X141488096Y-68092382D01*
X141929330Y-67651148D01*
X141929330Y-68129152D01*
X141635174Y-68460078D02*
X141635174Y-69048390D01*
X141929330Y-69820550D02*
X141929330Y-69379316D01*
X141929330Y-69599933D02*
X141157170Y-69599933D01*
X141267479Y-69526394D01*
X141341018Y-69452855D01*
X141377787Y-69379316D01*
X141414557Y-70482401D02*
X141929330Y-70482401D01*
X141120400Y-70298554D02*
X141671943Y-70114706D01*
X141671943Y-70592710D01*
X141157170Y-71033944D02*
X141157170Y-71107483D01*
X141193940Y-71181022D01*
X141230709Y-71217792D01*
X141304248Y-71254561D01*
X141451326Y-71291331D01*
X141635174Y-71291331D01*
X141782252Y-71254561D01*
X141855791Y-71217792D01*
X141892560Y-71181022D01*
X141929330Y-71107483D01*
X141929330Y-71033944D01*
X141892560Y-70960405D01*
X141855791Y-70923636D01*
X141782252Y-70886866D01*
X141635174Y-70850097D01*
X141451326Y-70850097D01*
X141304248Y-70886866D01*
X141230709Y-70923636D01*
X141193940Y-70960405D01*
X141157170Y-71033944D01*
X141929330Y-63810184D02*
X141157170Y-63810184D01*
X141157170Y-64104341D01*
X141193940Y-64177880D01*
X141230709Y-64214649D01*
X141304248Y-64251419D01*
X141414557Y-64251419D01*
X141488096Y-64214649D01*
X141524865Y-64177880D01*
X141561635Y-64104341D01*
X141561635Y-63810184D01*
X141524865Y-64582344D02*
X141524865Y-64839731D01*
X141929330Y-64950040D02*
X141929330Y-64582344D01*
X141157170Y-64582344D01*
X141157170Y-64950040D01*
X141892560Y-65244196D02*
X141929330Y-65354504D01*
X141929330Y-65538352D01*
X141892560Y-65611891D01*
X141855791Y-65648661D01*
X141782252Y-65685430D01*
X141708713Y-65685430D01*
X141635174Y-65648661D01*
X141598404Y-65611891D01*
X141561635Y-65538352D01*
X141524865Y-65391274D01*
X141488096Y-65317735D01*
X141451326Y-65280965D01*
X141377787Y-65244196D01*
X141304248Y-65244196D01*
X141230709Y-65280965D01*
X141193940Y-65317735D01*
X141157170Y-65391274D01*
X141157170Y-65575121D01*
X141193940Y-65685430D01*
X141929330Y-66016356D02*
X141157170Y-66016356D01*
X141157170Y-66200203D01*
X141193940Y-66310512D01*
X141267479Y-66384051D01*
X141341018Y-66420821D01*
X141488096Y-66457590D01*
X141598404Y-66457590D01*
X141745482Y-66420821D01*
X141819021Y-66384051D01*
X141892560Y-66310512D01*
X141929330Y-66200203D01*
X141929330Y-66016356D01*
X141157170Y-66935594D02*
X141157170Y-67009133D01*
X141193940Y-67082672D01*
X141230709Y-67119441D01*
X141304248Y-67156211D01*
X141451326Y-67192981D01*
X141635174Y-67192981D01*
X141782252Y-67156211D01*
X141855791Y-67119441D01*
X141892560Y-67082672D01*
X141929330Y-67009133D01*
X141929330Y-66935594D01*
X141892560Y-66862055D01*
X141855791Y-66825285D01*
X141782252Y-66788516D01*
X141635174Y-66751746D01*
X141451326Y-66751746D01*
X141304248Y-66788516D01*
X141230709Y-66825285D01*
X141193940Y-66862055D01*
X141157170Y-66935594D01*
X141414557Y-67854832D02*
X141929330Y-67854832D01*
X141120400Y-67670984D02*
X141671943Y-67487137D01*
X141671943Y-67965141D01*
X141157170Y-68406375D02*
X141157170Y-68479914D01*
X141193940Y-68553453D01*
X141230709Y-68590222D01*
X141304248Y-68626992D01*
X141451326Y-68663761D01*
X141635174Y-68663761D01*
X141782252Y-68626992D01*
X141855791Y-68590222D01*
X141892560Y-68553453D01*
X141929330Y-68479914D01*
X141929330Y-68406375D01*
X141892560Y-68332836D01*
X141855791Y-68296066D01*
X141782252Y-68259297D01*
X141635174Y-68222527D01*
X141451326Y-68222527D01*
X141304248Y-68259297D01*
X141230709Y-68296066D01*
X141193940Y-68332836D01*
X141157170Y-68406375D01*
X141230709Y-68957918D02*
X141193940Y-68994687D01*
X141157170Y-69068226D01*
X141157170Y-69252074D01*
X141193940Y-69325613D01*
X141230709Y-69362382D01*
X141304248Y-69399152D01*
X141377787Y-69399152D01*
X141488096Y-69362382D01*
X141929330Y-68921148D01*
X141929330Y-69399152D01*
X141635174Y-69730078D02*
X141635174Y-70318390D01*
X141929330Y-71090550D02*
X141929330Y-70649316D01*
X141929330Y-70869933D02*
X141157170Y-70869933D01*
X141267479Y-70796394D01*
X141341018Y-70722855D01*
X141377787Y-70649316D01*
X141414557Y-71752401D02*
X141929330Y-71752401D01*
X141120400Y-71568554D02*
X141671943Y-71384706D01*
X141671943Y-71862710D01*
X141157170Y-72303944D02*
X141157170Y-72377483D01*
X141193940Y-72451022D01*
X141230709Y-72487792D01*
X141304248Y-72524561D01*
X141451326Y-72561331D01*
X141635174Y-72561331D01*
X141782252Y-72524561D01*
X141855791Y-72487792D01*
X141892560Y-72451022D01*
X141929330Y-72377483D01*
X141929330Y-72303944D01*
X141892560Y-72230405D01*
X141855791Y-72193636D01*
X141782252Y-72156866D01*
X141635174Y-72120097D01*
X141451326Y-72120097D01*
X141304248Y-72156866D01*
X141230709Y-72193636D01*
X141193940Y-72230405D01*
X141157170Y-72303944D01*
D16*
X144460547Y-127901857D02*
X144460547Y-127212428D01*
X144460547Y-127557142D02*
X143254047Y-127557142D01*
X143426404Y-127442238D01*
X143541309Y-127327333D01*
X143598761Y-127212428D01*
X143656214Y-128936000D02*
X144460547Y-128936000D01*
X143656214Y-128418928D02*
X144288190Y-128418928D01*
X144403095Y-128476381D01*
X144460547Y-128591285D01*
X144460547Y-128763642D01*
X144403095Y-128878547D01*
X144345642Y-128936000D01*
X137293647Y-85481362D02*
X137293647Y-84791933D01*
X137293647Y-85136647D02*
X136087147Y-85136647D01*
X136259504Y-85021742D01*
X136374409Y-84906838D01*
X136431861Y-84791933D01*
X136087147Y-86228242D02*
X136087147Y-86343147D01*
X136144600Y-86458052D01*
X136202052Y-86515504D01*
X136316957Y-86572957D01*
X136546766Y-86630409D01*
X136834028Y-86630409D01*
X137063838Y-86572957D01*
X137178742Y-86515504D01*
X137236195Y-86458052D01*
X137293647Y-86343147D01*
X137293647Y-86228242D01*
X137236195Y-86113338D01*
X137178742Y-86055885D01*
X137063838Y-85998433D01*
X136834028Y-85940981D01*
X136546766Y-85940981D01*
X136316957Y-85998433D01*
X136202052Y-86055885D01*
X136144600Y-86113338D01*
X136087147Y-86228242D01*
X136087147Y-87377290D02*
X136087147Y-87492195D01*
X136144600Y-87607100D01*
X136202052Y-87664552D01*
X136316957Y-87722004D01*
X136546766Y-87779457D01*
X136834028Y-87779457D01*
X137063838Y-87722004D01*
X137178742Y-87664552D01*
X137236195Y-87607100D01*
X137293647Y-87492195D01*
X137293647Y-87377290D01*
X137236195Y-87262385D01*
X137178742Y-87204933D01*
X137063838Y-87147481D01*
X136834028Y-87090028D01*
X136546766Y-87090028D01*
X136316957Y-87147481D01*
X136202052Y-87204933D01*
X136144600Y-87262385D01*
X136087147Y-87377290D01*
X136489314Y-88296528D02*
X137293647Y-88296528D01*
X136604219Y-88296528D02*
X136546766Y-88353981D01*
X136489314Y-88468885D01*
X136489314Y-88641242D01*
X136546766Y-88756147D01*
X136661671Y-88813600D01*
X137293647Y-88813600D01*
X147284314Y-79235671D02*
X148088647Y-79235671D01*
X146824695Y-78948409D02*
X147686480Y-78661147D01*
X147686480Y-79408028D01*
X147284314Y-80384718D02*
X148088647Y-80384718D01*
X147284314Y-79867647D02*
X147916290Y-79867647D01*
X148031195Y-79925099D01*
X148088647Y-80040004D01*
X148088647Y-80212361D01*
X148031195Y-80327266D01*
X147973742Y-80384718D01*
X146882147Y-80844338D02*
X146882147Y-81648671D01*
X148088647Y-81131599D01*
X157029290Y-80216147D02*
X157718718Y-80216147D01*
X157374004Y-80216147D02*
X157374004Y-79009647D01*
X157488909Y-79182004D01*
X157603814Y-79296909D01*
X157718718Y-79354361D01*
X156282409Y-79009647D02*
X156167504Y-79009647D01*
X156052599Y-79067100D01*
X155995147Y-79124552D01*
X155937695Y-79239457D01*
X155880242Y-79469266D01*
X155880242Y-79756528D01*
X155937695Y-79986338D01*
X155995147Y-80101242D01*
X156052599Y-80158695D01*
X156167504Y-80216147D01*
X156282409Y-80216147D01*
X156397314Y-80158695D01*
X156454766Y-80101242D01*
X156512218Y-79986338D01*
X156569671Y-79756528D01*
X156569671Y-79469266D01*
X156512218Y-79239457D01*
X156454766Y-79124552D01*
X156397314Y-79067100D01*
X156282409Y-79009647D01*
X154846099Y-79411814D02*
X154846099Y-80216147D01*
X155363171Y-79411814D02*
X155363171Y-80043790D01*
X155305718Y-80158695D01*
X155190814Y-80216147D01*
X155018457Y-80216147D01*
X154903552Y-80158695D01*
X154846099Y-80101242D01*
X159569290Y-80216147D02*
X160258718Y-80216147D01*
X159914004Y-80216147D02*
X159914004Y-79009647D01*
X160028909Y-79182004D01*
X160143814Y-79296909D01*
X160258718Y-79354361D01*
X158822409Y-79009647D02*
X158707504Y-79009647D01*
X158592599Y-79067100D01*
X158535147Y-79124552D01*
X158477695Y-79239457D01*
X158420242Y-79469266D01*
X158420242Y-79756528D01*
X158477695Y-79986338D01*
X158535147Y-80101242D01*
X158592599Y-80158695D01*
X158707504Y-80216147D01*
X158822409Y-80216147D01*
X158937314Y-80158695D01*
X158994766Y-80101242D01*
X159052218Y-79986338D01*
X159109671Y-79756528D01*
X159109671Y-79469266D01*
X159052218Y-79239457D01*
X158994766Y-79124552D01*
X158937314Y-79067100D01*
X158822409Y-79009647D01*
X157386099Y-79411814D02*
X157386099Y-80216147D01*
X157903171Y-79411814D02*
X157903171Y-80043790D01*
X157845718Y-80158695D01*
X157730814Y-80216147D01*
X157558457Y-80216147D01*
X157443552Y-80158695D01*
X157386099Y-80101242D01*
X146557238Y-119838547D02*
X147246666Y-119838547D01*
X146901952Y-119838547D02*
X146901952Y-118632047D01*
X147016857Y-118804404D01*
X147131761Y-118919309D01*
X147246666Y-118976761D01*
X145810357Y-118632047D02*
X145695452Y-118632047D01*
X145580547Y-118689500D01*
X145523095Y-118746952D01*
X145465642Y-118861857D01*
X145408190Y-119091666D01*
X145408190Y-119378928D01*
X145465642Y-119608738D01*
X145523095Y-119723642D01*
X145580547Y-119781095D01*
X145695452Y-119838547D01*
X145810357Y-119838547D01*
X145925261Y-119781095D01*
X145982714Y-119723642D01*
X146040166Y-119608738D01*
X146097618Y-119378928D01*
X146097618Y-119091666D01*
X146040166Y-118861857D01*
X145982714Y-118746952D01*
X145925261Y-118689500D01*
X145810357Y-118632047D01*
X144661309Y-118632047D02*
X144546404Y-118632047D01*
X144431499Y-118689500D01*
X144374047Y-118746952D01*
X144316595Y-118861857D01*
X144259142Y-119091666D01*
X144259142Y-119378928D01*
X144316595Y-119608738D01*
X144374047Y-119723642D01*
X144431499Y-119781095D01*
X144546404Y-119838547D01*
X144661309Y-119838547D01*
X144776214Y-119781095D01*
X144833666Y-119723642D01*
X144891118Y-119608738D01*
X144948571Y-119378928D01*
X144948571Y-119091666D01*
X144891118Y-118861857D01*
X144833666Y-118746952D01*
X144776214Y-118689500D01*
X144661309Y-118632047D01*
X143742071Y-119034214D02*
X143742071Y-119838547D01*
X143742071Y-119149119D02*
X143684618Y-119091666D01*
X143569714Y-119034214D01*
X143397357Y-119034214D01*
X143282452Y-119091666D01*
X143224999Y-119206571D01*
X143224999Y-119838547D01*
X141437947Y-124790962D02*
X141437947Y-124101533D01*
X141437947Y-124446247D02*
X140231447Y-124446247D01*
X140403804Y-124331342D01*
X140518709Y-124216438D01*
X140576161Y-124101533D01*
X140231447Y-125537842D02*
X140231447Y-125652747D01*
X140288900Y-125767652D01*
X140346352Y-125825104D01*
X140461257Y-125882557D01*
X140691066Y-125940009D01*
X140978328Y-125940009D01*
X141208138Y-125882557D01*
X141323042Y-125825104D01*
X141380495Y-125767652D01*
X141437947Y-125652747D01*
X141437947Y-125537842D01*
X141380495Y-125422938D01*
X141323042Y-125365485D01*
X141208138Y-125308033D01*
X140978328Y-125250581D01*
X140691066Y-125250581D01*
X140461257Y-125308033D01*
X140346352Y-125365485D01*
X140288900Y-125422938D01*
X140231447Y-125537842D01*
X140231447Y-126686890D02*
X140231447Y-126801795D01*
X140288900Y-126916700D01*
X140346352Y-126974152D01*
X140461257Y-127031604D01*
X140691066Y-127089057D01*
X140978328Y-127089057D01*
X141208138Y-127031604D01*
X141323042Y-126974152D01*
X141380495Y-126916700D01*
X141437947Y-126801795D01*
X141437947Y-126686890D01*
X141380495Y-126571985D01*
X141323042Y-126514533D01*
X141208138Y-126457081D01*
X140978328Y-126399628D01*
X140691066Y-126399628D01*
X140461257Y-126457081D01*
X140346352Y-126514533D01*
X140288900Y-126571985D01*
X140231447Y-126686890D01*
X140633614Y-127606128D02*
X141437947Y-127606128D01*
X140748519Y-127606128D02*
X140691066Y-127663581D01*
X140633614Y-127778485D01*
X140633614Y-127950842D01*
X140691066Y-128065747D01*
X140805971Y-128123200D01*
X141437947Y-128123200D01*
X144744314Y-87490671D02*
X145548647Y-87490671D01*
X144284695Y-87203409D02*
X145146480Y-86916147D01*
X145146480Y-87663028D01*
X144744314Y-88639718D02*
X145548647Y-88639718D01*
X144744314Y-88122647D02*
X145376290Y-88122647D01*
X145491195Y-88180099D01*
X145548647Y-88295004D01*
X145548647Y-88467361D01*
X145491195Y-88582266D01*
X145433742Y-88639718D01*
X144342147Y-89099338D02*
X144342147Y-89903671D01*
X145548647Y-89386599D01*
X144744314Y-86220671D02*
X145548647Y-86220671D01*
X144284695Y-85933409D02*
X145146480Y-85646147D01*
X145146480Y-86393028D01*
X144744314Y-87369718D02*
X145548647Y-87369718D01*
X144744314Y-86852647D02*
X145376290Y-86852647D01*
X145491195Y-86910099D01*
X145548647Y-87025004D01*
X145548647Y-87197361D01*
X145491195Y-87312266D01*
X145433742Y-87369718D01*
X144342147Y-87829338D02*
X144342147Y-88633671D01*
X145548647Y-88116599D01*
X144404142Y-78292547D02*
X145093571Y-78292547D01*
X144748857Y-78292547D02*
X144748857Y-77086047D01*
X144863761Y-77258404D01*
X144978666Y-77373309D01*
X145093571Y-77430761D01*
X143369999Y-77488214D02*
X143369999Y-78292547D01*
X143887071Y-77488214D02*
X143887071Y-78120190D01*
X143829618Y-78235095D01*
X143714714Y-78292547D01*
X143542357Y-78292547D01*
X143427452Y-78235095D01*
X143369999Y-78177642D01*
M02*
