G04 #@! TF.GenerationSoftware,KiCad,Pcbnew,5.1.8+dfsg1-1~bpo10+1*
G04 #@! TF.CreationDate,2021-01-21T20:32:41+01:00*
G04 #@! TF.ProjectId,easyhive,65617379-6869-4766-952e-6b696361645f,rev?*
G04 #@! TF.SameCoordinates,Original*
G04 #@! TF.FileFunction,Other,Fab,Top*
%FSLAX46Y46*%
G04 Gerber Fmt 4.6, Leading zero omitted, Abs format (unit mm)*
G04 Created by KiCad (PCBNEW 5.1.8+dfsg1-1~bpo10+1) date 2021-01-21 20:32:41*
%MOMM*%
%LPD*%
G01*
G04 APERTURE LIST*
%ADD10C,0.100000*%
%ADD11C,0.152400*%
%ADD12C,0.150000*%
%ADD13C,0.127000*%
%ADD14C,0.101600*%
%ADD15C,0.203200*%
%ADD16C,0.457200*%
%ADD17C,2.286000*%
%ADD18C,0.077216*%
%ADD19C,0.096520*%
%ADD20C,0.001930*%
G04 APERTURE END LIST*
D10*
X135127907Y-114043400D02*
X134420800Y-114543400D01*
X134420800Y-113543400D02*
X135127907Y-114043400D01*
X137920800Y-132293400D02*
X137920800Y-131793400D01*
X137420800Y-132293400D02*
X137920800Y-132293400D01*
X137420800Y-131793400D02*
X137420800Y-132293400D01*
X137920800Y-131793400D02*
X137420800Y-131793400D01*
X137920800Y-130293400D02*
X137920800Y-129793400D01*
X137420800Y-130293400D02*
X137920800Y-130293400D01*
X137420800Y-129793400D02*
X137420800Y-130293400D01*
X137920800Y-129793400D02*
X137420800Y-129793400D01*
X137920800Y-128293400D02*
X137920800Y-127793400D01*
X137420800Y-128293400D02*
X137920800Y-128293400D01*
X137420800Y-127793400D02*
X137420800Y-128293400D01*
X137920800Y-127793400D02*
X137420800Y-127793400D01*
X137920800Y-126293400D02*
X137920800Y-125793400D01*
X137420800Y-126293400D02*
X137920800Y-126293400D01*
X137420800Y-125793400D02*
X137420800Y-126293400D01*
X137920800Y-125793400D02*
X137420800Y-125793400D01*
X137920800Y-124293400D02*
X137920800Y-123793400D01*
X137420800Y-124293400D02*
X137920800Y-124293400D01*
X137420800Y-123793400D02*
X137420800Y-124293400D01*
X137920800Y-123793400D02*
X137420800Y-123793400D01*
X137920800Y-122293400D02*
X137920800Y-121793400D01*
X137420800Y-122293400D02*
X137920800Y-122293400D01*
X137420800Y-121793400D02*
X137420800Y-122293400D01*
X137920800Y-121793400D02*
X137420800Y-121793400D01*
X137920800Y-120293400D02*
X137920800Y-119793400D01*
X137420800Y-120293400D02*
X137920800Y-120293400D01*
X137420800Y-119793400D02*
X137420800Y-120293400D01*
X137920800Y-119793400D02*
X137420800Y-119793400D01*
X137920800Y-118293400D02*
X137920800Y-117793400D01*
X137420800Y-118293400D02*
X137920800Y-118293400D01*
X137420800Y-117793400D02*
X137420800Y-118293400D01*
X137920800Y-117793400D02*
X137420800Y-117793400D01*
X137920800Y-116293400D02*
X137920800Y-115793400D01*
X137420800Y-116293400D02*
X137920800Y-116293400D01*
X137420800Y-115793400D02*
X137420800Y-116293400D01*
X137920800Y-115793400D02*
X137420800Y-115793400D01*
X137920800Y-114293400D02*
X137920800Y-113793400D01*
X137420800Y-114293400D02*
X137920800Y-114293400D01*
X137420800Y-113793400D02*
X137420800Y-114293400D01*
X137920800Y-113793400D02*
X137420800Y-113793400D01*
X134420800Y-135018400D02*
X139420800Y-135018400D01*
X134420800Y-111068400D02*
X139420800Y-111068400D01*
X139420800Y-111068400D02*
X139420800Y-135018400D01*
X134420800Y-111068400D02*
X134420800Y-135018400D01*
D11*
X143297600Y-104052100D02*
X143602400Y-104052100D01*
X143602400Y-104052100D02*
X143602400Y-102998000D01*
X143602400Y-102998000D02*
X143297600Y-102998000D01*
X143297600Y-102998000D02*
X143297600Y-104052100D01*
X142647601Y-104052100D02*
X142952401Y-104052100D01*
X142952401Y-104052100D02*
X142952401Y-102998000D01*
X142952401Y-102998000D02*
X142647601Y-102998000D01*
X142647601Y-102998000D02*
X142647601Y-104052100D01*
X141997601Y-104052100D02*
X142302401Y-104052100D01*
X142302401Y-104052100D02*
X142302401Y-102998000D01*
X142302401Y-102998000D02*
X141997601Y-102998000D01*
X141997601Y-102998000D02*
X141997601Y-104052100D01*
X141347601Y-104052100D02*
X141652401Y-104052100D01*
X141652401Y-104052100D02*
X141652401Y-102998000D01*
X141652401Y-102998000D02*
X141347601Y-102998000D01*
X141347601Y-102998000D02*
X141347601Y-104052100D01*
X140697601Y-104052100D02*
X141002401Y-104052100D01*
X141002401Y-104052100D02*
X141002401Y-102998000D01*
X141002401Y-102998000D02*
X140697601Y-102998000D01*
X140697601Y-102998000D02*
X140697601Y-104052100D01*
X140047601Y-104052100D02*
X140352401Y-104052100D01*
X140352401Y-104052100D02*
X140352401Y-102998000D01*
X140352401Y-102998000D02*
X140047601Y-102998000D01*
X140047601Y-102998000D02*
X140047601Y-104052100D01*
X139397601Y-104052100D02*
X139702401Y-104052100D01*
X139702401Y-104052100D02*
X139702401Y-102998000D01*
X139702401Y-102998000D02*
X139397601Y-102998000D01*
X139397601Y-102998000D02*
X139397601Y-104052100D01*
X138747601Y-104052100D02*
X139052401Y-104052100D01*
X139052401Y-104052100D02*
X139052401Y-102998000D01*
X139052401Y-102998000D02*
X138747601Y-102998000D01*
X138747601Y-102998000D02*
X138747601Y-104052100D01*
X139052400Y-108547900D02*
X138747600Y-108547900D01*
X138747600Y-108547900D02*
X138747600Y-109602000D01*
X138747600Y-109602000D02*
X139052400Y-109602000D01*
X139052400Y-109602000D02*
X139052400Y-108547900D01*
X139702399Y-108547900D02*
X139397599Y-108547900D01*
X139397599Y-108547900D02*
X139397599Y-109602000D01*
X139397599Y-109602000D02*
X139702399Y-109602000D01*
X139702399Y-109602000D02*
X139702399Y-108547900D01*
X140352399Y-108547900D02*
X140047599Y-108547900D01*
X140047599Y-108547900D02*
X140047599Y-109602000D01*
X140047599Y-109602000D02*
X140352399Y-109602000D01*
X140352399Y-109602000D02*
X140352399Y-108547900D01*
X141002399Y-108547900D02*
X140697599Y-108547900D01*
X140697599Y-108547900D02*
X140697599Y-109602000D01*
X140697599Y-109602000D02*
X141002399Y-109602000D01*
X141002399Y-109602000D02*
X141002399Y-108547900D01*
X141652399Y-108547900D02*
X141347599Y-108547900D01*
X141347599Y-108547900D02*
X141347599Y-109602000D01*
X141347599Y-109602000D02*
X141652399Y-109602000D01*
X141652399Y-109602000D02*
X141652399Y-108547900D01*
X142302399Y-108547900D02*
X141997599Y-108547900D01*
X141997599Y-108547900D02*
X141997599Y-109602000D01*
X141997599Y-109602000D02*
X142302399Y-109602000D01*
X142302399Y-109602000D02*
X142302399Y-108547900D01*
X142952399Y-108547900D02*
X142647599Y-108547900D01*
X142647599Y-108547900D02*
X142647599Y-109602000D01*
X142647599Y-109602000D02*
X142952399Y-109602000D01*
X142952399Y-109602000D02*
X142952399Y-108547900D01*
X143602399Y-108547900D02*
X143297599Y-108547900D01*
X143297599Y-108547900D02*
X143297599Y-109602000D01*
X143297599Y-109602000D02*
X143602399Y-109602000D01*
X143602399Y-109602000D02*
X143602399Y-108547900D01*
X138622300Y-104052100D02*
X138622300Y-108547900D01*
X138622300Y-108547900D02*
X143727700Y-108547900D01*
X143727700Y-108547900D02*
X143727700Y-104052100D01*
X143727700Y-104052100D02*
X138622300Y-104052100D01*
D12*
X143334000Y-104141000D02*
X142953000Y-104903000D01*
X142953000Y-104903000D02*
X142572000Y-104141000D01*
D10*
X147100000Y-105000000D02*
X162900000Y-105000000D01*
X162900000Y-105000000D02*
X162900000Y-122700000D01*
X147100000Y-105000000D02*
X147100000Y-122700000D01*
X147100000Y-122700000D02*
X162900000Y-122700000D01*
X147100000Y-106900000D02*
X148100000Y-107250000D01*
X148100000Y-107250000D02*
X147100000Y-107600000D01*
X157150001Y-127149999D02*
X157150001Y-126349998D01*
X155550002Y-127149999D02*
X155550002Y-126349998D01*
X157150001Y-126349998D02*
X155550002Y-126349998D01*
X157150001Y-127149999D02*
X155550002Y-127149999D01*
D13*
X148871100Y-67512600D02*
X141071100Y-67512600D01*
D10*
X149200001Y-101800001D02*
X150000002Y-101800001D01*
X149200001Y-100200002D02*
X150000002Y-100200002D01*
X150000002Y-101800001D02*
X150000002Y-100200002D01*
X149200001Y-101800001D02*
X149200001Y-100200002D01*
X143900001Y-117199999D02*
X143900001Y-116399998D01*
X142300002Y-117199999D02*
X142300002Y-116399998D01*
X143900001Y-116399998D02*
X142300002Y-116399998D01*
X143900001Y-117199999D02*
X142300002Y-117199999D01*
G36*
X158251700Y-95249100D02*
G01*
X159001800Y-95249100D01*
X159001800Y-93549100D01*
X158251700Y-93549100D01*
X158251700Y-95249100D01*
G37*
G36*
X155598200Y-95250900D02*
G01*
X156348300Y-95250900D01*
X156348300Y-93550900D01*
X155598200Y-93550900D01*
X155598200Y-95250900D01*
G37*
D14*
X156335000Y-95187000D02*
X158265000Y-95187000D01*
X156335000Y-93613000D02*
X158265000Y-93613000D01*
D15*
X139650000Y-97000000D02*
X139250000Y-97000000D01*
X141850000Y-97000000D02*
X141450000Y-97000000D01*
X141450000Y-98200000D02*
X141850000Y-98200000D01*
X139250000Y-98200000D02*
X139650000Y-98200000D01*
X139250000Y-96900000D02*
X138450000Y-96900000D01*
X139250000Y-97000000D02*
X139250000Y-96900000D01*
X139250000Y-98200000D02*
X139250000Y-97000000D01*
X139250000Y-98300000D02*
X139250000Y-98200000D01*
X138450000Y-98300000D02*
X139250000Y-98300000D01*
X138450000Y-96900000D02*
X138450000Y-98300000D01*
X142650000Y-96900000D02*
X141850000Y-96900000D01*
X142650000Y-98300000D02*
X142650000Y-96900000D01*
X141850000Y-98300000D02*
X142650000Y-98300000D01*
X141850000Y-98200000D02*
X141850000Y-98300000D01*
X141850000Y-97000000D02*
X141850000Y-98200000D01*
X141850000Y-96900000D02*
X141850000Y-97000000D01*
D16*
X161636100Y-138503600D02*
G75*
G03*
X161636100Y-138503600I-635000J0D01*
G01*
D17*
X162779100Y-138503600D02*
G75*
G03*
X161001100Y-136725600I-1778000J0D01*
G01*
X161001100Y-140281600D02*
G75*
G02*
X159223100Y-138503600I0J1778000D01*
G01*
D16*
X161636100Y-71503600D02*
G75*
G03*
X161636100Y-71503600I-635000J0D01*
G01*
D17*
X162779100Y-71503600D02*
G75*
G03*
X161001100Y-69725600I-1778000J0D01*
G01*
X161001100Y-73281600D02*
G75*
G02*
X159223100Y-71503600I0J1778000D01*
G01*
D16*
X136636100Y-71503600D02*
G75*
G03*
X136636100Y-71503600I-635000J0D01*
G01*
D17*
X137779100Y-71503600D02*
G75*
G03*
X136001100Y-69725600I-1778000J0D01*
G01*
X136001100Y-73281600D02*
G75*
G02*
X134223100Y-71503600I0J1778000D01*
G01*
D16*
X136626600Y-138506200D02*
G75*
G03*
X136626600Y-138506200I-635000J0D01*
G01*
D17*
X137769600Y-138506200D02*
G75*
G03*
X135991600Y-136728200I-1778000J0D01*
G01*
X135991600Y-140284200D02*
G75*
G02*
X134213600Y-138506200I0J1778000D01*
G01*
D10*
X130337466Y-124526733D02*
X130837466Y-124526733D01*
X130937466Y-124560066D01*
X131004133Y-124626733D01*
X131037466Y-124726733D01*
X131037466Y-124793400D01*
X131004133Y-124226733D02*
X131037466Y-124126733D01*
X131037466Y-123960066D01*
X131004133Y-123893400D01*
X130970800Y-123860066D01*
X130904133Y-123826733D01*
X130837466Y-123826733D01*
X130770800Y-123860066D01*
X130737466Y-123893400D01*
X130704133Y-123960066D01*
X130670800Y-124093400D01*
X130637466Y-124160066D01*
X130604133Y-124193400D01*
X130537466Y-124226733D01*
X130470800Y-124226733D01*
X130404133Y-124193400D01*
X130370800Y-124160066D01*
X130337466Y-124093400D01*
X130337466Y-123926733D01*
X130370800Y-123826733D01*
X130337466Y-123626733D02*
X130337466Y-123226733D01*
X131037466Y-123426733D02*
X130337466Y-123426733D01*
X131037466Y-122460066D02*
X130337466Y-122460066D01*
X130337466Y-122193400D01*
X130370800Y-122126733D01*
X130404133Y-122093400D01*
X130470800Y-122060066D01*
X130570800Y-122060066D01*
X130637466Y-122093400D01*
X130670800Y-122126733D01*
X130704133Y-122193400D01*
X130704133Y-122460066D01*
X131037466Y-121760066D02*
X130337466Y-121760066D01*
X130670800Y-121760066D02*
X130670800Y-121360066D01*
X131037466Y-121360066D02*
X130337466Y-121360066D01*
D18*
X153796685Y-137638230D02*
X153796685Y-138263312D01*
X153833455Y-138336851D01*
X153870224Y-138373620D01*
X153943763Y-138410390D01*
X154090841Y-138410390D01*
X154164381Y-138373620D01*
X154201150Y-138336851D01*
X154237920Y-138263312D01*
X154237920Y-137638230D01*
X154568845Y-138373620D02*
X154679154Y-138410390D01*
X154863001Y-138410390D01*
X154936541Y-138373620D01*
X154973310Y-138336851D01*
X155010080Y-138263312D01*
X155010080Y-138189773D01*
X154973310Y-138116234D01*
X154936541Y-138079464D01*
X154863001Y-138042695D01*
X154715923Y-138005925D01*
X154642384Y-137969156D01*
X154605615Y-137932386D01*
X154568845Y-137858847D01*
X154568845Y-137785308D01*
X154605615Y-137711769D01*
X154642384Y-137675000D01*
X154715923Y-137638230D01*
X154899771Y-137638230D01*
X155010080Y-137675000D01*
X155598392Y-138005925D02*
X155708701Y-138042695D01*
X155745470Y-138079464D01*
X155782240Y-138153003D01*
X155782240Y-138263312D01*
X155745470Y-138336851D01*
X155708701Y-138373620D01*
X155635161Y-138410390D01*
X155341005Y-138410390D01*
X155341005Y-137638230D01*
X155598392Y-137638230D01*
X155671931Y-137675000D01*
X155708701Y-137711769D01*
X155745470Y-137785308D01*
X155745470Y-137858847D01*
X155708701Y-137932386D01*
X155671931Y-137969156D01*
X155598392Y-138005925D01*
X155341005Y-138005925D01*
X155929318Y-138483929D02*
X156517630Y-138483929D01*
X156701478Y-138410390D02*
X156701478Y-137638230D01*
X156958864Y-138189773D01*
X157216251Y-137638230D01*
X157216251Y-138410390D01*
X157731024Y-137638230D02*
X157878102Y-137638230D01*
X157951641Y-137675000D01*
X158025181Y-137748539D01*
X158061950Y-137895617D01*
X158061950Y-138153003D01*
X158025181Y-138300081D01*
X157951641Y-138373620D01*
X157878102Y-138410390D01*
X157731024Y-138410390D01*
X157657485Y-138373620D01*
X157583946Y-138300081D01*
X157547177Y-138153003D01*
X157547177Y-137895617D01*
X157583946Y-137748539D01*
X157657485Y-137675000D01*
X157731024Y-137638230D01*
X158392876Y-138410390D02*
X158392876Y-137638230D01*
X158576723Y-137638230D01*
X158687032Y-137675000D01*
X158760571Y-137748539D01*
X158797341Y-137822078D01*
X158834110Y-137969156D01*
X158834110Y-138079464D01*
X158797341Y-138226542D01*
X158760571Y-138300081D01*
X158687032Y-138373620D01*
X158576723Y-138410390D01*
X158392876Y-138410390D01*
X159165036Y-138005925D02*
X159422422Y-138005925D01*
X159532731Y-138410390D02*
X159165036Y-138410390D01*
X159165036Y-137638230D01*
X159532731Y-137638230D01*
D19*
X159767547Y-126880000D02*
X160744238Y-126880000D01*
X160859142Y-126822547D01*
X160916595Y-126765095D01*
X160974047Y-126650190D01*
X160974047Y-126420381D01*
X160916595Y-126305476D01*
X160859142Y-126248023D01*
X160744238Y-126190571D01*
X159767547Y-126190571D01*
X160916595Y-125673500D02*
X160974047Y-125501142D01*
X160974047Y-125213881D01*
X160916595Y-125098976D01*
X160859142Y-125041523D01*
X160744238Y-124984071D01*
X160629333Y-124984071D01*
X160514428Y-125041523D01*
X160456976Y-125098976D01*
X160399523Y-125213881D01*
X160342071Y-125443690D01*
X160284619Y-125558595D01*
X160227166Y-125616047D01*
X160112261Y-125673500D01*
X159997357Y-125673500D01*
X159882452Y-125616047D01*
X159825000Y-125558595D01*
X159767547Y-125443690D01*
X159767547Y-125156428D01*
X159825000Y-124984071D01*
X160342071Y-124064833D02*
X160399523Y-123892476D01*
X160456976Y-123835023D01*
X160571880Y-123777571D01*
X160744238Y-123777571D01*
X160859142Y-123835023D01*
X160916595Y-123892476D01*
X160974047Y-124007381D01*
X160974047Y-124467000D01*
X159767547Y-124467000D01*
X159767547Y-124064833D01*
X159825000Y-123949928D01*
X159882452Y-123892476D01*
X159997357Y-123835023D01*
X160112261Y-123835023D01*
X160227166Y-123892476D01*
X160284619Y-123949928D01*
X160342071Y-124064833D01*
X160342071Y-124467000D01*
X161088952Y-123547762D02*
X161088952Y-122628523D01*
X160342071Y-121939095D02*
X160399523Y-121766738D01*
X160456976Y-121709285D01*
X160571880Y-121651833D01*
X160744238Y-121651833D01*
X160859142Y-121709285D01*
X160916595Y-121766738D01*
X160974047Y-121881642D01*
X160974047Y-122341262D01*
X159767547Y-122341262D01*
X159767547Y-121939095D01*
X159825000Y-121824190D01*
X159882452Y-121766738D01*
X159997357Y-121709285D01*
X160112261Y-121709285D01*
X160227166Y-121766738D01*
X160284619Y-121824190D01*
X160342071Y-121939095D01*
X160342071Y-122341262D01*
X160859142Y-120445333D02*
X160916595Y-120502785D01*
X160974047Y-120675142D01*
X160974047Y-120790047D01*
X160916595Y-120962404D01*
X160801690Y-121077309D01*
X160686785Y-121134762D01*
X160456976Y-121192214D01*
X160284619Y-121192214D01*
X160054809Y-121134762D01*
X159939904Y-121077309D01*
X159825000Y-120962404D01*
X159767547Y-120790047D01*
X159767547Y-120675142D01*
X159825000Y-120502785D01*
X159882452Y-120445333D01*
X159767547Y-119411190D02*
X159767547Y-119641000D01*
X159825000Y-119755904D01*
X159882452Y-119813357D01*
X160054809Y-119928262D01*
X160284619Y-119985714D01*
X160744238Y-119985714D01*
X160859142Y-119928262D01*
X160916595Y-119870809D01*
X160974047Y-119755904D01*
X160974047Y-119526095D01*
X160916595Y-119411190D01*
X160859142Y-119353738D01*
X160744238Y-119296285D01*
X160456976Y-119296285D01*
X160342071Y-119353738D01*
X160284619Y-119411190D01*
X160227166Y-119526095D01*
X160227166Y-119755904D01*
X160284619Y-119870809D01*
X160342071Y-119928262D01*
X160456976Y-119985714D01*
X159767547Y-118262142D02*
X159767547Y-118491952D01*
X159825000Y-118606857D01*
X159882452Y-118664309D01*
X160054809Y-118779214D01*
X160284619Y-118836666D01*
X160744238Y-118836666D01*
X160859142Y-118779214D01*
X160916595Y-118721762D01*
X160974047Y-118606857D01*
X160974047Y-118377047D01*
X160916595Y-118262142D01*
X160859142Y-118204690D01*
X160744238Y-118147238D01*
X160456976Y-118147238D01*
X160342071Y-118204690D01*
X160284619Y-118262142D01*
X160227166Y-118377047D01*
X160227166Y-118606857D01*
X160284619Y-118721762D01*
X160342071Y-118779214D01*
X160456976Y-118836666D01*
D18*
X149577611Y-101388230D02*
X149577611Y-102013312D01*
X149614381Y-102086851D01*
X149651150Y-102123620D01*
X149724689Y-102160390D01*
X149871767Y-102160390D01*
X149945306Y-102123620D01*
X149982076Y-102086851D01*
X150018845Y-102013312D01*
X150018845Y-101388230D01*
X150349771Y-101939773D02*
X150717466Y-101939773D01*
X150276232Y-102160390D02*
X150533619Y-101388230D01*
X150791005Y-102160390D01*
X151489626Y-102160390D02*
X151232240Y-101792695D01*
X151048392Y-102160390D02*
X151048392Y-101388230D01*
X151342548Y-101388230D01*
X151416087Y-101425000D01*
X151452857Y-101461769D01*
X151489626Y-101535308D01*
X151489626Y-101645617D01*
X151452857Y-101719156D01*
X151416087Y-101755925D01*
X151342548Y-101792695D01*
X151048392Y-101792695D01*
X151710243Y-101388230D02*
X152151478Y-101388230D01*
X151930861Y-102160390D02*
X151930861Y-101388230D01*
X152225017Y-102233929D02*
X152813329Y-102233929D01*
X152997177Y-102160390D02*
X152997177Y-101388230D01*
X153181024Y-101388230D01*
X153291333Y-101425000D01*
X153364872Y-101498539D01*
X153401641Y-101572078D01*
X153438411Y-101719156D01*
X153438411Y-101829464D01*
X153401641Y-101976542D01*
X153364872Y-102050081D01*
X153291333Y-102123620D01*
X153181024Y-102160390D01*
X152997177Y-102160390D01*
X154026723Y-101755925D02*
X154137032Y-101792695D01*
X154173801Y-101829464D01*
X154210571Y-101903003D01*
X154210571Y-102013312D01*
X154173801Y-102086851D01*
X154137032Y-102123620D01*
X154063493Y-102160390D01*
X153769337Y-102160390D01*
X153769337Y-101388230D01*
X154026723Y-101388230D01*
X154100262Y-101425000D01*
X154137032Y-101461769D01*
X154173801Y-101535308D01*
X154173801Y-101608847D01*
X154137032Y-101682386D01*
X154100262Y-101719156D01*
X154026723Y-101755925D01*
X153769337Y-101755925D01*
X154945961Y-101425000D02*
X154872422Y-101388230D01*
X154762114Y-101388230D01*
X154651805Y-101425000D01*
X154578266Y-101498539D01*
X154541497Y-101572078D01*
X154504727Y-101719156D01*
X154504727Y-101829464D01*
X154541497Y-101976542D01*
X154578266Y-102050081D01*
X154651805Y-102123620D01*
X154762114Y-102160390D01*
X154835653Y-102160390D01*
X154945961Y-102123620D01*
X154982731Y-102086851D01*
X154982731Y-101829464D01*
X154835653Y-101829464D01*
D12*
X153619047Y-126378571D02*
X153761904Y-126426190D01*
X153809523Y-126473809D01*
X153857142Y-126569047D01*
X153857142Y-126711904D01*
X153809523Y-126807142D01*
X153761904Y-126854761D01*
X153666666Y-126902380D01*
X153285714Y-126902380D01*
X153285714Y-125902380D01*
X153619047Y-125902380D01*
X153714285Y-125950000D01*
X153761904Y-125997619D01*
X153809523Y-126092857D01*
X153809523Y-126188095D01*
X153761904Y-126283333D01*
X153714285Y-126330952D01*
X153619047Y-126378571D01*
X153285714Y-126378571D01*
X154857142Y-126807142D02*
X154809523Y-126854761D01*
X154666666Y-126902380D01*
X154571428Y-126902380D01*
X154428571Y-126854761D01*
X154333333Y-126759523D01*
X154285714Y-126664285D01*
X154238095Y-126473809D01*
X154238095Y-126330952D01*
X154285714Y-126140476D01*
X154333333Y-126045238D01*
X154428571Y-125950000D01*
X154571428Y-125902380D01*
X154666666Y-125902380D01*
X154809523Y-125950000D01*
X154857142Y-125997619D01*
X155714285Y-125902380D02*
X155523809Y-125902380D01*
X155428571Y-125950000D01*
X155380952Y-125997619D01*
X155285714Y-126140476D01*
X155238095Y-126330952D01*
X155238095Y-126711904D01*
X155285714Y-126807142D01*
X155333333Y-126854761D01*
X155428571Y-126902380D01*
X155619047Y-126902380D01*
X155714285Y-126854761D01*
X155761904Y-126807142D01*
X155809523Y-126711904D01*
X155809523Y-126473809D01*
X155761904Y-126378571D01*
X155714285Y-126330952D01*
X155619047Y-126283333D01*
X155428571Y-126283333D01*
X155333333Y-126330952D01*
X155285714Y-126378571D01*
X155238095Y-126473809D01*
X156666666Y-125902380D02*
X156476190Y-125902380D01*
X156380952Y-125950000D01*
X156333333Y-125997619D01*
X156238095Y-126140476D01*
X156190476Y-126330952D01*
X156190476Y-126711904D01*
X156238095Y-126807142D01*
X156285714Y-126854761D01*
X156380952Y-126902380D01*
X156571428Y-126902380D01*
X156666666Y-126854761D01*
X156714285Y-126807142D01*
X156761904Y-126711904D01*
X156761904Y-126473809D01*
X156714285Y-126378571D01*
X156666666Y-126330952D01*
X156571428Y-126283333D01*
X156380952Y-126283333D01*
X156285714Y-126330952D01*
X156238095Y-126378571D01*
X156190476Y-126473809D01*
D18*
X165504038Y-121788230D02*
X165504038Y-122413312D01*
X165540807Y-122486851D01*
X165577577Y-122523620D01*
X165651116Y-122560390D01*
X165798194Y-122560390D01*
X165871733Y-122523620D01*
X165908502Y-122486851D01*
X165945272Y-122413312D01*
X165945272Y-121788230D01*
X166276198Y-122339773D02*
X166643893Y-122339773D01*
X166202658Y-122560390D02*
X166460045Y-121788230D01*
X166717432Y-122560390D01*
X167416053Y-122560390D02*
X167158666Y-122192695D01*
X166974818Y-122560390D02*
X166974818Y-121788230D01*
X167268975Y-121788230D01*
X167342514Y-121825000D01*
X167379283Y-121861769D01*
X167416053Y-121935308D01*
X167416053Y-122045617D01*
X167379283Y-122119156D01*
X167342514Y-122155925D01*
X167268975Y-122192695D01*
X166974818Y-122192695D01*
X167636670Y-121788230D02*
X168077904Y-121788230D01*
X167857287Y-122560390D02*
X167857287Y-121788230D01*
X168151443Y-122633929D02*
X168739756Y-122633929D01*
X168886834Y-122339773D02*
X169254529Y-122339773D01*
X168813295Y-122560390D02*
X169070681Y-121788230D01*
X169328068Y-122560390D01*
X169585455Y-121788230D02*
X169585455Y-122413312D01*
X169622224Y-122486851D01*
X169658994Y-122523620D01*
X169732533Y-122560390D01*
X169879611Y-122560390D01*
X169953150Y-122523620D01*
X169989919Y-122486851D01*
X170026689Y-122413312D01*
X170026689Y-121788230D01*
X170320845Y-121788230D02*
X170835618Y-122560390D01*
X170835618Y-121788230D02*
X170320845Y-122560390D01*
X154213230Y-109448415D02*
X153441070Y-109448415D01*
X153441070Y-109154258D01*
X153477840Y-109080719D01*
X153514609Y-109043950D01*
X153588148Y-109007180D01*
X153698457Y-109007180D01*
X153771996Y-109043950D01*
X153808765Y-109080719D01*
X153845535Y-109154258D01*
X153845535Y-109448415D01*
X153808765Y-108676255D02*
X153808765Y-108418868D01*
X154213230Y-108308559D02*
X154213230Y-108676255D01*
X153441070Y-108676255D01*
X153441070Y-108308559D01*
X154176460Y-108014403D02*
X154213230Y-107904095D01*
X154213230Y-107720247D01*
X154176460Y-107646708D01*
X154139691Y-107609938D01*
X154066152Y-107573169D01*
X153992613Y-107573169D01*
X153919074Y-107609938D01*
X153882304Y-107646708D01*
X153845535Y-107720247D01*
X153808765Y-107867325D01*
X153771996Y-107940864D01*
X153735226Y-107977634D01*
X153661687Y-108014403D01*
X153588148Y-108014403D01*
X153514609Y-107977634D01*
X153477840Y-107940864D01*
X153441070Y-107867325D01*
X153441070Y-107683478D01*
X153477840Y-107573169D01*
X154213230Y-107242243D02*
X153441070Y-107242243D01*
X153441070Y-107058396D01*
X153477840Y-106948087D01*
X153551379Y-106874548D01*
X153624918Y-106837778D01*
X153771996Y-106801009D01*
X153882304Y-106801009D01*
X154029382Y-106837778D01*
X154102921Y-106874548D01*
X154176460Y-106948087D01*
X154213230Y-107058396D01*
X154213230Y-107242243D01*
X153441070Y-106323005D02*
X153441070Y-106249466D01*
X153477840Y-106175927D01*
X153514609Y-106139158D01*
X153588148Y-106102388D01*
X153735226Y-106065618D01*
X153919074Y-106065618D01*
X154066152Y-106102388D01*
X154139691Y-106139158D01*
X154176460Y-106175927D01*
X154213230Y-106249466D01*
X154213230Y-106323005D01*
X154176460Y-106396544D01*
X154139691Y-106433314D01*
X154066152Y-106470083D01*
X153919074Y-106506853D01*
X153735226Y-106506853D01*
X153588148Y-106470083D01*
X153514609Y-106433314D01*
X153477840Y-106396544D01*
X153441070Y-106323005D01*
X153698457Y-105403767D02*
X154213230Y-105403767D01*
X153404300Y-105587615D02*
X153955843Y-105771462D01*
X153955843Y-105293458D01*
X153441070Y-104852224D02*
X153441070Y-104778685D01*
X153477840Y-104705146D01*
X153514609Y-104668377D01*
X153588148Y-104631607D01*
X153735226Y-104594838D01*
X153919074Y-104594838D01*
X154066152Y-104631607D01*
X154139691Y-104668377D01*
X154176460Y-104705146D01*
X154213230Y-104778685D01*
X154213230Y-104852224D01*
X154176460Y-104925763D01*
X154139691Y-104962533D01*
X154066152Y-104999302D01*
X153919074Y-105036072D01*
X153735226Y-105036072D01*
X153588148Y-104999302D01*
X153514609Y-104962533D01*
X153477840Y-104925763D01*
X153441070Y-104852224D01*
X153514609Y-104300681D02*
X153477840Y-104263912D01*
X153441070Y-104190373D01*
X153441070Y-104006525D01*
X153477840Y-103932986D01*
X153514609Y-103896217D01*
X153588148Y-103859447D01*
X153661687Y-103859447D01*
X153771996Y-103896217D01*
X154213230Y-104337451D01*
X154213230Y-103859447D01*
X153919074Y-103528521D02*
X153919074Y-102940209D01*
X154213230Y-102168049D02*
X154213230Y-102609283D01*
X154213230Y-102388666D02*
X153441070Y-102388666D01*
X153551379Y-102462205D01*
X153624918Y-102535744D01*
X153661687Y-102609283D01*
X153698457Y-101506198D02*
X154213230Y-101506198D01*
X153404300Y-101690045D02*
X153955843Y-101873893D01*
X153955843Y-101395889D01*
X153441070Y-100954655D02*
X153441070Y-100881116D01*
X153477840Y-100807577D01*
X153514609Y-100770807D01*
X153588148Y-100734038D01*
X153735226Y-100697268D01*
X153919074Y-100697268D01*
X154066152Y-100734038D01*
X154139691Y-100770807D01*
X154176460Y-100807577D01*
X154213230Y-100881116D01*
X154213230Y-100954655D01*
X154176460Y-101028194D01*
X154139691Y-101064963D01*
X154066152Y-101101733D01*
X153919074Y-101138502D01*
X153735226Y-101138502D01*
X153588148Y-101101733D01*
X153514609Y-101064963D01*
X153477840Y-101028194D01*
X153441070Y-100954655D01*
D19*
X155942547Y-136986380D02*
X155942547Y-137675809D01*
X155942547Y-137331095D02*
X154736047Y-137331095D01*
X154908404Y-137445999D01*
X155023309Y-137560904D01*
X155080761Y-137675809D01*
X154736047Y-136239499D02*
X154736047Y-136124595D01*
X154793500Y-136009690D01*
X154850952Y-135952238D01*
X154965857Y-135894785D01*
X155195666Y-135837333D01*
X155482928Y-135837333D01*
X155712738Y-135894785D01*
X155827642Y-135952238D01*
X155885095Y-136009690D01*
X155942547Y-136124595D01*
X155942547Y-136239499D01*
X155885095Y-136354404D01*
X155827642Y-136411857D01*
X155712738Y-136469309D01*
X155482928Y-136526761D01*
X155195666Y-136526761D01*
X154965857Y-136469309D01*
X154850952Y-136411857D01*
X154793500Y-136354404D01*
X154736047Y-136239499D01*
X154736047Y-135090452D02*
X154736047Y-134975547D01*
X154793500Y-134860642D01*
X154850952Y-134803190D01*
X154965857Y-134745738D01*
X155195666Y-134688285D01*
X155482928Y-134688285D01*
X155712738Y-134745738D01*
X155827642Y-134803190D01*
X155885095Y-134860642D01*
X155942547Y-134975547D01*
X155942547Y-135090452D01*
X155885095Y-135205357D01*
X155827642Y-135262809D01*
X155712738Y-135320261D01*
X155482928Y-135377714D01*
X155195666Y-135377714D01*
X154965857Y-135320261D01*
X154850952Y-135262809D01*
X154793500Y-135205357D01*
X154736047Y-135090452D01*
X155138214Y-134171214D02*
X155942547Y-134171214D01*
X155253119Y-134171214D02*
X155195666Y-134113761D01*
X155138214Y-133998857D01*
X155138214Y-133826499D01*
X155195666Y-133711595D01*
X155310571Y-133654142D01*
X155942547Y-133654142D01*
X155310571Y-132677452D02*
X155310571Y-133079618D01*
X155942547Y-133079618D02*
X154736047Y-133079618D01*
X154736047Y-132505095D01*
D18*
X139219330Y-67593561D02*
X139844412Y-67593561D01*
X139917951Y-67556792D01*
X139954720Y-67520022D01*
X139991490Y-67446483D01*
X139991490Y-67299405D01*
X139954720Y-67225866D01*
X139917951Y-67189097D01*
X139844412Y-67152327D01*
X139219330Y-67152327D01*
X139954720Y-66821401D02*
X139991490Y-66711093D01*
X139991490Y-66527245D01*
X139954720Y-66453706D01*
X139917951Y-66416937D01*
X139844412Y-66380167D01*
X139770873Y-66380167D01*
X139697334Y-66416937D01*
X139660564Y-66453706D01*
X139623795Y-66527245D01*
X139587025Y-66674323D01*
X139550256Y-66747862D01*
X139513486Y-66784632D01*
X139439947Y-66821401D01*
X139366408Y-66821401D01*
X139292869Y-66784632D01*
X139256100Y-66747862D01*
X139219330Y-66674323D01*
X139219330Y-66490476D01*
X139256100Y-66380167D01*
X139587025Y-65791855D02*
X139623795Y-65681546D01*
X139660564Y-65644777D01*
X139734103Y-65608007D01*
X139844412Y-65608007D01*
X139917951Y-65644777D01*
X139954720Y-65681546D01*
X139991490Y-65755085D01*
X139991490Y-66049241D01*
X139219330Y-66049241D01*
X139219330Y-65791855D01*
X139256100Y-65718316D01*
X139292869Y-65681546D01*
X139366408Y-65644777D01*
X139439947Y-65644777D01*
X139513486Y-65681546D01*
X139550256Y-65718316D01*
X139587025Y-65791855D01*
X139587025Y-66049241D01*
X140065029Y-65460929D02*
X140065029Y-64872617D01*
X139991490Y-64688769D02*
X139219330Y-64688769D01*
X139770873Y-64431382D01*
X139219330Y-64173996D01*
X139991490Y-64173996D01*
X139991490Y-63806301D02*
X139219330Y-63806301D01*
X139917951Y-62997371D02*
X139954720Y-63034141D01*
X139991490Y-63144449D01*
X139991490Y-63217988D01*
X139954720Y-63328297D01*
X139881181Y-63401836D01*
X139807642Y-63438605D01*
X139660564Y-63475375D01*
X139550256Y-63475375D01*
X139403178Y-63438605D01*
X139329639Y-63401836D01*
X139256100Y-63328297D01*
X139219330Y-63217988D01*
X139219330Y-63144449D01*
X139256100Y-63034141D01*
X139292869Y-62997371D01*
X139991490Y-62225211D02*
X139623795Y-62482598D01*
X139991490Y-62666445D02*
X139219330Y-62666445D01*
X139219330Y-62372289D01*
X139256100Y-62298750D01*
X139292869Y-62261981D01*
X139366408Y-62225211D01*
X139476717Y-62225211D01*
X139550256Y-62261981D01*
X139587025Y-62298750D01*
X139623795Y-62372289D01*
X139623795Y-62666445D01*
X139219330Y-61747207D02*
X139219330Y-61600129D01*
X139256100Y-61526590D01*
X139329639Y-61453051D01*
X139476717Y-61416281D01*
X139734103Y-61416281D01*
X139881181Y-61453051D01*
X139954720Y-61526590D01*
X139991490Y-61600129D01*
X139991490Y-61747207D01*
X139954720Y-61820746D01*
X139881181Y-61894285D01*
X139734103Y-61931055D01*
X139476717Y-61931055D01*
X139329639Y-61894285D01*
X139256100Y-61820746D01*
X139219330Y-61747207D01*
X140065029Y-61269203D02*
X140065029Y-60680891D01*
X139954720Y-60533813D02*
X139991490Y-60423504D01*
X139991490Y-60239657D01*
X139954720Y-60166118D01*
X139917951Y-60129348D01*
X139844412Y-60092579D01*
X139770873Y-60092579D01*
X139697334Y-60129348D01*
X139660564Y-60166118D01*
X139623795Y-60239657D01*
X139587025Y-60386735D01*
X139550256Y-60460274D01*
X139513486Y-60497043D01*
X139439947Y-60533813D01*
X139366408Y-60533813D01*
X139292869Y-60497043D01*
X139256100Y-60460274D01*
X139219330Y-60386735D01*
X139219330Y-60202887D01*
X139256100Y-60092579D01*
X139991490Y-59761653D02*
X139219330Y-59761653D01*
X139587025Y-59761653D02*
X139587025Y-59320419D01*
X139991490Y-59320419D02*
X139219330Y-59320419D01*
X139991490Y-58952723D02*
X139219330Y-58952723D01*
X139587025Y-58585028D02*
X139587025Y-58327641D01*
X139991490Y-58217333D02*
X139991490Y-58585028D01*
X139219330Y-58585028D01*
X139219330Y-58217333D01*
X139991490Y-57518712D02*
X139991490Y-57886407D01*
X139219330Y-57886407D01*
X139991490Y-57261325D02*
X139219330Y-57261325D01*
X139219330Y-57077478D01*
X139256100Y-56967169D01*
X139329639Y-56893630D01*
X139403178Y-56856861D01*
X139550256Y-56820091D01*
X139660564Y-56820091D01*
X139807642Y-56856861D01*
X139881181Y-56893630D01*
X139954720Y-56967169D01*
X139991490Y-57077478D01*
X139991490Y-57261325D01*
D19*
X165083404Y-82501881D02*
X165025952Y-82386976D01*
X165025952Y-82157166D01*
X165083404Y-82042262D01*
X165198309Y-81984809D01*
X165657928Y-81984809D01*
X165772833Y-82042262D01*
X165830285Y-82157166D01*
X165830285Y-82386976D01*
X165772833Y-82501881D01*
X165657928Y-82559333D01*
X165543023Y-82559333D01*
X165428119Y-81984809D01*
X165025952Y-82961500D02*
X165830285Y-83593476D01*
X165830285Y-82961500D02*
X165025952Y-83593476D01*
X165830285Y-83880738D02*
X165830285Y-84340357D01*
X166232452Y-84053095D02*
X165198309Y-84053095D01*
X165083404Y-84110547D01*
X165025952Y-84225452D01*
X165025952Y-84340357D01*
X165140857Y-84742523D02*
X165083404Y-84799976D01*
X165025952Y-84742523D01*
X165083404Y-84685071D01*
X165140857Y-84742523D01*
X165025952Y-84742523D01*
X165025952Y-86236285D02*
X166232452Y-86236285D01*
X166232452Y-86523547D01*
X166175000Y-86695904D01*
X166060095Y-86810809D01*
X165945190Y-86868262D01*
X165715380Y-86925714D01*
X165543023Y-86925714D01*
X165313214Y-86868262D01*
X165198309Y-86810809D01*
X165083404Y-86695904D01*
X165025952Y-86523547D01*
X165025952Y-86236285D01*
X165083404Y-87385333D02*
X165025952Y-87557690D01*
X165025952Y-87844952D01*
X165083404Y-87959857D01*
X165140857Y-88017309D01*
X165255761Y-88074762D01*
X165370666Y-88074762D01*
X165485571Y-88017309D01*
X165543023Y-87959857D01*
X165600476Y-87844952D01*
X165657928Y-87615142D01*
X165715380Y-87500238D01*
X165772833Y-87442785D01*
X165887738Y-87385333D01*
X166002642Y-87385333D01*
X166117547Y-87442785D01*
X166175000Y-87500238D01*
X166232452Y-87615142D01*
X166232452Y-87902404D01*
X166175000Y-88074762D01*
X165025952Y-89223809D02*
X165025952Y-88534381D01*
X165025952Y-88879095D02*
X166232452Y-88879095D01*
X166060095Y-88764190D01*
X165945190Y-88649285D01*
X165887738Y-88534381D01*
X165715380Y-89913238D02*
X165772833Y-89798333D01*
X165830285Y-89740881D01*
X165945190Y-89683428D01*
X166002642Y-89683428D01*
X166117547Y-89740881D01*
X166175000Y-89798333D01*
X166232452Y-89913238D01*
X166232452Y-90143047D01*
X166175000Y-90257952D01*
X166117547Y-90315404D01*
X166002642Y-90372857D01*
X165945190Y-90372857D01*
X165830285Y-90315404D01*
X165772833Y-90257952D01*
X165715380Y-90143047D01*
X165715380Y-89913238D01*
X165657928Y-89798333D01*
X165600476Y-89740881D01*
X165485571Y-89683428D01*
X165255761Y-89683428D01*
X165140857Y-89740881D01*
X165083404Y-89798333D01*
X165025952Y-89913238D01*
X165025952Y-90143047D01*
X165083404Y-90257952D01*
X165140857Y-90315404D01*
X165255761Y-90372857D01*
X165485571Y-90372857D01*
X165600476Y-90315404D01*
X165657928Y-90257952D01*
X165715380Y-90143047D01*
X165657928Y-91292095D02*
X165600476Y-91464452D01*
X165543023Y-91521904D01*
X165428119Y-91579357D01*
X165255761Y-91579357D01*
X165140857Y-91521904D01*
X165083404Y-91464452D01*
X165025952Y-91349547D01*
X165025952Y-90889928D01*
X166232452Y-90889928D01*
X166232452Y-91292095D01*
X166175000Y-91407000D01*
X166117547Y-91464452D01*
X166002642Y-91521904D01*
X165887738Y-91521904D01*
X165772833Y-91464452D01*
X165715380Y-91407000D01*
X165657928Y-91292095D01*
X165657928Y-90889928D01*
X166117547Y-92038976D02*
X166175000Y-92096428D01*
X166232452Y-92211333D01*
X166232452Y-92498595D01*
X166175000Y-92613500D01*
X166117547Y-92670952D01*
X166002642Y-92728404D01*
X165887738Y-92728404D01*
X165715380Y-92670952D01*
X165025952Y-91981523D01*
X165025952Y-92728404D01*
X166232452Y-93475285D02*
X166232452Y-93590190D01*
X166175000Y-93705095D01*
X166117547Y-93762547D01*
X166002642Y-93820000D01*
X165772833Y-93877452D01*
X165485571Y-93877452D01*
X165255761Y-93820000D01*
X165140857Y-93762547D01*
X165083404Y-93705095D01*
X165025952Y-93590190D01*
X165025952Y-93475285D01*
X165083404Y-93360381D01*
X165140857Y-93302928D01*
X165255761Y-93245476D01*
X165485571Y-93188023D01*
X165772833Y-93188023D01*
X166002642Y-93245476D01*
X166117547Y-93302928D01*
X166175000Y-93360381D01*
X166232452Y-93475285D01*
D18*
X131561490Y-101999561D02*
X130789330Y-101999561D01*
X130862869Y-101668636D02*
X130826100Y-101631866D01*
X130789330Y-101558327D01*
X130789330Y-101374480D01*
X130826100Y-101300941D01*
X130862869Y-101264171D01*
X130936408Y-101227401D01*
X131009947Y-101227401D01*
X131120256Y-101264171D01*
X131561490Y-101705405D01*
X131561490Y-101227401D01*
X131487951Y-100455241D02*
X131524720Y-100492011D01*
X131561490Y-100602320D01*
X131561490Y-100675859D01*
X131524720Y-100786167D01*
X131451181Y-100859706D01*
X131377642Y-100896476D01*
X131230564Y-100933245D01*
X131120256Y-100933245D01*
X130973178Y-100896476D01*
X130899639Y-100859706D01*
X130826100Y-100786167D01*
X130789330Y-100675859D01*
X130789330Y-100602320D01*
X130826100Y-100492011D01*
X130862869Y-100455241D01*
D19*
X131343171Y-93481433D02*
X131400623Y-93309076D01*
X131458076Y-93251623D01*
X131572980Y-93194171D01*
X131745338Y-93194171D01*
X131860242Y-93251623D01*
X131917695Y-93309076D01*
X131975147Y-93423981D01*
X131975147Y-93883600D01*
X130768647Y-93883600D01*
X130768647Y-93481433D01*
X130826100Y-93366528D01*
X130883552Y-93309076D01*
X130998457Y-93251623D01*
X131113361Y-93251623D01*
X131228266Y-93309076D01*
X131285719Y-93366528D01*
X131343171Y-93481433D01*
X131343171Y-93883600D01*
X131975147Y-92160028D02*
X131343171Y-92160028D01*
X131228266Y-92217481D01*
X131170814Y-92332385D01*
X131170814Y-92562195D01*
X131228266Y-92677100D01*
X131917695Y-92160028D02*
X131975147Y-92274933D01*
X131975147Y-92562195D01*
X131917695Y-92677100D01*
X131802790Y-92734552D01*
X131687885Y-92734552D01*
X131572980Y-92677100D01*
X131515528Y-92562195D01*
X131515528Y-92274933D01*
X131458076Y-92160028D01*
X131170814Y-91757862D02*
X131170814Y-91298242D01*
X130768647Y-91585504D02*
X131802790Y-91585504D01*
X131917695Y-91528052D01*
X131975147Y-91413147D01*
X131975147Y-91298242D01*
X131170814Y-91068433D02*
X131170814Y-90608814D01*
X130768647Y-90896076D02*
X131802790Y-90896076D01*
X131917695Y-90838623D01*
X131975147Y-90723719D01*
X131975147Y-90608814D01*
X131917695Y-89747028D02*
X131975147Y-89861933D01*
X131975147Y-90091742D01*
X131917695Y-90206647D01*
X131802790Y-90264100D01*
X131343171Y-90264100D01*
X131228266Y-90206647D01*
X131170814Y-90091742D01*
X131170814Y-89861933D01*
X131228266Y-89747028D01*
X131343171Y-89689576D01*
X131458076Y-89689576D01*
X131572980Y-90264100D01*
X131975147Y-89172504D02*
X131170814Y-89172504D01*
X131400623Y-89172504D02*
X131285719Y-89115052D01*
X131228266Y-89057600D01*
X131170814Y-88942695D01*
X131170814Y-88827790D01*
X131170814Y-88540528D02*
X131975147Y-88253266D01*
X131170814Y-87966004D02*
X131975147Y-88253266D01*
X132262409Y-88368171D01*
X132319861Y-88425623D01*
X132377314Y-88540528D01*
D18*
X131561490Y-81999561D02*
X130789330Y-81999561D01*
X130862869Y-81668636D02*
X130826100Y-81631866D01*
X130789330Y-81558327D01*
X130789330Y-81374480D01*
X130826100Y-81300941D01*
X130862869Y-81264171D01*
X130936408Y-81227401D01*
X131009947Y-81227401D01*
X131120256Y-81264171D01*
X131561490Y-81705405D01*
X131561490Y-81227401D01*
X131524720Y-80933245D02*
X131561490Y-80822937D01*
X131561490Y-80639089D01*
X131524720Y-80565550D01*
X131487951Y-80528781D01*
X131414412Y-80492011D01*
X131340873Y-80492011D01*
X131267334Y-80528781D01*
X131230564Y-80565550D01*
X131193795Y-80639089D01*
X131157025Y-80786167D01*
X131120256Y-80859706D01*
X131083486Y-80896476D01*
X131009947Y-80933245D01*
X130936408Y-80933245D01*
X130862869Y-80896476D01*
X130826100Y-80859706D01*
X130789330Y-80786167D01*
X130789330Y-80602320D01*
X130826100Y-80492011D01*
X160524720Y-75436331D02*
X160561490Y-75326022D01*
X160561490Y-75142175D01*
X160524720Y-75068636D01*
X160487951Y-75031866D01*
X160414412Y-74995097D01*
X160340873Y-74995097D01*
X160267334Y-75031866D01*
X160230564Y-75068636D01*
X160193795Y-75142175D01*
X160157025Y-75289253D01*
X160120256Y-75362792D01*
X160083486Y-75399561D01*
X160009947Y-75436331D01*
X159936408Y-75436331D01*
X159862869Y-75399561D01*
X159826100Y-75362792D01*
X159789330Y-75289253D01*
X159789330Y-75105405D01*
X159826100Y-74995097D01*
X159789330Y-74737710D02*
X160561490Y-74553862D01*
X160009947Y-74406784D01*
X160561490Y-74259706D01*
X159789330Y-74075859D01*
X160561490Y-73781702D02*
X159789330Y-73781702D01*
X159789330Y-73597855D01*
X159826100Y-73487546D01*
X159899639Y-73414007D01*
X159973178Y-73377238D01*
X160120256Y-73340468D01*
X160230564Y-73340468D01*
X160377642Y-73377238D01*
X160451181Y-73414007D01*
X160524720Y-73487546D01*
X160561490Y-73597855D01*
X160561490Y-73781702D01*
X137874720Y-83691813D02*
X137911490Y-83581504D01*
X137911490Y-83397657D01*
X137874720Y-83324118D01*
X137837951Y-83287348D01*
X137764412Y-83250578D01*
X137690873Y-83250578D01*
X137617334Y-83287348D01*
X137580564Y-83324118D01*
X137543795Y-83397657D01*
X137507025Y-83544735D01*
X137470256Y-83618274D01*
X137433486Y-83655043D01*
X137359947Y-83691813D01*
X137286408Y-83691813D01*
X137212869Y-83655043D01*
X137176100Y-83618274D01*
X137139330Y-83544735D01*
X137139330Y-83360887D01*
X137176100Y-83250578D01*
X137911490Y-82809344D02*
X137874720Y-82882883D01*
X137837951Y-82919653D01*
X137764412Y-82956422D01*
X137543795Y-82956422D01*
X137470256Y-82919653D01*
X137433486Y-82882883D01*
X137396717Y-82809344D01*
X137396717Y-82699036D01*
X137433486Y-82625497D01*
X137470256Y-82588727D01*
X137543795Y-82551958D01*
X137764412Y-82551958D01*
X137837951Y-82588727D01*
X137874720Y-82625497D01*
X137911490Y-82699036D01*
X137911490Y-82809344D01*
X137911490Y-82110723D02*
X137874720Y-82184262D01*
X137801181Y-82221032D01*
X137139330Y-82221032D01*
X137911490Y-81485641D02*
X137507025Y-81485641D01*
X137433486Y-81522411D01*
X137396717Y-81595950D01*
X137396717Y-81743028D01*
X137433486Y-81816567D01*
X137874720Y-81485641D02*
X137911490Y-81559180D01*
X137911490Y-81743028D01*
X137874720Y-81816567D01*
X137801181Y-81853337D01*
X137727642Y-81853337D01*
X137654103Y-81816567D01*
X137617334Y-81743028D01*
X137617334Y-81559180D01*
X137580564Y-81485641D01*
X137911490Y-81117946D02*
X137396717Y-81117946D01*
X137543795Y-81117946D02*
X137470256Y-81081177D01*
X137433486Y-81044407D01*
X137396717Y-80970868D01*
X137396717Y-80897329D01*
X154933329Y-96278390D02*
X154492095Y-96278390D01*
X154712712Y-96278390D02*
X154712712Y-95506230D01*
X154639173Y-95616539D01*
X154565634Y-95690078D01*
X154492095Y-95726847D01*
X155411333Y-95506230D02*
X155484872Y-95506230D01*
X155558411Y-95543000D01*
X155595181Y-95579769D01*
X155631950Y-95653308D01*
X155668720Y-95800386D01*
X155668720Y-95984234D01*
X155631950Y-96131312D01*
X155595181Y-96204851D01*
X155558411Y-96241620D01*
X155484872Y-96278390D01*
X155411333Y-96278390D01*
X155337794Y-96241620D01*
X155301024Y-96204851D01*
X155264255Y-96131312D01*
X155227485Y-95984234D01*
X155227485Y-95800386D01*
X155264255Y-95653308D01*
X155301024Y-95579769D01*
X155337794Y-95543000D01*
X155411333Y-95506230D01*
X156146723Y-95506230D02*
X156220262Y-95506230D01*
X156293801Y-95543000D01*
X156330571Y-95579769D01*
X156367341Y-95653308D01*
X156404110Y-95800386D01*
X156404110Y-95984234D01*
X156367341Y-96131312D01*
X156330571Y-96204851D01*
X156293801Y-96241620D01*
X156220262Y-96278390D01*
X156146723Y-96278390D01*
X156073184Y-96241620D01*
X156036415Y-96204851D01*
X155999645Y-96131312D01*
X155962876Y-95984234D01*
X155962876Y-95800386D01*
X155999645Y-95653308D01*
X156036415Y-95579769D01*
X156073184Y-95543000D01*
X156146723Y-95506230D01*
X157065961Y-95763617D02*
X157065961Y-96278390D01*
X156735036Y-95763617D02*
X156735036Y-96168081D01*
X156771805Y-96241620D01*
X156845344Y-96278390D01*
X156955653Y-96278390D01*
X157029192Y-96241620D01*
X157065961Y-96204851D01*
D20*
X159222552Y-86655720D02*
X159236341Y-86655720D01*
X159229446Y-86679850D02*
X159229446Y-86655720D01*
X159244384Y-86679850D02*
X159244384Y-86655720D01*
X159253576Y-86655720D01*
X159255874Y-86656870D01*
X159257024Y-86658019D01*
X159258173Y-86660317D01*
X159258173Y-86663764D01*
X159257024Y-86666062D01*
X159255874Y-86667211D01*
X159253576Y-86668360D01*
X159244384Y-86668360D01*
X159265067Y-86655720D02*
X159278855Y-86655720D01*
X159271961Y-86679850D02*
X159271961Y-86655720D01*
X159286899Y-86679850D02*
X159286899Y-86655720D01*
X159296091Y-86655720D01*
X159298389Y-86656870D01*
X159299538Y-86658019D01*
X159300687Y-86660317D01*
X159300687Y-86663764D01*
X159299538Y-86666062D01*
X159298389Y-86667211D01*
X159296091Y-86668360D01*
X159286899Y-86668360D01*
X159315625Y-86655720D02*
X159317923Y-86655720D01*
X159320221Y-86656870D01*
X159321370Y-86658019D01*
X159322519Y-86660317D01*
X159323668Y-86664913D01*
X159323668Y-86670658D01*
X159322519Y-86675254D01*
X159321370Y-86677552D01*
X159320221Y-86678701D01*
X159317923Y-86679850D01*
X159315625Y-86679850D01*
X159313327Y-86678701D01*
X159312178Y-86677552D01*
X159311029Y-86675254D01*
X159309880Y-86670658D01*
X159309880Y-86664913D01*
X159311029Y-86660317D01*
X159312178Y-86658019D01*
X159313327Y-86656870D01*
X159315625Y-86655720D01*
X159337457Y-86666062D02*
X159335159Y-86664913D01*
X159334010Y-86663764D01*
X159332861Y-86661466D01*
X159332861Y-86660317D01*
X159334010Y-86658019D01*
X159335159Y-86656870D01*
X159337457Y-86655720D01*
X159342053Y-86655720D01*
X159344351Y-86656870D01*
X159345500Y-86658019D01*
X159346649Y-86660317D01*
X159346649Y-86661466D01*
X159345500Y-86663764D01*
X159344351Y-86664913D01*
X159342053Y-86666062D01*
X159337457Y-86666062D01*
X159335159Y-86667211D01*
X159334010Y-86668360D01*
X159332861Y-86670658D01*
X159332861Y-86675254D01*
X159334010Y-86677552D01*
X159335159Y-86678701D01*
X159337457Y-86679850D01*
X159342053Y-86679850D01*
X159344351Y-86678701D01*
X159345500Y-86677552D01*
X159346649Y-86675254D01*
X159346649Y-86670658D01*
X159345500Y-86668360D01*
X159344351Y-86667211D01*
X159342053Y-86666062D01*
X159370779Y-86679850D02*
X159362736Y-86668360D01*
X159356991Y-86679850D02*
X159356991Y-86655720D01*
X159366183Y-86655720D01*
X159368481Y-86656870D01*
X159369630Y-86658019D01*
X159370779Y-86660317D01*
X159370779Y-86663764D01*
X159369630Y-86666062D01*
X159368481Y-86667211D01*
X159366183Y-86668360D01*
X159356991Y-86668360D01*
X145872552Y-85805720D02*
X145886341Y-85805720D01*
X145879446Y-85829850D02*
X145879446Y-85805720D01*
X145894384Y-85829850D02*
X145894384Y-85805720D01*
X145903576Y-85805720D01*
X145905874Y-85806870D01*
X145907024Y-85808019D01*
X145908173Y-85810317D01*
X145908173Y-85813764D01*
X145907024Y-85816062D01*
X145905874Y-85817211D01*
X145903576Y-85818360D01*
X145894384Y-85818360D01*
X145915067Y-85805720D02*
X145928855Y-85805720D01*
X145921961Y-85829850D02*
X145921961Y-85805720D01*
X145936899Y-85829850D02*
X145936899Y-85805720D01*
X145946091Y-85805720D01*
X145948389Y-85806870D01*
X145949538Y-85808019D01*
X145950687Y-85810317D01*
X145950687Y-85813764D01*
X145949538Y-85816062D01*
X145948389Y-85817211D01*
X145946091Y-85818360D01*
X145936899Y-85818360D01*
X145965625Y-85805720D02*
X145967923Y-85805720D01*
X145970221Y-85806870D01*
X145971370Y-85808019D01*
X145972519Y-85810317D01*
X145973668Y-85814913D01*
X145973668Y-85820658D01*
X145972519Y-85825254D01*
X145971370Y-85827552D01*
X145970221Y-85828701D01*
X145967923Y-85829850D01*
X145965625Y-85829850D01*
X145963327Y-85828701D01*
X145962178Y-85827552D01*
X145961029Y-85825254D01*
X145959880Y-85820658D01*
X145959880Y-85814913D01*
X145961029Y-85810317D01*
X145962178Y-85808019D01*
X145963327Y-85806870D01*
X145965625Y-85805720D01*
X145987457Y-85816062D02*
X145985159Y-85814913D01*
X145984010Y-85813764D01*
X145982861Y-85811466D01*
X145982861Y-85810317D01*
X145984010Y-85808019D01*
X145985159Y-85806870D01*
X145987457Y-85805720D01*
X145992053Y-85805720D01*
X145994351Y-85806870D01*
X145995500Y-85808019D01*
X145996649Y-85810317D01*
X145996649Y-85811466D01*
X145995500Y-85813764D01*
X145994351Y-85814913D01*
X145992053Y-85816062D01*
X145987457Y-85816062D01*
X145985159Y-85817211D01*
X145984010Y-85818360D01*
X145982861Y-85820658D01*
X145982861Y-85825254D01*
X145984010Y-85827552D01*
X145985159Y-85828701D01*
X145987457Y-85829850D01*
X145992053Y-85829850D01*
X145994351Y-85828701D01*
X145995500Y-85827552D01*
X145996649Y-85825254D01*
X145996649Y-85820658D01*
X145995500Y-85818360D01*
X145994351Y-85817211D01*
X145992053Y-85816062D01*
X146020779Y-85829850D02*
X146012736Y-85818360D01*
X146006991Y-85829850D02*
X146006991Y-85805720D01*
X146016183Y-85805720D01*
X146018481Y-85806870D01*
X146019630Y-85808019D01*
X146020779Y-85810317D01*
X146020779Y-85813764D01*
X146019630Y-85816062D01*
X146018481Y-85817211D01*
X146016183Y-85818360D01*
X146006991Y-85818360D01*
X144752402Y-85868070D02*
X144766191Y-85868070D01*
X144759296Y-85892200D02*
X144759296Y-85868070D01*
X144774234Y-85892200D02*
X144774234Y-85868070D01*
X144783426Y-85868070D01*
X144785724Y-85869220D01*
X144786874Y-85870369D01*
X144788023Y-85872667D01*
X144788023Y-85876114D01*
X144786874Y-85878412D01*
X144785724Y-85879561D01*
X144783426Y-85880710D01*
X144774234Y-85880710D01*
X144794917Y-85868070D02*
X144808705Y-85868070D01*
X144801811Y-85892200D02*
X144801811Y-85868070D01*
X144816749Y-85892200D02*
X144816749Y-85868070D01*
X144825941Y-85868070D01*
X144828239Y-85869220D01*
X144829388Y-85870369D01*
X144830537Y-85872667D01*
X144830537Y-85876114D01*
X144829388Y-85878412D01*
X144828239Y-85879561D01*
X144825941Y-85880710D01*
X144816749Y-85880710D01*
X144845475Y-85868070D02*
X144847773Y-85868070D01*
X144850071Y-85869220D01*
X144851220Y-85870369D01*
X144852369Y-85872667D01*
X144853518Y-85877263D01*
X144853518Y-85883008D01*
X144852369Y-85887604D01*
X144851220Y-85889902D01*
X144850071Y-85891051D01*
X144847773Y-85892200D01*
X144845475Y-85892200D01*
X144843177Y-85891051D01*
X144842028Y-85889902D01*
X144840879Y-85887604D01*
X144839730Y-85883008D01*
X144839730Y-85877263D01*
X144840879Y-85872667D01*
X144842028Y-85870369D01*
X144843177Y-85869220D01*
X144845475Y-85868070D01*
X144867307Y-85878412D02*
X144865009Y-85877263D01*
X144863860Y-85876114D01*
X144862711Y-85873816D01*
X144862711Y-85872667D01*
X144863860Y-85870369D01*
X144865009Y-85869220D01*
X144867307Y-85868070D01*
X144871903Y-85868070D01*
X144874201Y-85869220D01*
X144875350Y-85870369D01*
X144876499Y-85872667D01*
X144876499Y-85873816D01*
X144875350Y-85876114D01*
X144874201Y-85877263D01*
X144871903Y-85878412D01*
X144867307Y-85878412D01*
X144865009Y-85879561D01*
X144863860Y-85880710D01*
X144862711Y-85883008D01*
X144862711Y-85887604D01*
X144863860Y-85889902D01*
X144865009Y-85891051D01*
X144867307Y-85892200D01*
X144871903Y-85892200D01*
X144874201Y-85891051D01*
X144875350Y-85889902D01*
X144876499Y-85887604D01*
X144876499Y-85883008D01*
X144875350Y-85880710D01*
X144874201Y-85879561D01*
X144871903Y-85878412D01*
X144900629Y-85892200D02*
X144892586Y-85880710D01*
X144886841Y-85892200D02*
X144886841Y-85868070D01*
X144896033Y-85868070D01*
X144898331Y-85869220D01*
X144899480Y-85870369D01*
X144900629Y-85872667D01*
X144900629Y-85876114D01*
X144899480Y-85878412D01*
X144898331Y-85879561D01*
X144896033Y-85880710D01*
X144886841Y-85880710D01*
X141259902Y-92218070D02*
X141273691Y-92218070D01*
X141266796Y-92242200D02*
X141266796Y-92218070D01*
X141281734Y-92242200D02*
X141281734Y-92218070D01*
X141290926Y-92218070D01*
X141293224Y-92219220D01*
X141294374Y-92220369D01*
X141295523Y-92222667D01*
X141295523Y-92226114D01*
X141294374Y-92228412D01*
X141293224Y-92229561D01*
X141290926Y-92230710D01*
X141281734Y-92230710D01*
X141302417Y-92218070D02*
X141316205Y-92218070D01*
X141309311Y-92242200D02*
X141309311Y-92218070D01*
X141324249Y-92242200D02*
X141324249Y-92218070D01*
X141333441Y-92218070D01*
X141335739Y-92219220D01*
X141336888Y-92220369D01*
X141338037Y-92222667D01*
X141338037Y-92226114D01*
X141336888Y-92228412D01*
X141335739Y-92229561D01*
X141333441Y-92230710D01*
X141324249Y-92230710D01*
X141352975Y-92218070D02*
X141355273Y-92218070D01*
X141357571Y-92219220D01*
X141358720Y-92220369D01*
X141359869Y-92222667D01*
X141361018Y-92227263D01*
X141361018Y-92233008D01*
X141359869Y-92237604D01*
X141358720Y-92239902D01*
X141357571Y-92241051D01*
X141355273Y-92242200D01*
X141352975Y-92242200D01*
X141350677Y-92241051D01*
X141349528Y-92239902D01*
X141348379Y-92237604D01*
X141347230Y-92233008D01*
X141347230Y-92227263D01*
X141348379Y-92222667D01*
X141349528Y-92220369D01*
X141350677Y-92219220D01*
X141352975Y-92218070D01*
X141374807Y-92228412D02*
X141372509Y-92227263D01*
X141371360Y-92226114D01*
X141370211Y-92223816D01*
X141370211Y-92222667D01*
X141371360Y-92220369D01*
X141372509Y-92219220D01*
X141374807Y-92218070D01*
X141379403Y-92218070D01*
X141381701Y-92219220D01*
X141382850Y-92220369D01*
X141383999Y-92222667D01*
X141383999Y-92223816D01*
X141382850Y-92226114D01*
X141381701Y-92227263D01*
X141379403Y-92228412D01*
X141374807Y-92228412D01*
X141372509Y-92229561D01*
X141371360Y-92230710D01*
X141370211Y-92233008D01*
X141370211Y-92237604D01*
X141371360Y-92239902D01*
X141372509Y-92241051D01*
X141374807Y-92242200D01*
X141379403Y-92242200D01*
X141381701Y-92241051D01*
X141382850Y-92239902D01*
X141383999Y-92237604D01*
X141383999Y-92233008D01*
X141382850Y-92230710D01*
X141381701Y-92229561D01*
X141379403Y-92228412D01*
X141408129Y-92242200D02*
X141400086Y-92230710D01*
X141394341Y-92242200D02*
X141394341Y-92218070D01*
X141403533Y-92218070D01*
X141405831Y-92219220D01*
X141406980Y-92220369D01*
X141408129Y-92222667D01*
X141408129Y-92226114D01*
X141406980Y-92228412D01*
X141405831Y-92229561D01*
X141403533Y-92230710D01*
X141394341Y-92230710D01*
D19*
X138651976Y-108892547D02*
X137962547Y-108892547D01*
X138307261Y-108892547D02*
X138307261Y-107686047D01*
X138192357Y-107858404D01*
X138077452Y-107973309D01*
X137962547Y-108030761D01*
X139169047Y-108892547D02*
X139169047Y-107686047D01*
X139571214Y-108547833D01*
X139973380Y-107686047D01*
X139973380Y-108892547D01*
X140449809Y-99736047D02*
X140564714Y-99736047D01*
X140679618Y-99793500D01*
X140737071Y-99850952D01*
X140794523Y-99965857D01*
X140851976Y-100195666D01*
X140851976Y-100482928D01*
X140794523Y-100712738D01*
X140737071Y-100827642D01*
X140679618Y-100885095D01*
X140564714Y-100942547D01*
X140449809Y-100942547D01*
X140334904Y-100885095D01*
X140277452Y-100827642D01*
X140219999Y-100712738D01*
X140162547Y-100482928D01*
X140162547Y-100195666D01*
X140219999Y-99965857D01*
X140277452Y-99850952D01*
X140334904Y-99793500D01*
X140449809Y-99736047D01*
X142058476Y-100942547D02*
X141656309Y-100368023D01*
X141369047Y-100942547D02*
X141369047Y-99736047D01*
X141828666Y-99736047D01*
X141943571Y-99793500D01*
X142001023Y-99850952D01*
X142058476Y-99965857D01*
X142058476Y-100138214D01*
X142001023Y-100253119D01*
X141943571Y-100310571D01*
X141828666Y-100368023D01*
X141369047Y-100368023D01*
X141849809Y-99736047D02*
X141964714Y-99736047D01*
X142079618Y-99793500D01*
X142137071Y-99850952D01*
X142194523Y-99965857D01*
X142251976Y-100195666D01*
X142251976Y-100482928D01*
X142194523Y-100712738D01*
X142137071Y-100827642D01*
X142079618Y-100885095D01*
X141964714Y-100942547D01*
X141849809Y-100942547D01*
X141734904Y-100885095D01*
X141677452Y-100827642D01*
X141619999Y-100712738D01*
X141562547Y-100482928D01*
X141562547Y-100195666D01*
X141619999Y-99965857D01*
X141677452Y-99850952D01*
X141734904Y-99793500D01*
X141849809Y-99736047D01*
X143458476Y-100942547D02*
X143056309Y-100368023D01*
X142769047Y-100942547D02*
X142769047Y-99736047D01*
X143228666Y-99736047D01*
X143343571Y-99793500D01*
X143401023Y-99850952D01*
X143458476Y-99965857D01*
X143458476Y-100138214D01*
X143401023Y-100253119D01*
X143343571Y-100310571D01*
X143228666Y-100368023D01*
X142769047Y-100368023D01*
X139049809Y-99736047D02*
X139164714Y-99736047D01*
X139279618Y-99793500D01*
X139337071Y-99850952D01*
X139394523Y-99965857D01*
X139451976Y-100195666D01*
X139451976Y-100482928D01*
X139394523Y-100712738D01*
X139337071Y-100827642D01*
X139279618Y-100885095D01*
X139164714Y-100942547D01*
X139049809Y-100942547D01*
X138934904Y-100885095D01*
X138877452Y-100827642D01*
X138819999Y-100712738D01*
X138762547Y-100482928D01*
X138762547Y-100195666D01*
X138819999Y-99965857D01*
X138877452Y-99850952D01*
X138934904Y-99793500D01*
X139049809Y-99736047D01*
X140658476Y-100942547D02*
X140256309Y-100368023D01*
X139969047Y-100942547D02*
X139969047Y-99736047D01*
X140428666Y-99736047D01*
X140543571Y-99793500D01*
X140601023Y-99850952D01*
X140658476Y-99965857D01*
X140658476Y-100138214D01*
X140601023Y-100253119D01*
X140543571Y-100310571D01*
X140428666Y-100368023D01*
X139969047Y-100368023D01*
X135550952Y-102487452D02*
X135493500Y-102430000D01*
X135436047Y-102315095D01*
X135436047Y-102027833D01*
X135493500Y-101912928D01*
X135550952Y-101855476D01*
X135665857Y-101798023D01*
X135780761Y-101798023D01*
X135953119Y-101855476D01*
X136642547Y-102544904D01*
X136642547Y-101798023D01*
X136642547Y-101280952D02*
X135436047Y-101280952D01*
X136182928Y-101166047D02*
X136642547Y-100821333D01*
X135838214Y-100821333D02*
X136297833Y-101280952D01*
X135600952Y-104537452D02*
X135543500Y-104480000D01*
X135486047Y-104365095D01*
X135486047Y-104077833D01*
X135543500Y-103962928D01*
X135600952Y-103905476D01*
X135715857Y-103848023D01*
X135830761Y-103848023D01*
X136003119Y-103905476D01*
X136692547Y-104594904D01*
X136692547Y-103848023D01*
X136692547Y-103330952D02*
X135486047Y-103330952D01*
X136232928Y-103216047D02*
X136692547Y-102871333D01*
X135888214Y-102871333D02*
X136347833Y-103330952D01*
X156550952Y-86007452D02*
X156493500Y-85950000D01*
X156436047Y-85835095D01*
X156436047Y-85547833D01*
X156493500Y-85432928D01*
X156550952Y-85375476D01*
X156665857Y-85318023D01*
X156780761Y-85318023D01*
X156953119Y-85375476D01*
X157642547Y-86064904D01*
X157642547Y-85318023D01*
X157642547Y-84800952D02*
X156436047Y-84800952D01*
X157182928Y-84686047D02*
X157642547Y-84341333D01*
X156838214Y-84341333D02*
X157297833Y-84800952D01*
X156550952Y-83881714D02*
X156493500Y-83824262D01*
X156436047Y-83709357D01*
X156436047Y-83422095D01*
X156493500Y-83307190D01*
X156550952Y-83249738D01*
X156665857Y-83192285D01*
X156780761Y-83192285D01*
X156953119Y-83249738D01*
X157642547Y-83939166D01*
X157642547Y-83192285D01*
X156436047Y-90897523D02*
X156436047Y-90150642D01*
X156895666Y-90552809D01*
X156895666Y-90380452D01*
X156953119Y-90265547D01*
X157010571Y-90208095D01*
X157125476Y-90150642D01*
X157412738Y-90150642D01*
X157527642Y-90208095D01*
X157585095Y-90265547D01*
X157642547Y-90380452D01*
X157642547Y-90725166D01*
X157585095Y-90840071D01*
X157527642Y-90897523D01*
X156436047Y-89748476D02*
X156436047Y-89001595D01*
X156895666Y-89403761D01*
X156895666Y-89231404D01*
X156953119Y-89116499D01*
X157010571Y-89059047D01*
X157125476Y-89001595D01*
X157412738Y-89001595D01*
X157527642Y-89059047D01*
X157585095Y-89116499D01*
X157642547Y-89231404D01*
X157642547Y-89576118D01*
X157585095Y-89691023D01*
X157527642Y-89748476D01*
X156436047Y-88254714D02*
X156436047Y-88139809D01*
X156493500Y-88024904D01*
X156550952Y-87967452D01*
X156665857Y-87909999D01*
X156895666Y-87852547D01*
X157182928Y-87852547D01*
X157412738Y-87909999D01*
X157527642Y-87967452D01*
X157585095Y-88024904D01*
X157642547Y-88139809D01*
X157642547Y-88254714D01*
X157585095Y-88369618D01*
X157527642Y-88427071D01*
X157412738Y-88484523D01*
X157182928Y-88541976D01*
X156895666Y-88541976D01*
X156665857Y-88484523D01*
X156550952Y-88427071D01*
X156493500Y-88369618D01*
X156436047Y-88254714D01*
X129891214Y-100999595D02*
X130063571Y-101057047D01*
X130350833Y-101057047D01*
X130465738Y-100999595D01*
X130523190Y-100942142D01*
X130580642Y-100827238D01*
X130580642Y-100712333D01*
X130523190Y-100597428D01*
X130465738Y-100539976D01*
X130350833Y-100482523D01*
X130121023Y-100425071D01*
X130006119Y-100367619D01*
X129948666Y-100310166D01*
X129891214Y-100195261D01*
X129891214Y-100080357D01*
X129948666Y-99965452D01*
X130006119Y-99908000D01*
X130121023Y-99850547D01*
X130408285Y-99850547D01*
X130580642Y-99908000D01*
X131097714Y-101057047D02*
X131097714Y-99850547D01*
X131499881Y-100712333D01*
X131902047Y-99850547D01*
X131902047Y-101057047D01*
X132476571Y-100597428D02*
X133395809Y-100597428D01*
X134602309Y-101057047D02*
X133912881Y-101057047D01*
X134257595Y-101057047D02*
X134257595Y-99850547D01*
X134142690Y-100022904D01*
X134027785Y-100137809D01*
X133912881Y-100195261D01*
X135061928Y-99965452D02*
X135119381Y-99908000D01*
X135234285Y-99850547D01*
X135521547Y-99850547D01*
X135636452Y-99908000D01*
X135693904Y-99965452D01*
X135751357Y-100080357D01*
X135751357Y-100195261D01*
X135693904Y-100367619D01*
X135004476Y-101057047D01*
X135751357Y-101057047D01*
X136498238Y-99850547D02*
X136613142Y-99850547D01*
X136728047Y-99908000D01*
X136785500Y-99965452D01*
X136842952Y-100080357D01*
X136900404Y-100310166D01*
X136900404Y-100597428D01*
X136842952Y-100827238D01*
X136785500Y-100942142D01*
X136728047Y-100999595D01*
X136613142Y-101057047D01*
X136498238Y-101057047D01*
X136383333Y-100999595D01*
X136325881Y-100942142D01*
X136268428Y-100827238D01*
X136210976Y-100597428D01*
X136210976Y-100310166D01*
X136268428Y-100080357D01*
X136325881Y-99965452D01*
X136383333Y-99908000D01*
X136498238Y-99850547D01*
X137934547Y-99850547D02*
X137704738Y-99850547D01*
X137589833Y-99908000D01*
X137532381Y-99965452D01*
X137417476Y-100137809D01*
X137360023Y-100367619D01*
X137360023Y-100827238D01*
X137417476Y-100942142D01*
X137474928Y-100999595D01*
X137589833Y-101057047D01*
X137819642Y-101057047D01*
X137934547Y-100999595D01*
X137992000Y-100942142D01*
X138049452Y-100827238D01*
X138049452Y-100539976D01*
X137992000Y-100425071D01*
X137934547Y-100367619D01*
X137819642Y-100310166D01*
X137589833Y-100310166D01*
X137474928Y-100367619D01*
X137417476Y-100425071D01*
X137360023Y-100539976D01*
D18*
X144981063Y-143359670D02*
X144833985Y-143359670D01*
X144760446Y-143396440D01*
X144723677Y-143433209D01*
X144650138Y-143543518D01*
X144613368Y-143690596D01*
X144613368Y-143984752D01*
X144650138Y-144058291D01*
X144686907Y-144095060D01*
X144760446Y-144131830D01*
X144907524Y-144131830D01*
X144981063Y-144095060D01*
X145017833Y-144058291D01*
X145054602Y-143984752D01*
X145054602Y-143800904D01*
X145017833Y-143727365D01*
X144981063Y-143690596D01*
X144907524Y-143653826D01*
X144760446Y-143653826D01*
X144686907Y-143690596D01*
X144650138Y-143727365D01*
X144613368Y-143800904D01*
X145422298Y-144131830D02*
X145569376Y-144131830D01*
X145642915Y-144095060D01*
X145679684Y-144058291D01*
X145753223Y-143947982D01*
X145789993Y-143800904D01*
X145789993Y-143506748D01*
X145753223Y-143433209D01*
X145716454Y-143396440D01*
X145642915Y-143359670D01*
X145495837Y-143359670D01*
X145422298Y-143396440D01*
X145385528Y-143433209D01*
X145348758Y-143506748D01*
X145348758Y-143690596D01*
X145385528Y-143764135D01*
X145422298Y-143800904D01*
X145495837Y-143837674D01*
X145642915Y-143837674D01*
X145716454Y-143800904D01*
X145753223Y-143764135D01*
X145789993Y-143690596D01*
X146047379Y-143359670D02*
X146525383Y-143359670D01*
X146267997Y-143653826D01*
X146378305Y-143653826D01*
X146451844Y-143690596D01*
X146488614Y-143727365D01*
X146525383Y-143800904D01*
X146525383Y-143984752D01*
X146488614Y-144058291D01*
X146451844Y-144095060D01*
X146378305Y-144131830D01*
X146157688Y-144131830D01*
X146084149Y-144095060D01*
X146047379Y-144058291D01*
X147003387Y-143359670D02*
X147076926Y-143359670D01*
X147150465Y-143396440D01*
X147187235Y-143433209D01*
X147224004Y-143506748D01*
X147260774Y-143653826D01*
X147260774Y-143837674D01*
X147224004Y-143984752D01*
X147187235Y-144058291D01*
X147150465Y-144095060D01*
X147076926Y-144131830D01*
X147003387Y-144131830D01*
X146929848Y-144095060D01*
X146893078Y-144058291D01*
X146856309Y-143984752D01*
X146819539Y-143837674D01*
X146819539Y-143653826D01*
X146856309Y-143506748D01*
X146893078Y-143433209D01*
X146929848Y-143396440D01*
X147003387Y-143359670D01*
X147922625Y-143617057D02*
X147922625Y-144131830D01*
X147738778Y-143322900D02*
X147554930Y-143874443D01*
X148032934Y-143874443D01*
X148253551Y-143359670D02*
X148731555Y-143359670D01*
X148474168Y-143653826D01*
X148584477Y-143653826D01*
X148658016Y-143690596D01*
X148694785Y-143727365D01*
X148731555Y-143800904D01*
X148731555Y-143984752D01*
X148694785Y-144058291D01*
X148658016Y-144095060D01*
X148584477Y-144131830D01*
X148363859Y-144131830D01*
X148290320Y-144095060D01*
X148253551Y-144058291D01*
X149209558Y-143359670D02*
X149283098Y-143359670D01*
X149356637Y-143396440D01*
X149393406Y-143433209D01*
X149430176Y-143506748D01*
X149466945Y-143653826D01*
X149466945Y-143837674D01*
X149430176Y-143984752D01*
X149393406Y-144058291D01*
X149356637Y-144095060D01*
X149283098Y-144131830D01*
X149209558Y-144131830D01*
X149136019Y-144095060D01*
X149099250Y-144058291D01*
X149062480Y-143984752D01*
X149025711Y-143837674D01*
X149025711Y-143653826D01*
X149062480Y-143506748D01*
X149099250Y-143433209D01*
X149136019Y-143396440D01*
X149209558Y-143359670D01*
X149761101Y-143433209D02*
X149797871Y-143396440D01*
X149871410Y-143359670D01*
X150055258Y-143359670D01*
X150128797Y-143396440D01*
X150165566Y-143433209D01*
X150202336Y-143506748D01*
X150202336Y-143580287D01*
X150165566Y-143690596D01*
X149724332Y-144131830D01*
X150202336Y-144131830D01*
X150680339Y-143359670D02*
X150753878Y-143359670D01*
X150827418Y-143396440D01*
X150864187Y-143433209D01*
X150900957Y-143506748D01*
X150937726Y-143653826D01*
X150937726Y-143837674D01*
X150900957Y-143984752D01*
X150864187Y-144058291D01*
X150827418Y-144095060D01*
X150753878Y-144131830D01*
X150680339Y-144131830D01*
X150606800Y-144095060D01*
X150570031Y-144058291D01*
X150533261Y-143984752D01*
X150496492Y-143837674D01*
X150496492Y-143653826D01*
X150533261Y-143506748D01*
X150570031Y-143433209D01*
X150606800Y-143396440D01*
X150680339Y-143359670D01*
X151599578Y-143359670D02*
X151452499Y-143359670D01*
X151378960Y-143396440D01*
X151342191Y-143433209D01*
X151268652Y-143543518D01*
X151231882Y-143690596D01*
X151231882Y-143984752D01*
X151268652Y-144058291D01*
X151305421Y-144095060D01*
X151378960Y-144131830D01*
X151526038Y-144131830D01*
X151599578Y-144095060D01*
X151636347Y-144058291D01*
X151673117Y-143984752D01*
X151673117Y-143800904D01*
X151636347Y-143727365D01*
X151599578Y-143690596D01*
X151526038Y-143653826D01*
X151378960Y-143653826D01*
X151305421Y-143690596D01*
X151268652Y-143727365D01*
X151231882Y-143800904D01*
X152408507Y-144131830D02*
X151967273Y-144131830D01*
X152187890Y-144131830D02*
X152187890Y-143359670D01*
X152114351Y-143469979D01*
X152040812Y-143543518D01*
X151967273Y-143580287D01*
X153143898Y-144131830D02*
X152702663Y-144131830D01*
X152923280Y-144131830D02*
X152923280Y-143359670D01*
X152849741Y-143469979D01*
X152776202Y-143543518D01*
X152702663Y-143580287D01*
X139693368Y-85811213D02*
X140061063Y-85811213D01*
X139619829Y-86031830D02*
X139877216Y-85259670D01*
X140134602Y-86031830D01*
X140281680Y-85259670D02*
X140722915Y-85259670D01*
X140502298Y-86031830D02*
X140502298Y-85259670D01*
X140943532Y-85995060D02*
X141053840Y-86031830D01*
X141237688Y-86031830D01*
X141311227Y-85995060D01*
X141347997Y-85958291D01*
X141384766Y-85884752D01*
X141384766Y-85811213D01*
X141347997Y-85737674D01*
X141311227Y-85700904D01*
X141237688Y-85664135D01*
X141090610Y-85627365D01*
X141017071Y-85590596D01*
X140980301Y-85553826D01*
X140943532Y-85480287D01*
X140943532Y-85406748D01*
X140980301Y-85333209D01*
X141017071Y-85296440D01*
X141090610Y-85259670D01*
X141274458Y-85259670D01*
X141384766Y-85296440D01*
X141678922Y-85811213D02*
X142046618Y-85811213D01*
X141605383Y-86031830D02*
X141862770Y-85259670D01*
X142120157Y-86031830D01*
X142377543Y-86031830D02*
X142377543Y-85259670D01*
X142634930Y-85811213D01*
X142892317Y-85259670D01*
X142892317Y-86031830D01*
X143260012Y-86031830D02*
X143260012Y-85259670D01*
X143443859Y-85259670D01*
X143554168Y-85296440D01*
X143627707Y-85369979D01*
X143664477Y-85443518D01*
X143701246Y-85590596D01*
X143701246Y-85700904D01*
X143664477Y-85847982D01*
X143627707Y-85921521D01*
X143554168Y-85995060D01*
X143443859Y-86031830D01*
X143260012Y-86031830D01*
X143995402Y-85333209D02*
X144032172Y-85296440D01*
X144105711Y-85259670D01*
X144289558Y-85259670D01*
X144363098Y-85296440D01*
X144399867Y-85333209D01*
X144436637Y-85406748D01*
X144436637Y-85480287D01*
X144399867Y-85590596D01*
X143958633Y-86031830D01*
X144436637Y-86031830D01*
X145172027Y-86031830D02*
X144730793Y-86031830D01*
X144951410Y-86031830D02*
X144951410Y-85259670D01*
X144877871Y-85369979D01*
X144804332Y-85443518D01*
X144730793Y-85480287D01*
X145907418Y-85296440D02*
X145833878Y-85259670D01*
X145723570Y-85259670D01*
X145613261Y-85296440D01*
X145539722Y-85369979D01*
X145502953Y-85443518D01*
X145466183Y-85590596D01*
X145466183Y-85700904D01*
X145502953Y-85847982D01*
X145539722Y-85921521D01*
X145613261Y-85995060D01*
X145723570Y-86031830D01*
X145797109Y-86031830D01*
X145907418Y-85995060D01*
X145944187Y-85958291D01*
X145944187Y-85700904D01*
X145797109Y-85700904D01*
X143811830Y-135047015D02*
X143039670Y-135047015D01*
X143039670Y-134752858D01*
X143076440Y-134679319D01*
X143113209Y-134642550D01*
X143186748Y-134605780D01*
X143297057Y-134605780D01*
X143370596Y-134642550D01*
X143407365Y-134679319D01*
X143444135Y-134752858D01*
X143444135Y-135047015D01*
X143407365Y-134274855D02*
X143407365Y-134017468D01*
X143811830Y-133907159D02*
X143811830Y-134274855D01*
X143039670Y-134274855D01*
X143039670Y-133907159D01*
X143775060Y-133613003D02*
X143811830Y-133502695D01*
X143811830Y-133318847D01*
X143775060Y-133245308D01*
X143738291Y-133208538D01*
X143664752Y-133171769D01*
X143591213Y-133171769D01*
X143517674Y-133208538D01*
X143480904Y-133245308D01*
X143444135Y-133318847D01*
X143407365Y-133465925D01*
X143370596Y-133539464D01*
X143333826Y-133576234D01*
X143260287Y-133613003D01*
X143186748Y-133613003D01*
X143113209Y-133576234D01*
X143076440Y-133539464D01*
X143039670Y-133465925D01*
X143039670Y-133282078D01*
X143076440Y-133171769D01*
X143811830Y-132840843D02*
X143039670Y-132840843D01*
X143039670Y-132656996D01*
X143076440Y-132546687D01*
X143149979Y-132473148D01*
X143223518Y-132436378D01*
X143370596Y-132399609D01*
X143480904Y-132399609D01*
X143627982Y-132436378D01*
X143701521Y-132473148D01*
X143775060Y-132546687D01*
X143811830Y-132656996D01*
X143811830Y-132840843D01*
X143039670Y-131921605D02*
X143039670Y-131848066D01*
X143076440Y-131774527D01*
X143113209Y-131737758D01*
X143186748Y-131700988D01*
X143333826Y-131664218D01*
X143517674Y-131664218D01*
X143664752Y-131700988D01*
X143738291Y-131737758D01*
X143775060Y-131774527D01*
X143811830Y-131848066D01*
X143811830Y-131921605D01*
X143775060Y-131995144D01*
X143738291Y-132031914D01*
X143664752Y-132068683D01*
X143517674Y-132105453D01*
X143333826Y-132105453D01*
X143186748Y-132068683D01*
X143113209Y-132031914D01*
X143076440Y-131995144D01*
X143039670Y-131921605D01*
X143297057Y-131002367D02*
X143811830Y-131002367D01*
X143002900Y-131186215D02*
X143554443Y-131370062D01*
X143554443Y-130892058D01*
X143039670Y-130450824D02*
X143039670Y-130377285D01*
X143076440Y-130303746D01*
X143113209Y-130266977D01*
X143186748Y-130230207D01*
X143333826Y-130193438D01*
X143517674Y-130193438D01*
X143664752Y-130230207D01*
X143738291Y-130266977D01*
X143775060Y-130303746D01*
X143811830Y-130377285D01*
X143811830Y-130450824D01*
X143775060Y-130524363D01*
X143738291Y-130561133D01*
X143664752Y-130597902D01*
X143517674Y-130634672D01*
X143333826Y-130634672D01*
X143186748Y-130597902D01*
X143113209Y-130561133D01*
X143076440Y-130524363D01*
X143039670Y-130450824D01*
X143113209Y-129899281D02*
X143076440Y-129862512D01*
X143039670Y-129788973D01*
X143039670Y-129605125D01*
X143076440Y-129531586D01*
X143113209Y-129494817D01*
X143186748Y-129458047D01*
X143260287Y-129458047D01*
X143370596Y-129494817D01*
X143811830Y-129936051D01*
X143811830Y-129458047D01*
X143517674Y-129127121D02*
X143517674Y-128538809D01*
X143811830Y-127766649D02*
X143811830Y-128207883D01*
X143811830Y-127987266D02*
X143039670Y-127987266D01*
X143149979Y-128060805D01*
X143223518Y-128134344D01*
X143260287Y-128207883D01*
X143297057Y-127104798D02*
X143811830Y-127104798D01*
X143002900Y-127288645D02*
X143554443Y-127472493D01*
X143554443Y-126994489D01*
X143039670Y-126553255D02*
X143039670Y-126479716D01*
X143076440Y-126406177D01*
X143113209Y-126369407D01*
X143186748Y-126332638D01*
X143333826Y-126295868D01*
X143517674Y-126295868D01*
X143664752Y-126332638D01*
X143738291Y-126369407D01*
X143775060Y-126406177D01*
X143811830Y-126479716D01*
X143811830Y-126553255D01*
X143775060Y-126626794D01*
X143738291Y-126663563D01*
X143664752Y-126700333D01*
X143517674Y-126737102D01*
X143333826Y-126737102D01*
X143186748Y-126700333D01*
X143113209Y-126663563D01*
X143076440Y-126626794D01*
X143039670Y-126553255D01*
X143811830Y-138857015D02*
X143039670Y-138857015D01*
X143039670Y-138562858D01*
X143076440Y-138489319D01*
X143113209Y-138452550D01*
X143186748Y-138415780D01*
X143297057Y-138415780D01*
X143370596Y-138452550D01*
X143407365Y-138489319D01*
X143444135Y-138562858D01*
X143444135Y-138857015D01*
X143407365Y-138084855D02*
X143407365Y-137827468D01*
X143811830Y-137717159D02*
X143811830Y-138084855D01*
X143039670Y-138084855D01*
X143039670Y-137717159D01*
X143775060Y-137423003D02*
X143811830Y-137312695D01*
X143811830Y-137128847D01*
X143775060Y-137055308D01*
X143738291Y-137018538D01*
X143664752Y-136981769D01*
X143591213Y-136981769D01*
X143517674Y-137018538D01*
X143480904Y-137055308D01*
X143444135Y-137128847D01*
X143407365Y-137275925D01*
X143370596Y-137349464D01*
X143333826Y-137386234D01*
X143260287Y-137423003D01*
X143186748Y-137423003D01*
X143113209Y-137386234D01*
X143076440Y-137349464D01*
X143039670Y-137275925D01*
X143039670Y-137092078D01*
X143076440Y-136981769D01*
X143811830Y-136650843D02*
X143039670Y-136650843D01*
X143039670Y-136466996D01*
X143076440Y-136356687D01*
X143149979Y-136283148D01*
X143223518Y-136246378D01*
X143370596Y-136209609D01*
X143480904Y-136209609D01*
X143627982Y-136246378D01*
X143701521Y-136283148D01*
X143775060Y-136356687D01*
X143811830Y-136466996D01*
X143811830Y-136650843D01*
X143039670Y-135731605D02*
X143039670Y-135658066D01*
X143076440Y-135584527D01*
X143113209Y-135547758D01*
X143186748Y-135510988D01*
X143333826Y-135474218D01*
X143517674Y-135474218D01*
X143664752Y-135510988D01*
X143738291Y-135547758D01*
X143775060Y-135584527D01*
X143811830Y-135658066D01*
X143811830Y-135731605D01*
X143775060Y-135805144D01*
X143738291Y-135841914D01*
X143664752Y-135878683D01*
X143517674Y-135915453D01*
X143333826Y-135915453D01*
X143186748Y-135878683D01*
X143113209Y-135841914D01*
X143076440Y-135805144D01*
X143039670Y-135731605D01*
X143297057Y-134812367D02*
X143811830Y-134812367D01*
X143002900Y-134996215D02*
X143554443Y-135180062D01*
X143554443Y-134702058D01*
X143039670Y-134260824D02*
X143039670Y-134187285D01*
X143076440Y-134113746D01*
X143113209Y-134076977D01*
X143186748Y-134040207D01*
X143333826Y-134003438D01*
X143517674Y-134003438D01*
X143664752Y-134040207D01*
X143738291Y-134076977D01*
X143775060Y-134113746D01*
X143811830Y-134187285D01*
X143811830Y-134260824D01*
X143775060Y-134334363D01*
X143738291Y-134371133D01*
X143664752Y-134407902D01*
X143517674Y-134444672D01*
X143333826Y-134444672D01*
X143186748Y-134407902D01*
X143113209Y-134371133D01*
X143076440Y-134334363D01*
X143039670Y-134260824D01*
X143113209Y-133709281D02*
X143076440Y-133672512D01*
X143039670Y-133598973D01*
X143039670Y-133415125D01*
X143076440Y-133341586D01*
X143113209Y-133304817D01*
X143186748Y-133268047D01*
X143260287Y-133268047D01*
X143370596Y-133304817D01*
X143811830Y-133746051D01*
X143811830Y-133268047D01*
X143517674Y-132937121D02*
X143517674Y-132348809D01*
X143811830Y-131576649D02*
X143811830Y-132017883D01*
X143811830Y-131797266D02*
X143039670Y-131797266D01*
X143149979Y-131870805D01*
X143223518Y-131944344D01*
X143260287Y-132017883D01*
X143297057Y-130914798D02*
X143811830Y-130914798D01*
X143002900Y-131098645D02*
X143554443Y-131282493D01*
X143554443Y-130804489D01*
X143039670Y-130363255D02*
X143039670Y-130289716D01*
X143076440Y-130216177D01*
X143113209Y-130179407D01*
X143186748Y-130142638D01*
X143333826Y-130105868D01*
X143517674Y-130105868D01*
X143664752Y-130142638D01*
X143738291Y-130179407D01*
X143775060Y-130216177D01*
X143811830Y-130289716D01*
X143811830Y-130363255D01*
X143775060Y-130436794D01*
X143738291Y-130473563D01*
X143664752Y-130510333D01*
X143517674Y-130547102D01*
X143333826Y-130547102D01*
X143186748Y-130510333D01*
X143113209Y-130473563D01*
X143076440Y-130436794D01*
X143039670Y-130363255D01*
X155020369Y-134377638D02*
X155792529Y-134377638D01*
X155792529Y-134671794D01*
X155755760Y-134745333D01*
X155718990Y-134782102D01*
X155645451Y-134818872D01*
X155535142Y-134818872D01*
X155461603Y-134782102D01*
X155424834Y-134745333D01*
X155388064Y-134671794D01*
X155388064Y-134377638D01*
X155424834Y-135149798D02*
X155424834Y-135407184D01*
X155020369Y-135517493D02*
X155020369Y-135149798D01*
X155792529Y-135149798D01*
X155792529Y-135517493D01*
X155057139Y-135811649D02*
X155020369Y-135921958D01*
X155020369Y-136105805D01*
X155057139Y-136179344D01*
X155093908Y-136216114D01*
X155167447Y-136252883D01*
X155240986Y-136252883D01*
X155314525Y-136216114D01*
X155351295Y-136179344D01*
X155388064Y-136105805D01*
X155424834Y-135958727D01*
X155461603Y-135885188D01*
X155498373Y-135848418D01*
X155571912Y-135811649D01*
X155645451Y-135811649D01*
X155718990Y-135848418D01*
X155755760Y-135885188D01*
X155792529Y-135958727D01*
X155792529Y-136142575D01*
X155755760Y-136252883D01*
X155020369Y-136583809D02*
X155792529Y-136583809D01*
X155792529Y-136767657D01*
X155755760Y-136877965D01*
X155682220Y-136951504D01*
X155608681Y-136988274D01*
X155461603Y-137025043D01*
X155351295Y-137025043D01*
X155204217Y-136988274D01*
X155130678Y-136951504D01*
X155057139Y-136877965D01*
X155020369Y-136767657D01*
X155020369Y-136583809D01*
X155792529Y-137503047D02*
X155792529Y-137576586D01*
X155755760Y-137650125D01*
X155718990Y-137686895D01*
X155645451Y-137723664D01*
X155498373Y-137760434D01*
X155314525Y-137760434D01*
X155167447Y-137723664D01*
X155093908Y-137686895D01*
X155057139Y-137650125D01*
X155020369Y-137576586D01*
X155020369Y-137503047D01*
X155057139Y-137429508D01*
X155093908Y-137392738D01*
X155167447Y-137355969D01*
X155314525Y-137319199D01*
X155498373Y-137319199D01*
X155645451Y-137355969D01*
X155718990Y-137392738D01*
X155755760Y-137429508D01*
X155792529Y-137503047D01*
X155535142Y-138422285D02*
X155020369Y-138422285D01*
X155829299Y-138238438D02*
X155277756Y-138054590D01*
X155277756Y-138532594D01*
X155792529Y-138973828D02*
X155792529Y-139047367D01*
X155755760Y-139120906D01*
X155718990Y-139157676D01*
X155645451Y-139194445D01*
X155498373Y-139231215D01*
X155314525Y-139231215D01*
X155167447Y-139194445D01*
X155093908Y-139157676D01*
X155057139Y-139120906D01*
X155020369Y-139047367D01*
X155020369Y-138973828D01*
X155057139Y-138900289D01*
X155093908Y-138863519D01*
X155167447Y-138826750D01*
X155314525Y-138789980D01*
X155498373Y-138789980D01*
X155645451Y-138826750D01*
X155718990Y-138863519D01*
X155755760Y-138900289D01*
X155792529Y-138973828D01*
X155718990Y-139525371D02*
X155755760Y-139562140D01*
X155792529Y-139635679D01*
X155792529Y-139819527D01*
X155755760Y-139893066D01*
X155718990Y-139929836D01*
X155645451Y-139966605D01*
X155571912Y-139966605D01*
X155461603Y-139929836D01*
X155020369Y-139488601D01*
X155020369Y-139966605D01*
X155314525Y-140297531D02*
X155314525Y-140885843D01*
X155020369Y-141658003D02*
X155020369Y-141216769D01*
X155020369Y-141437386D02*
X155792529Y-141437386D01*
X155682220Y-141363847D01*
X155608681Y-141290308D01*
X155571912Y-141216769D01*
X155535142Y-142319855D02*
X155020369Y-142319855D01*
X155829299Y-142136007D02*
X155277756Y-141952159D01*
X155277756Y-142430163D01*
X155792529Y-142871398D02*
X155792529Y-142944937D01*
X155755760Y-143018476D01*
X155718990Y-143055245D01*
X155645451Y-143092015D01*
X155498373Y-143128784D01*
X155314525Y-143128784D01*
X155167447Y-143092015D01*
X155093908Y-143055245D01*
X155057139Y-143018476D01*
X155020369Y-142944937D01*
X155020369Y-142871398D01*
X155057139Y-142797858D01*
X155093908Y-142761089D01*
X155167447Y-142724319D01*
X155314525Y-142687550D01*
X155498373Y-142687550D01*
X155645451Y-142724319D01*
X155718990Y-142761089D01*
X155755760Y-142797858D01*
X155792529Y-142871398D01*
X143811830Y-142667015D02*
X143039670Y-142667015D01*
X143039670Y-142372858D01*
X143076440Y-142299319D01*
X143113209Y-142262550D01*
X143186748Y-142225780D01*
X143297057Y-142225780D01*
X143370596Y-142262550D01*
X143407365Y-142299319D01*
X143444135Y-142372858D01*
X143444135Y-142667015D01*
X143407365Y-141894855D02*
X143407365Y-141637468D01*
X143811830Y-141527159D02*
X143811830Y-141894855D01*
X143039670Y-141894855D01*
X143039670Y-141527159D01*
X143775060Y-141233003D02*
X143811830Y-141122695D01*
X143811830Y-140938847D01*
X143775060Y-140865308D01*
X143738291Y-140828538D01*
X143664752Y-140791769D01*
X143591213Y-140791769D01*
X143517674Y-140828538D01*
X143480904Y-140865308D01*
X143444135Y-140938847D01*
X143407365Y-141085925D01*
X143370596Y-141159464D01*
X143333826Y-141196234D01*
X143260287Y-141233003D01*
X143186748Y-141233003D01*
X143113209Y-141196234D01*
X143076440Y-141159464D01*
X143039670Y-141085925D01*
X143039670Y-140902078D01*
X143076440Y-140791769D01*
X143811830Y-140460843D02*
X143039670Y-140460843D01*
X143039670Y-140276996D01*
X143076440Y-140166687D01*
X143149979Y-140093148D01*
X143223518Y-140056378D01*
X143370596Y-140019609D01*
X143480904Y-140019609D01*
X143627982Y-140056378D01*
X143701521Y-140093148D01*
X143775060Y-140166687D01*
X143811830Y-140276996D01*
X143811830Y-140460843D01*
X143039670Y-139541605D02*
X143039670Y-139468066D01*
X143076440Y-139394527D01*
X143113209Y-139357758D01*
X143186748Y-139320988D01*
X143333826Y-139284218D01*
X143517674Y-139284218D01*
X143664752Y-139320988D01*
X143738291Y-139357758D01*
X143775060Y-139394527D01*
X143811830Y-139468066D01*
X143811830Y-139541605D01*
X143775060Y-139615144D01*
X143738291Y-139651914D01*
X143664752Y-139688683D01*
X143517674Y-139725453D01*
X143333826Y-139725453D01*
X143186748Y-139688683D01*
X143113209Y-139651914D01*
X143076440Y-139615144D01*
X143039670Y-139541605D01*
X143297057Y-138622367D02*
X143811830Y-138622367D01*
X143002900Y-138806215D02*
X143554443Y-138990062D01*
X143554443Y-138512058D01*
X143039670Y-138070824D02*
X143039670Y-137997285D01*
X143076440Y-137923746D01*
X143113209Y-137886977D01*
X143186748Y-137850207D01*
X143333826Y-137813438D01*
X143517674Y-137813438D01*
X143664752Y-137850207D01*
X143738291Y-137886977D01*
X143775060Y-137923746D01*
X143811830Y-137997285D01*
X143811830Y-138070824D01*
X143775060Y-138144363D01*
X143738291Y-138181133D01*
X143664752Y-138217902D01*
X143517674Y-138254672D01*
X143333826Y-138254672D01*
X143186748Y-138217902D01*
X143113209Y-138181133D01*
X143076440Y-138144363D01*
X143039670Y-138070824D01*
X143113209Y-137519281D02*
X143076440Y-137482512D01*
X143039670Y-137408973D01*
X143039670Y-137225125D01*
X143076440Y-137151586D01*
X143113209Y-137114817D01*
X143186748Y-137078047D01*
X143260287Y-137078047D01*
X143370596Y-137114817D01*
X143811830Y-137556051D01*
X143811830Y-137078047D01*
X143517674Y-136747121D02*
X143517674Y-136158809D01*
X143811830Y-135386649D02*
X143811830Y-135827883D01*
X143811830Y-135607266D02*
X143039670Y-135607266D01*
X143149979Y-135680805D01*
X143223518Y-135754344D01*
X143260287Y-135827883D01*
X143297057Y-134724798D02*
X143811830Y-134724798D01*
X143002900Y-134908645D02*
X143554443Y-135092493D01*
X143554443Y-134614489D01*
X143039670Y-134173255D02*
X143039670Y-134099716D01*
X143076440Y-134026177D01*
X143113209Y-133989407D01*
X143186748Y-133952638D01*
X143333826Y-133915868D01*
X143517674Y-133915868D01*
X143664752Y-133952638D01*
X143738291Y-133989407D01*
X143775060Y-134026177D01*
X143811830Y-134099716D01*
X143811830Y-134173255D01*
X143775060Y-134246794D01*
X143738291Y-134283563D01*
X143664752Y-134320333D01*
X143517674Y-134357102D01*
X143333826Y-134357102D01*
X143186748Y-134320333D01*
X143113209Y-134283563D01*
X143076440Y-134246794D01*
X143039670Y-134173255D01*
D19*
X142842547Y-116554142D02*
X142842547Y-117243571D01*
X142842547Y-116898857D02*
X141636047Y-116898857D01*
X141808404Y-117013761D01*
X141923309Y-117128666D01*
X141980761Y-117243571D01*
X142038214Y-115519999D02*
X142842547Y-115519999D01*
X142038214Y-116037071D02*
X142670190Y-116037071D01*
X142785095Y-115979618D01*
X142842547Y-115864714D01*
X142842547Y-115692357D01*
X142785095Y-115577452D01*
X142727642Y-115519999D01*
X140745857Y-111742547D02*
X140056428Y-111742547D01*
X140401142Y-111742547D02*
X140401142Y-110536047D01*
X140286238Y-110708404D01*
X140171333Y-110823309D01*
X140056428Y-110880761D01*
X141780000Y-110938214D02*
X141780000Y-111742547D01*
X141262928Y-110938214D02*
X141262928Y-111570190D01*
X141320381Y-111685095D01*
X141435285Y-111742547D01*
X141607642Y-111742547D01*
X141722547Y-111685095D01*
X141780000Y-111627642D01*
X152992547Y-96048023D02*
X152992547Y-96737452D01*
X152992547Y-96392738D02*
X151786047Y-96392738D01*
X151958404Y-96507642D01*
X152073309Y-96622547D01*
X152130761Y-96737452D01*
X151786047Y-95301142D02*
X151786047Y-95186238D01*
X151843500Y-95071333D01*
X151900952Y-95013881D01*
X152015857Y-94956428D01*
X152245666Y-94898976D01*
X152532928Y-94898976D01*
X152762738Y-94956428D01*
X152877642Y-95013881D01*
X152935095Y-95071333D01*
X152992547Y-95186238D01*
X152992547Y-95301142D01*
X152935095Y-95416047D01*
X152877642Y-95473500D01*
X152762738Y-95530952D01*
X152532928Y-95588404D01*
X152245666Y-95588404D01*
X152015857Y-95530952D01*
X151900952Y-95473500D01*
X151843500Y-95416047D01*
X151786047Y-95301142D01*
X152188214Y-94381904D02*
X152992547Y-94381904D01*
X152303119Y-94381904D02*
X152245666Y-94324452D01*
X152188214Y-94209547D01*
X152188214Y-94037190D01*
X152245666Y-93922285D01*
X152360571Y-93864833D01*
X152992547Y-93864833D01*
X152992547Y-98648023D02*
X152992547Y-99337452D01*
X152992547Y-98992738D02*
X151786047Y-98992738D01*
X151958404Y-99107642D01*
X152073309Y-99222547D01*
X152130761Y-99337452D01*
X151786047Y-97556428D02*
X151786047Y-98130952D01*
X152360571Y-98188404D01*
X152303119Y-98130952D01*
X152245666Y-98016047D01*
X152245666Y-97728785D01*
X152303119Y-97613881D01*
X152360571Y-97556428D01*
X152475476Y-97498976D01*
X152762738Y-97498976D01*
X152877642Y-97556428D01*
X152935095Y-97613881D01*
X152992547Y-97728785D01*
X152992547Y-98016047D01*
X152935095Y-98130952D01*
X152877642Y-98188404D01*
X152188214Y-96981904D02*
X153394714Y-96981904D01*
X152245666Y-96981904D02*
X152188214Y-96867000D01*
X152188214Y-96637190D01*
X152245666Y-96522285D01*
X152303119Y-96464833D01*
X152418023Y-96407381D01*
X152762738Y-96407381D01*
X152877642Y-96464833D01*
X152935095Y-96522285D01*
X152992547Y-96637190D01*
X152992547Y-96867000D01*
X152935095Y-96981904D01*
X151786047Y-97405476D02*
X151786047Y-97980000D01*
X152360571Y-98037452D01*
X152303119Y-97980000D01*
X152245666Y-97865095D01*
X152245666Y-97577833D01*
X152303119Y-97462928D01*
X152360571Y-97405476D01*
X152475476Y-97348023D01*
X152762738Y-97348023D01*
X152877642Y-97405476D01*
X152935095Y-97462928D01*
X152992547Y-97577833D01*
X152992547Y-97865095D01*
X152935095Y-97980000D01*
X152877642Y-98037452D01*
X151786047Y-96313881D02*
X151786047Y-96543690D01*
X151843500Y-96658595D01*
X151900952Y-96716047D01*
X152073309Y-96830952D01*
X152303119Y-96888404D01*
X152762738Y-96888404D01*
X152877642Y-96830952D01*
X152935095Y-96773500D01*
X152992547Y-96658595D01*
X152992547Y-96428785D01*
X152935095Y-96313881D01*
X152877642Y-96256428D01*
X152762738Y-96198976D01*
X152475476Y-96198976D01*
X152360571Y-96256428D01*
X152303119Y-96313881D01*
X152245666Y-96428785D01*
X152245666Y-96658595D01*
X152303119Y-96773500D01*
X152360571Y-96830952D01*
X152475476Y-96888404D01*
X152188214Y-95681904D02*
X153394714Y-95681904D01*
X152245666Y-95681904D02*
X152188214Y-95567000D01*
X152188214Y-95337190D01*
X152245666Y-95222285D01*
X152303119Y-95164833D01*
X152418023Y-95107381D01*
X152762738Y-95107381D01*
X152877642Y-95164833D01*
X152935095Y-95222285D01*
X152992547Y-95337190D01*
X152992547Y-95567000D01*
X152935095Y-95681904D01*
X152992547Y-94748023D02*
X152992547Y-95437452D01*
X152992547Y-95092738D02*
X151786047Y-95092738D01*
X151958404Y-95207642D01*
X152073309Y-95322547D01*
X152130761Y-95437452D01*
X151786047Y-94001142D02*
X151786047Y-93886238D01*
X151843500Y-93771333D01*
X151900952Y-93713881D01*
X152015857Y-93656428D01*
X152245666Y-93598976D01*
X152532928Y-93598976D01*
X152762738Y-93656428D01*
X152877642Y-93713881D01*
X152935095Y-93771333D01*
X152992547Y-93886238D01*
X152992547Y-94001142D01*
X152935095Y-94116047D01*
X152877642Y-94173500D01*
X152762738Y-94230952D01*
X152532928Y-94288404D01*
X152245666Y-94288404D01*
X152015857Y-94230952D01*
X151900952Y-94173500D01*
X151843500Y-94116047D01*
X151786047Y-94001142D01*
X151786047Y-92852095D02*
X151786047Y-92737190D01*
X151843500Y-92622285D01*
X151900952Y-92564833D01*
X152015857Y-92507381D01*
X152245666Y-92449928D01*
X152532928Y-92449928D01*
X152762738Y-92507381D01*
X152877642Y-92564833D01*
X152935095Y-92622285D01*
X152992547Y-92737190D01*
X152992547Y-92852095D01*
X152935095Y-92967000D01*
X152877642Y-93024452D01*
X152762738Y-93081904D01*
X152532928Y-93139357D01*
X152245666Y-93139357D01*
X152015857Y-93081904D01*
X151900952Y-93024452D01*
X151843500Y-92967000D01*
X151786047Y-92852095D01*
X152188214Y-91932857D02*
X152992547Y-91932857D01*
X152303119Y-91932857D02*
X152245666Y-91875404D01*
X152188214Y-91760500D01*
X152188214Y-91588142D01*
X152245666Y-91473238D01*
X152360571Y-91415785D01*
X152992547Y-91415785D01*
X155221814Y-131794028D02*
X156026147Y-131794028D01*
X154762195Y-132081290D02*
X155623980Y-132368552D01*
X155623980Y-131621671D01*
X154819647Y-131276957D02*
X154819647Y-130472623D01*
X156026147Y-130989695D01*
X155221814Y-130013004D02*
X156428314Y-130013004D01*
X155279266Y-130013004D02*
X155221814Y-129898100D01*
X155221814Y-129668290D01*
X155279266Y-129553385D01*
X155336719Y-129495933D01*
X155451623Y-129438481D01*
X155796338Y-129438481D01*
X155911242Y-129495933D01*
X155968695Y-129553385D01*
X156026147Y-129668290D01*
X156026147Y-129898100D01*
X155968695Y-130013004D01*
X141886814Y-141024195D02*
X142691147Y-141024195D01*
X141427195Y-141311457D02*
X142288980Y-141598718D01*
X142288980Y-140851838D01*
X141484647Y-140507123D02*
X141484647Y-139702790D01*
X142691147Y-140219861D01*
X141886814Y-139243171D02*
X143093314Y-139243171D01*
X141944266Y-139243171D02*
X141886814Y-139128266D01*
X141886814Y-138898457D01*
X141944266Y-138783552D01*
X142001719Y-138726099D01*
X142116623Y-138668647D01*
X142461338Y-138668647D01*
X142576242Y-138726099D01*
X142633695Y-138783552D01*
X142691147Y-138898457D01*
X142691147Y-139128266D01*
X142633695Y-139243171D01*
X141886814Y-137214195D02*
X142691147Y-137214195D01*
X141427195Y-137501457D02*
X142288980Y-137788718D01*
X142288980Y-137041838D01*
X141484647Y-136697123D02*
X141484647Y-135892790D01*
X142691147Y-136409861D01*
X141886814Y-135433171D02*
X143093314Y-135433171D01*
X141944266Y-135433171D02*
X141886814Y-135318266D01*
X141886814Y-135088457D01*
X141944266Y-134973552D01*
X142001719Y-134916099D01*
X142116623Y-134858647D01*
X142461338Y-134858647D01*
X142576242Y-134916099D01*
X142633695Y-134973552D01*
X142691147Y-135088457D01*
X142691147Y-135318266D01*
X142633695Y-135433171D01*
X141886814Y-133404195D02*
X142691147Y-133404195D01*
X141427195Y-133691457D02*
X142288980Y-133978718D01*
X142288980Y-133231838D01*
X141484647Y-132887123D02*
X141484647Y-132082790D01*
X142691147Y-132599861D01*
X141886814Y-131623171D02*
X143093314Y-131623171D01*
X141944266Y-131623171D02*
X141886814Y-131508266D01*
X141886814Y-131278457D01*
X141944266Y-131163552D01*
X142001719Y-131106099D01*
X142116623Y-131048647D01*
X142461338Y-131048647D01*
X142576242Y-131106099D01*
X142633695Y-131163552D01*
X142691147Y-131278457D01*
X142691147Y-131508266D01*
X142633695Y-131623171D01*
X157632547Y-93982238D02*
X157632547Y-94671666D01*
X157632547Y-94326952D02*
X156426047Y-94326952D01*
X156598404Y-94441857D01*
X156713309Y-94556761D01*
X156770761Y-94671666D01*
X156426047Y-93235357D02*
X156426047Y-93120452D01*
X156483500Y-93005547D01*
X156540952Y-92948095D01*
X156655857Y-92890642D01*
X156885666Y-92833190D01*
X157172928Y-92833190D01*
X157402738Y-92890642D01*
X157517642Y-92948095D01*
X157575095Y-93005547D01*
X157632547Y-93120452D01*
X157632547Y-93235357D01*
X157575095Y-93350261D01*
X157517642Y-93407714D01*
X157402738Y-93465166D01*
X157172928Y-93522618D01*
X156885666Y-93522618D01*
X156655857Y-93465166D01*
X156540952Y-93407714D01*
X156483500Y-93350261D01*
X156426047Y-93235357D01*
X156426047Y-92086309D02*
X156426047Y-91971404D01*
X156483500Y-91856499D01*
X156540952Y-91799047D01*
X156655857Y-91741595D01*
X156885666Y-91684142D01*
X157172928Y-91684142D01*
X157402738Y-91741595D01*
X157517642Y-91799047D01*
X157575095Y-91856499D01*
X157632547Y-91971404D01*
X157632547Y-92086309D01*
X157575095Y-92201214D01*
X157517642Y-92258666D01*
X157402738Y-92316118D01*
X157172928Y-92373571D01*
X156885666Y-92373571D01*
X156655857Y-92316118D01*
X156540952Y-92258666D01*
X156483500Y-92201214D01*
X156426047Y-92086309D01*
X156828214Y-91167071D02*
X158034714Y-91167071D01*
X156885666Y-91167071D02*
X156828214Y-91052166D01*
X156828214Y-90822357D01*
X156885666Y-90707452D01*
X156943119Y-90649999D01*
X157058023Y-90592547D01*
X157402738Y-90592547D01*
X157517642Y-90649999D01*
X157575095Y-90707452D01*
X157632547Y-90822357D01*
X157632547Y-91052166D01*
X157575095Y-91167071D01*
X140873076Y-91646147D02*
X140183647Y-91646147D01*
X140528361Y-91646147D02*
X140528361Y-90439647D01*
X140413457Y-90612004D01*
X140298552Y-90726909D01*
X140183647Y-90784361D01*
X141619957Y-90439647D02*
X141734861Y-90439647D01*
X141849766Y-90497100D01*
X141907218Y-90554552D01*
X141964671Y-90669457D01*
X142022123Y-90899266D01*
X142022123Y-91186528D01*
X141964671Y-91416338D01*
X141907218Y-91531242D01*
X141849766Y-91588695D01*
X141734861Y-91646147D01*
X141619957Y-91646147D01*
X141505052Y-91588695D01*
X141447599Y-91531242D01*
X141390147Y-91416338D01*
X141332695Y-91186528D01*
X141332695Y-90899266D01*
X141390147Y-90669457D01*
X141447599Y-90554552D01*
X141505052Y-90497100D01*
X141619957Y-90439647D01*
X143056266Y-90841814D02*
X143056266Y-91646147D01*
X142539195Y-90841814D02*
X142539195Y-91473790D01*
X142596647Y-91588695D01*
X142711552Y-91646147D01*
X142883909Y-91646147D01*
X142998814Y-91588695D01*
X143056266Y-91531242D01*
X146183647Y-85981790D02*
X146183647Y-86671218D01*
X146183647Y-86326504D02*
X144977147Y-86326504D01*
X145149504Y-86441409D01*
X145264409Y-86556314D01*
X145321861Y-86671218D01*
X144977147Y-85234909D02*
X144977147Y-85120004D01*
X145034600Y-85005099D01*
X145092052Y-84947647D01*
X145206957Y-84890195D01*
X145436766Y-84832742D01*
X145724028Y-84832742D01*
X145953838Y-84890195D01*
X146068742Y-84947647D01*
X146126195Y-85005099D01*
X146183647Y-85120004D01*
X146183647Y-85234909D01*
X146126195Y-85349814D01*
X146068742Y-85407266D01*
X145953838Y-85464718D01*
X145724028Y-85522171D01*
X145436766Y-85522171D01*
X145206957Y-85464718D01*
X145092052Y-85407266D01*
X145034600Y-85349814D01*
X144977147Y-85234909D01*
X145379314Y-83798599D02*
X146183647Y-83798599D01*
X145379314Y-84315671D02*
X146011290Y-84315671D01*
X146126195Y-84258218D01*
X146183647Y-84143314D01*
X146183647Y-83970957D01*
X146126195Y-83856052D01*
X146068742Y-83798599D01*
X142778076Y-91646147D02*
X142088647Y-91646147D01*
X142433361Y-91646147D02*
X142433361Y-90439647D01*
X142318457Y-90612004D01*
X142203552Y-90726909D01*
X142088647Y-90784361D01*
X143524957Y-90439647D02*
X143639861Y-90439647D01*
X143754766Y-90497100D01*
X143812218Y-90554552D01*
X143869671Y-90669457D01*
X143927123Y-90899266D01*
X143927123Y-91186528D01*
X143869671Y-91416338D01*
X143812218Y-91531242D01*
X143754766Y-91588695D01*
X143639861Y-91646147D01*
X143524957Y-91646147D01*
X143410052Y-91588695D01*
X143352599Y-91531242D01*
X143295147Y-91416338D01*
X143237695Y-91186528D01*
X143237695Y-90899266D01*
X143295147Y-90669457D01*
X143352599Y-90554552D01*
X143410052Y-90497100D01*
X143524957Y-90439647D01*
X144674004Y-90439647D02*
X144788909Y-90439647D01*
X144903814Y-90497100D01*
X144961266Y-90554552D01*
X145018718Y-90669457D01*
X145076171Y-90899266D01*
X145076171Y-91186528D01*
X145018718Y-91416338D01*
X144961266Y-91531242D01*
X144903814Y-91588695D01*
X144788909Y-91646147D01*
X144674004Y-91646147D01*
X144559099Y-91588695D01*
X144501647Y-91531242D01*
X144444195Y-91416338D01*
X144386742Y-91186528D01*
X144386742Y-90899266D01*
X144444195Y-90669457D01*
X144501647Y-90554552D01*
X144559099Y-90497100D01*
X144674004Y-90439647D01*
X145593242Y-90841814D02*
X145593242Y-91646147D01*
X145593242Y-90956719D02*
X145650695Y-90899266D01*
X145765599Y-90841814D01*
X145937957Y-90841814D01*
X146052861Y-90899266D01*
X146110314Y-91014171D01*
X146110314Y-91646147D01*
X147638862Y-86248647D02*
X146949433Y-86248647D01*
X147294147Y-86248647D02*
X147294147Y-85042147D01*
X147179242Y-85214504D01*
X147064338Y-85329409D01*
X146949433Y-85386861D01*
X148385742Y-85042147D02*
X148500647Y-85042147D01*
X148615552Y-85099600D01*
X148673004Y-85157052D01*
X148730457Y-85271957D01*
X148787909Y-85501766D01*
X148787909Y-85789028D01*
X148730457Y-86018838D01*
X148673004Y-86133742D01*
X148615552Y-86191195D01*
X148500647Y-86248647D01*
X148385742Y-86248647D01*
X148270838Y-86191195D01*
X148213385Y-86133742D01*
X148155933Y-86018838D01*
X148098481Y-85789028D01*
X148098481Y-85501766D01*
X148155933Y-85271957D01*
X148213385Y-85157052D01*
X148270838Y-85099600D01*
X148385742Y-85042147D01*
X149534790Y-85042147D02*
X149649695Y-85042147D01*
X149764600Y-85099600D01*
X149822052Y-85157052D01*
X149879504Y-85271957D01*
X149936957Y-85501766D01*
X149936957Y-85789028D01*
X149879504Y-86018838D01*
X149822052Y-86133742D01*
X149764600Y-86191195D01*
X149649695Y-86248647D01*
X149534790Y-86248647D01*
X149419885Y-86191195D01*
X149362433Y-86133742D01*
X149304981Y-86018838D01*
X149247528Y-85789028D01*
X149247528Y-85501766D01*
X149304981Y-85271957D01*
X149362433Y-85157052D01*
X149419885Y-85099600D01*
X149534790Y-85042147D01*
X150454028Y-85444314D02*
X150454028Y-86248647D01*
X150454028Y-85559219D02*
X150511481Y-85501766D01*
X150626385Y-85444314D01*
X150798742Y-85444314D01*
X150913647Y-85501766D01*
X150971100Y-85616671D01*
X150971100Y-86248647D01*
X146176976Y-97967547D02*
X145487547Y-97967547D01*
X145832261Y-97967547D02*
X145832261Y-96761047D01*
X145717357Y-96933404D01*
X145602452Y-97048309D01*
X145487547Y-97105761D01*
X146923857Y-96761047D02*
X147038761Y-96761047D01*
X147153666Y-96818500D01*
X147211118Y-96875952D01*
X147268571Y-96990857D01*
X147326023Y-97220666D01*
X147326023Y-97507928D01*
X147268571Y-97737738D01*
X147211118Y-97852642D01*
X147153666Y-97910095D01*
X147038761Y-97967547D01*
X146923857Y-97967547D01*
X146808952Y-97910095D01*
X146751499Y-97852642D01*
X146694047Y-97737738D01*
X146636595Y-97507928D01*
X146636595Y-97220666D01*
X146694047Y-96990857D01*
X146751499Y-96875952D01*
X146808952Y-96818500D01*
X146923857Y-96761047D01*
X148072904Y-96761047D02*
X148187809Y-96761047D01*
X148302714Y-96818500D01*
X148360166Y-96875952D01*
X148417618Y-96990857D01*
X148475071Y-97220666D01*
X148475071Y-97507928D01*
X148417618Y-97737738D01*
X148360166Y-97852642D01*
X148302714Y-97910095D01*
X148187809Y-97967547D01*
X148072904Y-97967547D01*
X147957999Y-97910095D01*
X147900547Y-97852642D01*
X147843095Y-97737738D01*
X147785642Y-97507928D01*
X147785642Y-97220666D01*
X147843095Y-96990857D01*
X147900547Y-96875952D01*
X147957999Y-96818500D01*
X148072904Y-96761047D01*
X148992142Y-97163214D02*
X148992142Y-97967547D01*
X148992142Y-97278119D02*
X149049595Y-97220666D01*
X149164499Y-97163214D01*
X149336857Y-97163214D01*
X149451761Y-97220666D01*
X149509214Y-97335571D01*
X149509214Y-97967547D01*
X138563647Y-92331790D02*
X138563647Y-93021218D01*
X138563647Y-92676504D02*
X137357147Y-92676504D01*
X137529504Y-92791409D01*
X137644409Y-92906314D01*
X137701861Y-93021218D01*
X137357147Y-91240195D02*
X137357147Y-91814718D01*
X137931671Y-91872171D01*
X137874219Y-91814718D01*
X137816766Y-91699814D01*
X137816766Y-91412552D01*
X137874219Y-91297647D01*
X137931671Y-91240195D01*
X138046576Y-91182742D01*
X138333838Y-91182742D01*
X138448742Y-91240195D01*
X138506195Y-91297647D01*
X138563647Y-91412552D01*
X138563647Y-91699814D01*
X138506195Y-91814718D01*
X138448742Y-91872171D01*
X137759314Y-90665671D02*
X138965814Y-90665671D01*
X137816766Y-90665671D02*
X137759314Y-90550766D01*
X137759314Y-90320957D01*
X137816766Y-90206052D01*
X137874219Y-90148599D01*
X137989123Y-90091147D01*
X138333838Y-90091147D01*
X138448742Y-90148599D01*
X138506195Y-90206052D01*
X138563647Y-90320957D01*
X138563647Y-90550766D01*
X138506195Y-90665671D01*
X138563647Y-89791790D02*
X138563647Y-90481218D01*
X138563647Y-90136504D02*
X137357147Y-90136504D01*
X137529504Y-90251409D01*
X137644409Y-90366314D01*
X137701861Y-90481218D01*
X137357147Y-88700195D02*
X137357147Y-89274718D01*
X137931671Y-89332171D01*
X137874219Y-89274718D01*
X137816766Y-89159814D01*
X137816766Y-88872552D01*
X137874219Y-88757647D01*
X137931671Y-88700195D01*
X138046576Y-88642742D01*
X138333838Y-88642742D01*
X138448742Y-88700195D01*
X138506195Y-88757647D01*
X138563647Y-88872552D01*
X138563647Y-89159814D01*
X138506195Y-89274718D01*
X138448742Y-89332171D01*
X137759314Y-88125671D02*
X138965814Y-88125671D01*
X137816766Y-88125671D02*
X137759314Y-88010766D01*
X137759314Y-87780957D01*
X137816766Y-87666052D01*
X137874219Y-87608599D01*
X137989123Y-87551147D01*
X138333838Y-87551147D01*
X138448742Y-87608599D01*
X138506195Y-87666052D01*
X138563647Y-87780957D01*
X138563647Y-88010766D01*
X138506195Y-88125671D01*
X149358647Y-81831623D02*
X149358647Y-82521052D01*
X149358647Y-82176338D02*
X148152147Y-82176338D01*
X148324504Y-82291242D01*
X148439409Y-82406147D01*
X148496861Y-82521052D01*
X148554314Y-80797481D02*
X149358647Y-80797481D01*
X148554314Y-81314552D02*
X149186290Y-81314552D01*
X149301195Y-81257100D01*
X149358647Y-81142195D01*
X149358647Y-80969838D01*
X149301195Y-80854933D01*
X149243742Y-80797481D01*
X146183647Y-89035838D02*
X146183647Y-89725266D01*
X146183647Y-89380552D02*
X144977147Y-89380552D01*
X145149504Y-89495457D01*
X145264409Y-89610361D01*
X145321861Y-89725266D01*
X144977147Y-88288957D02*
X144977147Y-88174052D01*
X145034600Y-88059147D01*
X145092052Y-88001695D01*
X145206957Y-87944242D01*
X145436766Y-87886790D01*
X145724028Y-87886790D01*
X145953838Y-87944242D01*
X146068742Y-88001695D01*
X146126195Y-88059147D01*
X146183647Y-88174052D01*
X146183647Y-88288957D01*
X146126195Y-88403861D01*
X146068742Y-88461314D01*
X145953838Y-88518766D01*
X145724028Y-88576218D01*
X145436766Y-88576218D01*
X145206957Y-88518766D01*
X145092052Y-88461314D01*
X145034600Y-88403861D01*
X144977147Y-88288957D01*
X144977147Y-87139909D02*
X144977147Y-87025004D01*
X145034600Y-86910099D01*
X145092052Y-86852647D01*
X145206957Y-86795195D01*
X145436766Y-86737742D01*
X145724028Y-86737742D01*
X145953838Y-86795195D01*
X146068742Y-86852647D01*
X146126195Y-86910099D01*
X146183647Y-87025004D01*
X146183647Y-87139909D01*
X146126195Y-87254814D01*
X146068742Y-87312266D01*
X145953838Y-87369718D01*
X145724028Y-87427171D01*
X145436766Y-87427171D01*
X145206957Y-87369718D01*
X145092052Y-87312266D01*
X145034600Y-87254814D01*
X144977147Y-87139909D01*
X145379314Y-86220671D02*
X146183647Y-86220671D01*
X145494219Y-86220671D02*
X145436766Y-86163218D01*
X145379314Y-86048314D01*
X145379314Y-85875957D01*
X145436766Y-85761052D01*
X145551671Y-85703599D01*
X146183647Y-85703599D01*
M02*
