G04 #@! TF.GenerationSoftware,KiCad,Pcbnew,5.1.8+dfsg1-1~bpo10+1*
G04 #@! TF.CreationDate,2021-01-22T07:11:29+01:00*
G04 #@! TF.ProjectId,easyhive,65617379-6869-4766-952e-6b696361645f,rev?*
G04 #@! TF.SameCoordinates,Original*
G04 #@! TF.FileFunction,Legend,Bot*
G04 #@! TF.FilePolarity,Positive*
%FSLAX46Y46*%
G04 Gerber Fmt 4.6, Leading zero omitted, Abs format (unit mm)*
G04 Created by KiCad (PCBNEW 5.1.8+dfsg1-1~bpo10+1) date 2021-01-22 07:11:29*
%MOMM*%
%LPD*%
G01*
G04 APERTURE LIST*
%ADD10C,0.127000*%
%ADD11C,0.150000*%
%ADD12C,0.203200*%
%ADD13C,0.100000*%
%ADD14C,0.152400*%
G04 APERTURE END LIST*
D10*
X160400000Y-131650000D02*
X159800000Y-131650000D01*
X160400000Y-132750000D02*
X159800000Y-132750000D01*
X159800000Y-131650000D02*
X159800000Y-131900000D01*
X159800000Y-131900000D02*
X159800000Y-132500000D01*
X159800000Y-132500000D02*
X159800000Y-132750000D01*
X160400000Y-131650000D02*
X160400000Y-131900000D01*
X160400000Y-131900000D02*
X160400000Y-132500000D01*
X160400000Y-132500000D02*
X160400000Y-132750000D01*
X160400000Y-131900000D02*
X159800000Y-131900000D01*
X160400000Y-132500000D02*
X159800000Y-132500000D01*
D11*
X137351100Y-77368600D02*
X137351100Y-79368600D01*
X137351100Y-78868600D02*
X137351100Y-77368600D01*
X138113100Y-78241600D02*
X137351100Y-77368600D01*
X136601100Y-77368600D02*
X138101100Y-77368600D01*
X136601100Y-78257600D02*
X138101100Y-78257600D01*
X136601100Y-78257600D02*
X137351100Y-77368600D01*
X151436100Y-74923600D02*
X149936100Y-74923600D01*
X150559100Y-74812600D02*
X149924100Y-74050600D01*
X150686100Y-73423600D02*
X150686100Y-74923600D01*
X150686100Y-74923600D02*
X150686100Y-72923600D01*
X150686100Y-74939600D02*
X151448100Y-74050600D01*
X151436100Y-74034600D02*
X149936100Y-74034600D01*
D10*
X149800000Y-135100000D02*
X149800000Y-134500000D01*
X150400000Y-135100000D02*
X150400000Y-134500000D01*
X149800000Y-135100000D02*
X149550000Y-135100000D01*
X150400000Y-135100000D02*
X149800000Y-135100000D01*
X150650000Y-135100000D02*
X150400000Y-135100000D01*
X149800000Y-134500000D02*
X149550000Y-134500000D01*
X150400000Y-134500000D02*
X149800000Y-134500000D01*
X150650000Y-134500000D02*
X150400000Y-134500000D01*
X149550000Y-135100000D02*
X149550000Y-134500000D01*
X150650000Y-135100000D02*
X150650000Y-134500000D01*
X150950000Y-133400000D02*
X150950000Y-132800000D01*
X151550000Y-133400000D02*
X151550000Y-132800000D01*
X150950000Y-133400000D02*
X150700000Y-133400000D01*
X151550000Y-133400000D02*
X150950000Y-133400000D01*
X151800000Y-133400000D02*
X151550000Y-133400000D01*
X150950000Y-132800000D02*
X150700000Y-132800000D01*
X151550000Y-132800000D02*
X150950000Y-132800000D01*
X151800000Y-132800000D02*
X151550000Y-132800000D01*
X150700000Y-133400000D02*
X150700000Y-132800000D01*
X151800000Y-133400000D02*
X151800000Y-132800000D01*
X146500000Y-131950000D02*
X146500000Y-131350000D01*
X147100000Y-131950000D02*
X147100000Y-131350000D01*
X146500000Y-131950000D02*
X146250000Y-131950000D01*
X147100000Y-131950000D02*
X146500000Y-131950000D01*
X147350000Y-131950000D02*
X147100000Y-131950000D01*
X146500000Y-131350000D02*
X146250000Y-131350000D01*
X147100000Y-131350000D02*
X146500000Y-131350000D01*
X147350000Y-131350000D02*
X147100000Y-131350000D01*
X146250000Y-131950000D02*
X146250000Y-131350000D01*
X147350000Y-131950000D02*
X147350000Y-131350000D01*
X148400000Y-133400000D02*
X148400000Y-132800000D01*
X149000000Y-133400000D02*
X149000000Y-132800000D01*
X148400000Y-133400000D02*
X148150000Y-133400000D01*
X149000000Y-133400000D02*
X148400000Y-133400000D01*
X149250000Y-133400000D02*
X149000000Y-133400000D01*
X148400000Y-132800000D02*
X148150000Y-132800000D01*
X149000000Y-132800000D02*
X148400000Y-132800000D01*
X149250000Y-132800000D02*
X149000000Y-132800000D01*
X148150000Y-133400000D02*
X148150000Y-132800000D01*
X149250000Y-133400000D02*
X149250000Y-132800000D01*
D11*
X141673774Y-131929008D02*
G75*
G03*
X141673774Y-131929008I-125000J0D01*
G01*
X141740000Y-131603000D02*
X140440000Y-131603000D01*
X140440000Y-133603000D02*
X141740000Y-133603000D01*
X155078300Y-82280200D02*
G75*
G03*
X155078300Y-82280200I-125000J0D01*
G01*
D10*
X153696100Y-84948600D02*
X155296100Y-84948600D01*
X155296100Y-81948600D02*
X153696100Y-81948600D01*
D11*
X145310800Y-104814200D02*
G75*
G03*
X145310800Y-104814200I-250000J0D01*
G01*
D10*
X136700000Y-104175000D02*
X136700000Y-113175000D01*
X136700000Y-113175000D02*
X145700000Y-113175000D01*
X145700000Y-113175000D02*
X145700000Y-104175000D01*
X145700000Y-104175000D02*
X136700000Y-104175000D01*
X157930000Y-89370000D02*
X157330000Y-89370000D01*
X157930000Y-90470000D02*
X157330000Y-90470000D01*
X157330000Y-89370000D02*
X157330000Y-89620000D01*
X157330000Y-89620000D02*
X157330000Y-90220000D01*
X157330000Y-90220000D02*
X157330000Y-90470000D01*
X157930000Y-89370000D02*
X157930000Y-89620000D01*
X157930000Y-89620000D02*
X157930000Y-90220000D01*
X157930000Y-90220000D02*
X157930000Y-90470000D01*
X157930000Y-89620000D02*
X157330000Y-89620000D01*
X157930000Y-90220000D02*
X157330000Y-90220000D01*
X136801100Y-92038600D02*
X136801100Y-92638600D01*
X137901100Y-92038600D02*
X137901100Y-92638600D01*
X136801100Y-92638600D02*
X137051100Y-92638600D01*
X137051100Y-92638600D02*
X137651100Y-92638600D01*
X137651100Y-92638600D02*
X137901100Y-92638600D01*
X136801100Y-92038600D02*
X137051100Y-92038600D01*
X137051100Y-92038600D02*
X137651100Y-92038600D01*
X137651100Y-92038600D02*
X137901100Y-92038600D01*
X137051100Y-92038600D02*
X137051100Y-92638600D01*
X137651100Y-92038600D02*
X137651100Y-92638600D01*
X137901100Y-94543600D02*
X137901100Y-93943600D01*
X136801100Y-94543600D02*
X136801100Y-93943600D01*
X137901100Y-93943600D02*
X137651100Y-93943600D01*
X137651100Y-93943600D02*
X137051100Y-93943600D01*
X137051100Y-93943600D02*
X136801100Y-93943600D01*
X137901100Y-94543600D02*
X137651100Y-94543600D01*
X137651100Y-94543600D02*
X137051100Y-94543600D01*
X137051100Y-94543600D02*
X136801100Y-94543600D01*
X137651100Y-94543600D02*
X137651100Y-93943600D01*
X137051100Y-94543600D02*
X137051100Y-93943600D01*
X148061100Y-81526100D02*
X148061100Y-80926100D01*
X146961100Y-81526100D02*
X146961100Y-80926100D01*
X148061100Y-80926100D02*
X147811100Y-80926100D01*
X147811100Y-80926100D02*
X147211100Y-80926100D01*
X147211100Y-80926100D02*
X146961100Y-80926100D01*
X148061100Y-81526100D02*
X147811100Y-81526100D01*
X147811100Y-81526100D02*
X147211100Y-81526100D01*
X147211100Y-81526100D02*
X146961100Y-81526100D01*
X147811100Y-81526100D02*
X147811100Y-80926100D01*
X147211100Y-81526100D02*
X147211100Y-80926100D01*
X145906100Y-77818600D02*
X145306100Y-77818600D01*
X145906100Y-78918600D02*
X145306100Y-78918600D01*
X145306100Y-77818600D02*
X145306100Y-78068600D01*
X145306100Y-78068600D02*
X145306100Y-78668600D01*
X145306100Y-78668600D02*
X145306100Y-78918600D01*
X145906100Y-77818600D02*
X145906100Y-78068600D01*
X145906100Y-78068600D02*
X145906100Y-78668600D01*
X145906100Y-78668600D02*
X145906100Y-78918600D01*
X145906100Y-78068600D02*
X145306100Y-78068600D01*
X145906100Y-78668600D02*
X145306100Y-78668600D01*
X140191100Y-77818600D02*
X139591100Y-77818600D01*
X140191100Y-78918600D02*
X139591100Y-78918600D01*
X139591100Y-77818600D02*
X139591100Y-78068600D01*
X139591100Y-78068600D02*
X139591100Y-78668600D01*
X139591100Y-78668600D02*
X139591100Y-78918600D01*
X140191100Y-77818600D02*
X140191100Y-78068600D01*
X140191100Y-78068600D02*
X140191100Y-78668600D01*
X140191100Y-78668600D02*
X140191100Y-78918600D01*
X140191100Y-78068600D02*
X139591100Y-78068600D01*
X140191100Y-78668600D02*
X139591100Y-78668600D01*
X144001100Y-77818600D02*
X143401100Y-77818600D01*
X144001100Y-78918600D02*
X143401100Y-78918600D01*
X143401100Y-77818600D02*
X143401100Y-78068600D01*
X143401100Y-78068600D02*
X143401100Y-78668600D01*
X143401100Y-78668600D02*
X143401100Y-78918600D01*
X144001100Y-77818600D02*
X144001100Y-78068600D01*
X144001100Y-78068600D02*
X144001100Y-78668600D01*
X144001100Y-78668600D02*
X144001100Y-78918600D01*
X144001100Y-78068600D02*
X143401100Y-78068600D01*
X144001100Y-78668600D02*
X143401100Y-78668600D01*
D12*
X148746100Y-73023600D02*
X148746100Y-74823600D01*
X147546100Y-74823600D02*
X147546100Y-73023600D01*
X161800000Y-90450000D02*
X161800000Y-93250000D01*
X158950000Y-93250000D02*
X158950000Y-90450000D01*
D13*
X159650000Y-90950000D02*
G75*
G03*
X159650000Y-90950000I-200000J0D01*
G01*
D10*
X147205000Y-122866000D02*
X139255000Y-122866000D01*
X139255000Y-122866000D02*
X139255000Y-127366000D01*
X139255000Y-127366000D02*
X147205000Y-127366000D01*
X147205000Y-127366000D02*
X147205000Y-122866000D01*
X146805000Y-126616000D02*
G75*
G03*
X146805000Y-126616000I-250000J0D01*
G01*
D14*
X143931100Y-81313600D02*
X140931100Y-81313600D01*
X140931100Y-81313600D02*
X140931100Y-84313600D01*
X140931100Y-84313600D02*
X143931100Y-84313600D01*
X143931100Y-84313600D02*
X143931100Y-81313600D01*
X143681100Y-81688600D02*
G75*
G03*
X143681100Y-81688600I-125000J0D01*
G01*
D10*
X161781100Y-87358600D02*
X161781100Y-87158600D01*
X161181100Y-87358600D02*
X161181100Y-87158600D01*
X160511100Y-87358600D02*
X160511100Y-87158600D01*
X159911100Y-87358600D02*
X159911100Y-87158600D01*
X159911100Y-80108600D02*
X159911100Y-80308600D01*
X160511100Y-80108600D02*
X160511100Y-80308600D01*
X158641100Y-80108600D02*
X158641100Y-80308600D01*
X159241100Y-80108600D02*
X159241100Y-80308600D01*
X142966100Y-72318600D02*
X143166100Y-72318600D01*
X142966100Y-71718600D02*
X143166100Y-71718600D01*
X142966100Y-73588600D02*
X143166100Y-73588600D01*
X142966100Y-72988600D02*
X143166100Y-72988600D01*
X142966100Y-74858600D02*
X143166100Y-74858600D01*
X142966100Y-74258600D02*
X143166100Y-74258600D01*
X145068000Y-130856000D02*
X145068000Y-130256000D01*
X143968000Y-130856000D02*
X143968000Y-130256000D01*
X145068000Y-130256000D02*
X144818000Y-130256000D01*
X144818000Y-130256000D02*
X144218000Y-130256000D01*
X144218000Y-130256000D02*
X143968000Y-130256000D01*
X145068000Y-130856000D02*
X144818000Y-130856000D01*
X144818000Y-130856000D02*
X144218000Y-130856000D01*
X144218000Y-130856000D02*
X143968000Y-130856000D01*
X144818000Y-130856000D02*
X144818000Y-130256000D01*
X144218000Y-130856000D02*
X144218000Y-130256000D01*
X137901100Y-90733600D02*
X137901100Y-90133600D01*
X136801100Y-90733600D02*
X136801100Y-90133600D01*
X137901100Y-90133600D02*
X137651100Y-90133600D01*
X137651100Y-90133600D02*
X137051100Y-90133600D01*
X137051100Y-90133600D02*
X136801100Y-90133600D01*
X137901100Y-90733600D02*
X137651100Y-90733600D01*
X137651100Y-90733600D02*
X137051100Y-90733600D01*
X137051100Y-90733600D02*
X136801100Y-90733600D01*
X137651100Y-90733600D02*
X137651100Y-90133600D01*
X137051100Y-90733600D02*
X137051100Y-90133600D01*
X147596100Y-76798600D02*
X147596100Y-77398600D01*
X148696100Y-76798600D02*
X148696100Y-77398600D01*
X147596100Y-77398600D02*
X147846100Y-77398600D01*
X147846100Y-77398600D02*
X148446100Y-77398600D01*
X148446100Y-77398600D02*
X148696100Y-77398600D01*
X147596100Y-76798600D02*
X147846100Y-76798600D01*
X147846100Y-76798600D02*
X148446100Y-76798600D01*
X148446100Y-76798600D02*
X148696100Y-76798600D01*
X147846100Y-76798600D02*
X147846100Y-77398600D01*
X148446100Y-76798600D02*
X148446100Y-77398600D01*
X152926100Y-80823600D02*
X153526100Y-80823600D01*
X152926100Y-79723600D02*
X153526100Y-79723600D01*
X153526100Y-80823600D02*
X153526100Y-80573600D01*
X153526100Y-80573600D02*
X153526100Y-79973600D01*
X153526100Y-79973600D02*
X153526100Y-79723600D01*
X152926100Y-80823600D02*
X152926100Y-80573600D01*
X152926100Y-80573600D02*
X152926100Y-79973600D01*
X152926100Y-79973600D02*
X152926100Y-79723600D01*
X152926100Y-80573600D02*
X153526100Y-80573600D01*
X152926100Y-79973600D02*
X153526100Y-79973600D01*
X155466100Y-80823600D02*
X156066100Y-80823600D01*
X155466100Y-79723600D02*
X156066100Y-79723600D01*
X156066100Y-80823600D02*
X156066100Y-80573600D01*
X156066100Y-80573600D02*
X156066100Y-79973600D01*
X156066100Y-79973600D02*
X156066100Y-79723600D01*
X155466100Y-80823600D02*
X155466100Y-80573600D01*
X155466100Y-80573600D02*
X155466100Y-79973600D01*
X155466100Y-79973600D02*
X155466100Y-79723600D01*
X155466100Y-80573600D02*
X156066100Y-80573600D01*
X155466100Y-79973600D02*
X156066100Y-79973600D01*
X141305000Y-120446000D02*
X141905000Y-120446000D01*
X141305000Y-119346000D02*
X141905000Y-119346000D01*
X141905000Y-120446000D02*
X141905000Y-120196000D01*
X141905000Y-120196000D02*
X141905000Y-119596000D01*
X141905000Y-119596000D02*
X141905000Y-119346000D01*
X141305000Y-120446000D02*
X141305000Y-120196000D01*
X141305000Y-120196000D02*
X141305000Y-119596000D01*
X141305000Y-119596000D02*
X141305000Y-119346000D01*
X141305000Y-120196000D02*
X141905000Y-120196000D01*
X141305000Y-119596000D02*
X141905000Y-119596000D01*
X142045400Y-130043200D02*
X142045400Y-129443200D01*
X140945400Y-130043200D02*
X140945400Y-129443200D01*
X142045400Y-129443200D02*
X141795400Y-129443200D01*
X141795400Y-129443200D02*
X141195400Y-129443200D01*
X141195400Y-129443200D02*
X140945400Y-129443200D01*
X142045400Y-130043200D02*
X141795400Y-130043200D01*
X141795400Y-130043200D02*
X141195400Y-130043200D01*
X141195400Y-130043200D02*
X140945400Y-130043200D01*
X141795400Y-130043200D02*
X141795400Y-129443200D01*
X141195400Y-130043200D02*
X141195400Y-129443200D01*
X145056100Y-85053600D02*
X145056100Y-85653600D01*
X146156100Y-85053600D02*
X146156100Y-85653600D01*
X145056100Y-85653600D02*
X145306100Y-85653600D01*
X145306100Y-85653600D02*
X145906100Y-85653600D01*
X145906100Y-85653600D02*
X146156100Y-85653600D01*
X145056100Y-85053600D02*
X145306100Y-85053600D01*
X145306100Y-85053600D02*
X145906100Y-85053600D01*
X145906100Y-85053600D02*
X146156100Y-85053600D01*
X145306100Y-85053600D02*
X145306100Y-85653600D01*
X145906100Y-85053600D02*
X145906100Y-85653600D01*
X145056100Y-83783600D02*
X145056100Y-84383600D01*
X146156100Y-83783600D02*
X146156100Y-84383600D01*
X145056100Y-84383600D02*
X145306100Y-84383600D01*
X145306100Y-84383600D02*
X145906100Y-84383600D01*
X145906100Y-84383600D02*
X146156100Y-84383600D01*
X145056100Y-83783600D02*
X145306100Y-83783600D01*
X145306100Y-83783600D02*
X145906100Y-83783600D01*
X145906100Y-83783600D02*
X146156100Y-83783600D01*
X145306100Y-83783600D02*
X145306100Y-84383600D01*
X145906100Y-83783600D02*
X145906100Y-84383600D01*
X141450000Y-78900000D02*
X142050000Y-78900000D01*
X141450000Y-77800000D02*
X142050000Y-77800000D01*
X142050000Y-78900000D02*
X142050000Y-78650000D01*
X142050000Y-78650000D02*
X142050000Y-78050000D01*
X142050000Y-78050000D02*
X142050000Y-77800000D01*
X141450000Y-78900000D02*
X141450000Y-78650000D01*
X141450000Y-78650000D02*
X141450000Y-78050000D01*
X141450000Y-78050000D02*
X141450000Y-77800000D01*
X141450000Y-78650000D02*
X142050000Y-78650000D01*
X141450000Y-78050000D02*
X142050000Y-78050000D01*
D11*
X160461904Y-129445119D02*
X160080952Y-129178452D01*
X160461904Y-128987976D02*
X159661904Y-128987976D01*
X159661904Y-129292738D01*
X159700000Y-129368928D01*
X159738095Y-129407023D01*
X159814285Y-129445119D01*
X159928571Y-129445119D01*
X160004761Y-129407023D01*
X160042857Y-129368928D01*
X160080952Y-129292738D01*
X160080952Y-128987976D01*
X160461904Y-130207023D02*
X160461904Y-129749880D01*
X160461904Y-129978452D02*
X159661904Y-129978452D01*
X159776190Y-129902261D01*
X159852380Y-129826071D01*
X159890476Y-129749880D01*
X159661904Y-130702261D02*
X159661904Y-130778452D01*
X159700000Y-130854642D01*
X159738095Y-130892738D01*
X159814285Y-130930833D01*
X159966666Y-130968928D01*
X160157142Y-130968928D01*
X160309523Y-130930833D01*
X160385714Y-130892738D01*
X160423809Y-130854642D01*
X160461904Y-130778452D01*
X160461904Y-130702261D01*
X160423809Y-130626071D01*
X160385714Y-130587976D01*
X160309523Y-130549880D01*
X160157142Y-130511785D01*
X159966666Y-130511785D01*
X159814285Y-130549880D01*
X159738095Y-130587976D01*
X159700000Y-130626071D01*
X159661904Y-130702261D01*
X136261904Y-74231071D02*
X135461904Y-74231071D01*
X135461904Y-74421547D01*
X135500000Y-74535833D01*
X135576190Y-74612023D01*
X135652380Y-74650119D01*
X135804761Y-74688214D01*
X135919047Y-74688214D01*
X136071428Y-74650119D01*
X136147619Y-74612023D01*
X136223809Y-74535833D01*
X136261904Y-74421547D01*
X136261904Y-74231071D01*
X136261904Y-75450119D02*
X136261904Y-74992976D01*
X136261904Y-75221547D02*
X135461904Y-75221547D01*
X135576190Y-75145357D01*
X135652380Y-75069166D01*
X135690476Y-74992976D01*
X150961904Y-69631071D02*
X150161904Y-69631071D01*
X150161904Y-69821547D01*
X150200000Y-69935833D01*
X150276190Y-70012023D01*
X150352380Y-70050119D01*
X150504761Y-70088214D01*
X150619047Y-70088214D01*
X150771428Y-70050119D01*
X150847619Y-70012023D01*
X150923809Y-69935833D01*
X150961904Y-69821547D01*
X150961904Y-69631071D01*
X150238095Y-70392976D02*
X150200000Y-70431071D01*
X150161904Y-70507261D01*
X150161904Y-70697738D01*
X150200000Y-70773928D01*
X150238095Y-70812023D01*
X150314285Y-70850119D01*
X150390476Y-70850119D01*
X150504761Y-70812023D01*
X150961904Y-70354880D01*
X150961904Y-70850119D01*
X152054880Y-135261904D02*
X152321547Y-134880952D01*
X152512023Y-135261904D02*
X152512023Y-134461904D01*
X152207261Y-134461904D01*
X152131071Y-134500000D01*
X152092976Y-134538095D01*
X152054880Y-134614285D01*
X152054880Y-134728571D01*
X152092976Y-134804761D01*
X152131071Y-134842857D01*
X152207261Y-134880952D01*
X152512023Y-134880952D01*
X151369166Y-134461904D02*
X151521547Y-134461904D01*
X151597738Y-134500000D01*
X151635833Y-134538095D01*
X151712023Y-134652380D01*
X151750119Y-134804761D01*
X151750119Y-135109523D01*
X151712023Y-135185714D01*
X151673928Y-135223809D01*
X151597738Y-135261904D01*
X151445357Y-135261904D01*
X151369166Y-135223809D01*
X151331071Y-135185714D01*
X151292976Y-135109523D01*
X151292976Y-134919047D01*
X151331071Y-134842857D01*
X151369166Y-134804761D01*
X151445357Y-134766666D01*
X151597738Y-134766666D01*
X151673928Y-134804761D01*
X151712023Y-134842857D01*
X151750119Y-134919047D01*
X153154880Y-133461904D02*
X153421547Y-133080952D01*
X153612023Y-133461904D02*
X153612023Y-132661904D01*
X153307261Y-132661904D01*
X153231071Y-132700000D01*
X153192976Y-132738095D01*
X153154880Y-132814285D01*
X153154880Y-132928571D01*
X153192976Y-133004761D01*
X153231071Y-133042857D01*
X153307261Y-133080952D01*
X153612023Y-133080952D01*
X152888214Y-132661904D02*
X152354880Y-132661904D01*
X152697738Y-133461904D01*
X148754880Y-132061904D02*
X149021547Y-131680952D01*
X149212023Y-132061904D02*
X149212023Y-131261904D01*
X148907261Y-131261904D01*
X148831071Y-131300000D01*
X148792976Y-131338095D01*
X148754880Y-131414285D01*
X148754880Y-131528571D01*
X148792976Y-131604761D01*
X148831071Y-131642857D01*
X148907261Y-131680952D01*
X149212023Y-131680952D01*
X148297738Y-131604761D02*
X148373928Y-131566666D01*
X148412023Y-131528571D01*
X148450119Y-131452380D01*
X148450119Y-131414285D01*
X148412023Y-131338095D01*
X148373928Y-131300000D01*
X148297738Y-131261904D01*
X148145357Y-131261904D01*
X148069166Y-131300000D01*
X148031071Y-131338095D01*
X147992976Y-131414285D01*
X147992976Y-131452380D01*
X148031071Y-131528571D01*
X148069166Y-131566666D01*
X148145357Y-131604761D01*
X148297738Y-131604761D01*
X148373928Y-131642857D01*
X148412023Y-131680952D01*
X148450119Y-131757142D01*
X148450119Y-131909523D01*
X148412023Y-131985714D01*
X148373928Y-132023809D01*
X148297738Y-132061904D01*
X148145357Y-132061904D01*
X148069166Y-132023809D01*
X148031071Y-131985714D01*
X147992976Y-131909523D01*
X147992976Y-131757142D01*
X148031071Y-131680952D01*
X148069166Y-131642857D01*
X148145357Y-131604761D01*
X148354880Y-134561904D02*
X148621547Y-134180952D01*
X148812023Y-134561904D02*
X148812023Y-133761904D01*
X148507261Y-133761904D01*
X148431071Y-133800000D01*
X148392976Y-133838095D01*
X148354880Y-133914285D01*
X148354880Y-134028571D01*
X148392976Y-134104761D01*
X148431071Y-134142857D01*
X148507261Y-134180952D01*
X148812023Y-134180952D01*
X147973928Y-134561904D02*
X147821547Y-134561904D01*
X147745357Y-134523809D01*
X147707261Y-134485714D01*
X147631071Y-134371428D01*
X147592976Y-134219047D01*
X147592976Y-133914285D01*
X147631071Y-133838095D01*
X147669166Y-133800000D01*
X147745357Y-133761904D01*
X147897738Y-133761904D01*
X147973928Y-133800000D01*
X148012023Y-133838095D01*
X148050119Y-133914285D01*
X148050119Y-134104761D01*
X148012023Y-134180952D01*
X147973928Y-134219047D01*
X147897738Y-134257142D01*
X147745357Y-134257142D01*
X147669166Y-134219047D01*
X147631071Y-134180952D01*
X147592976Y-134104761D01*
X142280952Y-134761904D02*
X142280952Y-133961904D01*
X141442857Y-134685714D02*
X141480952Y-134723809D01*
X141595238Y-134761904D01*
X141671428Y-134761904D01*
X141785714Y-134723809D01*
X141861904Y-134647619D01*
X141900000Y-134571428D01*
X141938095Y-134419047D01*
X141938095Y-134304761D01*
X141900000Y-134152380D01*
X141861904Y-134076190D01*
X141785714Y-134000000D01*
X141671428Y-133961904D01*
X141595238Y-133961904D01*
X141480952Y-134000000D01*
X141442857Y-134038095D01*
X141176190Y-133961904D02*
X140642857Y-133961904D01*
X140985714Y-134761904D01*
X155112023Y-85961904D02*
X155112023Y-85161904D01*
X154273928Y-85885714D02*
X154312023Y-85923809D01*
X154426309Y-85961904D01*
X154502500Y-85961904D01*
X154616785Y-85923809D01*
X154692976Y-85847619D01*
X154731071Y-85771428D01*
X154769166Y-85619047D01*
X154769166Y-85504761D01*
X154731071Y-85352380D01*
X154692976Y-85276190D01*
X154616785Y-85200000D01*
X154502500Y-85161904D01*
X154426309Y-85161904D01*
X154312023Y-85200000D01*
X154273928Y-85238095D01*
X153550119Y-85161904D02*
X153931071Y-85161904D01*
X153969166Y-85542857D01*
X153931071Y-85504761D01*
X153854880Y-85466666D01*
X153664404Y-85466666D01*
X153588214Y-85504761D01*
X153550119Y-85542857D01*
X153512023Y-85619047D01*
X153512023Y-85809523D01*
X153550119Y-85885714D01*
X153588214Y-85923809D01*
X153664404Y-85961904D01*
X153854880Y-85961904D01*
X153931071Y-85923809D01*
X153969166Y-85885714D01*
X136512023Y-103861904D02*
X136512023Y-103061904D01*
X136207261Y-103061904D01*
X136131071Y-103100000D01*
X136092976Y-103138095D01*
X136054880Y-103214285D01*
X136054880Y-103328571D01*
X136092976Y-103404761D01*
X136131071Y-103442857D01*
X136207261Y-103480952D01*
X136512023Y-103480952D01*
X135292976Y-103861904D02*
X135750119Y-103861904D01*
X135521547Y-103861904D02*
X135521547Y-103061904D01*
X135597738Y-103176190D01*
X135673928Y-103252380D01*
X135750119Y-103290476D01*
X150554642Y-90161904D02*
X150097500Y-90161904D01*
X150326071Y-90961904D02*
X150326071Y-90161904D01*
X149830833Y-90961904D02*
X149830833Y-90161904D01*
X149526071Y-90161904D01*
X149449880Y-90200000D01*
X149411785Y-90238095D01*
X149373690Y-90314285D01*
X149373690Y-90428571D01*
X149411785Y-90504761D01*
X149449880Y-90542857D01*
X149526071Y-90580952D01*
X149830833Y-90580952D01*
X148611785Y-90961904D02*
X149068928Y-90961904D01*
X148840357Y-90961904D02*
X148840357Y-90161904D01*
X148916547Y-90276190D01*
X148992738Y-90352380D01*
X149068928Y-90390476D01*
X147849880Y-90961904D02*
X148307023Y-90961904D01*
X148078452Y-90961904D02*
X148078452Y-90161904D01*
X148154642Y-90276190D01*
X148230833Y-90352380D01*
X148307023Y-90390476D01*
X156954642Y-89861904D02*
X156497500Y-89861904D01*
X156726071Y-90661904D02*
X156726071Y-89861904D01*
X156230833Y-90661904D02*
X156230833Y-89861904D01*
X155926071Y-89861904D01*
X155849880Y-89900000D01*
X155811785Y-89938095D01*
X155773690Y-90014285D01*
X155773690Y-90128571D01*
X155811785Y-90204761D01*
X155849880Y-90242857D01*
X155926071Y-90280952D01*
X156230833Y-90280952D01*
X155011785Y-90661904D02*
X155468928Y-90661904D01*
X155240357Y-90661904D02*
X155240357Y-89861904D01*
X155316547Y-89976190D01*
X155392738Y-90052380D01*
X155468928Y-90090476D01*
X154516547Y-89861904D02*
X154440357Y-89861904D01*
X154364166Y-89900000D01*
X154326071Y-89938095D01*
X154287976Y-90014285D01*
X154249880Y-90166666D01*
X154249880Y-90357142D01*
X154287976Y-90509523D01*
X154326071Y-90585714D01*
X154364166Y-90623809D01*
X154440357Y-90661904D01*
X154516547Y-90661904D01*
X154592738Y-90623809D01*
X154630833Y-90585714D01*
X154668928Y-90509523D01*
X154707023Y-90357142D01*
X154707023Y-90166666D01*
X154668928Y-90014285D01*
X154630833Y-89938095D01*
X154592738Y-89900000D01*
X154516547Y-89861904D01*
X158061904Y-87126309D02*
X157680952Y-86859642D01*
X158061904Y-86669166D02*
X157261904Y-86669166D01*
X157261904Y-86973928D01*
X157300000Y-87050119D01*
X157338095Y-87088214D01*
X157414285Y-87126309D01*
X157528571Y-87126309D01*
X157604761Y-87088214D01*
X157642857Y-87050119D01*
X157680952Y-86973928D01*
X157680952Y-86669166D01*
X158061904Y-87888214D02*
X158061904Y-87431071D01*
X158061904Y-87659642D02*
X157261904Y-87659642D01*
X157376190Y-87583452D01*
X157452380Y-87507261D01*
X157490476Y-87431071D01*
X157604761Y-88345357D02*
X157566666Y-88269166D01*
X157528571Y-88231071D01*
X157452380Y-88192976D01*
X157414285Y-88192976D01*
X157338095Y-88231071D01*
X157300000Y-88269166D01*
X157261904Y-88345357D01*
X157261904Y-88497738D01*
X157300000Y-88573928D01*
X157338095Y-88612023D01*
X157414285Y-88650119D01*
X157452380Y-88650119D01*
X157528571Y-88612023D01*
X157566666Y-88573928D01*
X157604761Y-88497738D01*
X157604761Y-88345357D01*
X157642857Y-88269166D01*
X157680952Y-88231071D01*
X157757142Y-88192976D01*
X157909523Y-88192976D01*
X157985714Y-88231071D01*
X158023809Y-88269166D01*
X158061904Y-88345357D01*
X158061904Y-88497738D01*
X158023809Y-88573928D01*
X157985714Y-88612023D01*
X157909523Y-88650119D01*
X157757142Y-88650119D01*
X157680952Y-88612023D01*
X157642857Y-88573928D01*
X157604761Y-88497738D01*
X140073690Y-92661904D02*
X140340357Y-92280952D01*
X140530833Y-92661904D02*
X140530833Y-91861904D01*
X140226071Y-91861904D01*
X140149880Y-91900000D01*
X140111785Y-91938095D01*
X140073690Y-92014285D01*
X140073690Y-92128571D01*
X140111785Y-92204761D01*
X140149880Y-92242857D01*
X140226071Y-92280952D01*
X140530833Y-92280952D01*
X139311785Y-92661904D02*
X139768928Y-92661904D01*
X139540357Y-92661904D02*
X139540357Y-91861904D01*
X139616547Y-91976190D01*
X139692738Y-92052380D01*
X139768928Y-92090476D01*
X139045119Y-91861904D02*
X138511785Y-91861904D01*
X138854642Y-92661904D01*
X137754880Y-95761904D02*
X138021547Y-95380952D01*
X138212023Y-95761904D02*
X138212023Y-94961904D01*
X137907261Y-94961904D01*
X137831071Y-95000000D01*
X137792976Y-95038095D01*
X137754880Y-95114285D01*
X137754880Y-95228571D01*
X137792976Y-95304761D01*
X137831071Y-95342857D01*
X137907261Y-95380952D01*
X138212023Y-95380952D01*
X136992976Y-95761904D02*
X137450119Y-95761904D01*
X137221547Y-95761904D02*
X137221547Y-94961904D01*
X137297738Y-95076190D01*
X137373928Y-95152380D01*
X137450119Y-95190476D01*
X136307261Y-94961904D02*
X136459642Y-94961904D01*
X136535833Y-95000000D01*
X136573928Y-95038095D01*
X136650119Y-95152380D01*
X136688214Y-95304761D01*
X136688214Y-95609523D01*
X136650119Y-95685714D01*
X136612023Y-95723809D01*
X136535833Y-95761904D01*
X136383452Y-95761904D01*
X136307261Y-95723809D01*
X136269166Y-95685714D01*
X136231071Y-95609523D01*
X136231071Y-95419047D01*
X136269166Y-95342857D01*
X136307261Y-95304761D01*
X136383452Y-95266666D01*
X136535833Y-95266666D01*
X136612023Y-95304761D01*
X136650119Y-95342857D01*
X136688214Y-95419047D01*
X150254880Y-81661904D02*
X150521547Y-81280952D01*
X150712023Y-81661904D02*
X150712023Y-80861904D01*
X150407261Y-80861904D01*
X150331071Y-80900000D01*
X150292976Y-80938095D01*
X150254880Y-81014285D01*
X150254880Y-81128571D01*
X150292976Y-81204761D01*
X150331071Y-81242857D01*
X150407261Y-81280952D01*
X150712023Y-81280952D01*
X149492976Y-81661904D02*
X149950119Y-81661904D01*
X149721547Y-81661904D02*
X149721547Y-80861904D01*
X149797738Y-80976190D01*
X149873928Y-81052380D01*
X149950119Y-81090476D01*
X148769166Y-80861904D02*
X149150119Y-80861904D01*
X149188214Y-81242857D01*
X149150119Y-81204761D01*
X149073928Y-81166666D01*
X148883452Y-81166666D01*
X148807261Y-81204761D01*
X148769166Y-81242857D01*
X148731071Y-81319047D01*
X148731071Y-81509523D01*
X148769166Y-81585714D01*
X148807261Y-81623809D01*
X148883452Y-81661904D01*
X149073928Y-81661904D01*
X149150119Y-81623809D01*
X149188214Y-81585714D01*
X145961904Y-76288214D02*
X145580952Y-76021547D01*
X145961904Y-75831071D02*
X145161904Y-75831071D01*
X145161904Y-76135833D01*
X145200000Y-76212023D01*
X145238095Y-76250119D01*
X145314285Y-76288214D01*
X145428571Y-76288214D01*
X145504761Y-76250119D01*
X145542857Y-76212023D01*
X145580952Y-76135833D01*
X145580952Y-75831071D01*
X145161904Y-77012023D02*
X145161904Y-76631071D01*
X145542857Y-76592976D01*
X145504761Y-76631071D01*
X145466666Y-76707261D01*
X145466666Y-76897738D01*
X145504761Y-76973928D01*
X145542857Y-77012023D01*
X145619047Y-77050119D01*
X145809523Y-77050119D01*
X145885714Y-77012023D01*
X145923809Y-76973928D01*
X145961904Y-76897738D01*
X145961904Y-76707261D01*
X145923809Y-76631071D01*
X145885714Y-76592976D01*
X140361904Y-76288214D02*
X139980952Y-76021547D01*
X140361904Y-75831071D02*
X139561904Y-75831071D01*
X139561904Y-76135833D01*
X139600000Y-76212023D01*
X139638095Y-76250119D01*
X139714285Y-76288214D01*
X139828571Y-76288214D01*
X139904761Y-76250119D01*
X139942857Y-76212023D01*
X139980952Y-76135833D01*
X139980952Y-75831071D01*
X139828571Y-76973928D02*
X140361904Y-76973928D01*
X139523809Y-76783452D02*
X140095238Y-76592976D01*
X140095238Y-77088214D01*
X144061904Y-76288214D02*
X143680952Y-76021547D01*
X144061904Y-75831071D02*
X143261904Y-75831071D01*
X143261904Y-76135833D01*
X143300000Y-76212023D01*
X143338095Y-76250119D01*
X143414285Y-76288214D01*
X143528571Y-76288214D01*
X143604761Y-76250119D01*
X143642857Y-76212023D01*
X143680952Y-76135833D01*
X143680952Y-75831071D01*
X143261904Y-76554880D02*
X143261904Y-77050119D01*
X143566666Y-76783452D01*
X143566666Y-76897738D01*
X143604761Y-76973928D01*
X143642857Y-77012023D01*
X143719047Y-77050119D01*
X143909523Y-77050119D01*
X143985714Y-77012023D01*
X144023809Y-76973928D01*
X144061904Y-76897738D01*
X144061904Y-76669166D01*
X144023809Y-76592976D01*
X143985714Y-76554880D01*
X148561904Y-70668928D02*
X148561904Y-70287976D01*
X147761904Y-70287976D01*
X147838095Y-70897500D02*
X147800000Y-70935595D01*
X147761904Y-71011785D01*
X147761904Y-71202261D01*
X147800000Y-71278452D01*
X147838095Y-71316547D01*
X147914285Y-71354642D01*
X147990476Y-71354642D01*
X148104761Y-71316547D01*
X148561904Y-70859404D01*
X148561904Y-71354642D01*
X158512023Y-94561904D02*
X158512023Y-93761904D01*
X157673928Y-94485714D02*
X157712023Y-94523809D01*
X157826309Y-94561904D01*
X157902500Y-94561904D01*
X158016785Y-94523809D01*
X158092976Y-94447619D01*
X158131071Y-94371428D01*
X158169166Y-94219047D01*
X158169166Y-94104761D01*
X158131071Y-93952380D01*
X158092976Y-93876190D01*
X158016785Y-93800000D01*
X157902500Y-93761904D01*
X157826309Y-93761904D01*
X157712023Y-93800000D01*
X157673928Y-93838095D01*
X156988214Y-94028571D02*
X156988214Y-94561904D01*
X157178690Y-93723809D02*
X157369166Y-94295238D01*
X156873928Y-94295238D01*
X138961904Y-122187976D02*
X138161904Y-122187976D01*
X138885714Y-123026071D02*
X138923809Y-122987976D01*
X138961904Y-122873690D01*
X138961904Y-122797500D01*
X138923809Y-122683214D01*
X138847619Y-122607023D01*
X138771428Y-122568928D01*
X138619047Y-122530833D01*
X138504761Y-122530833D01*
X138352380Y-122568928D01*
X138276190Y-122607023D01*
X138200000Y-122683214D01*
X138161904Y-122797500D01*
X138161904Y-122873690D01*
X138200000Y-122987976D01*
X138238095Y-123026071D01*
X138161904Y-123292738D02*
X138161904Y-123787976D01*
X138466666Y-123521309D01*
X138466666Y-123635595D01*
X138504761Y-123711785D01*
X138542857Y-123749880D01*
X138619047Y-123787976D01*
X138809523Y-123787976D01*
X138885714Y-123749880D01*
X138923809Y-123711785D01*
X138961904Y-123635595D01*
X138961904Y-123407023D01*
X138923809Y-123330833D01*
X138885714Y-123292738D01*
X145049880Y-80661904D02*
X145049880Y-79861904D01*
X144211785Y-80585714D02*
X144249880Y-80623809D01*
X144364166Y-80661904D01*
X144440357Y-80661904D01*
X144554642Y-80623809D01*
X144630833Y-80547619D01*
X144668928Y-80471428D01*
X144707023Y-80319047D01*
X144707023Y-80204761D01*
X144668928Y-80052380D01*
X144630833Y-79976190D01*
X144554642Y-79900000D01*
X144440357Y-79861904D01*
X144364166Y-79861904D01*
X144249880Y-79900000D01*
X144211785Y-79938095D01*
X143907023Y-79938095D02*
X143868928Y-79900000D01*
X143792738Y-79861904D01*
X143602261Y-79861904D01*
X143526071Y-79900000D01*
X143487976Y-79938095D01*
X143449880Y-80014285D01*
X143449880Y-80090476D01*
X143487976Y-80204761D01*
X143945119Y-80661904D01*
X143449880Y-80661904D01*
X135692857Y-81962023D02*
X135692857Y-81695357D01*
X136111904Y-81695357D02*
X135311904Y-81695357D01*
X135311904Y-82076309D01*
X136111904Y-82800119D02*
X136111904Y-82342976D01*
X136111904Y-82571547D02*
X135311904Y-82571547D01*
X135426190Y-82495357D01*
X135502380Y-82419166D01*
X135540476Y-82342976D01*
X161861904Y-83787976D02*
X161061904Y-83787976D01*
X161061904Y-83978452D01*
X161100000Y-84092738D01*
X161176190Y-84168928D01*
X161252380Y-84207023D01*
X161404761Y-84245119D01*
X161519047Y-84245119D01*
X161671428Y-84207023D01*
X161747619Y-84168928D01*
X161823809Y-84092738D01*
X161861904Y-83978452D01*
X161861904Y-83787976D01*
X161861904Y-85007023D02*
X161861904Y-84549880D01*
X161861904Y-84778452D02*
X161061904Y-84778452D01*
X161176190Y-84702261D01*
X161252380Y-84626071D01*
X161290476Y-84549880D01*
X161328571Y-85692738D02*
X161861904Y-85692738D01*
X161023809Y-85502261D02*
X161595238Y-85311785D01*
X161595238Y-85807023D01*
X160661904Y-83887976D02*
X159861904Y-83887976D01*
X159861904Y-84078452D01*
X159900000Y-84192738D01*
X159976190Y-84268928D01*
X160052380Y-84307023D01*
X160204761Y-84345119D01*
X160319047Y-84345119D01*
X160471428Y-84307023D01*
X160547619Y-84268928D01*
X160623809Y-84192738D01*
X160661904Y-84078452D01*
X160661904Y-83887976D01*
X160661904Y-85107023D02*
X160661904Y-84649880D01*
X160661904Y-84878452D02*
X159861904Y-84878452D01*
X159976190Y-84802261D01*
X160052380Y-84726071D01*
X160090476Y-84649880D01*
X159861904Y-85373690D02*
X159861904Y-85868928D01*
X160166666Y-85602261D01*
X160166666Y-85716547D01*
X160204761Y-85792738D01*
X160242857Y-85830833D01*
X160319047Y-85868928D01*
X160509523Y-85868928D01*
X160585714Y-85830833D01*
X160623809Y-85792738D01*
X160661904Y-85716547D01*
X160661904Y-85487976D01*
X160623809Y-85411785D01*
X160585714Y-85373690D01*
X160561904Y-76569166D02*
X159761904Y-76569166D01*
X159761904Y-76759642D01*
X159800000Y-76873928D01*
X159876190Y-76950119D01*
X159952380Y-76988214D01*
X160104761Y-77026309D01*
X160219047Y-77026309D01*
X160371428Y-76988214D01*
X160447619Y-76950119D01*
X160523809Y-76873928D01*
X160561904Y-76759642D01*
X160561904Y-76569166D01*
X160561904Y-77788214D02*
X160561904Y-77331071D01*
X160561904Y-77559642D02*
X159761904Y-77559642D01*
X159876190Y-77483452D01*
X159952380Y-77407261D01*
X159990476Y-77331071D01*
X159838095Y-78092976D02*
X159800000Y-78131071D01*
X159761904Y-78207261D01*
X159761904Y-78397738D01*
X159800000Y-78473928D01*
X159838095Y-78512023D01*
X159914285Y-78550119D01*
X159990476Y-78550119D01*
X160104761Y-78512023D01*
X160561904Y-78054880D01*
X160561904Y-78550119D01*
X159261904Y-76669166D02*
X158461904Y-76669166D01*
X158461904Y-76859642D01*
X158500000Y-76973928D01*
X158576190Y-77050119D01*
X158652380Y-77088214D01*
X158804761Y-77126309D01*
X158919047Y-77126309D01*
X159071428Y-77088214D01*
X159147619Y-77050119D01*
X159223809Y-76973928D01*
X159261904Y-76859642D01*
X159261904Y-76669166D01*
X159261904Y-77888214D02*
X159261904Y-77431071D01*
X159261904Y-77659642D02*
X158461904Y-77659642D01*
X158576190Y-77583452D01*
X158652380Y-77507261D01*
X158690476Y-77431071D01*
X159261904Y-78650119D02*
X159261904Y-78192976D01*
X159261904Y-78421547D02*
X158461904Y-78421547D01*
X158576190Y-78345357D01*
X158652380Y-78269166D01*
X158690476Y-78192976D01*
X141412023Y-72361904D02*
X141412023Y-71561904D01*
X141221547Y-71561904D01*
X141107261Y-71600000D01*
X141031071Y-71676190D01*
X140992976Y-71752380D01*
X140954880Y-71904761D01*
X140954880Y-72019047D01*
X140992976Y-72171428D01*
X141031071Y-72247619D01*
X141107261Y-72323809D01*
X141221547Y-72361904D01*
X141412023Y-72361904D01*
X140192976Y-72361904D02*
X140650119Y-72361904D01*
X140421547Y-72361904D02*
X140421547Y-71561904D01*
X140497738Y-71676190D01*
X140573928Y-71752380D01*
X140650119Y-71790476D01*
X139697738Y-71561904D02*
X139621547Y-71561904D01*
X139545357Y-71600000D01*
X139507261Y-71638095D01*
X139469166Y-71714285D01*
X139431071Y-71866666D01*
X139431071Y-72057142D01*
X139469166Y-72209523D01*
X139507261Y-72285714D01*
X139545357Y-72323809D01*
X139621547Y-72361904D01*
X139697738Y-72361904D01*
X139773928Y-72323809D01*
X139812023Y-72285714D01*
X139850119Y-72209523D01*
X139888214Y-72057142D01*
X139888214Y-71866666D01*
X139850119Y-71714285D01*
X139812023Y-71638095D01*
X139773928Y-71600000D01*
X139697738Y-71561904D01*
X141412023Y-73661904D02*
X141412023Y-72861904D01*
X141221547Y-72861904D01*
X141107261Y-72900000D01*
X141031071Y-72976190D01*
X140992976Y-73052380D01*
X140954880Y-73204761D01*
X140954880Y-73319047D01*
X140992976Y-73471428D01*
X141031071Y-73547619D01*
X141107261Y-73623809D01*
X141221547Y-73661904D01*
X141412023Y-73661904D01*
X140573928Y-73661904D02*
X140421547Y-73661904D01*
X140345357Y-73623809D01*
X140307261Y-73585714D01*
X140231071Y-73471428D01*
X140192976Y-73319047D01*
X140192976Y-73014285D01*
X140231071Y-72938095D01*
X140269166Y-72900000D01*
X140345357Y-72861904D01*
X140497738Y-72861904D01*
X140573928Y-72900000D01*
X140612023Y-72938095D01*
X140650119Y-73014285D01*
X140650119Y-73204761D01*
X140612023Y-73280952D01*
X140573928Y-73319047D01*
X140497738Y-73357142D01*
X140345357Y-73357142D01*
X140269166Y-73319047D01*
X140231071Y-73280952D01*
X140192976Y-73204761D01*
X141412023Y-74961904D02*
X141412023Y-74161904D01*
X141221547Y-74161904D01*
X141107261Y-74200000D01*
X141031071Y-74276190D01*
X140992976Y-74352380D01*
X140954880Y-74504761D01*
X140954880Y-74619047D01*
X140992976Y-74771428D01*
X141031071Y-74847619D01*
X141107261Y-74923809D01*
X141221547Y-74961904D01*
X141412023Y-74961904D01*
X140497738Y-74504761D02*
X140573928Y-74466666D01*
X140612023Y-74428571D01*
X140650119Y-74352380D01*
X140650119Y-74314285D01*
X140612023Y-74238095D01*
X140573928Y-74200000D01*
X140497738Y-74161904D01*
X140345357Y-74161904D01*
X140269166Y-74200000D01*
X140231071Y-74238095D01*
X140192976Y-74314285D01*
X140192976Y-74352380D01*
X140231071Y-74428571D01*
X140269166Y-74466666D01*
X140345357Y-74504761D01*
X140497738Y-74504761D01*
X140573928Y-74542857D01*
X140612023Y-74580952D01*
X140650119Y-74657142D01*
X140650119Y-74809523D01*
X140612023Y-74885714D01*
X140573928Y-74923809D01*
X140497738Y-74961904D01*
X140345357Y-74961904D01*
X140269166Y-74923809D01*
X140231071Y-74885714D01*
X140192976Y-74809523D01*
X140192976Y-74657142D01*
X140231071Y-74580952D01*
X140269166Y-74542857D01*
X140345357Y-74504761D01*
X144954880Y-131885714D02*
X144992976Y-131923809D01*
X145107261Y-131961904D01*
X145183452Y-131961904D01*
X145297738Y-131923809D01*
X145373928Y-131847619D01*
X145412023Y-131771428D01*
X145450119Y-131619047D01*
X145450119Y-131504761D01*
X145412023Y-131352380D01*
X145373928Y-131276190D01*
X145297738Y-131200000D01*
X145183452Y-131161904D01*
X145107261Y-131161904D01*
X144992976Y-131200000D01*
X144954880Y-131238095D01*
X144688214Y-131161904D02*
X144192976Y-131161904D01*
X144459642Y-131466666D01*
X144345357Y-131466666D01*
X144269166Y-131504761D01*
X144231071Y-131542857D01*
X144192976Y-131619047D01*
X144192976Y-131809523D01*
X144231071Y-131885714D01*
X144269166Y-131923809D01*
X144345357Y-131961904D01*
X144573928Y-131961904D01*
X144650119Y-131923809D01*
X144688214Y-131885714D01*
X143697738Y-131161904D02*
X143621547Y-131161904D01*
X143545357Y-131200000D01*
X143507261Y-131238095D01*
X143469166Y-131314285D01*
X143431071Y-131466666D01*
X143431071Y-131657142D01*
X143469166Y-131809523D01*
X143507261Y-131885714D01*
X143545357Y-131923809D01*
X143621547Y-131961904D01*
X143697738Y-131961904D01*
X143773928Y-131923809D01*
X143812023Y-131885714D01*
X143850119Y-131809523D01*
X143888214Y-131657142D01*
X143888214Y-131466666D01*
X143850119Y-131314285D01*
X143812023Y-131238095D01*
X143773928Y-131200000D01*
X143697738Y-131161904D01*
X140954880Y-90785714D02*
X140992976Y-90823809D01*
X141107261Y-90861904D01*
X141183452Y-90861904D01*
X141297738Y-90823809D01*
X141373928Y-90747619D01*
X141412023Y-90671428D01*
X141450119Y-90519047D01*
X141450119Y-90404761D01*
X141412023Y-90252380D01*
X141373928Y-90176190D01*
X141297738Y-90100000D01*
X141183452Y-90061904D01*
X141107261Y-90061904D01*
X140992976Y-90100000D01*
X140954880Y-90138095D01*
X140650119Y-90138095D02*
X140612023Y-90100000D01*
X140535833Y-90061904D01*
X140345357Y-90061904D01*
X140269166Y-90100000D01*
X140231071Y-90138095D01*
X140192976Y-90214285D01*
X140192976Y-90290476D01*
X140231071Y-90404761D01*
X140688214Y-90861904D01*
X140192976Y-90861904D01*
X139735833Y-90404761D02*
X139812023Y-90366666D01*
X139850119Y-90328571D01*
X139888214Y-90252380D01*
X139888214Y-90214285D01*
X139850119Y-90138095D01*
X139812023Y-90100000D01*
X139735833Y-90061904D01*
X139583452Y-90061904D01*
X139507261Y-90100000D01*
X139469166Y-90138095D01*
X139431071Y-90214285D01*
X139431071Y-90252380D01*
X139469166Y-90328571D01*
X139507261Y-90366666D01*
X139583452Y-90404761D01*
X139735833Y-90404761D01*
X139812023Y-90442857D01*
X139850119Y-90480952D01*
X139888214Y-90557142D01*
X139888214Y-90709523D01*
X139850119Y-90785714D01*
X139812023Y-90823809D01*
X139735833Y-90861904D01*
X139583452Y-90861904D01*
X139507261Y-90823809D01*
X139469166Y-90785714D01*
X139431071Y-90709523D01*
X139431071Y-90557142D01*
X139469166Y-90480952D01*
X139507261Y-90442857D01*
X139583452Y-90404761D01*
X148873690Y-78585714D02*
X148911785Y-78623809D01*
X149026071Y-78661904D01*
X149102261Y-78661904D01*
X149216547Y-78623809D01*
X149292738Y-78547619D01*
X149330833Y-78471428D01*
X149368928Y-78319047D01*
X149368928Y-78204761D01*
X149330833Y-78052380D01*
X149292738Y-77976190D01*
X149216547Y-77900000D01*
X149102261Y-77861904D01*
X149026071Y-77861904D01*
X148911785Y-77900000D01*
X148873690Y-77938095D01*
X148568928Y-77938095D02*
X148530833Y-77900000D01*
X148454642Y-77861904D01*
X148264166Y-77861904D01*
X148187976Y-77900000D01*
X148149880Y-77938095D01*
X148111785Y-78014285D01*
X148111785Y-78090476D01*
X148149880Y-78204761D01*
X148607023Y-78661904D01*
X148111785Y-78661904D01*
X147845119Y-77861904D02*
X147349880Y-77861904D01*
X147616547Y-78166666D01*
X147502261Y-78166666D01*
X147426071Y-78204761D01*
X147387976Y-78242857D01*
X147349880Y-78319047D01*
X147349880Y-78509523D01*
X147387976Y-78585714D01*
X147426071Y-78623809D01*
X147502261Y-78661904D01*
X147730833Y-78661904D01*
X147807023Y-78623809D01*
X147845119Y-78585714D01*
X153585714Y-77545119D02*
X153623809Y-77507023D01*
X153661904Y-77392738D01*
X153661904Y-77316547D01*
X153623809Y-77202261D01*
X153547619Y-77126071D01*
X153471428Y-77087976D01*
X153319047Y-77049880D01*
X153204761Y-77049880D01*
X153052380Y-77087976D01*
X152976190Y-77126071D01*
X152900000Y-77202261D01*
X152861904Y-77316547D01*
X152861904Y-77392738D01*
X152900000Y-77507023D01*
X152938095Y-77545119D01*
X153661904Y-78307023D02*
X153661904Y-77849880D01*
X153661904Y-78078452D02*
X152861904Y-78078452D01*
X152976190Y-78002261D01*
X153052380Y-77926071D01*
X153090476Y-77849880D01*
X152861904Y-78573690D02*
X152861904Y-79107023D01*
X153661904Y-78764166D01*
X155985714Y-77445119D02*
X156023809Y-77407023D01*
X156061904Y-77292738D01*
X156061904Y-77216547D01*
X156023809Y-77102261D01*
X155947619Y-77026071D01*
X155871428Y-76987976D01*
X155719047Y-76949880D01*
X155604761Y-76949880D01*
X155452380Y-76987976D01*
X155376190Y-77026071D01*
X155300000Y-77102261D01*
X155261904Y-77216547D01*
X155261904Y-77292738D01*
X155300000Y-77407023D01*
X155338095Y-77445119D01*
X156061904Y-78207023D02*
X156061904Y-77749880D01*
X156061904Y-77978452D02*
X155261904Y-77978452D01*
X155376190Y-77902261D01*
X155452380Y-77826071D01*
X155490476Y-77749880D01*
X155261904Y-78892738D02*
X155261904Y-78740357D01*
X155300000Y-78664166D01*
X155338095Y-78626071D01*
X155452380Y-78549880D01*
X155604761Y-78511785D01*
X155909523Y-78511785D01*
X155985714Y-78549880D01*
X156023809Y-78587976D01*
X156061904Y-78664166D01*
X156061904Y-78816547D01*
X156023809Y-78892738D01*
X155985714Y-78930833D01*
X155909523Y-78968928D01*
X155719047Y-78968928D01*
X155642857Y-78930833D01*
X155604761Y-78892738D01*
X155566666Y-78816547D01*
X155566666Y-78664166D01*
X155604761Y-78587976D01*
X155642857Y-78549880D01*
X155719047Y-78511785D01*
X141985714Y-117045119D02*
X142023809Y-117007023D01*
X142061904Y-116892738D01*
X142061904Y-116816547D01*
X142023809Y-116702261D01*
X141947619Y-116626071D01*
X141871428Y-116587976D01*
X141719047Y-116549880D01*
X141604761Y-116549880D01*
X141452380Y-116587976D01*
X141376190Y-116626071D01*
X141300000Y-116702261D01*
X141261904Y-116816547D01*
X141261904Y-116892738D01*
X141300000Y-117007023D01*
X141338095Y-117045119D01*
X142061904Y-117807023D02*
X142061904Y-117349880D01*
X142061904Y-117578452D02*
X141261904Y-117578452D01*
X141376190Y-117502261D01*
X141452380Y-117426071D01*
X141490476Y-117349880D01*
X141261904Y-118530833D02*
X141261904Y-118149880D01*
X141642857Y-118111785D01*
X141604761Y-118149880D01*
X141566666Y-118226071D01*
X141566666Y-118416547D01*
X141604761Y-118492738D01*
X141642857Y-118530833D01*
X141719047Y-118568928D01*
X141909523Y-118568928D01*
X141985714Y-118530833D01*
X142023809Y-118492738D01*
X142061904Y-118416547D01*
X142061904Y-118226071D01*
X142023809Y-118149880D01*
X141985714Y-118111785D01*
X141854880Y-131185714D02*
X141892976Y-131223809D01*
X142007261Y-131261904D01*
X142083452Y-131261904D01*
X142197738Y-131223809D01*
X142273928Y-131147619D01*
X142312023Y-131071428D01*
X142350119Y-130919047D01*
X142350119Y-130804761D01*
X142312023Y-130652380D01*
X142273928Y-130576190D01*
X142197738Y-130500000D01*
X142083452Y-130461904D01*
X142007261Y-130461904D01*
X141892976Y-130500000D01*
X141854880Y-130538095D01*
X141092976Y-131261904D02*
X141550119Y-131261904D01*
X141321547Y-131261904D02*
X141321547Y-130461904D01*
X141397738Y-130576190D01*
X141473928Y-130652380D01*
X141550119Y-130690476D01*
X140407261Y-130728571D02*
X140407261Y-131261904D01*
X140597738Y-130423809D02*
X140788214Y-130995238D01*
X140292976Y-130995238D01*
X148373690Y-85685714D02*
X148411785Y-85723809D01*
X148526071Y-85761904D01*
X148602261Y-85761904D01*
X148716547Y-85723809D01*
X148792738Y-85647619D01*
X148830833Y-85571428D01*
X148868928Y-85419047D01*
X148868928Y-85304761D01*
X148830833Y-85152380D01*
X148792738Y-85076190D01*
X148716547Y-85000000D01*
X148602261Y-84961904D01*
X148526071Y-84961904D01*
X148411785Y-85000000D01*
X148373690Y-85038095D01*
X147611785Y-85761904D02*
X148068928Y-85761904D01*
X147840357Y-85761904D02*
X147840357Y-84961904D01*
X147916547Y-85076190D01*
X147992738Y-85152380D01*
X148068928Y-85190476D01*
X147345119Y-84961904D02*
X146849880Y-84961904D01*
X147116547Y-85266666D01*
X147002261Y-85266666D01*
X146926071Y-85304761D01*
X146887976Y-85342857D01*
X146849880Y-85419047D01*
X146849880Y-85609523D01*
X146887976Y-85685714D01*
X146926071Y-85723809D01*
X147002261Y-85761904D01*
X147230833Y-85761904D01*
X147307023Y-85723809D01*
X147345119Y-85685714D01*
X148573690Y-84385714D02*
X148611785Y-84423809D01*
X148726071Y-84461904D01*
X148802261Y-84461904D01*
X148916547Y-84423809D01*
X148992738Y-84347619D01*
X149030833Y-84271428D01*
X149068928Y-84119047D01*
X149068928Y-84004761D01*
X149030833Y-83852380D01*
X148992738Y-83776190D01*
X148916547Y-83700000D01*
X148802261Y-83661904D01*
X148726071Y-83661904D01*
X148611785Y-83700000D01*
X148573690Y-83738095D01*
X147811785Y-84461904D02*
X148268928Y-84461904D01*
X148040357Y-84461904D02*
X148040357Y-83661904D01*
X148116547Y-83776190D01*
X148192738Y-83852380D01*
X148268928Y-83890476D01*
X147507023Y-83738095D02*
X147468928Y-83700000D01*
X147392738Y-83661904D01*
X147202261Y-83661904D01*
X147126071Y-83700000D01*
X147087976Y-83738095D01*
X147049880Y-83814285D01*
X147049880Y-83890476D01*
X147087976Y-84004761D01*
X147545119Y-84461904D01*
X147049880Y-84461904D01*
X142085714Y-75745119D02*
X142123809Y-75707023D01*
X142161904Y-75592738D01*
X142161904Y-75516547D01*
X142123809Y-75402261D01*
X142047619Y-75326071D01*
X141971428Y-75287976D01*
X141819047Y-75249880D01*
X141704761Y-75249880D01*
X141552380Y-75287976D01*
X141476190Y-75326071D01*
X141400000Y-75402261D01*
X141361904Y-75516547D01*
X141361904Y-75592738D01*
X141400000Y-75707023D01*
X141438095Y-75745119D01*
X142161904Y-76507023D02*
X142161904Y-76049880D01*
X142161904Y-76278452D02*
X141361904Y-76278452D01*
X141476190Y-76202261D01*
X141552380Y-76126071D01*
X141590476Y-76049880D01*
X142161904Y-77268928D02*
X142161904Y-76811785D01*
X142161904Y-77040357D02*
X141361904Y-77040357D01*
X141476190Y-76964166D01*
X141552380Y-76887976D01*
X141590476Y-76811785D01*
M02*
