M48
; DRILL file {KiCad 5.1.8+dfsg1-1~bpo10+1} date Sat Jan  2 21:10:25 2021
; FORMAT={-:-/ absolute / metric / decimal}
; #@! TF.CreationDate,2021-01-02T21:10:25+01:00
; #@! TF.GenerationSoftware,Kicad,Pcbnew,5.1.8+dfsg1-1~bpo10+1
; #@! TF.FileFunction,Plated,1,2,PTH
FMAT,2
METRIC
T1C0.305
T2C0.350
T3C0.400
T4C0.500
T5C0.800
T6C2.800
%
G90
G05
T1
X133.95Y-101.525
X135.509Y-90.678
X136.144Y-78.486
X136.525Y-105.504
X136.525Y-106.553
X137.351Y-87.259
X137.414Y-100.965
X138.43Y-125.984
X138.7Y-113.1
X138.75Y-95.037
X138.939Y-81.544
X138.939Y-90.116
X139.574Y-93.291
X139.891Y-83.449
X139.891Y-84.401
X140.05Y-96.8
X140.157Y-102.362
X140.209Y-93.926
X140.475Y-107.1
X140.844Y-84.719
X140.844Y-94.561
X140.85Y-98.3
X142.675Y-115.275
X142.748Y-116.332
X142.749Y-78.369
X142.95Y-120.25
X143.154Y-130.835
X143.701Y-87.894
X143.8Y-111.76
X143.9Y-126.75
X144.019Y-84.56
X144.336Y-81.226
X144.586Y-83.064
X144.654Y-74.559
X145.075Y-98.525
X145.415Y-91.186
X145.5Y-92.3
X145.606Y-80.591
X145.8Y-107.1
X145.924Y-74.241
X145.924Y-88.846
X146.241Y-73.289
X146.55Y-91.95
X146.876Y-88.846
X146.939Y-123.825
X147.1Y-102.2
X147.45Y-92.15
X147.9Y-97.0
X148.464Y-88.529
X148.875Y-94.05
X149.099Y-85.671
X149.416Y-83.131
X149.734Y-77.099
X149.734Y-88.846
X149.987Y-127.127
X150.051Y-92.974
X150.051Y-93.926
X150.1Y-99.7
X150.368Y-108.585
X150.368Y-118.11
X151.321Y-84.401
X151.55Y-132.625
X151.639Y-82.814
X151.765Y-120.015
X152.05Y-79.95
X152.591Y-87.815
X153.0Y-130.75
X154.051Y-106.626
X154.1Y-92.1
X155.131Y-128.851
X155.65Y-87.55
X156.7Y-99.7
X156.719Y-82.496
X157.0Y-129.5
X157.036Y-83.766
X157.8Y-130.121
X157.989Y-83.766
X158.6Y-91.3
X158.75Y-106.68
X158.877Y-120.142
X159.258Y-88.265
X160.211Y-83.449
X160.783Y-108.658
X160.783Y-113.103
X160.783Y-118.183
X161.798Y-97.536
X162.05Y-125.4
X162.3Y-101.0
X164.3Y-101.0
X141.881Y-82.264
X142.431Y-82.814
X142.931Y-83.314
X142.981Y-82.264
T2
X136.716Y-97.101
X138.379Y-128.0
X138.4Y-130.05
X138.405Y-132.018
X138.43Y-124.587
X139.649Y-118.95
X140.335Y-120.879
X142.265Y-125.984
X146.241Y-130.756
X147.511Y-130.439
X147.75Y-125.984
X148.786Y-130.444
X150.686Y-92.339
X151.639Y-130.756
X153.857Y-128.057
X154.814Y-130.756
X159.6Y-82.5
X160.95Y-127.35
X160.95Y-132.7
X162.65Y-126.65
X162.65Y-130.6
T3
X143.25Y-94.85
T4
X141.671Y-68.963
X148.271Y-68.963
T5
X134.001Y-95.504
X134.001Y-97.504
X134.001Y-99.504
X134.001Y-77.504
X134.001Y-79.504
X163.001Y-76.904
X163.001Y-78.904
X163.001Y-80.904
X163.001Y-82.904
X163.001Y-84.904
X134.001Y-103.504
X134.001Y-105.504
X134.001Y-107.504
X134.001Y-109.504
X163.0Y-88.9
X163.0Y-90.9
X163.0Y-92.9
X134.001Y-83.504
X134.001Y-85.504
X134.001Y-87.504
X134.001Y-89.504
X134.001Y-91.504
T6
X161.001Y-71.504
X135.992Y-138.506
X161.001Y-138.504
X136.001Y-71.504
T0
M30
