G04 #@! TF.GenerationSoftware,KiCad,Pcbnew,5.1.8+dfsg1-1~bpo10+1*
G04 #@! TF.CreationDate,2021-01-02T21:10:29+01:00*
G04 #@! TF.ProjectId,easyhive,65617379-6869-4766-952e-6b696361645f,rev?*
G04 #@! TF.SameCoordinates,Original*
G04 #@! TF.FileFunction,Paste,Top*
G04 #@! TF.FilePolarity,Positive*
%FSLAX46Y46*%
G04 Gerber Fmt 4.6, Leading zero omitted, Abs format (unit mm)*
G04 Created by KiCad (PCBNEW 5.1.8+dfsg1-1~bpo10+1) date 2021-01-02 21:10:29*
%MOMM*%
%LPD*%
G01*
G04 APERTURE LIST*
%ADD10R,0.508000X0.355999*%
%ADD11R,1.600000X1.800000*%
%ADD12R,0.354800X1.461999*%
%ADD13R,1.900000X1.900000*%
%ADD14R,1.600000X1.400000*%
%ADD15R,0.400000X1.350000*%
%ADD16R,1.200000X1.800000*%
%ADD17R,0.350000X1.800000*%
%ADD18R,0.650000X1.300000*%
%ADD19R,0.900000X1.000000*%
%ADD20R,0.850000X2.200000*%
%ADD21R,1.000000X1.050000*%
%ADD22R,0.800000X1.500000*%
%ADD23R,1.500000X0.800000*%
%ADD24R,1.100000X1.100000*%
%ADD25R,0.300000X1.600000*%
%ADD26R,1.600000X0.300000*%
G04 APERTURE END LIST*
D10*
X146000000Y-121000000D03*
X144704999Y-121500003D03*
X144704999Y-120500002D03*
X145995001Y-117699997D03*
X144700000Y-118200000D03*
X144700000Y-117199999D03*
D11*
X159400000Y-93200000D03*
X156600000Y-93200000D03*
D12*
X145799998Y-108817000D03*
X145149997Y-108817000D03*
X144499998Y-108817000D03*
X143849997Y-108817000D03*
X143199998Y-108817000D03*
X142550000Y-108817000D03*
X141899998Y-108817000D03*
X141250000Y-108817000D03*
X141250000Y-102975000D03*
X141900001Y-102975000D03*
X142550000Y-102975000D03*
X143200001Y-102975000D03*
X143850000Y-102975000D03*
X144499998Y-102975000D03*
X145150000Y-102975000D03*
X145799998Y-102975000D03*
D13*
X143771100Y-68962600D03*
X146171100Y-68962600D03*
D14*
X141721100Y-71512600D03*
X148221100Y-71512600D03*
D15*
X146271100Y-71637600D03*
X145621100Y-71637600D03*
X143671100Y-71637600D03*
X144321100Y-71637600D03*
X144971100Y-71637600D03*
G36*
G01*
X139973400Y-108448000D02*
X139973400Y-109008000D01*
G75*
G02*
X139903400Y-109078000I-70000J0D01*
G01*
X139293400Y-109078000D01*
G75*
G02*
X139223400Y-109008000I0J70000D01*
G01*
X139223400Y-108448000D01*
G75*
G02*
X139293400Y-108378000I70000J0D01*
G01*
X139903400Y-108378000D01*
G75*
G02*
X139973400Y-108448000I0J-70000D01*
G01*
G37*
G36*
G01*
X139973400Y-109448000D02*
X139973400Y-110008000D01*
G75*
G02*
X139903400Y-110078000I-70000J0D01*
G01*
X139293400Y-110078000D01*
G75*
G02*
X139223400Y-110008000I0J70000D01*
G01*
X139223400Y-109448000D01*
G75*
G02*
X139293400Y-109378000I70000J0D01*
G01*
X139903400Y-109378000D01*
G75*
G02*
X139973400Y-109448000I0J-70000D01*
G01*
G37*
G36*
G01*
X140607000Y-101365400D02*
X140047000Y-101365400D01*
G75*
G02*
X139977000Y-101295400I0J70000D01*
G01*
X139977000Y-100685400D01*
G75*
G02*
X140047000Y-100615400I70000J0D01*
G01*
X140607000Y-100615400D01*
G75*
G02*
X140677000Y-100685400I0J-70000D01*
G01*
X140677000Y-101295400D01*
G75*
G02*
X140607000Y-101365400I-70000J0D01*
G01*
G37*
G36*
G01*
X139607000Y-101365400D02*
X139047000Y-101365400D01*
G75*
G02*
X138977000Y-101295400I0J70000D01*
G01*
X138977000Y-100685400D01*
G75*
G02*
X139047000Y-100615400I70000J0D01*
G01*
X139607000Y-100615400D01*
G75*
G02*
X139677000Y-100685400I0J-70000D01*
G01*
X139677000Y-101295400D01*
G75*
G02*
X139607000Y-101365400I-70000J0D01*
G01*
G37*
G36*
G01*
X141509400Y-101346600D02*
X141509400Y-100786600D01*
G75*
G02*
X141579400Y-100716600I70000J0D01*
G01*
X142189400Y-100716600D01*
G75*
G02*
X142259400Y-100786600I0J-70000D01*
G01*
X142259400Y-101346600D01*
G75*
G02*
X142189400Y-101416600I-70000J0D01*
G01*
X141579400Y-101416600D01*
G75*
G02*
X141509400Y-101346600I0J70000D01*
G01*
G37*
G36*
G01*
X141509400Y-100346600D02*
X141509400Y-99786600D01*
G75*
G02*
X141579400Y-99716600I70000J0D01*
G01*
X142189400Y-99716600D01*
G75*
G02*
X142259400Y-99786600I0J-70000D01*
G01*
X142259400Y-100346600D01*
G75*
G02*
X142189400Y-100416600I-70000J0D01*
G01*
X141579400Y-100416600D01*
G75*
G02*
X141509400Y-100346600I0J70000D01*
G01*
G37*
G36*
G01*
X138133400Y-102550200D02*
X137573400Y-102550200D01*
G75*
G02*
X137503400Y-102480200I0J70000D01*
G01*
X137503400Y-101870200D01*
G75*
G02*
X137573400Y-101800200I70000J0D01*
G01*
X138133400Y-101800200D01*
G75*
G02*
X138203400Y-101870200I0J-70000D01*
G01*
X138203400Y-102480200D01*
G75*
G02*
X138133400Y-102550200I-70000J0D01*
G01*
G37*
G36*
G01*
X137133400Y-102550200D02*
X136573400Y-102550200D01*
G75*
G02*
X136503400Y-102480200I0J70000D01*
G01*
X136503400Y-101870200D01*
G75*
G02*
X136573400Y-101800200I70000J0D01*
G01*
X137133400Y-101800200D01*
G75*
G02*
X137203400Y-101870200I0J-70000D01*
G01*
X137203400Y-102480200D01*
G75*
G02*
X137133400Y-102550200I-70000J0D01*
G01*
G37*
G36*
G01*
X138133400Y-103850200D02*
X137573400Y-103850200D01*
G75*
G02*
X137503400Y-103780200I0J70000D01*
G01*
X137503400Y-103170200D01*
G75*
G02*
X137573400Y-103100200I70000J0D01*
G01*
X138133400Y-103100200D01*
G75*
G02*
X138203400Y-103170200I0J-70000D01*
G01*
X138203400Y-103780200D01*
G75*
G02*
X138133400Y-103850200I-70000J0D01*
G01*
G37*
G36*
G01*
X137133400Y-103850200D02*
X136573400Y-103850200D01*
G75*
G02*
X136503400Y-103780200I0J70000D01*
G01*
X136503400Y-103170200D01*
G75*
G02*
X136573400Y-103100200I70000J0D01*
G01*
X137133400Y-103100200D01*
G75*
G02*
X137203400Y-103170200I0J-70000D01*
G01*
X137203400Y-103780200D01*
G75*
G02*
X137133400Y-103850200I-70000J0D01*
G01*
G37*
G36*
G01*
X137166000Y-108984000D02*
X137166000Y-108424000D01*
G75*
G02*
X137236000Y-108354000I70000J0D01*
G01*
X137846000Y-108354000D01*
G75*
G02*
X137916000Y-108424000I0J-70000D01*
G01*
X137916000Y-108984000D01*
G75*
G02*
X137846000Y-109054000I-70000J0D01*
G01*
X137236000Y-109054000D01*
G75*
G02*
X137166000Y-108984000I0J70000D01*
G01*
G37*
G36*
G01*
X137166000Y-107984000D02*
X137166000Y-107424000D01*
G75*
G02*
X137236000Y-107354000I70000J0D01*
G01*
X137846000Y-107354000D01*
G75*
G02*
X137916000Y-107424000I0J-70000D01*
G01*
X137916000Y-107984000D01*
G75*
G02*
X137846000Y-108054000I-70000J0D01*
G01*
X137236000Y-108054000D01*
G75*
G02*
X137166000Y-107984000I0J70000D01*
G01*
G37*
G36*
G01*
X135667400Y-108992000D02*
X135667400Y-108432000D01*
G75*
G02*
X135737400Y-108362000I70000J0D01*
G01*
X136347400Y-108362000D01*
G75*
G02*
X136417400Y-108432000I0J-70000D01*
G01*
X136417400Y-108992000D01*
G75*
G02*
X136347400Y-109062000I-70000J0D01*
G01*
X135737400Y-109062000D01*
G75*
G02*
X135667400Y-108992000I0J70000D01*
G01*
G37*
G36*
G01*
X135667400Y-107992000D02*
X135667400Y-107432000D01*
G75*
G02*
X135737400Y-107362000I70000J0D01*
G01*
X136347400Y-107362000D01*
G75*
G02*
X136417400Y-107432000I0J-70000D01*
G01*
X136417400Y-107992000D01*
G75*
G02*
X136347400Y-108062000I-70000J0D01*
G01*
X135737400Y-108062000D01*
G75*
G02*
X135667400Y-107992000I0J70000D01*
G01*
G37*
G36*
G01*
X144370000Y-113925000D02*
X144930000Y-113925000D01*
G75*
G02*
X145000000Y-113995000I0J-70000D01*
G01*
X145000000Y-114605000D01*
G75*
G02*
X144930000Y-114675000I-70000J0D01*
G01*
X144370000Y-114675000D01*
G75*
G02*
X144300000Y-114605000I0J70000D01*
G01*
X144300000Y-113995000D01*
G75*
G02*
X144370000Y-113925000I70000J0D01*
G01*
G37*
G36*
G01*
X145370000Y-113925000D02*
X145930000Y-113925000D01*
G75*
G02*
X146000000Y-113995000I0J-70000D01*
G01*
X146000000Y-114605000D01*
G75*
G02*
X145930000Y-114675000I-70000J0D01*
G01*
X145370000Y-114675000D01*
G75*
G02*
X145300000Y-114605000I0J70000D01*
G01*
X145300000Y-113995000D01*
G75*
G02*
X145370000Y-113925000I70000J0D01*
G01*
G37*
G36*
G01*
X144395000Y-112800000D02*
X144955000Y-112800000D01*
G75*
G02*
X145025000Y-112870000I0J-70000D01*
G01*
X145025000Y-113480000D01*
G75*
G02*
X144955000Y-113550000I-70000J0D01*
G01*
X144395000Y-113550000D01*
G75*
G02*
X144325000Y-113480000I0J70000D01*
G01*
X144325000Y-112870000D01*
G75*
G02*
X144395000Y-112800000I70000J0D01*
G01*
G37*
G36*
G01*
X145395000Y-112800000D02*
X145955000Y-112800000D01*
G75*
G02*
X146025000Y-112870000I0J-70000D01*
G01*
X146025000Y-113480000D01*
G75*
G02*
X145955000Y-113550000I-70000J0D01*
G01*
X145395000Y-113550000D01*
G75*
G02*
X145325000Y-113480000I0J70000D01*
G01*
X145325000Y-112870000D01*
G75*
G02*
X145395000Y-112800000I70000J0D01*
G01*
G37*
G36*
G01*
X158480000Y-87945000D02*
X157920000Y-87945000D01*
G75*
G02*
X157850000Y-87875000I0J70000D01*
G01*
X157850000Y-87265000D01*
G75*
G02*
X157920000Y-87195000I70000J0D01*
G01*
X158480000Y-87195000D01*
G75*
G02*
X158550000Y-87265000I0J-70000D01*
G01*
X158550000Y-87875000D01*
G75*
G02*
X158480000Y-87945000I-70000J0D01*
G01*
G37*
G36*
G01*
X157480000Y-87945000D02*
X156920000Y-87945000D01*
G75*
G02*
X156850000Y-87875000I0J70000D01*
G01*
X156850000Y-87265000D01*
G75*
G02*
X156920000Y-87195000I70000J0D01*
G01*
X157480000Y-87195000D01*
G75*
G02*
X157550000Y-87265000I0J-70000D01*
G01*
X157550000Y-87875000D01*
G75*
G02*
X157480000Y-87945000I-70000J0D01*
G01*
G37*
G36*
G01*
X156920000Y-85915000D02*
X157480000Y-85915000D01*
G75*
G02*
X157550000Y-85985000I0J-70000D01*
G01*
X157550000Y-86595000D01*
G75*
G02*
X157480000Y-86665000I-70000J0D01*
G01*
X156920000Y-86665000D01*
G75*
G02*
X156850000Y-86595000I0J70000D01*
G01*
X156850000Y-85985000D01*
G75*
G02*
X156920000Y-85915000I70000J0D01*
G01*
G37*
G36*
G01*
X157920000Y-85915000D02*
X158480000Y-85915000D01*
G75*
G02*
X158550000Y-85985000I0J-70000D01*
G01*
X158550000Y-86595000D01*
G75*
G02*
X158480000Y-86665000I-70000J0D01*
G01*
X157920000Y-86665000D01*
G75*
G02*
X157850000Y-86595000I0J70000D01*
G01*
X157850000Y-85985000D01*
G75*
G02*
X157920000Y-85915000I70000J0D01*
G01*
G37*
G36*
G01*
X140386100Y-88008600D02*
X141936100Y-88008600D01*
G75*
G02*
X142061100Y-88133600I0J-125000D01*
G01*
X142061100Y-88883600D01*
G75*
G02*
X141936100Y-89008600I-125000J0D01*
G01*
X140386100Y-89008600D01*
G75*
G02*
X140261100Y-88883600I0J125000D01*
G01*
X140261100Y-88133600D01*
G75*
G02*
X140386100Y-88008600I125000J0D01*
G01*
G37*
G36*
G01*
X140386100Y-85508600D02*
X141936100Y-85508600D01*
G75*
G02*
X142061100Y-85633600I0J-125000D01*
G01*
X142061100Y-86383600D01*
G75*
G02*
X141936100Y-86508600I-125000J0D01*
G01*
X140386100Y-86508600D01*
G75*
G02*
X140261100Y-86383600I0J125000D01*
G01*
X140261100Y-85633600D01*
G75*
G02*
X140386100Y-85508600I125000J0D01*
G01*
G37*
D16*
X142200000Y-97600000D03*
X138900000Y-97600000D03*
D17*
X154011100Y-135588600D03*
X144820100Y-135588600D03*
X154011100Y-129838600D03*
X144820100Y-129838600D03*
D18*
X146246100Y-129168600D03*
X147516100Y-129168600D03*
X148786100Y-129168600D03*
X150056100Y-129168600D03*
X151326100Y-129168600D03*
X152596100Y-129168600D03*
D19*
X153816100Y-141308600D03*
X145016100Y-141308600D03*
D20*
X155832400Y-97637600D03*
X153082400Y-97637600D03*
D21*
X154457400Y-99162600D03*
X154457400Y-96112600D03*
D20*
X160250000Y-97650000D03*
X157500000Y-97650000D03*
D21*
X158875000Y-99175000D03*
X158875000Y-96125000D03*
D22*
X152250000Y-101350000D03*
X153350000Y-101350000D03*
X154450000Y-101350000D03*
X155550000Y-101350000D03*
X156650000Y-101350000D03*
X157750000Y-101350000D03*
X158850000Y-101350000D03*
X159950000Y-101350000D03*
X150050000Y-101350000D03*
X151150000Y-101350000D03*
D23*
X148600000Y-102300000D03*
D22*
X161050000Y-101350000D03*
D23*
X148600000Y-103400000D03*
X148600000Y-104500000D03*
X148600000Y-105600000D03*
X148600000Y-106700000D03*
X148600000Y-107800000D03*
X148600000Y-108900000D03*
X148600000Y-110000000D03*
X148600000Y-111100000D03*
X148600000Y-112200000D03*
X148600000Y-113300000D03*
X148600000Y-114400000D03*
X148600000Y-115500000D03*
X148600000Y-116600000D03*
X148600000Y-117700000D03*
X148600000Y-118800000D03*
X148600000Y-119900000D03*
X148600000Y-121000000D03*
X148600000Y-122100000D03*
X148600000Y-123200000D03*
X148600000Y-124300000D03*
X162500000Y-102300000D03*
X162500000Y-103400000D03*
X162500000Y-104500000D03*
X162500000Y-105600000D03*
X162500000Y-106700000D03*
X162500000Y-107800000D03*
X162500000Y-108900000D03*
X162500000Y-110000000D03*
X162500000Y-111100000D03*
X162500000Y-112200000D03*
X162500000Y-113300000D03*
X162500000Y-114400000D03*
X162500000Y-115500000D03*
X162500000Y-116600000D03*
X162500000Y-117700000D03*
X162500000Y-118800000D03*
X162500000Y-119900000D03*
X162500000Y-121000000D03*
X162500000Y-122100000D03*
X162500000Y-123200000D03*
X162500000Y-124300000D03*
D22*
X152250000Y-125250000D03*
X153350000Y-125250000D03*
X154450000Y-125250000D03*
X155550000Y-125250000D03*
X156650000Y-125250000D03*
X157750000Y-125250000D03*
X158850000Y-125250000D03*
X159950000Y-125250000D03*
X150050000Y-125250000D03*
X151150000Y-125250000D03*
X161050000Y-125250000D03*
D24*
X150300000Y-103050000D03*
X152400000Y-103050000D03*
X154500000Y-103050000D03*
X156600000Y-103050000D03*
X158700000Y-103050000D03*
X160800000Y-103050000D03*
X160800000Y-104850000D03*
X158700000Y-104850000D03*
X156600000Y-104850000D03*
X154500000Y-104850000D03*
X152400000Y-104850000D03*
X150300000Y-104850000D03*
X150300000Y-106650000D03*
X160800000Y-106650000D03*
X150300000Y-110250000D03*
X160800000Y-110250000D03*
X150300000Y-121750000D03*
X152400000Y-121750000D03*
X154500000Y-121750000D03*
X156600000Y-121750000D03*
X158700000Y-121750000D03*
X160800000Y-121750000D03*
X160800000Y-123550000D03*
X158700000Y-123550000D03*
X156600000Y-123550000D03*
X154500000Y-123550000D03*
X152400000Y-123550000D03*
X150300000Y-123550000D03*
X150300000Y-116350000D03*
X160800000Y-116350000D03*
X150300000Y-119950000D03*
X160800000Y-119950000D03*
G36*
G01*
X143231100Y-82093600D02*
X143231100Y-83533600D01*
G75*
G02*
X143151100Y-83613600I-80000J0D01*
G01*
X141711100Y-83613600D01*
G75*
G02*
X141631100Y-83533600I0J80000D01*
G01*
X141631100Y-82093600D01*
G75*
G02*
X141711100Y-82013600I80000J0D01*
G01*
X143151100Y-82013600D01*
G75*
G02*
X143231100Y-82093600I0J-80000D01*
G01*
G37*
D25*
X144996100Y-87068600D03*
X145496100Y-87068600D03*
X145996100Y-87068600D03*
X146496100Y-87068600D03*
X146996100Y-87068600D03*
X147496100Y-87068600D03*
X147996100Y-87068600D03*
X148496100Y-87068600D03*
X148996100Y-87068600D03*
X149496100Y-87068600D03*
X149996100Y-87068600D03*
X150496100Y-87068600D03*
D26*
X151996100Y-88568600D03*
X151996100Y-89068600D03*
X151996100Y-89568600D03*
X151996100Y-90068600D03*
X151996100Y-90568600D03*
X151996100Y-91068600D03*
X151996100Y-92068600D03*
X151996100Y-91568600D03*
X151996100Y-92568600D03*
X151996100Y-93068600D03*
X151996100Y-93568600D03*
X151996100Y-94068600D03*
D25*
X150496100Y-95568600D03*
X149996100Y-95568600D03*
X149496100Y-95568600D03*
X148996100Y-95568600D03*
X148496100Y-95568600D03*
X147996100Y-95568600D03*
X147496100Y-95568600D03*
X146996100Y-95568600D03*
X146496100Y-95568600D03*
X145996100Y-95568600D03*
X145496100Y-95568600D03*
X144996100Y-95568600D03*
D26*
X143496100Y-94068600D03*
X143496100Y-93568600D03*
X143496100Y-93068600D03*
X143496100Y-92568600D03*
X143496100Y-92068600D03*
X143496100Y-91568600D03*
X143496100Y-91068600D03*
X143496100Y-90568600D03*
X143496100Y-90068600D03*
X143496100Y-89568600D03*
X143496100Y-89068600D03*
X143496100Y-88568600D03*
G36*
G01*
X142548600Y-127583600D02*
X142548600Y-128213600D01*
G75*
G02*
X142513600Y-128248600I-35000J0D01*
G01*
X141683600Y-128248600D01*
G75*
G02*
X141648600Y-128213600I0J35000D01*
G01*
X141648600Y-127583600D01*
G75*
G02*
X141683600Y-127548600I35000J0D01*
G01*
X142513600Y-127548600D01*
G75*
G02*
X142548600Y-127583600I0J-35000D01*
G01*
G37*
G36*
G01*
X143848600Y-127583600D02*
X143848600Y-128213600D01*
G75*
G02*
X143813600Y-128248600I-35000J0D01*
G01*
X142983600Y-128248600D01*
G75*
G02*
X142948600Y-128213600I0J35000D01*
G01*
X142948600Y-127583600D01*
G75*
G02*
X142983600Y-127548600I35000J0D01*
G01*
X143813600Y-127548600D01*
G75*
G02*
X143848600Y-127583600I0J-35000D01*
G01*
G37*
G36*
G01*
X142548600Y-131393600D02*
X142548600Y-132023600D01*
G75*
G02*
X142513600Y-132058600I-35000J0D01*
G01*
X141683600Y-132058600D01*
G75*
G02*
X141648600Y-132023600I0J35000D01*
G01*
X141648600Y-131393600D01*
G75*
G02*
X141683600Y-131358600I35000J0D01*
G01*
X142513600Y-131358600D01*
G75*
G02*
X142548600Y-131393600I0J-35000D01*
G01*
G37*
G36*
G01*
X143848600Y-131393600D02*
X143848600Y-132023600D01*
G75*
G02*
X143813600Y-132058600I-35000J0D01*
G01*
X142983600Y-132058600D01*
G75*
G02*
X142948600Y-132023600I0J35000D01*
G01*
X142948600Y-131393600D01*
G75*
G02*
X142983600Y-131358600I35000J0D01*
G01*
X143813600Y-131358600D01*
G75*
G02*
X143848600Y-131393600I0J-35000D01*
G01*
G37*
G36*
G01*
X156283600Y-132658600D02*
X156283600Y-132028600D01*
G75*
G02*
X156318600Y-131993600I35000J0D01*
G01*
X157148600Y-131993600D01*
G75*
G02*
X157183600Y-132028600I0J-35000D01*
G01*
X157183600Y-132658600D01*
G75*
G02*
X157148600Y-132693600I-35000J0D01*
G01*
X156318600Y-132693600D01*
G75*
G02*
X156283600Y-132658600I0J35000D01*
G01*
G37*
G36*
G01*
X154983600Y-132658600D02*
X154983600Y-132028600D01*
G75*
G02*
X155018600Y-131993600I35000J0D01*
G01*
X155848600Y-131993600D01*
G75*
G02*
X155883600Y-132028600I0J-35000D01*
G01*
X155883600Y-132658600D01*
G75*
G02*
X155848600Y-132693600I-35000J0D01*
G01*
X155018600Y-132693600D01*
G75*
G02*
X154983600Y-132658600I0J35000D01*
G01*
G37*
G36*
G01*
X142548600Y-135203600D02*
X142548600Y-135833600D01*
G75*
G02*
X142513600Y-135868600I-35000J0D01*
G01*
X141683600Y-135868600D01*
G75*
G02*
X141648600Y-135833600I0J35000D01*
G01*
X141648600Y-135203600D01*
G75*
G02*
X141683600Y-135168600I35000J0D01*
G01*
X142513600Y-135168600D01*
G75*
G02*
X142548600Y-135203600I0J-35000D01*
G01*
G37*
G36*
G01*
X143848600Y-135203600D02*
X143848600Y-135833600D01*
G75*
G02*
X143813600Y-135868600I-35000J0D01*
G01*
X142983600Y-135868600D01*
G75*
G02*
X142948600Y-135833600I0J35000D01*
G01*
X142948600Y-135203600D01*
G75*
G02*
X142983600Y-135168600I35000J0D01*
G01*
X143813600Y-135168600D01*
G75*
G02*
X143848600Y-135203600I0J-35000D01*
G01*
G37*
G36*
G01*
X145075000Y-110770000D02*
X145075000Y-111330000D01*
G75*
G02*
X145005000Y-111400000I-70000J0D01*
G01*
X144395000Y-111400000D01*
G75*
G02*
X144325000Y-111330000I0J70000D01*
G01*
X144325000Y-110770000D01*
G75*
G02*
X144395000Y-110700000I70000J0D01*
G01*
X145005000Y-110700000D01*
G75*
G02*
X145075000Y-110770000I0J-70000D01*
G01*
G37*
G36*
G01*
X145075000Y-111770000D02*
X145075000Y-112330000D01*
G75*
G02*
X145005000Y-112400000I-70000J0D01*
G01*
X144395000Y-112400000D01*
G75*
G02*
X144325000Y-112330000I0J70000D01*
G01*
X144325000Y-111770000D01*
G75*
G02*
X144395000Y-111700000I70000J0D01*
G01*
X145005000Y-111700000D01*
G75*
G02*
X145075000Y-111770000I0J-70000D01*
G01*
G37*
G36*
G01*
X146375000Y-110720000D02*
X146375000Y-111280000D01*
G75*
G02*
X146305000Y-111350000I-70000J0D01*
G01*
X145695000Y-111350000D01*
G75*
G02*
X145625000Y-111280000I0J70000D01*
G01*
X145625000Y-110720000D01*
G75*
G02*
X145695000Y-110650000I70000J0D01*
G01*
X146305000Y-110650000D01*
G75*
G02*
X146375000Y-110720000I0J-70000D01*
G01*
G37*
G36*
G01*
X146375000Y-111720000D02*
X146375000Y-112280000D01*
G75*
G02*
X146305000Y-112350000I-70000J0D01*
G01*
X145695000Y-112350000D01*
G75*
G02*
X145625000Y-112280000I0J70000D01*
G01*
X145625000Y-111720000D01*
G75*
G02*
X145695000Y-111650000I70000J0D01*
G01*
X146305000Y-111650000D01*
G75*
G02*
X146375000Y-111720000I0J-70000D01*
G01*
G37*
G36*
G01*
X163580000Y-97275000D02*
X163020000Y-97275000D01*
G75*
G02*
X162950000Y-97205000I0J70000D01*
G01*
X162950000Y-96595000D01*
G75*
G02*
X163020000Y-96525000I70000J0D01*
G01*
X163580000Y-96525000D01*
G75*
G02*
X163650000Y-96595000I0J-70000D01*
G01*
X163650000Y-97205000D01*
G75*
G02*
X163580000Y-97275000I-70000J0D01*
G01*
G37*
G36*
G01*
X164580000Y-97275000D02*
X164020000Y-97275000D01*
G75*
G02*
X163950000Y-97205000I0J70000D01*
G01*
X163950000Y-96595000D01*
G75*
G02*
X164020000Y-96525000I70000J0D01*
G01*
X164580000Y-96525000D01*
G75*
G02*
X164650000Y-96595000I0J-70000D01*
G01*
X164650000Y-97205000D01*
G75*
G02*
X164580000Y-97275000I-70000J0D01*
G01*
G37*
G36*
G01*
X163580000Y-99875000D02*
X163020000Y-99875000D01*
G75*
G02*
X162950000Y-99805000I0J70000D01*
G01*
X162950000Y-99195000D01*
G75*
G02*
X163020000Y-99125000I70000J0D01*
G01*
X163580000Y-99125000D01*
G75*
G02*
X163650000Y-99195000I0J-70000D01*
G01*
X163650000Y-99805000D01*
G75*
G02*
X163580000Y-99875000I-70000J0D01*
G01*
G37*
G36*
G01*
X164580000Y-99875000D02*
X164020000Y-99875000D01*
G75*
G02*
X163950000Y-99805000I0J70000D01*
G01*
X163950000Y-99195000D01*
G75*
G02*
X164020000Y-99125000I70000J0D01*
G01*
X164580000Y-99125000D01*
G75*
G02*
X164650000Y-99195000I0J-70000D01*
G01*
X164650000Y-99805000D01*
G75*
G02*
X164580000Y-99875000I-70000J0D01*
G01*
G37*
G36*
G01*
X163580000Y-98575000D02*
X163020000Y-98575000D01*
G75*
G02*
X162950000Y-98505000I0J70000D01*
G01*
X162950000Y-97895000D01*
G75*
G02*
X163020000Y-97825000I70000J0D01*
G01*
X163580000Y-97825000D01*
G75*
G02*
X163650000Y-97895000I0J-70000D01*
G01*
X163650000Y-98505000D01*
G75*
G02*
X163580000Y-98575000I-70000J0D01*
G01*
G37*
G36*
G01*
X164580000Y-98575000D02*
X164020000Y-98575000D01*
G75*
G02*
X163950000Y-98505000I0J70000D01*
G01*
X163950000Y-97895000D01*
G75*
G02*
X164020000Y-97825000I70000J0D01*
G01*
X164580000Y-97825000D01*
G75*
G02*
X164650000Y-97895000I0J-70000D01*
G01*
X164650000Y-98505000D01*
G75*
G02*
X164580000Y-98575000I-70000J0D01*
G01*
G37*
G36*
G01*
X163580000Y-95975000D02*
X163020000Y-95975000D01*
G75*
G02*
X162950000Y-95905000I0J70000D01*
G01*
X162950000Y-95295000D01*
G75*
G02*
X163020000Y-95225000I70000J0D01*
G01*
X163580000Y-95225000D01*
G75*
G02*
X163650000Y-95295000I0J-70000D01*
G01*
X163650000Y-95905000D01*
G75*
G02*
X163580000Y-95975000I-70000J0D01*
G01*
G37*
G36*
G01*
X164580000Y-95975000D02*
X164020000Y-95975000D01*
G75*
G02*
X163950000Y-95905000I0J70000D01*
G01*
X163950000Y-95295000D01*
G75*
G02*
X164020000Y-95225000I70000J0D01*
G01*
X164580000Y-95225000D01*
G75*
G02*
X164650000Y-95295000I0J-70000D01*
G01*
X164650000Y-95905000D01*
G75*
G02*
X164580000Y-95975000I-70000J0D01*
G01*
G37*
G36*
G01*
X156863600Y-135893600D02*
X156303600Y-135893600D01*
G75*
G02*
X156233600Y-135823600I0J70000D01*
G01*
X156233600Y-135213600D01*
G75*
G02*
X156303600Y-135143600I70000J0D01*
G01*
X156863600Y-135143600D01*
G75*
G02*
X156933600Y-135213600I0J-70000D01*
G01*
X156933600Y-135823600D01*
G75*
G02*
X156863600Y-135893600I-70000J0D01*
G01*
G37*
G36*
G01*
X155863600Y-135893600D02*
X155303600Y-135893600D01*
G75*
G02*
X155233600Y-135823600I0J70000D01*
G01*
X155233600Y-135213600D01*
G75*
G02*
X155303600Y-135143600I70000J0D01*
G01*
X155863600Y-135143600D01*
G75*
G02*
X155933600Y-135213600I0J-70000D01*
G01*
X155933600Y-135823600D01*
G75*
G02*
X155863600Y-135893600I-70000J0D01*
G01*
G37*
G36*
G01*
X156863600Y-134306100D02*
X156303600Y-134306100D01*
G75*
G02*
X156233600Y-134236100I0J70000D01*
G01*
X156233600Y-133626100D01*
G75*
G02*
X156303600Y-133556100I70000J0D01*
G01*
X156863600Y-133556100D01*
G75*
G02*
X156933600Y-133626100I0J-70000D01*
G01*
X156933600Y-134236100D01*
G75*
G02*
X156863600Y-134306100I-70000J0D01*
G01*
G37*
G36*
G01*
X155863600Y-134306100D02*
X155303600Y-134306100D01*
G75*
G02*
X155233600Y-134236100I0J70000D01*
G01*
X155233600Y-133626100D01*
G75*
G02*
X155303600Y-133556100I70000J0D01*
G01*
X155863600Y-133556100D01*
G75*
G02*
X155933600Y-133626100I0J-70000D01*
G01*
X155933600Y-134236100D01*
G75*
G02*
X155863600Y-134306100I-70000J0D01*
G01*
G37*
G36*
G01*
X141968600Y-136731100D02*
X142528600Y-136731100D01*
G75*
G02*
X142598600Y-136801100I0J-70000D01*
G01*
X142598600Y-137411100D01*
G75*
G02*
X142528600Y-137481100I-70000J0D01*
G01*
X141968600Y-137481100D01*
G75*
G02*
X141898600Y-137411100I0J70000D01*
G01*
X141898600Y-136801100D01*
G75*
G02*
X141968600Y-136731100I70000J0D01*
G01*
G37*
G36*
G01*
X142968600Y-136731100D02*
X143528600Y-136731100D01*
G75*
G02*
X143598600Y-136801100I0J-70000D01*
G01*
X143598600Y-137411100D01*
G75*
G02*
X143528600Y-137481100I-70000J0D01*
G01*
X142968600Y-137481100D01*
G75*
G02*
X142898600Y-137411100I0J70000D01*
G01*
X142898600Y-136801100D01*
G75*
G02*
X142968600Y-136731100I70000J0D01*
G01*
G37*
G36*
G01*
X141968600Y-132921100D02*
X142528600Y-132921100D01*
G75*
G02*
X142598600Y-132991100I0J-70000D01*
G01*
X142598600Y-133601100D01*
G75*
G02*
X142528600Y-133671100I-70000J0D01*
G01*
X141968600Y-133671100D01*
G75*
G02*
X141898600Y-133601100I0J70000D01*
G01*
X141898600Y-132991100D01*
G75*
G02*
X141968600Y-132921100I70000J0D01*
G01*
G37*
G36*
G01*
X142968600Y-132921100D02*
X143528600Y-132921100D01*
G75*
G02*
X143598600Y-132991100I0J-70000D01*
G01*
X143598600Y-133601100D01*
G75*
G02*
X143528600Y-133671100I-70000J0D01*
G01*
X142968600Y-133671100D01*
G75*
G02*
X142898600Y-133601100I0J70000D01*
G01*
X142898600Y-132991100D01*
G75*
G02*
X142968600Y-132921100I70000J0D01*
G01*
G37*
G36*
G01*
X141968600Y-129111100D02*
X142528600Y-129111100D01*
G75*
G02*
X142598600Y-129181100I0J-70000D01*
G01*
X142598600Y-129791100D01*
G75*
G02*
X142528600Y-129861100I-70000J0D01*
G01*
X141968600Y-129861100D01*
G75*
G02*
X141898600Y-129791100I0J70000D01*
G01*
X141898600Y-129181100D01*
G75*
G02*
X141968600Y-129111100I70000J0D01*
G01*
G37*
G36*
G01*
X142968600Y-129111100D02*
X143528600Y-129111100D01*
G75*
G02*
X143598600Y-129181100I0J-70000D01*
G01*
X143598600Y-129791100D01*
G75*
G02*
X143528600Y-129861100I-70000J0D01*
G01*
X142968600Y-129861100D01*
G75*
G02*
X142898600Y-129791100I0J70000D01*
G01*
X142898600Y-129181100D01*
G75*
G02*
X142968600Y-129111100I70000J0D01*
G01*
G37*
G36*
G01*
X156910000Y-88655000D02*
X157470000Y-88655000D01*
G75*
G02*
X157540000Y-88725000I0J-70000D01*
G01*
X157540000Y-89335000D01*
G75*
G02*
X157470000Y-89405000I-70000J0D01*
G01*
X156910000Y-89405000D01*
G75*
G02*
X156840000Y-89335000I0J70000D01*
G01*
X156840000Y-88725000D01*
G75*
G02*
X156910000Y-88655000I70000J0D01*
G01*
G37*
G36*
G01*
X157910000Y-88655000D02*
X158470000Y-88655000D01*
G75*
G02*
X158540000Y-88725000I0J-70000D01*
G01*
X158540000Y-89335000D01*
G75*
G02*
X158470000Y-89405000I-70000J0D01*
G01*
X157910000Y-89405000D01*
G75*
G02*
X157840000Y-89335000I0J70000D01*
G01*
X157840000Y-88725000D01*
G75*
G02*
X157910000Y-88655000I70000J0D01*
G01*
G37*
G36*
G01*
X138246100Y-92483600D02*
X138246100Y-91923600D01*
G75*
G02*
X138316100Y-91853600I70000J0D01*
G01*
X138926100Y-91853600D01*
G75*
G02*
X138996100Y-91923600I0J-70000D01*
G01*
X138996100Y-92483600D01*
G75*
G02*
X138926100Y-92553600I-70000J0D01*
G01*
X138316100Y-92553600D01*
G75*
G02*
X138246100Y-92483600I0J70000D01*
G01*
G37*
G36*
G01*
X138246100Y-91483600D02*
X138246100Y-90923600D01*
G75*
G02*
X138316100Y-90853600I70000J0D01*
G01*
X138926100Y-90853600D01*
G75*
G02*
X138996100Y-90923600I0J-70000D01*
G01*
X138996100Y-91483600D01*
G75*
G02*
X138926100Y-91553600I-70000J0D01*
G01*
X138316100Y-91553600D01*
G75*
G02*
X138246100Y-91483600I0J70000D01*
G01*
G37*
G36*
G01*
X145461100Y-81803600D02*
X146021100Y-81803600D01*
G75*
G02*
X146091100Y-81873600I0J-70000D01*
G01*
X146091100Y-82483600D01*
G75*
G02*
X146021100Y-82553600I-70000J0D01*
G01*
X145461100Y-82553600D01*
G75*
G02*
X145391100Y-82483600I0J70000D01*
G01*
X145391100Y-81873600D01*
G75*
G02*
X145461100Y-81803600I70000J0D01*
G01*
G37*
G36*
G01*
X146461100Y-81803600D02*
X147021100Y-81803600D01*
G75*
G02*
X147091100Y-81873600I0J-70000D01*
G01*
X147091100Y-82483600D01*
G75*
G02*
X147021100Y-82553600I-70000J0D01*
G01*
X146461100Y-82553600D01*
G75*
G02*
X146391100Y-82483600I0J70000D01*
G01*
X146391100Y-81873600D01*
G75*
G02*
X146461100Y-81803600I70000J0D01*
G01*
G37*
G36*
G01*
X140151100Y-92483600D02*
X140151100Y-91923600D01*
G75*
G02*
X140221100Y-91853600I70000J0D01*
G01*
X140831100Y-91853600D01*
G75*
G02*
X140901100Y-91923600I0J-70000D01*
G01*
X140901100Y-92483600D01*
G75*
G02*
X140831100Y-92553600I-70000J0D01*
G01*
X140221100Y-92553600D01*
G75*
G02*
X140151100Y-92483600I0J70000D01*
G01*
G37*
G36*
G01*
X140151100Y-91483600D02*
X140151100Y-90923600D01*
G75*
G02*
X140221100Y-90853600I70000J0D01*
G01*
X140831100Y-90853600D01*
G75*
G02*
X140901100Y-90923600I0J-70000D01*
G01*
X140901100Y-91483600D01*
G75*
G02*
X140831100Y-91553600I-70000J0D01*
G01*
X140221100Y-91553600D01*
G75*
G02*
X140151100Y-91483600I0J70000D01*
G01*
G37*
G36*
G01*
X152966100Y-85526100D02*
X152966100Y-86086100D01*
G75*
G02*
X152896100Y-86156100I-70000J0D01*
G01*
X152286100Y-86156100D01*
G75*
G02*
X152216100Y-86086100I0J70000D01*
G01*
X152216100Y-85526100D01*
G75*
G02*
X152286100Y-85456100I70000J0D01*
G01*
X152896100Y-85456100D01*
G75*
G02*
X152966100Y-85526100I0J-70000D01*
G01*
G37*
G36*
G01*
X152966100Y-86526100D02*
X152966100Y-87086100D01*
G75*
G02*
X152896100Y-87156100I-70000J0D01*
G01*
X152286100Y-87156100D01*
G75*
G02*
X152216100Y-87086100I0J70000D01*
G01*
X152216100Y-86526100D01*
G75*
G02*
X152286100Y-86456100I70000J0D01*
G01*
X152896100Y-86456100D01*
G75*
G02*
X152966100Y-86526100I0J-70000D01*
G01*
G37*
G36*
G01*
X143550000Y-98805000D02*
X143550000Y-98245000D01*
G75*
G02*
X143620000Y-98175000I70000J0D01*
G01*
X144230000Y-98175000D01*
G75*
G02*
X144300000Y-98245000I0J-70000D01*
G01*
X144300000Y-98805000D01*
G75*
G02*
X144230000Y-98875000I-70000J0D01*
G01*
X143620000Y-98875000D01*
G75*
G02*
X143550000Y-98805000I0J70000D01*
G01*
G37*
G36*
G01*
X143550000Y-97805000D02*
X143550000Y-97245000D01*
G75*
G02*
X143620000Y-97175000I70000J0D01*
G01*
X144230000Y-97175000D01*
G75*
G02*
X144300000Y-97245000I0J-70000D01*
G01*
X144300000Y-97805000D01*
G75*
G02*
X144230000Y-97875000I-70000J0D01*
G01*
X143620000Y-97875000D01*
G75*
G02*
X143550000Y-97805000I0J70000D01*
G01*
G37*
G36*
G01*
X137841100Y-88153600D02*
X138401100Y-88153600D01*
G75*
G02*
X138471100Y-88223600I0J-70000D01*
G01*
X138471100Y-88833600D01*
G75*
G02*
X138401100Y-88903600I-70000J0D01*
G01*
X137841100Y-88903600D01*
G75*
G02*
X137771100Y-88833600I0J70000D01*
G01*
X137771100Y-88223600D01*
G75*
G02*
X137841100Y-88153600I70000J0D01*
G01*
G37*
G36*
G01*
X138841100Y-88153600D02*
X139401100Y-88153600D01*
G75*
G02*
X139471100Y-88223600I0J-70000D01*
G01*
X139471100Y-88833600D01*
G75*
G02*
X139401100Y-88903600I-70000J0D01*
G01*
X138841100Y-88903600D01*
G75*
G02*
X138771100Y-88833600I0J70000D01*
G01*
X138771100Y-88223600D01*
G75*
G02*
X138841100Y-88153600I70000J0D01*
G01*
G37*
G36*
G01*
X137841100Y-85613600D02*
X138401100Y-85613600D01*
G75*
G02*
X138471100Y-85683600I0J-70000D01*
G01*
X138471100Y-86293600D01*
G75*
G02*
X138401100Y-86363600I-70000J0D01*
G01*
X137841100Y-86363600D01*
G75*
G02*
X137771100Y-86293600I0J70000D01*
G01*
X137771100Y-85683600D01*
G75*
G02*
X137841100Y-85613600I70000J0D01*
G01*
G37*
G36*
G01*
X138841100Y-85613600D02*
X139401100Y-85613600D01*
G75*
G02*
X139471100Y-85683600I0J-70000D01*
G01*
X139471100Y-86293600D01*
G75*
G02*
X139401100Y-86363600I-70000J0D01*
G01*
X138841100Y-86363600D01*
G75*
G02*
X138771100Y-86293600I0J70000D01*
G01*
X138771100Y-85683600D01*
G75*
G02*
X138841100Y-85613600I70000J0D01*
G01*
G37*
G36*
G01*
X150196100Y-84458600D02*
X149636100Y-84458600D01*
G75*
G02*
X149566100Y-84388600I0J70000D01*
G01*
X149566100Y-83778600D01*
G75*
G02*
X149636100Y-83708600I70000J0D01*
G01*
X150196100Y-83708600D01*
G75*
G02*
X150266100Y-83778600I0J-70000D01*
G01*
X150266100Y-84388600D01*
G75*
G02*
X150196100Y-84458600I-70000J0D01*
G01*
G37*
G36*
G01*
X149196100Y-84458600D02*
X148636100Y-84458600D01*
G75*
G02*
X148566100Y-84388600I0J70000D01*
G01*
X148566100Y-83778600D01*
G75*
G02*
X148636100Y-83708600I70000J0D01*
G01*
X149196100Y-83708600D01*
G75*
G02*
X149266100Y-83778600I0J-70000D01*
G01*
X149266100Y-84388600D01*
G75*
G02*
X149196100Y-84458600I-70000J0D01*
G01*
G37*
G36*
G01*
X145461100Y-83708600D02*
X146021100Y-83708600D01*
G75*
G02*
X146091100Y-83778600I0J-70000D01*
G01*
X146091100Y-84388600D01*
G75*
G02*
X146021100Y-84458600I-70000J0D01*
G01*
X145461100Y-84458600D01*
G75*
G02*
X145391100Y-84388600I0J70000D01*
G01*
X145391100Y-83778600D01*
G75*
G02*
X145461100Y-83708600I70000J0D01*
G01*
G37*
G36*
G01*
X146461100Y-83708600D02*
X147021100Y-83708600D01*
G75*
G02*
X147091100Y-83778600I0J-70000D01*
G01*
X147091100Y-84388600D01*
G75*
G02*
X147021100Y-84458600I-70000J0D01*
G01*
X146461100Y-84458600D01*
G75*
G02*
X146391100Y-84388600I0J70000D01*
G01*
X146391100Y-83778600D01*
G75*
G02*
X146461100Y-83708600I70000J0D01*
G01*
G37*
G36*
G01*
X135670800Y-133643400D02*
X138170800Y-133643400D01*
G75*
G02*
X138420800Y-133893400I0J-250000D01*
G01*
X138420800Y-134993400D01*
G75*
G02*
X138170800Y-135243400I-250000J0D01*
G01*
X135670800Y-135243400D01*
G75*
G02*
X135420800Y-134993400I0J250000D01*
G01*
X135420800Y-133893400D01*
G75*
G02*
X135670800Y-133643400I250000J0D01*
G01*
G37*
G36*
G01*
X135670800Y-110843400D02*
X138170800Y-110843400D01*
G75*
G02*
X138420800Y-111093400I0J-250000D01*
G01*
X138420800Y-112193400D01*
G75*
G02*
X138170800Y-112443400I-250000J0D01*
G01*
X135670800Y-112443400D01*
G75*
G02*
X135420800Y-112193400I0J250000D01*
G01*
X135420800Y-111093400D01*
G75*
G02*
X135670800Y-110843400I250000J0D01*
G01*
G37*
G36*
G01*
X132170800Y-131543400D02*
X137170800Y-131543400D01*
G75*
G02*
X137420800Y-131793400I0J-250000D01*
G01*
X137420800Y-132293400D01*
G75*
G02*
X137170800Y-132543400I-250000J0D01*
G01*
X132170800Y-132543400D01*
G75*
G02*
X131920800Y-132293400I0J250000D01*
G01*
X131920800Y-131793400D01*
G75*
G02*
X132170800Y-131543400I250000J0D01*
G01*
G37*
G36*
G01*
X132170800Y-129543400D02*
X137170800Y-129543400D01*
G75*
G02*
X137420800Y-129793400I0J-250000D01*
G01*
X137420800Y-130293400D01*
G75*
G02*
X137170800Y-130543400I-250000J0D01*
G01*
X132170800Y-130543400D01*
G75*
G02*
X131920800Y-130293400I0J250000D01*
G01*
X131920800Y-129793400D01*
G75*
G02*
X132170800Y-129543400I250000J0D01*
G01*
G37*
G36*
G01*
X132170800Y-127543400D02*
X137170800Y-127543400D01*
G75*
G02*
X137420800Y-127793400I0J-250000D01*
G01*
X137420800Y-128293400D01*
G75*
G02*
X137170800Y-128543400I-250000J0D01*
G01*
X132170800Y-128543400D01*
G75*
G02*
X131920800Y-128293400I0J250000D01*
G01*
X131920800Y-127793400D01*
G75*
G02*
X132170800Y-127543400I250000J0D01*
G01*
G37*
G36*
G01*
X132170800Y-125543400D02*
X137170800Y-125543400D01*
G75*
G02*
X137420800Y-125793400I0J-250000D01*
G01*
X137420800Y-126293400D01*
G75*
G02*
X137170800Y-126543400I-250000J0D01*
G01*
X132170800Y-126543400D01*
G75*
G02*
X131920800Y-126293400I0J250000D01*
G01*
X131920800Y-125793400D01*
G75*
G02*
X132170800Y-125543400I250000J0D01*
G01*
G37*
G36*
G01*
X132170800Y-123543400D02*
X137170800Y-123543400D01*
G75*
G02*
X137420800Y-123793400I0J-250000D01*
G01*
X137420800Y-124293400D01*
G75*
G02*
X137170800Y-124543400I-250000J0D01*
G01*
X132170800Y-124543400D01*
G75*
G02*
X131920800Y-124293400I0J250000D01*
G01*
X131920800Y-123793400D01*
G75*
G02*
X132170800Y-123543400I250000J0D01*
G01*
G37*
G36*
G01*
X132170800Y-121543400D02*
X137170800Y-121543400D01*
G75*
G02*
X137420800Y-121793400I0J-250000D01*
G01*
X137420800Y-122293400D01*
G75*
G02*
X137170800Y-122543400I-250000J0D01*
G01*
X132170800Y-122543400D01*
G75*
G02*
X131920800Y-122293400I0J250000D01*
G01*
X131920800Y-121793400D01*
G75*
G02*
X132170800Y-121543400I250000J0D01*
G01*
G37*
G36*
G01*
X132170800Y-119543400D02*
X137170800Y-119543400D01*
G75*
G02*
X137420800Y-119793400I0J-250000D01*
G01*
X137420800Y-120293400D01*
G75*
G02*
X137170800Y-120543400I-250000J0D01*
G01*
X132170800Y-120543400D01*
G75*
G02*
X131920800Y-120293400I0J250000D01*
G01*
X131920800Y-119793400D01*
G75*
G02*
X132170800Y-119543400I250000J0D01*
G01*
G37*
G36*
G01*
X132170800Y-117543400D02*
X137170800Y-117543400D01*
G75*
G02*
X137420800Y-117793400I0J-250000D01*
G01*
X137420800Y-118293400D01*
G75*
G02*
X137170800Y-118543400I-250000J0D01*
G01*
X132170800Y-118543400D01*
G75*
G02*
X131920800Y-118293400I0J250000D01*
G01*
X131920800Y-117793400D01*
G75*
G02*
X132170800Y-117543400I250000J0D01*
G01*
G37*
G36*
G01*
X132170800Y-115543400D02*
X137170800Y-115543400D01*
G75*
G02*
X137420800Y-115793400I0J-250000D01*
G01*
X137420800Y-116293400D01*
G75*
G02*
X137170800Y-116543400I-250000J0D01*
G01*
X132170800Y-116543400D01*
G75*
G02*
X131920800Y-116293400I0J250000D01*
G01*
X131920800Y-115793400D01*
G75*
G02*
X132170800Y-115543400I250000J0D01*
G01*
G37*
G36*
G01*
X132170800Y-113543400D02*
X137170800Y-113543400D01*
G75*
G02*
X137420800Y-113793400I0J-250000D01*
G01*
X137420800Y-114293400D01*
G75*
G02*
X137170800Y-114543400I-250000J0D01*
G01*
X132170800Y-114543400D01*
G75*
G02*
X131920800Y-114293400I0J250000D01*
G01*
X131920800Y-113793400D01*
G75*
G02*
X132170800Y-113543400I250000J0D01*
G01*
G37*
M02*
