G04 #@! TF.GenerationSoftware,KiCad,Pcbnew,5.1.8+dfsg1-1~bpo10+1*
G04 #@! TF.CreationDate,2021-01-02T21:10:31+01:00*
G04 #@! TF.ProjectId,easyhive,65617379-6869-4766-952e-6b696361645f,rev?*
G04 #@! TF.SameCoordinates,Original*
G04 #@! TF.FileFunction,Soldermask,Bot*
G04 #@! TF.FilePolarity,Negative*
%FSLAX46Y46*%
G04 Gerber Fmt 4.6, Leading zero omitted, Abs format (unit mm)*
G04 Created by KiCad (PCBNEW 5.1.8+dfsg1-1~bpo10+1) date 2021-01-02 21:10:31*
%MOMM*%
%LPD*%
G01*
G04 APERTURE LIST*
%ADD10C,1.602000*%
%ADD11O,1.002000X1.902000*%
%ADD12C,0.610000*%
%ADD13C,5.436000*%
%ADD14C,0.100000*%
G04 APERTURE END LIST*
D10*
X163000000Y-88900000D03*
X163000000Y-90900000D03*
X163000000Y-92900000D03*
X134001100Y-109503600D03*
X134001100Y-107503600D03*
X134001100Y-105503600D03*
X134001100Y-103503600D03*
X134001100Y-99503600D03*
X134001100Y-97503600D03*
X134001100Y-95503600D03*
X134001100Y-91503600D03*
X134001100Y-89503600D03*
X134001100Y-87503600D03*
X134001100Y-85503600D03*
X134001100Y-83503600D03*
X163001100Y-84903600D03*
X163001100Y-82903600D03*
X163001100Y-80903600D03*
X163001100Y-78903600D03*
X163001100Y-76903600D03*
X134001100Y-77503600D03*
X134001100Y-79503600D03*
D11*
X141671100Y-68962600D03*
X148271100Y-68962600D03*
G36*
G01*
X149549600Y-91703600D02*
X149549600Y-91703600D01*
G75*
G02*
X149098600Y-92154600I-451000J0D01*
G01*
X149098600Y-92154600D01*
G75*
G02*
X148647600Y-91703600I0J451000D01*
G01*
X148647600Y-91703600D01*
G75*
G02*
X149098600Y-91252600I451000J0D01*
G01*
X149098600Y-91252600D01*
G75*
G02*
X149549600Y-91703600I0J-451000D01*
G01*
G37*
G36*
G01*
X156651000Y-91500000D02*
X156651000Y-91500000D01*
G75*
G02*
X156200000Y-91951000I-451000J0D01*
G01*
X156200000Y-91951000D01*
G75*
G02*
X155749000Y-91500000I0J451000D01*
G01*
X155749000Y-91500000D01*
G75*
G02*
X156200000Y-91049000I451000J0D01*
G01*
X156200000Y-91049000D01*
G75*
G02*
X156651000Y-91500000I0J-451000D01*
G01*
G37*
G36*
G01*
X158056000Y-90099200D02*
X158056000Y-90740800D01*
G75*
G02*
X157975800Y-90821000I-80200J0D01*
G01*
X157284200Y-90821000D01*
G75*
G02*
X157204000Y-90740800I0J80200D01*
G01*
X157204000Y-90099200D01*
G75*
G02*
X157284200Y-90019000I80200J0D01*
G01*
X157975800Y-90019000D01*
G75*
G02*
X158056000Y-90099200I0J-80200D01*
G01*
G37*
G36*
G01*
X158056000Y-89099200D02*
X158056000Y-89740800D01*
G75*
G02*
X157975800Y-89821000I-80200J0D01*
G01*
X157284200Y-89821000D01*
G75*
G02*
X157204000Y-89740800I0J80200D01*
G01*
X157204000Y-89099200D01*
G75*
G02*
X157284200Y-89019000I80200J0D01*
G01*
X157975800Y-89019000D01*
G75*
G02*
X158056000Y-89099200I0J-80200D01*
G01*
G37*
G36*
G01*
X137530300Y-91912600D02*
X138171900Y-91912600D01*
G75*
G02*
X138252100Y-91992800I0J-80200D01*
G01*
X138252100Y-92684400D01*
G75*
G02*
X138171900Y-92764600I-80200J0D01*
G01*
X137530300Y-92764600D01*
G75*
G02*
X137450100Y-92684400I0J80200D01*
G01*
X137450100Y-91992800D01*
G75*
G02*
X137530300Y-91912600I80200J0D01*
G01*
G37*
G36*
G01*
X136530300Y-91912600D02*
X137171900Y-91912600D01*
G75*
G02*
X137252100Y-91992800I0J-80200D01*
G01*
X137252100Y-92684400D01*
G75*
G02*
X137171900Y-92764600I-80200J0D01*
G01*
X136530300Y-92764600D01*
G75*
G02*
X136450100Y-92684400I0J80200D01*
G01*
X136450100Y-91992800D01*
G75*
G02*
X136530300Y-91912600I80200J0D01*
G01*
G37*
G36*
G01*
X137171900Y-94669600D02*
X136530300Y-94669600D01*
G75*
G02*
X136450100Y-94589400I0J80200D01*
G01*
X136450100Y-93897800D01*
G75*
G02*
X136530300Y-93817600I80200J0D01*
G01*
X137171900Y-93817600D01*
G75*
G02*
X137252100Y-93897800I0J-80200D01*
G01*
X137252100Y-94589400D01*
G75*
G02*
X137171900Y-94669600I-80200J0D01*
G01*
G37*
G36*
G01*
X138171900Y-94669600D02*
X137530300Y-94669600D01*
G75*
G02*
X137450100Y-94589400I0J80200D01*
G01*
X137450100Y-93897800D01*
G75*
G02*
X137530300Y-93817600I80200J0D01*
G01*
X138171900Y-93817600D01*
G75*
G02*
X138252100Y-93897800I0J-80200D01*
G01*
X138252100Y-94589400D01*
G75*
G02*
X138171900Y-94669600I-80200J0D01*
G01*
G37*
G36*
G01*
X147331900Y-81652100D02*
X146690300Y-81652100D01*
G75*
G02*
X146610100Y-81571900I0J80200D01*
G01*
X146610100Y-80880300D01*
G75*
G02*
X146690300Y-80800100I80200J0D01*
G01*
X147331900Y-80800100D01*
G75*
G02*
X147412100Y-80880300I0J-80200D01*
G01*
X147412100Y-81571900D01*
G75*
G02*
X147331900Y-81652100I-80200J0D01*
G01*
G37*
G36*
G01*
X148331900Y-81652100D02*
X147690300Y-81652100D01*
G75*
G02*
X147610100Y-81571900I0J80200D01*
G01*
X147610100Y-80880300D01*
G75*
G02*
X147690300Y-80800100I80200J0D01*
G01*
X148331900Y-80800100D01*
G75*
G02*
X148412100Y-80880300I0J-80200D01*
G01*
X148412100Y-81571900D01*
G75*
G02*
X148331900Y-81652100I-80200J0D01*
G01*
G37*
G36*
G01*
X146032100Y-78547800D02*
X146032100Y-79189400D01*
G75*
G02*
X145951900Y-79269600I-80200J0D01*
G01*
X145260300Y-79269600D01*
G75*
G02*
X145180100Y-79189400I0J80200D01*
G01*
X145180100Y-78547800D01*
G75*
G02*
X145260300Y-78467600I80200J0D01*
G01*
X145951900Y-78467600D01*
G75*
G02*
X146032100Y-78547800I0J-80200D01*
G01*
G37*
G36*
G01*
X146032100Y-77547800D02*
X146032100Y-78189400D01*
G75*
G02*
X145951900Y-78269600I-80200J0D01*
G01*
X145260300Y-78269600D01*
G75*
G02*
X145180100Y-78189400I0J80200D01*
G01*
X145180100Y-77547800D01*
G75*
G02*
X145260300Y-77467600I80200J0D01*
G01*
X145951900Y-77467600D01*
G75*
G02*
X146032100Y-77547800I0J-80200D01*
G01*
G37*
G36*
G01*
X140317100Y-78547800D02*
X140317100Y-79189400D01*
G75*
G02*
X140236900Y-79269600I-80200J0D01*
G01*
X139545300Y-79269600D01*
G75*
G02*
X139465100Y-79189400I0J80200D01*
G01*
X139465100Y-78547800D01*
G75*
G02*
X139545300Y-78467600I80200J0D01*
G01*
X140236900Y-78467600D01*
G75*
G02*
X140317100Y-78547800I0J-80200D01*
G01*
G37*
G36*
G01*
X140317100Y-77547800D02*
X140317100Y-78189400D01*
G75*
G02*
X140236900Y-78269600I-80200J0D01*
G01*
X139545300Y-78269600D01*
G75*
G02*
X139465100Y-78189400I0J80200D01*
G01*
X139465100Y-77547800D01*
G75*
G02*
X139545300Y-77467600I80200J0D01*
G01*
X140236900Y-77467600D01*
G75*
G02*
X140317100Y-77547800I0J-80200D01*
G01*
G37*
G36*
G01*
X144127100Y-78547800D02*
X144127100Y-79189400D01*
G75*
G02*
X144046900Y-79269600I-80200J0D01*
G01*
X143355300Y-79269600D01*
G75*
G02*
X143275100Y-79189400I0J80200D01*
G01*
X143275100Y-78547800D01*
G75*
G02*
X143355300Y-78467600I80200J0D01*
G01*
X144046900Y-78467600D01*
G75*
G02*
X144127100Y-78547800I0J-80200D01*
G01*
G37*
G36*
G01*
X144127100Y-77547800D02*
X144127100Y-78189400D01*
G75*
G02*
X144046900Y-78269600I-80200J0D01*
G01*
X143355300Y-78269600D01*
G75*
G02*
X143275100Y-78189400I0J80200D01*
G01*
X143275100Y-77547800D01*
G75*
G02*
X143355300Y-77467600I80200J0D01*
G01*
X144046900Y-77467600D01*
G75*
G02*
X144127100Y-77547800I0J-80200D01*
G01*
G37*
G36*
G01*
X139500000Y-112324000D02*
X142900000Y-112324000D01*
G75*
G02*
X142951000Y-112375000I0J-51000D01*
G01*
X142951000Y-113675000D01*
G75*
G02*
X142900000Y-113726000I-51000J0D01*
G01*
X139500000Y-113726000D01*
G75*
G02*
X139449000Y-113675000I0J51000D01*
G01*
X139449000Y-112375000D01*
G75*
G02*
X139500000Y-112324000I51000J0D01*
G01*
G37*
G36*
G01*
X139500000Y-103624000D02*
X142900000Y-103624000D01*
G75*
G02*
X142951000Y-103675000I0J-51000D01*
G01*
X142951000Y-104975000D01*
G75*
G02*
X142900000Y-105026000I-51000J0D01*
G01*
X139500000Y-105026000D01*
G75*
G02*
X139449000Y-104975000I0J51000D01*
G01*
X139449000Y-103675000D01*
G75*
G02*
X139500000Y-103624000I51000J0D01*
G01*
G37*
G36*
G01*
X147246099Y-74922600D02*
X149046101Y-74922600D01*
G75*
G02*
X149097100Y-74973599I0J-50999D01*
G01*
X149097100Y-76173601D01*
G75*
G02*
X149046101Y-76224600I-50999J0D01*
G01*
X147246099Y-76224600D01*
G75*
G02*
X147195100Y-76173601I0J50999D01*
G01*
X147195100Y-74973599D01*
G75*
G02*
X147246099Y-74922600I50999J0D01*
G01*
G37*
G36*
G01*
X147246099Y-71622600D02*
X149046101Y-71622600D01*
G75*
G02*
X149097100Y-71673599I0J-50999D01*
G01*
X149097100Y-72873601D01*
G75*
G02*
X149046101Y-72924600I-50999J0D01*
G01*
X147246099Y-72924600D01*
G75*
G02*
X147195100Y-72873601I0J50999D01*
G01*
X147195100Y-71673599D01*
G75*
G02*
X147246099Y-71622600I50999J0D01*
G01*
G37*
G36*
G01*
X142690000Y-133504000D02*
X141790000Y-133504000D01*
G75*
G02*
X141739000Y-133453000I0J51000D01*
G01*
X141739000Y-133053000D01*
G75*
G02*
X141790000Y-133002000I51000J0D01*
G01*
X142690000Y-133002000D01*
G75*
G02*
X142741000Y-133053000I0J-51000D01*
G01*
X142741000Y-133453000D01*
G75*
G02*
X142690000Y-133504000I-51000J0D01*
G01*
G37*
G36*
G01*
X142690000Y-132854000D02*
X141790000Y-132854000D01*
G75*
G02*
X141739000Y-132803000I0J51000D01*
G01*
X141739000Y-132403000D01*
G75*
G02*
X141790000Y-132352000I51000J0D01*
G01*
X142690000Y-132352000D01*
G75*
G02*
X142741000Y-132403000I0J-51000D01*
G01*
X142741000Y-132803000D01*
G75*
G02*
X142690000Y-132854000I-51000J0D01*
G01*
G37*
G36*
G01*
X142690000Y-132204000D02*
X141790000Y-132204000D01*
G75*
G02*
X141739000Y-132153000I0J51000D01*
G01*
X141739000Y-131753000D01*
G75*
G02*
X141790000Y-131702000I51000J0D01*
G01*
X142690000Y-131702000D01*
G75*
G02*
X142741000Y-131753000I0J-51000D01*
G01*
X142741000Y-132153000D01*
G75*
G02*
X142690000Y-132204000I-51000J0D01*
G01*
G37*
G36*
G01*
X140490000Y-133504000D02*
X139590000Y-133504000D01*
G75*
G02*
X139539000Y-133453000I0J51000D01*
G01*
X139539000Y-133053000D01*
G75*
G02*
X139590000Y-133002000I51000J0D01*
G01*
X140490000Y-133002000D01*
G75*
G02*
X140541000Y-133053000I0J-51000D01*
G01*
X140541000Y-133453000D01*
G75*
G02*
X140490000Y-133504000I-51000J0D01*
G01*
G37*
G36*
G01*
X140490000Y-132854000D02*
X139590000Y-132854000D01*
G75*
G02*
X139539000Y-132803000I0J51000D01*
G01*
X139539000Y-132403000D01*
G75*
G02*
X139590000Y-132352000I51000J0D01*
G01*
X140490000Y-132352000D01*
G75*
G02*
X140541000Y-132403000I0J-51000D01*
G01*
X140541000Y-132803000D01*
G75*
G02*
X140490000Y-132854000I-51000J0D01*
G01*
G37*
G36*
G01*
X140490000Y-132204000D02*
X139590000Y-132204000D01*
G75*
G02*
X139539000Y-132153000I0J51000D01*
G01*
X139539000Y-131753000D01*
G75*
G02*
X139590000Y-131702000I51000J0D01*
G01*
X140490000Y-131702000D01*
G75*
G02*
X140541000Y-131753000I0J-51000D01*
G01*
X140541000Y-132153000D01*
G75*
G02*
X140490000Y-132204000I-51000J0D01*
G01*
G37*
G36*
G01*
X155326600Y-82172600D02*
X156065600Y-82172600D01*
G75*
G02*
X156147100Y-82254100I0J-81500D01*
G01*
X156147100Y-82743100D01*
G75*
G02*
X156065600Y-82824600I-81500J0D01*
G01*
X155326600Y-82824600D01*
G75*
G02*
X155245100Y-82743100I0J81500D01*
G01*
X155245100Y-82254100D01*
G75*
G02*
X155326600Y-82172600I81500J0D01*
G01*
G37*
G36*
G01*
X155326600Y-84072600D02*
X156065600Y-84072600D01*
G75*
G02*
X156147100Y-84154100I0J-81500D01*
G01*
X156147100Y-84643100D01*
G75*
G02*
X156065600Y-84724600I-81500J0D01*
G01*
X155326600Y-84724600D01*
G75*
G02*
X155245100Y-84643100I0J81500D01*
G01*
X155245100Y-84154100D01*
G75*
G02*
X155326600Y-84072600I81500J0D01*
G01*
G37*
G36*
G01*
X152926600Y-82172600D02*
X153665600Y-82172600D01*
G75*
G02*
X153747100Y-82254100I0J-81500D01*
G01*
X153747100Y-82743100D01*
G75*
G02*
X153665600Y-82824600I-81500J0D01*
G01*
X152926600Y-82824600D01*
G75*
G02*
X152845100Y-82743100I0J81500D01*
G01*
X152845100Y-82254100D01*
G75*
G02*
X152926600Y-82172600I81500J0D01*
G01*
G37*
G36*
G01*
X155326600Y-83122600D02*
X156065600Y-83122600D01*
G75*
G02*
X156147100Y-83204100I0J-81500D01*
G01*
X156147100Y-83693100D01*
G75*
G02*
X156065600Y-83774600I-81500J0D01*
G01*
X155326600Y-83774600D01*
G75*
G02*
X155245100Y-83693100I0J81500D01*
G01*
X155245100Y-83204100D01*
G75*
G02*
X155326600Y-83122600I81500J0D01*
G01*
G37*
G36*
G01*
X152926600Y-84072600D02*
X153665600Y-84072600D01*
G75*
G02*
X153747100Y-84154100I0J-81500D01*
G01*
X153747100Y-84643100D01*
G75*
G02*
X153665600Y-84724600I-81500J0D01*
G01*
X152926600Y-84724600D01*
G75*
G02*
X152845100Y-84643100I0J81500D01*
G01*
X152845100Y-84154100D01*
G75*
G02*
X152926600Y-84072600I81500J0D01*
G01*
G37*
G36*
G01*
X159149000Y-90375000D02*
X159149000Y-89025000D01*
G75*
G02*
X159200000Y-88974000I51000J0D01*
G01*
X159600000Y-88974000D01*
G75*
G02*
X159651000Y-89025000I0J-51000D01*
G01*
X159651000Y-90375000D01*
G75*
G02*
X159600000Y-90426000I-51000J0D01*
G01*
X159200000Y-90426000D01*
G75*
G02*
X159149000Y-90375000I0J51000D01*
G01*
G37*
G36*
G01*
X159799000Y-90375000D02*
X159799000Y-89025000D01*
G75*
G02*
X159850000Y-88974000I51000J0D01*
G01*
X160250000Y-88974000D01*
G75*
G02*
X160301000Y-89025000I0J-51000D01*
G01*
X160301000Y-90375000D01*
G75*
G02*
X160250000Y-90426000I-51000J0D01*
G01*
X159850000Y-90426000D01*
G75*
G02*
X159799000Y-90375000I0J51000D01*
G01*
G37*
G36*
G01*
X160449000Y-90375000D02*
X160449000Y-89025000D01*
G75*
G02*
X160500000Y-88974000I51000J0D01*
G01*
X160900000Y-88974000D01*
G75*
G02*
X160951000Y-89025000I0J-51000D01*
G01*
X160951000Y-90375000D01*
G75*
G02*
X160900000Y-90426000I-51000J0D01*
G01*
X160500000Y-90426000D01*
G75*
G02*
X160449000Y-90375000I0J51000D01*
G01*
G37*
G36*
G01*
X161099000Y-90375000D02*
X161099000Y-89025000D01*
G75*
G02*
X161150000Y-88974000I51000J0D01*
G01*
X161550000Y-88974000D01*
G75*
G02*
X161601000Y-89025000I0J-51000D01*
G01*
X161601000Y-90375000D01*
G75*
G02*
X161550000Y-90426000I-51000J0D01*
G01*
X161150000Y-90426000D01*
G75*
G02*
X161099000Y-90375000I0J51000D01*
G01*
G37*
G36*
G01*
X161601000Y-93325000D02*
X161601000Y-94675000D01*
G75*
G02*
X161550000Y-94726000I-51000J0D01*
G01*
X161150000Y-94726000D01*
G75*
G02*
X161099000Y-94675000I0J51000D01*
G01*
X161099000Y-93325000D01*
G75*
G02*
X161150000Y-93274000I51000J0D01*
G01*
X161550000Y-93274000D01*
G75*
G02*
X161601000Y-93325000I0J-51000D01*
G01*
G37*
G36*
G01*
X160951000Y-93325000D02*
X160951000Y-94675000D01*
G75*
G02*
X160900000Y-94726000I-51000J0D01*
G01*
X160500000Y-94726000D01*
G75*
G02*
X160449000Y-94675000I0J51000D01*
G01*
X160449000Y-93325000D01*
G75*
G02*
X160500000Y-93274000I51000J0D01*
G01*
X160900000Y-93274000D01*
G75*
G02*
X160951000Y-93325000I0J-51000D01*
G01*
G37*
G36*
G01*
X160301000Y-93325000D02*
X160301000Y-94675000D01*
G75*
G02*
X160250000Y-94726000I-51000J0D01*
G01*
X159850000Y-94726000D01*
G75*
G02*
X159799000Y-94675000I0J51000D01*
G01*
X159799000Y-93325000D01*
G75*
G02*
X159850000Y-93274000I51000J0D01*
G01*
X160250000Y-93274000D01*
G75*
G02*
X160301000Y-93325000I0J-51000D01*
G01*
G37*
G36*
G01*
X159651000Y-93325000D02*
X159651000Y-94675000D01*
G75*
G02*
X159600000Y-94726000I-51000J0D01*
G01*
X159200000Y-94726000D01*
G75*
G02*
X159149000Y-94675000I0J51000D01*
G01*
X159149000Y-93325000D01*
G75*
G02*
X159200000Y-93274000I51000J0D01*
G01*
X159600000Y-93274000D01*
G75*
G02*
X159651000Y-93325000I0J-51000D01*
G01*
G37*
G36*
G01*
X139931000Y-121484000D02*
X139931000Y-122948000D01*
G75*
G02*
X139862000Y-123017000I-69000J0D01*
G01*
X139448000Y-123017000D01*
G75*
G02*
X139379000Y-122948000I0J69000D01*
G01*
X139379000Y-121484000D01*
G75*
G02*
X139448000Y-121415000I69000J0D01*
G01*
X139862000Y-121415000D01*
G75*
G02*
X139931000Y-121484000I0J-69000D01*
G01*
G37*
G36*
G01*
X140581000Y-121484000D02*
X140581000Y-122948000D01*
G75*
G02*
X140512000Y-123017000I-69000J0D01*
G01*
X140098000Y-123017000D01*
G75*
G02*
X140029000Y-122948000I0J69000D01*
G01*
X140029000Y-121484000D01*
G75*
G02*
X140098000Y-121415000I69000J0D01*
G01*
X140512000Y-121415000D01*
G75*
G02*
X140581000Y-121484000I0J-69000D01*
G01*
G37*
G36*
G01*
X141231000Y-121484000D02*
X141231000Y-122948000D01*
G75*
G02*
X141162000Y-123017000I-69000J0D01*
G01*
X140748000Y-123017000D01*
G75*
G02*
X140679000Y-122948000I0J69000D01*
G01*
X140679000Y-121484000D01*
G75*
G02*
X140748000Y-121415000I69000J0D01*
G01*
X141162000Y-121415000D01*
G75*
G02*
X141231000Y-121484000I0J-69000D01*
G01*
G37*
G36*
G01*
X141881000Y-121484000D02*
X141881000Y-122948000D01*
G75*
G02*
X141812000Y-123017000I-69000J0D01*
G01*
X141398000Y-123017000D01*
G75*
G02*
X141329000Y-122948000I0J69000D01*
G01*
X141329000Y-121484000D01*
G75*
G02*
X141398000Y-121415000I69000J0D01*
G01*
X141812000Y-121415000D01*
G75*
G02*
X141881000Y-121484000I0J-69000D01*
G01*
G37*
G36*
G01*
X142531000Y-121484000D02*
X142531000Y-122948000D01*
G75*
G02*
X142462000Y-123017000I-69000J0D01*
G01*
X142048000Y-123017000D01*
G75*
G02*
X141979000Y-122948000I0J69000D01*
G01*
X141979000Y-121484000D01*
G75*
G02*
X142048000Y-121415000I69000J0D01*
G01*
X142462000Y-121415000D01*
G75*
G02*
X142531000Y-121484000I0J-69000D01*
G01*
G37*
G36*
G01*
X143181000Y-121484000D02*
X143181000Y-122948000D01*
G75*
G02*
X143112000Y-123017000I-69000J0D01*
G01*
X142698000Y-123017000D01*
G75*
G02*
X142629000Y-122948000I0J69000D01*
G01*
X142629000Y-121484000D01*
G75*
G02*
X142698000Y-121415000I69000J0D01*
G01*
X143112000Y-121415000D01*
G75*
G02*
X143181000Y-121484000I0J-69000D01*
G01*
G37*
G36*
G01*
X143831000Y-121484000D02*
X143831000Y-122948000D01*
G75*
G02*
X143762000Y-123017000I-69000J0D01*
G01*
X143348000Y-123017000D01*
G75*
G02*
X143279000Y-122948000I0J69000D01*
G01*
X143279000Y-121484000D01*
G75*
G02*
X143348000Y-121415000I69000J0D01*
G01*
X143762000Y-121415000D01*
G75*
G02*
X143831000Y-121484000I0J-69000D01*
G01*
G37*
G36*
G01*
X144481000Y-121484000D02*
X144481000Y-122948000D01*
G75*
G02*
X144412000Y-123017000I-69000J0D01*
G01*
X143998000Y-123017000D01*
G75*
G02*
X143929000Y-122948000I0J69000D01*
G01*
X143929000Y-121484000D01*
G75*
G02*
X143998000Y-121415000I69000J0D01*
G01*
X144412000Y-121415000D01*
G75*
G02*
X144481000Y-121484000I0J-69000D01*
G01*
G37*
G36*
G01*
X145131000Y-121484000D02*
X145131000Y-122948000D01*
G75*
G02*
X145062000Y-123017000I-69000J0D01*
G01*
X144648000Y-123017000D01*
G75*
G02*
X144579000Y-122948000I0J69000D01*
G01*
X144579000Y-121484000D01*
G75*
G02*
X144648000Y-121415000I69000J0D01*
G01*
X145062000Y-121415000D01*
G75*
G02*
X145131000Y-121484000I0J-69000D01*
G01*
G37*
G36*
G01*
X145781000Y-121484000D02*
X145781000Y-122948000D01*
G75*
G02*
X145712000Y-123017000I-69000J0D01*
G01*
X145298000Y-123017000D01*
G75*
G02*
X145229000Y-122948000I0J69000D01*
G01*
X145229000Y-121484000D01*
G75*
G02*
X145298000Y-121415000I69000J0D01*
G01*
X145712000Y-121415000D01*
G75*
G02*
X145781000Y-121484000I0J-69000D01*
G01*
G37*
G36*
G01*
X146431000Y-121484000D02*
X146431000Y-122948000D01*
G75*
G02*
X146362000Y-123017000I-69000J0D01*
G01*
X145948000Y-123017000D01*
G75*
G02*
X145879000Y-122948000I0J69000D01*
G01*
X145879000Y-121484000D01*
G75*
G02*
X145948000Y-121415000I69000J0D01*
G01*
X146362000Y-121415000D01*
G75*
G02*
X146431000Y-121484000I0J-69000D01*
G01*
G37*
G36*
G01*
X147081000Y-121484000D02*
X147081000Y-122948000D01*
G75*
G02*
X147012000Y-123017000I-69000J0D01*
G01*
X146598000Y-123017000D01*
G75*
G02*
X146529000Y-122948000I0J69000D01*
G01*
X146529000Y-121484000D01*
G75*
G02*
X146598000Y-121415000I69000J0D01*
G01*
X147012000Y-121415000D01*
G75*
G02*
X147081000Y-121484000I0J-69000D01*
G01*
G37*
G36*
G01*
X139931000Y-127284000D02*
X139931000Y-128748000D01*
G75*
G02*
X139862000Y-128817000I-69000J0D01*
G01*
X139448000Y-128817000D01*
G75*
G02*
X139379000Y-128748000I0J69000D01*
G01*
X139379000Y-127284000D01*
G75*
G02*
X139448000Y-127215000I69000J0D01*
G01*
X139862000Y-127215000D01*
G75*
G02*
X139931000Y-127284000I0J-69000D01*
G01*
G37*
G36*
G01*
X140581000Y-127284000D02*
X140581000Y-128748000D01*
G75*
G02*
X140512000Y-128817000I-69000J0D01*
G01*
X140098000Y-128817000D01*
G75*
G02*
X140029000Y-128748000I0J69000D01*
G01*
X140029000Y-127284000D01*
G75*
G02*
X140098000Y-127215000I69000J0D01*
G01*
X140512000Y-127215000D01*
G75*
G02*
X140581000Y-127284000I0J-69000D01*
G01*
G37*
G36*
G01*
X141231000Y-127284000D02*
X141231000Y-128748000D01*
G75*
G02*
X141162000Y-128817000I-69000J0D01*
G01*
X140748000Y-128817000D01*
G75*
G02*
X140679000Y-128748000I0J69000D01*
G01*
X140679000Y-127284000D01*
G75*
G02*
X140748000Y-127215000I69000J0D01*
G01*
X141162000Y-127215000D01*
G75*
G02*
X141231000Y-127284000I0J-69000D01*
G01*
G37*
G36*
G01*
X141881000Y-127284000D02*
X141881000Y-128748000D01*
G75*
G02*
X141812000Y-128817000I-69000J0D01*
G01*
X141398000Y-128817000D01*
G75*
G02*
X141329000Y-128748000I0J69000D01*
G01*
X141329000Y-127284000D01*
G75*
G02*
X141398000Y-127215000I69000J0D01*
G01*
X141812000Y-127215000D01*
G75*
G02*
X141881000Y-127284000I0J-69000D01*
G01*
G37*
G36*
G01*
X142531000Y-127284000D02*
X142531000Y-128748000D01*
G75*
G02*
X142462000Y-128817000I-69000J0D01*
G01*
X142048000Y-128817000D01*
G75*
G02*
X141979000Y-128748000I0J69000D01*
G01*
X141979000Y-127284000D01*
G75*
G02*
X142048000Y-127215000I69000J0D01*
G01*
X142462000Y-127215000D01*
G75*
G02*
X142531000Y-127284000I0J-69000D01*
G01*
G37*
G36*
G01*
X143181000Y-127284000D02*
X143181000Y-128748000D01*
G75*
G02*
X143112000Y-128817000I-69000J0D01*
G01*
X142698000Y-128817000D01*
G75*
G02*
X142629000Y-128748000I0J69000D01*
G01*
X142629000Y-127284000D01*
G75*
G02*
X142698000Y-127215000I69000J0D01*
G01*
X143112000Y-127215000D01*
G75*
G02*
X143181000Y-127284000I0J-69000D01*
G01*
G37*
G36*
G01*
X143831000Y-127284000D02*
X143831000Y-128748000D01*
G75*
G02*
X143762000Y-128817000I-69000J0D01*
G01*
X143348000Y-128817000D01*
G75*
G02*
X143279000Y-128748000I0J69000D01*
G01*
X143279000Y-127284000D01*
G75*
G02*
X143348000Y-127215000I69000J0D01*
G01*
X143762000Y-127215000D01*
G75*
G02*
X143831000Y-127284000I0J-69000D01*
G01*
G37*
G36*
G01*
X144481000Y-127284000D02*
X144481000Y-128748000D01*
G75*
G02*
X144412000Y-128817000I-69000J0D01*
G01*
X143998000Y-128817000D01*
G75*
G02*
X143929000Y-128748000I0J69000D01*
G01*
X143929000Y-127284000D01*
G75*
G02*
X143998000Y-127215000I69000J0D01*
G01*
X144412000Y-127215000D01*
G75*
G02*
X144481000Y-127284000I0J-69000D01*
G01*
G37*
G36*
G01*
X145131000Y-127284000D02*
X145131000Y-128748000D01*
G75*
G02*
X145062000Y-128817000I-69000J0D01*
G01*
X144648000Y-128817000D01*
G75*
G02*
X144579000Y-128748000I0J69000D01*
G01*
X144579000Y-127284000D01*
G75*
G02*
X144648000Y-127215000I69000J0D01*
G01*
X145062000Y-127215000D01*
G75*
G02*
X145131000Y-127284000I0J-69000D01*
G01*
G37*
G36*
G01*
X145781000Y-127284000D02*
X145781000Y-128748000D01*
G75*
G02*
X145712000Y-128817000I-69000J0D01*
G01*
X145298000Y-128817000D01*
G75*
G02*
X145229000Y-128748000I0J69000D01*
G01*
X145229000Y-127284000D01*
G75*
G02*
X145298000Y-127215000I69000J0D01*
G01*
X145712000Y-127215000D01*
G75*
G02*
X145781000Y-127284000I0J-69000D01*
G01*
G37*
G36*
G01*
X146431000Y-127284000D02*
X146431000Y-128748000D01*
G75*
G02*
X146362000Y-128817000I-69000J0D01*
G01*
X145948000Y-128817000D01*
G75*
G02*
X145879000Y-128748000I0J69000D01*
G01*
X145879000Y-127284000D01*
G75*
G02*
X145948000Y-127215000I69000J0D01*
G01*
X146362000Y-127215000D01*
G75*
G02*
X146431000Y-127284000I0J-69000D01*
G01*
G37*
G36*
G01*
X147081000Y-127284000D02*
X147081000Y-128748000D01*
G75*
G02*
X147012000Y-128817000I-69000J0D01*
G01*
X146598000Y-128817000D01*
G75*
G02*
X146529000Y-128748000I0J69000D01*
G01*
X146529000Y-127284000D01*
G75*
G02*
X146598000Y-127215000I69000J0D01*
G01*
X147012000Y-127215000D01*
G75*
G02*
X147081000Y-127284000I0J-69000D01*
G01*
G37*
G36*
G01*
X144182100Y-82431600D02*
X144182100Y-82695600D01*
G75*
G02*
X144138100Y-82739600I-44000J0D01*
G01*
X143524100Y-82739600D01*
G75*
G02*
X143480100Y-82695600I0J44000D01*
G01*
X143480100Y-82431600D01*
G75*
G02*
X143524100Y-82387600I44000J0D01*
G01*
X144138100Y-82387600D01*
G75*
G02*
X144182100Y-82431600I0J-44000D01*
G01*
G37*
G36*
G01*
X144182100Y-81931600D02*
X144182100Y-82195600D01*
G75*
G02*
X144138100Y-82239600I-44000J0D01*
G01*
X143524100Y-82239600D01*
G75*
G02*
X143480100Y-82195600I0J44000D01*
G01*
X143480100Y-81931600D01*
G75*
G02*
X143524100Y-81887600I44000J0D01*
G01*
X144138100Y-81887600D01*
G75*
G02*
X144182100Y-81931600I0J-44000D01*
G01*
G37*
G36*
G01*
X144182100Y-82931600D02*
X144182100Y-83195600D01*
G75*
G02*
X144138100Y-83239600I-44000J0D01*
G01*
X143524100Y-83239600D01*
G75*
G02*
X143480100Y-83195600I0J44000D01*
G01*
X143480100Y-82931600D01*
G75*
G02*
X143524100Y-82887600I44000J0D01*
G01*
X144138100Y-82887600D01*
G75*
G02*
X144182100Y-82931600I0J-44000D01*
G01*
G37*
G36*
G01*
X144182100Y-83431600D02*
X144182100Y-83695600D01*
G75*
G02*
X144138100Y-83739600I-44000J0D01*
G01*
X143524100Y-83739600D01*
G75*
G02*
X143480100Y-83695600I0J44000D01*
G01*
X143480100Y-83431600D01*
G75*
G02*
X143524100Y-83387600I44000J0D01*
G01*
X144138100Y-83387600D01*
G75*
G02*
X144182100Y-83431600I0J-44000D01*
G01*
G37*
G36*
G01*
X143313100Y-84564600D02*
X143049100Y-84564600D01*
G75*
G02*
X143005100Y-84520600I0J44000D01*
G01*
X143005100Y-83906600D01*
G75*
G02*
X143049100Y-83862600I44000J0D01*
G01*
X143313100Y-83862600D01*
G75*
G02*
X143357100Y-83906600I0J-44000D01*
G01*
X143357100Y-84520600D01*
G75*
G02*
X143313100Y-84564600I-44000J0D01*
G01*
G37*
G36*
G01*
X142813100Y-84564600D02*
X142549100Y-84564600D01*
G75*
G02*
X142505100Y-84520600I0J44000D01*
G01*
X142505100Y-83906600D01*
G75*
G02*
X142549100Y-83862600I44000J0D01*
G01*
X142813100Y-83862600D01*
G75*
G02*
X142857100Y-83906600I0J-44000D01*
G01*
X142857100Y-84520600D01*
G75*
G02*
X142813100Y-84564600I-44000J0D01*
G01*
G37*
G36*
G01*
X142313100Y-84564600D02*
X142049100Y-84564600D01*
G75*
G02*
X142005100Y-84520600I0J44000D01*
G01*
X142005100Y-83906600D01*
G75*
G02*
X142049100Y-83862600I44000J0D01*
G01*
X142313100Y-83862600D01*
G75*
G02*
X142357100Y-83906600I0J-44000D01*
G01*
X142357100Y-84520600D01*
G75*
G02*
X142313100Y-84564600I-44000J0D01*
G01*
G37*
G36*
G01*
X141813100Y-84564600D02*
X141549100Y-84564600D01*
G75*
G02*
X141505100Y-84520600I0J44000D01*
G01*
X141505100Y-83906600D01*
G75*
G02*
X141549100Y-83862600I44000J0D01*
G01*
X141813100Y-83862600D01*
G75*
G02*
X141857100Y-83906600I0J-44000D01*
G01*
X141857100Y-84520600D01*
G75*
G02*
X141813100Y-84564600I-44000J0D01*
G01*
G37*
G36*
G01*
X140680100Y-83695600D02*
X140680100Y-83431600D01*
G75*
G02*
X140724100Y-83387600I44000J0D01*
G01*
X141338100Y-83387600D01*
G75*
G02*
X141382100Y-83431600I0J-44000D01*
G01*
X141382100Y-83695600D01*
G75*
G02*
X141338100Y-83739600I-44000J0D01*
G01*
X140724100Y-83739600D01*
G75*
G02*
X140680100Y-83695600I0J44000D01*
G01*
G37*
G36*
G01*
X140680100Y-83195600D02*
X140680100Y-82931600D01*
G75*
G02*
X140724100Y-82887600I44000J0D01*
G01*
X141338100Y-82887600D01*
G75*
G02*
X141382100Y-82931600I0J-44000D01*
G01*
X141382100Y-83195600D01*
G75*
G02*
X141338100Y-83239600I-44000J0D01*
G01*
X140724100Y-83239600D01*
G75*
G02*
X140680100Y-83195600I0J44000D01*
G01*
G37*
G36*
G01*
X140680100Y-82695600D02*
X140680100Y-82431600D01*
G75*
G02*
X140724100Y-82387600I44000J0D01*
G01*
X141338100Y-82387600D01*
G75*
G02*
X141382100Y-82431600I0J-44000D01*
G01*
X141382100Y-82695600D01*
G75*
G02*
X141338100Y-82739600I-44000J0D01*
G01*
X140724100Y-82739600D01*
G75*
G02*
X140680100Y-82695600I0J44000D01*
G01*
G37*
G36*
G01*
X140680100Y-82195600D02*
X140680100Y-81931600D01*
G75*
G02*
X140724100Y-81887600I44000J0D01*
G01*
X141338100Y-81887600D01*
G75*
G02*
X141382100Y-81931600I0J-44000D01*
G01*
X141382100Y-82195600D01*
G75*
G02*
X141338100Y-82239600I-44000J0D01*
G01*
X140724100Y-82239600D01*
G75*
G02*
X140680100Y-82195600I0J44000D01*
G01*
G37*
G36*
G01*
X141549100Y-81062600D02*
X141813100Y-81062600D01*
G75*
G02*
X141857100Y-81106600I0J-44000D01*
G01*
X141857100Y-81720600D01*
G75*
G02*
X141813100Y-81764600I-44000J0D01*
G01*
X141549100Y-81764600D01*
G75*
G02*
X141505100Y-81720600I0J44000D01*
G01*
X141505100Y-81106600D01*
G75*
G02*
X141549100Y-81062600I44000J0D01*
G01*
G37*
G36*
G01*
X142049100Y-81062600D02*
X142313100Y-81062600D01*
G75*
G02*
X142357100Y-81106600I0J-44000D01*
G01*
X142357100Y-81720600D01*
G75*
G02*
X142313100Y-81764600I-44000J0D01*
G01*
X142049100Y-81764600D01*
G75*
G02*
X142005100Y-81720600I0J44000D01*
G01*
X142005100Y-81106600D01*
G75*
G02*
X142049100Y-81062600I44000J0D01*
G01*
G37*
G36*
G01*
X142549100Y-81062600D02*
X142813100Y-81062600D01*
G75*
G02*
X142857100Y-81106600I0J-44000D01*
G01*
X142857100Y-81720600D01*
G75*
G02*
X142813100Y-81764600I-44000J0D01*
G01*
X142549100Y-81764600D01*
G75*
G02*
X142505100Y-81720600I0J44000D01*
G01*
X142505100Y-81106600D01*
G75*
G02*
X142549100Y-81062600I44000J0D01*
G01*
G37*
G36*
G01*
X143049100Y-81062600D02*
X143313100Y-81062600D01*
G75*
G02*
X143357100Y-81106600I0J-44000D01*
G01*
X143357100Y-81720600D01*
G75*
G02*
X143313100Y-81764600I-44000J0D01*
G01*
X143049100Y-81764600D01*
G75*
G02*
X143005100Y-81720600I0J44000D01*
G01*
X143005100Y-81106600D01*
G75*
G02*
X143049100Y-81062600I44000J0D01*
G01*
G37*
G36*
G01*
X143282100Y-82047700D02*
X143282100Y-83579500D01*
G75*
G02*
X143197000Y-83664600I-85100J0D01*
G01*
X141665200Y-83664600D01*
G75*
G02*
X141580100Y-83579500I0J85100D01*
G01*
X141580100Y-82047700D01*
G75*
G02*
X141665200Y-81962600I85100J0D01*
G01*
X143197000Y-81962600D01*
G75*
G02*
X143282100Y-82047700I0J-85100D01*
G01*
G37*
D12*
X142981100Y-82263600D03*
X142931100Y-83313600D03*
X142431100Y-82813600D03*
X141881100Y-82263600D03*
D13*
X161001100Y-138503600D03*
X161001100Y-71503600D03*
X136001100Y-71503600D03*
X135991600Y-138506200D03*
G36*
G01*
X136451100Y-84632600D02*
X138251100Y-84632600D01*
G75*
G02*
X138302100Y-84683600I0J-51000D01*
G01*
X138302100Y-86283600D01*
G75*
G02*
X138251100Y-86334600I-51000J0D01*
G01*
X136451100Y-86334600D01*
G75*
G02*
X136400100Y-86283600I0J51000D01*
G01*
X136400100Y-84683600D01*
G75*
G02*
X136451100Y-84632600I51000J0D01*
G01*
G37*
G36*
G01*
X136451100Y-81832600D02*
X138251100Y-81832600D01*
G75*
G02*
X138302100Y-81883600I0J-51000D01*
G01*
X138302100Y-83483600D01*
G75*
G02*
X138251100Y-83534600I-51000J0D01*
G01*
X136451100Y-83534600D01*
G75*
G02*
X136400100Y-83483600I0J51000D01*
G01*
X136400100Y-81883600D01*
G75*
G02*
X136451100Y-81832600I51000J0D01*
G01*
G37*
G36*
G01*
X161842000Y-87109600D02*
X161120200Y-87109600D01*
G75*
G02*
X161080100Y-87069500I0J40100D01*
G01*
X161080100Y-86147700D01*
G75*
G02*
X161120200Y-86107600I40100J0D01*
G01*
X161842000Y-86107600D01*
G75*
G02*
X161882100Y-86147700I0J-40100D01*
G01*
X161882100Y-87069500D01*
G75*
G02*
X161842000Y-87109600I-40100J0D01*
G01*
G37*
G36*
G01*
X161842000Y-88409600D02*
X161120200Y-88409600D01*
G75*
G02*
X161080100Y-88369500I0J40100D01*
G01*
X161080100Y-87447700D01*
G75*
G02*
X161120200Y-87407600I40100J0D01*
G01*
X161842000Y-87407600D01*
G75*
G02*
X161882100Y-87447700I0J-40100D01*
G01*
X161882100Y-88369500D01*
G75*
G02*
X161842000Y-88409600I-40100J0D01*
G01*
G37*
G36*
G01*
X160572000Y-87109600D02*
X159850200Y-87109600D01*
G75*
G02*
X159810100Y-87069500I0J40100D01*
G01*
X159810100Y-86147700D01*
G75*
G02*
X159850200Y-86107600I40100J0D01*
G01*
X160572000Y-86107600D01*
G75*
G02*
X160612100Y-86147700I0J-40100D01*
G01*
X160612100Y-87069500D01*
G75*
G02*
X160572000Y-87109600I-40100J0D01*
G01*
G37*
G36*
G01*
X160572000Y-88409600D02*
X159850200Y-88409600D01*
G75*
G02*
X159810100Y-88369500I0J40100D01*
G01*
X159810100Y-87447700D01*
G75*
G02*
X159850200Y-87407600I40100J0D01*
G01*
X160572000Y-87407600D01*
G75*
G02*
X160612100Y-87447700I0J-40100D01*
G01*
X160612100Y-88369500D01*
G75*
G02*
X160572000Y-88409600I-40100J0D01*
G01*
G37*
G36*
G01*
X159850200Y-80357600D02*
X160572000Y-80357600D01*
G75*
G02*
X160612100Y-80397700I0J-40100D01*
G01*
X160612100Y-81319500D01*
G75*
G02*
X160572000Y-81359600I-40100J0D01*
G01*
X159850200Y-81359600D01*
G75*
G02*
X159810100Y-81319500I0J40100D01*
G01*
X159810100Y-80397700D01*
G75*
G02*
X159850200Y-80357600I40100J0D01*
G01*
G37*
G36*
G01*
X159850200Y-79057600D02*
X160572000Y-79057600D01*
G75*
G02*
X160612100Y-79097700I0J-40100D01*
G01*
X160612100Y-80019500D01*
G75*
G02*
X160572000Y-80059600I-40100J0D01*
G01*
X159850200Y-80059600D01*
G75*
G02*
X159810100Y-80019500I0J40100D01*
G01*
X159810100Y-79097700D01*
G75*
G02*
X159850200Y-79057600I40100J0D01*
G01*
G37*
G36*
G01*
X158580200Y-80357600D02*
X159302000Y-80357600D01*
G75*
G02*
X159342100Y-80397700I0J-40100D01*
G01*
X159342100Y-81319500D01*
G75*
G02*
X159302000Y-81359600I-40100J0D01*
G01*
X158580200Y-81359600D01*
G75*
G02*
X158540100Y-81319500I0J40100D01*
G01*
X158540100Y-80397700D01*
G75*
G02*
X158580200Y-80357600I40100J0D01*
G01*
G37*
G36*
G01*
X158580200Y-79057600D02*
X159302000Y-79057600D01*
G75*
G02*
X159342100Y-79097700I0J-40100D01*
G01*
X159342100Y-80019500D01*
G75*
G02*
X159302000Y-80059600I-40100J0D01*
G01*
X158580200Y-80059600D01*
G75*
G02*
X158540100Y-80019500I0J40100D01*
G01*
X158540100Y-79097700D01*
G75*
G02*
X158580200Y-79057600I40100J0D01*
G01*
G37*
G36*
G01*
X143215100Y-72379500D02*
X143215100Y-71657700D01*
G75*
G02*
X143255200Y-71617600I40100J0D01*
G01*
X144177000Y-71617600D01*
G75*
G02*
X144217100Y-71657700I0J-40100D01*
G01*
X144217100Y-72379500D01*
G75*
G02*
X144177000Y-72419600I-40100J0D01*
G01*
X143255200Y-72419600D01*
G75*
G02*
X143215100Y-72379500I0J40100D01*
G01*
G37*
G36*
G01*
X141915100Y-72379500D02*
X141915100Y-71657700D01*
G75*
G02*
X141955200Y-71617600I40100J0D01*
G01*
X142877000Y-71617600D01*
G75*
G02*
X142917100Y-71657700I0J-40100D01*
G01*
X142917100Y-72379500D01*
G75*
G02*
X142877000Y-72419600I-40100J0D01*
G01*
X141955200Y-72419600D01*
G75*
G02*
X141915100Y-72379500I0J40100D01*
G01*
G37*
G36*
G01*
X143215100Y-73649500D02*
X143215100Y-72927700D01*
G75*
G02*
X143255200Y-72887600I40100J0D01*
G01*
X144177000Y-72887600D01*
G75*
G02*
X144217100Y-72927700I0J-40100D01*
G01*
X144217100Y-73649500D01*
G75*
G02*
X144177000Y-73689600I-40100J0D01*
G01*
X143255200Y-73689600D01*
G75*
G02*
X143215100Y-73649500I0J40100D01*
G01*
G37*
G36*
G01*
X141915100Y-73649500D02*
X141915100Y-72927700D01*
G75*
G02*
X141955200Y-72887600I40100J0D01*
G01*
X142877000Y-72887600D01*
G75*
G02*
X142917100Y-72927700I0J-40100D01*
G01*
X142917100Y-73649500D01*
G75*
G02*
X142877000Y-73689600I-40100J0D01*
G01*
X141955200Y-73689600D01*
G75*
G02*
X141915100Y-73649500I0J40100D01*
G01*
G37*
G36*
G01*
X143215100Y-74919500D02*
X143215100Y-74197700D01*
G75*
G02*
X143255200Y-74157600I40100J0D01*
G01*
X144177000Y-74157600D01*
G75*
G02*
X144217100Y-74197700I0J-40100D01*
G01*
X144217100Y-74919500D01*
G75*
G02*
X144177000Y-74959600I-40100J0D01*
G01*
X143255200Y-74959600D01*
G75*
G02*
X143215100Y-74919500I0J40100D01*
G01*
G37*
G36*
G01*
X141915100Y-74919500D02*
X141915100Y-74197700D01*
G75*
G02*
X141955200Y-74157600I40100J0D01*
G01*
X142877000Y-74157600D01*
G75*
G02*
X142917100Y-74197700I0J-40100D01*
G01*
X142917100Y-74919500D01*
G75*
G02*
X142877000Y-74959600I-40100J0D01*
G01*
X141955200Y-74959600D01*
G75*
G02*
X141915100Y-74919500I0J40100D01*
G01*
G37*
G36*
G01*
X151386100Y-72774600D02*
X149986100Y-72774600D01*
G75*
G02*
X149935100Y-72723600I0J51000D01*
G01*
X149935100Y-71323600D01*
G75*
G02*
X149986100Y-71272600I51000J0D01*
G01*
X151386100Y-71272600D01*
G75*
G02*
X151437100Y-71323600I0J-51000D01*
G01*
X151437100Y-72723600D01*
G75*
G02*
X151386100Y-72774600I-51000J0D01*
G01*
G37*
G36*
G01*
X151386100Y-76574600D02*
X149986100Y-76574600D01*
G75*
G02*
X149935100Y-76523600I0J51000D01*
G01*
X149935100Y-75123600D01*
G75*
G02*
X149986100Y-75072600I51000J0D01*
G01*
X151386100Y-75072600D01*
G75*
G02*
X151437100Y-75123600I0J-51000D01*
G01*
X151437100Y-76523600D01*
G75*
G02*
X151386100Y-76574600I-51000J0D01*
G01*
G37*
G36*
G01*
X136651100Y-79517600D02*
X138051100Y-79517600D01*
G75*
G02*
X138102100Y-79568600I0J-51000D01*
G01*
X138102100Y-80968600D01*
G75*
G02*
X138051100Y-81019600I-51000J0D01*
G01*
X136651100Y-81019600D01*
G75*
G02*
X136600100Y-80968600I0J51000D01*
G01*
X136600100Y-79568600D01*
G75*
G02*
X136651100Y-79517600I51000J0D01*
G01*
G37*
G36*
G01*
X136651100Y-75717600D02*
X138051100Y-75717600D01*
G75*
G02*
X138102100Y-75768600I0J-51000D01*
G01*
X138102100Y-77168600D01*
G75*
G02*
X138051100Y-77219600I-51000J0D01*
G01*
X136651100Y-77219600D01*
G75*
G02*
X136600100Y-77168600I0J51000D01*
G01*
X136600100Y-75768600D01*
G75*
G02*
X136651100Y-75717600I51000J0D01*
G01*
G37*
G36*
G01*
X144338800Y-130982000D02*
X143697200Y-130982000D01*
G75*
G02*
X143617000Y-130901800I0J80200D01*
G01*
X143617000Y-130210200D01*
G75*
G02*
X143697200Y-130130000I80200J0D01*
G01*
X144338800Y-130130000D01*
G75*
G02*
X144419000Y-130210200I0J-80200D01*
G01*
X144419000Y-130901800D01*
G75*
G02*
X144338800Y-130982000I-80200J0D01*
G01*
G37*
G36*
G01*
X145338800Y-130982000D02*
X144697200Y-130982000D01*
G75*
G02*
X144617000Y-130901800I0J80200D01*
G01*
X144617000Y-130210200D01*
G75*
G02*
X144697200Y-130130000I80200J0D01*
G01*
X145338800Y-130130000D01*
G75*
G02*
X145419000Y-130210200I0J-80200D01*
G01*
X145419000Y-130901800D01*
G75*
G02*
X145338800Y-130982000I-80200J0D01*
G01*
G37*
G36*
G01*
X137171900Y-90859600D02*
X136530300Y-90859600D01*
G75*
G02*
X136450100Y-90779400I0J80200D01*
G01*
X136450100Y-90087800D01*
G75*
G02*
X136530300Y-90007600I80200J0D01*
G01*
X137171900Y-90007600D01*
G75*
G02*
X137252100Y-90087800I0J-80200D01*
G01*
X137252100Y-90779400D01*
G75*
G02*
X137171900Y-90859600I-80200J0D01*
G01*
G37*
G36*
G01*
X138171900Y-90859600D02*
X137530300Y-90859600D01*
G75*
G02*
X137450100Y-90779400I0J80200D01*
G01*
X137450100Y-90087800D01*
G75*
G02*
X137530300Y-90007600I80200J0D01*
G01*
X138171900Y-90007600D01*
G75*
G02*
X138252100Y-90087800I0J-80200D01*
G01*
X138252100Y-90779400D01*
G75*
G02*
X138171900Y-90859600I-80200J0D01*
G01*
G37*
G36*
G01*
X148325300Y-76672600D02*
X148966900Y-76672600D01*
G75*
G02*
X149047100Y-76752800I0J-80200D01*
G01*
X149047100Y-77444400D01*
G75*
G02*
X148966900Y-77524600I-80200J0D01*
G01*
X148325300Y-77524600D01*
G75*
G02*
X148245100Y-77444400I0J80200D01*
G01*
X148245100Y-76752800D01*
G75*
G02*
X148325300Y-76672600I80200J0D01*
G01*
G37*
G36*
G01*
X147325300Y-76672600D02*
X147966900Y-76672600D01*
G75*
G02*
X148047100Y-76752800I0J-80200D01*
G01*
X148047100Y-77444400D01*
G75*
G02*
X147966900Y-77524600I-80200J0D01*
G01*
X147325300Y-77524600D01*
G75*
G02*
X147245100Y-77444400I0J80200D01*
G01*
X147245100Y-76752800D01*
G75*
G02*
X147325300Y-76672600I80200J0D01*
G01*
G37*
G36*
G01*
X152800100Y-80094400D02*
X152800100Y-79452800D01*
G75*
G02*
X152880300Y-79372600I80200J0D01*
G01*
X153571900Y-79372600D01*
G75*
G02*
X153652100Y-79452800I0J-80200D01*
G01*
X153652100Y-80094400D01*
G75*
G02*
X153571900Y-80174600I-80200J0D01*
G01*
X152880300Y-80174600D01*
G75*
G02*
X152800100Y-80094400I0J80200D01*
G01*
G37*
G36*
G01*
X152800100Y-81094400D02*
X152800100Y-80452800D01*
G75*
G02*
X152880300Y-80372600I80200J0D01*
G01*
X153571900Y-80372600D01*
G75*
G02*
X153652100Y-80452800I0J-80200D01*
G01*
X153652100Y-81094400D01*
G75*
G02*
X153571900Y-81174600I-80200J0D01*
G01*
X152880300Y-81174600D01*
G75*
G02*
X152800100Y-81094400I0J80200D01*
G01*
G37*
G36*
G01*
X155340100Y-80094400D02*
X155340100Y-79452800D01*
G75*
G02*
X155420300Y-79372600I80200J0D01*
G01*
X156111900Y-79372600D01*
G75*
G02*
X156192100Y-79452800I0J-80200D01*
G01*
X156192100Y-80094400D01*
G75*
G02*
X156111900Y-80174600I-80200J0D01*
G01*
X155420300Y-80174600D01*
G75*
G02*
X155340100Y-80094400I0J80200D01*
G01*
G37*
G36*
G01*
X155340100Y-81094400D02*
X155340100Y-80452800D01*
G75*
G02*
X155420300Y-80372600I80200J0D01*
G01*
X156111900Y-80372600D01*
G75*
G02*
X156192100Y-80452800I0J-80200D01*
G01*
X156192100Y-81094400D01*
G75*
G02*
X156111900Y-81174600I-80200J0D01*
G01*
X155420300Y-81174600D01*
G75*
G02*
X155340100Y-81094400I0J80200D01*
G01*
G37*
G36*
G01*
X141179000Y-119716800D02*
X141179000Y-119075200D01*
G75*
G02*
X141259200Y-118995000I80200J0D01*
G01*
X141950800Y-118995000D01*
G75*
G02*
X142031000Y-119075200I0J-80200D01*
G01*
X142031000Y-119716800D01*
G75*
G02*
X141950800Y-119797000I-80200J0D01*
G01*
X141259200Y-119797000D01*
G75*
G02*
X141179000Y-119716800I0J80200D01*
G01*
G37*
G36*
G01*
X141179000Y-120716800D02*
X141179000Y-120075200D01*
G75*
G02*
X141259200Y-119995000I80200J0D01*
G01*
X141950800Y-119995000D01*
G75*
G02*
X142031000Y-120075200I0J-80200D01*
G01*
X142031000Y-120716800D01*
G75*
G02*
X141950800Y-120797000I-80200J0D01*
G01*
X141259200Y-120797000D01*
G75*
G02*
X141179000Y-120716800I0J80200D01*
G01*
G37*
G36*
G01*
X141316200Y-130169200D02*
X140674600Y-130169200D01*
G75*
G02*
X140594400Y-130089000I0J80200D01*
G01*
X140594400Y-129397400D01*
G75*
G02*
X140674600Y-129317200I80200J0D01*
G01*
X141316200Y-129317200D01*
G75*
G02*
X141396400Y-129397400I0J-80200D01*
G01*
X141396400Y-130089000D01*
G75*
G02*
X141316200Y-130169200I-80200J0D01*
G01*
G37*
G36*
G01*
X142316200Y-130169200D02*
X141674600Y-130169200D01*
G75*
G02*
X141594400Y-130089000I0J80200D01*
G01*
X141594400Y-129397400D01*
G75*
G02*
X141674600Y-129317200I80200J0D01*
G01*
X142316200Y-129317200D01*
G75*
G02*
X142396400Y-129397400I0J-80200D01*
G01*
X142396400Y-130089000D01*
G75*
G02*
X142316200Y-130169200I-80200J0D01*
G01*
G37*
G36*
G01*
X145785300Y-84927600D02*
X146426900Y-84927600D01*
G75*
G02*
X146507100Y-85007800I0J-80200D01*
G01*
X146507100Y-85699400D01*
G75*
G02*
X146426900Y-85779600I-80200J0D01*
G01*
X145785300Y-85779600D01*
G75*
G02*
X145705100Y-85699400I0J80200D01*
G01*
X145705100Y-85007800D01*
G75*
G02*
X145785300Y-84927600I80200J0D01*
G01*
G37*
G36*
G01*
X144785300Y-84927600D02*
X145426900Y-84927600D01*
G75*
G02*
X145507100Y-85007800I0J-80200D01*
G01*
X145507100Y-85699400D01*
G75*
G02*
X145426900Y-85779600I-80200J0D01*
G01*
X144785300Y-85779600D01*
G75*
G02*
X144705100Y-85699400I0J80200D01*
G01*
X144705100Y-85007800D01*
G75*
G02*
X144785300Y-84927600I80200J0D01*
G01*
G37*
G36*
G01*
X145785300Y-83657600D02*
X146426900Y-83657600D01*
G75*
G02*
X146507100Y-83737800I0J-80200D01*
G01*
X146507100Y-84429400D01*
G75*
G02*
X146426900Y-84509600I-80200J0D01*
G01*
X145785300Y-84509600D01*
G75*
G02*
X145705100Y-84429400I0J80200D01*
G01*
X145705100Y-83737800D01*
G75*
G02*
X145785300Y-83657600I80200J0D01*
G01*
G37*
G36*
G01*
X144785300Y-83657600D02*
X145426900Y-83657600D01*
G75*
G02*
X145507100Y-83737800I0J-80200D01*
G01*
X145507100Y-84429400D01*
G75*
G02*
X145426900Y-84509600I-80200J0D01*
G01*
X144785300Y-84509600D01*
G75*
G02*
X144705100Y-84429400I0J80200D01*
G01*
X144705100Y-83737800D01*
G75*
G02*
X144785300Y-83657600I80200J0D01*
G01*
G37*
G36*
G01*
X141324000Y-78170800D02*
X141324000Y-77529200D01*
G75*
G02*
X141404200Y-77449000I80200J0D01*
G01*
X142095800Y-77449000D01*
G75*
G02*
X142176000Y-77529200I0J-80200D01*
G01*
X142176000Y-78170800D01*
G75*
G02*
X142095800Y-78251000I-80200J0D01*
G01*
X141404200Y-78251000D01*
G75*
G02*
X141324000Y-78170800I0J80200D01*
G01*
G37*
G36*
G01*
X141324000Y-79170800D02*
X141324000Y-78529200D01*
G75*
G02*
X141404200Y-78449000I80200J0D01*
G01*
X142095800Y-78449000D01*
G75*
G02*
X142176000Y-78529200I0J-80200D01*
G01*
X142176000Y-79170800D01*
G75*
G02*
X142095800Y-79251000I-80200J0D01*
G01*
X141404200Y-79251000D01*
G75*
G02*
X141324000Y-79170800I0J80200D01*
G01*
G37*
D14*
G36*
X142742732Y-132853000D02*
G01*
X142743000Y-132854000D01*
X142743000Y-133002000D01*
X142742000Y-133003732D01*
X142741000Y-133004000D01*
X141739000Y-133004000D01*
X141737268Y-133003000D01*
X141737000Y-133002000D01*
X141737000Y-132854000D01*
X141738000Y-132852268D01*
X141739000Y-132852000D01*
X142741000Y-132852000D01*
X142742732Y-132853000D01*
G37*
G36*
X140542732Y-132853000D02*
G01*
X140543000Y-132854000D01*
X140543000Y-133002000D01*
X140542000Y-133003732D01*
X140541000Y-133004000D01*
X139539000Y-133004000D01*
X139537268Y-133003000D01*
X139537000Y-133002000D01*
X139537000Y-132854000D01*
X139538000Y-132852268D01*
X139539000Y-132852000D01*
X140541000Y-132852000D01*
X140542732Y-132853000D01*
G37*
G36*
X140542732Y-132203000D02*
G01*
X140543000Y-132204000D01*
X140543000Y-132352000D01*
X140542000Y-132353732D01*
X140541000Y-132354000D01*
X139539000Y-132354000D01*
X139537268Y-132353000D01*
X139537000Y-132352000D01*
X139537000Y-132204000D01*
X139538000Y-132202268D01*
X139539000Y-132202000D01*
X140541000Y-132202000D01*
X140542732Y-132203000D01*
G37*
G36*
X142742732Y-132203000D02*
G01*
X142743000Y-132204000D01*
X142743000Y-132352000D01*
X142742000Y-132353732D01*
X142741000Y-132354000D01*
X141739000Y-132354000D01*
X141737268Y-132353000D01*
X141737000Y-132352000D01*
X141737000Y-132204000D01*
X141738000Y-132202268D01*
X141739000Y-132202000D01*
X142741000Y-132202000D01*
X142742732Y-132203000D01*
G37*
G36*
X144431812Y-130128586D02*
G01*
X144439973Y-130136747D01*
X144460020Y-130150143D01*
X144482293Y-130159370D01*
X144505943Y-130164075D01*
X144530049Y-130164075D01*
X144553700Y-130159372D01*
X144575974Y-130150146D01*
X144596022Y-130136752D01*
X144604188Y-130128586D01*
X144605602Y-130128000D01*
X144697200Y-130128000D01*
X144698932Y-130129000D01*
X144698932Y-130131000D01*
X144697396Y-130131990D01*
X144681949Y-130133511D01*
X144667278Y-130137962D01*
X144653759Y-130145187D01*
X144641911Y-130154911D01*
X144632187Y-130166759D01*
X144624962Y-130180278D01*
X144620511Y-130194949D01*
X144619000Y-130210294D01*
X144619000Y-130901706D01*
X144620511Y-130917051D01*
X144624962Y-130931722D01*
X144632187Y-130945241D01*
X144641911Y-130957089D01*
X144653759Y-130966813D01*
X144667278Y-130974038D01*
X144681949Y-130978489D01*
X144697396Y-130980010D01*
X144699022Y-130981175D01*
X144698826Y-130983165D01*
X144697200Y-130984000D01*
X144605602Y-130984000D01*
X144604188Y-130983414D01*
X144596027Y-130975253D01*
X144575980Y-130961857D01*
X144553707Y-130952630D01*
X144530057Y-130947925D01*
X144505951Y-130947925D01*
X144482300Y-130952628D01*
X144460026Y-130961854D01*
X144439978Y-130975248D01*
X144431812Y-130983414D01*
X144430398Y-130984000D01*
X144338800Y-130984000D01*
X144337068Y-130983000D01*
X144337068Y-130981000D01*
X144338604Y-130980010D01*
X144354051Y-130978489D01*
X144368722Y-130974038D01*
X144382241Y-130966813D01*
X144394089Y-130957089D01*
X144403813Y-130945241D01*
X144411038Y-130931722D01*
X144415489Y-130917051D01*
X144417000Y-130901706D01*
X144417000Y-130210294D01*
X144415489Y-130194949D01*
X144411038Y-130180278D01*
X144403813Y-130166759D01*
X144394089Y-130154911D01*
X144382241Y-130145187D01*
X144368722Y-130137962D01*
X144354051Y-130133511D01*
X144338604Y-130131990D01*
X144336978Y-130130825D01*
X144337174Y-130128835D01*
X144338800Y-130128000D01*
X144430398Y-130128000D01*
X144431812Y-130128586D01*
G37*
G36*
X141409212Y-129315786D02*
G01*
X141417373Y-129323947D01*
X141437420Y-129337343D01*
X141459693Y-129346570D01*
X141483343Y-129351275D01*
X141507449Y-129351275D01*
X141531100Y-129346572D01*
X141553374Y-129337346D01*
X141573422Y-129323952D01*
X141581588Y-129315786D01*
X141583002Y-129315200D01*
X141674600Y-129315200D01*
X141676332Y-129316200D01*
X141676332Y-129318200D01*
X141674796Y-129319190D01*
X141659349Y-129320711D01*
X141644678Y-129325162D01*
X141631159Y-129332387D01*
X141619311Y-129342111D01*
X141609587Y-129353959D01*
X141602362Y-129367478D01*
X141597911Y-129382149D01*
X141596400Y-129397494D01*
X141596400Y-130088906D01*
X141597911Y-130104251D01*
X141602362Y-130118922D01*
X141609587Y-130132441D01*
X141619311Y-130144289D01*
X141631159Y-130154013D01*
X141644678Y-130161238D01*
X141659349Y-130165689D01*
X141674796Y-130167210D01*
X141676422Y-130168375D01*
X141676226Y-130170365D01*
X141674600Y-130171200D01*
X141583002Y-130171200D01*
X141581588Y-130170614D01*
X141573427Y-130162453D01*
X141553380Y-130149057D01*
X141531107Y-130139830D01*
X141507457Y-130135125D01*
X141483351Y-130135125D01*
X141459700Y-130139828D01*
X141437426Y-130149054D01*
X141417378Y-130162448D01*
X141409212Y-130170614D01*
X141407798Y-130171200D01*
X141316200Y-130171200D01*
X141314468Y-130170200D01*
X141314468Y-130168200D01*
X141316004Y-130167210D01*
X141331451Y-130165689D01*
X141346122Y-130161238D01*
X141359641Y-130154013D01*
X141371489Y-130144289D01*
X141381213Y-130132441D01*
X141388438Y-130118922D01*
X141392889Y-130104251D01*
X141394400Y-130088906D01*
X141394400Y-129397494D01*
X141392889Y-129382149D01*
X141388438Y-129367478D01*
X141381213Y-129353959D01*
X141371489Y-129342111D01*
X141359641Y-129332387D01*
X141346122Y-129325162D01*
X141331451Y-129320711D01*
X141316004Y-129319190D01*
X141314378Y-129318025D01*
X141314574Y-129316035D01*
X141316200Y-129315200D01*
X141407798Y-129315200D01*
X141409212Y-129315786D01*
G37*
G36*
X139949809Y-127213010D02*
G01*
X139958372Y-127213853D01*
X139958566Y-127213881D01*
X139967954Y-127215748D01*
X139992060Y-127215746D01*
X140001438Y-127213881D01*
X140001632Y-127213853D01*
X140010191Y-127213010D01*
X140010387Y-127213000D01*
X140098000Y-127213000D01*
X140099732Y-127214000D01*
X140099732Y-127216000D01*
X140098196Y-127216990D01*
X140084933Y-127218297D01*
X140072365Y-127222108D01*
X140060782Y-127228300D01*
X140050631Y-127236631D01*
X140042300Y-127246782D01*
X140036108Y-127258365D01*
X140032297Y-127270933D01*
X140031000Y-127284094D01*
X140031000Y-128747906D01*
X140032297Y-128761067D01*
X140036108Y-128773635D01*
X140042300Y-128785218D01*
X140050631Y-128795369D01*
X140060782Y-128803700D01*
X140072365Y-128809892D01*
X140084933Y-128813703D01*
X140098196Y-128815010D01*
X140099822Y-128816175D01*
X140099626Y-128818165D01*
X140098000Y-128819000D01*
X140010387Y-128819000D01*
X140010191Y-128818990D01*
X140001628Y-128818147D01*
X140001434Y-128818119D01*
X139992046Y-128816252D01*
X139967940Y-128816254D01*
X139958562Y-128818119D01*
X139958368Y-128818147D01*
X139949809Y-128818990D01*
X139949613Y-128819000D01*
X139862000Y-128819000D01*
X139860268Y-128818000D01*
X139860268Y-128816000D01*
X139861804Y-128815010D01*
X139875067Y-128813703D01*
X139887635Y-128809892D01*
X139899218Y-128803700D01*
X139909369Y-128795369D01*
X139917700Y-128785218D01*
X139923892Y-128773635D01*
X139927703Y-128761067D01*
X139929000Y-128747906D01*
X139929000Y-127284094D01*
X139927703Y-127270933D01*
X139923892Y-127258365D01*
X139917700Y-127246782D01*
X139909369Y-127236631D01*
X139899218Y-127228300D01*
X139887635Y-127222108D01*
X139875067Y-127218297D01*
X139861804Y-127216990D01*
X139860178Y-127215825D01*
X139860374Y-127213835D01*
X139862000Y-127213000D01*
X139949613Y-127213000D01*
X139949809Y-127213010D01*
G37*
G36*
X143199809Y-127213010D02*
G01*
X143208372Y-127213853D01*
X143208566Y-127213881D01*
X143217954Y-127215748D01*
X143242060Y-127215746D01*
X143251438Y-127213881D01*
X143251632Y-127213853D01*
X143260191Y-127213010D01*
X143260387Y-127213000D01*
X143348000Y-127213000D01*
X143349732Y-127214000D01*
X143349732Y-127216000D01*
X143348196Y-127216990D01*
X143334933Y-127218297D01*
X143322365Y-127222108D01*
X143310782Y-127228300D01*
X143300631Y-127236631D01*
X143292300Y-127246782D01*
X143286108Y-127258365D01*
X143282297Y-127270933D01*
X143281000Y-127284094D01*
X143281000Y-128747906D01*
X143282297Y-128761067D01*
X143286108Y-128773635D01*
X143292300Y-128785218D01*
X143300631Y-128795369D01*
X143310782Y-128803700D01*
X143322365Y-128809892D01*
X143334933Y-128813703D01*
X143348196Y-128815010D01*
X143349822Y-128816175D01*
X143349626Y-128818165D01*
X143348000Y-128819000D01*
X143260387Y-128819000D01*
X143260191Y-128818990D01*
X143251628Y-128818147D01*
X143251434Y-128818119D01*
X143242046Y-128816252D01*
X143217940Y-128816254D01*
X143208562Y-128818119D01*
X143208368Y-128818147D01*
X143199809Y-128818990D01*
X143199613Y-128819000D01*
X143112000Y-128819000D01*
X143110268Y-128818000D01*
X143110268Y-128816000D01*
X143111804Y-128815010D01*
X143125067Y-128813703D01*
X143137635Y-128809892D01*
X143149218Y-128803700D01*
X143159369Y-128795369D01*
X143167700Y-128785218D01*
X143173892Y-128773635D01*
X143177703Y-128761067D01*
X143179000Y-128747906D01*
X143179000Y-127284094D01*
X143177703Y-127270933D01*
X143173892Y-127258365D01*
X143167700Y-127246782D01*
X143159369Y-127236631D01*
X143149218Y-127228300D01*
X143137635Y-127222108D01*
X143125067Y-127218297D01*
X143111804Y-127216990D01*
X143110178Y-127215825D01*
X143110374Y-127213835D01*
X143112000Y-127213000D01*
X143199613Y-127213000D01*
X143199809Y-127213010D01*
G37*
G36*
X146449809Y-127213010D02*
G01*
X146458372Y-127213853D01*
X146458566Y-127213881D01*
X146467954Y-127215748D01*
X146492060Y-127215746D01*
X146501438Y-127213881D01*
X146501632Y-127213853D01*
X146510191Y-127213010D01*
X146510387Y-127213000D01*
X146598000Y-127213000D01*
X146599732Y-127214000D01*
X146599732Y-127216000D01*
X146598196Y-127216990D01*
X146584933Y-127218297D01*
X146572365Y-127222108D01*
X146560782Y-127228300D01*
X146550631Y-127236631D01*
X146542300Y-127246782D01*
X146536108Y-127258365D01*
X146532297Y-127270933D01*
X146531000Y-127284094D01*
X146531000Y-128747906D01*
X146532297Y-128761067D01*
X146536108Y-128773635D01*
X146542300Y-128785218D01*
X146550631Y-128795369D01*
X146560782Y-128803700D01*
X146572365Y-128809892D01*
X146584933Y-128813703D01*
X146598196Y-128815010D01*
X146599822Y-128816175D01*
X146599626Y-128818165D01*
X146598000Y-128819000D01*
X146510387Y-128819000D01*
X146510191Y-128818990D01*
X146501628Y-128818147D01*
X146501434Y-128818119D01*
X146492046Y-128816252D01*
X146467940Y-128816254D01*
X146458562Y-128818119D01*
X146458368Y-128818147D01*
X146449809Y-128818990D01*
X146449613Y-128819000D01*
X146362000Y-128819000D01*
X146360268Y-128818000D01*
X146360268Y-128816000D01*
X146361804Y-128815010D01*
X146375067Y-128813703D01*
X146387635Y-128809892D01*
X146399218Y-128803700D01*
X146409369Y-128795369D01*
X146417700Y-128785218D01*
X146423892Y-128773635D01*
X146427703Y-128761067D01*
X146429000Y-128747906D01*
X146429000Y-127284094D01*
X146427703Y-127270933D01*
X146423892Y-127258365D01*
X146417700Y-127246782D01*
X146409369Y-127236631D01*
X146399218Y-127228300D01*
X146387635Y-127222108D01*
X146375067Y-127218297D01*
X146361804Y-127216990D01*
X146360178Y-127215825D01*
X146360374Y-127213835D01*
X146362000Y-127213000D01*
X146449613Y-127213000D01*
X146449809Y-127213010D01*
G37*
G36*
X145799809Y-127213010D02*
G01*
X145808372Y-127213853D01*
X145808566Y-127213881D01*
X145817954Y-127215748D01*
X145842060Y-127215746D01*
X145851438Y-127213881D01*
X145851632Y-127213853D01*
X145860191Y-127213010D01*
X145860387Y-127213000D01*
X145948000Y-127213000D01*
X145949732Y-127214000D01*
X145949732Y-127216000D01*
X145948196Y-127216990D01*
X145934933Y-127218297D01*
X145922365Y-127222108D01*
X145910782Y-127228300D01*
X145900631Y-127236631D01*
X145892300Y-127246782D01*
X145886108Y-127258365D01*
X145882297Y-127270933D01*
X145881000Y-127284094D01*
X145881000Y-128747906D01*
X145882297Y-128761067D01*
X145886108Y-128773635D01*
X145892300Y-128785218D01*
X145900631Y-128795369D01*
X145910782Y-128803700D01*
X145922365Y-128809892D01*
X145934933Y-128813703D01*
X145948196Y-128815010D01*
X145949822Y-128816175D01*
X145949626Y-128818165D01*
X145948000Y-128819000D01*
X145860387Y-128819000D01*
X145860191Y-128818990D01*
X145851628Y-128818147D01*
X145851434Y-128818119D01*
X145842046Y-128816252D01*
X145817940Y-128816254D01*
X145808562Y-128818119D01*
X145808368Y-128818147D01*
X145799809Y-128818990D01*
X145799613Y-128819000D01*
X145712000Y-128819000D01*
X145710268Y-128818000D01*
X145710268Y-128816000D01*
X145711804Y-128815010D01*
X145725067Y-128813703D01*
X145737635Y-128809892D01*
X145749218Y-128803700D01*
X145759369Y-128795369D01*
X145767700Y-128785218D01*
X145773892Y-128773635D01*
X145777703Y-128761067D01*
X145779000Y-128747906D01*
X145779000Y-127284094D01*
X145777703Y-127270933D01*
X145773892Y-127258365D01*
X145767700Y-127246782D01*
X145759369Y-127236631D01*
X145749218Y-127228300D01*
X145737635Y-127222108D01*
X145725067Y-127218297D01*
X145711804Y-127216990D01*
X145710178Y-127215825D01*
X145710374Y-127213835D01*
X145712000Y-127213000D01*
X145799613Y-127213000D01*
X145799809Y-127213010D01*
G37*
G36*
X144499809Y-127213010D02*
G01*
X144508372Y-127213853D01*
X144508566Y-127213881D01*
X144517954Y-127215748D01*
X144542060Y-127215746D01*
X144551438Y-127213881D01*
X144551632Y-127213853D01*
X144560191Y-127213010D01*
X144560387Y-127213000D01*
X144648000Y-127213000D01*
X144649732Y-127214000D01*
X144649732Y-127216000D01*
X144648196Y-127216990D01*
X144634933Y-127218297D01*
X144622365Y-127222108D01*
X144610782Y-127228300D01*
X144600631Y-127236631D01*
X144592300Y-127246782D01*
X144586108Y-127258365D01*
X144582297Y-127270933D01*
X144581000Y-127284094D01*
X144581000Y-128747906D01*
X144582297Y-128761067D01*
X144586108Y-128773635D01*
X144592300Y-128785218D01*
X144600631Y-128795369D01*
X144610782Y-128803700D01*
X144622365Y-128809892D01*
X144634933Y-128813703D01*
X144648196Y-128815010D01*
X144649822Y-128816175D01*
X144649626Y-128818165D01*
X144648000Y-128819000D01*
X144560387Y-128819000D01*
X144560191Y-128818990D01*
X144551628Y-128818147D01*
X144551434Y-128818119D01*
X144542046Y-128816252D01*
X144517940Y-128816254D01*
X144508562Y-128818119D01*
X144508368Y-128818147D01*
X144499809Y-128818990D01*
X144499613Y-128819000D01*
X144412000Y-128819000D01*
X144410268Y-128818000D01*
X144410268Y-128816000D01*
X144411804Y-128815010D01*
X144425067Y-128813703D01*
X144437635Y-128809892D01*
X144449218Y-128803700D01*
X144459369Y-128795369D01*
X144467700Y-128785218D01*
X144473892Y-128773635D01*
X144477703Y-128761067D01*
X144479000Y-128747906D01*
X144479000Y-127284094D01*
X144477703Y-127270933D01*
X144473892Y-127258365D01*
X144467700Y-127246782D01*
X144459369Y-127236631D01*
X144449218Y-127228300D01*
X144437635Y-127222108D01*
X144425067Y-127218297D01*
X144411804Y-127216990D01*
X144410178Y-127215825D01*
X144410374Y-127213835D01*
X144412000Y-127213000D01*
X144499613Y-127213000D01*
X144499809Y-127213010D01*
G37*
G36*
X145149809Y-127213010D02*
G01*
X145158372Y-127213853D01*
X145158566Y-127213881D01*
X145167954Y-127215748D01*
X145192060Y-127215746D01*
X145201438Y-127213881D01*
X145201632Y-127213853D01*
X145210191Y-127213010D01*
X145210387Y-127213000D01*
X145298000Y-127213000D01*
X145299732Y-127214000D01*
X145299732Y-127216000D01*
X145298196Y-127216990D01*
X145284933Y-127218297D01*
X145272365Y-127222108D01*
X145260782Y-127228300D01*
X145250631Y-127236631D01*
X145242300Y-127246782D01*
X145236108Y-127258365D01*
X145232297Y-127270933D01*
X145231000Y-127284094D01*
X145231000Y-128747906D01*
X145232297Y-128761067D01*
X145236108Y-128773635D01*
X145242300Y-128785218D01*
X145250631Y-128795369D01*
X145260782Y-128803700D01*
X145272365Y-128809892D01*
X145284933Y-128813703D01*
X145298196Y-128815010D01*
X145299822Y-128816175D01*
X145299626Y-128818165D01*
X145298000Y-128819000D01*
X145210387Y-128819000D01*
X145210191Y-128818990D01*
X145201628Y-128818147D01*
X145201434Y-128818119D01*
X145192046Y-128816252D01*
X145167940Y-128816254D01*
X145158562Y-128818119D01*
X145158368Y-128818147D01*
X145149809Y-128818990D01*
X145149613Y-128819000D01*
X145062000Y-128819000D01*
X145060268Y-128818000D01*
X145060268Y-128816000D01*
X145061804Y-128815010D01*
X145075067Y-128813703D01*
X145087635Y-128809892D01*
X145099218Y-128803700D01*
X145109369Y-128795369D01*
X145117700Y-128785218D01*
X145123892Y-128773635D01*
X145127703Y-128761067D01*
X145129000Y-128747906D01*
X145129000Y-127284094D01*
X145127703Y-127270933D01*
X145123892Y-127258365D01*
X145117700Y-127246782D01*
X145109369Y-127236631D01*
X145099218Y-127228300D01*
X145087635Y-127222108D01*
X145075067Y-127218297D01*
X145061804Y-127216990D01*
X145060178Y-127215825D01*
X145060374Y-127213835D01*
X145062000Y-127213000D01*
X145149613Y-127213000D01*
X145149809Y-127213010D01*
G37*
G36*
X141249809Y-127213010D02*
G01*
X141258372Y-127213853D01*
X141258566Y-127213881D01*
X141267954Y-127215748D01*
X141292060Y-127215746D01*
X141301438Y-127213881D01*
X141301632Y-127213853D01*
X141310191Y-127213010D01*
X141310387Y-127213000D01*
X141398000Y-127213000D01*
X141399732Y-127214000D01*
X141399732Y-127216000D01*
X141398196Y-127216990D01*
X141384933Y-127218297D01*
X141372365Y-127222108D01*
X141360782Y-127228300D01*
X141350631Y-127236631D01*
X141342300Y-127246782D01*
X141336108Y-127258365D01*
X141332297Y-127270933D01*
X141331000Y-127284094D01*
X141331000Y-128747906D01*
X141332297Y-128761067D01*
X141336108Y-128773635D01*
X141342300Y-128785218D01*
X141350631Y-128795369D01*
X141360782Y-128803700D01*
X141372365Y-128809892D01*
X141384933Y-128813703D01*
X141398196Y-128815010D01*
X141399822Y-128816175D01*
X141399626Y-128818165D01*
X141398000Y-128819000D01*
X141310387Y-128819000D01*
X141310191Y-128818990D01*
X141301628Y-128818147D01*
X141301434Y-128818119D01*
X141292046Y-128816252D01*
X141267940Y-128816254D01*
X141258562Y-128818119D01*
X141258368Y-128818147D01*
X141249809Y-128818990D01*
X141249613Y-128819000D01*
X141162000Y-128819000D01*
X141160268Y-128818000D01*
X141160268Y-128816000D01*
X141161804Y-128815010D01*
X141175067Y-128813703D01*
X141187635Y-128809892D01*
X141199218Y-128803700D01*
X141209369Y-128795369D01*
X141217700Y-128785218D01*
X141223892Y-128773635D01*
X141227703Y-128761067D01*
X141229000Y-128747906D01*
X141229000Y-127284094D01*
X141227703Y-127270933D01*
X141223892Y-127258365D01*
X141217700Y-127246782D01*
X141209369Y-127236631D01*
X141199218Y-127228300D01*
X141187635Y-127222108D01*
X141175067Y-127218297D01*
X141161804Y-127216990D01*
X141160178Y-127215825D01*
X141160374Y-127213835D01*
X141162000Y-127213000D01*
X141249613Y-127213000D01*
X141249809Y-127213010D01*
G37*
G36*
X141899809Y-127213010D02*
G01*
X141908372Y-127213853D01*
X141908566Y-127213881D01*
X141917954Y-127215748D01*
X141942060Y-127215746D01*
X141951438Y-127213881D01*
X141951632Y-127213853D01*
X141960191Y-127213010D01*
X141960387Y-127213000D01*
X142048000Y-127213000D01*
X142049732Y-127214000D01*
X142049732Y-127216000D01*
X142048196Y-127216990D01*
X142034933Y-127218297D01*
X142022365Y-127222108D01*
X142010782Y-127228300D01*
X142000631Y-127236631D01*
X141992300Y-127246782D01*
X141986108Y-127258365D01*
X141982297Y-127270933D01*
X141981000Y-127284094D01*
X141981000Y-128747906D01*
X141982297Y-128761067D01*
X141986108Y-128773635D01*
X141992300Y-128785218D01*
X142000631Y-128795369D01*
X142010782Y-128803700D01*
X142022365Y-128809892D01*
X142034933Y-128813703D01*
X142048196Y-128815010D01*
X142049822Y-128816175D01*
X142049626Y-128818165D01*
X142048000Y-128819000D01*
X141960387Y-128819000D01*
X141960191Y-128818990D01*
X141951628Y-128818147D01*
X141951434Y-128818119D01*
X141942046Y-128816252D01*
X141917940Y-128816254D01*
X141908562Y-128818119D01*
X141908368Y-128818147D01*
X141899809Y-128818990D01*
X141899613Y-128819000D01*
X141812000Y-128819000D01*
X141810268Y-128818000D01*
X141810268Y-128816000D01*
X141811804Y-128815010D01*
X141825067Y-128813703D01*
X141837635Y-128809892D01*
X141849218Y-128803700D01*
X141859369Y-128795369D01*
X141867700Y-128785218D01*
X141873892Y-128773635D01*
X141877703Y-128761067D01*
X141879000Y-128747906D01*
X141879000Y-127284094D01*
X141877703Y-127270933D01*
X141873892Y-127258365D01*
X141867700Y-127246782D01*
X141859369Y-127236631D01*
X141849218Y-127228300D01*
X141837635Y-127222108D01*
X141825067Y-127218297D01*
X141811804Y-127216990D01*
X141810178Y-127215825D01*
X141810374Y-127213835D01*
X141812000Y-127213000D01*
X141899613Y-127213000D01*
X141899809Y-127213010D01*
G37*
G36*
X143849809Y-127213010D02*
G01*
X143858372Y-127213853D01*
X143858566Y-127213881D01*
X143867954Y-127215748D01*
X143892060Y-127215746D01*
X143901438Y-127213881D01*
X143901632Y-127213853D01*
X143910191Y-127213010D01*
X143910387Y-127213000D01*
X143998000Y-127213000D01*
X143999732Y-127214000D01*
X143999732Y-127216000D01*
X143998196Y-127216990D01*
X143984933Y-127218297D01*
X143972365Y-127222108D01*
X143960782Y-127228300D01*
X143950631Y-127236631D01*
X143942300Y-127246782D01*
X143936108Y-127258365D01*
X143932297Y-127270933D01*
X143931000Y-127284094D01*
X143931000Y-128747906D01*
X143932297Y-128761067D01*
X143936108Y-128773635D01*
X143942300Y-128785218D01*
X143950631Y-128795369D01*
X143960782Y-128803700D01*
X143972365Y-128809892D01*
X143984933Y-128813703D01*
X143998196Y-128815010D01*
X143999822Y-128816175D01*
X143999626Y-128818165D01*
X143998000Y-128819000D01*
X143910387Y-128819000D01*
X143910191Y-128818990D01*
X143901628Y-128818147D01*
X143901434Y-128818119D01*
X143892046Y-128816252D01*
X143867940Y-128816254D01*
X143858562Y-128818119D01*
X143858368Y-128818147D01*
X143849809Y-128818990D01*
X143849613Y-128819000D01*
X143762000Y-128819000D01*
X143760268Y-128818000D01*
X143760268Y-128816000D01*
X143761804Y-128815010D01*
X143775067Y-128813703D01*
X143787635Y-128809892D01*
X143799218Y-128803700D01*
X143809369Y-128795369D01*
X143817700Y-128785218D01*
X143823892Y-128773635D01*
X143827703Y-128761067D01*
X143829000Y-128747906D01*
X143829000Y-127284094D01*
X143827703Y-127270933D01*
X143823892Y-127258365D01*
X143817700Y-127246782D01*
X143809369Y-127236631D01*
X143799218Y-127228300D01*
X143787635Y-127222108D01*
X143775067Y-127218297D01*
X143761804Y-127216990D01*
X143760178Y-127215825D01*
X143760374Y-127213835D01*
X143762000Y-127213000D01*
X143849613Y-127213000D01*
X143849809Y-127213010D01*
G37*
G36*
X142549809Y-127213010D02*
G01*
X142558372Y-127213853D01*
X142558566Y-127213881D01*
X142567954Y-127215748D01*
X142592060Y-127215746D01*
X142601438Y-127213881D01*
X142601632Y-127213853D01*
X142610191Y-127213010D01*
X142610387Y-127213000D01*
X142698000Y-127213000D01*
X142699732Y-127214000D01*
X142699732Y-127216000D01*
X142698196Y-127216990D01*
X142684933Y-127218297D01*
X142672365Y-127222108D01*
X142660782Y-127228300D01*
X142650631Y-127236631D01*
X142642300Y-127246782D01*
X142636108Y-127258365D01*
X142632297Y-127270933D01*
X142631000Y-127284094D01*
X142631000Y-128747906D01*
X142632297Y-128761067D01*
X142636108Y-128773635D01*
X142642300Y-128785218D01*
X142650631Y-128795369D01*
X142660782Y-128803700D01*
X142672365Y-128809892D01*
X142684933Y-128813703D01*
X142698196Y-128815010D01*
X142699822Y-128816175D01*
X142699626Y-128818165D01*
X142698000Y-128819000D01*
X142610387Y-128819000D01*
X142610191Y-128818990D01*
X142601628Y-128818147D01*
X142601434Y-128818119D01*
X142592046Y-128816252D01*
X142567940Y-128816254D01*
X142558562Y-128818119D01*
X142558368Y-128818147D01*
X142549809Y-128818990D01*
X142549613Y-128819000D01*
X142462000Y-128819000D01*
X142460268Y-128818000D01*
X142460268Y-128816000D01*
X142461804Y-128815010D01*
X142475067Y-128813703D01*
X142487635Y-128809892D01*
X142499218Y-128803700D01*
X142509369Y-128795369D01*
X142517700Y-128785218D01*
X142523892Y-128773635D01*
X142527703Y-128761067D01*
X142529000Y-128747906D01*
X142529000Y-127284094D01*
X142527703Y-127270933D01*
X142523892Y-127258365D01*
X142517700Y-127246782D01*
X142509369Y-127236631D01*
X142499218Y-127228300D01*
X142487635Y-127222108D01*
X142475067Y-127218297D01*
X142461804Y-127216990D01*
X142460178Y-127215825D01*
X142460374Y-127213835D01*
X142462000Y-127213000D01*
X142549613Y-127213000D01*
X142549809Y-127213010D01*
G37*
G36*
X140599809Y-127213010D02*
G01*
X140608372Y-127213853D01*
X140608566Y-127213881D01*
X140617954Y-127215748D01*
X140642060Y-127215746D01*
X140651438Y-127213881D01*
X140651632Y-127213853D01*
X140660191Y-127213010D01*
X140660387Y-127213000D01*
X140748000Y-127213000D01*
X140749732Y-127214000D01*
X140749732Y-127216000D01*
X140748196Y-127216990D01*
X140734933Y-127218297D01*
X140722365Y-127222108D01*
X140710782Y-127228300D01*
X140700631Y-127236631D01*
X140692300Y-127246782D01*
X140686108Y-127258365D01*
X140682297Y-127270933D01*
X140681000Y-127284094D01*
X140681000Y-128747906D01*
X140682297Y-128761067D01*
X140686108Y-128773635D01*
X140692300Y-128785218D01*
X140700631Y-128795369D01*
X140710782Y-128803700D01*
X140722365Y-128809892D01*
X140734933Y-128813703D01*
X140748196Y-128815010D01*
X140749822Y-128816175D01*
X140749626Y-128818165D01*
X140748000Y-128819000D01*
X140660387Y-128819000D01*
X140660191Y-128818990D01*
X140651628Y-128818147D01*
X140651434Y-128818119D01*
X140642046Y-128816252D01*
X140617940Y-128816254D01*
X140608562Y-128818119D01*
X140608368Y-128818147D01*
X140599809Y-128818990D01*
X140599613Y-128819000D01*
X140512000Y-128819000D01*
X140510268Y-128818000D01*
X140510268Y-128816000D01*
X140511804Y-128815010D01*
X140525067Y-128813703D01*
X140537635Y-128809892D01*
X140549218Y-128803700D01*
X140559369Y-128795369D01*
X140567700Y-128785218D01*
X140573892Y-128773635D01*
X140577703Y-128761067D01*
X140579000Y-128747906D01*
X140579000Y-127284094D01*
X140577703Y-127270933D01*
X140573892Y-127258365D01*
X140567700Y-127246782D01*
X140559369Y-127236631D01*
X140549218Y-127228300D01*
X140537635Y-127222108D01*
X140525067Y-127218297D01*
X140511804Y-127216990D01*
X140510178Y-127215825D01*
X140510374Y-127213835D01*
X140512000Y-127213000D01*
X140599613Y-127213000D01*
X140599809Y-127213010D01*
G37*
G36*
X139949809Y-121413010D02*
G01*
X139958372Y-121413853D01*
X139958566Y-121413881D01*
X139967954Y-121415748D01*
X139992060Y-121415746D01*
X140001438Y-121413881D01*
X140001632Y-121413853D01*
X140010191Y-121413010D01*
X140010387Y-121413000D01*
X140098000Y-121413000D01*
X140099732Y-121414000D01*
X140099732Y-121416000D01*
X140098196Y-121416990D01*
X140084933Y-121418297D01*
X140072365Y-121422108D01*
X140060782Y-121428300D01*
X140050631Y-121436631D01*
X140042300Y-121446782D01*
X140036108Y-121458365D01*
X140032297Y-121470933D01*
X140031000Y-121484094D01*
X140031000Y-122947906D01*
X140032297Y-122961067D01*
X140036108Y-122973635D01*
X140042300Y-122985218D01*
X140050631Y-122995369D01*
X140060782Y-123003700D01*
X140072365Y-123009892D01*
X140084933Y-123013703D01*
X140098196Y-123015010D01*
X140099822Y-123016175D01*
X140099626Y-123018165D01*
X140098000Y-123019000D01*
X140010387Y-123019000D01*
X140010191Y-123018990D01*
X140001628Y-123018147D01*
X140001434Y-123018119D01*
X139992046Y-123016252D01*
X139967940Y-123016254D01*
X139958562Y-123018119D01*
X139958368Y-123018147D01*
X139949809Y-123018990D01*
X139949613Y-123019000D01*
X139862000Y-123019000D01*
X139860268Y-123018000D01*
X139860268Y-123016000D01*
X139861804Y-123015010D01*
X139875067Y-123013703D01*
X139887635Y-123009892D01*
X139899218Y-123003700D01*
X139909369Y-122995369D01*
X139917700Y-122985218D01*
X139923892Y-122973635D01*
X139927703Y-122961067D01*
X139929000Y-122947906D01*
X139929000Y-121484094D01*
X139927703Y-121470933D01*
X139923892Y-121458365D01*
X139917700Y-121446782D01*
X139909369Y-121436631D01*
X139899218Y-121428300D01*
X139887635Y-121422108D01*
X139875067Y-121418297D01*
X139861804Y-121416990D01*
X139860178Y-121415825D01*
X139860374Y-121413835D01*
X139862000Y-121413000D01*
X139949613Y-121413000D01*
X139949809Y-121413010D01*
G37*
G36*
X146449809Y-121413010D02*
G01*
X146458372Y-121413853D01*
X146458566Y-121413881D01*
X146467954Y-121415748D01*
X146492060Y-121415746D01*
X146501438Y-121413881D01*
X146501632Y-121413853D01*
X146510191Y-121413010D01*
X146510387Y-121413000D01*
X146598000Y-121413000D01*
X146599732Y-121414000D01*
X146599732Y-121416000D01*
X146598196Y-121416990D01*
X146584933Y-121418297D01*
X146572365Y-121422108D01*
X146560782Y-121428300D01*
X146550631Y-121436631D01*
X146542300Y-121446782D01*
X146536108Y-121458365D01*
X146532297Y-121470933D01*
X146531000Y-121484094D01*
X146531000Y-122947906D01*
X146532297Y-122961067D01*
X146536108Y-122973635D01*
X146542300Y-122985218D01*
X146550631Y-122995369D01*
X146560782Y-123003700D01*
X146572365Y-123009892D01*
X146584933Y-123013703D01*
X146598196Y-123015010D01*
X146599822Y-123016175D01*
X146599626Y-123018165D01*
X146598000Y-123019000D01*
X146510387Y-123019000D01*
X146510191Y-123018990D01*
X146501628Y-123018147D01*
X146501434Y-123018119D01*
X146492046Y-123016252D01*
X146467940Y-123016254D01*
X146458562Y-123018119D01*
X146458368Y-123018147D01*
X146449809Y-123018990D01*
X146449613Y-123019000D01*
X146362000Y-123019000D01*
X146360268Y-123018000D01*
X146360268Y-123016000D01*
X146361804Y-123015010D01*
X146375067Y-123013703D01*
X146387635Y-123009892D01*
X146399218Y-123003700D01*
X146409369Y-122995369D01*
X146417700Y-122985218D01*
X146423892Y-122973635D01*
X146427703Y-122961067D01*
X146429000Y-122947906D01*
X146429000Y-121484094D01*
X146427703Y-121470933D01*
X146423892Y-121458365D01*
X146417700Y-121446782D01*
X146409369Y-121436631D01*
X146399218Y-121428300D01*
X146387635Y-121422108D01*
X146375067Y-121418297D01*
X146361804Y-121416990D01*
X146360178Y-121415825D01*
X146360374Y-121413835D01*
X146362000Y-121413000D01*
X146449613Y-121413000D01*
X146449809Y-121413010D01*
G37*
G36*
X143199809Y-121413010D02*
G01*
X143208372Y-121413853D01*
X143208566Y-121413881D01*
X143217954Y-121415748D01*
X143242060Y-121415746D01*
X143251438Y-121413881D01*
X143251632Y-121413853D01*
X143260191Y-121413010D01*
X143260387Y-121413000D01*
X143348000Y-121413000D01*
X143349732Y-121414000D01*
X143349732Y-121416000D01*
X143348196Y-121416990D01*
X143334933Y-121418297D01*
X143322365Y-121422108D01*
X143310782Y-121428300D01*
X143300631Y-121436631D01*
X143292300Y-121446782D01*
X143286108Y-121458365D01*
X143282297Y-121470933D01*
X143281000Y-121484094D01*
X143281000Y-122947906D01*
X143282297Y-122961067D01*
X143286108Y-122973635D01*
X143292300Y-122985218D01*
X143300631Y-122995369D01*
X143310782Y-123003700D01*
X143322365Y-123009892D01*
X143334933Y-123013703D01*
X143348196Y-123015010D01*
X143349822Y-123016175D01*
X143349626Y-123018165D01*
X143348000Y-123019000D01*
X143260387Y-123019000D01*
X143260191Y-123018990D01*
X143251628Y-123018147D01*
X143251434Y-123018119D01*
X143242046Y-123016252D01*
X143217940Y-123016254D01*
X143208562Y-123018119D01*
X143208368Y-123018147D01*
X143199809Y-123018990D01*
X143199613Y-123019000D01*
X143112000Y-123019000D01*
X143110268Y-123018000D01*
X143110268Y-123016000D01*
X143111804Y-123015010D01*
X143125067Y-123013703D01*
X143137635Y-123009892D01*
X143149218Y-123003700D01*
X143159369Y-122995369D01*
X143167700Y-122985218D01*
X143173892Y-122973635D01*
X143177703Y-122961067D01*
X143179000Y-122947906D01*
X143179000Y-121484094D01*
X143177703Y-121470933D01*
X143173892Y-121458365D01*
X143167700Y-121446782D01*
X143159369Y-121436631D01*
X143149218Y-121428300D01*
X143137635Y-121422108D01*
X143125067Y-121418297D01*
X143111804Y-121416990D01*
X143110178Y-121415825D01*
X143110374Y-121413835D01*
X143112000Y-121413000D01*
X143199613Y-121413000D01*
X143199809Y-121413010D01*
G37*
G36*
X140599809Y-121413010D02*
G01*
X140608372Y-121413853D01*
X140608566Y-121413881D01*
X140617954Y-121415748D01*
X140642060Y-121415746D01*
X140651438Y-121413881D01*
X140651632Y-121413853D01*
X140660191Y-121413010D01*
X140660387Y-121413000D01*
X140748000Y-121413000D01*
X140749732Y-121414000D01*
X140749732Y-121416000D01*
X140748196Y-121416990D01*
X140734933Y-121418297D01*
X140722365Y-121422108D01*
X140710782Y-121428300D01*
X140700631Y-121436631D01*
X140692300Y-121446782D01*
X140686108Y-121458365D01*
X140682297Y-121470933D01*
X140681000Y-121484094D01*
X140681000Y-122947906D01*
X140682297Y-122961067D01*
X140686108Y-122973635D01*
X140692300Y-122985218D01*
X140700631Y-122995369D01*
X140710782Y-123003700D01*
X140722365Y-123009892D01*
X140734933Y-123013703D01*
X140748196Y-123015010D01*
X140749822Y-123016175D01*
X140749626Y-123018165D01*
X140748000Y-123019000D01*
X140660387Y-123019000D01*
X140660191Y-123018990D01*
X140651628Y-123018147D01*
X140651434Y-123018119D01*
X140642046Y-123016252D01*
X140617940Y-123016254D01*
X140608562Y-123018119D01*
X140608368Y-123018147D01*
X140599809Y-123018990D01*
X140599613Y-123019000D01*
X140512000Y-123019000D01*
X140510268Y-123018000D01*
X140510268Y-123016000D01*
X140511804Y-123015010D01*
X140525067Y-123013703D01*
X140537635Y-123009892D01*
X140549218Y-123003700D01*
X140559369Y-122995369D01*
X140567700Y-122985218D01*
X140573892Y-122973635D01*
X140577703Y-122961067D01*
X140579000Y-122947906D01*
X140579000Y-121484094D01*
X140577703Y-121470933D01*
X140573892Y-121458365D01*
X140567700Y-121446782D01*
X140559369Y-121436631D01*
X140549218Y-121428300D01*
X140537635Y-121422108D01*
X140525067Y-121418297D01*
X140511804Y-121416990D01*
X140510178Y-121415825D01*
X140510374Y-121413835D01*
X140512000Y-121413000D01*
X140599613Y-121413000D01*
X140599809Y-121413010D01*
G37*
G36*
X145799809Y-121413010D02*
G01*
X145808372Y-121413853D01*
X145808566Y-121413881D01*
X145817954Y-121415748D01*
X145842060Y-121415746D01*
X145851438Y-121413881D01*
X145851632Y-121413853D01*
X145860191Y-121413010D01*
X145860387Y-121413000D01*
X145948000Y-121413000D01*
X145949732Y-121414000D01*
X145949732Y-121416000D01*
X145948196Y-121416990D01*
X145934933Y-121418297D01*
X145922365Y-121422108D01*
X145910782Y-121428300D01*
X145900631Y-121436631D01*
X145892300Y-121446782D01*
X145886108Y-121458365D01*
X145882297Y-121470933D01*
X145881000Y-121484094D01*
X145881000Y-122947906D01*
X145882297Y-122961067D01*
X145886108Y-122973635D01*
X145892300Y-122985218D01*
X145900631Y-122995369D01*
X145910782Y-123003700D01*
X145922365Y-123009892D01*
X145934933Y-123013703D01*
X145948196Y-123015010D01*
X145949822Y-123016175D01*
X145949626Y-123018165D01*
X145948000Y-123019000D01*
X145860387Y-123019000D01*
X145860191Y-123018990D01*
X145851628Y-123018147D01*
X145851434Y-123018119D01*
X145842046Y-123016252D01*
X145817940Y-123016254D01*
X145808562Y-123018119D01*
X145808368Y-123018147D01*
X145799809Y-123018990D01*
X145799613Y-123019000D01*
X145712000Y-123019000D01*
X145710268Y-123018000D01*
X145710268Y-123016000D01*
X145711804Y-123015010D01*
X145725067Y-123013703D01*
X145737635Y-123009892D01*
X145749218Y-123003700D01*
X145759369Y-122995369D01*
X145767700Y-122985218D01*
X145773892Y-122973635D01*
X145777703Y-122961067D01*
X145779000Y-122947906D01*
X145779000Y-121484094D01*
X145777703Y-121470933D01*
X145773892Y-121458365D01*
X145767700Y-121446782D01*
X145759369Y-121436631D01*
X145749218Y-121428300D01*
X145737635Y-121422108D01*
X145725067Y-121418297D01*
X145711804Y-121416990D01*
X145710178Y-121415825D01*
X145710374Y-121413835D01*
X145712000Y-121413000D01*
X145799613Y-121413000D01*
X145799809Y-121413010D01*
G37*
G36*
X144499809Y-121413010D02*
G01*
X144508372Y-121413853D01*
X144508566Y-121413881D01*
X144517954Y-121415748D01*
X144542060Y-121415746D01*
X144551438Y-121413881D01*
X144551632Y-121413853D01*
X144560191Y-121413010D01*
X144560387Y-121413000D01*
X144648000Y-121413000D01*
X144649732Y-121414000D01*
X144649732Y-121416000D01*
X144648196Y-121416990D01*
X144634933Y-121418297D01*
X144622365Y-121422108D01*
X144610782Y-121428300D01*
X144600631Y-121436631D01*
X144592300Y-121446782D01*
X144586108Y-121458365D01*
X144582297Y-121470933D01*
X144581000Y-121484094D01*
X144581000Y-122947906D01*
X144582297Y-122961067D01*
X144586108Y-122973635D01*
X144592300Y-122985218D01*
X144600631Y-122995369D01*
X144610782Y-123003700D01*
X144622365Y-123009892D01*
X144634933Y-123013703D01*
X144648196Y-123015010D01*
X144649822Y-123016175D01*
X144649626Y-123018165D01*
X144648000Y-123019000D01*
X144560387Y-123019000D01*
X144560191Y-123018990D01*
X144551628Y-123018147D01*
X144551434Y-123018119D01*
X144542046Y-123016252D01*
X144517940Y-123016254D01*
X144508562Y-123018119D01*
X144508368Y-123018147D01*
X144499809Y-123018990D01*
X144499613Y-123019000D01*
X144412000Y-123019000D01*
X144410268Y-123018000D01*
X144410268Y-123016000D01*
X144411804Y-123015010D01*
X144425067Y-123013703D01*
X144437635Y-123009892D01*
X144449218Y-123003700D01*
X144459369Y-122995369D01*
X144467700Y-122985218D01*
X144473892Y-122973635D01*
X144477703Y-122961067D01*
X144479000Y-122947906D01*
X144479000Y-121484094D01*
X144477703Y-121470933D01*
X144473892Y-121458365D01*
X144467700Y-121446782D01*
X144459369Y-121436631D01*
X144449218Y-121428300D01*
X144437635Y-121422108D01*
X144425067Y-121418297D01*
X144411804Y-121416990D01*
X144410178Y-121415825D01*
X144410374Y-121413835D01*
X144412000Y-121413000D01*
X144499613Y-121413000D01*
X144499809Y-121413010D01*
G37*
G36*
X143849809Y-121413010D02*
G01*
X143858372Y-121413853D01*
X143858566Y-121413881D01*
X143867954Y-121415748D01*
X143892060Y-121415746D01*
X143901438Y-121413881D01*
X143901632Y-121413853D01*
X143910191Y-121413010D01*
X143910387Y-121413000D01*
X143998000Y-121413000D01*
X143999732Y-121414000D01*
X143999732Y-121416000D01*
X143998196Y-121416990D01*
X143984933Y-121418297D01*
X143972365Y-121422108D01*
X143960782Y-121428300D01*
X143950631Y-121436631D01*
X143942300Y-121446782D01*
X143936108Y-121458365D01*
X143932297Y-121470933D01*
X143931000Y-121484094D01*
X143931000Y-122947906D01*
X143932297Y-122961067D01*
X143936108Y-122973635D01*
X143942300Y-122985218D01*
X143950631Y-122995369D01*
X143960782Y-123003700D01*
X143972365Y-123009892D01*
X143984933Y-123013703D01*
X143998196Y-123015010D01*
X143999822Y-123016175D01*
X143999626Y-123018165D01*
X143998000Y-123019000D01*
X143910387Y-123019000D01*
X143910191Y-123018990D01*
X143901628Y-123018147D01*
X143901434Y-123018119D01*
X143892046Y-123016252D01*
X143867940Y-123016254D01*
X143858562Y-123018119D01*
X143858368Y-123018147D01*
X143849809Y-123018990D01*
X143849613Y-123019000D01*
X143762000Y-123019000D01*
X143760268Y-123018000D01*
X143760268Y-123016000D01*
X143761804Y-123015010D01*
X143775067Y-123013703D01*
X143787635Y-123009892D01*
X143799218Y-123003700D01*
X143809369Y-122995369D01*
X143817700Y-122985218D01*
X143823892Y-122973635D01*
X143827703Y-122961067D01*
X143829000Y-122947906D01*
X143829000Y-121484094D01*
X143827703Y-121470933D01*
X143823892Y-121458365D01*
X143817700Y-121446782D01*
X143809369Y-121436631D01*
X143799218Y-121428300D01*
X143787635Y-121422108D01*
X143775067Y-121418297D01*
X143761804Y-121416990D01*
X143760178Y-121415825D01*
X143760374Y-121413835D01*
X143762000Y-121413000D01*
X143849613Y-121413000D01*
X143849809Y-121413010D01*
G37*
G36*
X141249809Y-121413010D02*
G01*
X141258372Y-121413853D01*
X141258566Y-121413881D01*
X141267954Y-121415748D01*
X141292060Y-121415746D01*
X141301438Y-121413881D01*
X141301632Y-121413853D01*
X141310191Y-121413010D01*
X141310387Y-121413000D01*
X141398000Y-121413000D01*
X141399732Y-121414000D01*
X141399732Y-121416000D01*
X141398196Y-121416990D01*
X141384933Y-121418297D01*
X141372365Y-121422108D01*
X141360782Y-121428300D01*
X141350631Y-121436631D01*
X141342300Y-121446782D01*
X141336108Y-121458365D01*
X141332297Y-121470933D01*
X141331000Y-121484094D01*
X141331000Y-122947906D01*
X141332297Y-122961067D01*
X141336108Y-122973635D01*
X141342300Y-122985218D01*
X141350631Y-122995369D01*
X141360782Y-123003700D01*
X141372365Y-123009892D01*
X141384933Y-123013703D01*
X141398196Y-123015010D01*
X141399822Y-123016175D01*
X141399626Y-123018165D01*
X141398000Y-123019000D01*
X141310387Y-123019000D01*
X141310191Y-123018990D01*
X141301628Y-123018147D01*
X141301434Y-123018119D01*
X141292046Y-123016252D01*
X141267940Y-123016254D01*
X141258562Y-123018119D01*
X141258368Y-123018147D01*
X141249809Y-123018990D01*
X141249613Y-123019000D01*
X141162000Y-123019000D01*
X141160268Y-123018000D01*
X141160268Y-123016000D01*
X141161804Y-123015010D01*
X141175067Y-123013703D01*
X141187635Y-123009892D01*
X141199218Y-123003700D01*
X141209369Y-122995369D01*
X141217700Y-122985218D01*
X141223892Y-122973635D01*
X141227703Y-122961067D01*
X141229000Y-122947906D01*
X141229000Y-121484094D01*
X141227703Y-121470933D01*
X141223892Y-121458365D01*
X141217700Y-121446782D01*
X141209369Y-121436631D01*
X141199218Y-121428300D01*
X141187635Y-121422108D01*
X141175067Y-121418297D01*
X141161804Y-121416990D01*
X141160178Y-121415825D01*
X141160374Y-121413835D01*
X141162000Y-121413000D01*
X141249613Y-121413000D01*
X141249809Y-121413010D01*
G37*
G36*
X145149809Y-121413010D02*
G01*
X145158372Y-121413853D01*
X145158566Y-121413881D01*
X145167954Y-121415748D01*
X145192060Y-121415746D01*
X145201438Y-121413881D01*
X145201632Y-121413853D01*
X145210191Y-121413010D01*
X145210387Y-121413000D01*
X145298000Y-121413000D01*
X145299732Y-121414000D01*
X145299732Y-121416000D01*
X145298196Y-121416990D01*
X145284933Y-121418297D01*
X145272365Y-121422108D01*
X145260782Y-121428300D01*
X145250631Y-121436631D01*
X145242300Y-121446782D01*
X145236108Y-121458365D01*
X145232297Y-121470933D01*
X145231000Y-121484094D01*
X145231000Y-122947906D01*
X145232297Y-122961067D01*
X145236108Y-122973635D01*
X145242300Y-122985218D01*
X145250631Y-122995369D01*
X145260782Y-123003700D01*
X145272365Y-123009892D01*
X145284933Y-123013703D01*
X145298196Y-123015010D01*
X145299822Y-123016175D01*
X145299626Y-123018165D01*
X145298000Y-123019000D01*
X145210387Y-123019000D01*
X145210191Y-123018990D01*
X145201628Y-123018147D01*
X145201434Y-123018119D01*
X145192046Y-123016252D01*
X145167940Y-123016254D01*
X145158562Y-123018119D01*
X145158368Y-123018147D01*
X145149809Y-123018990D01*
X145149613Y-123019000D01*
X145062000Y-123019000D01*
X145060268Y-123018000D01*
X145060268Y-123016000D01*
X145061804Y-123015010D01*
X145075067Y-123013703D01*
X145087635Y-123009892D01*
X145099218Y-123003700D01*
X145109369Y-122995369D01*
X145117700Y-122985218D01*
X145123892Y-122973635D01*
X145127703Y-122961067D01*
X145129000Y-122947906D01*
X145129000Y-121484094D01*
X145127703Y-121470933D01*
X145123892Y-121458365D01*
X145117700Y-121446782D01*
X145109369Y-121436631D01*
X145099218Y-121428300D01*
X145087635Y-121422108D01*
X145075067Y-121418297D01*
X145061804Y-121416990D01*
X145060178Y-121415825D01*
X145060374Y-121413835D01*
X145062000Y-121413000D01*
X145149613Y-121413000D01*
X145149809Y-121413010D01*
G37*
G36*
X142549809Y-121413010D02*
G01*
X142558372Y-121413853D01*
X142558566Y-121413881D01*
X142567954Y-121415748D01*
X142592060Y-121415746D01*
X142601438Y-121413881D01*
X142601632Y-121413853D01*
X142610191Y-121413010D01*
X142610387Y-121413000D01*
X142698000Y-121413000D01*
X142699732Y-121414000D01*
X142699732Y-121416000D01*
X142698196Y-121416990D01*
X142684933Y-121418297D01*
X142672365Y-121422108D01*
X142660782Y-121428300D01*
X142650631Y-121436631D01*
X142642300Y-121446782D01*
X142636108Y-121458365D01*
X142632297Y-121470933D01*
X142631000Y-121484094D01*
X142631000Y-122947906D01*
X142632297Y-122961067D01*
X142636108Y-122973635D01*
X142642300Y-122985218D01*
X142650631Y-122995369D01*
X142660782Y-123003700D01*
X142672365Y-123009892D01*
X142684933Y-123013703D01*
X142698196Y-123015010D01*
X142699822Y-123016175D01*
X142699626Y-123018165D01*
X142698000Y-123019000D01*
X142610387Y-123019000D01*
X142610191Y-123018990D01*
X142601628Y-123018147D01*
X142601434Y-123018119D01*
X142592046Y-123016252D01*
X142567940Y-123016254D01*
X142558562Y-123018119D01*
X142558368Y-123018147D01*
X142549809Y-123018990D01*
X142549613Y-123019000D01*
X142462000Y-123019000D01*
X142460268Y-123018000D01*
X142460268Y-123016000D01*
X142461804Y-123015010D01*
X142475067Y-123013703D01*
X142487635Y-123009892D01*
X142499218Y-123003700D01*
X142509369Y-122995369D01*
X142517700Y-122985218D01*
X142523892Y-122973635D01*
X142527703Y-122961067D01*
X142529000Y-122947906D01*
X142529000Y-121484094D01*
X142527703Y-121470933D01*
X142523892Y-121458365D01*
X142517700Y-121446782D01*
X142509369Y-121436631D01*
X142499218Y-121428300D01*
X142487635Y-121422108D01*
X142475067Y-121418297D01*
X142461804Y-121416990D01*
X142460178Y-121415825D01*
X142460374Y-121413835D01*
X142462000Y-121413000D01*
X142549613Y-121413000D01*
X142549809Y-121413010D01*
G37*
G36*
X141899809Y-121413010D02*
G01*
X141908372Y-121413853D01*
X141908566Y-121413881D01*
X141917954Y-121415748D01*
X141942060Y-121415746D01*
X141951438Y-121413881D01*
X141951632Y-121413853D01*
X141960191Y-121413010D01*
X141960387Y-121413000D01*
X142048000Y-121413000D01*
X142049732Y-121414000D01*
X142049732Y-121416000D01*
X142048196Y-121416990D01*
X142034933Y-121418297D01*
X142022365Y-121422108D01*
X142010782Y-121428300D01*
X142000631Y-121436631D01*
X141992300Y-121446782D01*
X141986108Y-121458365D01*
X141982297Y-121470933D01*
X141981000Y-121484094D01*
X141981000Y-122947906D01*
X141982297Y-122961067D01*
X141986108Y-122973635D01*
X141992300Y-122985218D01*
X142000631Y-122995369D01*
X142010782Y-123003700D01*
X142022365Y-123009892D01*
X142034933Y-123013703D01*
X142048196Y-123015010D01*
X142049822Y-123016175D01*
X142049626Y-123018165D01*
X142048000Y-123019000D01*
X141960387Y-123019000D01*
X141960191Y-123018990D01*
X141951628Y-123018147D01*
X141951434Y-123018119D01*
X141942046Y-123016252D01*
X141917940Y-123016254D01*
X141908562Y-123018119D01*
X141908368Y-123018147D01*
X141899809Y-123018990D01*
X141899613Y-123019000D01*
X141812000Y-123019000D01*
X141810268Y-123018000D01*
X141810268Y-123016000D01*
X141811804Y-123015010D01*
X141825067Y-123013703D01*
X141837635Y-123009892D01*
X141849218Y-123003700D01*
X141859369Y-122995369D01*
X141867700Y-122985218D01*
X141873892Y-122973635D01*
X141877703Y-122961067D01*
X141879000Y-122947906D01*
X141879000Y-121484094D01*
X141877703Y-121470933D01*
X141873892Y-121458365D01*
X141867700Y-121446782D01*
X141859369Y-121436631D01*
X141849218Y-121428300D01*
X141837635Y-121422108D01*
X141825067Y-121418297D01*
X141811804Y-121416990D01*
X141810178Y-121415825D01*
X141810374Y-121413835D01*
X141812000Y-121413000D01*
X141899613Y-121413000D01*
X141899809Y-121413010D01*
G37*
G36*
X142032165Y-119715174D02*
G01*
X142033000Y-119716800D01*
X142033000Y-119808398D01*
X142032414Y-119809812D01*
X142024253Y-119817973D01*
X142010857Y-119838020D01*
X142001630Y-119860293D01*
X141996925Y-119883943D01*
X141996925Y-119908049D01*
X142001628Y-119931700D01*
X142010854Y-119953974D01*
X142024248Y-119974022D01*
X142032414Y-119982188D01*
X142033000Y-119983602D01*
X142033000Y-120075200D01*
X142032000Y-120076932D01*
X142030000Y-120076932D01*
X142029010Y-120075396D01*
X142027489Y-120059949D01*
X142023038Y-120045278D01*
X142015813Y-120031759D01*
X142006089Y-120019911D01*
X141994241Y-120010187D01*
X141980722Y-120002962D01*
X141966051Y-119998511D01*
X141950706Y-119997000D01*
X141259294Y-119997000D01*
X141243949Y-119998511D01*
X141229278Y-120002962D01*
X141215759Y-120010187D01*
X141203911Y-120019911D01*
X141194187Y-120031759D01*
X141186962Y-120045278D01*
X141182511Y-120059949D01*
X141180990Y-120075396D01*
X141179825Y-120077022D01*
X141177835Y-120076826D01*
X141177000Y-120075200D01*
X141177000Y-119983602D01*
X141177586Y-119982188D01*
X141185747Y-119974027D01*
X141199143Y-119953980D01*
X141208370Y-119931707D01*
X141213075Y-119908057D01*
X141213075Y-119883951D01*
X141208372Y-119860300D01*
X141199146Y-119838026D01*
X141185752Y-119817978D01*
X141177586Y-119809812D01*
X141177000Y-119808398D01*
X141177000Y-119716800D01*
X141178000Y-119715068D01*
X141180000Y-119715068D01*
X141180990Y-119716604D01*
X141182511Y-119732051D01*
X141186962Y-119746722D01*
X141194187Y-119760241D01*
X141203911Y-119772089D01*
X141215759Y-119781813D01*
X141229278Y-119789038D01*
X141243949Y-119793489D01*
X141259294Y-119795000D01*
X141950706Y-119795000D01*
X141966051Y-119793489D01*
X141980722Y-119789038D01*
X141994241Y-119781813D01*
X142006089Y-119772089D01*
X142015813Y-119760241D01*
X142023038Y-119746722D01*
X142027489Y-119732051D01*
X142029010Y-119716604D01*
X142030175Y-119714978D01*
X142032165Y-119715174D01*
G37*
G36*
X161100732Y-93273000D02*
G01*
X161101000Y-93274000D01*
X161101000Y-94726000D01*
X161100000Y-94727732D01*
X161099000Y-94728000D01*
X160951000Y-94728000D01*
X160949268Y-94727000D01*
X160949000Y-94726000D01*
X160949000Y-93276000D01*
X160451000Y-93276000D01*
X160451000Y-94726000D01*
X160450000Y-94727732D01*
X160449000Y-94728000D01*
X160301000Y-94728000D01*
X160299268Y-94727000D01*
X160299000Y-94726000D01*
X160299000Y-93276000D01*
X159801000Y-93276000D01*
X159801000Y-94726000D01*
X159800000Y-94727732D01*
X159799000Y-94728000D01*
X159651000Y-94728000D01*
X159649268Y-94727000D01*
X159649000Y-94726000D01*
X159649000Y-93274000D01*
X159650000Y-93272268D01*
X159651000Y-93272000D01*
X161099000Y-93272000D01*
X161100732Y-93273000D01*
G37*
G36*
X137264912Y-93816186D02*
G01*
X137273073Y-93824347D01*
X137293120Y-93837743D01*
X137315393Y-93846970D01*
X137339043Y-93851675D01*
X137363149Y-93851675D01*
X137386800Y-93846972D01*
X137409074Y-93837746D01*
X137429122Y-93824352D01*
X137437288Y-93816186D01*
X137438702Y-93815600D01*
X137530300Y-93815600D01*
X137532032Y-93816600D01*
X137532032Y-93818600D01*
X137530496Y-93819590D01*
X137515049Y-93821111D01*
X137500378Y-93825562D01*
X137486859Y-93832787D01*
X137475011Y-93842511D01*
X137465287Y-93854359D01*
X137458062Y-93867878D01*
X137453611Y-93882549D01*
X137452100Y-93897894D01*
X137452100Y-94589306D01*
X137453611Y-94604651D01*
X137458062Y-94619322D01*
X137465287Y-94632841D01*
X137475011Y-94644689D01*
X137486859Y-94654413D01*
X137500378Y-94661638D01*
X137515049Y-94666089D01*
X137530496Y-94667610D01*
X137532122Y-94668775D01*
X137531926Y-94670765D01*
X137530300Y-94671600D01*
X137438702Y-94671600D01*
X137437288Y-94671014D01*
X137429127Y-94662853D01*
X137409080Y-94649457D01*
X137386807Y-94640230D01*
X137363157Y-94635525D01*
X137339051Y-94635525D01*
X137315400Y-94640228D01*
X137293126Y-94649454D01*
X137273078Y-94662848D01*
X137264912Y-94671014D01*
X137263498Y-94671600D01*
X137171900Y-94671600D01*
X137170168Y-94670600D01*
X137170168Y-94668600D01*
X137171704Y-94667610D01*
X137187151Y-94666089D01*
X137201822Y-94661638D01*
X137215341Y-94654413D01*
X137227189Y-94644689D01*
X137236913Y-94632841D01*
X137244138Y-94619322D01*
X137248589Y-94604651D01*
X137250100Y-94589306D01*
X137250100Y-93897894D01*
X137248589Y-93882549D01*
X137244138Y-93867878D01*
X137236913Y-93854359D01*
X137227189Y-93842511D01*
X137215341Y-93832787D01*
X137201822Y-93825562D01*
X137187151Y-93821111D01*
X137171704Y-93819590D01*
X137170078Y-93818425D01*
X137170274Y-93816435D01*
X137171900Y-93815600D01*
X137263498Y-93815600D01*
X137264912Y-93816186D01*
G37*
G36*
X137264912Y-91911186D02*
G01*
X137273073Y-91919347D01*
X137293120Y-91932743D01*
X137315393Y-91941970D01*
X137339043Y-91946675D01*
X137363149Y-91946675D01*
X137386800Y-91941972D01*
X137409074Y-91932746D01*
X137429122Y-91919352D01*
X137437288Y-91911186D01*
X137438702Y-91910600D01*
X137530300Y-91910600D01*
X137532032Y-91911600D01*
X137532032Y-91913600D01*
X137530496Y-91914590D01*
X137515049Y-91916111D01*
X137500378Y-91920562D01*
X137486859Y-91927787D01*
X137475011Y-91937511D01*
X137465287Y-91949359D01*
X137458062Y-91962878D01*
X137453611Y-91977549D01*
X137452100Y-91992894D01*
X137452100Y-92684306D01*
X137453611Y-92699651D01*
X137458062Y-92714322D01*
X137465287Y-92727841D01*
X137475011Y-92739689D01*
X137486859Y-92749413D01*
X137500378Y-92756638D01*
X137515049Y-92761089D01*
X137530496Y-92762610D01*
X137532122Y-92763775D01*
X137531926Y-92765765D01*
X137530300Y-92766600D01*
X137438702Y-92766600D01*
X137437288Y-92766014D01*
X137429127Y-92757853D01*
X137409080Y-92744457D01*
X137386807Y-92735230D01*
X137363157Y-92730525D01*
X137339051Y-92730525D01*
X137315400Y-92735228D01*
X137293126Y-92744454D01*
X137273078Y-92757848D01*
X137264912Y-92766014D01*
X137263498Y-92766600D01*
X137171900Y-92766600D01*
X137170168Y-92765600D01*
X137170168Y-92763600D01*
X137171704Y-92762610D01*
X137187151Y-92761089D01*
X137201822Y-92756638D01*
X137215341Y-92749413D01*
X137227189Y-92739689D01*
X137236913Y-92727841D01*
X137244138Y-92714322D01*
X137248589Y-92699651D01*
X137250100Y-92684306D01*
X137250100Y-91992894D01*
X137248589Y-91977549D01*
X137244138Y-91962878D01*
X137236913Y-91949359D01*
X137227189Y-91937511D01*
X137215341Y-91927787D01*
X137201822Y-91920562D01*
X137187151Y-91916111D01*
X137171704Y-91914590D01*
X137170078Y-91913425D01*
X137170274Y-91911435D01*
X137171900Y-91910600D01*
X137263498Y-91910600D01*
X137264912Y-91911186D01*
G37*
G36*
X137264912Y-90006186D02*
G01*
X137273073Y-90014347D01*
X137293120Y-90027743D01*
X137315393Y-90036970D01*
X137339043Y-90041675D01*
X137363149Y-90041675D01*
X137386800Y-90036972D01*
X137409074Y-90027746D01*
X137429122Y-90014352D01*
X137437288Y-90006186D01*
X137438702Y-90005600D01*
X137530300Y-90005600D01*
X137532032Y-90006600D01*
X137532032Y-90008600D01*
X137530496Y-90009590D01*
X137515049Y-90011111D01*
X137500378Y-90015562D01*
X137486859Y-90022787D01*
X137475011Y-90032511D01*
X137465287Y-90044359D01*
X137458062Y-90057878D01*
X137453611Y-90072549D01*
X137452100Y-90087894D01*
X137452100Y-90779306D01*
X137453611Y-90794651D01*
X137458062Y-90809322D01*
X137465287Y-90822841D01*
X137475011Y-90834689D01*
X137486859Y-90844413D01*
X137500378Y-90851638D01*
X137515049Y-90856089D01*
X137530496Y-90857610D01*
X137532122Y-90858775D01*
X137531926Y-90860765D01*
X137530300Y-90861600D01*
X137438702Y-90861600D01*
X137437288Y-90861014D01*
X137429127Y-90852853D01*
X137409080Y-90839457D01*
X137386807Y-90830230D01*
X137363157Y-90825525D01*
X137339051Y-90825525D01*
X137315400Y-90830228D01*
X137293126Y-90839454D01*
X137273078Y-90852848D01*
X137264912Y-90861014D01*
X137263498Y-90861600D01*
X137171900Y-90861600D01*
X137170168Y-90860600D01*
X137170168Y-90858600D01*
X137171704Y-90857610D01*
X137187151Y-90856089D01*
X137201822Y-90851638D01*
X137215341Y-90844413D01*
X137227189Y-90834689D01*
X137236913Y-90822841D01*
X137244138Y-90809322D01*
X137248589Y-90794651D01*
X137250100Y-90779306D01*
X137250100Y-90087894D01*
X137248589Y-90072549D01*
X137244138Y-90057878D01*
X137236913Y-90044359D01*
X137227189Y-90032511D01*
X137215341Y-90022787D01*
X137201822Y-90015562D01*
X137187151Y-90011111D01*
X137171704Y-90009590D01*
X137170078Y-90008425D01*
X137170274Y-90006435D01*
X137171900Y-90005600D01*
X137263498Y-90005600D01*
X137264912Y-90006186D01*
G37*
G36*
X161100732Y-88973000D02*
G01*
X161101000Y-88974000D01*
X161101000Y-90426000D01*
X161100000Y-90427732D01*
X161099000Y-90428000D01*
X160951000Y-90428000D01*
X160949268Y-90427000D01*
X160949000Y-90426000D01*
X160949000Y-88976000D01*
X160451000Y-88976000D01*
X160451000Y-90426000D01*
X160450000Y-90427732D01*
X160449000Y-90428000D01*
X160301000Y-90428000D01*
X160299268Y-90427000D01*
X160299000Y-90426000D01*
X160299000Y-88976000D01*
X159801000Y-88976000D01*
X159801000Y-90426000D01*
X159800000Y-90427732D01*
X159799000Y-90428000D01*
X159651000Y-90428000D01*
X159649268Y-90427000D01*
X159649000Y-90426000D01*
X159649000Y-88974000D01*
X159650000Y-88972268D01*
X159651000Y-88972000D01*
X161099000Y-88972000D01*
X161100732Y-88973000D01*
G37*
G36*
X158057165Y-89739174D02*
G01*
X158058000Y-89740800D01*
X158058000Y-89832398D01*
X158057414Y-89833812D01*
X158049253Y-89841973D01*
X158035857Y-89862020D01*
X158026630Y-89884293D01*
X158021925Y-89907943D01*
X158021925Y-89932049D01*
X158026628Y-89955700D01*
X158035854Y-89977974D01*
X158049248Y-89998022D01*
X158057414Y-90006188D01*
X158058000Y-90007602D01*
X158058000Y-90099200D01*
X158057000Y-90100932D01*
X158055000Y-90100932D01*
X158054010Y-90099396D01*
X158052489Y-90083949D01*
X158048038Y-90069278D01*
X158040813Y-90055759D01*
X158031089Y-90043911D01*
X158019241Y-90034187D01*
X158005722Y-90026962D01*
X157991051Y-90022511D01*
X157975706Y-90021000D01*
X157284294Y-90021000D01*
X157268949Y-90022511D01*
X157254278Y-90026962D01*
X157240759Y-90034187D01*
X157228911Y-90043911D01*
X157219187Y-90055759D01*
X157211962Y-90069278D01*
X157207511Y-90083949D01*
X157205990Y-90099396D01*
X157204825Y-90101022D01*
X157202835Y-90100826D01*
X157202000Y-90099200D01*
X157202000Y-90007602D01*
X157202586Y-90006188D01*
X157210747Y-89998027D01*
X157224143Y-89977980D01*
X157233370Y-89955707D01*
X157238075Y-89932057D01*
X157238075Y-89907951D01*
X157233372Y-89884300D01*
X157224146Y-89862026D01*
X157210752Y-89841978D01*
X157202586Y-89833812D01*
X157202000Y-89832398D01*
X157202000Y-89740800D01*
X157203000Y-89739068D01*
X157205000Y-89739068D01*
X157205990Y-89740604D01*
X157207511Y-89756051D01*
X157211962Y-89770722D01*
X157219187Y-89784241D01*
X157228911Y-89796089D01*
X157240759Y-89805813D01*
X157254278Y-89813038D01*
X157268949Y-89817489D01*
X157284294Y-89819000D01*
X157975706Y-89819000D01*
X157991051Y-89817489D01*
X158005722Y-89813038D01*
X158019241Y-89805813D01*
X158031089Y-89796089D01*
X158040813Y-89784241D01*
X158048038Y-89770722D01*
X158052489Y-89756051D01*
X158054010Y-89740604D01*
X158055175Y-89738978D01*
X158057165Y-89739174D01*
G37*
G36*
X145519912Y-84926186D02*
G01*
X145528073Y-84934347D01*
X145548120Y-84947743D01*
X145570393Y-84956970D01*
X145594043Y-84961675D01*
X145618149Y-84961675D01*
X145641800Y-84956972D01*
X145664074Y-84947746D01*
X145684122Y-84934352D01*
X145692288Y-84926186D01*
X145693702Y-84925600D01*
X145785300Y-84925600D01*
X145787032Y-84926600D01*
X145787032Y-84928600D01*
X145785496Y-84929590D01*
X145770049Y-84931111D01*
X145755378Y-84935562D01*
X145741859Y-84942787D01*
X145730011Y-84952511D01*
X145720287Y-84964359D01*
X145713062Y-84977878D01*
X145708611Y-84992549D01*
X145707100Y-85007894D01*
X145707100Y-85699306D01*
X145708611Y-85714651D01*
X145713062Y-85729322D01*
X145720287Y-85742841D01*
X145730011Y-85754689D01*
X145741859Y-85764413D01*
X145755378Y-85771638D01*
X145770049Y-85776089D01*
X145785496Y-85777610D01*
X145787122Y-85778775D01*
X145786926Y-85780765D01*
X145785300Y-85781600D01*
X145693702Y-85781600D01*
X145692288Y-85781014D01*
X145684127Y-85772853D01*
X145664080Y-85759457D01*
X145641807Y-85750230D01*
X145618157Y-85745525D01*
X145594051Y-85745525D01*
X145570400Y-85750228D01*
X145548126Y-85759454D01*
X145528078Y-85772848D01*
X145519912Y-85781014D01*
X145518498Y-85781600D01*
X145426900Y-85781600D01*
X145425168Y-85780600D01*
X145425168Y-85778600D01*
X145426704Y-85777610D01*
X145442151Y-85776089D01*
X145456822Y-85771638D01*
X145470341Y-85764413D01*
X145482189Y-85754689D01*
X145491913Y-85742841D01*
X145499138Y-85729322D01*
X145503589Y-85714651D01*
X145505100Y-85699306D01*
X145505100Y-85007894D01*
X145503589Y-84992549D01*
X145499138Y-84977878D01*
X145491913Y-84964359D01*
X145482189Y-84952511D01*
X145470341Y-84942787D01*
X145456822Y-84935562D01*
X145442151Y-84931111D01*
X145426704Y-84929590D01*
X145425078Y-84928425D01*
X145425274Y-84926435D01*
X145426900Y-84925600D01*
X145518498Y-84925600D01*
X145519912Y-84926186D01*
G37*
G36*
X141900399Y-81060638D02*
G01*
X141919047Y-81064347D01*
X141943153Y-81064347D01*
X141961801Y-81060638D01*
X141962191Y-81060600D01*
X142049100Y-81060600D01*
X142050832Y-81061600D01*
X142050832Y-81063600D01*
X142049296Y-81064590D01*
X142040911Y-81065415D01*
X142033031Y-81067806D01*
X142025771Y-81071686D01*
X142019408Y-81076908D01*
X142014186Y-81083271D01*
X142010306Y-81090531D01*
X142007915Y-81098411D01*
X142007100Y-81106694D01*
X142007100Y-81720506D01*
X142007915Y-81728789D01*
X142010306Y-81736669D01*
X142014186Y-81743929D01*
X142019408Y-81750292D01*
X142025771Y-81755514D01*
X142033031Y-81759394D01*
X142040911Y-81761785D01*
X142049194Y-81762600D01*
X142313006Y-81762600D01*
X142321289Y-81761785D01*
X142329169Y-81759394D01*
X142336429Y-81755514D01*
X142342792Y-81750292D01*
X142348014Y-81743929D01*
X142351894Y-81736669D01*
X142354285Y-81728789D01*
X142355100Y-81720506D01*
X142355100Y-81106694D01*
X142354285Y-81098411D01*
X142351894Y-81090531D01*
X142348014Y-81083271D01*
X142342792Y-81076908D01*
X142336429Y-81071686D01*
X142329169Y-81067806D01*
X142321289Y-81065415D01*
X142312904Y-81064590D01*
X142311278Y-81063426D01*
X142311474Y-81061435D01*
X142313100Y-81060600D01*
X142400009Y-81060600D01*
X142400399Y-81060638D01*
X142419047Y-81064347D01*
X142443153Y-81064347D01*
X142461801Y-81060638D01*
X142462191Y-81060600D01*
X142549100Y-81060600D01*
X142550832Y-81061600D01*
X142550832Y-81063600D01*
X142549296Y-81064590D01*
X142540911Y-81065415D01*
X142533031Y-81067806D01*
X142525771Y-81071686D01*
X142519408Y-81076908D01*
X142514186Y-81083271D01*
X142510306Y-81090531D01*
X142507915Y-81098411D01*
X142507100Y-81106694D01*
X142507100Y-81720506D01*
X142507915Y-81728789D01*
X142510306Y-81736669D01*
X142514186Y-81743929D01*
X142519408Y-81750292D01*
X142525771Y-81755514D01*
X142533031Y-81759394D01*
X142540911Y-81761785D01*
X142549194Y-81762600D01*
X142813006Y-81762600D01*
X142821289Y-81761785D01*
X142829169Y-81759394D01*
X142836429Y-81755514D01*
X142842792Y-81750292D01*
X142848014Y-81743929D01*
X142851894Y-81736669D01*
X142854285Y-81728789D01*
X142855100Y-81720506D01*
X142855100Y-81106694D01*
X142854285Y-81098411D01*
X142851894Y-81090531D01*
X142848014Y-81083271D01*
X142842792Y-81076908D01*
X142836429Y-81071686D01*
X142829169Y-81067806D01*
X142821289Y-81065415D01*
X142812904Y-81064590D01*
X142811278Y-81063426D01*
X142811474Y-81061435D01*
X142813100Y-81060600D01*
X142900009Y-81060600D01*
X142900399Y-81060638D01*
X142919047Y-81064347D01*
X142943153Y-81064347D01*
X142961801Y-81060638D01*
X142962191Y-81060600D01*
X143049100Y-81060600D01*
X143050832Y-81061600D01*
X143050832Y-81063600D01*
X143049296Y-81064590D01*
X143040911Y-81065415D01*
X143033031Y-81067806D01*
X143025771Y-81071686D01*
X143019408Y-81076908D01*
X143014186Y-81083271D01*
X143010306Y-81090531D01*
X143007915Y-81098411D01*
X143007100Y-81106694D01*
X143007100Y-81720506D01*
X143007915Y-81728789D01*
X143010306Y-81736669D01*
X143014186Y-81743929D01*
X143019408Y-81750292D01*
X143025771Y-81755514D01*
X143033031Y-81759394D01*
X143040911Y-81761785D01*
X143049194Y-81762600D01*
X143313006Y-81762600D01*
X143321289Y-81761785D01*
X143329169Y-81759394D01*
X143336429Y-81755514D01*
X143342792Y-81750292D01*
X143348014Y-81743929D01*
X143351894Y-81736669D01*
X143354285Y-81728789D01*
X143355110Y-81720404D01*
X143356274Y-81718778D01*
X143358265Y-81718974D01*
X143359100Y-81720600D01*
X143359100Y-81762507D01*
X143361472Y-81786592D01*
X143368472Y-81809667D01*
X143379837Y-81830931D01*
X143395132Y-81849568D01*
X143413769Y-81864863D01*
X143435033Y-81876228D01*
X143458108Y-81883228D01*
X143482193Y-81885600D01*
X143524100Y-81885600D01*
X143525832Y-81886600D01*
X143525832Y-81888600D01*
X143524296Y-81889590D01*
X143515911Y-81890415D01*
X143508031Y-81892806D01*
X143500771Y-81896686D01*
X143494408Y-81901908D01*
X143489186Y-81908271D01*
X143485306Y-81915531D01*
X143482915Y-81923411D01*
X143482100Y-81931694D01*
X143482100Y-82195506D01*
X143482915Y-82203789D01*
X143485306Y-82211669D01*
X143489186Y-82218929D01*
X143494408Y-82225292D01*
X143500771Y-82230514D01*
X143508031Y-82234394D01*
X143515911Y-82236785D01*
X143524194Y-82237600D01*
X144138006Y-82237600D01*
X144146289Y-82236785D01*
X144154169Y-82234394D01*
X144161429Y-82230514D01*
X144167792Y-82225292D01*
X144173014Y-82218929D01*
X144176894Y-82211669D01*
X144179285Y-82203789D01*
X144180110Y-82195404D01*
X144181274Y-82193778D01*
X144183265Y-82193974D01*
X144184100Y-82195600D01*
X144184100Y-82282509D01*
X144184062Y-82282899D01*
X144180353Y-82301547D01*
X144180353Y-82325653D01*
X144184062Y-82344301D01*
X144184100Y-82344691D01*
X144184100Y-82431600D01*
X144183100Y-82433332D01*
X144181100Y-82433332D01*
X144180110Y-82431796D01*
X144179285Y-82423411D01*
X144176894Y-82415531D01*
X144173014Y-82408271D01*
X144167792Y-82401908D01*
X144161429Y-82396686D01*
X144154169Y-82392806D01*
X144146289Y-82390415D01*
X144138006Y-82389600D01*
X143524194Y-82389600D01*
X143515911Y-82390415D01*
X143508031Y-82392806D01*
X143500771Y-82396686D01*
X143494408Y-82401908D01*
X143489186Y-82408271D01*
X143485306Y-82415531D01*
X143482915Y-82423411D01*
X143482100Y-82431694D01*
X143482100Y-82695506D01*
X143482915Y-82703789D01*
X143485306Y-82711669D01*
X143489186Y-82718929D01*
X143494408Y-82725292D01*
X143500771Y-82730514D01*
X143508031Y-82734394D01*
X143515911Y-82736785D01*
X143524194Y-82737600D01*
X144138006Y-82737600D01*
X144146289Y-82736785D01*
X144154169Y-82734394D01*
X144161429Y-82730514D01*
X144167792Y-82725292D01*
X144173014Y-82718929D01*
X144176894Y-82711669D01*
X144179285Y-82703789D01*
X144180110Y-82695404D01*
X144181274Y-82693778D01*
X144183265Y-82693974D01*
X144184100Y-82695600D01*
X144184100Y-82782509D01*
X144184062Y-82782899D01*
X144180353Y-82801547D01*
X144180353Y-82825653D01*
X144184062Y-82844301D01*
X144184100Y-82844691D01*
X144184100Y-82931600D01*
X144183100Y-82933332D01*
X144181100Y-82933332D01*
X144180110Y-82931796D01*
X144179285Y-82923411D01*
X144176894Y-82915531D01*
X144173014Y-82908271D01*
X144167792Y-82901908D01*
X144161429Y-82896686D01*
X144154169Y-82892806D01*
X144146289Y-82890415D01*
X144138006Y-82889600D01*
X143524194Y-82889600D01*
X143515911Y-82890415D01*
X143508031Y-82892806D01*
X143500771Y-82896686D01*
X143494408Y-82901908D01*
X143489186Y-82908271D01*
X143485306Y-82915531D01*
X143482915Y-82923411D01*
X143482100Y-82931694D01*
X143482100Y-83195506D01*
X143482915Y-83203789D01*
X143485306Y-83211669D01*
X143489186Y-83218929D01*
X143494408Y-83225292D01*
X143500771Y-83230514D01*
X143508031Y-83234394D01*
X143515911Y-83236785D01*
X143524194Y-83237600D01*
X144138006Y-83237600D01*
X144146289Y-83236785D01*
X144154169Y-83234394D01*
X144161429Y-83230514D01*
X144167792Y-83225292D01*
X144173014Y-83218929D01*
X144176894Y-83211669D01*
X144179285Y-83203789D01*
X144180110Y-83195404D01*
X144181274Y-83193778D01*
X144183265Y-83193974D01*
X144184100Y-83195600D01*
X144184100Y-83282509D01*
X144184062Y-83282899D01*
X144180353Y-83301547D01*
X144180353Y-83325653D01*
X144184062Y-83344301D01*
X144184100Y-83344691D01*
X144184100Y-83431600D01*
X144183100Y-83433332D01*
X144181100Y-83433332D01*
X144180110Y-83431796D01*
X144179285Y-83423411D01*
X144176894Y-83415531D01*
X144173014Y-83408271D01*
X144167792Y-83401908D01*
X144161429Y-83396686D01*
X144154169Y-83392806D01*
X144146289Y-83390415D01*
X144138006Y-83389600D01*
X143524194Y-83389600D01*
X143515911Y-83390415D01*
X143508031Y-83392806D01*
X143500771Y-83396686D01*
X143494408Y-83401908D01*
X143489186Y-83408271D01*
X143485306Y-83415531D01*
X143482915Y-83423411D01*
X143482100Y-83431694D01*
X143482100Y-83695506D01*
X143482915Y-83703789D01*
X143485306Y-83711669D01*
X143489186Y-83718929D01*
X143494408Y-83725292D01*
X143500771Y-83730514D01*
X143508031Y-83734394D01*
X143515911Y-83736785D01*
X143524296Y-83737610D01*
X143525922Y-83738774D01*
X143525726Y-83740765D01*
X143524100Y-83741600D01*
X143482193Y-83741600D01*
X143458108Y-83743972D01*
X143435033Y-83750972D01*
X143413769Y-83762337D01*
X143395132Y-83777632D01*
X143379837Y-83796269D01*
X143368472Y-83817533D01*
X143361472Y-83840608D01*
X143359100Y-83864693D01*
X143359100Y-83906600D01*
X143358100Y-83908332D01*
X143356100Y-83908332D01*
X143355110Y-83906796D01*
X143354285Y-83898411D01*
X143351894Y-83890531D01*
X143348014Y-83883271D01*
X143342792Y-83876908D01*
X143336429Y-83871686D01*
X143329169Y-83867806D01*
X143321289Y-83865415D01*
X143313006Y-83864600D01*
X143049194Y-83864600D01*
X143040911Y-83865415D01*
X143033031Y-83867806D01*
X143025771Y-83871686D01*
X143019408Y-83876908D01*
X143014186Y-83883271D01*
X143010306Y-83890531D01*
X143007915Y-83898411D01*
X143007100Y-83906694D01*
X143007100Y-84520506D01*
X143007915Y-84528789D01*
X143010306Y-84536669D01*
X143014186Y-84543929D01*
X143019408Y-84550292D01*
X143025771Y-84555514D01*
X143033031Y-84559394D01*
X143040911Y-84561785D01*
X143049296Y-84562610D01*
X143050922Y-84563774D01*
X143050726Y-84565765D01*
X143049100Y-84566600D01*
X142962191Y-84566600D01*
X142961801Y-84566562D01*
X142943153Y-84562853D01*
X142919047Y-84562853D01*
X142900399Y-84566562D01*
X142900009Y-84566600D01*
X142813100Y-84566600D01*
X142811368Y-84565600D01*
X142811368Y-84563600D01*
X142812904Y-84562610D01*
X142821289Y-84561785D01*
X142829169Y-84559394D01*
X142836429Y-84555514D01*
X142842792Y-84550292D01*
X142848014Y-84543929D01*
X142851894Y-84536669D01*
X142854285Y-84528789D01*
X142855100Y-84520506D01*
X142855100Y-83906694D01*
X142854285Y-83898411D01*
X142851894Y-83890531D01*
X142848014Y-83883271D01*
X142842792Y-83876908D01*
X142836429Y-83871686D01*
X142829169Y-83867806D01*
X142821289Y-83865415D01*
X142813006Y-83864600D01*
X142549194Y-83864600D01*
X142540911Y-83865415D01*
X142533031Y-83867806D01*
X142525771Y-83871686D01*
X142519408Y-83876908D01*
X142514186Y-83883271D01*
X142510306Y-83890531D01*
X142507915Y-83898411D01*
X142507100Y-83906694D01*
X142507100Y-84520506D01*
X142507915Y-84528789D01*
X142510306Y-84536669D01*
X142514186Y-84543929D01*
X142519408Y-84550292D01*
X142525771Y-84555514D01*
X142533031Y-84559394D01*
X142540911Y-84561785D01*
X142549296Y-84562610D01*
X142550922Y-84563774D01*
X142550726Y-84565765D01*
X142549100Y-84566600D01*
X142462191Y-84566600D01*
X142461801Y-84566562D01*
X142443153Y-84562853D01*
X142419047Y-84562853D01*
X142400399Y-84566562D01*
X142400009Y-84566600D01*
X142313100Y-84566600D01*
X142311368Y-84565600D01*
X142311368Y-84563600D01*
X142312904Y-84562610D01*
X142321289Y-84561785D01*
X142329169Y-84559394D01*
X142336429Y-84555514D01*
X142342792Y-84550292D01*
X142348014Y-84543929D01*
X142351894Y-84536669D01*
X142354285Y-84528789D01*
X142355100Y-84520506D01*
X142355100Y-83906694D01*
X142354285Y-83898411D01*
X142351894Y-83890531D01*
X142348014Y-83883271D01*
X142342792Y-83876908D01*
X142336429Y-83871686D01*
X142329169Y-83867806D01*
X142321289Y-83865415D01*
X142313006Y-83864600D01*
X142049194Y-83864600D01*
X142040911Y-83865415D01*
X142033031Y-83867806D01*
X142025771Y-83871686D01*
X142019408Y-83876908D01*
X142014186Y-83883271D01*
X142010306Y-83890531D01*
X142007915Y-83898411D01*
X142007100Y-83906694D01*
X142007100Y-84520506D01*
X142007915Y-84528789D01*
X142010306Y-84536669D01*
X142014186Y-84543929D01*
X142019408Y-84550292D01*
X142025771Y-84555514D01*
X142033031Y-84559394D01*
X142040911Y-84561785D01*
X142049296Y-84562610D01*
X142050922Y-84563774D01*
X142050726Y-84565765D01*
X142049100Y-84566600D01*
X141962191Y-84566600D01*
X141961801Y-84566562D01*
X141943153Y-84562853D01*
X141919047Y-84562853D01*
X141900399Y-84566562D01*
X141900009Y-84566600D01*
X141813100Y-84566600D01*
X141811368Y-84565600D01*
X141811368Y-84563600D01*
X141812904Y-84562610D01*
X141821289Y-84561785D01*
X141829169Y-84559394D01*
X141836429Y-84555514D01*
X141842792Y-84550292D01*
X141848014Y-84543929D01*
X141851894Y-84536669D01*
X141854285Y-84528789D01*
X141855100Y-84520506D01*
X141855100Y-83906694D01*
X141854285Y-83898411D01*
X141851894Y-83890531D01*
X141848014Y-83883271D01*
X141842792Y-83876908D01*
X141836429Y-83871686D01*
X141829169Y-83867806D01*
X141821289Y-83865415D01*
X141813006Y-83864600D01*
X141549194Y-83864600D01*
X141540911Y-83865415D01*
X141533031Y-83867806D01*
X141525771Y-83871686D01*
X141519408Y-83876908D01*
X141514186Y-83883271D01*
X141510306Y-83890531D01*
X141507915Y-83898411D01*
X141507090Y-83906796D01*
X141505926Y-83908422D01*
X141503935Y-83908226D01*
X141503100Y-83906600D01*
X141503100Y-83864693D01*
X141500728Y-83840608D01*
X141493728Y-83817533D01*
X141482363Y-83796269D01*
X141467068Y-83777632D01*
X141448431Y-83762337D01*
X141427167Y-83750972D01*
X141404092Y-83743972D01*
X141380007Y-83741600D01*
X141338100Y-83741600D01*
X141336368Y-83740600D01*
X141336368Y-83738600D01*
X141337904Y-83737610D01*
X141346289Y-83736785D01*
X141354169Y-83734394D01*
X141361429Y-83730514D01*
X141367792Y-83725292D01*
X141373014Y-83718929D01*
X141376894Y-83711669D01*
X141379285Y-83703789D01*
X141380100Y-83695506D01*
X141380100Y-83431694D01*
X141379285Y-83423411D01*
X141376894Y-83415531D01*
X141373014Y-83408271D01*
X141367792Y-83401908D01*
X141361429Y-83396686D01*
X141354169Y-83392806D01*
X141346289Y-83390415D01*
X141338006Y-83389600D01*
X140724194Y-83389600D01*
X140715911Y-83390415D01*
X140708031Y-83392806D01*
X140700771Y-83396686D01*
X140694408Y-83401908D01*
X140689186Y-83408271D01*
X140685306Y-83415531D01*
X140682915Y-83423411D01*
X140682090Y-83431796D01*
X140680926Y-83433422D01*
X140678935Y-83433226D01*
X140678100Y-83431600D01*
X140678100Y-83344691D01*
X140678138Y-83344301D01*
X140681847Y-83325653D01*
X140681847Y-83301547D01*
X140678138Y-83282899D01*
X140678100Y-83282509D01*
X140678100Y-83195600D01*
X140679100Y-83193868D01*
X140681100Y-83193868D01*
X140682090Y-83195404D01*
X140682915Y-83203789D01*
X140685306Y-83211669D01*
X140689186Y-83218929D01*
X140694408Y-83225292D01*
X140700771Y-83230514D01*
X140708031Y-83234394D01*
X140715911Y-83236785D01*
X140724194Y-83237600D01*
X141338006Y-83237600D01*
X141346289Y-83236785D01*
X141354169Y-83234394D01*
X141361429Y-83230514D01*
X141367792Y-83225292D01*
X141373014Y-83218929D01*
X141376894Y-83211669D01*
X141379285Y-83203789D01*
X141380100Y-83195506D01*
X141380100Y-82931694D01*
X141379285Y-82923411D01*
X141376894Y-82915531D01*
X141373014Y-82908271D01*
X141367792Y-82901908D01*
X141361429Y-82896686D01*
X141354169Y-82892806D01*
X141346289Y-82890415D01*
X141338006Y-82889600D01*
X140724194Y-82889600D01*
X140715911Y-82890415D01*
X140708031Y-82892806D01*
X140700771Y-82896686D01*
X140694408Y-82901908D01*
X140689186Y-82908271D01*
X140685306Y-82915531D01*
X140682915Y-82923411D01*
X140682090Y-82931796D01*
X140680926Y-82933422D01*
X140678935Y-82933226D01*
X140678100Y-82931600D01*
X140678100Y-82844691D01*
X140678138Y-82844301D01*
X140681847Y-82825653D01*
X140681847Y-82801547D01*
X140678138Y-82782899D01*
X140678100Y-82782509D01*
X140678100Y-82695600D01*
X140679100Y-82693868D01*
X140681100Y-82693868D01*
X140682090Y-82695404D01*
X140682915Y-82703789D01*
X140685306Y-82711669D01*
X140689186Y-82718929D01*
X140694408Y-82725292D01*
X140700771Y-82730514D01*
X140708031Y-82734394D01*
X140715911Y-82736785D01*
X140724194Y-82737600D01*
X141338006Y-82737600D01*
X141346289Y-82736785D01*
X141354169Y-82734394D01*
X141361429Y-82730514D01*
X141367792Y-82725292D01*
X141373014Y-82718929D01*
X141376894Y-82711669D01*
X141379285Y-82703789D01*
X141380100Y-82695506D01*
X141380100Y-82431694D01*
X141379285Y-82423411D01*
X141376894Y-82415531D01*
X141373014Y-82408271D01*
X141367792Y-82401908D01*
X141361429Y-82396686D01*
X141354169Y-82392806D01*
X141346289Y-82390415D01*
X141338006Y-82389600D01*
X140724194Y-82389600D01*
X140715911Y-82390415D01*
X140708031Y-82392806D01*
X140700771Y-82396686D01*
X140694408Y-82401908D01*
X140689186Y-82408271D01*
X140685306Y-82415531D01*
X140682915Y-82423411D01*
X140682090Y-82431796D01*
X140680926Y-82433422D01*
X140678935Y-82433226D01*
X140678100Y-82431600D01*
X140678100Y-82344691D01*
X140678138Y-82344301D01*
X140681847Y-82325653D01*
X140681847Y-82301547D01*
X140678138Y-82282899D01*
X140678100Y-82282509D01*
X140678100Y-82195600D01*
X140679100Y-82193868D01*
X140681100Y-82193868D01*
X140682090Y-82195404D01*
X140682915Y-82203789D01*
X140685306Y-82211669D01*
X140689186Y-82218929D01*
X140694408Y-82225292D01*
X140700771Y-82230514D01*
X140708031Y-82234394D01*
X140715911Y-82236785D01*
X140724194Y-82237600D01*
X141338006Y-82237600D01*
X141346289Y-82236785D01*
X141354169Y-82234394D01*
X141355085Y-82233904D01*
X141579569Y-82233904D01*
X141579569Y-82293296D01*
X141582062Y-82305830D01*
X141582100Y-82306220D01*
X141582100Y-83579406D01*
X141583705Y-83595707D01*
X141588435Y-83611297D01*
X141596113Y-83625663D01*
X141606446Y-83638254D01*
X141619037Y-83648587D01*
X141633403Y-83656265D01*
X141648993Y-83660995D01*
X141665294Y-83662600D01*
X143196906Y-83662600D01*
X143213207Y-83660995D01*
X143228797Y-83656265D01*
X143243163Y-83648587D01*
X143255754Y-83638254D01*
X143266087Y-83625663D01*
X143273765Y-83611297D01*
X143278495Y-83595707D01*
X143280100Y-83579406D01*
X143280100Y-82306220D01*
X143280138Y-82305830D01*
X143282631Y-82293296D01*
X143282631Y-82233904D01*
X143280138Y-82221370D01*
X143280100Y-82220980D01*
X143280100Y-82047794D01*
X143278495Y-82031493D01*
X143273765Y-82015903D01*
X143266087Y-82001537D01*
X143255754Y-81988946D01*
X143243163Y-81978613D01*
X143228797Y-81970935D01*
X143213207Y-81966205D01*
X143196906Y-81964600D01*
X143023720Y-81964600D01*
X143023330Y-81964562D01*
X143010796Y-81962069D01*
X142951404Y-81962069D01*
X142938870Y-81964562D01*
X142938480Y-81964600D01*
X141923720Y-81964600D01*
X141923330Y-81964562D01*
X141910796Y-81962069D01*
X141851404Y-81962069D01*
X141838870Y-81964562D01*
X141838480Y-81964600D01*
X141665294Y-81964600D01*
X141648993Y-81966205D01*
X141633403Y-81970935D01*
X141619037Y-81978613D01*
X141606446Y-81988946D01*
X141596113Y-82001537D01*
X141588435Y-82015903D01*
X141583705Y-82031493D01*
X141582100Y-82047794D01*
X141582100Y-82220980D01*
X141582062Y-82221370D01*
X141579569Y-82233904D01*
X141355085Y-82233904D01*
X141361429Y-82230514D01*
X141367792Y-82225292D01*
X141373014Y-82218929D01*
X141376894Y-82211669D01*
X141379285Y-82203789D01*
X141380100Y-82195506D01*
X141380100Y-81931694D01*
X141379285Y-81923411D01*
X141376894Y-81915531D01*
X141373014Y-81908271D01*
X141367792Y-81901908D01*
X141361429Y-81896686D01*
X141354169Y-81892806D01*
X141346289Y-81890415D01*
X141337904Y-81889590D01*
X141336278Y-81888426D01*
X141336474Y-81886435D01*
X141338100Y-81885600D01*
X141380007Y-81885600D01*
X141404092Y-81883228D01*
X141427167Y-81876228D01*
X141448431Y-81864863D01*
X141467068Y-81849568D01*
X141482363Y-81830931D01*
X141493728Y-81809667D01*
X141500728Y-81786592D01*
X141503100Y-81762507D01*
X141503100Y-81720600D01*
X141504100Y-81718868D01*
X141506100Y-81718868D01*
X141507090Y-81720404D01*
X141507915Y-81728789D01*
X141510306Y-81736669D01*
X141514186Y-81743929D01*
X141519408Y-81750292D01*
X141525771Y-81755514D01*
X141533031Y-81759394D01*
X141540911Y-81761785D01*
X141549194Y-81762600D01*
X141813006Y-81762600D01*
X141821289Y-81761785D01*
X141829169Y-81759394D01*
X141836429Y-81755514D01*
X141842792Y-81750292D01*
X141848014Y-81743929D01*
X141851894Y-81736669D01*
X141854285Y-81728789D01*
X141855100Y-81720506D01*
X141855100Y-81106694D01*
X141854285Y-81098411D01*
X141851894Y-81090531D01*
X141848014Y-81083271D01*
X141842792Y-81076908D01*
X141836429Y-81071686D01*
X141829169Y-81067806D01*
X141821289Y-81065415D01*
X141812904Y-81064590D01*
X141811278Y-81063426D01*
X141811474Y-81061435D01*
X141813100Y-81060600D01*
X141900009Y-81060600D01*
X141900399Y-81060638D01*
G37*
G36*
X145519912Y-83656186D02*
G01*
X145528073Y-83664347D01*
X145548120Y-83677743D01*
X145570393Y-83686970D01*
X145594043Y-83691675D01*
X145618149Y-83691675D01*
X145641800Y-83686972D01*
X145664074Y-83677746D01*
X145684122Y-83664352D01*
X145692288Y-83656186D01*
X145693702Y-83655600D01*
X145785300Y-83655600D01*
X145787032Y-83656600D01*
X145787032Y-83658600D01*
X145785496Y-83659590D01*
X145770049Y-83661111D01*
X145755378Y-83665562D01*
X145741859Y-83672787D01*
X145730011Y-83682511D01*
X145720287Y-83694359D01*
X145713062Y-83707878D01*
X145708611Y-83722549D01*
X145707100Y-83737894D01*
X145707100Y-84429306D01*
X145708611Y-84444651D01*
X145713062Y-84459322D01*
X145720287Y-84472841D01*
X145730011Y-84484689D01*
X145741859Y-84494413D01*
X145755378Y-84501638D01*
X145770049Y-84506089D01*
X145785496Y-84507610D01*
X145787122Y-84508775D01*
X145786926Y-84510765D01*
X145785300Y-84511600D01*
X145693702Y-84511600D01*
X145692288Y-84511014D01*
X145684127Y-84502853D01*
X145664080Y-84489457D01*
X145641807Y-84480230D01*
X145618157Y-84475525D01*
X145594051Y-84475525D01*
X145570400Y-84480228D01*
X145548126Y-84489454D01*
X145528078Y-84502848D01*
X145519912Y-84511014D01*
X145518498Y-84511600D01*
X145426900Y-84511600D01*
X145425168Y-84510600D01*
X145425168Y-84508600D01*
X145426704Y-84507610D01*
X145442151Y-84506089D01*
X145456822Y-84501638D01*
X145470341Y-84494413D01*
X145482189Y-84484689D01*
X145491913Y-84472841D01*
X145499138Y-84459322D01*
X145503589Y-84444651D01*
X145505100Y-84429306D01*
X145505100Y-83737894D01*
X145503589Y-83722549D01*
X145499138Y-83707878D01*
X145491913Y-83694359D01*
X145482189Y-83682511D01*
X145470341Y-83672787D01*
X145456822Y-83665562D01*
X145442151Y-83661111D01*
X145426704Y-83659590D01*
X145425078Y-83658425D01*
X145425274Y-83656435D01*
X145426900Y-83655600D01*
X145518498Y-83655600D01*
X145519912Y-83656186D01*
G37*
G36*
X147424912Y-80798686D02*
G01*
X147433073Y-80806847D01*
X147453120Y-80820243D01*
X147475393Y-80829470D01*
X147499043Y-80834175D01*
X147523149Y-80834175D01*
X147546800Y-80829472D01*
X147569074Y-80820246D01*
X147589122Y-80806852D01*
X147597288Y-80798686D01*
X147598702Y-80798100D01*
X147690300Y-80798100D01*
X147692032Y-80799100D01*
X147692032Y-80801100D01*
X147690496Y-80802090D01*
X147675049Y-80803611D01*
X147660378Y-80808062D01*
X147646859Y-80815287D01*
X147635011Y-80825011D01*
X147625287Y-80836859D01*
X147618062Y-80850378D01*
X147613611Y-80865049D01*
X147612100Y-80880394D01*
X147612100Y-81571806D01*
X147613611Y-81587151D01*
X147618062Y-81601822D01*
X147625287Y-81615341D01*
X147635011Y-81627189D01*
X147646859Y-81636913D01*
X147660378Y-81644138D01*
X147675049Y-81648589D01*
X147690496Y-81650110D01*
X147692122Y-81651275D01*
X147691926Y-81653265D01*
X147690300Y-81654100D01*
X147598702Y-81654100D01*
X147597288Y-81653514D01*
X147589127Y-81645353D01*
X147569080Y-81631957D01*
X147546807Y-81622730D01*
X147523157Y-81618025D01*
X147499051Y-81618025D01*
X147475400Y-81622728D01*
X147453126Y-81631954D01*
X147433078Y-81645348D01*
X147424912Y-81653514D01*
X147423498Y-81654100D01*
X147331900Y-81654100D01*
X147330168Y-81653100D01*
X147330168Y-81651100D01*
X147331704Y-81650110D01*
X147347151Y-81648589D01*
X147361822Y-81644138D01*
X147375341Y-81636913D01*
X147387189Y-81627189D01*
X147396913Y-81615341D01*
X147404138Y-81601822D01*
X147408589Y-81587151D01*
X147410100Y-81571806D01*
X147410100Y-80880394D01*
X147408589Y-80865049D01*
X147404138Y-80850378D01*
X147396913Y-80836859D01*
X147387189Y-80825011D01*
X147375341Y-80815287D01*
X147361822Y-80808062D01*
X147347151Y-80803611D01*
X147331704Y-80802090D01*
X147330078Y-80800925D01*
X147330274Y-80798935D01*
X147331900Y-80798100D01*
X147423498Y-80798100D01*
X147424912Y-80798686D01*
G37*
G36*
X153653265Y-80092774D02*
G01*
X153654100Y-80094400D01*
X153654100Y-80185998D01*
X153653514Y-80187412D01*
X153645353Y-80195573D01*
X153631957Y-80215620D01*
X153622730Y-80237893D01*
X153618025Y-80261543D01*
X153618025Y-80285649D01*
X153622728Y-80309300D01*
X153631954Y-80331574D01*
X153645348Y-80351622D01*
X153653514Y-80359788D01*
X153654100Y-80361202D01*
X153654100Y-80452800D01*
X153653100Y-80454532D01*
X153651100Y-80454532D01*
X153650110Y-80452996D01*
X153648589Y-80437549D01*
X153644138Y-80422878D01*
X153636913Y-80409359D01*
X153627189Y-80397511D01*
X153615341Y-80387787D01*
X153601822Y-80380562D01*
X153587151Y-80376111D01*
X153571806Y-80374600D01*
X152880394Y-80374600D01*
X152865049Y-80376111D01*
X152850378Y-80380562D01*
X152836859Y-80387787D01*
X152825011Y-80397511D01*
X152815287Y-80409359D01*
X152808062Y-80422878D01*
X152803611Y-80437549D01*
X152802090Y-80452996D01*
X152800925Y-80454622D01*
X152798935Y-80454426D01*
X152798100Y-80452800D01*
X152798100Y-80361202D01*
X152798686Y-80359788D01*
X152806847Y-80351627D01*
X152820243Y-80331580D01*
X152829470Y-80309307D01*
X152834175Y-80285657D01*
X152834175Y-80261551D01*
X152829472Y-80237900D01*
X152820246Y-80215626D01*
X152806852Y-80195578D01*
X152798686Y-80187412D01*
X152798100Y-80185998D01*
X152798100Y-80094400D01*
X152799100Y-80092668D01*
X152801100Y-80092668D01*
X152802090Y-80094204D01*
X152803611Y-80109651D01*
X152808062Y-80124322D01*
X152815287Y-80137841D01*
X152825011Y-80149689D01*
X152836859Y-80159413D01*
X152850378Y-80166638D01*
X152865049Y-80171089D01*
X152880394Y-80172600D01*
X153571806Y-80172600D01*
X153587151Y-80171089D01*
X153601822Y-80166638D01*
X153615341Y-80159413D01*
X153627189Y-80149689D01*
X153636913Y-80137841D01*
X153644138Y-80124322D01*
X153648589Y-80109651D01*
X153650110Y-80094204D01*
X153651275Y-80092578D01*
X153653265Y-80092774D01*
G37*
G36*
X156193265Y-80092774D02*
G01*
X156194100Y-80094400D01*
X156194100Y-80185998D01*
X156193514Y-80187412D01*
X156185353Y-80195573D01*
X156171957Y-80215620D01*
X156162730Y-80237893D01*
X156158025Y-80261543D01*
X156158025Y-80285649D01*
X156162728Y-80309300D01*
X156171954Y-80331574D01*
X156185348Y-80351622D01*
X156193514Y-80359788D01*
X156194100Y-80361202D01*
X156194100Y-80452800D01*
X156193100Y-80454532D01*
X156191100Y-80454532D01*
X156190110Y-80452996D01*
X156188589Y-80437549D01*
X156184138Y-80422878D01*
X156176913Y-80409359D01*
X156167189Y-80397511D01*
X156155341Y-80387787D01*
X156141822Y-80380562D01*
X156127151Y-80376111D01*
X156111806Y-80374600D01*
X155420394Y-80374600D01*
X155405049Y-80376111D01*
X155390378Y-80380562D01*
X155376859Y-80387787D01*
X155365011Y-80397511D01*
X155355287Y-80409359D01*
X155348062Y-80422878D01*
X155343611Y-80437549D01*
X155342090Y-80452996D01*
X155340925Y-80454622D01*
X155338935Y-80454426D01*
X155338100Y-80452800D01*
X155338100Y-80361202D01*
X155338686Y-80359788D01*
X155346847Y-80351627D01*
X155360243Y-80331580D01*
X155369470Y-80309307D01*
X155374175Y-80285657D01*
X155374175Y-80261551D01*
X155369472Y-80237900D01*
X155360246Y-80215626D01*
X155346852Y-80195578D01*
X155338686Y-80187412D01*
X155338100Y-80185998D01*
X155338100Y-80094400D01*
X155339100Y-80092668D01*
X155341100Y-80092668D01*
X155342090Y-80094204D01*
X155343611Y-80109651D01*
X155348062Y-80124322D01*
X155355287Y-80137841D01*
X155365011Y-80149689D01*
X155376859Y-80159413D01*
X155390378Y-80166638D01*
X155405049Y-80171089D01*
X155420394Y-80172600D01*
X156111806Y-80172600D01*
X156127151Y-80171089D01*
X156141822Y-80166638D01*
X156155341Y-80159413D01*
X156167189Y-80149689D01*
X156176913Y-80137841D01*
X156184138Y-80124322D01*
X156188589Y-80109651D01*
X156190110Y-80094204D01*
X156191275Y-80092578D01*
X156193265Y-80092774D01*
G37*
G36*
X144128265Y-78187774D02*
G01*
X144129100Y-78189400D01*
X144129100Y-78280998D01*
X144128514Y-78282412D01*
X144120353Y-78290573D01*
X144106957Y-78310620D01*
X144097730Y-78332893D01*
X144093025Y-78356543D01*
X144093025Y-78380649D01*
X144097728Y-78404300D01*
X144106954Y-78426574D01*
X144120348Y-78446622D01*
X144128514Y-78454788D01*
X144129100Y-78456202D01*
X144129100Y-78547800D01*
X144128100Y-78549532D01*
X144126100Y-78549532D01*
X144125110Y-78547996D01*
X144123589Y-78532549D01*
X144119138Y-78517878D01*
X144111913Y-78504359D01*
X144102189Y-78492511D01*
X144090341Y-78482787D01*
X144076822Y-78475562D01*
X144062151Y-78471111D01*
X144046806Y-78469600D01*
X143355394Y-78469600D01*
X143340049Y-78471111D01*
X143325378Y-78475562D01*
X143311859Y-78482787D01*
X143300011Y-78492511D01*
X143290287Y-78504359D01*
X143283062Y-78517878D01*
X143278611Y-78532549D01*
X143277090Y-78547996D01*
X143275925Y-78549622D01*
X143273935Y-78549426D01*
X143273100Y-78547800D01*
X143273100Y-78456202D01*
X143273686Y-78454788D01*
X143281847Y-78446627D01*
X143295243Y-78426580D01*
X143304470Y-78404307D01*
X143309175Y-78380657D01*
X143309175Y-78356551D01*
X143304472Y-78332900D01*
X143295246Y-78310626D01*
X143281852Y-78290578D01*
X143273686Y-78282412D01*
X143273100Y-78280998D01*
X143273100Y-78189400D01*
X143274100Y-78187668D01*
X143276100Y-78187668D01*
X143277090Y-78189204D01*
X143278611Y-78204651D01*
X143283062Y-78219322D01*
X143290287Y-78232841D01*
X143300011Y-78244689D01*
X143311859Y-78254413D01*
X143325378Y-78261638D01*
X143340049Y-78266089D01*
X143355394Y-78267600D01*
X144046806Y-78267600D01*
X144062151Y-78266089D01*
X144076822Y-78261638D01*
X144090341Y-78254413D01*
X144102189Y-78244689D01*
X144111913Y-78232841D01*
X144119138Y-78219322D01*
X144123589Y-78204651D01*
X144125110Y-78189204D01*
X144126275Y-78187578D01*
X144128265Y-78187774D01*
G37*
G36*
X140318265Y-78187774D02*
G01*
X140319100Y-78189400D01*
X140319100Y-78280998D01*
X140318514Y-78282412D01*
X140310353Y-78290573D01*
X140296957Y-78310620D01*
X140287730Y-78332893D01*
X140283025Y-78356543D01*
X140283025Y-78380649D01*
X140287728Y-78404300D01*
X140296954Y-78426574D01*
X140310348Y-78446622D01*
X140318514Y-78454788D01*
X140319100Y-78456202D01*
X140319100Y-78547800D01*
X140318100Y-78549532D01*
X140316100Y-78549532D01*
X140315110Y-78547996D01*
X140313589Y-78532549D01*
X140309138Y-78517878D01*
X140301913Y-78504359D01*
X140292189Y-78492511D01*
X140280341Y-78482787D01*
X140266822Y-78475562D01*
X140252151Y-78471111D01*
X140236806Y-78469600D01*
X139545394Y-78469600D01*
X139530049Y-78471111D01*
X139515378Y-78475562D01*
X139501859Y-78482787D01*
X139490011Y-78492511D01*
X139480287Y-78504359D01*
X139473062Y-78517878D01*
X139468611Y-78532549D01*
X139467090Y-78547996D01*
X139465925Y-78549622D01*
X139463935Y-78549426D01*
X139463100Y-78547800D01*
X139463100Y-78456202D01*
X139463686Y-78454788D01*
X139471847Y-78446627D01*
X139485243Y-78426580D01*
X139494470Y-78404307D01*
X139499175Y-78380657D01*
X139499175Y-78356551D01*
X139494472Y-78332900D01*
X139485246Y-78310626D01*
X139471852Y-78290578D01*
X139463686Y-78282412D01*
X139463100Y-78280998D01*
X139463100Y-78189400D01*
X139464100Y-78187668D01*
X139466100Y-78187668D01*
X139467090Y-78189204D01*
X139468611Y-78204651D01*
X139473062Y-78219322D01*
X139480287Y-78232841D01*
X139490011Y-78244689D01*
X139501859Y-78254413D01*
X139515378Y-78261638D01*
X139530049Y-78266089D01*
X139545394Y-78267600D01*
X140236806Y-78267600D01*
X140252151Y-78266089D01*
X140266822Y-78261638D01*
X140280341Y-78254413D01*
X140292189Y-78244689D01*
X140301913Y-78232841D01*
X140309138Y-78219322D01*
X140313589Y-78204651D01*
X140315110Y-78189204D01*
X140316275Y-78187578D01*
X140318265Y-78187774D01*
G37*
G36*
X146033265Y-78187774D02*
G01*
X146034100Y-78189400D01*
X146034100Y-78280998D01*
X146033514Y-78282412D01*
X146025353Y-78290573D01*
X146011957Y-78310620D01*
X146002730Y-78332893D01*
X145998025Y-78356543D01*
X145998025Y-78380649D01*
X146002728Y-78404300D01*
X146011954Y-78426574D01*
X146025348Y-78446622D01*
X146033514Y-78454788D01*
X146034100Y-78456202D01*
X146034100Y-78547800D01*
X146033100Y-78549532D01*
X146031100Y-78549532D01*
X146030110Y-78547996D01*
X146028589Y-78532549D01*
X146024138Y-78517878D01*
X146016913Y-78504359D01*
X146007189Y-78492511D01*
X145995341Y-78482787D01*
X145981822Y-78475562D01*
X145967151Y-78471111D01*
X145951806Y-78469600D01*
X145260394Y-78469600D01*
X145245049Y-78471111D01*
X145230378Y-78475562D01*
X145216859Y-78482787D01*
X145205011Y-78492511D01*
X145195287Y-78504359D01*
X145188062Y-78517878D01*
X145183611Y-78532549D01*
X145182090Y-78547996D01*
X145180925Y-78549622D01*
X145178935Y-78549426D01*
X145178100Y-78547800D01*
X145178100Y-78456202D01*
X145178686Y-78454788D01*
X145186847Y-78446627D01*
X145200243Y-78426580D01*
X145209470Y-78404307D01*
X145214175Y-78380657D01*
X145214175Y-78356551D01*
X145209472Y-78332900D01*
X145200246Y-78310626D01*
X145186852Y-78290578D01*
X145178686Y-78282412D01*
X145178100Y-78280998D01*
X145178100Y-78189400D01*
X145179100Y-78187668D01*
X145181100Y-78187668D01*
X145182090Y-78189204D01*
X145183611Y-78204651D01*
X145188062Y-78219322D01*
X145195287Y-78232841D01*
X145205011Y-78244689D01*
X145216859Y-78254413D01*
X145230378Y-78261638D01*
X145245049Y-78266089D01*
X145260394Y-78267600D01*
X145951806Y-78267600D01*
X145967151Y-78266089D01*
X145981822Y-78261638D01*
X145995341Y-78254413D01*
X146007189Y-78244689D01*
X146016913Y-78232841D01*
X146024138Y-78219322D01*
X146028589Y-78204651D01*
X146030110Y-78189204D01*
X146031275Y-78187578D01*
X146033265Y-78187774D01*
G37*
G36*
X142177165Y-78169174D02*
G01*
X142178000Y-78170800D01*
X142178000Y-78262398D01*
X142177414Y-78263812D01*
X142169253Y-78271973D01*
X142155857Y-78292020D01*
X142146630Y-78314293D01*
X142141925Y-78337943D01*
X142141925Y-78362049D01*
X142146628Y-78385700D01*
X142155854Y-78407974D01*
X142169248Y-78428022D01*
X142177414Y-78436188D01*
X142178000Y-78437602D01*
X142178000Y-78529200D01*
X142177000Y-78530932D01*
X142175000Y-78530932D01*
X142174010Y-78529396D01*
X142172489Y-78513949D01*
X142168038Y-78499278D01*
X142160813Y-78485759D01*
X142151089Y-78473911D01*
X142139241Y-78464187D01*
X142125722Y-78456962D01*
X142111051Y-78452511D01*
X142095706Y-78451000D01*
X141404294Y-78451000D01*
X141388949Y-78452511D01*
X141374278Y-78456962D01*
X141360759Y-78464187D01*
X141348911Y-78473911D01*
X141339187Y-78485759D01*
X141331962Y-78499278D01*
X141327511Y-78513949D01*
X141325990Y-78529396D01*
X141324825Y-78531022D01*
X141322835Y-78530826D01*
X141322000Y-78529200D01*
X141322000Y-78437602D01*
X141322586Y-78436188D01*
X141330747Y-78428027D01*
X141344143Y-78407980D01*
X141353370Y-78385707D01*
X141358075Y-78362057D01*
X141358075Y-78337951D01*
X141353372Y-78314300D01*
X141344146Y-78292026D01*
X141330752Y-78271978D01*
X141322586Y-78263812D01*
X141322000Y-78262398D01*
X141322000Y-78170800D01*
X141323000Y-78169068D01*
X141325000Y-78169068D01*
X141325990Y-78170604D01*
X141327511Y-78186051D01*
X141331962Y-78200722D01*
X141339187Y-78214241D01*
X141348911Y-78226089D01*
X141360759Y-78235813D01*
X141374278Y-78243038D01*
X141388949Y-78247489D01*
X141404294Y-78249000D01*
X142095706Y-78249000D01*
X142111051Y-78247489D01*
X142125722Y-78243038D01*
X142139241Y-78235813D01*
X142151089Y-78226089D01*
X142160813Y-78214241D01*
X142168038Y-78200722D01*
X142172489Y-78186051D01*
X142174010Y-78170604D01*
X142175175Y-78168978D01*
X142177165Y-78169174D01*
G37*
G36*
X148059912Y-76671186D02*
G01*
X148068073Y-76679347D01*
X148088120Y-76692743D01*
X148110393Y-76701970D01*
X148134043Y-76706675D01*
X148158149Y-76706675D01*
X148181800Y-76701972D01*
X148204074Y-76692746D01*
X148224122Y-76679352D01*
X148232288Y-76671186D01*
X148233702Y-76670600D01*
X148325300Y-76670600D01*
X148327032Y-76671600D01*
X148327032Y-76673600D01*
X148325496Y-76674590D01*
X148310049Y-76676111D01*
X148295378Y-76680562D01*
X148281859Y-76687787D01*
X148270011Y-76697511D01*
X148260287Y-76709359D01*
X148253062Y-76722878D01*
X148248611Y-76737549D01*
X148247100Y-76752894D01*
X148247100Y-77444306D01*
X148248611Y-77459651D01*
X148253062Y-77474322D01*
X148260287Y-77487841D01*
X148270011Y-77499689D01*
X148281859Y-77509413D01*
X148295378Y-77516638D01*
X148310049Y-77521089D01*
X148325496Y-77522610D01*
X148327122Y-77523775D01*
X148326926Y-77525765D01*
X148325300Y-77526600D01*
X148233702Y-77526600D01*
X148232288Y-77526014D01*
X148224127Y-77517853D01*
X148204080Y-77504457D01*
X148181807Y-77495230D01*
X148158157Y-77490525D01*
X148134051Y-77490525D01*
X148110400Y-77495228D01*
X148088126Y-77504454D01*
X148068078Y-77517848D01*
X148059912Y-77526014D01*
X148058498Y-77526600D01*
X147966900Y-77526600D01*
X147965168Y-77525600D01*
X147965168Y-77523600D01*
X147966704Y-77522610D01*
X147982151Y-77521089D01*
X147996822Y-77516638D01*
X148010341Y-77509413D01*
X148022189Y-77499689D01*
X148031913Y-77487841D01*
X148039138Y-77474322D01*
X148043589Y-77459651D01*
X148045100Y-77444306D01*
X148045100Y-76752894D01*
X148043589Y-76737549D01*
X148039138Y-76722878D01*
X148031913Y-76709359D01*
X148022189Y-76697511D01*
X148010341Y-76687787D01*
X147996822Y-76680562D01*
X147982151Y-76676111D01*
X147966704Y-76674590D01*
X147965078Y-76673425D01*
X147965274Y-76671435D01*
X147966900Y-76670600D01*
X148058498Y-76670600D01*
X148059912Y-76671186D01*
G37*
M02*
